<?xml version="1.0" encoding="UTF-8"?>
<svg width="100" height="100" viewBox="0 0 100 100" fill="none" xmlns="http://www.w3.org/2000/svg">
  <g transform="translate(25, 25) scale(0.09765625)">
    
<path stroke="#f87171" stroke-width="1.5" stroke-linecap="round" d="M0 0 C6.692915165312911 5.794537290774251 11.728001124894377 13.843983269791153 16.9765625 20.93359375 C20.40134676261789 25.556943642987328 23.920439306829678 30.103401591226103 27.453125 34.64453125 C31.071374748283148 39.35289470449666 34.520375823728784 44.18895269274037 38 49 C38.00879936218263 48.14555549621582 38.00879936218263 48.14555549621582 38.01777648925781 47.27384948730469 C38.08163964183609 41.35272804279913 38.166040381209996 35.43215371281501 38.262451171875 29.511474609375 C38.295735081340865 27.300935939239082 38.32375612158785 25.090311572705033 38.346435546875 22.879638671875 C38.379917593234495 19.704543339444314 38.4322305151025 16.530235831115306 38.48828125 13.35546875 C38.494671173095696 12.364758758544923 38.50106109619139 11.374048767089846 38.50764465332031 10.353317260742188 C38.527438812255866 9.432589263916014 38.54723297119142 8.511861267089841 38.567626953125 7.563232421875 C38.578730010986334 6.752709197998044 38.58983306884767 5.942185974121095 38.60127258300781 5.1071014404296875 C39.09980923451997 2.4725514904100265 39.88878159022471 1.613805396483972 42 0 C45.25 -1.0625 45.25 -1.0625 49 -1 C54.340711757132624 2.3259430329907005 58.08738393755999 7.392245059295746 61.6875 12.4375 C62.7270404296155 13.859629583127393 63.768765797253764 15.280164216153949 64.8125 16.69921875 C65.3384375 17.4151318359375 65.864375 18.131044921875002 66.40625 18.86865234375 C68.91855154169554 22.228393835631444 71.54796815445798 25.489875287547505 74.1875 28.75 C79.28164517639414 35.05553240048525 84.18887203814586 41.475818900212985 89 48 C89.193359375 47.37351562500001 89.38671875 46.74703124999999 89.5859375 46.1015625 C89.84632812500001 45.284296874999995 90.10671875000003 44.46703124999999 90.375 43.625 C90.63023437499999 42.812890624999994 90.88546874999997 42.00078125 91.1484375 41.1640625 C92 39 92 39 94 37 C97.90027961087208 36.39478419831295 100.48111636420867 36.04833431948343 103.8828125 38.1796875 C106.01051894348029 40.0403178208677 107.99953719847429 42.003016264216086 110 44 C111.38916817406545 45.2752363957608 112.77872740373994 46.5500830618856 114.176025390625 47.81640625 C116.79842017012044 50.195241507897975 119.39672806175793 52.6002826177109 122 55 C123.04424496257434 55.96096561353414 124.08851576310383 56.92190315070377 125.1328125 57.8828125 C131.59908624397838 63.838013049023644 138.03555009500974 69.82436751113597 144.452880859375 75.832275390625 C147.47870324869893 78.66150814526094 150.5147069595523 81.47747992874532 153.58203125 84.26171875 C154.41722290039064 85.02053344726562 154.41722290039064 85.02053344726562 155.269287109375 85.794677734375 C156.7786566043602 87.16268010013547 158.29155389246216 88.52678724173926 159.8046875 89.890625 C162.19976067450614 92.1919408616251 162.93781695021954 93.04485632964139 163.1514892578125 96.326904296875 C163.16401733398436 97.31601806640624 163.17654541015622 98.3051318359375 163.189453125 99.32421875 C163.2062059020996 100.47121246337889 163.22295867919922 101.61820617675781 163.24021911621094 102.79995727539063 C163.2537593078613 104.08284637451172 163.26729949951175 105.36573547363281 163.28125 106.6875 C163.29917551617388 108.07539314755797 163.3174621684733 109.46328166896254 163.33607482910156 110.85116577148438 C163.3866135743208 114.73800488783601 163.4302882458678 118.62489598064204 163.4725227355957 122.51183319091797 C163.50009742282742 125.00882199341606 163.52941460725071 127.50578437804839 163.55929565429688 130.00274658203125 C163.96495655020556 163.99945466066703 164.2415667540982 197.99765166013586 164.5116709470749 231.99566769599915 C164.54505713880081 236.19756459025473 164.57889871073058 240.39945742258396 164.61316764354706 244.60134720802307 C164.73727463634145 259.84411323953253 164.84661527618846 275.0868488564967 164.9271411895752 290.3299217224121 C164.96748259953586 297.6133668497506 165.02585119516118 304.8962778499962 165.10485345125198 312.1793802976608 C165.16825119930434 318.0954652764187 165.21172777356855 324.01159322219786 165.2486400604248 329.92790603637695 C165.26760855974032 332.3969015687152 165.2935708472155 334.8658543714027 165.32690620422363 337.3346977233887 C165.37173367364335 340.7227974024065 165.39183894265625 344.1101888190481 165.406005859375 347.49853515625 C165.42525808334346 348.4954500198364 165.44451030731204 349.49236488342285 165.46434593200684 350.5194892883301 C165.45917774401192 354.874184787452 165.44524212501472 357.2895120169441 163.0906982421875 361.04673767089844 C162.4007678222656 361.69131423950193 161.7108374023437 362.3358908081055 161 363 C160.38713134765624 363.5787084960937 159.77426269531247 364.1574169921875 159.142822265625 364.753662109375 C158.51947998046876 365.27710205078125 157.89613769531252 365.8005419921875 157.25390625 366.33984375 C153.02595340366213 369.95808026259283 148.9748427482687 373.73395259837423 144.9375 377.5625 C143.4416422241681 378.9755102682474 141.94554382912378 380.3882658478629 140.44921875 381.80078125 C139.70462402343753 382.5041259765625 138.960029296875 383.207470703125 138.19287109375 383.93212890625 C132.48593502438405 389.3137530999184 126.74382998531144 394.6578145042378 121 400 C120.4010693359375 400.5576806640625 119.80213867187501 401.115361328125 119.18505859375 401.68994140625 C117.43756872334052 403.31596578471687 115.687925020394 404.93963631712455 113.9375 406.5625 C113.425419921875 407.039130859375 112.91333984375001 407.51576171875 112.3857421875 408.0068359375 C110.93432312336205 409.34932690860853 109.46730148368488 410.6748865470356 108 412 C107.48018554687496 412.4722802734375 106.96037109375004 412.944560546875 106.4248046875 413.43115234375 C103.56784241477891 415.9387723099436 102.23557464753128 416.9675069451681 98.375 417.5 C94.77042474945881 416.96598885177167 93.57894068943881 416.4764304946703 91 414 C90.171875 411.51953125000006 90.171875 411.51953125000006 89.75 408.8125 C89.525703125 407.46091796875 89.525703125 407.46091796875 89.296875 406.08203125 C89.19890625 405.3949609375 89.10093749999999 404.707890625 89 404 C83.26583264397789 411.3592885191344 77.64782986420312 418.7934115331031 72.125 426.3125 C67.52168086138033 432.5788643163352 62.907190101345236 438.8360238071962 58.25 445.0625 C57.7487158203125 445.73514892578123 57.247431640624995 446.4077978515625 56.73095703125 447.100830078125 C54.91342167482105 449.52600299454355 53.14606004290431 451.8539399570957 51 454 C44.03508277278772 454.67402424779476 44.03508277278772 454.67402424779476 40.90869140625 452.63818359375 C37.908436308897535 448.49124619518375 38.39671842738403 444.3244357781501 38.390625 439.328125 C38.374088745117206 438.29057067871094 38.357552490234355 437.25301635742187 38.34051513671875 436.18402099609375 C38.29196015193094 432.8726208974784 38.270646984584744 429.5616802949064 38.25 426.25 C38.221846682667945 424.0038830390594 38.19192016220859 421.7577875524597 38.16015625 419.51171875 C38.086199379030944 414.0078961265934 38.03460079764079 408.504203129679 38 403 C31.018266922849307 412.44766013073036 24.04919959418396 421.90211781872824 17.1875 431.4375 C3.3553321678322163 450.6446678321678 3.3553321678322163 450.6446678321678 0 454 C-7.082059121072007 454.6853605601038 -7.082059121072007 454.6853605601038 -10.09527587890625 452.43560791015625 C-12.617905948646268 449.2098716031426 -12.574297313242823 446.50014969347126 -12.5458984375 442.5693359375 C-12.556236114501957 441.82748046875 -12.566573791503913 441.085625 -12.577224731445313 440.3212890625 C-12.60666264595983 437.87542974319086 -12.608152044297583 435.4303975825942 -12.609375 432.984375 C-12.62435606275281 431.2861370915349 -12.641083057721232 429.5879137594078 -12.65948486328125 427.88970947265625 C-12.703179250371107 423.42467582714636 -12.723161998795007 418.959838719484 -12.73822021484375 414.49462890625 C-12.757783842132085 409.9364051140131 -12.799754659325515 405.378393809579 -12.83984375 400.8203125 C-12.915168384736432 391.8802738422148 -12.965446153891094 382.94028269130297 -13 374 C-14.577315706804228 375.719709633757 -16.152395605689946 377.44147007803065 -17.7265625 379.1640625 C-18.60393066406249 380.1226416015625 -19.481298828125006 381.081220703125 -20.38525390625 382.06884765625 C-22.8017536663927 384.77776419409065 -25.10712346181282 387.54133363416526 -27.375 390.375 C-31.306906428377374 395.249725909427 -35.473189308960656 399.846180453575 -39.7470703125 404.41845703125 C-42.44585943715407 407.3070184307096 -45.084743617572826 410.21908284932897 -47.625 413.25 C-50.50460486511267 416.58427931749884 -51.02610842019925 416.90982485372217 -55.375 417.3125 C-59 417 -59 417 -61.19510221481323 415.37363624572754 C-63.53135928053217 412.3012049446089 -63.50115118009546 410.54829673945676 -63.50336456298828 406.7093200683594 C-63.513795552253725 405.40799951553345 -63.52422654151917 404.1066789627075 -63.53497362136841 402.76592445373535 C-63.526325036674564 401.3183940271502 -63.51729839523256 399.8708658202665 -63.5079345703125 398.42333984375 C-63.512541770499354 396.88830663127123 -63.51889346908774 395.353277824797 -63.526843547821045 393.81825828552246 C-63.54358506269469 389.593513165621 -63.535268780863106 385.3691281612001 -63.52289867401123 381.1443815231323 C-63.513870138589624 376.59079704085315 -63.527806963270336 372.0372756673876 -63.538818359375 367.48370361328125 C-63.556631713045505 358.5606674186379 -63.55275108319057 349.63776558676267 -63.54116779565811 340.7147240638733 C-63.53214480519469 333.4646509896247 -63.53090455146048 326.214615648259 -63.53526306152344 318.96453857421875 C-63.53587599366904 317.9338010442257 -63.53648892581464 316.90306351423266 -63.537120431661606 315.8410915136337 C-63.53839929584365 313.74735656271565 -63.53969614786604 311.65362162270907 -63.54101079702377 309.55988669395447 C-63.55242484515401 289.9136346885124 -63.53928996131262 270.26745726427316 -63.517809331417084 250.62121748924255 C-63.499937609194575 233.75330033947625 -63.5030414848151 216.88549328760874 -63.521484375 200.017578125 C-63.542876529863946 180.44301095029718 -63.551326131843155 160.86850919118623 -63.53903532028198 141.29393196105957 C-63.537761084852576 139.20777512617022 -63.53650360294168 137.12161828097896 -63.53526306152344 135.03546142578125 C-63.53464595943689 134.00895520567894 -63.534028857350336 132.98244898557664 -63.53339305520058 131.9248365163803 C-63.529935185537056 124.6810559035394 -63.53577789786357 117.43731668364416 -63.54518127441406 110.19354248046875 C-63.556384266019194 101.36923886689496 -63.553397089541676 92.54507762756536 -63.5320582985878 83.72079038619995 C-63.52152492425358 79.21599456527785 -63.517464817837435 74.71143636728198 -63.53065490722656 70.2066421508789 C-63.54253754182011 66.08615056200752 -63.536085078585415 61.966117790742075 -63.51474469900131 57.84566807746887 C-63.510261013072665 56.35178751320345 -63.5125843238734 54.85786851701428 -63.52224785089493 53.364012479782104 C-63.534343174615145 51.339594644475326 -63.519591448205745 49.31506886585268 -63.50336456298828 47.290679931640625 C-63.502390449047084 45.60113913536071 -63.502390449047084 45.60113913536071 -63.50139665603638 43.87746620178223 C-62.88149033891963 40.31988468563168 -61.84577222406148 39.162939258623226 -59 37 C-55.42013139403505 36.05792931421976 -54.36094498513833 35.79566138032543 -51 37 C-46.8949427160407 40.297021582950066 -43.47868939489905 44.057485352447756 -40 48 C-39.417343749999986 48.65484375 -38.8346875 49.309687499999995 -38.234375 49.984375 C-37.17404665940185 51.19464876250092 -36.122359089354234 52.41253169864538 -35.078125 53.63671875 C-31.533702813852898 57.66749961958459 -27.83231028810667 61.554130433193166 -24.149169921875 65.4580078125 C-23.572717285156244 66.071279296875 -22.99626464843749 66.68455078125 -22.40234375 67.31640625 C-21.89179443359376 67.85724853515624 -21.38124511718749 68.3980908203125 -20.855224609375 68.955322265625 C-18.17092551425452 71.91373849429115 -15.588762685862662 74.95797121740698 -13 78 C-12.994133758544933 77.08180480957031 -12.988267517089838 76.16360961914063 -12.982223510742188 75.21759033203125 C-12.924326197603563 66.56557105216706 -12.852266516842349 57.913810741785895 -12.76428508758545 49.26204299926758 C-12.719552408668818 44.814036665392905 -12.68030277030374 40.3661225383685 -12.653564453125 35.91796875 C-12.627560233185278 31.62544719499875 -12.587178543410829 27.333279918491577 -12.536813735961914 23.040977478027344 C-12.520125455437125 21.403169307628026 -12.508623390176922 19.765299831794394 -12.502386093139648 18.127418518066406 C-12.492766070919743 15.833591078796601 -12.464733621341708 13.540673993106694 -12.432373046875 11.2470703125 C-12.421269989013666 9.94135070800781 -12.410166931152332 8.635631103515621 -12.398727416992188 7.29034423828125 C-11.978286281544314 3.820815912406303 -11.484968253983368 2.4087666103342222 -9 0 C-5.191051552711258 -1.2696494824295819 -3.835076308381417 -1.3024787462427483 0 0 Z M4 32 C4 160.37 4 288.74 4 421 C10.931519410792845 412.3356007365089 17.825158401465274 403.6168364422651 24.082817554473877 394.44660437107086 C26.16587864136227 391.422612774378 28.265283013105233 388.64545990247046 30.84947967529297 386.0318202972412 C41.41021343281432 374.78630360360467 40.60199765876257 362.06863667979314 40.467289447784424 347.39895153045654 C40.44631572813603 343.7994045655076 40.48912339830326 340.200489235506 40.523223876953125 336.6011199951172 C40.579568311665014 329.568562368255 40.576794227759166 322.53725233464536 40.55173486471176 315.50456024706364 C40.532282054013876 309.78317034137405 40.53377203499025 304.0621377807676 40.54985046386719 298.3407402038574 C40.55324497774245 297.11472772855313 40.55324497774245 297.11472772855313 40.55670806765556 295.8639473244548 C40.56137012356362 294.20299866706165 40.56606788993838 292.5420501095277 40.570800960063934 290.88110165297985 C40.612420550552315 275.33975501047786 40.58533152979027 259.79910462651804 40.53542870283127 244.25782053172588 C40.494475543924096 230.95492766337838 40.5170359738039 217.6533512258756 40.5849609375 204.3505859375 C40.66402980819467 188.86426386938146 40.69991803294212 173.37875985332659 40.67052412033081 157.8922370672226 C40.66752370573664 156.23712194293176 40.66459136089239 154.58200669380955 40.66172790527344 152.9268913269043 C40.66031229883433 152.11276749916374 40.65889669239522 151.29864367142318 40.657438188791275 150.4598494246602 C40.650550943031845 144.75369274162856 40.67436956776618 139.0481505950334 40.71070861816406 133.34212112426758 C40.75439119411271 126.37556536390807 40.751320498990594 119.41085087816529 40.69016307592392 112.44439746439457 C40.66020181947863 108.89686706078521 40.65010691701329 105.35252695284632 40.69771194458008 101.80511665344238 C40.89133826021353 86.21670764720149 40.29330137746908 74.98242789669642 29.234336853027344 63.2874813079834 C28.682943830490103 62.73481991529465 28.131550807952863 62.1821585226059 27.563448905944824 61.61274981498718 C25.26151314853493 59.23822612396086 23.364195230754092 56.655415660586954 21.40625 53.9921875 C20.74882812499999 53.131093750000005 20.091406250000006 52.269999999999996 19.4140625 51.3828125 C18.78242187500001 50.555234375 18.150781249999994 49.727656249999995 17.5 48.875 C16.837421875000018 48.00874999999999 16.174843750000008 47.1425 15.4921875 46.25 C12.631415730898311 42.500223458030064 9.799815633955177 38.74612826538154 7.09375 34.8828125 C6.402812499999982 33.931484375 5.7118750000000205 32.98015625 5 32 C4.670000000000016 32 4.340000000000003 32 4 32 Z M55 32 C55 160.37 55 288.74 55 421 C57.67682698925063 418.3231730107494 59.787772485854816 416.1045105152764 61.9609375 413.12109375 C62.50838623046877 412.37351806640623 63.05583496093749 411.6259423828125 63.619873046875 410.855712890625 C64.19906494140628 410.0577026367188 64.7782568359375 409.2596923828125 65.375 408.4375 C66.61839442817563 406.73690958945406 67.86188701669101 405.03639094571366 69.10546875 403.3359375 C70.06332275390628 402.0225439453125 70.06332275390628 402.0225439453125 71.04052734375 400.6826171875 C74.24240203700646 396.2990887636896 77.4655983334797 391.93131707115475 80.6875 387.5625 C81.2751513671875 386.7644897460938 81.86280273437501 385.9664794921875 82.46826171875 385.144287109375 C83.0188525390625 384.39671142578123 83.56944335937499 383.6491357421875 84.13671875 382.87890625 C84.85927856445312 381.89772827148437 84.85927856445312 381.89772827148437 85.596435546875 380.896728515625 C86.99999999999989 379.0000000000001 86.99999999999989 379.0000000000001 88.5629054903984 377.2017964720726 C90.30224160990804 374.5369305874019 90.38202929118779 373.0365603507456 90.39707660675049 369.8745279312134 C90.4092167407274 368.8330455452204 90.42135687470437 367.7915631592274 90.43386489152908 366.71852070093155 C90.4319475644827 365.5756460827589 90.43003023743631 364.43277146458627 90.42805480957031 363.25526428222656 C90.4376737421751 362.04003678262234 90.44729267477987 360.8248092830181 90.45720309019089 359.5727567076683 C90.48068555166105 356.19768680741674 90.4906566556848 352.82306808489585 90.49478733539581 349.4479511976242 C90.50239650832873 345.8082808954626 90.52707054651967 342.1687188434136 90.54927062988281 338.52911376953125 C90.59902905268217 329.7371959338943 90.62012237413421 320.9452938345292 90.63878944516182 312.1532644331455 C90.64833107740844 308.01026025502523 90.6612778915295 303.86726713877493 90.67401695251465 299.724271774292 C90.71541962809317 285.9464482963539 90.75050733225726 272.1686368898704 90.76451587677002 258.39075565338135 C90.7654261372611 257.50885068085046 90.76633639775218 256.62694570831957 90.76727424189448 255.71831634268165 C90.76863968057557 254.3923222265206 90.76863968057557 254.3923222265206 90.7700327038765 253.03954035043716 C90.77188814861074 251.2482840493742 90.77375552300032 249.45702776062916 90.775634765625 247.665771484375 C90.77656136535109 246.77724970929324 90.77748796507717 245.8887279342115 90.77844264358282 244.97328125685453 C90.79462509534704 230.59080704523387 90.85483285871885 216.2088795772647 90.93393448740244 201.8266273215413 C91.0145360243472 187.0515081656392 91.05737495823269 172.27666430248274 91.06289595365524 157.5013226866722 C91.06688815560784 149.20916651318953 91.08700991060527 140.91775454971275 91.14899635314941 132.62581062316895 C91.20164875538262 125.56117680724947 91.21972046980653 118.49749691555985 91.193553365767 111.43269754201174 C91.18123851271002 107.83143070410648 91.18470837357052 104.23210064294727 91.23242950439453 100.6310863494873 C92.08898229238758 83.25539253017735 92.08898229238758 83.25539253017735 85.15653991699219 67.99314880371094 C83.48046434952408 66.28570187527716 81.76518668959613 64.61515332775382 80 63 C78.74070443694882 61.44052257991065 77.50487776258097 59.86122016192428 76.3125 58.25 C75.20870983907167 56.83303996073988 74.10454658634194 55.416370470894734 73 54 C69.62133622825775 49.66719156963518 66.24546814877453 45.333230482413185 62.91796875 40.9609375 C62.453261718750014 40.3512109375 61.98855468750003 39.741484375 61.509765625 39.11328125 C60.26823682142748 37.48113850970525 59.030470556245064 35.846135645283084 57.79296875 34.2109375 C57.201289062499995 33.481328125 56.60960937499999 32.75171875 56 32 C55.670000000000016 32 55.34000000000003 32 55 32 Z M106 63 C106 170.91000000000003 106 278.82000000000005 106 390 C109.89135165354355 388.0543241732282 111.7823722579783 386.3982657890767 114.75 383.3125 C118.41485139761318 379.5669250033204 122.15774777714302 376.04938216264514 126.13671875 372.64453125 C128.61355244504574 370.45847886925736 130.90107170497913 368.1098427058641 133.21484375 365.75390625 C135.67609733777363 363.33573806420054 138.27908346807754 361.1016649668095 140.91015625 358.87109375 C141.5998046875 358.2536328125 142.28945312500002 357.636171875 143 357 C143.49349724769593 356.61157361984255 143.98699449539185 356.22314723968503 144.49544620513916 355.8229503631592 C146.87783118183484 353.7736132751923 148.70511861045418 352.105226786718 149.531156539917 349.00920486450195 C149.7028175367111 346.6347665738482 149.6853880973223 344.3290056811281 149.601318359375 341.94970703125 C149.5940503883362 341.0467325973511 149.5867824172974 340.14375816345216 149.5792942047119 339.2134208679199 C149.54837103075977 336.18547676425567 149.47489518822476 333.16002323178395 149.40234375 330.1328125 C149.37271192097063 327.9534182253994 149.34617675767333 325.7739799845008 149.32249450683594 323.5945129394531 C149.26759654578234 318.8812400385254 149.19657446520205 314.16857190597295 149.11492919921875 309.4556884765625 C148.99026104287577 301.9181696133958 148.93651857038316 294.38117159103587 148.89892578125 286.8427734375 C148.89232500076292 285.55920802116395 148.88572422027585 284.2756426048279 148.8789234161377 282.95318126678467 C148.86540170537245 280.3211965536982 148.8519421096301 277.689211520805 148.83854293823242 275.0572261810303 C148.8023001679561 268.2725347051212 148.75059845666453 261.4879522769404 148.6982421875 254.703369140625 C148.6929857802391 254.0184387552738 148.6877293729782 253.33350836992264 148.6823136806488 252.6278225183487 C148.60502264355944 242.6235223994674 148.51551614030302 232.61936251277575 148.4202058315277 222.61521923542023 C148.36521465996162 216.82899774189255 148.31161997957548 211.04276317391074 148.25817918777466 205.25652718544006 C148.23834048651298 203.11966173108738 148.2181504861868 200.98279977529512 148.19794845581055 198.84593772888184 C148.0448255371519 182.48376651968513 147.98238748891924 166.12746573823694 148.14465141296387 149.7649154663086 C148.188524277709 144.7610187562926 148.201246073971 139.75695027427417 148.21163654327393 134.7528839111328 C148.22264256134576 131.08762051279268 148.2572425154251 127.42604953339065 148.35110473632813 123.76190185546875 C149.40263177400345 109.03796235561845 149.40263177400345 109.03796235561845 144.247802734375 95.841064453125 C141.65975552477812 93.17503185046863 138.8617618808043 91.11201177746112 135.7173309326172 89.15126037597656 C132.70031019713758 87.12871692771762 130.17269247917864 84.5736267444217 127.5625 82.0625 C126.49812583779226 81.07722730051665 125.43195035428323 80.09389381114381 124.36328125 79.11328125 C121.93495660108226 76.87024754299672 119.5179681750131 74.61551202769063 117.10546875 72.35546875 C116.46214599609374 71.75404052734375 115.81882324218748 71.1526123046875 115.156005859375 70.532958984375 C113.90356747845806 69.361374829663 112.65301797453321 68.18776755664797 111.404541015625 67.011962890625 C109.04340103975983 64.27053738673794 109.04340103975983 64.27053738673794 106 63 Z M-47 66 C-47 171.93 -47 277.86 -47 387 C-38.32159882634778 378.3215988263478 -29.91336606450659 369.42452246915985 -22.29296875 359.79296875 C-20 357 -20 357 -18.061911582946777 355.58118629455566 C-13.859497561842915 352.0623088207983 -11.858930669684213 348.7086404323184 -11.251039505004883 343.28661727905273 C-10.854605463337009 337.0610914053748 -10.929319511730455 330.8338455734965 -10.980712890625 324.59912109375 C-10.971504374993742 322.1953737349913 -10.958878818764873 319.7916374030211 -10.943099975585938 317.38792419433594 C-10.914280333395084 311.54909645132943 -10.922726103368063 305.7112097125931 -10.949426122009754 299.8723893016577 C-10.970268109630638 295.1262228947471 -10.97502743916533 290.3802883447082 -10.968412399291992 285.63408279418945 C-10.967475257925685 284.9573597598821 -10.966538116559377 284.2806367255747 -10.965572576969862 283.583406932652 C-10.963586985775748 282.20847579630254 -10.961558984244562 280.83354472055976 -10.959489040076733 279.4586137086153 C-10.941871838156146 266.5825399249875 -10.972422894633667 253.70693071963126 -11.020107857882977 240.8309554606676 C-11.059951870716475 229.79011820694444 -11.06074278469535 218.74985052386268 -11.032470703125 207.708984375 C-10.999635934248033 194.8744434701376 -10.98931123834953 182.04022676673713 -11.016017854213715 169.20566046237946 C-11.018817782219116 167.83653557843405 -11.021595622726863 166.46741064913635 -11.024351119995117 165.09828567504883 C-11.02572603631765 164.42471853367982 -11.027100952640183 163.75115139231087 -11.02851753309369 163.05717312544584 C-11.036703648613695 158.31739165268874 -11.029047157662575 153.57778782485823 -11.01536750793457 148.8380241394043 C-10.999041537446118 142.45678885882933 -11.017165749229946 136.0765573165034 -11.061899185180664 129.69546699523926 C-11.072753003321083 127.35376610133358 -11.071704765298762 125.01197532451849 -11.05789566040039 122.67028999328613 C-11.041006256353313 119.47318694528664 -11.067223967682452 116.27923317434391 -11.104385375976563 113.08236694335938 C-11.089452443718926 112.15561357855796 -11.074519511461261 111.22886021375655 -11.059134066104889 110.27402341365814 C-11.168064507544557 105.29926488317858 -11.790413125227587 102.66866508165305 -15.364569664001465 99.08860206604004 C-16.57323312979338 98.05537572274099 -17.78497200398732 97.02573438030156 -19 96 C-20.042126348006036 94.85231342242443 -21.065895585883084 93.68743060736965 -22.0625 92.5 C-26.182560917922643 87.71511107032165 -30.517619563875257 83.13498288271109 -34.849853515625 78.54296875 C-38.296876960203974 74.87590204320944 -41.62241714041164 71.14576892967509 -44.833740234375 67.269775390625 C-45.21860595703126 66.85074951171875 -45.603471679687516 66.4317236328125 -46 66 C-46.329999999999984 66 -46.66 66 -47 66 Z " fill="none" transform="translate(209,29)"/>
<path stroke="#f87171" stroke-width="1.5" stroke-linecap="round" d="M0 0 C2.7825105836512876 2.3337185540301135 2.9750227177183604 3.8282811843137665 3.5 7.4375 C2.890567875937677 11.779703883944052 1.2233355698563315 13.31613683556833 -2 16 C-4.832593143624493 18.096991612231378 -7.752961358986354 20.049202129811448 -10.6875 22 C-12.38239359852308 23.14974079681616 -14.076380313829489 24.300819433961692 -15.76953125 25.453125 C-18.364801609177817 27.21463387175109 -20.961333365206897 28.973991515122975 -23.56396484375 30.724609375 C-26.014223253477425 32.381310062067215 -28.445822914139143 34.062589039103614 -30.875 35.75 C-31.61709716796875 36.2437109375 -32.3591943359375 36.737421874999995 -33.123779296875 37.24609375 C-39.45117836284713 41.69138874898192 -43.42269415063973 47.3586207676465 -45 55 C-45.11283410052852 56.832115006402034 -45.17585564144264 58.6675799527124 -45.205322265625 60.5029296875 C-45.225267486572264 61.60376892089843 -45.24521270751953 62.704608154296864 -45.26576232910156 63.83880615234375 C-45.29083106994629 65.6124252319336 -45.29083106994629 65.6124252319336 -45.31640625 67.421875 C-45.33718734741211 68.63699768066408 -45.35796844482422 69.8521203613281 -45.37937927246094 71.10406494140625 C-45.444768282211385 74.985985729177 -45.503710512958676 78.86797419855276 -45.5625 82.75 C-45.605695324646774 85.3815174183689 -45.64930994270952 88.01302799011887 -45.693359375 90.64453125 C-45.80043883221927 97.0962826025908 -45.90222514251235 103.54810129457712 -46 110 C-44.73792724609375 110.26554687499998 -43.475854492187494 110.53109375 -42.175537109375 110.8046875 C-40.48030526294555 111.1614548806262 -38.78507418436223 111.51822590979793 -37.08984375 111.875 C-36.26270874023437 112.04902343750001 -35.43557373046875 112.223046875 -34.5833740234375 112.40234375 C-28.908718203086238 113.59671710658552 -23.235155560246454 114.79616302275761 -17.5625 116 C-16.863868408203132 116.14018554687499 -16.16523681640625 116.28037109375 -15.4454345703125 116.4248046875 C-11.173987063908683 117.38436480223578 -8.737004879916938 118.55688821003076 -6 122 C-4.429437943545437 125.14112411290913 -4.84381183533884 128.50128030726788 -4.8388671875 131.950439453125 C-4.8339022827148455 132.77175354003907 -4.828937377929691 133.59306762695311 -4.823822021484375 134.43927001953125 C-4.809183880138448 137.16394887350413 -4.802395296894375 139.88856948779872 -4.796875 142.61328125 C-4.791124451901638 144.50416567102488 -4.785366707277376 146.39505007017632 -4.77960205078125 148.2859344482422 C-4.769087048788549 152.25467195927283 -4.7632478024581815 156.2233891846183 -4.759765625 160.192138671875 C-4.754282986504336 165.27657516421198 -4.730261982566063 170.36074357132196 -4.701793670654297 175.44509601593018 C-4.683164669040821 179.35274537379075 -4.677961527279251 183.26033023411753 -4.676429748535156 187.1680202484131 C-4.673402762334717 189.04230399153096 -4.665372684653846 190.91658658745052 -4.652244567871094 192.79082679748535 C-4.635180246174173 195.41455044530164 -4.637065304353001 198.03762024784044 -4.6435546875 200.661376953125 C-4.634339904785151 201.4350712585449 -4.625125122070315 202.20876556396485 -4.615631103515625 203.0059051513672 C-4.650532727344725 207.51301123185175 -5.21063452298219 210.41459092271828 -8 214 C-9.791503906250014 215.032470703125 -9.791503906250014 215.032470703125 -11.8515625 215.61328125 C-12.647236328125004 215.84225097656247 -13.442910156249994 216.071220703125 -14.2626953125 216.30712890625 C-15.166005859375005 216.5357763671875 -16.069316406249996 216.76442382812502 -17 217 C-18.029638671875006 217.2608740234375 -19.059277343749997 217.52174804687502 -20.1201171875 217.79052734375 C-23.531535021900567 218.62268992276415 -26.950518516358272 219.4109518472145 -30.375 220.1875 C-31.549335937500004 220.46013671875 -32.723671874999994 220.7327734375 -33.93359375 221.013671875 C-42.60573308270668 223 -42.60573308270668 223 -46 223 C-45.93274307096638 230.38354071996116 -45.842836184685595 237.7665626108825 -45.737548828125 245.149658203125 C-45.7043966781562 247.65870994344618 -45.67633485681094 250.16783451961794 -45.653564453125 252.677001953125 C-45.619840299494825 256.294096813756 -45.56751373020242 259.910530019319 -45.51171875 263.52734375 C-45.505328826904304 264.64020248413084 -45.49893890380859 265.75306121826173 -45.49235534667969 266.89964294433594 C-45.3403823017904 275.04119965824333 -44.50179698045599 283.2852716323861 -38.72265625 289.5517578125 C-34.715667572204964 292.920445005907 -30.055712392723976 295.3360539459702 -25.5 297.875 C-23.339277552296025 299.1070804950242 -21.179116773556217 300.3401465443826 -19.01953125 301.57421875 C-17.982641601562506 302.1625146484375 -16.945751953124997 302.750810546875 -15.87744140625 303.35693359375 C-12.279105369281567 305.4116427002151 -8.719546666112777 307.5211639616635 -5.1875 309.6875 C-4.2323046875000045 310.2688671875 -3.277109374999995 310.850234375 -2.29296875 311.44921875 C-0.22127799910447266 312.85034520333136 1.445356851708027 314.04530210019317 3 316 C3.3905379624378753 319.5799313223472 3.417113099162279 322.067629543049 1.9375 325.375 C-1.0286936553389978 327.8627753238327 -3.1390750709200574 327.89699113331505 -7 328 C-10.288283976925555 326.8200752147202 -13.192071042093318 325.09575369266446 -16.1875 323.3125 C-17.048835449218757 322.817177734375 -17.9101708984375 322.32185546875 -18.797607421875 321.8115234375 C-20.614764157790248 320.7611057537871 -22.426619226876852 319.701469680441 -24.2333984375 318.63330078125 C-26.97885796738646 317.01248148589696 -29.74119497133509 315.42421769988556 -32.5078125 313.83984375 C-34.27714002331281 312.81178382366085 -36.04540541526109 311.7818933207862 -37.8125 310.75 C-39.03779418945312 310.04484252929683 -39.03779418945312 310.04484252929683 -40.287841796875 309.325439453125 C-47.668390341437984 304.92983460668427 -53.530978896239844 299.9863030269718 -57.3125 292.125 C-57.7830078125 291.178828125 -58.253515625 290.23265625 -58.73828125 289.2578125 C-61.830524368798315 281.27350673814925 -62.27912057733815 273.6860254009275 -62.1953125 265.18359375 C-62.19248260498047 264.08652603149415 -62.18965270996094 262.9894583129883 -62.186737060546875 261.85914611816406 C-62.17561997254824 258.3851490190477 -62.150531117775245 254.91141803464518 -62.125 251.4375 C-62.1149592533126 249.06966520457246 -62.10583532412069 246.70182633293933 -62.09765625 244.333984375 C-62.075708438072894 238.55590012324967 -62.04231608748367 232.77796908361188 -62 227 C-62.97912353515625 227.262646484375 -63.9582470703125 227.52529296875002 -64.967041015625 227.7958984375 C-79.58800097137308 231.71149179445388 -79.58800097137308 231.71149179445388 -85.9375 233.25 C-86.61361328125 233.422734375 -87.2897265625 233.59546875 -87.986328125 233.7734375 C-92.76685847226653 234.92625438757045 -97.07816202522518 235.3003691269402 -102 235 C-104.96858156660117 232.79259319406583 -105.82865790896828 231.51402627309517 -107 228 C-107.094012609726 226.3365003198653 -107.1306026582387 224.66947763478584 -107.13371276855469 223.00332641601563 C-107.13797775268554 221.97148727416993 -107.1422427368164 220.93964813232424 -107.14663696289063 219.8765411376953 C-107.14618377685547 218.74504135131838 -107.1457305908203 217.61354156494144 -107.145263671875 216.44775390625 C-107.14862228393555 215.2556581115723 -107.15198089599609 214.0635623168945 -107.15544128417969 212.83534240722656 C-107.16332080835407 209.56461758514286 -107.16661929558377 206.29393083557005 -107.16725707054138 203.02319765090942 C-107.16796777941933 200.979353678679 -107.1701025004952 198.9355163613708 -107.17275428771973 196.89167404174805 C-107.18200710661193 189.76013516791988 -107.18608929105156 182.62861499003424 -107.185302734375 175.4970703125 C-107.18470208760077 168.8516057078566 -107.19525146623245 162.20622231521116 -107.211046397686 155.56077826023102 C-107.22412721334737 149.85367660855098 -107.22948639729722 144.14660148068617 -107.22884732484818 138.4394849538803 C-107.22859247694981 135.03164527293052 -107.23143627968541 131.62387774665993 -107.24202537536621 128.2160530090332 C-107.25180205072456 124.41431149093967 -107.24895624183867 120.6127799197831 -107.242919921875 116.81103515625 C-107.24853942871094 115.6835838317871 -107.25415893554688 114.55613250732421 -107.25994873046875 113.39451599121094 C-107.25365699768066 111.83829780578614 -107.25365699768066 111.83829780578614 -107.24723815917969 110.25064086914063 C-107.24778292655945 109.35210199356078 -107.24832769393922 108.45356311798096 -107.24888896942139 107.52779579162598 C-106.96615842959433 104.65629421242596 -106.3107735149158 102.56869292362069 -105 100 C-100.39169702159637 96.92779801439758 -96.48615892724519 97.71459068804484 -91.176025390625 98.734375 C-89.81454783507735 99.06469450517426 -88.45512578497063 99.40357746697828 -87.09765625 99.75 C-86.01380897521972 100.0163525390625 -86.01380897521972 100.0163525390625 -84.90806579589844 100.2880859375 C-82.62425642505283 100.85115643741341 -80.34342508319945 101.42536981947083 -78.0625 102 C-76.50474127099208 102.3861595934236 -74.94679998523766 102.77158354515808 -73.388671875 103.15625 C-69.59028471605568 104.09567629281327 -65.79452507527948 105.04509901895418 -62 106 C-62.006661834716795 105.3751873779297 -62.013323669433596 104.75037475585935 -62.02018737792969 104.10662841796875 C-62.08701055747573 97.55193269608694 -62.131993919503856 90.99733512635004 -62.164794921875 84.4423828125 C-62.17979977585498 82.00223860182012 -62.20021014560339 79.56212098323027 -62.226318359375 77.1220703125 C-62.26306851144117 73.5969380790155 -62.27981002284678 70.07216512478283 -62.29296875 66.546875 C-62.30845260620117 65.4713739013672 -62.323936462402344 64.39587280273437 -62.33988952636719 63.28778076171875 C-62.34253887426381 51.12597867948986 -59.814635437126476 40.51284350633628 -52 31 C-44.641904015472306 23.764743681324177 -35.67346185752743 18.203913723897386 -27.14208984375 12.451171875 C-24.91573979343211 10.942917407358152 -22.700656508637138 9.419296625765227 -20.48828125 7.890625 C-19.757624511718745 7.385795898437493 -19.026967773437505 6.880966796875001 -18.274169921875 6.36083984375 C-16.866487307994348 5.387631120805821 -15.459087202391089 4.414013611548086 -14.052001953125 3.43994140625 C-8.619573664377853 -0.30422555322488165 -6.620979681707425 -1.5100479975823902 0 0 Z M-91 116 C-91 149.32999999999998 -91 182.65999999999997 -91 217 C-81.74807226422462 215.5020383376468 -81.74807226422462 215.5020383376468 -72.636474609375 213.595458984375 C-71.5459226989746 213.3385679626465 -70.45537078857421 213.081676940918 -69.33177185058594 212.81700134277344 C-68.20006057739258 212.54610183715818 -67.06834930419922 212.27520233154297 -65.90234375 211.99609375 C-64.70565567016601 211.71274673461915 -63.508967590332034 211.4293997192383 -62.27601623535156 211.13746643066406 C-59.77056331987524 210.5434606660545 -57.26555741819662 209.94756650263105 -54.760986328125 209.349853515625 C-50.91781665392719 208.43280319492533 -47.07330037291945 207.5215809752264 -43.228515625 206.611328125 C-40.7863787191755 206.03158526812655 -38.34431860479354 205.45151881445008 -35.90234375 204.87109375 C-34.752414398193366 204.59817001342776 -33.60248504638672 204.32524627685547 -32.41770935058594 204.04405212402344 C-31.355526885986336 203.79031326293943 -30.29334442138672 203.5365744018555 -29.198974609375 203.275146484375 C-28.26476181030273 203.0524559020996 -27.33054901123046 202.82976531982422 -26.368026733398438 202.60032653808594 C-24.55811644240609 202.14149000388932 -22.771348526941622 201.59044950898056 -21 201 C-21 178.23000000000002 -21 155.46 -21 132 C-33.036620262299735 129.15417336936318 -33.036620262299735 129.15417336936318 -45.07421875 126.3125 C-49.9819130144858 125.15493206660497 -54.88948756544272 123.99687193857761 -59.79638671875 122.8359375 C-63.7510902343288 121.90031715701213 -67.70629788937867 120.966857188284 -71.66186904907227 120.034912109375 C-73.17317095960115 119.67844014728615 -74.68428753984053 119.32118153679187 -76.19521713256836 118.963134765625 C-78.30658452340012 118.4629414599604 -80.41858525669087 117.9655139512509 -82.53076171875 117.46875 C-83.73433319091797 117.18451171875 -84.93790466308593 116.9002734375 -86.17794799804688 116.607421875 C-88.84475637395528 115.92985930315251 -88.84475637395528 115.92985930315251 -91 116 Z " fill="none" transform="translate(119,94)"/>
<path stroke="#f87171" stroke-width="1.5" stroke-linecap="round" d="M0 0 C2.5068359375 1.3759765625 2.5068359375 1.3759765625 4.984375 3.140625 C5.911130371093748 3.7926489257812506 6.8378857421874955 4.444672851562501 7.792724609375 5.116455078125 C8.768625488281259 5.820524902343749 9.744526367187518 6.524594726562498 10.75 7.25 C11.762639160156255 7.971472167968756 12.775278320312509 8.692944335937497 13.818603515625 9.436279296875 C15.889209051897353 10.913052020434705 17.957008564799594 12.393767078839488 20.02197265625 13.87841796875 C22.73512463438186 15.811299645251552 25.472909361437303 17.69769538081573 28.23046875 19.56640625 C39.3074228822876 27.147501948321505 48.24739946986324 34.53478633303874 52 48 C53.11646267667254 54.876826316968845 53.1291523523592 61.637689836423306 53.09765625 68.59375 C53.09624130249023 69.7810168457031 53.094826354980455 70.96828369140627 53.09336853027344 72.1915283203125 C53.08779810618347 75.96104516354274 53.07525104873616 79.73050129060147 53.0625 83.5 C53.05748117883991 86.06510330516963 53.05291894050299 88.63020754698414 53.048828125 91.1953125 C53.03783836348123 97.46356217114175 53.021129811465244 103.73177674574362 53 110 C54.17667236328123 110.13430419921875 55.35334472656251 110.2686083984375 56.565673828125 110.406982421875 C62.37863964256684 111.1360283782196 68.02463127529711 112.48785303915821 73.718994140625 113.846435546875 C75.69080727085736 114.3132830311381 77.6663726459173 114.76114893685823 79.642578125 115.208984375 C81.52686523437501 115.656611328125 81.52686523437501 115.656611328125 83.44921875 116.11328125 C84.58705810546877 116.37923095703127 85.72489746093748 116.64518066406248 86.897216796875 116.919189453125 C90.49848378949423 118.17363976206553 92.36325016765937 119.22614315596314 95 122 C95.49823790958237 125.03999069649029 95.67489338595482 127.52111121126907 95.631103515625 130.560546875 C95.63825881958007 131.4227735900879 95.64541412353515 132.28500030517577 95.65278625488281 133.17335510253906 C95.66968969138446 136.0223596852667 95.6502614598972 138.86979433573092 95.62890625 141.71875 C95.62973479785074 143.69885386453976 95.63219364488407 145.6789576631773 95.63621520996094 147.6590576171875 C95.63907433732493 151.80856025817303 95.62436067584287 155.95752346927188 95.596923828125 160.10693359375 C95.56284098802041 165.4270105845265 95.56885823650111 170.7461228704757 95.58758640289307 176.06624603271484 C95.59815277191547 180.15492803867386 95.5892218470193 184.24338539391454 95.5742015838623 188.33204650878906 C95.56901665083433 190.29365878323847 95.569505339783 192.25529448837318 95.57574653625488 194.21690368652344 C95.58119432982642 196.95826701527204 95.56083803180758 199.6982473589345 95.533447265625 202.439453125 C95.53997314453125 203.25100357055663 95.54649902343749 204.06255401611327 95.55322265625 204.89869689941406 C95.49292697658723 208.4458819511383 95.31868625838075 210.56925511242144 93.17941284179688 213.46075439453125 C90.18693818011297 215.5742380742346 87.08455304009954 216.34849475318885 83.56640625 217.140625 C82.8514549255371 217.31253356933593 82.1365036010742 217.48444213867185 81.39988708496094 217.66156005859375 C79.89277893531181 218.02103394679887 78.38401500862346 218.37362752176216 76.873779296875 218.7197265625 C74.57012511599862 219.2482505807596 72.2723517971229 219.79796070962652 69.974609375 220.3515625 C68.50550452233188 220.69917084553492 67.03611195293712 221.04556590828878 65.56640625 221.390625 C64.8829261779785 221.55306701660157 64.19944610595701 221.71550903320315 63.49525451660156 221.88287353515625 C59.91155422259072 222.69801350978508 56.66400241635233 223.06740899020622 53 223 C53.00444122314451 223.62703323364258 53.00888244628908 224.25406646728516 53.013458251953125 224.9001007080078 C53.05796519577024 231.47089338922717 53.087979227039 238.0416427107291 53.10986328125 244.612548828125 C53.119873930206495 247.05950664967662 53.133486487039534 249.50645265302285 53.15087890625 251.953369140625 C53.17534519626838 255.485869661216 53.18653282284265 259.0182109702847 53.1953125 262.55078125 C53.20563507080078 263.6314436340332 53.21595764160156 264.7121060180664 53.226593017578125 265.8255157470703 C53.22870406355872 280.36267094690066 50.37928187077455 291.76725352368254 40.46630859375 302.6943359375 C35.98680961580607 306.8820599869657 30.733999597473428 309.64748861032956 25.375 312.5625 C24.208439511918584 313.21016944991413 23.04267196388429 313.8592690939649 21.877685546875 314.509765625 C19.606456936914924 315.77498851889595 17.332380664069376 317.0351161310577 15.05517578125 318.28955078125 C12.476037371211874 319.7334890664288 9.946442850474853 321.222158372466 7.43359375 322.77734375 C6.803403320312498 323.1626928710937 6.1732128906249955 323.5480419921875 5.52392578125 323.945068359375 C3.954302580061153 324.9125921614202 2.392741672618058 325.8931638232547 0.83203125 326.875 C-2.830944577568971 328.33008557012397 -5.205882485764903 327.87801520413353 -9 327 C-10.9375 325.9375 -10.9375 325.9375 -12 324 C-12.610576923076906 318.5048076923077 -12.610576923076906 318.5048076923077 -12 316 C-9.137087641095206 312.73072263999154 -6.077531175496063 310.69943590696397 -2.30859375 308.57421875 C-1.1980664062500068 307.94193359375 -0.08753906250001364 307.3096484375 1.056640625 306.658203125 C2.2250213032842225 306.00087688436304 3.3936421485677215 305.34397735616926 4.5625 304.6875 C23.447254045943907 295.57887613710193 23.447254045943907 295.57887613710193 35.10888671875 279.46875 C36.323437398530814 274.3049477925106 36.25054166567094 269.2170849454647 36.1953125 263.9375 C36.19106765747068 262.389658203125 36.19106765747068 262.389658203125 36.186737060546875 260.810546875 C36.175612522897495 257.54024268177744 36.15052226138016 254.27022032136966 36.125 251 C36.11496021532378 248.7721393939422 36.10583611566068 246.54427446133974 36.09765625 244.31640625 C36.07569854795986 238.8775092872491 36.04229859766235 233.43877478876834 36 228 C35.13310546874999 228.21205078125 34.26621093749998 228.42410156250003 33.373046875 228.642578125 C30.124403785736433 229.43260089657394 26.873988020298043 230.2143367348291 23.6220703125 230.99072265625 C22.220895906427245 231.3269916174865 20.820482234336964 231.66644833949897 19.4208984375 232.00927734375 C3.5340836939631686 235.89599450283214 3.5340836939631686 235.89599450283214 -2 235 C-4.684734093341035 232.80689591835562 -5.854338459464429 230.97276999258543 -6.370424270629883 227.5261993408203 C-6.530257801602261 224.29578789532184 -6.551616305377536 221.08789910668656 -6.533447265625 217.853515625 C-6.546370620727544 216.0064124298096 -6.546370620727544 216.0064124298096 -6.5595550537109375 214.1219940185547 C-6.578350444853413 210.75189125933485 -6.5791162976494775 207.38277281475047 -6.570233583450317 204.01269340515137 C-6.565117576073533 201.19700458696354 -6.572421077846798 198.38140365834425 -6.579705655574799 195.5657238960266 C-6.596695950328069 188.92280653096032 -6.593147244741658 182.2801189342598 -6.576416015625 175.63720703125 C-6.559488476516151 168.78814175098364 -6.575339149667286 161.93971351822836 -6.607638895511627 155.090717792511 C-6.634341506436101 149.20518931452528 -6.641609279557429 143.31985906790163 -6.633123815059662 137.4342761039734 C-6.628197265889014 133.9212755900773 -6.6303949683841665 130.40865848744005 -6.650911331176758 126.89570617675781 C-6.67269149181908 122.97904536893395 -6.653862081320369 119.06315185018309 -6.631103515625 115.146484375 C-6.642795715332056 113.98477218627932 -6.654487915039056 112.82305999755857 -6.666534423828125 111.62614440917969 C-6.562927614416594 102.87967652369406 -6.562927614416594 102.87967652369406 -3.5981292724609375 99.7642822265625 C-0.761093702363894 97.83776860558828 0.14884462268190646 97.45097172054687 3.46875 98 C4.337578124999993 98.13664062499998 5.206406249999986 98.27328125 6.1015625 98.4140625 C7.536289062499975 98.7041015625 7.536289062499975 98.7041015625 9 99 C10.05960937499998 99.213984375 11.119218750000016 99.42796874999999 12.2109375 99.6484375 C15.65249232955017 100.38761671281333 19.075809147191535 101.18435004405012 22.5 102 C23.678203124999982 102.27328125 24.85640625000002 102.5465625 26.0703125 102.828125 C34.70616883116878 104.85308441558439 34.70616883116878 104.85308441558439 37 106 C36.93270748217964 99.04368651191245 36.84278747526719 92.08792216663267 36.737548828125 85.132080078125 C36.7044097986597 82.76853983513871 36.676343980777574 80.40492255219368 36.653564453125 78.041259765625 C36.61981577282529 74.63264305535134 36.56748871320275 71.2247253672358 36.51171875 67.81640625 C36.505328826904304 66.76916885375977 36.49893890380861 65.72193145751953 36.49235534667969 64.64295959472656 C36.333712899198304 56.62548266038567 35.092774491728164 48.47774742630952 30 42 C27.392572176668864 39.77860297431832 24.624748650114668 37.82725625057623 21.8125 35.875 C21.01674560546877 35.3116796875 20.220991210937484 34.74835937500001 19.401123046875 34.16796875 C16.94235373935527 32.43311219767213 14.473457545393387 30.71383739666834 12 29 C11.242031250000025 28.474384765625004 10.484062499999993 27.948769531250008 9.703125 27.4072265625 C6.327431388444722 25.07147402365345 2.944030434149795 22.747663282247046 -0.44921875 20.4375 C-1.6334732354540051 19.625963353433022 -2.8170608801218577 18.813452797463412 -4 18 C-4.651782226562489 17.553984375 -5.303564453124977 17.107968749999998 -5.97509765625 16.6484375 C-10.884144557159573 13.23171088568084 -10.884144557159573 13.23171088568084 -12 11 C-12.464409122322024 3.6855563234277753 -12.464409122322024 3.6855563234277753 -10.6875 1.0625 C-6.870279243940502 -1.3409352908523005 -4.244390456567942 -1.0309132181160692 0 0 Z M10 116 C10 149.32999999999998 10 182.65999999999997 10 217 C18.72064345771048 215.43416318475943 18.72064345771048 215.43416318475943 27.357666015625 213.595458984375 C28.471541900634747 213.3385679626465 29.58541778564455 213.081676940918 30.733047485351563 212.81700134277344 C32.47587257385254 212.4106520843506 32.47587257385254 212.4106520843506 34.25390625 211.99609375 C35.4765769958496 211.71274673461915 36.699247741699196 211.4293997192383 37.95896911621094 211.13746643066406 C41.17251197654258 210.39183732376586 44.3854540646513 209.64368269603818 47.59820556640625 208.8946533203125 C50.2319429989048 208.28169948227958 52.866566877014975 207.67260435687723 55.50119113922119 207.06347560882568 C58.64850529376349 206.33515806224148 61.794917300644215 205.6029667794636 64.94140625 204.87109375 C66.12150772094725 204.59817001342776 67.3016091918945 204.32524627685547 68.51747131347656 204.04405212402344 C69.60297775268555 203.79031326293943 70.68848419189453 203.5365744018555 71.806884765625 203.275146484375 C72.76409927368161 203.0524559020996 73.72131378173827 202.82976531982422 74.70753479003906 202.60032653808594 C77.0072576758945 202.0822223469654 77.0072576758945 202.0822223469654 79 201 C79 178.23000000000002 79 155.46 79 132 C62.479375000000005 128.04 62.479375000000005 128.04 45.625 124 C42.14533691406251 123.16468750000001 38.66567382812502 122.329375 35.08056640625 121.46875 C31.965815998474 120.72333184408711 31.965815998474 120.72333184408711 28.850921630859375 119.978515625 C27.46164366177061 119.64601347197686 26.072579979893476 119.31261521033292 24.683685302734375 118.978515625 C22.58210032854697 118.4731606851912 20.479856816593212 117.97063717006208 18.37744140625 117.46875 C17.191634826660163 117.18451171875 16.005828247070326 116.9002734375 14.784088134765625 116.607421875 C12.149257756598331 115.92894604305002 12.149257756598331 115.92894604305002 10 116 Z " fill="none" transform="translate(405,94)"/>

  </g>
</svg>