<?xml version="1.0" encoding="UTF-8"?>
<svg width="100" height="100" viewBox="0 0 100 100" fill="none" xmlns="http://www.w3.org/2000/svg">
  <g transform="translate(25, 25) scale(0.09765625)">
    
<path stroke="#4ade80" stroke-width="1.5" stroke-linecap="round" d="M0 0 C0.8765020751953045 -0.000674743652339771 1.753004150390666 -0.0013494873046937528 2.65606689453125 -0.002044677734375 C94.63129718275945 0.10959853997226787 175.97177682737322 39.960639673439886 240.5625 103.5625 C241.34906982421876 104.32763916015625 242.13563964843752 105.0927783203125 242.946044921875 105.881103515625 C247.46772989803048 110.37623950964368 251.31634340276918 114.26508271704185 252.43359375 120.77734375 C252.44340615464063 126.83159741328026 251.6961411001405 130.38665644718358 248 135.25 C243.42130730027299 139.71422538223385 239.08807943419538 139.7178325058938 233 139.78125 C226.98834541358184 138.71668616698844 222.90279881578095 134.38903898575992 218.76953125 130.14453125 C218.05563484191896 129.4192749786377 218.05563484191896 129.4192749786377 217.3273162841797 128.6793670654297 C215.31930618671066 126.63918514464092 213.3233124693486 124.58741542659601 211.326904296875 122.535888671875 C204.56282043251878 115.60189227283323 197.61631463474384 109.26455171185759 190 103.25 C188.79103177161807 102.24999679755373 187.58484468715932 101.24661115790352 186.3828125 100.23828125 C171.44251745965056 87.89079931718209 155.1525136704339 77.2612206808555 138 68.25 C137.36320312499998 67.91307128906249 136.72640625000003 67.576142578125 136.0703125 67.22900390625 C103.6476105453886 50.19569186031583 68.44453740101778 39.17729073327824 32 35.25 C30.69736206054688 35.108605957031244 30.69736206054688 35.108605957031244 29.368408203125 34.96435546875 C20.233585536510645 34.08674682895668 11.10664525868782 34.006709740905706 1.9375 34 C1.1032952880859739 33.999325256347646 0.2690905761718625 33.99865051269532 -0.59039306640625 33.997955322265625 C-47.12504219013323 34.057346140942585 -92.91453945267574 45.21084442577255 -134 67.25 C-134.7764990234375 67.65831054687499 -135.55299804687502 68.06662109375 -136.35302734375 68.4873046875 C-153.05418578446006 77.2794462432143 -168.23399149013875 87.52912164975993 -183 99.25 C-183.9216796875 99.97703124999998 -184.843359375 100.70406250000002 -185.79296875 101.453125 C-197.3684453738128 110.74023178620479 -207.92678750232693 121.01013791545523 -218.26416015625 131.638671875 C-218.9517138671875 132.33798828125 -219.639267578125 133.0373046875 -220.34765625 133.7578125 C-220.95617431640625 134.3831689453125 -221.5646923828125 135.008525390625 -222.191650390625 135.65283203125 C-226.76248519834726 139.68987824592787 -231.10595345944546 139.73700999769306 -237.015625 139.62890625 C-241.4271545165771 139.06880368048695 -244.03854995844333 137.51452241423058 -247 134.25 C-250.1026325267697 129.94634843060976 -250.37071501558896 126.05068436085273 -250.49609375 120.91015625 C-249.30839507452703 114.54147280120392 -245.0211779350675 109.82372387151983 -240.52734375 105.4140625 C-240.00419082641602 104.89041107177735 -239.48103790283204 104.3667596435547 -238.94203186035156 103.82723999023438 C-237.83872970293297 102.72626350758046 -236.7317693813003 101.62894177305202 -235.621337890625 100.53515625 C-233.95745176060365 98.89467115732998 -232.3070913611434 97.24148143690223 -230.658203125 95.5859375 C-224.07933157714652 89.02510459488957 -217.2822061893674 83.02902285487363 -210 77.25 C-208.9604494044096 76.37521453382357 -207.9253343894132 75.49507418565076 -206.8984375 74.60546875 C-150.01231380566918 25.732715421279266 -74.5140443015296 0.05195500500828132 0 0 Z " fill="none" transform="translate(255,68.75)"/>
<path stroke="#4ade80" stroke-width="1.5" stroke-linecap="round" d="M0 0 C0.8628964233398335 -0.007059631347658524 1.7257928466796955 -0.014119262695317047 2.614837646484375 -0.021392822265625 C38.28098112967797 -0.24703912440452314 38.28098112967797 -0.24703912440452314 53.671875 3.203125 C54.59951660156253 3.401801757812507 55.527158203125 3.6004785156250136 56.48291015625 3.80517578125 C92.52735265231212 11.663959177010724 126.54767126479976 27.03025567387749 154.671875 51.203125 C155.74003626943608 52.08956588749882 156.80912102265057 52.97489463735883 157.87890625 53.859375 C164.22940821832952 59.15293779683432 170.34025545788853 64.65457730586002 176.234375 70.453125 C176.80575195312503 71.00693847656248 177.37712890625 71.56075195312502 177.9658203125 72.13134765625 C182.637587963717 76.8100384960432 186.9495581863568 81.7657467515449 188.3359375 88.36328125 C188.258748346127 94.09843538276482 188.02937378793735 98.43045925333064 184.14453125 102.8671875 C179.6093793711388 106.98130405854255 175.13335606513334 107.84235222775521 169.17578125 107.59375 C161.47483641412128 106.3923545497849 156.94395200042453 100.5334637185141 152.0087890625 94.9912109375 C118.35481852470798 57.25935969465215 68.85356059504011 36.42090824864954 19.01171875 33.453125 C-31.684980685763946 31.074215355849248 -80.80203416461336 51.06417917873239 -118.2578125 84.6953125 C-123.73862252520163 89.70504686979086 -129.06397514333517 94.7365494536212 -133.890625 100.390625 C-137.3921501928271 104.42450198873871 -140.1983302357275 106.74317205322347 -145.640625 107.54296875 C-151.26600076236133 107.89455473514761 -154.94815647962758 106.8684487660069 -159.63671875 103.78515625 C-162.5814820081656 101.03081648196985 -164.1159684108666 98.3806763009265 -164.83203125 94.40625 C-164.8513671875 93.43171875000002 -164.870703125 92.45718750000003 -164.890625 91.453125 C-164.9331640625 90.48890625000001 -164.975703125 89.52468750000003 -165.01953125 88.53125 C-163.23988661841656 79.964824993734 -156.19601907770934 73.6096493759785 -150.140625 67.703125 C-149.388134765625 66.96118896484376 -148.63564453125 66.21925292968751 -147.8603515625 65.454833984375 C-142.26875192555443 59.99565435597691 -136.5352827152746 54.95676566560056 -130.328125 50.203125 C-129.3394140625 49.409062500000005 -128.350703125 48.61500000000001 -127.33203125 47.796875 C-92.09560395819949 19.6569002744086 -45.47300224361226 0.2484118004932725 0 0 Z " fill="none" transform="translate(244.328125,175.796875)"/>
<path stroke="#4ade80" stroke-width="1.5" stroke-linecap="round" d="M0 0 C21.04811344205052 17.591668738113242 21.04811344205052 17.591668738113242 22.375 29.3125 C21.908352379632902 33.90120160027686 20.672145730776435 37.24101823805148 18 41 C12.76184149258006 45.169146567130156 8.676745779095938 46.5472742441882 2 46 C-3.8846208475762865 44.03845971747455 -7.1510746966577585 40.97652484581016 -11.1875 36.375 C-28.30987467060379 16.867893481122678 -51.90672103086524 6.629705873197167 -77.6015625 4.81640625 C-100.63053621019324 4.178796228707995 -122.84445097528172 12.943268143199361 -140 28 C-141.059609375 28.879785156250023 -141.059609375 28.879785156250023 -142.140625 29.77734375 C-145.63549550511937 32.71863743846876 -148.66205831900962 35.71790657514947 -151.5625 39.25 C-155.6452322300921 44.02707444609416 -159.117424809759 45.633126793969325 -165.4375 46.4375 C-171.50422394223762 45.69246372639191 -175.61031435098985 43.74601530260247 -179.4375 38.9375 C-181.85844645735884 34.386120660165375 -182.42123522107846 31.139069697157368 -182 26 C-174.89548482335357 6.039695456088623 -150.64867516254066 -8.549429919740817 -132.476318359375 -17.290283203125 C-88.75341383165659 -37.36570827797499 -37.169002590901414 -29.897955169081627 0 0 Z " fill="none" transform="translate(336,312)"/>
<path stroke="#4ade80" stroke-width="1.5" stroke-linecap="round" d="M0 0 C3.8844667751386055 2.5896445167590514 6.699070206772774 5.648140413545491 8.8125 9.875 C9.407707443736456 15.478452934604718 9.934041741803355 21.088498552306532 6.6875 25.9375 C3.4945592381019424 29.584034017766612 0.3507482599695777 31.49532925187009 -4.51171875 32.22265625 C-10.13248446438098 32.55835282405951 -13.810563693736839 31.5383297212378 -18.49609375 28.45703125 C-21.494714991130735 25.652316232314206 -23.012564627225032 23.045963801547657 -23.62109375 18.97265625 C-23.629056367688435 12.785702306081646 -23.587275888378628 8.631514473922834 -19.1875 3.875 C-13.370107962833373 -1.3748415945162265 -7.395901099201126 -2.610318035012142 0 0 Z " fill="none" transform="translate(263.1875,411.125)"/>

  </g>
</svg>