<?xml version="1.0" encoding="UTF-8"?>
<!-- Generator: visioncortex VTracer 0.6.4 -->
<svg version="1.1" xmlns="http://www.w3.org/2000/svg" viewBox="0 0 512 512" width="100%" height="100%">
<path d="M0 0 C6.056587485577609 3.728636320444835 10.881090205966586 9.182468083230006 15.85445785522461 14.212444305419922 C17.16019771015334 15.514679310022515 18.467015402769874 16.815834330556612 19.774822235107422 18.11599349975586 C23.308659110167895 21.635628305887053 26.826714151677663 25.170652972861177 30.34167242050171 28.709128856658936 C34.027706382051576 32.41532126959817 37.72677756203262 36.108460984539136 41.424068450927734 39.80341720581055 C47.627779281385045 46.00718154058865 53.82158063266644 52.22070272029504 60.00924301147461 58.44047164916992 C67.15976828963574 65.62791908105422 74.32428076030209 72.8011797035187 81.49677169322968 79.96670281887054 C88.40399606386904 86.86762010899017 95.30265365979079 93.77703585323502 102.19696044921875 100.69085693359375 C105.12817676076975 103.6302407466298 108.06210072360588 106.56688195958765 110.9981918334961 109.50139617919922 C114.45423791891844 112.95656270484227 117.90263126569536 116.41919255103204 121.34527778625488 119.88770866394043 C122.60889348605292 121.15847947611462 123.87505008285754 122.42672955189272 125.14393043518066 123.6922435760498 C126.87698536018695 125.42157704696899 128.6005151102211 127.15988492376542 130.32195663452148 128.9007682800293 C130.82457515597343 129.39805887579917 131.32719367742538 129.89534947156906 131.84504306316376 130.40770947933197 C136.95012206660738 135.61249393578495 139.1065343012183 140.2437431416483 139.1713523864746 147.51957321166992 C139.21775863647463 149.24820602416992 139.21775863647463 149.24820602416992 139.2651023864746 151.01176071166992 C137.58924616620246 161.26535469096666 128.25680015454265 168.49812084502219 121.22115707397461 175.51469039916992 C119.94379281631277 176.79940264174508 118.66705038976357 178.08473341136187 117.3908805847168 179.37063217163086 C113.93712071129565 182.8465359384595 110.47385170587933 186.3128114148662 107.00805568695068 189.7767095565796 C104.11038414936567 192.67426110179258 101.21707288312797 195.57614793515103 98.32362580299377 198.47791695594788 C91.4958862142658 205.32486371761388 84.66003353698949 212.1636363469063 77.81930160522461 218.99760055541992 C70.77197514700435 226.0382829570484 63.739545957231655 233.09360102745643 56.71410250663757 240.15611338615417 C50.671098476382554 246.22983786949055 44.61844333796719 252.2938271689411 38.55811429023743 258.35026478767395 C34.943275893804355 261.96303873623316 31.332286791686016 265.5794581827486 27.730762481689453 269.205509185791 C24.34372559259623 272.61484997136165 20.944776490675622 276.0118533908438 17.53644371032715 279.39990043640137 C16.290958414950637 280.64198260570504 15.04968618485671 281.8883066825166 13.813089370727539 283.13923835754395 C0.2945850132639123 296.80352779874426 0.2945850132639123 296.80352779874426 -10.26614761352539 298.1445732116699 C-16.99581768371003 297.72816648078026 -23.303857751451346 295.26159456979167 -27.82864761352539 290.2070732116699 C-31.36730604996707 285.7734633683375 -32.62971922803588 281.4728090245196 -32.70364761352539 275.8320732116699 C-32.732006988525384 274.85625289916993 -32.76036636352539 273.88043258666994 -32.78958511352539 272.8750419616699 C-31.38770372500501 263.0499918912771 -24.219407422422222 256.9862456684394 -17.50149917602539 250.36332321166992 C-16.38676306348573 249.24971684042544 -15.27290987552513 248.1352260579128 -14.159870147705078 247.01992416381836 C-11.150496405853758 244.00940730385184 -8.128989805073402 241.01134501654326 -5.105084419250488 238.01543426513672 C-1.9415277852721573 234.87695836898502 1.210632646060958 231.72707811332145 4.364040374755859 228.57841110229492 C10.330588330435972 222.62427331955678 16.30725502710436 216.6804017943877 22.28766179084778 210.7401876449585 C29.098442462965636 203.97418562050734 35.89780813374517 197.19676138557975 42.69625806808472 190.41837310791016 C56.67532817326827 176.4810629504692 70.66860899748497 162.55809610918732 84.67135238647461 148.64457321166992 C83.14547947908036 145.03719486422855 81.01298922202085 142.74859801897128 78.24377059936523 140.00339889526367 C77.31283081054687 139.07549041748047 76.3818910217285 138.14758193969726 75.4227409362793 137.19155502319336 C74.38801192567868 136.17028326692622 73.35320397024591 135.14909149076536 72.31832504272461 134.12797164916992 C71.2304799115208 133.04724049859686 70.14310438426108 131.9660364774567 69.0561637878418 130.88439559936523 C66.71530787342493 128.55663688939873 64.37148073593457 126.23192609695883 62.02540588378906 123.90942764282227 C58.312878059442 120.23351040027526 54.609074485900436 116.54888747029761 50.906795501708984 112.86265182495117 C40.37774601240994 102.38188319880737 29.83706540657434 91.91285895263957 19.28756332397461 81.45267868041992 C13.460652741829932 75.67495057264844 7.641019235532411 69.88999009212995 1.8290237188339233 64.09725785255432 C-1.8463902029482426 60.43489559189206 -5.530617307024016 56.781715574182385 -9.221709966659546 53.13515901565552 C-11.521634232488452 50.858781907556505 -13.813067096602907 48.57400177142242 -16.102243423461914 46.286821365356445 C-17.161327118413894 45.23201399595959 -18.223831876316865 44.18062809641009 -19.290071487426758 43.13305473327637 C-31.375568915626474 31.250918493428287 -31.375568915626474 31.250918493428287 -32.85989761352539 22.519573211669922 C-32.76889488859504 14.147322518077829 -31.48592098784323 8.873602799040441 -25.57864761352539 2.832073211669922 C-17.32068351917711 -2.726171851833726 -9.192328630371037 -4.267482075874597 0 0 Z " fill="#000000" transform="translate(117.32864761352539,108.35542678833008)"/>
<path d="M0 0 C0.7491468071937675 -0.00453111290931929 1.498293614387535 -0.00906222581863858 2.270141839981079 -0.013730645179748535 C4.781902766397991 -0.026396764995070043 7.293447474017967 -0.024752851344203464 9.80523681640625 -0.023101806640625 C11.605634351298818 -0.029085769763185 13.406029316923195 -0.03589101021816532 15.2064208984375 -0.04345703125 C20.099140825442134 -0.06113992679047442 24.991790813742114 -0.06581343904429104 29.88453960418701 -0.06708860397338867 C33.96987340070058 -0.06898747038616193 38.05519090133703 -0.0763450550571747 42.14051842689514 -0.08343279361724854 C51.7813704484297 -0.09972384507938159 61.42218511372084 -0.10460117756275622 71.06304931640625 -0.103179931640625 C81.00371591179197 -0.10197900187603182 90.94416521206858 -0.12306950698075525 100.88477683067322 -0.15466725826263428 C109.42165260369308 -0.18083476321322678 117.95845744549445 -0.19154699240925765 126.49537301063538 -0.1902691125869751 C131.59293771746343 -0.18975952267288676 136.69030944502447 -0.19544082636087978 141.78783416748047 -0.21662521362304688 C146.58464720909296 -0.23601495258878913 151.3810833788009 -0.23612698019309164 156.17790985107422 -0.22159194946289063 C157.93547110393888 -0.21950351262370305 159.69305598200384 -0.22420683778545936 161.45057678222656 -0.2363128662109375 C177.94740943329077 -0.3425563410032737 177.94740943329077 -0.3425563410032737 184.58746337890625 4.267425537109375 C186.64605712890625 6.302581787109375 186.64605712890625 6.302581787109375 188.02496337890625 8.329925537109375 C188.49804931640625 9.001527099609348 188.97113525390625 9.673128662109377 189.45855712890625 10.365081787109375 C192.68176287214044 15.796573818095737 192.00112353227274 22.167818548377966 191.58746337890625 28.267425537109375 C189.53597283801128 34.313923973431486 185.69619196536178 37.81993959245881 180.50469970703125 41.383514404296875 C173.63949224839143 44.69269997985964 165.5479047065014 43.82305293618725 158.09918212890625 43.785003662109375 C156.31789580218287 43.79042879232492 154.536613966005 43.79755364436454 152.75534057617188 43.806243896484375 C147.93300436072195 43.824433685727854 143.11101157995193 43.81742768499811 138.28866958618164 43.80472755432129 C133.23420559496896 43.7945773601856 128.17977036273692 43.803998838918915 123.12530517578125 43.810272216796875 C114.63835386927383 43.817542736633186 106.15154194583556 43.80797652790068 97.66461181640625 43.788909912109375 C87.862439963442 43.767142343724686 78.06060094725609 43.77419413329511 68.25843715667725 43.796215534210205 C59.83186469005841 43.81438648026693 51.40539223082294 43.816919561642464 42.978806495666504 43.80646085739136 C37.950628758150174 43.80023525689279 32.92260730085724 43.79936461805954 27.894439697265625 43.81260681152344 C23.16648202491257 43.82418934395855 18.43895211894835 43.816095724517936 13.711040496826172 43.79302978515625 C11.979289592502084 43.78775552126285 10.247502486601263 43.78923445630892 8.515766143798828 43.79808044433594 C-9.692581036096954 43.88249322021733 -9.692581036096954 43.88249322021733 -17.22503662109375 36.517425537109375 C-21.221748608607868 30.579453441374085 -23.62039534562183 24.555754886250384 -22.41253662109375 17.267425537109375 C-20.256809178070142 9.735211197497108 -16.248614009908323 5.371319127906133 -9.76449203491211 1.209676742553711 C-6.5237906000458 -0.08862798531123417 -3.437190497216278 -0.015233659842635916 0 0 Z " fill="#000000" transform="translate(256.41253662109375,351.7325744628906)"/>
</svg>
