<?xml version="1.0" encoding="UTF-8"?>
<svg width="100" height="100" viewBox="0 0 100 100" fill="none" xmlns="http://www.w3.org/2000/svg">
  <g transform="translate(25, 25) scale(0.09765625)">
    
<path stroke="#f472b6" stroke-width="1.5" stroke-linecap="round" d="M0 0 C1.1031152343749682 -0.02102783203125025 1.1031152343749682 -0.02102783203125025 2.228515625 -0.04248046875 C12.86220889312051 0.04918930080276285 21.023185753742382 4.176696077253605 29.9375 9.625 C32.05963907434398 10.893237056319458 34.18339969784637 12.158763871646654 36.30859375 13.421875 C37.40542480468753 14.074785156250002 38.502255859375 14.7276953125 39.63232421875 15.400390625 C45.1970394341846 18.66321624936096 50.84834625512161 21.766021700003282 56.5 24.875 C66.03658962214104 30.137900234700346 75.48629654806382 35.52592406082006 84.8798828125 41.03955078125 C92.4740546702663 45.49461549925371 100.10224864988044 49.8877556749978 107.75 54.25 C108.33449920654294 54.583454284667965 108.91899841308594 54.91690856933594 109.52120971679688 55.260467529296875 C112.49228847325531 56.95521370962714 115.46380878204178 58.64918372485653 118.435546875 60.3427734375 C123.7109329515215 63.34970744242909 128.98234437828427 66.36359616923326 134.2540283203125 69.37701416015625 C137.1691865791194 71.04329929927923 140.0846066253033 72.70912627449475 143 74.375 C144.16666791862548 75.04166447573394 145.3333345853809 75.70833114225483 146.5 76.375 C147.36624999999998 76.87 147.36624999999998 76.87 148.25 77.375 C153.50000000757092 80.37500000432624 153.50000000757092 80.37500000432624 155.24993896484375 81.37496948242188 C156.41680407423706 82.04174663810335 157.58367419284423 82.70851502769875 158.75054931640625 83.37527465820313 C161.66422091320942 85.04017905837789 164.5778057844887 86.70523485862304 167.4912109375 88.37060546875 C173.9671673419897 92.07217060924488 180.44538728837006 95.76971954571417 186.92617797851563 99.46281433105469 C192.15933820244425 102.44598730857969 197.3849412957706 105.44223613630768 202.6103515625 108.43896484375 C205.98060384804023 110.36392167350611 209.36063644632452 112.27075854691479 212.7421875 114.17578125 C214.87005298049758 115.38756208592878 216.9976687908694 116.5997814736814 219.125 117.8125 C220.55440917968747 118.60841552734375 220.55440917968747 118.60841552734375 222.0126953125 119.42041015625 C234.52149976462124 126.60040161249248 243.57011059026274 135.0147061086338 247.421875 149.078125 C247.70804687499998 150.215078125 247.70804687499998 150.215078125 248 151.375 C248.27650390625 152.279921875 248.27650390625 152.279921875 248.55859375 153.203125 C249.2115654564734 156.415976936276 249.2657631005012 159.6096486216871 249.3125 162.875 C249.34988281250003 164.1846875 249.38726562500005 165.494375 249.42578125 166.84375 C248.9303904247435 177.05552996231245 243.89343935677823 185.9745737976653 238.6875 194.5 C237.42884157094147 196.60887034564504 236.17105900543226 198.71826363936222 234.9140625 200.828125 C233.94388183593753 202.445576171875 233.94388183593753 202.445576171875 232.9541015625 204.095703125 C229.76535258538723 209.44693704061456 226.66578511295432 214.8489061149816 223.5625 220.25 C222.30359502669887 222.43501661427956 221.0444794740526 224.61991191567975 219.78515625 226.8046875 C219.16012207031253 227.889755859375 218.535087890625 228.97482421875 217.89111328125 230.0927734375 C214.13971976012783 236.603712567111 210.38309005637672 243.11163193880589 206.62744140625 249.6201171875 C203.4881775411186 255.06085336240847 200.35018503285477 260.5023147689497 197.21484375 265.9453125 C190.59777108337374 277.42948820240923 183.95366023160284 288.8969689358254 177.26708984375 300.3408203125 C171.10080946410994 310.9012028206571 164.99504050446387 321.49626765737054 158.89111328125 332.0927734375 C155.13971976012783 338.603712567111 151.38309005637666 345.1116319388059 147.62744140625 351.6201171875 C144.48817754111866 357.06085336240835 141.3501850328547 362.50231476894976 138.21484375 367.9453125 C131.5977710833737 379.42948820240935 124.95366023160284 390.8969689358254 118.26708984375 402.3408203125 C114.01017178903999 409.63122558048775 109.77956722842822 416.93647715386385 105.5625 424.25 C104.94350830078128 425.3229833984375 104.3245166015625 426.395966796875 103.686767578125 427.50146484375 C100.47336201183731 433.0745913739441 97.26735057968864 438.6518424681887 94.0703125 444.234375 C69.33834646492267 487.37928974819243 69.33834646492267 487.37928974819243 51 493.8125 C46.887357584029644 495.26061352675015 43.41529498151675 497.4839652265825 39.78515625 499.875 C32.39481499406935 503.8552118405012 25.544698064043757 504.81436576454985 17.235015869140625 504.76268005371094 C16.185614312887196 504.7680655914545 15.136212756633768 504.77345112919807 14.05501115322113 504.7789998650551 C10.556898051909116 504.79324785464604 7.059165046488943 504.7861833280683 3.56103515625 504.779052734375 C1.045564747247795 504.7847579470479 -1.4699030729991023 504.7917227915901 -3.9853668212890625 504.7998504638672 C-10.097981526008567 504.81592011714326 -16.21045708195939 504.8178857672272 -22.323086485266685 504.81263756006956 C-27.29418397186933 504.8085878827598 -32.26525114876176 504.81004886735286 -37.23634719848633 504.81538581848145 C-37.94521967597305 504.8161342405155 -38.6540921534598 504.81688266254963 -39.38444561511278 504.8176537640393 C-40.82475777194526 504.8191853226047 -42.26506992157408 504.8207236703575 -43.70538206398487 504.8222687318921 C-57.19755491280088 504.8359812100702 -70.68966969918822 504.8305650226079 -84.18184120953083 504.81908351927996 C-96.50879480267864 504.8091535840384 -108.83559824220569 504.82208984349325 -121.16252867877483 504.84601771086454 C-133.83823142359392 504.87043605295776 -146.5138643140289 504.88000980282436 -159.1895900964737 504.87336498498917 C-166.29867267371213 504.86987868211673 -173.4076398373723 504.8720657040776 -180.51670455932617 504.88961601257324 C-187.20300598594247 504.9059187087041 -193.88897562705958 504.90111393236066 -200.57528495788574 504.88231086730957 C-203.02498380888326 504.8786287988125 -205.47470393863568 504.88172222404387 -207.92438316345215 504.89219665527344 C-211.27693298697858 504.9054338712147 -214.62853869838182 504.89383370106276 -217.98104858398438 504.87620544433594 C-218.94284196257593 504.88581045091155 -219.90463534116745 504.8954154574871 -220.8955739736557 504.905311524868 C-232.4945771669008 504.78043439075185 -242.74303991839804 500.2698936754333 -251.16015625 492.33984375 C-258.49199387487715 484.56946630456946 -263.1134477713199 476.1652782523895 -263.1370143890381 465.4033966064453 C-263.1420889317989 464.17319416046143 -263.14716347455976 462.94299171447756 -263.1523917913437 461.67551040649414 C-263.15299344494434 460.30816908696715 -263.15349253451893 458.94082771926526 -263.1539001464844 457.573486328125 C-263.15791570378684 456.12253069532187 -263.16235408348933 454.67157618116084 -263.16717970371246 453.2206230163574 C-263.17914085698897 449.22807301969675 -263.1847926015342 445.23553510481224 -263.1893608570099 441.24297070503235 C-263.19531875310804 436.938741417136 -263.2069281992314 432.6345265584618 -263.2176513671875 428.33030700683594 C-263.242172081184 417.932127632988 -263.2568025606573 407.53394348323815 -263.26971143484116 397.13574409484863 C-263.2734237746962 394.1983601283529 -263.27739697795096 391.2609766349599 -263.28146409988403 388.32359313964844 C-263.3067023339001 370.07965566641735 -263.32875370059844 351.83571743578966 -263.3411922454834 333.5917663574219 C-263.3441219072466 329.36602780386295 -263.3470835737928 325.14028927547787 -263.35009765625 320.91455078125 C-263.35084370687605 319.8642734980583 -263.3515897575021 318.8139962148666 -263.35235841572285 317.7318923473358 C-263.3650081095898 300.72353788649457 -263.39822610457503 283.7152880570584 -263.43989948928356 266.7069824934006 C-263.4823422916175 249.24132555324852 -263.5058900396969 231.77572214161782 -263.5111128091812 214.31001377105713 C-263.51452438500297 204.50515788843862 -263.52624962913393 194.7004654805411 -263.5592155456543 184.89566040039063 C-263.5872495146679 176.54406488040678 -263.59820072435326 168.1926663527012 -263.5870200842619 159.8410274386406 C-263.58184188757514 155.58224516293853 -263.58466526165375 151.32387520007674 -263.6094856262207 147.06515312194824 C-263.63205426310935 143.1600612110616 -263.63118000845594 139.25567596428965 -263.6122817546129 135.3505710363388 C-263.60949232309446 133.94401634585296 -263.6150211672989 132.53741295058086 -263.630094692111 131.13093626499176 C-263.7711017647659 117.10714583089333 -259.66567147217256 106.40070300902606 -250.00390625 96.28515625 C-242.03473181062066 88.65690905936415 -232.81667282591815 84.23936665434816 -221.7626953125 84.261474609375 C-220.50169006347656 84.26155014038086 -219.24068481445312 84.26162567138672 -217.94146728515625 84.26170349121094 C-216.5703527867027 84.2668097153385 -215.19923869323557 84.27202570371712 -213.828125 84.27734375 C-212.42136688519668 84.27920971813403 -211.01460811893836 84.28063277795441 -209.60784912109375 84.28163146972656 C-205.91219272760327 84.28544256462483 -202.2165758724528 84.29526079868722 -198.52093505859375 84.30633544921875 C-194.74703506245845 84.31657986289386 -190.9731286544248 84.32113557850948 -187.19921875 84.326171875 C-179.79946117665997 84.33688436226339 -172.39973613662653 84.35394384026164 -165 84.375 C-164.87026290893556 83.71072494506836 -164.7405258178711 83.04644989013671 -164.6068572998047 82.36204528808594 C-160.88630949883222 63.50039581000617 -156.32648015624852 46.220635967380325 -140 34.375 C-124.65957631694235 25.525587748419497 -110.6446038835063 26.495872554936017 -94 30.9375 C-92.60252405152175 31.300027199587632 -91.20473205645206 31.66133809039274 -89.806640625 32.021484375 C-86.94984305949879 32.759731710149495 -84.09519672600189 33.50554752084841 -81.2421875 34.25830078125 C-77.13397646440072 35.34192848025871 -73.02091546890816 36.40602571661199 -68.90625 37.46484375 C-62.60099152943479 39.08950409947102 -56.2991584002944 40.726855482975495 -50 42.375 C-49.71261962890625 41.63403076171875 -49.42523925781251 40.8930615234375 -49.129150390625 40.129638671875 C-42.43532449226382 23.799598107289242 -33.11104112891576 9.897326567495334 -16.77734375 2.34765625 C-11.275981317120227 0.29997932386808124 -5.807299315272417 0.07540392763028914 0 0 Z M-16 19.375 C-17.051874999999995 19.931874999999998 -18.10374999999999 20.48875 -19.1875 21.0625 C-25.289616177046696 26.079795523349507 -28.557486611937293 33.32066812216347 -32.1953125 40.19921875 C-32.74650756835936 41.23725646972656 -32.74650756835936 41.23725646972656 -33.308837890625 42.2962646484375 C-34.207174120047966 43.988496391179794 -35.1037659599742 45.6816539639703 -36 47.375 C-35.461874313354485 47.51762866020203 -34.92374862670897 47.66025732040405 -34.36931610107422 47.80720806121826 C-21.008109231559985 51.34865437803709 -7.647296318981972 54.8915839093125 5.713127136230469 58.43598461151123 C12.17527204016568 60.15029902257588 18.63753789313006 61.86415423575899 25.10009765625 63.576904296875 C38.78928364494891 67.20516700948818 52.47689214014622 70.8392397241456 66.16081237792969 74.48731803894043 C72.13967672494277 76.08120557790893 78.11919408593894 77.6725180540698 84.1005859375 79.25689697265625 C89.68652580055914 80.73673634335172 95.27023891350609 82.22470028931804 100.85237121582031 83.71883583068848 C102.89666624119616 84.2645788227524 104.94171930425784 84.80749182139472 106.98759460449219 85.34728050231934 C141.51912448518715 94.46451752973736 141.51912448518715 94.46451752973736 151.8203125 111.109375 C159.15549981673632 125.19682084008969 157.53887389381833 139.19068870547622 153.5625 154.0390625 C153.19723772520229 155.44516312137026 152.83308765379604 156.8515530633695 152.469970703125 158.25820922851563 C151.52077009693915 161.91656884675473 150.55244086833068 165.5695304972476 149.5760498046875 169.22071838378906 C149.0201825973137 171.29952215414977 148.46719126543871 173.37906910617795 147.9150390625 175.4588623046875 C145.71509186417393 183.73477946557225 143.47576124049317 191.99974172059626 141.22320556640625 200.261474609375 C139.0330707273772 208.29427745439588 136.85691376802396 216.33087836958458 134.6796875 224.3671875 C134.33601953506468 225.6351906967163 134.33601953506468 225.6351906967163 133.98540878295898 226.9288101196289 C128.30419219699684 247.89457798583354 122.71299193000141 268.8842311695652 117.125 289.875 C115.11109585634154 297.43891362889866 113.09679963567191 305.00272277952814 111.08203125 312.56640625 C110.83248121261596 313.5033048057556 110.58293117523192 314.44020336151124 110.32581901550293 315.4054927825928 C104.0507959378607 338.961079157024 97.73196989444477 362.5049086235286 91.40606689453125 386.046875 C91.06559011459353 387.31396710395813 91.06559011459353 387.31396710395813 90.71823501586914 388.60665702819824 C90.27105682794456 390.2707567432781 89.82384022402238 391.93484613570934 89.37658309936523 393.5989246368408 C88.33057002714582 397.4914891885663 87.28571968285286 401.3843574342067 86.243896484375 405.2780456542969 C85.86003061552128 406.7125459830654 85.47616030254613 408.1470451226157 85.09228515625 409.58154296875 C84.91039264678955 410.2614321708679 84.72850013732909 410.94132137298584 84.54109573364258 411.64181327819824 C83.45854549741006 415.6823384606075 82.35916153245086 419.7178683013751 81.24755859375 423.75048828125 C80.87735847473141 425.1090871429443 80.87735847473141 425.1090871429443 80.49967956542969 426.49513244628906 C80.06972908342556 428.07214850591737 79.63363872089951 429.6475128542607 79.18940734863281 431.22056579589844 C78.30094811145472 434.50615489657434 77.89712211212515 436.06636633637544 79 439.375 C86.4038061980217 426.7478646187149 93.75369187018947 414.09302816025695 101 401.375 C105.95374191755309 392.68095679078175 110.94378402390163 384.010027141375 116 375.375 C121.03189790173508 366.7798270984471 126.00389124319179 358.1518777771626 130.9375 349.5 C137.96603507182022 337.17474804471794 145.04240434410087 324.8777793276781 152.14111328125 312.5927734375 C155.26324605009535 307.18829354606555 158.38141204219488 301.78152587820813 161.5 296.375 C162.7499812156853 294.2083224963372 163.99998121032206 292.04165582635926 165.25 289.875 C166.17812500000002 288.26625 166.17812500000002 288.26625 167.125 286.625 C202.75000000007594 224.8749999998684 202.75000000007594 224.8749999998684 204.62744140625 221.62109375 C205.86967961528796 219.4676649067967 207.11154536700622 217.31402116037717 208.35302734375 215.16015625 C211.25129803271636 210.13293245310695 214.15298072368034 205.10778998308382 217.06854248046875 200.090576171875 C218.0941562769168 198.32524789310847 219.11854664422168 196.55921529322163 220.142578125 194.79296875 C221.42271465800917 192.58583679653594 222.70510666427043 190.38001076850793 223.990234375 188.17578125 C225.68290122309907 185.25429438068426 227.3513848445014 182.32154814148643 229 179.375 C229.7504760742188 178.03598632812498 229.7504760742188 178.03598632812498 230.51611328125 176.669921875 C234.88702307303902 168.47776554765406 235.8064600372125 160.53187985160048 233.1484375 151.47265625 C228.14392533172258 140.42528074927873 218.86117505239662 134.7092092251646 208.5 129.25 C206.68390714023008 128.27125005565193 204.87090440407655 127.28694155422909 203.05812072753906 126.30207824707031 C201.82815026374897 125.63393897831949 200.5973833329897 124.9672638607712 199.36582946777344 124.30204772949219 C193.5234450172427 121.14018764709184 187.7858217679592 117.80972365215001 182.0625 114.4375 C173.489476568873 109.40309242180076 164.88579575200532 104.42582058260489 156.25 99.5 C155.665500793457 99.16654571533203 155.08100158691406 98.83309143066407 154.47879028320313 98.48953247070313 C151.50771152674457 96.7947862903728 148.53619121795828 95.10081627514352 145.564453125 93.4072265625 C140.2890670484784 90.40029255757084 135.0176556217159 87.38640383076681 129.7459716796875 84.37298583984375 C126.83081342088053 82.70670070072076 123.91539337469669 81.04087372550526 121 79.375 C119.83333208137446 78.70833552426606 118.66666541461905 78.04166885774517 117.5 77.375 C116.92250000000001 77.045 116.34500000000003 76.715 115.75 76.375 C110.50000000085242 73.37500000048709 110.50000000085242 73.37500000048709 108.75006103515625 72.37503051757813 C107.58319592576288 71.70825336189665 106.41632580715577 71.04148497230125 105.24945068359375 70.37472534179688 C102.33577908679047 68.70982094162204 99.42219421551135 67.04476514137696 96.5087890625 65.37939453125 C91.22317080927081 62.35820985209551 85.93689683939886 59.3382008046751 80.64744567871094 56.32373046875 C68.92264796542202 49.64162734385741 57.212084008615705 42.93776597679637 45.5625 36.125 C41.708994277524425 33.87386611027064 37.85485211551202 31.623827547244147 34 29.375 C33.01725097656248 28.8013671875 32.034501953125016 28.227734375 31.02197265625 27.63671875 C28.143137767802216 25.960039893030583 25.259794806314744 24.291398896106678 22.375 22.625 C21.51592041015624 22.123232421875 20.656840820312482 21.62146484375 19.771728515625 21.1044921875 C8.255685505213364 14.47904497092561 -4.065795458234163 12.283661069385527 -16 19.375 Z M-138.83984375 54.5625 C-144.05693592437535 62.713108649529175 -149 74.55865603695392 -149 84.375 C-147.6560069465637 84.37719984054566 -147.6560069465637 84.37719984054566 -146.28486251831055 84.37944412231445 C-124.44951316608174 84.41654994194099 -102.61431856638433 84.4756147487677 -80.77909469604492 84.55890274047852 C-70.2195892986228 84.59865524497425 -59.660158018545985 84.63106698198919 -49.1005859375 84.64599609375 C-39.893259524527735 84.659032246804 -30.68609645332276 84.68604700622795 -21.478862047195435 84.7296130657196 C-16.606940993321274 84.75218370109425 -11.735221075172518 84.76791332161525 -6.863243103027344 84.76688385009766 C-2.269957872411908 84.76613463511357 2.322883475154754 84.78418984525103 6.916053771972656 84.8161678314209 C8.594502491788944 84.82462993322065 10.273001214634235 84.82644205691685 11.951461791992188 84.82080268859863 C27.35787905923263 84.77596676242254 38.55952379999377 87.37317218908495 49.93359375 98.21875 C56.4290578786796 105.03549515009814 61.11250536204443 114.21444642211303 61.138665199279785 123.71046733856201 C61.14413964331152 124.82416027724742 61.14961408734325 125.93785321593285 61.15525442361832 127.08529442548752 C61.156232530474654 128.31387745916845 61.15721063733099 129.54246049284933 61.15821838378906 130.8082733154297 C61.16315636098386 132.10940624058247 61.16809433817866 133.41053916573526 61.17318195104599 134.7511003613472 C61.186782872191316 138.37001961365849 61.194187060998445 141.988929453288 61.20060861110687 145.60786759853363 C61.20860397727648 149.5076580494292 61.22230472230365 153.40742886073593 61.235321044921875 157.3072052001953 C61.25709605496411 164.0662951011633 61.27523679676153 170.8253869764339 61.29092597961426 177.58449363708496 C61.31361527658089 187.35708960639187 61.341759406816834 197.12966383941324 61.37124525755644 206.90224138647318 C61.41893270222266 222.75667672572135 61.4621937640656 238.61112094298198 61.502685546875 254.465576171875 C61.542034610205064 269.8689035153668 61.5834594202837 285.272222963221 61.627685546875 300.675537109375 C61.63040981896222 301.6246135326475 61.63313409104944 302.57368995592 61.63594091683626 303.5515262708068 C61.64962029807907 308.31264912496897 61.66334059051189 313.07377186019 61.67708122730255 317.8348945379257 C61.79106410913408 357.3482466082676 61.89786945877279 396.861615621461 62 436.375 C63.346972017634016 433.7393274023856 64.4022603272968 431.29933595667325 65.15977478027344 428.43556213378906 C65.3674494838715 427.6591276264191 65.57512418746944 426.88269311904907 65.78909206390381 426.0827302932739 C66.0107204914093 425.2363106441498 66.2323489189148 424.3898909950256 66.460693359375 423.517822265625 C66.70106102943419 422.6141224193573 66.94142869949337 421.7104225730896 67.18908023834229 420.7793378829956 C67.993449906622 417.75110231718685 68.79159501545234 414.72126055332075 69.58984375 411.69140625 C70.1625183192628 409.53091884925556 70.73560737622358 407.37054127887893 71.30908203125 405.21026611328125 C72.54198755097559 400.5628287290121 73.77224528082104 395.9147015600244 75.00045776367188 391.2660217285156 C76.95420943481196 383.87170642793285 78.91405905016643 376.47901668166554 80.875244140625 369.086669921875 C81.5437512433507 366.56666678881766 82.2122540276373 364.0466625101598 82.88075256347656 361.5266571044922 C83.21402116775516 360.27038702011106 83.54728977203365 359.01411693573 83.89065742492676 357.7197780609131 C84.91328386318196 353.8641047797913 85.93535156287163 350.0082836283101 86.95726013183594 346.1524200439453 C92.75227818899913 324.28848828779013 98.57984390704041 302.4333481475139 104.42525863647461 280.58284091949463 C106.09763153904112 274.330860480065 107.76740224723528 268.07819304117766 109.43484115600586 261.82489490509033 C114.81898829223064 241.63445478832193 120.235847053513 221.45439366721544 125.77108573913574 201.3047924041748 C127.34092576613227 195.5830113538512 128.90140673027162 189.85866906690032 130.46185398101807 184.13432025909424 C131.9113126313335 178.82241970698925 133.37724807284417 173.51545558284857 134.8567600250244 168.21185207366943 C135.75554767539472 164.9750222160978 136.6385296993612 161.73403120257012 137.51737213134766 158.49173545837402 C137.92049543409678 157.01736880038737 138.3300845211403 155.54474979289154 138.74712371826172 154.0742588043213 C141.9434269315525 142.78763591353493 145.18534655455858 129.23003241185177 139.24609375 118.296875 C138.83488281249998 117.66265625 138.42367187500003 117.0284375 138 116.375 C137.59910156249998 115.74078125 137.19820312500002 115.1065625 136.78515625 114.453125 C129.0333121433494 103.93757995097833 113.06367972451784 102.00415335976427 101.1640625 98.9296875 C99.16814627640917 98.4060534181193 97.17247590039653 97.88148149330168 95.17703247070313 97.35604858398438 C90.89951629229256 96.23155424923488 86.62051142536984 95.11299047841453 82.3402099609375 93.9991455078125 C75.5539479725307 92.23297013732596 68.77124509532746 90.45340885691822 61.9892578125 88.6708984375 C59.66247702749388 88.05944275658686 57.33569479004575 87.44799260264557 55.0089111328125 86.8365478515625 C53.845074005126946 86.53068252563477 52.68123687744139 86.22481719970703 51.48213195800781 85.90968322753906 C47.903010580364935 84.96955527245495 44.323554660995114 84.03071062208437 40.7440185546875 83.0921630859375 C16.146810146829637 76.64049244437237 -8.420454969277586 70.07791079185682 -32.98401641845703 63.499488830566406 C-37.27294149948716 62.35110060850283 -41.562140051277794 61.20373596557326 -45.85136032104492 60.056450843811035 C-49.91216162650983 58.97020043889107 -53.97283147256485 57.88345901536812 -58.03350830078125 56.796743392944336 C-60.90030964034298 56.029755296236864 -63.76728385903863 55.263416106591976 -66.63427734375 54.49714660644531 C-74.54039030573341 52.382751883031574 -82.44390746413711 50.26088307347668 -90.33447265625 48.089111328125 C-92.15395416259764 47.59063690185547 -92.15395416259764 47.59063690185547 -94.01019287109375 47.08209228515625 C-96.14031976436291 46.49709261746237 -98.26911805927321 45.90721584509511 -100.39605712890625 45.31072998046875 C-114.50629546590238 41.44089140929595 -129.27808874351024 41.62764774632288 -138.83984375 54.5625 Z M-241.3125 108.625 C-249.22679704497213 118.73771289079774 -249.14873533191684 129.48633282002777 -249.1337127685547 141.7914581298828 C-249.1355824434702 143.16393174585215 -249.13788377138337 144.53640482987808 -249.14057809114456 145.90887707471848 C-249.14668311031787 149.6704856850384 -249.1465640285918 153.43207202696573 -249.14538371562958 157.1936844587326 C-249.14517938192546 161.2544621353706 -249.15070157633335 165.3152327205384 -249.1554412841797 169.37600708007813 C-249.16374118986872 177.32803846212784 -249.16649582378847 185.28006243061338 -249.1670536622405 193.23209778219461 C-249.16752911870725 199.69685417791771 -249.16958534845224 206.16160813127027 -249.17275428771973 212.62636375427246 C-249.1815589247244 230.9617482827746 -249.1861739412667 249.2971269622153 -249.18542381376028 267.63251361995935 C-249.18538385756312 268.6205980902165 -249.185343901366 269.60868256047365 -249.185302734375 270.626708984375 C-249.18526185370982 271.61600208841264 -249.18522097304464 272.6052951924503 -249.18517885357141 273.62456687539816 C-249.18477239794333 289.65759516482086 -249.19434231298374 305.6905999687602 -249.2084411010146 321.72362146526575 C-249.2228088832753 338.19269376137163 -249.22971106864833 354.66175460547095 -249.22884732484818 371.13083332777023 C-249.22851550290693 380.3743702952733 -249.2312561425287 389.6178826381609 -249.2420253753662 398.8614139556885 C-249.2511356379962 406.73132659712417 -249.25330128076558 414.6012034490401 -249.2465159520507 422.47111908346415 C-249.2432534632103 426.48448472939805 -249.24318428347715 430.4977817287248 -249.25186920166016 434.51114082336426 C-249.2597470493149 438.189450710311 -249.25828970965827 441.8676376588122 -249.24958506971598 445.5459445938468 C-249.24733045710968 447.4976915386502 -249.25486862292627 449.4494423355746 -249.2628247141838 451.40117436647415 C-249.2175724273956 462.96876213633385 -248.34077992853963 472.6133117678528 -240.17578125 481.3203125 C-231.13782991906666 489.80781885792953 -221.13176073681248 490.52931485500346 -209.23480224609375 490.5087127685547 C-208.26878058671952 490.5109783250093 -207.30275892734528 490.513243881464 -206.30746388435364 490.51557809114456 C-203.0796381468997 490.5218938409118 -199.85185465960353 490.5210902814036 -196.6240234375 490.520263671875 C-194.30589239407172 490.52325668731464 -191.98776184891284 490.5266595464973 -189.6696319580078 490.5304412841797 C-183.37818355719943 490.5392713028773 -177.0867487599633 490.54161898986337 -170.79529476165771 490.5422570705414 C-166.8625442127112 490.5429681769539 -162.92979711547068 490.5451036555792 -158.9970474243164 490.5477542877197 C-145.97913066063 490.55652738569046 -132.96122245168075 490.56117441112934 -119.94330272078514 490.5604238137603 C-118.89169746384025 490.56036387946455 -118.89169746384025 490.56036387946455 -117.81884765625 490.560302734375 C-117.1169158807397 490.5602618537098 -116.41498410522937 490.56022097304464 -115.69178166985512 490.5601788535714 C-104.32179036864608 490.5597725978197 -92.95183221604827 490.56933814608516 -81.58185049891472 490.5834411010146 C-69.89159513153297 490.5978262344932 -58.20135590832504 490.6047100975981 -46.511091470718384 490.6038473248482 C-39.95421505007644 490.6035926393828 -33.39737614830389 490.60642761117316 -26.84050750732422 490.6170253753662 C-20.671405772462805 490.6267242383796 -14.502377288138433 490.6267732195077 -8.333272933959961 490.61950874328613 C-6.07385589846001 490.61846510834124 -3.814434259597192 490.62081261771016 -1.5550251007080078 490.62686920166016 C1.5390244735397118 490.63462346871376 4.632823234019611 490.6299215939912 7.72686767578125 490.6222381591797 C8.612206327915203 490.62738172233105 9.497544980049156 490.6325252854824 10.409712076187134 490.6378247141838 C21.324060331638975 490.57829450631414 30.84278775057976 489.27204835155743 38.94140625 481.515625 C48.250004346753485 471.4879911421194 48.14967670681733 461.03475636326175 48.13371276855469 447.9585418701172 C48.135582443470184 446.58606825414785 48.13788377138337 445.21359517012195 48.14057809114456 443.8411229252815 C48.146683110317895 440.0795143149616 48.1465640285918 436.3179279730342 48.14538371562958 432.5563155412674 C48.14517938192546 428.4955378646293 48.15070157633335 424.43476727946154 48.15544128417969 420.3739929199219 C48.163741189868745 412.421961537872 48.166495823788466 404.46993756938673 48.167053662240505 396.5179022178054 C48.16752911870725 390.0531458220823 48.169585348452244 383.58839186872973 48.17275428771973 377.12363624572754 C48.18155892472441 358.7882517172253 48.1861739412667 340.4528730377848 48.18542381376028 322.11748638004065 C48.185383857563124 321.1294019097835 48.18534390136597 320.14131743952635 48.185302734375 319.123291015625 C48.18526185370979 318.13399791158736 48.185220973044636 317.1447048075497 48.185178853571415 316.12543312460184 C48.184772397943334 300.0924048351792 48.194342312983736 284.05940003123976 48.208441101014614 268.02637853473425 C48.22280888327526 251.55730623862829 48.22971106864833 235.0882453945291 48.228847324848175 218.61916667222977 C48.22851550290693 209.37562970472658 48.23125614252871 200.13211736183922 48.24202537536621 190.88858604431152 C48.251135637996185 183.01867340287583 48.253301280765584 175.1487965509599 48.246515952050686 167.27888091653585 C48.243253463210294 163.26551527060207 48.24318428347715 159.2522182712751 48.251869201660156 155.23885917663574 C48.25974704931491 151.56054928968908 48.25828970965824 147.88236234118773 48.24958506971598 144.2040554061532 C48.24733045710968 142.2523084613498 48.25486862292627 140.3005576644254 48.26282471418381 138.34882563352585 C48.21472254660216 126.05273885176709 46.82378150387842 117.14317850450735 38.6875 107.6875 C29.28114828140997 99.59366247470162 20.05029383220358 98.0596996296321 7.8673095703125 98.12103271484375 C6.89801907062531 98.11791273355485 5.9287285709381194 98.11479275226593 4.930065631866455 98.11157822608948 C1.7091730585098048 98.10365408855583 -1.5115281772592652 98.1098999971793 -4.732421875 98.1162109375 C-7.0526185061771685 98.11349859762838 -9.372814275605464 98.1099363005344 -11.693008422851563 98.1055908203125 C-17.97596674277898 98.09649351794911 -24.2588591856437 98.10000013355216 -30.541818618774414 98.10634899139404 C-37.12614744812009 98.11142273314499 -43.71047074690256 98.10671371642508 -50.2947998046875 98.10357666015625 C-62.05825144106299 98.0993091152352 -73.82167543866859 98.10591236597624 -85.5851222872734 98.11609533429146 C-96.23596220805516 98.12502997094586 -106.88675852182925 98.12347765757025 -117.53759765625 98.1142578125 C-129.92674236992835 98.10353812746253 -142.3158593082032 98.09957961897099 -154.70500802993774 98.10548233985901 C-161.25565544319088 98.10859572391075 -167.80627286436442 98.1090287142798 -174.35691833496094 98.10240936279297 C-180.51621417372456 98.09661989093628 -186.6754278938679 98.10066217761596 -192.83471488952637 98.11219787597656 C-195.09132691808907 98.11483588462531 -197.34794589123894 98.11409409132717 -199.60455513000488 98.10967254638672 C-202.69223234680112 98.10418173395209 -205.77964881874584 98.1110940599467 -208.8673095703125 98.12103271484375 C-209.7535147047043 98.11657127141953 -210.63971983909607 98.1121098279953 -211.55277967453003 98.1075131893158 C-222.733383996803 98.1769899066035 -233.42282104150058 100.10256483430264 -241.3125 108.625 Z M77 439.375 C78 441.375 78 441.375 78 441.375 Z " fill="none" transform="translate(263,3.625)"/>
<path stroke="#f472b6" stroke-width="1.5" stroke-linecap="round" d="M0 0 C3.1416614958226887 1.8785744208411757 5.856482835390523 3.889206207070174 8.1875 6.75 C12.076656114099336 4.920328828139617 15.456642412574922 2.5495218377685944 18.96875 0.08984375 C25.88428692532642 -4.086263935540444 37.296592314354086 -3.3683067160016833 45.0234375 -1.6015625 C52.69673276042573 1.5485271332274237 59.193046181243716 7.529256558402096 63.1875 14.75 C67.2961150592098 24.82801592422112 66.44726452744521 37.90815810350426 62.5078125 47.89453125 C55.71818558585903 62.57860602584924 46.637633784217 74.52675921750364 35.59912109375 86.23681640625 C34.178255486620685 87.75990963229418 32.78332656176056 89.30311394831602 31.39453125 90.85546875 C27.06102099706743 95.69436463137481 22.647021853602695 100.45956121643405 18 105 C17.2639453125 105.72703124999998 16.527890624999998 106.45406250000002 15.76953125 107.203125 C12.983482048947138 108.87222558035842 10.764086154266579 109.69061224405755 7.482666015625 109.52099609375 C2.004598600123785 107.68079431753972 -1.8714143724093049 102.55597081419376 -5.75 98.4375 C-6.6954991476742975 97.46897549150083 -7.6427546305747285 96.5021623166113 -8.591796875 95.537109375 C-14.71642872002738 89.25238197847278 -20.358519664926774 82.62474746667613 -25.8125 75.75 C-26.27922119140625 75.17403076171877 -26.7459423828125 74.59806152343748 -27.226806640625 74.004638671875 C-40.129114012622466 58.02918158889531 -47.97012338816822 41.557834986367595 -45.8125 20.75 C-43.95924713734435 12.61995619180226 -38.20108400232162 6.3778814711882035 -31.75 1.375 C-22.599069881298874 -3.6872166614091384 -9.573069930150666 -4.636732827569261 0 0 Z M-28.125 19.375 C-31.95167993415606 24.76069768510854 -31.42305014431824 30.321678940281572 -30.8125 36.75 C-26.234809481586467 53.25431917849539 -13.890216290374497 66.5796459448203 -2.51171875 78.83203125 C1.1145328618125347 82.75216142948477 4.656840226710898 86.74386455523643 8.1875 90.75 C12.268440839592301 89.13320720913526 14.994382756859892 86.20776930780653 18 83.125 C18.53479980468751 82.58157958984373 19.06959960937499 82.03815917968751 19.62060546875 81.478271484375 C23.64151562826109 77.36650363396808 27.541555532827175 73.20078872041188 31.1875 68.75 C31.967382812500006 67.82058593750003 32.74726562500001 66.891171875 33.55078125 65.93359375 C43.624630233582735 53.61468250011626 51.63725170101105 40.09997751695812 50.1875 23.75 C47.803164895328166 18.71640366791496 44.187564266632705 15.250032133316381 39.1875 12.75 C37.27595829861258 12.575443048226589 35.3564594355077 12.482848543873956 33.4375 12.4375 C31.898359374999984 12.381425781250016 31.898359374999984 12.381425781250016 30.328125 12.32421875 C26.290148749852023 12.8716558286892 24.31241031985104 14.151615665548547 21.1875 16.75 C19.082800686339624 19.746812571392923 19.082800686339624 19.746812571392923 17.3125 23 C13.843750515472436 28.338056607119313 13.843750515472436 28.338056607119313 11.21484375 29.98828125 C8.5188055333509 30.433154355331794 7.540072411924712 30.19161392159299 5.1875 28.75 C3.0368306146237103 26.130224876202703 1.1629348348841972 23.54049286681277 -0.579833984375 20.640869140625 C-2.872321218519488 16.835944036137107 -4.6989073332942155 14.525471606906422 -8.8125 12.75 C-17.132191238751062 11.405770411206163 -22.50339521375119 12.993718891285141 -28.125 19.375 Z " fill="none" transform="translate(152.8125,245.25)"/>
<path stroke="#f472b6" stroke-width="1.5" stroke-linecap="round" d="M0 0 C2.960838220727254 0.772886752435511 4.042670507948486 2.210940248407155 6.03515625 4.53125 C7.235867393512336 6.9337443505456235 8.289077584384813 9.259009407600331 9.28515625 11.7421875 C9.727949218749984 12.811215591430653 9.727949218749984 12.811215591430653 10.1796875 13.901840209960938 C11.14185536129952 16.23254654748939 12.089135753626692 18.568947662585288 13.03515625 20.90625 C13.696067742022592 22.52325421508931 14.35753168099933 24.140032734376177 15.01953125 25.756591796875 C16.370173983551126 29.059604341237957 17.714171986578265 32.36522916878988 19.0546875 35.67236328125 C20.622712715139073 39.53271484544052 22.219992631501896 43.379799780823646 23.833984375 47.22113037109375 C24.97801120919047 49.94864434741612 26.108426532924454 52.68165977813379 27.23583984375 55.41607666015625 C27.764651683029058 56.69138700835043 28.298757990111483 57.96451607354061 28.83837890625 59.23529052734375 C34.018348111842386 71.46302190991815 34.018348111842386 71.46302190991815 32.03515625 77.53125 C29.73493896442659 80.27381676356833 28.123458682105877 80.51358951357884 24.59765625 81.21875 C21.03515625 80.53125 21.03515625 80.53125 19.61328125 79.08984375 C16.31532361776243 74.0512973674148 12.03515625 66.65609646711266 12.03515625 60.53125 C3.455156250000016 60.53125 -5.124843749999997 60.53125 -13.96484375 60.53125 C-14.954843750000009 63.50125000000003 -15.94484374999999 66.47125 -16.96484375 69.53125 C-17.770500743827114 71.3864126920173 -18.615981379566165 73.22566687111538 -19.52734375 75.03125 C-19.9411328125 75.86656249999999 -20.354921875000002 76.70187499999997 -20.78125 77.5625 C-21.96484375 79.53125 -21.96484375 79.53125 -23.96484375 80.53125 C-27.49965894592873 80.79308816266138 -30.127016657255922 80.89645668145255 -33.40234375 79.46875 C-35.79385104646266 76.50328095238626 -35.247849481923936 74.27447248091397 -34.96484375 70.53125 C-34.148301394032075 67.77995687395696 -33.01900121907465 65.20721876023896 -31.83984375 62.59375 C-29.143541300454586 56.45966192728423 -26.70649226045839 50.253152390654634 -24.371109008789063 43.97395324707031 C-21.690097418920203 36.770693320326984 -18.925676689964405 29.601479427645245 -16.122802734375 22.44482421875 C-15.551167693804075 20.98197994224421 -14.982227940397024 19.518080014611314 -14.415771484375 18.05322265625 C-13.580020529298082 15.892477504420015 -12.736251776743615 13.73502116044807 -11.890625 11.578125 C-11.640572052001943 10.927128295898456 -11.390519104003914 10.276131591796855 -11.132888793945313 9.60540771484375 C-7.380181545427746 0.11376002382161232 -7.380181545427746 0.11376002382161232 0 0 Z M-2.96484375 29.53125 C-4.94484374999999 35.141250000000014 -6.924843750000008 40.75125000000003 -8.96484375 46.53125 C-4.014843750000011 46.53125 0.9351562500000057 46.53125 6.03515625 46.53125 C2.5701562499999966 38.11624999999998 2.5701562499999966 38.11624999999998 -0.96484375 29.53125 C-1.6248437499999966 29.53125 -2.284843749999993 29.53125 -2.96484375 29.53125 Z " fill="none" transform="translate(243.96484375,385.46875)"/>
<path stroke="#f472b6" stroke-width="1.5" stroke-linecap="round" d="M0 0 C2.8376060213162617 -0.043739591850737725 3.810003596886105 0.28764773126263776 6.0111541748046875 2.1388397216796875 C8.407465839834913 4.897065979022841 9.54662368717291 7.424542242836509 10.919189453125 10.809814453125 C11.174972686767575 11.433136596679674 11.43075592041015 12.056458740234376 11.694290161132813 12.69866943359375 C12.532190049658723 14.749364787180355 13.354670702809372 16.805811280219245 14.17578125 18.86328125 C14.754958500997844 20.298283720035272 15.334570365042438 21.73311084668495 15.914596557617188 23.167770385742188 C17.126045160635897 26.171789533937016 18.329369945271168 29.178912906816976 19.527587890625 32.188232421875 C21.06069072563659 36.03557741848323 22.617911520243354 39.872628901445665 24.1819429397583 43.707486152648926 C25.384970414799056 46.6670047771359 26.572792760181713 49.63245050557086 27.756399154663086 52.599782943725586 C28.32417444826126 54.01676494196275 28.89711736200387 55.431688054543 29.47539710998535 56.84441566467285 C30.283714562306542 58.82436419506155 31.070591995960072 60.81161336897162 31.852783203125 62.802001953125 C32.530847702026364 64.49266532897948 32.530847702026364 64.49266532897948 33.22261047363281 66.21748352050781 C34.20083275419084 70.04064199044012 33.94597505824021 72.67491294897823 33.0625 76.5 C30.720243861332577 79.29269001148808 29.18123215291817 79.48091804685242 25.5625 80.0625 C22.0625 79.5 22.0625 79.5 19.9375 77.25 C17.375694538568126 72.12638907713625 15.265719675727667 66.78772722174637 13.0625 61.5 C0.19249999999999545 61.004999999999995 0.19249999999999545 61.004999999999995 -12.9375 60.5 C-13.267499999999998 62.150000000000006 -13.597499999999997 63.80000000000001 -13.9375 65.5 C-14.680032655171317 67.5806940229441 -15.474534752696073 69.64337265430404 -16.3125 71.6875 C-16.732734375000007 72.73292968750002 -17.15296875 73.77835937499998 -17.5859375 74.85546875 C-18.9375 77.5 -18.9375 77.5 -21.9375 79.5 C-24.128906250000057 79.58203125 -24.128906250000057 79.58203125 -26.5 79.3125 C-27.285039062499997 79.2364453125 -28.070078125000002 79.16039062499999 -28.87890625 79.08203125 C-30.9375 78.5 -30.9375 78.5 -32.9375 75.5 C-32.910837579745476 66.92358815146122 -29.413991158639362 59.574083168558104 -26.125 51.8125 C-25.242045188655965 49.69506937710534 -24.362892110548103 47.57608388543957 -23.4837646484375 45.457061767578125 C-22.880103510892262 44.00308994214299 -22.275029526393382 42.549703938386585 -21.6685791015625 41.096893310546875 C-19.561846661283674 36.04248989461743 -17.517670260323428 30.966274314893326 -15.51171875 25.87109375 C-15.24008407592774 25.18271926879882 -14.968449401855466 24.49434478759764 -14.688583374023438 23.785110473632813 C-13.639037161584355 21.12377600606814 -12.590140727855072 18.462246563185204 -11.551116943359375 15.796783447265625 C-10.838988248952347 13.971768728843074 -10.11888354624395 12.149872373899115 -9.3984375 10.328125 C-8.792014160156242 8.779799804687514 -8.792014160156242 8.779799804687514 -8.17333984375 7.2001953125 C-5.1789076832590695 0.6576390708900419 -5.1789076832590695 0.6576390708900419 0 0 Z M-0.9375 29.5 C-2.917500000000004 35.110000000000014 -4.897500000000008 40.72 -6.9375 46.5 C-2.3174999999999955 46.5 2.302500000000009 46.5 7.0625 46.5 C5.373584509195496 40.62900805577482 3.5988062858766625 35.05571853096794 1.0625 29.5 C0.4025000000000034 29.5 -0.2574999999999932 29.5 -0.9375 29.5 Z " fill="none" transform="translate(81.9375,130.5)"/>

  </g>
</svg>