<?xml version="1.0" encoding="UTF-8"?>
<svg width="100" height="100" viewBox="0 0 100 100" fill="none" xmlns="http://www.w3.org/2000/svg">
  <g transform="translate(25, 35.8201581027668) scale(0.09881422924901186)">
    
<path stroke="#60a5fa" stroke-width="1.5" stroke-linecap="round" d="M0 0 C166.98000000000002 0 333.96000000000004 0 506 0 C506 94.71000000000001 506 189.42000000000002 506 287 C339.02 287 172.03999999999996 287 0 287 C0 192.29 0 97.57999999999998 0 0 Z " fill="none" transform="translate(0,0)"/>
<path stroke="#60a5fa" stroke-width="1.5" stroke-linecap="round" d="M0 0 C0.9900000000000091 0 1.9800000000000182 0 3 0 C3 0.6599999999999966 3 1.3199999999999932 3 2 C3.952617187499982 1.9419921875000057 4.9052343750000205 1.8839843750000114 5.88671875 1.82421875 C16.056562568246363 1.4583970299191833 16.056562568246363 1.4583970299191833 20.375 3.9375 C22.61121895282315 8.151912641859042 22.977254432258178 11.331730750520506 22 16 C20.59998596852023 19.191066464855567 18.92176208713022 22.096766561228264 17 25 C17.82499999999999 24.896874999999994 18.649999999999977 24.79374999999999 19.5 24.6875 C25.005482250153136 25.179060915192252 29.126882459917965 28.00200795724581 32.875 32 C36.0381560305953 37.62338849883608 36.933281804273804 42.57509157899926 36 49 C33.332261662435485 55.92371159237675 27.42130467722376 61.57901374955904 20.98828125 65.1015625 C16.46529790770842 67.0031704278004 11.859732319251634 68.00578599257238 7 67 C2.013211058950958 64.82443498622098 -1.8345674081940615 62.142902405539076 -4 57 C-4 56.00999999999999 -4 55.02000000000001 -4 54 C-3.009999999999991 54.329999999999984 -2.019999999999982 54.66 -1 55 C-0.339999999999975 40.150000000000006 0.3199999999999932 25.30000000000001 1 10 C0.339999999999975 10 -0.3199999999999932 10 -1 10 C-1 9.340000000000003 -1 8.680000000000007 -1 8 C-3.1021169746458668 8.96663748789436 -3.1021169746458668 8.96663748789436 -5 11 C-5.665494506132006 13.699245716871388 -5.816807630728022 16.206316368601904 -6 19 C-6.660000000000025 19 -7.319999999999993 19 -8 19 C-9.616770696087997 15.766458607824006 -9.47631928638691 13.572394647901689 -9 10 C-6.970344692720801 7.561225690991762 -4.698108603931416 5.666478843604693 -2 4 C-1.339999999999975 4 -0.6800000000000068 4 0 4 C0 2.680000000000007 0 1.3600000000000136 0 0 Z " fill="none" transform="translate(387,183)"/>
<path stroke="#60a5fa" stroke-width="1.5" stroke-linecap="round" d="M0 0 C6.051636338279707 -0.14250321047754255 9.631362868165354 0.8718108415912695 14.23828125 4.875 C17.591902372209745 8.371150019903666 17.957437774139294 11.631198402317665 18.30078125 16.31640625 C18.161434868882736 22.177663405746017 15.897865166564145 25.467327792119278 11.80078125 29.50390625 C5.89512040760269 34.69681492176318 1.5664385430408174 36.77730058583674 -6.296875 36.66015625 C-8.696249514239469 36.463082367926944 -10.276235251549224 35.96537370882257 -12.19921875 34.50390625 C-13.319059936038286 31.14438269188517 -13.227284754015614 28.834801678368933 -13.078125 25.3046875 C-13.02978515625 24.09619140625 -12.9814453125 22.8876953125 -12.931640625 21.642578125 C-12.875566406250016 20.379941406249998 -12.819492187499975 19.117304687499995 -12.76171875 17.81640625 C-12.70951171874998 16.542167968749993 -12.657304687500016 15.267929687499986 -12.603515625 13.955078125 C-12.473714295892364 10.80444586393341 -12.338743152535926 7.65412048140638 -12.19921875 4.50390625 C-11.106093750000014 4.400781249999994 -10.012968750000027 4.297656249999989 -8.88671875 4.19140625 C-4.7100741129521 3.412709792245323 -3.7491763358142407 0.8590475085613605 0 0 Z " fill="none" transform="translate(402.19921875,210.49609375)"/>
<path stroke="#60a5fa" stroke-width="1.5" stroke-linecap="round" d="M0 0 C3 0.625 3 0.625 5.25 3.3125 C8.270135837823616 9.029185693023265 9.743150871398583 14.52677962685334 11.0625 20.8125 C11.40515211172766 22.431499382921373 11.75009601290536 24.050015922145633 12.09765625 25.66796875 C12.322073974609367 26.735675048828114 12.322073974609367 26.735675048828114 12.551025390625 27.824951171875 C12.95191332090657 29.71004339069347 12.95191332090657 29.71004339069347 14 31.625 C14.206331241823705 33.140961485065844 14.36643281528626 34.66340301728428 14.5 36.1875 C14.942054254255709 41.00799639164566 15.456917772503914 45.814843127891834 16 50.625 C15.009999999999991 50.625 14.02000000000001 50.625 13 50.625 C11.680000000000007 44.685 10.36 38.745000000000005 9 32.625 C3.0600000000000023 31.965000000000003 -2.8799999999999955 31.305000000000007 -9 30.625 C-9.144374999999997 32.31625 -9.288749999999993 34.00749999999999 -9.4375 35.75 C-9.798560207306693 39.74745229518123 -10.253230591406606 43.67779026886345 -11 47.625 C-11.989999999999995 47.625 -12.980000000000004 47.625 -14 47.625 C-14.02717691874058 45.56257383335412 -14.046475803785029 43.50004296995564 -14.0625 41.4375 C-14.079902343750007 39.71466796875001 -14.079902343750007 39.71466796875001 -14.09765625 37.95703125 C-14.011928315895275 35.03199413834693 -13.678490226567973 32.46183708903615 -13 29.625 C-15.64 29.625 -18.28 29.625 -21 29.625 C-21 30.61500000000001 -21 31.60499999999999 -21 32.625 C-21.989999999999995 32.625 -22.980000000000004 32.625 -24 32.625 C-23.625 30.1875 -23.625 30.1875 -23 27.625 C-20.594543619327695 26.42227180966384 -19.050030472951747 26.524285278957848 -16.375 26.5625 C-15.149101562499993 26.576035156249986 -15.149101562499993 26.576035156249986 -13.8984375 26.58984375 C-13.271953124999996 26.601445312500005 -12.645468749999992 26.61304687500001 -12 26.625 C-12.005236816406253 25.969028320312503 -12.010473632812506 25.313056640625007 -12.015869140625 24.63720703125 C-12.03661271624776 21.674814370794792 -12.049651760342826 18.71243697238185 -12.0625 15.75 C-12.070878906250002 14.717460937499993 -12.079257812500003 13.684921874999986 -12.087890625 12.62109375 C-12.091113281250003 11.634960937500011 -12.094335937500006 10.648828124999994 -12.09765625 9.6328125 C-12.102893066406253 8.721606445312489 -12.108129882812506 7.810400390625006 -12.113525390625 6.87158203125 C-12 4.625 -12 4.625 -11 2.625 C-10.010000000000005 2.625 -9.019999999999996 2.625 -8 2.625 C-7.670000000000002 3.2849999999999966 -7.340000000000003 3.944999999999993 -7 4.625 C-6.4637500000000045 3.9650000000000034 -5.927499999999995 3.305000000000007 -5.375 2.625 C-3 0.625 -3 0.625 0 0 Z " fill="none" transform="translate(115,192.375)"/>
<path stroke="#60a5fa" stroke-width="1.5" stroke-linecap="round" d="M0 0 C2.5 0.125 2.5 0.125 3.5 1.125 C5.852453497002244 1.2350028368032042 8.176186742099617 1.2799542934166084 10.529678344726563 1.2832183837890625 C11.273739299178118 1.2881563609838622 12.017800253629673 1.2930943381786335 12.784408509731293 1.29818195104599 C15.296455513000836 1.3136323116601716 17.808476822232166 1.3219378358082565 20.320556640625 1.330322265625 C22.113787120176312 1.339894878711334 23.90701531249198 1.3499045840715098 25.700241088867188 1.360321044921875 C30.584309062372483 1.3874430606035162 35.4683867721412 1.4084129828089544 40.35248875617981 1.4283230304718018 C45.45078525042021 1.450137741322095 50.549051489368 1.4775484414436733 55.64732360839844 1.5043792724609375 C65.30874966181256 1.5543674121634297 74.97019245304821 1.5992834508813587 84.63165134191513 1.64240163564682 C95.62785770653494 1.6917218145977415 106.62403372618516 1.7466592374583456 117.6202107667923 1.8020812273025513 C140.24677888514577 1.9159952050649451 162.87337609477083 2.022813633889342 185.5 2.125 C185.16999999999996 3.115000000000009 184.84000000000003 4.10499999999999 184.5 5.125 C125.1 5.125 65.69999999999999 5.125 4.5 5.125 C4.1699999999999875 8.094999999999999 3.8400000000000034 11.064999999999998 3.5 14.125 C0.5 17.125 0.5 17.125 -2 17.5625 C-4.5 17.125 -4.5 17.125 -6.25 15.5625 C-7.944767988899173 12.257702421646627 -8.5 9.851246472736392 -8.5 6.125 C-6.125 3.25 -6.125 3.25 -3.5 1.125 C-2.5 0.125 -2.5 0.125 0 0 Z " fill="none" transform="translate(127.5,137.875)"/>
<path stroke="#60a5fa" stroke-width="1.5" stroke-linecap="round" d="M0 0 C5.834616315303947 1.667033232943993 11.152412451812324 3.955297808916967 16.5625 6.6875 C17.244655761718775 7.029665527343752 17.926811523437493 7.3718310546875045 18.629638671875 7.724365234375 C22.194622527637762 9.527740085898188 25.71552869599043 11.386986624229962 29.203125 13.3359375 C36.349501534118474 17.24898766737192 41.450014774237445 19.75895808432915 49.78125 18.203125 C52 18 52 18 55.1875 19.9375 C57.69497636425854 24.174270408574728 57.77390321194963 26.1244097647174 57 31 C54.60111372355328 33.74158431593912 53.08651182405566 34.80986043079025 49.5 35.4375 C46.310966631469284 34.879419160507126 44.523007684376125 34.045681906250934 42 32 C40.6875 28.8125 40.6875 28.8125 40 26 C35.60883989773538 29.354358411452125 31.27062043333558 32.76332265793013 27.015625 36.2890625 C26.31373046875001 36.86825439453125 25.611835937500018 37.4474462890625 24.888671875 38.044189453125 C23.479411378622558 39.2094033544106 22.074341365797466 40.37970684261194 20.673828125 41.555419921875 C17.258732980948878 44.37287341571718 14.309675894039572 46.68872264464301 10 48 C10.362886993257632 45.36762927113125 10.797414344911601 44.19799187606145 12.72265625 42.31640625 C13.494804687499993 41.73761718750001 14.266953124999986 41.158828125000014 15.0625 40.5625 C16.39087890625001 39.539628906250016 16.39087890625001 39.539628906250016 17.74609375 38.49609375 C18.503820800781227 37.917707519531234 18.503820800781227 37.917707519531234 19.27685546875 37.32763671875 C22.76405888863343 34.6408398644958 26.193790542963143 31.882677158161954 29.625 29.125 C30.34824462890623 28.553381347656256 31.071489257812516 27.98176269531251 31.816650390625 27.392822265625 C32.48817138671876 26.853269042968748 33.15969238281252 26.313715820312495 33.8515625 25.7578125 C34.45822753906248 25.274575195312508 35.06489257812501 24.791337890625016 35.68994140625 24.29345703125 C36.33842041015623 23.653195800781248 36.33842041015623 23.653195800781248 37 23 C37 22.340000000000003 37 21.680000000000007 37 21 C24.759542034449794 14.80186145450216 12.40455476411131 8.862129147567202 0 3 C0 2.010000000000005 0 1.019999999999996 0 0 Z " fill="none" transform="translate(290,120)"/>
<path stroke="#60a5fa" stroke-width="1.5" stroke-linecap="round" d="M0 0 C3.265978192778789 1.1359924148795812 4.272887611190441 1.9737877100264 5.875 5 C5.875 5.990000000000002 5.875 6.980000000000004 5.875 8 C4.884999999999991 8 3.8950000000000102 8 2.875 8 C2.2150000000000034 6.68 1.5550000000000068 5.359999999999999 0.875 4 C-1.510273295805149 3.8718463513424837 -1.510273295805149 3.8718463513424837 -4.125 5 C-8.584157519567867 11.819887971103782 -8.774177329915318 17.99834627418877 -8.875 26 C-8.919472656250008 27.734433593749998 -8.919472656250008 27.734433593749998 -8.96484375 29.50390625 C-9.035061089847432 32.336005623846006 -9.087996323088646 35.16730473299356 -9.125 38 C-8.076992187499997 37.90460937500001 -7.028984374999993 37.80921875 -5.94921875 37.7109375 C-4.570359784958271 37.598377584486386 -3.1914507079203815 37.486430360236 -1.8125 37.375 C-1.1222070312500136 37.310546875 -0.43191406249999886 37.24609375 0.279296875 37.1796875 C4.130997204791839 36.88197153247987 5.563544157557942 36.792362771705285 8.875 39 C8.875 39.99000000000001 8.875 40.97999999999999 8.875 42 C7.884999999999991 42 6.89500000000001 42 5.875 42 C5.875 41.34 5.875 40.68000000000001 5.875 40 C1.2549999999999955 40.33 -3.365000000000009 40.66 -8.125 41 C-7.908437499999991 42.23234375 -7.69187500000001 43.4646875 -7.46875 44.734375 C-4.087698683655361 64.5772334375858 -4.087698683655361 64.5772334375858 -5.125 72 C-7.125 74 -7.125 74 -9.875 74.4375 C-14.268422724473623 73.84607771016701 -16.058615246780107 72.13607531579308 -19.125 69 C-20.5 66.1875 -20.5 66.1875 -21.125 64 C-20.13499999999999 64 -19.14500000000001 64 -18.125 64 C-16.912341498525933 65.49986709392844 -15.702354500602212 67.00605117770498 -14.6015625 68.58984375 C-12.605304940165269 70.49632253068873 -10.811001010786413 70.64516040158507 -8.125 71 C-8.405464287985012 67.64479941013424 -8.701404219362672 64.29113171536707 -9 60.9375 C-9.07863281249999 59.99455078125 -9.157265625000008 59.0516015625 -9.23828125 58.080078125 C-9.715630798706684 52.810873491199345 -10.465410220388435 48.02758080294089 -12.125 43 C-16.96128304865499 43.990437051358526 -21.601188732942546 44.95698846003856 -26.125 47 C-26.125 46.00999999999999 -26.125 45.02000000000001 -26.125 44 C-24.71021864808455 43.350047028500384 -23.2930851269808 42.70521277529292 -21.875 42.0625 C-20.69164062499999 41.52302734375 -20.69164062499999 41.52302734375 -19.484375 40.97265625 C-17.361635484374034 40.0975533702138 -15.351895649647219 39.527963267490165 -13.125 39 C-13.115654296874993 38.25951416015624 -13.106308593749986 37.5190283203125 -13.0966796875 36.756103515625 C-13.04255399101649 33.35759348495259 -12.958988880730686 29.960397979126355 -12.875 26.5625 C-12.853730468750001 24.815498046875007 -12.853730468750001 24.815498046875007 -12.83203125 23.033203125 C-12.594402896840393 14.597396587834353 -11.541142507773316 7.775736455959965 -5.75 1.375 C-3.125 0 -3.125 0 0 0 Z " fill="none" transform="translate(237.125,40)"/>
<path stroke="#60a5fa" stroke-width="1.5" stroke-linecap="round" d="M0 0 C2.8766336867231814 1.4383168433615765 3.5309289031251296 3.1415748425147854 5 6 C5.884509257757429 8.653527773272316 6.54645475800848 11.341175645864809 7.1875 14.0625 C7.36474609375 14.76955078124999 7.5419921875 15.476601562500008 7.724609375 16.205078125 C8.549687696740165 19.5977746989509 9 22.48672071530268 9 26 C3.0600000000000023 25.340000000000003 -2.8799999999999955 24.680000000000007 -9 24 C-9 13.797752808988776 -9 13.797752808988776 -7.1875 8.625 C-6.851054687499996 7.627265625000007 -6.514609375000006 6.629531250000014 -6.16796875 5.6015625 C-4.7742859551566 2.4972389502819397 -3.642595153246276 0 0 0 Z " fill="none" transform="translate(115,196)"/>
<path stroke="#60a5fa" stroke-width="1.5" stroke-linecap="round" d="M0 0 C0.3299999999999841 0 0.660000000000025 0 1 0 C1 6.930000000000007 1 13.860000000000014 1 21 C1.660000000000025 21 2.319999999999993 21 3 21 C3 20.340000000000003 3 19.680000000000007 3 19 C4.319999999999993 19.329999999999984 5.639999999999986 19.659999999999997 7 20 C6.670000000000016 20.659999999999997 6.339999999999975 21.319999999999993 6 22 C6.990000000000009 21.670000000000016 7.980000000000018 21.340000000000003 9 21 C9 21.99000000000001 9 22.97999999999999 9 24 C6 26 6 26 3.3125 25.625 C2.167812500000025 25.31562500000001 2.167812500000025 25.31562500000001 1 25 C0.9753015047800204 28.950999281500913 0.9571407701624821 32.901968741217104 0.945068359375 36.85302734375 C0.9375596437062654 38.859065510479724 0.9248552950637645 40.86508202303801 0.912109375 42.87109375 C0.9088867187500114 44.1279296875 0.9056640625000227 45.384765625 0.90234375 46.6796875 C0.8971069335937614 47.842260742187506 0.8918701171875227 49.00483398437501 0.886474609375 50.20263671875 C0.8064371731618962 52.95502192208542 0.8064371731618962 52.95502192208542 2 55 C7.145579058304975 56.71519301943499 11.478011995122245 56.48062779101403 16.5625 54.875 C22.21916877543316 51.7895443043092 27.336461629137943 48.028007891951006 30 42 C30.795054778779615 39.021060575711886 31.438681853348385 36.03111799191876 32 33 C32.329999999999984 33 32.65999999999997 33 33 33 C33.61874999999998 42.65937500000001 33.61874999999998 42.65937500000001 31.5 47.25 C25.037551686105473 54.35869314528401 18.89829355718325 59.74602842044894 9 60.5 C4.186785865481227 60.30063610093708 0.6168608415973154 58.051466503140716 -3 55 C-5.300279343633235 51.98088336148135 -6 50.79198145786327 -6 47 C-5.009999999999991 47.329999999999984 -4.019999999999982 47.66 -3 48 C-2.944650878906259 46.68805664062501 -2.889301757812518 45.376113281250014 -2.832275390625 44.0244140625 C-2.625812271844609 39.15639157373445 -2.413942526870869 34.28861682933268 -2.200439453125 29.4208984375 C-2.108794124028691 27.314191297140553 -2.0186146498057838 25.207419857264256 -1.929931640625 23.1005859375 C-1.8021979519831461 20.072084403444023 -1.669192431482088 17.04385333073526 -1.53515625 14.015625 C-1.4965699768066543 13.07382385253905 -1.4579837036133085 12.132022705078128 -1.4182281494140625 11.16168212890625 C-1.3782621765136582 10.281071166992177 -1.338296203613254 9.400460205078133 -1.297119140625 8.4931640625 C-1.247155380249012 7.3340048217773415 -1.247155380249012 7.3340048217773415 -1.1961822509765625 6.15142822265625 C-1.0010586664022298 4.0116098411798475 -0.5786049859100331 2.0661870163389153 0 0 Z " fill="none" transform="translate(389,190)"/>
<path stroke="#60a5fa" stroke-width="1.5" stroke-linecap="round" d="M0 0 C11.467066429307579 -0.36990536868734125 11.467066429307579 -0.36990536868734125 13.8515625 1.28515625 C15.451435395753379 3.6740821045433165 15.594462830668192 5.905836309965565 15.46875 8.734375 C14.548509855408213 13.182202365526905 12.439538429967968 17.044817249118438 9 20 C6.029999999999973 20.659999999999997 3.0600000000000023 21.319999999999993 0 22 C0 14.740000000000009 0 7.47999999999999 0 0 Z " fill="none" transform="translate(391,188)"/>
<path stroke="#60a5fa" stroke-width="1.5" stroke-linecap="round" d="M0 0 C5.834616315303947 1.667033232943993 11.152412451812324 3.955297808916967 16.5625 6.6875 C17.244655761718775 7.029665527343752 17.926811523437493 7.3718310546875045 18.629638671875 7.724365234375 C22.194622527637762 9.527740085898188 25.71552869599043 11.386986624229962 29.203125 13.3359375 C36.94670517301637 17.578056842335315 43.02691628983632 20.433378633264738 52 18 C52 18.329999999999984 52 18.659999999999997 52 19 C50.35000000000002 19 48.69999999999999 19 47 19 C46.504999999999995 20.485000000000014 46.504999999999995 20.485000000000014 46 22 C45.00999999999999 22.329999999999984 44.01999999999998 22.659999999999997 43 23 C43 22.340000000000003 43 21.680000000000007 43 21 C42.15566406250002 21.069609375 41.31132812499999 21.139218749999998 40.44140625 21.2109375 C36.332543871809605 20.959088954685257 33.47936414497889 19.548036667672562 29.9375 17.625 C28.54155390403315 16.896155067201903 27.14434594993145 16.169723449874084 25.74609375 15.4453125 C24.994409179687523 15.053759765624989 24.24272460937499 14.662207031250006 23.46826171875 14.2587890625 C18.859406830641547 11.908318656655581 14.176517028323815 9.711871524469842 9.5 7.5 C8.561481933593768 7.054790039062496 7.6229638671874795 6.609580078125006 6.656005859375 6.15087890625 C4.438019270558357 5.099135288931876 2.2193673869145414 4.048825894632898 0 3 C0 2.010000000000005 0 1.019999999999996 0 0 Z " fill="none" transform="translate(290,120)"/>
<path stroke="#60a5fa" stroke-width="1.5" stroke-linecap="round" d="M0 0 C1.3612499999999983 0.12375000000000114 1.3612499999999983 0.12375000000000114 2.75 0.25 C3.0799999999999983 1.240000000000009 3.4099999999999966 2.2299999999999898 3.75 3.25 C3.0900000000000034 3.9099999999999966 2.430000000000007 4.569999999999993 1.75 5.25 C-0.25 4.875 -0.25 4.875 -2.25 4.25 C-2.9099999999999966 4.25 -3.569999999999993 4.25 -4.25 4.25 C-6.361707631254276 11.528352302389749 -8.020483258465333 18.7716452309009 -9.25 26.25 C-10.239999999999995 25.920000000000016 -11.230000000000004 25.590000000000003 -12.25 25.25 C-12.27894547136981 21.79168414372384 -12.296780003283033 18.333399277732724 -12.3125 14.875 C-12.320878906250002 13.89015624999999 -12.329257812500003 12.905312500000008 -12.337890625 11.890625 C-12.341113281250003 10.949609374999994 -12.344335937500006 10.008593749999989 -12.34765625 9.0390625 C-12.352893066406253 8.169750976562511 -12.358129882812506 7.300439453124994 -12.363525390625 6.40478515625 C-12.25 4.25 -12.25 4.25 -11.25 2.25 C-10.260000000000005 2.25 -9.269999999999996 2.25 -8.25 2.25 C-7.920000000000002 2.9099999999999966 -7.590000000000003 3.569999999999993 -7.25 4.25 C-6.7137500000000045 3.5900000000000034 -6.177499999999995 2.930000000000007 -5.625 2.25 C-3.25 0.25 -3.25 0.25 0 0 Z " fill="none" transform="translate(115.25,192.75)"/>
<path stroke="#60a5fa" stroke-width="1.5" stroke-linecap="round" d="M0 0 C3.265978192778789 1.1359924148795812 4.272887611190441 1.9737877100264 5.875 5 C5.875 5.990000000000002 5.875 6.980000000000004 5.875 8 C4.884999999999991 8 3.8950000000000102 8 2.875 8 C2.2150000000000034 6.68 1.5550000000000068 5.359999999999999 0.875 4 C-1.510273295805149 3.8718463513424837 -1.510273295805149 3.8718463513424837 -4.125 5 C-8.584157519567867 11.819887971103782 -8.774177329915318 17.998346274188776 -8.875 26 C-8.904648437499986 27.156289062500008 -8.934296875000001 28.312578125 -8.96484375 29.50390625 C-9.035061089847432 32.336005623846006 -9.087996323088646 35.16730473299356 -9.125 38 C-12.305653575842257 34.81934642415774 -11.420271217492001 31.21373749765074 -11.447265625 26.875 C-11.444042968750011 25.678750000000008 -11.440820312499994 24.4825 -11.4375 23.25 C-11.45361328125 22.069218750000005 -11.4697265625 20.888437499999995 -11.486328125 19.671875 C-11.490534401813989 12.201527378352552 -11.14026296899749 7.178250156510863 -5.8125 1.5625 C-3.125 0 -3.125 0 0 0 Z " fill="none" transform="translate(237.125,40)"/>
<path stroke="#60a5fa" stroke-width="1.5" stroke-linecap="round" d="M0 0 C2.5 0.125 2.5 0.125 3.5 1.125 C3.571799639796808 2.644280378100291 3.5839200729943457 4.1666748174006045 3.5625 5.6875 C3.553476562500009 6.5137890624999955 3.5444531249999898 7.340078124999991 3.53515625 8.19140625 C3.5235546874999955 8.829492187499994 3.511953124999991 9.467578124999989 3.5 10.125 C2.509999999999991 10.620000000000005 2.509999999999991 10.620000000000005 1.5 11.125 C1.1699999999999875 10.465000000000003 0.8400000000000034 9.805000000000007 0.5 9.125 C-1.5246325508964844 8.47286708295664 -1.5246325508964844 8.47286708295664 -3.5 8.125 C-3.5 9.115000000000009 -3.5 10.10499999999999 -3.5 11.125 C-2.8400000000000034 11.455000000000013 -2.180000000000007 11.784999999999997 -1.5 12.125 C-1.1700000000000017 11.134999999999991 -0.8400000000000034 10.14500000000001 -0.5 9.125 C-0.1700000000000017 10.444999999999993 0.1599999999999966 11.764999999999986 0.5 13.125 C-0.1599999999999966 13.125 -0.8199999999999932 13.125 -1.5 13.125 C-1.5 13.784999999999997 -1.5 14.444999999999993 -1.5 15.125 C-2.489999999999995 15.125 -3.480000000000004 15.125 -4.5 15.125 C-4.829999999999998 14.465000000000003 -5.159999999999997 13.805000000000007 -5.5 13.125 C-6.159999999999997 13.125 -6.819999999999993 13.125 -7.5 13.125 C-8.3125 9.9375 -8.3125 9.9375 -8.5 6.125 C-6.125 3.25 -6.125 3.25 -3.5 1.125 C-2.5 0.125 -2.5 0.125 0 0 Z " fill="none" transform="translate(127.5,137.875)"/>
<path stroke="#60a5fa" stroke-width="1.5" stroke-linecap="round" d="M0 0 C0 3 0 3 -1.73046875 4.91015625 C-8.595314420494105 10.923717401736496 -15.705285693408882 16.52402205169176 -23 22 C-23.74507812500002 22.590390624999998 -24.490156249999984 23.180781249999995 -25.2578125 23.7890625 C-27 25 -27 25 -29 25 C-28.638095902807095 22.33825373677456 -28.188456780810384 21.184268852347913 -26.2421875 19.28125 C-25.461015625000016 18.693437500000016 -24.679843749999975 18.105625000000003 -23.875 17.5 C-22.984257812500005 16.8180859375 -22.09351562500001 16.136171875000002 -21.17578125 15.43359375 C-20.67643066406248 15.054448242187505 -20.177080078125016 14.675302734375009 -19.66259765625 14.28466796875 C-17.785785977645446 12.83447956158156 -15.944811738307862 11.34506721657317 -14.10546875 9.84765625 C-13.103142089843743 9.033613281250013 -13.103142089843743 9.033613281250013 -12.08056640625 8.203125 C-10.749055806722936 7.120648441952341 -9.419262593258907 6.036055513531693 -8.09130859375 4.94921875 C-7.474653320312484 4.45164062500001 -6.857998046875025 3.954062499999992 -6.22265625 3.44140625 C-5.673596191406261 2.9948266601562636 -5.124536132812523 2.548247070312499 -4.558837890625 2.088134765625 C-3 1 -3 1 0 0 Z " fill="none" transform="translate(329,143)"/>
<path stroke="#60a5fa" stroke-width="1.5" stroke-linecap="round" d="M0 0 C0.3299999999999841 0 0.660000000000025 0 1 0 C1 6.930000000000007 1 13.860000000000014 1 21 C1.660000000000025 21 2.319999999999993 21 3 21 C3 20.340000000000003 3 19.680000000000007 3 19 C4.319999999999993 19.329999999999984 5.639999999999986 19.659999999999997 7 20 C6.670000000000016 20.659999999999997 6.339999999999975 21.319999999999993 6 22 C6.990000000000009 21.670000000000016 7.980000000000018 21.340000000000003 9 21 C9 21.99000000000001 9 22.97999999999999 9 24 C6 26 6 26 1 25 C1 29.620000000000005 1 34.24000000000001 1 39 C0.6700000000000159 39 0.339999999999975 39 0 39 C-0.9564207329441388 34.97723931044206 -1.128947446039092 31.21965390722704 -1.1328125 27.08984375 C-1.1347460937499818 25.110810546875 -1.1347460937499818 25.110810546875 -1.13671875 23.091796875 C-1.1346240234374818 22.40980224609376 -1.1325292968750205 21.727807617187494 -1.13037109375 21.025146484375 C-1.1250077666036304 18.940518737621204 -1.1303355029214686 16.856105565142514 -1.13671875 14.771484375 C-1.1347851562500182 12.794384765625011 -1.1347851562500182 12.794384765625011 -1.1328125 10.77734375 C-1.1316845703124727 9.573278808593756 -1.1305566406250023 8.369213867187511 -1.12939453125 7.128662109375 C-1.0226539197644797 4.547754682607547 -0.763972585543911 2.449340111647075 0 0 Z " fill="none" transform="translate(389,190)"/>
<path stroke="#60a5fa" stroke-width="1.5" stroke-linecap="round" d="M0 0 C0.3300000000000125 0 0.6599999999999966 0 1 0 C1.024698495220008 3.9509992815008843 1.0428592298374895 7.901968741217118 1.054931640625 11.85302734375 C1.062440356293763 13.859065510479724 1.075144704936207 15.865082023038013 1.087890625 17.87109375 C1.0911132812499886 19.1279296875 1.0943359375000057 20.384765625 1.09765625 21.6796875 C1.1028930664062386 22.842260742187506 1.1081298828125057 24.004833984374997 1.113525390625 25.20263671875 C1 28 1 28 0 30 C-1.890625 30.5625 -1.890625 30.5625 -4.25 31 C-7.689644156930058 31.69122035689503 -10.78713062928955 32.549026735808184 -14 34 C-14 33.00999999999999 -14 32.02000000000001 -14 31 C-12.585218648084549 30.350047028500384 -11.168085126980799 29.70521277529292 -9.75 29.0625 C-8.961093750000003 28.7028515625 -8.172187500000007 28.343203125000002 -7.359375 27.97265625 C-5 27 -5 27 -1 26 C-0.6699999999999875 17.42 -0.3400000000000034 8.840000000000003 0 0 Z " fill="none" transform="translate(225,53)"/>
<path stroke="#60a5fa" stroke-width="1.5" stroke-linecap="round" d="M0 0 C3.3333333333333144 0 6.666666666666686 0 10 0 C9.771399415341136 1.4618405808448358 9.51629607902504 2.919554188776857 9.25 4.375 C9.110781250000002 5.187109375000006 8.971562500000005 5.999218750000011 8.828125 6.8359375 C8 9 8 9 5.921875 10.2890625 C4.970546875000025 10.640976562499986 4.970546875000025 10.640976562499986 4 11 C3.5462499999999864 9.88624999999999 3.0924999999999727 8.772500000000008 2.625 7.625 C1.2753401361844112 4.038009917789765 1.2753401361844112 4.038009917789765 -1 2 C-0.6700000000000159 1.3400000000000034 -0.339999999999975 0.6800000000000068 0 0 Z " fill="none" transform="translate(328,141)"/>
<path stroke="#60a5fa" stroke-width="1.5" stroke-linecap="round" d="M0 0 C0 0.6599999999999966 0 1.3199999999999932 0 2 C0.660000000000025 2 1.3199999999999932 2 2 2 C2 10.909999999999997 2 19.819999999999993 2 29 C1.670000000000016 29 1.339999999999975 29 1 29 C0.9801806640625159 28.344028320312503 0.960361328124975 27.688056640625007 0.93994140625 27.01220703125 C0.8448749273766794 24.049389311226548 0.7351224788471882 21.087294680990027 0.625 18.125 C0.5940625000000068 17.092460937499993 0.5631250000000136 16.059921874999986 0.53125 14.99609375 C0.49257812500002274 14.009960937500011 0.45390624999998863 13.023828124999994 0.4140625 12.0078125 C0.38264160156251137 11.096606445312489 0.35122070312502274 10.185400390625006 0.31884765625 9.24658203125 C0.2011748868770269 6.800688139599174 0.2011748868770269 6.800688139599174 -2 5 C-2.660000000000025 7.310000000000002 -3.319999999999993 9.620000000000005 -4 12 C-4.990000000000009 11.669999999999987 -5.980000000000018 11.340000000000003 -7 11 C-6.339999999999975 11 -5.680000000000007 11 -5 11 C-5.061874999999986 9.741874999999993 -5.123749999999973 8.483749999999986 -5.1875 7.1875 C-5.1944110094688085 3.282779650136405 -5.1944110094688085 3.282779650136405 -3.625 1 C-2 0 -2 0 0 0 Z " fill="none" transform="translate(386,191)"/>
<path stroke="#60a5fa" stroke-width="1.5" stroke-linecap="round" d="M0 0 C0.6599999999999966 0 1.3199999999999932 0 2 0 C1.9883984374999955 0.9036328125000068 1.9767968750000051 1.8072656250000136 1.96484375 2.73828125 C1.9558203124999949 3.9177734374999886 1.946796875000004 5.097265625000006 1.9375 6.3125 C1.9258984374999955 7.4842578125000045 1.9142968750000051 8.656015625000009 1.90234375 9.86328125 C1.8510010223002524 13.030591950178092 1.8510010223002524 13.030591950178092 3 16 C2.8398887897290876 18.701231063602734 2.395593921627949 21.31875230896611 2 24 C1.0100000000000051 23.670000000000016 0.01999999999999602 23.340000000000003 -1 23 C-1.0289454713698092 19.54168414372384 -1.0467800032830326 16.083399277732724 -1.0625 12.625 C-1.0708789062500017 11.64015624999999 -1.0792578125000034 10.655312500000008 -1.087890625 9.640625 C-1.0911132812500028 8.699609374999994 -1.0943359375000057 7.758593749999989 -1.09765625 6.7890625 C-1.1028930664062528 5.919750976562511 -1.1081298828125057 5.050439453124994 -1.113525390625 4.15478515625 C-1 2 -1 2 0 0 Z " fill="none" transform="translate(104,195)"/>
<path stroke="#60a5fa" stroke-width="1.5" stroke-linecap="round" d="M0 0 C0.9900000000000091 0 1.9799999999999898 0 3 0 C4.2315963986699785 1.5232902825654975 5.4610509186495335 3.0486600012949765 6.66015625 4.59765625 C8.554247091329557 6.580101183053387 10.32114968248078 6.846922838998907 13 7 C13 4.689999999999998 13 2.3799999999999955 13 0 C13.330000000000013 0 13.659999999999997 0 14 0 C14.194121805887448 1.4783122140660225 14.380121309584752 2.957693157516772 14.5625 4.4375 C14.666914062500013 5.261210937499996 14.771328124999997 6.084921875000006 14.87890625 6.93359375 C14.918867187500013 7.615507812499999 14.958828124999997 8.297421874999998 15 9 C14 10 14 10 11.3125 10.375 C6.846123578538226 9.869372480589234 5.106151034128828 8.176745375813567 2 5 C0.625 2.1875 0.625 2.1875 0 0 Z " fill="none" transform="translate(216,104)"/>
<path stroke="#60a5fa" stroke-width="1.5" stroke-linecap="round" d="M0 0 C1.3199999999999932 0.6599999999999966 2.6400000000000006 1.3199999999999932 4 2 C3.6700000000000017 3.9799999999999898 3.3400000000000034 5.960000000000008 3 8 C3.6599999999999966 8.330000000000013 4.319999999999993 8.659999999999997 5 9 C5.329999999999998 8.009999999999991 5.659999999999997 7.02000000000001 6 6 C6.329999999999998 7.319999999999993 6.659999999999997 8.639999999999986 7 10 C6.340000000000003 10 5.680000000000007 10 5 10 C5 10.659999999999997 5 11.319999999999993 5 12 C4.010000000000005 12 3.019999999999996 12 2 12 C1.6700000000000017 11.340000000000003 1.3400000000000034 10.680000000000007 1 10 C0.3400000000000034 10 -0.3199999999999932 10 -1 10 C-2.25 3.375 -2.25 3.375 0 0 Z " fill="none" transform="translate(121,141)"/>
<path stroke="#60a5fa" stroke-width="1.5" stroke-linecap="round" d="M0 0 C3.347750903848919 1.068431139526254 4.312021186230339 1.867151129546187 5.9375 4.9375 C5.9375 5.927500000000002 5.9375 6.917500000000004 5.9375 7.9375 C4.947499999999991 7.9375 3.9575000000000102 7.9375 2.9375 7.9375 C2.2775000000000034 6.6175 1.6175000000000068 5.297499999999999 0.9375 3.9375 C-2.7500475725140063 4.435817239528923 -4.667406616969544 5.038176431068379 -7.0625 7.9375 C-7.722499999999997 7.607500000000002 -8.382499999999993 7.277500000000003 -9.0625 6.9375 C-7.172002302748098 2.3687972316412527 -5.154764471363677 -0.10519927492578773 0 0 Z " fill="none" transform="translate(237.0625,40.0625)"/>
<path stroke="#60a5fa" stroke-width="1.5" stroke-linecap="round" d="M0 0 C3 1 3 1 5 4 C5.257602792961052 6.694525214372732 5.089000532849866 9.28548374807957 5 12 C4.009999999999991 12.495000000000005 4.009999999999991 12.495000000000005 3 13 C3 10.360000000000014 3 7.719999999999999 3 5 C2.773124999999993 5.804374999999993 2.5462499999999864 6.608749999999986 2.3125 7.4375 C1.6628124999999727 8.705937500000005 1.6628124999999727 8.705937500000005 1 10 C-1.625 10.8125 -1.625 10.8125 -4 11 C-3.6875 8.625 -3.6875 8.625 -3 6 C-2.009999999999991 5.340000000000003 -1.0199999999999818 4.680000000000007 0 4 C0 2.680000000000007 0 1.3600000000000136 0 0 Z " fill="none" transform="translate(342,139)"/>
<path stroke="#60a5fa" stroke-width="1.5" stroke-linecap="round" d="M0 0 C3.570879934663708 -0.25506285247598726 5.547104055257989 -0.26331159578023744 8.6875 1.5625 C13.546325872796558 3.6710470768739754 17.859011924603237 2.759256246010551 23 2 C23 2.3300000000000125 23 2.6599999999999966 23 3 C21.350000000000023 3 19.69999999999999 3 18 3 C17.670000000000016 3.990000000000009 17.339999999999975 4.97999999999999 17 6 C16.00999999999999 6.3300000000000125 15.019999999999982 6.659999999999997 14 7 C14 6.340000000000003 14 5.680000000000007 14 5 C13.175000000000011 5.08250000000001 12.350000000000023 5.164999999999992 11.5 5.25 C6.986961525939364 4.927640108995661 3.8820494428379675 3.2070534903444354 0 1 C0 0.6699999999999875 0 0.3400000000000034 0 0 Z " fill="none" transform="translate(319,136)"/>
<path stroke="#60a5fa" stroke-width="1.5" stroke-linecap="round" d="M0 0 C0.3299999999999841 0 0.660000000000025 0 1 0 C1.1237499999999727 0.8043749999999932 1.2475000000000023 1.6087499999999864 1.375 2.4375 C1.6843749999999886 3.7059375000000045 1.6843749999999886 3.7059375000000045 2 5 C2.660000000000025 5.3300000000000125 3.319999999999993 5.659999999999997 4 6 C4 5.340000000000003 4 4.680000000000007 4 4 C4.660000000000025 4.3300000000000125 5.319999999999993 4.659999999999997 6 5 C5.670000000000016 5.990000000000009 5.339999999999975 6.97999999999999 5 8 C6.980000000000018 8 8.95999999999998 8 11 8 C11.329999999999984 7.009999999999991 11.660000000000025 6.02000000000001 12 5 C14.310000000000002 5 16.620000000000005 5 19 5 C16.78770401131908 7.544140386983088 15.348733294803594 8.547468473675195 12 9 C3.3799301048427424 9.568746879680475 3.3799301048427424 9.568746879680475 0 7 C-1.0444991081527064 3.866502675541909 -0.9342364456992982 3.0103174361421736 0 0 Z " fill="none" transform="translate(390,238)"/>
<path stroke="#60a5fa" stroke-width="1.5" stroke-linecap="round" d="M0 0 C0.3299999999999841 0 0.660000000000025 0 1 0 C1.7013076013073487 6.592291452289203 -0.5039781414755566 10.493765572823975 -4 16 C-5.319999999999993 15.669999999999987 -6.639999999999986 15.340000000000003 -8 15 C-7.6738671874999795 14.503710937499989 -7.347734375000016 14.007421875000006 -7.01171875 13.49609375 C-4.19308521317123 9.114324210446142 -1.9174558621648998 4.84409902020613 0 0 Z " fill="none" transform="translate(408,192)"/>
<path stroke="#60a5fa" stroke-width="1.5" stroke-linecap="round" d="M0 0 C-1.875 3.875 -1.875 3.875 -3 5 C-3.23075082071108 6.34747084193026 -3.4115306277584523 7.703775649825872 -3.5625 9.0625 C-3.779062500000009 11.011562499999997 -3.779062500000009 11.011562499999997 -4 13 C-4.660000000000025 13 -5.319999999999993 13 -6 13 C-7.5643024761305355 9.871395047738986 -7.356272836462779 7.443970752473291 -7 4 C-3.102564102564088 0 -3.102564102564088 0 0 0 Z " fill="none" transform="translate(385,189)"/>
<path stroke="#60a5fa" stroke-width="1.5" stroke-linecap="round" d="M0 0 C1.2258984375000068 0.013535156249986358 1.2258984375000068 0.013535156249986358 2.4765625 0.02734375 C3.416289062499999 0.04474609375000682 3.416289062499999 0.04474609375000682 4.375 0.0625 C4.045000000000002 1.052500000000009 3.7150000000000034 2.0424999999999898 3.375 3.0625 C0.7349999999999994 3.0625 -1.9050000000000011 3.0625 -4.625 3.0625 C-4.625 4.052500000000009 -4.625 5.04249999999999 -4.625 6.0625 C-5.614999999999995 6.0625 -6.605000000000004 6.0625 -7.625 6.0625 C-7.25 3.625 -7.25 3.625 -6.625 1.0625 C-4.2195436193276805 -0.14022819033615974 -2.675030472951761 -0.0382147210421806 0 0 Z " fill="none" transform="translate(98.625,218.9375)"/>
<path stroke="#60a5fa" stroke-width="1.5" stroke-linecap="round" d="M0 0 C0.6599999999999966 0.9900000000000091 1.3199999999999932 1.9799999999999898 2 3 C4.059251391228727 3.723824668694334 4.059251391228727 3.723824668694334 6 4 C5.670000000000002 4.990000000000009 5.340000000000003 5.97999999999999 5 7 C4.010000000000005 7 3.019999999999996 7 2 7 C2 8.650000000000006 2 10.300000000000011 2 12 C-0.0625 9.8125 -0.0625 9.8125 -2 7 C-1.806543779443814 4.2271275053612385 -1.2345722310464282 2.4691444620928564 0 0 Z " fill="none" transform="translate(104,216)"/>
<path stroke="#60a5fa" stroke-width="1.5" stroke-linecap="round" d="M0 0 C0.9900000000000091 0.3300000000000125 1.9800000000000182 0.6599999999999966 3 1 C4.201665061753943 5.926826753191165 3.768698132527504 9.252441854794597 2 14 C1.009999999999991 14.495000000000005 1.009999999999991 14.495000000000005 0 15 C0 10 0 5 0 0 Z " fill="none" transform="translate(408,186)"/>
<path stroke="#60a5fa" stroke-width="1.5" stroke-linecap="round" d="M0 0 C0.9900000000000091 0 1.9800000000000182 0 3 0 C3.329999999999984 0.6599999999999966 3.660000000000025 1.3199999999999932 4 2 C4.990000000000009 1.6699999999999875 5.980000000000018 1.3400000000000034 7 1 C6.670000000000016 1.8868750000000034 6.339999999999975 2.773750000000007 6 3.6875 C4.857107206746548 6.852382754987389 4.857107206746548 6.852382754987389 5.0625 9.6875 C5 12 5 12 3.5 13.8125 C3.0049999999999955 14.204374999999999 2.509999999999991 14.596249999999998 2 15 C1.339999999999975 14.669999999999987 0.6800000000000068 14.340000000000003 0 14 C0.660000000000025 13.340000000000003 1.3199999999999932 12.680000000000007 2 12 C2.4538463593492565 5.682926729110022 2.4538463593492565 5.682926729110022 0 0 Z " fill="none" transform="translate(344,139)"/>
<path stroke="#60a5fa" stroke-width="1.5" stroke-linecap="round" d="M0 0 C-1.2781805138053244 2.556361027610663 -2.1704494378265338 2.626263158858748 -4.8125 3.5625 C-5.843105468749997 3.9356835937499994 -5.843105468749997 3.9356835937499994 -6.89453125 4.31640625 C-8.91491988563871 4.972376586246341 -10.933195140935624 5.51232694336683 -13 6 C-13 5.010000000000005 -13 4.019999999999996 -13 3 C-8.445738157932908 0.33409062903389497 -5.26053036939399 -0.3156318221636383 0 0 Z " fill="none" transform="translate(224,81)"/>
<path stroke="#60a5fa" stroke-width="1.5" stroke-linecap="round" d="M0 0 C0.9900000000000091 0 1.9800000000000182 0 3 0 C5.592275179998069 4.860515962496407 5.186895526496414 9.652711325240773 5 15 C4.670000000000016 15 4.339999999999975 15 4 15 C3.5049999999999955 12.525000000000006 3.5049999999999955 12.525000000000006 3 10 C2.670000000000016 10 2.339999999999975 10 2 10 C1.009999999999991 5.050000000000011 1.009999999999991 5.050000000000011 0 0 Z " fill="none" transform="translate(418,217)"/>
<path stroke="#60a5fa" stroke-width="1.5" stroke-linecap="round" d="M0 0 C0.3299999999999983 0 0.6599999999999966 0 1 0 C1.3382016554382687 1.5823006022290258 1.6703593921491517 3.1658937456056435 2 4.75 C2.1856250000000017 5.6317187500000045 2.3712500000000034 6.513437500000009 2.5625 7.421875 C3 10 3 10 3 14 C-0.29999999999999716 13.669999999999987 -3.5999999999999943 13.340000000000003 -7 13 C-7 12.669999999999987 -7 12.340000000000003 -7 12 C-6.051249999999996 11.855625000000003 -5.102500000000006 11.711250000000007 -4.125 11.5625 C-1.1065505977797017 11.170646009008607 -1.1065505977797017 11.170646009008607 1 10 C0.6700000000000017 6.699999999999989 0.3400000000000034 3.4000000000000057 0 0 Z " fill="none" transform="translate(121,208)"/>
<path stroke="#60a5fa" stroke-width="1.5" stroke-linecap="round" d="M0 0 C0.9899999999999949 0.3300000000000125 1.980000000000004 0.6599999999999966 3 1 C3 3.6399999999999864 3 6.280000000000001 3 9 C2.3400000000000034 9 1.6800000000000068 9 1 9 C0.6700000000000017 9.659999999999997 0.3400000000000034 10.319999999999993 0 11 C0 7.3700000000000045 0 3.740000000000009 0 0 Z " fill="none" transform="translate(105,199)"/>
<path stroke="#60a5fa" stroke-width="1.5" stroke-linecap="round" d="M0 0 C1.3199999999999932 0.3300000000000125 2.6399999999999864 0.6599999999999966 4 1 C1.4221515364900483 3.6475200436048 -0.9164809768149667 5.944320651209949 -4 8 C-3.670000000000016 6.349999999999994 -3.339999999999975 4.699999999999989 -3 3 C-2.339999999999975 3 -1.6800000000000068 3 -1 3 C-0.6700000000000159 2.009999999999991 -0.339999999999975 1.0200000000000102 0 0 Z " fill="none" transform="translate(317,147)"/>
<path stroke="#60a5fa" stroke-width="1.5" stroke-linecap="round" d="M0 0 C0.3300000000000125 0 0.6599999999999966 0 1 0 C1.1941218058874483 1.4783122140660225 1.3801213095847515 2.957693157516772 1.5625 4.4375 C1.6669140625000125 5.261210937499996 1.7713281249999966 6.084921875000006 1.87890625 6.93359375 C1.9188671875000125 7.615507812499999 1.9588281249999966 8.297421874999998 2 9 C1 10 1 10 -2.0625 10.0625 C-3.0318750000000136 10.041875000000005 -4.001249999999999 10.021249999999995 -5 10 C-4.340000000000003 9.010000000000005 -3.680000000000007 8.019999999999996 -3 7 C-2.009999999999991 7 -1.0200000000000102 7 0 7 C0 4.689999999999998 0 2.3799999999999955 0 0 Z " fill="none" transform="translate(229,104)"/>
<path stroke="#60a5fa" stroke-width="1.5" stroke-linecap="round" d="M0 0 C0.6599999999999966 0.3299999999999983 1.3199999999999932 0.6599999999999966 2 1 C2 1.6599999999999966 2 2.319999999999993 2 3 C2.990000000000009 3.3299999999999983 3.9799999999999898 3.6599999999999966 5 4 C5 4.659999999999997 5 5.319999999999993 5 6 C2.3600000000000136 5.670000000000002 -0.28000000000000114 5.340000000000003 -3 5 C-2.625 3.0625 -2.625 3.0625 -2 1 C-1.3400000000000034 0.6700000000000017 -0.6800000000000068 0.3400000000000034 0 0 Z " fill="none" transform="translate(240,72)"/>
<path stroke="#60a5fa" stroke-width="1.5" stroke-linecap="round" d="M0 0 C1.6499999999999773 0.3300000000000125 3.3000000000000114 0.6599999999999966 5 1 C0.25 5.875 0.25 5.875 -2 7 C-2.660000000000025 6.340000000000003 -3.319999999999993 5.680000000000007 -4 5 C-3.339999999999975 4.360624999999999 -2.680000000000007 3.7212499999999977 -2 3.0625 C0.11602430601226388 1.3591768066982013 0.11602430601226388 1.3591768066982013 0 0 Z " fill="none" transform="translate(381,185)"/>
<path stroke="#60a5fa" stroke-width="1.5" stroke-linecap="round" d="M0 0 C0.5981250000000102 0.22687499999999972 1.196249999999992 0.45374999999999943 1.8125 0.6875 C-1.0402613689914233 3.6195047403522906 -3.8382978441240994 6.330654038457702 -7.1875 8.6875 C-4.492378048780495 -0.6417682926829258 -4.492378048780495 -0.6417682926829258 0 0 Z " fill="none" transform="translate(236.1875,43.3125)"/>
<path stroke="#60a5fa" stroke-width="1.5" stroke-linecap="round" d="M0 0 C1.6499999999999773 0 3.3000000000000114 0 5 0 C5.329999999999984 1.3199999999999932 5.660000000000025 2.6399999999999864 6 4 C4.680000000000007 4.3300000000000125 3.3600000000000136 4.659999999999997 2 5 C1.339999999999975 3.3499999999999943 0.6800000000000068 1.6999999999999886 0 0 Z " fill="none" transform="translate(337,139)"/>
<path stroke="#60a5fa" stroke-width="1.5" stroke-linecap="round" d="M0 0 C1.3199999999999932 0.6599999999999966 2.6399999999999864 1.3199999999999932 4 2 C2.8482664479834625 4.468000468606817 1.9521643451747082 6.047835654825292 0 8 C-0.9900000000000091 7.6699999999999875 -1.9800000000000182 7.340000000000003 -3 7 C-2.5049999999999955 6.216250000000002 -2.009999999999991 5.4325000000000045 -1.5 4.625 C0.16537964611893585 2.2144767285604985 0.16537964611893585 2.2144767285604985 0 0 Z " fill="none" transform="translate(324,139)"/>
<path stroke="#60a5fa" stroke-width="1.5" stroke-linecap="round" d="M0 0 C5.75 1.875 5.75 1.875 8 3 C8 3.6599999999999966 8 4.319999999999993 8 5 C2.25 4.125 2.25 4.125 0 3 C0 2.010000000000005 0 1.019999999999996 0 0 Z " fill="none" transform="translate(290,120)"/>
<path stroke="#60a5fa" stroke-width="1.5" stroke-linecap="round" d="M0 0 C0 0.9900000000000091 0 1.9799999999999898 0 3 C-2.5 5.1875 -2.5 5.1875 -5 7 C-5.660000000000025 6.6699999999999875 -6.319999999999993 6.340000000000003 -7 6 C-3.375 1.125 -3.375 1.125 0 0 Z " fill="none" transform="translate(329,143)"/>
<path stroke="#60a5fa" stroke-width="1.5" stroke-linecap="round" d="M0 0 C6.625 -0.25 6.625 -0.25 10 2 C10 2.989999999999995 10 3.980000000000004 10 5 C7 5 7 5 5.5625 3.625 C5.046875 3.0887500000000045 4.53125 2.552499999999995 4 2 C1.9001034791604354 0.824252890665278 1.9001034791604354 0.824252890665278 0 0 Z " fill="none" transform="translate(236,77)"/>
<path stroke="#60a5fa" stroke-width="1.5" stroke-linecap="round" d="M0 0 C3.299999999999997 0.3300000000000125 6.599999999999994 0.6599999999999966 10 1 C5.783708662979649 3.1081456685101614 3.6020922489686455 3.1770035480372485 -1 3 C-0.6700000000000017 2.009999999999991 -0.3400000000000034 1.0200000000000102 0 0 Z " fill="none" transform="translate(110,220)"/>
<path stroke="#60a5fa" stroke-width="1.5" stroke-linecap="round" d="M0 0 C2 1 2 1 4 3 C4.36933644590232 5.753729089301316 4.183366779895778 8.203656606589078 4 11 C3.670000000000016 11 3.339999999999975 11 3 11 C3 9.349999999999994 3 7.699999999999989 3 6 C2.009999999999991 6.3300000000000125 1.0199999999999818 6.659999999999997 0 7 C0 4.689999999999998 0 2.3799999999999955 0 0 Z " fill="none" transform="translate(402,188)"/>
<path stroke="#60a5fa" stroke-width="1.5" stroke-linecap="round" d="M0 0 C3.949256802502589 0.5510590887213027 7.349201737019655 1.3893537075086897 11 3 C10.670000000000016 3.6599999999999966 10.339999999999975 4.319999999999993 10 5 C6.087882668790826 3.844147152142739 3.125495902217608 2.644650378799497 0 0 Z " fill="none" transform="translate(313,130)"/>
<path stroke="#60a5fa" stroke-width="1.5" stroke-linecap="round" d="M0 0 C2.3100000000000023 0 4.6200000000000045 0 7 0 C5.8125 1.5 5.8125 1.5 4 3 C1.3125 3.1875 1.3125 3.1875 -1 3 C-0.6700000000000159 2.009999999999991 -0.339999999999975 1.0200000000000102 0 0 Z " fill="none" transform="translate(402,243)"/>
<path stroke="#60a5fa" stroke-width="1.5" stroke-linecap="round" d="M0 0 C-1.1245172717076457 2.971938503798839 -2.2229379142094103 5.334406871314144 -4 8 C-4.6875 5.6875 -4.6875 5.6875 -5 3 C-3.400833263646007 0.7916268878920789 -2.769665155738437 0 0 0 Z " fill="none" transform="translate(338,141)"/>
<path stroke="#60a5fa" stroke-width="1.5" stroke-linecap="round" d="M0 0 C0.3299999999999841 1.3199999999999932 0.660000000000025 2.6399999999999864 1 4 C-0.6499999999999773 4.659999999999997 -2.3000000000000114 5.319999999999993 -4 6 C-3.6875 4.125 -3.6875 4.125 -3 2 C-2.009999999999991 1.3400000000000034 -1.0199999999999818 0.6800000000000068 0 0 Z " fill="none" transform="translate(342,143)"/>
<path stroke="#60a5fa" stroke-width="1.5" stroke-linecap="round" d="M0 0 C2.4749999999999943 0.49500000000000455 2.4749999999999943 0.49500000000000455 5 1 C4.670000000000002 2.319999999999993 4.340000000000003 3.6399999999999864 4 5 C3.010000000000005 5 2.019999999999996 5 1 5 C0.6700000000000017 5.659999999999997 0.3400000000000034 6.319999999999993 0 7 C0.1856250000000017 6.216250000000002 0.3712500000000034 5.4325000000000045 0.5625 4.625 C1.2596226634268817 2.029102245457892 1.2596226634268817 2.029102245457892 0 0 Z " fill="none" transform="translate(123,141)"/>
<path stroke="#60a5fa" stroke-width="1.5" stroke-linecap="round" d="M0 0 C2.3100000000000023 0.6599999999999966 4.6200000000000045 1.3199999999999932 7 2 C4.36095629312959 3.4137734143948677 1.9287937104616901 4.372401347758213 -1 5 C-1.3300000000000125 4.010000000000005 -1.6599999999999966 3.019999999999996 -2 2 C-1.3400000000000034 2 -0.6800000000000068 2 0 2 C0 1.3400000000000034 0 0.6800000000000068 0 0 Z " fill="none" transform="translate(222,112)"/>
<path stroke="#60a5fa" stroke-width="1.5" stroke-linecap="round" d="M0 0 C0.3300000000000125 0 0.6599999999999966 0 1 0 C1.0270042984610654 1.4582321168982304 1.0463978663683235 2.9166067539304095 1.0625 4.375 C1.0741015625000045 5.187109375000006 1.085703125000009 5.999218749999997 1.09765625 6.8359375 C1 9 1 9 0 11 C-2.4749999999999943 10.010000000000005 -2.4749999999999943 10.010000000000005 -5 9 C-4.0409375000000125 8.721562500000005 -4.0409375000000125 8.721562500000005 -3.0625 8.4375 C-0.5787378693986511 7.057539436612217 -0.5787378693986511 7.057539436612217 -0.25 3.375 C-0.16749999999998977 2.261250000000004 -0.08500000000000796 1.1474999999999937 0 0 Z " fill="none" transform="translate(225,72)"/>
<path stroke="#60a5fa" stroke-width="1.5" stroke-linecap="round" d="M0 0 C0.660000000000025 0.6599999999999966 1.3199999999999932 1.3199999999999932 2 2 C0.1875 3.5625 0.1875 3.5625 -2 5 C-2.990000000000009 4.6699999999999875 -3.980000000000018 4.340000000000003 -5 4 C-3.3658755691608917 2.2915971859409012 -2.130939063649407 1.0654695318247036 0 0 Z " fill="none" transform="translate(397,211)"/>
<path stroke="#60a5fa" stroke-width="1.5" stroke-linecap="round" d="M0 0 C0.3299999999999841 0 0.660000000000025 0 1 0 C1 2.3100000000000023 1 4.6200000000000045 1 7 C0.009999999999990905 7.3300000000000125 -0.9800000000000182 7.659999999999997 -2 8 C-1.125 2.25 -1.125 2.25 0 0 Z " fill="none" transform="translate(408,192)"/>
<path stroke="#60a5fa" stroke-width="1.5" stroke-linecap="round" d="M0 0 C0.6599999999999966 0.3300000000000125 1.3199999999999932 0.6599999999999966 2 1 C2 1.990000000000009 2 2.9799999999999898 2 4 C1.3400000000000034 4 0.6800000000000068 4 0 4 C0 4.659999999999997 0 5.319999999999993 0 6 C-0.9899999999999949 6 -1.980000000000004 6 -3 6 C-2.6700000000000017 4.680000000000007 -2.3400000000000034 3.3600000000000136 -2 2 C-1.3400000000000034 2.3300000000000125 -0.6800000000000068 2.6599999999999966 0 3 C0 2.009999999999991 0 1.0200000000000102 0 0 Z " fill="none" transform="translate(126,147)"/>

  </g>
</svg>