<svg xmlns="http://www.w3.org/2000/svg" viewBox="0 0 24 24" fill="none" stroke="currentColor" stroke-width="2" stroke-linecap="round" stroke-linejoin="round"><path d="M12 2a10 10 0 0 0-10 10c0 5.523 4.477 10 10 10 2.22 0 4.02-1.78 4.02-4 0-1.11-.45-2.11-1.17-2.83-.72-.72-1.17-1.72-1.17-2.83 0-2.22 1.8-4 4.02-4h.31A3.98 3.98 0 0 0 22 12c0-5.523-4.477-10-10-10z"/><circle cx="7.5" cy="10.5" r="1.5" fill="currentColor"/><circle cx="10.5" cy="6.5" r="1.5" fill="currentColor"/><circle cx="16.5" cy="10.5" r="1.5" fill="currentColor"/></svg>