<?xml version="1.0" encoding="UTF-8"?>
<svg width="100" height="100" viewBox="0 0 100 100" fill="none" xmlns="http://www.w3.org/2000/svg">
  <g transform="translate(25, 25) scale(0.09765625)">
    
<path stroke="#4ade80" stroke-width="1.5" stroke-linecap="round" d="M0 0 C22.675439933706855 -0.6128497279380234 43.03233351584373 7.008319096570624 59.96875 22.15625 C75.75849143148844 37.47308736199293 84.48945655332909 57.58527846889626 85.05520629882813 79.50613403320313 C85.08415345277416 83.49539124989829 85.08144362871371 87.48338141866552 85.06640625 91.47265625 C85.06453760605058 92.93952892500222 85.06311581419476 94.40640223061659 85.06211853027344 95.87327575683594 C85.05832847876263 99.70530975097739 85.04852881715777 103.53730491519428 85.03741455078125 107.36932373046875 C85.02712429875965 111.291132354898 85.0226047069541 115.21294734704817 85.017578125 119.134765625 C85.00690286324982 126.80861131477815 84.9898694324948 134.4824251847345 84.96875 142.15625 C85.85135498046873 142.1431982421875 86.73395996093751 142.130146484375 87.643310546875 142.11669921875 C88.80644775390624 142.1065478515625 89.96958496093748 142.096396484375 91.16796875 142.0859375 C92.31869873046878 142.0728857421875 93.4694287109375 142.059833984375 94.655029296875 142.04638671875 C102.60556038161542 142.30997907034015 109.37646605639668 145.50304793064933 114.96875 151.15625 C119.16595411640355 157.15523156587707 121.08401477265471 162.38753648962384 121.11592102050781 169.69268798828125 C121.12665397644042 171.3827395629883 121.12665397644042 171.3827395629883 121.13760375976563 173.10693359375 C121.1402926635742 174.3391162109375 121.14298156738278 175.571298828125 121.145751953125 176.8408203125 C121.15232315063474 178.14218933105468 121.15889434814454 179.44355834960936 121.16566467285156 180.78436279296875 C121.18667773128783 185.1010210570471 121.19707251292414 189.417679514395 121.20703125 193.734375 C121.21108147171822 195.22608203010876 121.21519847188392 196.71778888035723 121.21938133239746 198.2094955444336 C121.23843618534357 205.22756586588702 121.25266001762327 212.2456257263744 121.26099330186844 219.26371693611145 C121.2707318726653 227.3300737395486 121.29696095370355 235.39615365225612 121.3374941945076 243.46241307258606 C121.36782745601266 249.71662204566434 121.38247880323922 255.97075251567412 121.38577431440353 262.2250335216522 C121.3881075765483 265.950209027858 121.39683791402263 269.6750889364931 121.4222354888916 273.40018463134766 C121.57296386373758 296.7273897233583 121.21290370389886 317.0442005160867 104.25390625 334.9375 C91.27454247578447 347.53968568163145 76.08763021864297 351.63366439230015 58.3125 351.54443359375 C56.34905639648434 351.55231903076174 56.34905639648434 351.55231903076174 54.345947265625 351.56036376953125 C50.79215961849792 351.5739078593644 47.23863656960049 351.5687929051565 43.684844970703125 351.55922651290894 C39.942884873698915 351.5515622180978 36.20094548524446 351.55869412286705 32.458984375 351.5633850097656 C26.178344595405918 351.5688230481658 19.89781109561011 351.5617025261781 13.6171875 351.54736328125 C6.384839182670248 351.53104049186186 -0.8472552966389344 351.53633039129767 -8.079597473144531 351.5528424978256 C-14.320336936207525 351.5665133362745 -20.56100056402414 351.5683498346458 -26.80175018310547 351.5605264902115 C-30.51541801152848 351.5558805607348 -34.228967042514 351.55513921672485 -37.942626953125 351.56513595581055 C-42.086900988131504 351.5755152328265 -46.230746341444785 351.5610774388427 -50.375 351.54443359375 C-51.58470458984374 351.5505062866211 -52.794409179687506 351.5565789794922 -54.040771484375 351.5628356933594 C-70.11629105746363 351.44390878888714 -84.06226314070469 346.738508240158 -95.78125 335.5078125 C-109.20945288683984 321.47347545507364 -113.50566582731355 306.37337028465873 -113.435302734375 287.1552734375 C-113.44102307333634 285.8083642605126 -113.4479936692473 284.4614599157452 -113.45610046386719 283.11456298828125 C-113.47385423916234 279.4990698072132 -113.47289871842472 275.8838216026744 -113.46715807914734 272.2682981491089 C-113.46404317318775 269.2363763391867 -113.47018332660957 266.204500053402 -113.4761968255043 263.17258477211 C-113.49017911362691 256.01833737411323 -113.48873085743384 248.86420958400106 -113.477294921875 241.7099609375 C-113.46579261075658 234.3519453462449 -113.47993894840545 226.99429336093286 -113.50669139623642 219.63632559776306 C-113.52888966662636 213.29115110695483 -113.53547731374667 206.946090444594 -113.52961498498917 200.60087990760803 C-113.52625733404875 196.82300089996875 -113.52858177570312 193.04535543588202 -113.54586601257324 189.26750946044922 C-113.5614017667252 185.7180882048501 -113.55730730360636 182.169204901416 -113.53856086730957 178.61980438232422 C-113.53315693934832 176.7096216450394 -113.54733440951017 174.7994143273849 -113.562255859375 172.8892822265625 C-113.47988757468826 163.21748267843068 -111.35161713182319 155.8762265413058 -104.73828125 148.66015625 C-98.92155611287333 143.53558147243987 -92.1599213422081 142.0285476728732 -84.57060241699219 142.03599548339844 C-83.48671737670898 142.0346208190918 -82.40283233642577 142.03324615478516 -81.28610229492188 142.03182983398438 C-80.1071841430664 142.03542510986327 -78.92826599121094 142.0390203857422 -77.713623046875 142.042724609375 C-76.46443588256835 142.04257858276367 -75.2152487182617 142.04243255615233 -73.92820739746094 142.0422821044922 C-70.51123327671382 142.04285864975515 -67.09431986131352 142.04786775770646 -63.677356481552124 142.05485606193542 C-60.10325026289962 142.0611149501203 -56.52914320207174 142.06169540591324 -52.95503234863281 142.06288146972656 C-46.19074133452847 142.06598730902925 -39.426466517096856 142.07419062718552 -32.66218262910843 142.08423095941544 C-24.959676175468758 142.09541529798244 -17.257168941122302 142.1009083966239 -9.554656386375427 142.10592639446259 C6.286488449836952 142.1163738620009 22.127617134751517 142.13395883636218 37.96875 142.15625 C37.96020398139956 141.29822973251342 37.95165796279906 140.44020946502687 37.94285297393799 139.55618858337402 C37.924230471612645 137.68648934990836 37.90561041580696 135.81679009169662 37.88703525066376 133.94709038734436 C37.85145844219147 130.36839647487162 37.81560824621204 126.78970563969386 37.779255867004395 123.21101951599121 C37.71114661352294 116.48126063572845 37.646244775795424 109.75154742540809 37.59808158874512 103.02161026000977 C37.570834189099514 99.72517140437294 37.52440892483435 96.429070361305 37.48046875 93.1328125 C37.477553253173824 92.47058685302734 37.47463775634765 91.80836120605468 37.47163391113281 91.12606811523438 C37.40725259260569 78.19545527858892 35.620241206550816 65.9755370663436 26.1875 56.3359375 C19.279481570990697 50.701938863226026 10.52365799862605 47.31671043747281 1.56640625 47.78515625 C-8.720421137917413 49.25470301970249 -16.26743961528743 53.20319822896434 -23.03125 61.15625 C-27.250999491450216 67.70950151437198 -29.13078768598774 73.7603466875081 -29.171875 81.54296875 C-29.20087890625001 83.075341796875 -29.20087890625001 83.075341796875 -29.23046875 84.638671875 C-29.264010497195045 86.75567214988631 -29.282527740571936 88.87297003070763 -29.28515625 90.990234375 C-29.474455824074 98.93583491836928 -31.158143707452638 105.59292127575603 -36.402587890625 111.77197265625 C-41.85843787895763 116.77586420916087 -48.5303146538173 118.72922162299864 -55.80078125 118.44140625 C-62.412804615507866 117.59608627507518 -67.3096387640372 114.8778612359628 -72.03125 110.15625 C-80.02935872835508 98.78513695169964 -78.28379834183033 81.5754801342721 -76.2109375 68.4140625 C-72.11855588452397 46.73314713290357 -60.31848264267873 26.899771664851492 -42.19140625 14.15234375 C-29.19015102807066 5.94017883231658 -15.37286636097113 0.792415791802636 0 0 Z M-47.28125 34.56640625 C-59.92475299880056 49.676350174702954 -65.38304955244493 66.44107450130238 -65.40625 85.90625 C-65.43074218750002 87.0032421875 -65.455234375 88.100234375 -65.48046875 89.23046875 C-65.50331901240273 95.51429091075268 -65.30146314511143 99.40623762510076 -61.03125 104.15625 C-58.06539004058993 106.48656853953648 -54.79502357218371 106.62744440989536 -51.06640625 106.55078125 C-47.41397402938634 105.84272817076395 -45.59341192128207 103.78090367545968 -43.03125 101.15625 C-41.900013554837955 98.89377710967591 -41.86527582109636 97.52254193353612 -41.78515625 95.0078125 C-41.7540576171875 94.1733056640625 -41.722958984375 93.338798828125 -41.69091796875 92.47900390625 C-41.65885253906251 91.5887451171875 -41.626787109375016 90.698486328125 -41.59375 89.78125 C-40.882942337332 74.52456081459758 -39.10743741283835 60.54714009126329 -28.46875 48.71875 C-18.696921002879265 39.946741344283524 -6.319537238701685 35.834957045202145 6.6953125 36.28515625 C18.041308020051815 37.38278310784615 29.268731184284377 41.37519405991053 36.96875 50.15625 C46.27102864702181 62.32838057003913 48.56960898125158 74.41494676157009 48.578125 89.421875 C48.59314193445118 90.95173867394676 48.60987631171696 92.48158635104396 48.62823486328125 94.01141357421875 C48.67152738339047 97.99628532768612 48.69182169162576 101.98093859817507 48.70697021484375 105.96600341796875 C48.72668041973213 110.04907959228903 48.76863366465585 114.13192443719366 48.80859375 118.21484375 C48.88348215691053 126.19527965106028 48.93196087684498 134.17554745626902 48.96875 142.15625 C56.888750000000016 142.15625 64.80875000000003 142.15625 72.96875 142.15625 C73.0597890030441 133.4361141084185 73.1328859752395 124.7163033532814 73.17599868774414 115.99579620361328 C73.19670990047643 111.94476910521658 73.22471827179754 107.89408912697503 73.2705078125 103.84326171875 C73.31456370946142 99.92042218897066 73.33801018943899 95.99791254271251 73.34825897216797 92.07484436035156 C73.35554495960656 90.59199339592689 73.36976571780235 89.10915665676666 73.39167022705078 87.62644958496094 C73.58091840864927 74.26210270082642 71.7430890418882 60.9864709358109 65.46875 48.96875 C65.13472167968746 48.31785400390625 64.80069335937503 47.6669580078125 64.45654296875 46.996337890625 C55.18194163376779 29.933316295181513 38.7479974805002 18.81740509284491 20.40625 13.28125 C-4.686536795566269 7.738266673466182 -29.762264130510857 15.800409233550688 -47.28125 34.56640625 Z M-98.34375 159.71875 C-100.85271489515108 163.3428104041071 -101.16088003797577 165.2033019597296 -101.18515014648438 169.5862579345703 C-101.19375061035157 170.73978759765626 -101.20235107421874 171.89331726074218 -101.21121215820313 173.08180236816406 C-101.21547210693359 174.3539408874512 -101.21973205566405 175.62607940673828 -101.22412109375 176.936767578125 C-101.23202216955303 178.28541271424007 -101.24029112452274 179.63405573822214 -101.2489013671875 180.98269653320313 C-101.27514513050556 185.42203751768423 -101.29044236705764 189.86138797638955 -101.3046875 194.30078125 C-101.31004830394744 195.83155510701556 -101.31542581589468 197.36232890560856 -101.32081985473633 198.89310264587402 C-101.34246186911258 205.26772780594575 -101.36119252920102 211.64235043352477 -101.3724422454834 218.0170030593872 C-101.38863735307265 227.133127405552 -101.42169097124275 236.24882247046912 -101.4788430929184 245.36478501558304 C-101.51769602606961 251.78280968991766 -101.53709362357714 258.2007203661991 -101.54236280918121 264.6188594698906 C-101.54599855538353 268.4463204015261 -101.55782604704737 272.2733237613522 -101.5904655456543 276.1006565093994 C-101.6208138307085 279.7115254518838 -101.62676458683643 283.32166656548753 -101.61508178710938 286.9326362609863 C-101.6147600445419 288.8684552607624 -101.6390526077885 290.8042311278782 -101.66445922851563 292.73988342285156 C-101.58023444873467 304.73345127684 -98.05475773446372 315.1547525168081 -90.03125 324.15625 C-89.3158203125 325.04376953125 -89.3158203125 325.04376953125 -88.5859375 325.94921875 C-80.39508278058236 335.27197550350803 -68.91885058921696 338.6752348082722 -57.03125 340.15625 C-52.90407120906923 340.4094314245938 -48.7942122476982 340.43055320548854 -44.66015625 340.4150390625 C-43.48774383544921 340.41854370117187 -42.315331420898445 340.42204833984374 -41.107391357421875 340.4256591796875 C-37.269448923006166 340.4343915565056 -33.43169399245107 340.4286574210181 -29.59375 340.421875 C-26.9043759696728 340.42322408822315 -24.215007421727876 340.4251642136707 -21.525634765625 340.42767333984375 C-15.90411382841259 340.43129640456436 -10.282645703428983 340.42655774820713 -4.6611328125 340.4169921875 C1.8077298706974716 340.40611083376297 8.276466409685213 340.4096375934762 14.745326042175293 340.4206449985504 C20.332132074727667 340.4297654722445 25.91890047180118 340.4309800333248 31.505711555480957 340.425767660141 C34.82812197423527 340.42267396349666 38.15046123609318 340.4229692711281 41.472869873046875 340.42884063720703 C45.181216996667104 340.4339568882907 48.88932666862638 340.42612420207854 52.59765625 340.4150390625 C53.67645050048827 340.41908752441407 54.755244750976544 340.42313598632813 55.866729736328125 340.42730712890625 C71.00877838429943 340.34404942624576 84.67180342381698 337.5521161663315 95.96875 326.84375 C106.6623776520563 315.0966608877969 109.42977564697117 303.01969395461117 109.372802734375 287.426513671875 C109.37851933033244 286.08488399754276 109.3854885245201 284.74325917525664 109.39360046386719 283.4016418457031 C109.41139396592371 279.7924299120772 109.41039121718734 276.1834628642548 109.40465807914734 272.57422041893005 C109.40154951253066 269.5520573512339 109.40767629706733 266.5299402059893 109.4136968255043 263.5077837109566 C109.42769171067039 256.3795799000684 109.42621978313412 249.2514961082826 109.414794921875 242.123291015625 C109.40328700274114 234.78116230170895 109.41744537371801 227.43939773443378 109.44419139623642 220.0973169207573 C109.4663554401265 213.77515925865123 109.47298514257136 207.45311588556788 109.46711498498917 201.13092213869095 C109.46374968199109 197.3626104175038 109.46613330212188 193.5945327265497 109.48336601257324 189.8262538909912 C109.50172265414346 185.63027209333598 109.48764108191301 181.43500038788983 109.470458984375 177.239013671875 C109.48012695312502 175.99681564331055 109.48979492187499 174.7546176147461 109.499755859375 173.4747772216797 C109.44494637291166 167.09274153419835 109.36002020844683 162.96216166122124 104.96875 158.15625 C100.44472891431099 154.18059510651574 96.31360646340045 154.0088122065309 90.51115417480469 154.01580810546875 C89.74511645138261 154.0128369832039 88.9790787279606 154.00986586093902 88.18982774019241 154.00680470466614 C85.61506623735693 153.9981118239871 83.04035119823754 153.99660896078123 80.465576171875 153.9951171875 C78.62267456453003 153.9904894375971 76.77977391701722 153.98546483596124 74.93687438964844 153.98007202148438 C69.92441270182553 153.96694203303716 64.9119644118087 153.96050191660802 59.8994882106781 153.95606136322021 C56.76883434058669 153.9531316588571 53.63818414350658 153.94902704935708 50.50753211975098 153.9445571899414 C40.715144386964255 153.93088080381713 30.922765034594136 153.9212147859658 21.130368411540985 153.91735529899597 C9.821434449247022 153.9128737784083 -1.4873786933930262 153.89532208245592 -12.796275913715363 153.8663547039032 C-21.534364625625926 153.84474827035703 -30.272419319432004 153.8346515755624 -39.01053446531296 153.83331418037415 C-44.23098084077395 153.83226542654867 -49.45131366496315 153.82634260970414 -54.67173194885254 153.8084945678711 C-59.58255265620505 153.7920318282603 -64.49317423476103 153.78984966101294 -69.40401268005371 153.79863357543945 C-71.20595202357913 153.79940490787223 -73.00790199369968 153.79504858365044 -74.809814453125 153.78517532348633 C-77.27101500902194 153.77248102450264 -79.73150762230412 153.7783186700594 -82.19270324707031 153.78875732421875 C-82.90467811882496 153.78070091962815 -83.61665299057961 153.77264451503754 -84.35020285844803 153.7643439769745 C-90.30076651007775 153.82331358233378 -94.34129317776112 155.28359514292447 -98.34375 159.71875 Z " fill="none" transform="translate(251.03125,9.84375)"/>
<path stroke="#4ade80" stroke-width="1.5" stroke-linecap="round" d="M0 0 C2.424621180324891 2.3381038606745506 2.9701786715687604 3.7599101727998345 3.38818359375 7.125244140625 C3.393259277343759 8.936900634765607 3.393259277343759 8.936900634765607 3.3984375 10.78515625 C3.4013076782226506 11.441485443115255 3.404177856445301 12.097814636230453 3.407135009765625 12.774032592773438 C3.409172748283595 14.163410055725194 3.403663036622305 15.552816394440242 3.39111328125 16.942138671875 C3.375233516276552 19.03177138088165 3.3908747755599506 21.119416382156373 3.41015625 23.208984375 C3.432025658633421 36.373191543156565 1.428384314950165 47.23326277629434 -7.88671875 56.97265625 C-15.469966076857133 63.989767234184114 -22.82793302791461 67.14863087178367 -33.17578125 67.09765625 C-34.91118164062499 67.09282226562499 -34.91118164062499 67.09282226562499 -36.681640625 67.087890625 C-37.87982421875 67.07951171874998 -39.078007812500005 67.07113281249997 -40.3125 67.0625 C-41.53001953124999 67.05798828125 -42.74753906250001 67.05347656250001 -44.001953125 67.048828125 C-47.00135225643095 67.03706577546495 -50.00065088743099 67.02062826074666 -53 67 C-53.303251953125 67.94850830078127 -53.60650390625 68.89701660156248 -53.9189453125 69.874267578125 C-55.7773964302408 75.24774311119529 -59.15008330657156 78.7935325912423 -63.875 81.875 C-70.83599885606395 84.38095958818303 -77.06920587178507 84.62475100492605 -84 82 C-89.10037979434176 79.24669763314296 -93.06073711147849 75.78507127196298 -95.375 70.40234375 C-97.0546149611 63.946323743271876 -97.17200748563643 56.72993896111075 -94.4375 50.5625 C-91.4481559311387 45.56617581423535 -87.34309767495651 42.120611931500946 -82.125 39.625 C-74.9779682903343 38.195593658066855 -68.48867929757301 38.44261003422531 -62 42 C-58.21945038863592 45.17909853682886 -55.49828158338545 48.74366841349149 -53 53 C-53 53.99000000000001 -53 54.98000000000002 -53 56 C-49.85354599440953 55.8883882212869 -46.708108425069554 55.758194428725574 -43.5625 55.625 C-42.684003906249984 55.59406250000001 -41.8055078125 55.563125000000014 -40.900390625 55.53125 C-30.33985617885739 55.06362485847342 -22.172641405183356 53.72730495553748 -14.75 45.625 C-10.28736726912689 40.562551041859024 -9.711898771361689 34.82622688162411 -9.69140625 28.30078125 C-9.666272042720891 26.830073720493488 -9.640873690852686 25.359370685499698 -9.615234375 23.888671875 C-9.586394233187377 21.59107391059456 -9.56234625392824 19.29355329253167 -9.543701171875 16.995849609375 C-9.522090570144712 14.763783173516913 -9.482690847301228 12.53255764127914 -9.44140625 10.30078125 C-9.441290435791018 9.613252716064437 -9.441174621582036 8.925724182128931 -9.441055297851563 8.217361450195313 C-9.381910153000035 5.374710484902494 -9.307194901114599 3.44218380646862 -7.659912109375 1.071044921875 C-5.014709248022882 -0.6357509235069188 -3.0556615167713517 -0.4456173045291507 0 0 Z M-84.375 56.8125 C-85.34839069610376 60.2193674363632 -84.8966010138677 62.59291614730273 -84 66 C-81.38139846980306 69.54281383497232 -79.74658348480159 70.78669043291382 -75.5 72 C-70.68195587271575 72 -68.62151584850884 70.50968716930134 -65.1875 67.3125 C-63.440558878837464 63.910562027209835 -63.18825559867196 60.68575836278677 -64 57 C-66.29199403165333 54.039491261130024 -66.29199403165333 54.039491261130024 -69 52 C-69.32999999999998 51.670000000000016 -69.66 51.34000000000003 -70 51 C-76.77038764421621 50.435801029648644 -80.08733794968029 51.160581842760394 -84.375 56.8125 Z " fill="none" transform="translate(225,371)"/>
<path stroke="#4ade80" stroke-width="1.5" stroke-linecap="round" d="M0 0 C2.5382194377627343 2.3969180333751297 2.981418054786957 3.825000740033886 3.35302734375 7.32470703125 C3.3473876953124773 8.622631835937511 3.3417480468750114 9.920556640625023 3.3359375 11.2578125 C3.3484622685277827 12.703129383915154 3.361499924312568 14.148441896959923 3.375 15.59375 C3.378905967585979 17.851399264701456 3.375107156664285 20.108605030366107 3.3603515625 22.3662109375 C3.3249575142066874 31.30517446758438 3.292599383710126 39.56819591343532 9 47 C17.37103492086419 54.44616296793896 26.745985429160783 55.24408092487141 37.5625 55.625 C38.932451171875016 55.68300781250002 38.932451171875016 55.68300781250002 40.330078125 55.7421875 C42.55319924254803 55.83530252063031 44.77633612756483 55.921121656435616 47 56 C47.12503906249998 55.247187499999995 47.250078125000016 54.49437499999999 47.37890625 53.71875 C48.51799216635459 48.73256259256118 51.03242084795352 45.39195759160731 55.203125 42.44140625 C61.0707432784892 39.184693589140466 66.33949537406943 37.73822738452867 73 39 C80.38524133584491 41.381631081677824 85.1759097674597 45.25492571529793 89 52 C91.0157880961491 58.04736428844734 91.12077772351995 65.42440907931649 88.5 71.3125 C85.33103553228318 76.6014685715553 81.22395078020156 80.84451321594543 75.3515625 82.94921875 C69.38059894699245 84.26216171613748 63.63336927948092 84.6322291854566 58 82 C53.46941486566129 78.75675538263977 49.05659581940864 75.31915358527687 47 70 C47 69.00999999999999 47 68.01999999999998 47 67 C45.85954223632814 67.03142089843749 45.85954223632814 67.03142089843749 44.696044921875 67.0634765625 C41.193335521148356 67.1475139302496 37.69083923045156 67.19893623193514 34.1875 67.25 C32.99189453125001 67.283515625 31.796289062500023 67.31703125000001 30.564453125 67.3515625 C19.12786638401792 67.47621194676822 9.465379887059271 64.98164389351302 1 57 C-8.03495747318783 47.839265856651764 -9.559219692162003 35.578048115991294 -9.498046875 23.2734375 C-9.487653808593734 22.551240234374973 -9.477260742187525 21.829042968750002 -9.466552734375 21.0849609375 C-9.437071060783012 18.842371783259864 -9.446098042821518 16.602083075739017 -9.458984375 14.359375 C-9.412261880681854 3.5889026099479793 -9.412261880681854 3.5889026099479793 -7.660400390625 1.08642578125 C-5.018953816934413 -0.6419137648348965 -3.0627375592448516 -0.44664922738985524 0 0 Z M59 55 C57.088982476715785 59.220163697252644 56.8004286138447 61.25160730191777 58 65.75 C60.354371107906786 69.57585305034854 61.72641675209917 70.68505130833819 66 72 C70.37566043201161 72 72.38117149479308 71.47084777570092 75.875 68.8125 C78.28646364389516 65.62085694190347 79 63.988600614931556 79 60 C77.48517897024556 55.933901446448544 75.97065630193623 52.93167063337438 72 51 C66.26369712742314 50.36263301415812 62.99355288369071 50.41915992753121 59 55 Z " fill="none" transform="translate(291,371)"/>
<path stroke="#4ade80" stroke-width="1.5" stroke-linecap="round" d="M0 0 C4.396836657610976 4.265134177083439 7.53491845738705 8.382098232464415 8.3359375 14.61328125 C8.452958945324411 22.699463121916267 6.831212987976727 27.64724777739599 1.625 33.8125 C-1.1105718710439163 36.09214322586993 -3.803075318892809 37.46318634475702 -7 39 C-7.147008938160269 42.9579329504686 -7.234637799015431 46.91515092135597 -7.3125 50.875 C-7.354394531249994 51.98359375000001 -7.396289062500003 53.092187499999994 -7.439453125 54.234375 C-7.561517059505817 62.534722546395585 -6.11811302410662 69.16356036198005 -0.626953125 75.612548828125 C6.980483864542208 82.6148487844082 16.09655888819026 82.45356526249441 25.8125 82.5625 C28.23581412520099 82.59688228133496 30.659030076164242 82.63945625232017 33.08203125 82.69140625 C34.678817138671874 82.70989624023437 34.678817138671874 82.70989624023437 36.307861328125 82.728759765625 C39 83 39 83 42 85 C42.4375 88.4375 42.4375 88.4375 42 92 C39.86712631905536 94.13686322883706 38.498879885270355 94.92566036495629 35.50146484375 95.372314453125 C34.580590820312494 95.36933349609376 33.659716796875 95.36635253906252 32.7109375 95.36328125 C31.173730468749994 95.36231445312501 31.173730468749994 95.36231445312501 29.60546875 95.361328125 C28.5394140625 95.34521484375 27.473359375 95.3291015625 26.375 95.3125 C25.332148437499995 95.31572265624999 24.28929687499999 95.3189453125 23.21484375 95.322265625 C9.706483264613098 95.2295115892077 -0.8025286053394041 92.71345545562991 -10.8828125 83.41796875 C-17.27944667856012 76.1125876493935 -20.1467501992621 67.61628885610978 -20.09765625 58.04296875 C-20.094433593749997 56.93115234375 -20.091210937499994 55.8193359375 -20.087890625 54.673828125 C-20.07951171875 53.523339843749994 -20.071132812499997 52.37285156249999 -20.0625 51.1875 C-20.057988281250005 50.017675781250006 -20.053476562499995 48.84785156250001 -20.048828125 47.642578125 C-20.037069301716087 44.76166642044291 -20.020634255822415 41.88085956289956 -20 39 C-21.3883203125 38.5707421875 -21.3883203125 38.5707421875 -22.8046875 38.1328125 C-28.071863939864116 36.26547610933912 -31.53815539970502 33.23473359345007 -34.375 28.5 C-37.33592030105776 21.9834975800988 -37.12323601356173 14.145060837972835 -34.75 7.5 C-33.88375 6.262499999999989 -33.88375 6.262499999999989 -33 5 C-32.443125 4.133749999999992 -31.886250000000004 3.2675000000000125 -31.3125 2.375 C-22.95439053262824 -6.209004317841277 -9.47353404245736 -7.547097694110775 0 0 Z M-23 11 C-24.776652617195097 13.93533910667017 -25.017793537379198 15.5729551028993 -24.875 19 C-23.865308333918108 22.461799997995058 -22.460525847249812 24.390351374128983 -20 27 C-16.890466207605797 28.554766896197094 -14.437332394829511 28.2864443662358 -11 28 C-6.759713814023144 25.741206304573723 -6.759713814023144 25.741206304573723 -4 22 C-3.5792840822491314 18.940794255211586 -3.5148588303148216 16.05322540486651 -4 13 C-6.18159145196725 10.244305534357153 -7.871774935563323 8.564112532218331 -11 7 C-16.25736353457205 6.402572325616802 -18.97256770050214 7.613295566331345 -23 11 Z " fill="none" transform="translate(86,135)"/>
<path stroke="#4ade80" stroke-width="1.5" stroke-linecap="round" d="M0 0 C5.251811686850033 4.183859549571906 9.017368642397514 9.08337123632424 10.00390625 15.84375 C10.182930855608674 22.97314164688629 9.012910825106076 28.544367625491304 4.6328125 34.30078125 C-2.313295284431092 40.30078125 -2.313295284431092 40.30078125 -6.3671875 40.30078125 C-6.346240234374989 40.959733886718766 -6.325292968749977 41.6186865234375 -6.3037109375 42.297607421875 C-5.462277388713005 72.79424803661368 -5.462277388713005 72.79424803661368 -15.37890625 84.3671875 C-26.259152271174912 94.9481733162703 -38.56189828474248 96.47178805567137 -53.0546875 96.67578125 C-54.583193359375 96.73185546874998 -54.583193359375 96.73185546874998 -56.142578125 96.7890625 C-63.450597812244894 96.87509543287797 -63.450597812244894 96.87509543287797 -66.18603515625 95.1611328125 C-67.57421875 93.77734375 -67.57421875 93.77734375 -69.3671875 91.30078125 C-68.76535001179548 89.2803268253133 -68.09412653937846 87.27967085719692 -67.3671875 85.30078125 C-64.68539736668777 83.95988618334388 -62.547011559659666 84.13910039783897 -59.546875 84.08984375 C-58.371249999999975 84.06148437500002 -57.19562500000001 84.03312499999998 -55.984375 84.00390625 C-53.5131628105234 83.95231518132618 -51.04178906365763 83.90790297541616 -48.5703125 83.87109375 C-38.768617496663694 83.61484028586051 -31.58739565106606 82.52098940106606 -24.3671875 75.30078125 C-20.561036048354936 69.8894796653928 -19.293356594972124 65.17503694353636 -19.05078125 58.66015625 C-18.987939453125023 57.055273437500006 -18.987939453125023 57.055273437500006 -18.923828125 55.41796875 C-18.88451171874999 54.306796875 -18.845195312499982 53.19562500000001 -18.8046875 52.05078125 C-18.739912109374984 50.36082031249998 -18.739912109374984 50.36082031249998 -18.673828125 48.63671875 C-18.567867347963443 45.85819170770867 -18.46579607888299 43.07957734431085 -18.3671875 40.30078125 C-19.755507812500014 39.8715234375 -19.755507812500014 39.8715234375 -21.171875 39.43359375 C-26.4390514398641 37.56625735933912 -29.905342899705033 34.53551484345007 -32.7421875 29.80078125 C-35.25337992962386 24.16123892923457 -35.320188936435216 18.329237306237957 -34.3671875 12.30078125 C-31.928859932573516 6.0630049045630585 -28.50697214145987 1.2478778779007484 -22.3671875 -1.69921875 C-14.799287179478199 -4.607477684213251 -6.933305614082769 -4.434090799704109 0 0 Z M-21.3671875 12.30078125 C-23.14384011719511 15.23612035667017 -23.38498103737919 16.8737363528993 -23.2421875 20.30078125 C-22.232495833918108 23.762581247995058 -20.827713347249812 25.691132624128983 -18.3671875 28.30078125 C-15.257653707605812 29.855548146197094 -12.804519894829525 29.5872256162358 -9.3671875 29.30078125 C-5.126901314023144 27.041987554573723 -5.126901314023144 27.041987554573723 -2.3671875 23.30078125 C-1.9464715822491598 20.241575505211586 -1.8820463303148358 17.35400665486651 -2.3671875 14.30078125 C-4.548778951967279 11.545086784357153 -6.238962435563337 9.864893782218331 -9.3671875 8.30078125 C-14.62455103457205 7.703353575616802 -17.33975520050211 8.914076816331345 -21.3671875 12.30078125 Z " fill="none" transform="translate(450.3671875,133.69921875)"/>
<path stroke="#4ade80" stroke-width="1.5" stroke-linecap="round" d="M0 0 C2.065530961238153 -0.009598192199064215 4.13002002626456 -0.04055288068161644 6.1953125 -0.072265625 C18.140176234848127 -0.16877697332569142 27.847885458407404 1.894000372479752 36.73828125 10.248046875 C44.511444924259195 18.49535916524917 47.76019941744619 26.73376773000689 47.69921875 38.076171875 C47.69599609375001 39.1396484375 47.69277343750002 40.203125 47.689453125 41.298828125 C47.676884765625005 42.94044921875002 47.676884765625005 42.94044921875002 47.6640625 44.615234375 C47.659550781250005 45.7328515625 47.65503906250001 46.850468750000005 47.650390625 48.001953125 C47.63865494427182 50.74810241539353 47.62223612971184 53.49414023758362 47.6015625 56.240234375 C48.78093383789064 56.45280883789064 48.78093383789064 56.45280883789064 49.984130859375 56.669677734375 C54.82804975321824 57.725571629992146 58.03097491547237 61.136932872913235 60.9375 65.029296875 C64.13357511826962 70.53742633414555 64.36717370357337 76.00330408247521 63.6015625 82.240234375 C61.76093479514532 88.14961805900714 58.89579816543562 93.1332281969095 53.62890625 96.501953125 C46.70928914983733 99.9800675404257 40.292600841352964 100.3663138689721 32.9140625 98.115234375 C27.423233727958518 95.00721808893877 22.244316873430137 91.56957639010625 20.0390625 85.353515625 C18.592133859010346 78.3643335287909 18.58157469866552 71.2518005340043 22.265625 64.994140625 C26.038252860916884 60.0411876730945 29.468621283886364 57.34565947994349 35.6015625 56.240234375 C35.5491855682925 52.26003909050553 35.45399286326369 48.28193131309257 35.3515625 44.302734375 C35.33738281249998 43.18576171874997 35.32320312500002 42.0687890625 35.30859375 40.91796875 C35.07023745804406 32.790019194301976 33.96794987722353 26.249113180083327 28.63671875 19.900390625 C21.365989908093695 14.01182013719864 15.27680817087429 12.174753834061107 5.87109375 12.064453125 C4.821152343749986 12.040605468750016 3.7712109374999727 12.016757812499975 2.689453125 11.9921875 C0.49434317432928765 11.948992134244406 -1.7010354325821595 11.917866251702833 -3.896484375 11.8984375 C-4.942558593749993 11.870722656249995 -5.988632812499986 11.843007812499991 -7.06640625 11.814453125 C-8.017976074218723 11.799870605468755 -8.969545898437502 11.785288085937509 -9.949951171875 11.770263671875 C-12.3984375 11.240234375 -12.3984375 11.240234375 -14.278564453125 9.403564453125 C-15.3984375 7.240234375 -15.3984375 7.240234375 -14.6484375 4.052734375 C-11.96414542624575 -1.9869227909470055 -5.972299781581455 0.01677612298198028 0 0 Z M33.6015625 69.240234375 C31.374611596425098 72.47290504147963 30.583838672531556 74.3717668290463 30.6640625 78.302734375 C31.74299322009807 81.6833839646406 33.17762649387481 83.66939315638234 35.6015625 86.240234375 C38.80329503858462 87.84110064429228 42.12733308898578 87.7394052673871 45.6015625 87.240234375 C48.41159710381248 85.44659526618352 50.11096717673496 84.22142502153008 51.6015625 81.240234375 C52.05643831344224 76.6914762405778 52.31845706061836 73.56630799314883 49.5390625 69.802734375 C44.21937373793901 65.16215481660635 39.317073273609594 65.21339723904777 33.6015625 69.240234375 Z " fill="none" transform="translate(396.3984375,283.759765625)"/>
<path stroke="#4ade80" stroke-width="1.5" stroke-linecap="round" d="M0 0 C1.3129101562499983 -0.0032226562499886313 2.6258203124999966 -0.006445312499977263 3.978515625 -0.009765625 C13.661242951127818 0.04499530075190705 13.661242951127818 0.04499530075190705 17.0625 2.3125 C17.375 5.8125 17.375 5.8125 17.0625 9.3125 C14.507031825962429 11.867968174037571 13.4824234798092 11.585511234013609 9.93359375 11.65625 C8.897832031250005 11.685898437499986 7.862070312499995 11.715546874999973 6.794921875 11.74609375 C5.1639355468749955 11.778964843749975 5.1639355468749955 11.778964843749975 3.5 11.8125 C-7.990874225643026 12.050001351776189 -18.023525101868472 12.328425494421936 -26.9375 20.3125 C-32.24782521570833 27.667952937740154 -32.70575406436899 35.117810164219236 -32.75 43.9375 C-32.775136718750005 45.132460937500014 -32.800273437499996 46.32742187500003 -32.826171875 47.55859375 C-32.88453789166459 50.47689458322935 -32.92118856583622 53.393712780809665 -32.9375 56.3125 C-32.156489257812495 56.44970458984375 -31.375478515625005 56.586909179687495 -30.57080078125 56.728271484375 C-25.959024094788134 57.75144797340738 -23.024483036050654 60.86470076493043 -19.9375 64.3125 C-16.53559304373715 69.76456280407689 -16.082849531756864 76.04830054526343 -16.9375 82.3125 C-18.752310449051848 89.02081719560238 -22.120646080409955 93.54113317301301 -27.9375 97.3125 C-34.15545031889289 100.35238682256988 -41.111423140704304 100.17469294012415 -47.625 98.1875 C-53.11582877204151 95.07948371393877 -58.29474562656984 91.64184201510625 -60.5 85.42578125 C-61.94692864098968 78.4365991537909 -61.957487801334466 71.3240661590043 -58.2734375 65.06640625 C-54.500809639083116 60.1134532980945 -51.070441216113615 57.41792510494349 -44.9375 56.3125 C-44.958447265625 55.587724609375016 -44.979394531249994 54.86294921875003 -45.0009765625 54.1162109375 C-45.085206956143836 50.76512071949276 -45.13649504335541 47.414254293787565 -45.1875 44.0625 C-45.22101562500001 42.922968749999995 -45.25453125 41.78343749999999 -45.2890625 40.609375 C-45.406870281975216 30.242290186181265 -43.537811363194635 20.30188305108902 -36.7578125 12.125 C-25.959173480079272 1.3727070702935293 -14.734549798436149 -0.18464348118340013 0 0 Z M-46.9375 69.3125 C-49.16445090357488 72.54517066647963 -49.955223827468444 74.4440324540463 -49.875 78.375 C-48.796069279901936 81.7556495896406 -47.36143600612521 83.74165878138234 -44.9375 86.3125 C-41.735767461415364 87.91336626929228 -38.41172941101421 87.8116708923871 -34.9375 87.3125 C-32.12746539618752 85.51886089118352 -30.428095323265026 84.29369064653008 -28.9375 81.3125 C-28.48262418655777 76.7637418655778 -28.220605439381643 73.63857361814883 -31 69.875 C-36.319688762061006 65.23442044160635 -41.221989226390406 65.28566286404777 -46.9375 69.3125 Z " fill="none" transform="translate(110.9375,283.6875)"/>
<path stroke="#4ade80" stroke-width="1.5" stroke-linecap="round" d="M0 0 C2.7350391341460636 2.4798599653369138 3.004089335401204 4.038417937557597 3.3987274169921875 7.74591064453125 C3.425107592976474 9.279965553035595 3.435160937968419 10.814353632019959 3.432373046875 12.3486328125 C3.4425646972656523 13.188023986816404 3.4527563476562477 14.027415161132808 3.4632568359375 14.892242431640625 C3.4934151892850878 17.662604268413247 3.5026570790195706 20.432620492891317 3.51171875 23.203125 C3.528563334295029 25.125561032966914 3.5467132758383855 27.047986036479415 3.5661163330078125 28.97039794921875 C3.613646386881044 34.02722731483874 3.6434363453337255 39.08401196729346 3.6695556640625 44.1409912109375 C3.6993459831466 49.30241731129695 3.7458815711077023 54.46368930112277 3.791015625 59.625 C3.8770829601169225 69.74991943691208 3.944413037481297 79.87487056281566 4 90 C4.935859375000007 90.4498828125 5.871718750000014 90.89976562499999 6.8359375 91.36328125 C12.295332140629512 94.18733847768362 15.717595538185947 98.17479851117781 18.26953125 103.6953125 C20.109383597431133 109.50019423788439 19.92980042158581 115.65278117170413 17.5 121.25 C14.229290966481074 126.8668360080926 9.527163175616238 130.87681636639275 3.625 133.5 C-4.062542356310274 134.56035066983588 -11.65569658361673 133.78200171855872 -18 129 C-24.087955258344437 122.42129453564525 -25.37817664869337 117.18604398400305 -25.26953125 108.296875 C-24.810242449298414 102.67890764069364 -23.217485668890447 99.03455425556149 -19.05859375 95.21875 C-16.08503996048981 92.89685901150585 -13.595988146518806 91.19866271550626 -10 90 C-9.994133758544933 88.91671920776366 -9.988267517089838 87.83343841552733 -9.982223510742188 86.71733093261719 C-9.925067378934727 76.51983026065807 -9.852343248292499 66.32254430095708 -9.76428508758545 56.12526226043701 C-9.719513729618711 50.88243323726607 -9.680272613653017 45.63968314263377 -9.653564453125 40.396728515625 C-9.627598873323763 35.33914462712079 -9.58724461716156 30.28186338159901 -9.536813735961914 25.22446632385254 C-9.520099259491388 23.29276092639003 -9.508613598790191 21.36100312931245 -9.502386093139648 19.429235458374023 C-9.492794661035816 16.72813388335885 -9.464795632734194 14.027814628581666 -9.432373046875 11.326904296875 C-9.43380813598634 10.524175872802743 -9.43524322509765 9.721447448730487 -9.436721801757813 8.894393920898438 C-9.345073739575213 3.513438057908047 -9.345073739575213 3.513438057908047 -7.6604766845703125 1.0069122314453125 C-4.9978218772105265 -0.6077203126671975 -3.0284481998276362 -0.4416486958081691 0 0 Z M-11 104 C-13.142685588777624 107.21402838316641 -14 109.18954927067449 -14 113.0625 C-12.566434976633872 117.27359725613798 -9.986047160051328 120.00697641997431 -6 122 C-1.3459109864737684 122.41369680120232 1.2523947551466676 121.81070393364001 5 119 C7.66836410701228 114.99745383948158 7.834023803219964 111.70686700827116 7 107 C4.818408548032778 104.24430553435718 3.1282250644366627 102.56411253221836 0 101 C-4.634668009634623 100.58802951025473 -7.354665365997619 101.04432326972778 -11 104 Z " fill="none" transform="translate(258,371)"/>
<path stroke="#4ade80" stroke-width="1.5" stroke-linecap="round" d="M0 0 C6.068381950869707 3.149585263091211 10.66512725625148 8.920310046693999 12.74609375 15.34375 C13.619664303071431 22.708152918334918 13.296623202960575 29.285769613705725 8.74609375 35.34375 C3.6107461262989773 40.47909762370102 -1.7729200301074002 43.42143546144598 -9.06640625 43.84375 C-14.896091787065018 43.62192026114667 -19.587980517411836 41.83918577217946 -24.25390625 38.34375 C-30.25390625 31.41147908366537 -30.25390625 31.41147908366537 -30.25390625 27.34375 C-31.245049285888683 27.350411834716795 -32.23619232177737 27.35707366943359 -33.25736999511719 27.363937377929688 C-42.60052890354473 27.42476735123796 -51.943647601762905 27.469731706813945 -61.286959648132324 27.499186515808105 C-66.09039758869278 27.51483863976381 -70.8936755900952 27.536068695589393 -75.697021484375 27.570068359375 C-80.33301680096105 27.602677890529208 -84.96885832663469 27.620606427922212 -89.60495948791504 27.628381729125977 C-91.37319166297823 27.633922368671506 -93.14141547737722 27.644741909275695 -94.90958213806152 27.660940170288086 C-97.38741584526474 27.68273578137149 -99.8646150617771 27.68571605961847 -102.342529296875 27.684326171875 C-103.07261199951171 27.69511199951171 -103.80269470214841 27.70589782714842 -104.55490112304688 27.717010498046875 C-108.96068963583804 27.690290954250543 -111.74690547410648 27.050095442370605 -115.25390625 24.34375 C-116.25390625 22.46875 -116.25390625 22.46875 -116.25390625 20.34375 C-115.25138854980469 17.746414184570313 -115.25138854980469 17.746414184570313 -113.25390625 15.34375 C-110.4029555470035 14.855619750848035 -108.14514869147865 14.709158171252938 -105.294189453125 14.776123046875 C-104.48420501708983 14.775392913818365 -103.67422058105467 14.77466278076173 -102.83969116210938 14.773910522460938 C-100.16067682762957 14.777395831313925 -97.48339827115728 14.816299574780942 -94.8046875 14.85546875 C-92.94810434984674 14.86479356662548 -91.09150890264573 14.871911242321659 -89.23490905761719 14.876907348632813 C-84.34701603351061 14.896003304460436 -79.45986525998569 14.945126385834897 -74.572265625 15.00042724609375 C-69.58538861142881 15.05156379766646 -64.59839171910647 15.0744094212738 -59.611328125 15.099609375 C-49.825194612306404 15.153242679671905 -40.03961213752336 15.238586844142532 -30.25390625 15.34375 C-30.050274658203136 14.172233886718743 -30.050274658203136 14.172233886718743 -29.842529296875 12.97705078125 C-29.159346936999725 9.920723558680635 -28.132308987557792 8.544600764137925 -26.06640625 6.21875 C-25.49535156249999 5.55617187499999 -24.924296874999982 4.893593750000008 -24.3359375 4.2109375 C-17.657963347449936 -1.777939882587134 -8.458003760961276 -2.4626423428795476 0 0 Z M-18.00390625 14.71875 C-19.76746377805648 17.011374786473368 -20.12190095071645 18.43963341576216 -20.25390625 21.34375 C-19.111185019304457 24.83205691475473 -17.984656839981426 27.50474006335469 -15.56640625 30.28125 C-12.135032572025125 31.857827095285757 -8.915073004195165 31.998829538523978 -5.25390625 31.34375 C-2.161390724864077 29.528577843941946 -0.6670191108985364 28.05730857791565 1.12109375 24.96875 C1.9190737816122692 21.617233867228492 1.7763688072626564 19.640630183240546 0.74609375 16.34375 C-1.8874626853396421 12.858160600285828 -3.536264503857012 11.548790498898 -7.75390625 10.34375 C-12.456187854926895 10.34375 -14.43261611527987 11.912736322719894 -18.00390625 14.71875 Z " fill="none" transform="translate(497.25390625,235.65625)"/>
<path stroke="#4ade80" stroke-width="1.5" stroke-linecap="round" d="M0 0 C5.735309624828005 4.2249433891081765 8.922214034736328 9.615145941049747 10.1953125 16.6171875 C10.73185909270876 22.41189070125469 9.610929458429155 27.366714276306936 7.1953125 32.6171875 C6.411562500000002 33.44218749999999 5.6278125000000045 34.26718749999998 4.8203125 35.1171875 C2.9327796641830446 37.41609034431127 2.9327796641830446 37.41609034431127 3.50390625 39.671875 C4.681962656634255 43.29760300798313 6.202892152212428 46.63262753228457 7.8828125 50.0546875 C9.921875671541954 55.58928753704254 10.143152779013406 60.892146697836495 8.1953125 66.4921875 C3.729838133565579 71.23675401433655 -1.2499325427555164 72.84666395717699 -7.58984375 73.11328125 C-9.682382405281317 73.11459648485561 -11.775030033798998 73.09464860995206 -13.8671875 73.0546875 C-15.442099609374992 73.06532226562501 -15.442099609374992 73.06532226562501 -17.048828125 73.076171875 C-23.053140438802643 73.0270491184994 -27.538574817026443 72.57583682995016 -32.8046875 69.6171875 C-35.923270561041704 66.33867710249461 -37.10190860264689 63.55312857751227 -37.4296875 59.1171875 C-37.24555997507423 53.05939192994185 -34.57522528542523 48.03724323878566 -31.921875 42.71875 C-30.50963775611612 39.78034588980245 -30.50963775611612 39.78034588980245 -31.49609375 37.421875 C-31.92792968750001 36.82632812500003 -32.359765624999994 36.23078125000001 -32.8046875 35.6171875 C-33.14628906249999 35.029375000000016 -33.487890625000006 34.44156250000003 -33.83984375 33.8359375 C-34.525426040475 32.688955721258566 -35.212931800309406 31.543121491939075 -35.90234375 30.3984375 C-38.634493465438226 25.005102996797262 -38.57398344091001 18.831570539725902 -37.19140625 13.0546875 C-34.57039075885828 5.480299120312907 -30.119138016002466 0.8724684515467516 -23.0546875 -2.8203125 C-14.70268666614507 -4.265851105859497 -7.5056747048538455 -4.2717184011547715 0 0 Z M-21.8046875 10.6171875 C-25.075253987065025 14.318091682731477 -26.55355578438369 17.462479051354165 -26.34375 22.48828125 C-25.668725035204147 25.15414071241841 -24.442650395905133 26.791417447918946 -22.8046875 28.9921875 C-19.91258069133559 33.03425106353811 -18.917862471212885 35.81838126261141 -19.19140625 40.7890625 C-20.25711021768771 45.70351901341337 -22.410340580804387 50.11095157395192 -24.58984375 54.61328125 C-26.17306525986865 57.59345880608754 -26.17306525986865 57.59345880608754 -24.8046875 60.6171875 C-17.54468750000001 60.6171875 -10.284687500000018 60.6171875 -2.8046875 60.6171875 C-3.616906696930414 54.39600850901536 -3.616906696930414 54.39600850901536 -5.8046875 49.1171875 C-8.289914732635907 43.73708019418382 -9.603088644437037 39.315983127817276 -7.6171875 33.5546875 C-6.4984953881539695 30.861539823333572 -5.344780494564134 28.97331769238974 -3.6171875 26.5546875 C-1.3407002340110807 22.865208137880018 -1.1945981601403446 20.887812879017446 -1.8046875 16.6171875 C-3.6886433048621257 12.698559425886856 -5.448598171265132 10.518836051587414 -9.3671875 8.7421875 C-14.663711260133056 7.008779723956451 -17.110518673841256 7.743206586025252 -21.8046875 10.6171875 Z " fill="none" transform="translate(268.8046875,222.3828125)"/>
<path stroke="#4ade80" stroke-width="1.5" stroke-linecap="round" d="M0 0 C4.371682450323711 2.6129596254808405 7.6035603526854985 5.914837785724359 10.4765625 10.09375 C10.86384309282181 11.748713030195063 11.207256380815998 13.415547657295491 11.4765625 15.09375 C12.497202911376952 15.08930877685546 13.517843322753905 15.08486755371095 14.569412231445313 15.080291748046875 C24.178106298193455 15.039785359328278 33.78678308976589 15.00978470365078 43.39554309844971 14.99012565612793 C48.335753022118254 14.979679066914656 53.27589413545233 14.965503898309152 58.216064453125 14.94287109375 C62.981718606285966 14.921173927215392 67.7473064846279 14.90918796984414 72.51300621032715 14.903995513916016 C74.33311697581954 14.900294131938153 76.15322403014736 14.893066452822353 77.97330665588379 14.88228988647461 C80.51849898728898 14.867816491289062 83.06341585688837 14.865770309733364 85.608642578125 14.86669921875 C86.3646173095703 14.859508666992184 87.12059204101563 14.852318115234368 87.89947509765625 14.84490966796875 C91.646214365932 14.859750822926117 93.27581792482349 14.959920283215666 96.4765625 17.09375 C96.7890625 20.59375 96.7890625 20.59375 96.4765625 24.09375 C93.9527637271143 26.617548772885698 92.40240440339109 26.329093281189785 88.96043395996094 26.34259033203125 C88.19151321411132 26.335399780273463 87.42259246826171 26.328209228515618 86.63037109375 26.32080078125 C85.82053268432617 26.321092834472665 85.01069427490235 26.32138488769533 84.17631530761719 26.321685791015625 C81.49243553617664 26.32028949887149 78.80883143086518 26.304714347109666 76.125 26.2890625 C74.26697948928403 26.285333431553454 72.40895701551688 26.282485959338885 70.55093383789063 26.280487060546875 C65.65509636235686 26.272842236644124 60.75937711387009 26.253186489898383 55.86358642578125 26.2310791015625 C50.87001138856667 26.210638927343837 45.876417291934416 26.201489262705536 40.8828125 26.19140625 C31.08067715555425 26.169941376477368 21.27862964978828 26.13579522485975 11.4765625 26.09375 C11.277402343749998 27.238437499999975 11.277402343749998 27.238437499999975 11.07421875 28.40625 C9.88206107210101 33.76706361042159 6.983622101651022 36.99386697993873 2.4765625 39.90625 C-2.9480517505850727 43.18008945982575 -8.275667904227433 43.794621589269354 -14.5234375 43.09375 C-22.116767512449886 41.02057108212716 -26.53357753712452 36.81998911657291 -30.66015625 30.296875 C-32.853636037155226 24.69903518119662 -32.33680513285869 17.367812117076767 -30.90625 11.609375 C-28.57110437308172 6.277803568629054 -24.455636734370064 3.020660839287359 -19.5234375 0.09375 C-13.535679674631943 -1.9021692751226738 -5.972958535849518 -2.1450872760326547 0 0 Z M-19.9609375 15.84375 C-20.857190640617354 19.428762562469416 -20.683475376327497 22.627364629908982 -19.5234375 26.09375 C-17.070836280948527 28.96508801254805 -15.257637987137013 30.680522540174366 -11.5234375 31.5703125 C-7.465428669152427 31.86236616585643 -5.707592118177814 31.246559151253905 -2.5859375 28.65625 C-1.5650000000000013 27.387812499999995 -1.5650000000000013 27.387812499999995 -0.5234375 26.09375 C-0.1934375000000017 25.763750000000016 0.13656250000000014 25.433749999999975 0.4765625 25.09375 C0.9798461956460756 20.144793659480285 1.0116451866340554 18.01342336765228 -1.5234375 13.65625 C-4.730294708706641 10.917059467563092 -6.411670254175267 10.081091682663356 -10.52734375 9.85546875 C-14.687111434763104 10.352035929590102 -17.382243902904282 12.704470838318258 -19.9609375 15.84375 Z " fill="none" transform="translate(31.5234375,235.90625)"/>

  </g>
</svg>