<?xml version="1.0" encoding="UTF-8"?>
<svg width="100" height="100" viewBox="0 0 100 100" fill="none" xmlns="http://www.w3.org/2000/svg">
  <g transform="translate(25, 25) scale(0.09765625)">
    
<path stroke="#4ade80" stroke-width="1.5" stroke-linecap="round" d="M0 0 C0.9861328124999886 0.3519140625000001 1.9722656249999773 0.7038281250000002 2.98828125 1.06640625 C23.924486928536965 9.126978448979298 38.82199312257393 24.26493612728563 47.92724609375 44.5263671875 C80.32516531496782 119.23181041676244 97.34633572143389 201.42075252505632 107.11328125 281.92578125 C107.27955015419337 283.2600187701599 107.44588862564399 284.59424762332804 107.6123046875 285.928466796875 C107.89810320062867 288.27514536915317 108.16529811370953 290.6242238744077 108.4072265625 292.975830078125 C109.5040457105722 302.04726131376367 112.369420060724 311.05178992518216 119.23828125 317.44921875 C123.49769181314934 320.649911625848 128.33089902228244 322.68828319956253 133.1875 324.8125 C141.72391662608345 328.7140593135148 148.8394342893052 332.8719923541703 156 339 C156.78117187499998 339.621328125 157.56234375000003 340.24265625 158.3671875 340.8828125 C176.05041112404155 355.5066548742074 187.08756615045934 378.87580711595473 189.71875 401.41796875 C191.75392002925673 427.3381203726172 186.07397278575831 453.15897390372504 169.5625 473.8125 C168.05969985265995 475.5573619160391 166.53990617251458 477.2877966333579 165 479 C164.07960937500002 480.04414062499995 164.07960937500002 480.04414062499995 163.140625 481.109375 C148.17487587692398 497.09842320841454 126.03026696133912 507.834422273636 104.110107421875 509.177001953125 C74.82128488006333 509.7743444783541 52.44006359756952 504.3356371407922 29 486 C28.44828124999998 486.734765625 27.896562500000016 487.46953125 27.328125 488.2265625 C21.27165065748943 495.4414899885612 13.335598899590082 500.1907955993543 4.8125 503.9375 C4.172158203125036 504.2196435546875 3.531816406249959 504.501787109375 2.8720703125 504.79248046875 C-12.011290710714093 510.9894535821892 -32.99310250060259 512.1223194468696 -48 506 C-59.63076041770586 501.15693654581196 -69.06607916122849 494.9339208387715 -78 486 C-79.33031249999999 487.23749999999995 -79.33031249999999 487.23749999999995 -80.6875 488.5 C-88.85475116818736 495.4007589393233 -97.66564997388929 500.16339814519597 -107.625 503.875 C-108.38780273437499 504.16109130859377 -109.15060546875 504.4471826171875 -109.9365234375 504.741943359375 C-133.36455104901495 513.0566452696877 -160.8837449818156 511.05966275676747 -183.376708984375 500.840576171875 C-205.62505711978693 490.1453835686566 -223.74288374105498 471.1322083185262 -232.25 447.875 C-241.55895142444783 420.8611448725538 -239.55100231697938 393.64605375351675 -227.55859375 367.90625 C-224.14066295695676 361.2752779982377 -219.82847667303218 355.65938088062853 -215 350 C-214.12794921875002 348.89205078125 -214.12794921875002 348.89205078125 -213.23828125 347.76171875 C-203.91381664234171 336.374140498131 -191.65206857699457 329.31592137512837 -178.321533203125 323.523681640625 C-168.92092661113105 319.3673515448388 -163.62930595225436 314.9356374078177 -159.2373046875 305.4501953125 C-157.21388822465087 299.8079456177517 -156.50086590040644 294.07110275942557 -155.8692626953125 288.1449890136719 C-155.43169762595716 284.0785968905011 -154.90817651025836 280.0227064170487 -154.3984375 275.96484375 C-154.2906396484375 275.0922944641113 -154.18284179687498 274.21974517822264 -154.07177734375 273.3207550048828 C-146.4322151576339 212.18324320799235 -133.66295340284896 151.42416689348912 -114 93 C-113.75380920410157 92.26827575683593 -113.50761840820314 91.53655151367188 -113.25396728515625 90.78265380859375 C-89.35886578396298 19.98085920699515 -89.35886578396298 19.98085920699515 -58.9375 4.6875 C-41.205414289936016 -3.9550118570603416 -18.89968997919624 -7.119550385506601 0 0 Z M-66 38 C-72.17745017732236 45.54092072546479 -75.75796464061449 53.85375884627871 -79.1875 62.875 C-79.7469586159599 64.32113803074337 -80.30644826213015 65.76726405734931 -80.865966796875 67.21337890625 C-87.156284470255 83.60990973372802 -92.6965839270122 100.26182227739054 -98 117 C-98.379951171875 118.197861328125 -98.75990234375001 119.39572265625 -99.1513671875 120.6298828125 C-115.46473263454058 172.63719256486257 -125.53143664727162 226.58194033309545 -132.3671875 280.59375 C-132.52966979980468 281.8610998535156 -132.52966979980468 281.8610998535156 -132.6954345703125 283.154052734375 C-133.20006021903066 287.09784315206514 -133.68866693926878 291.041895325663 -134.1396484375 294.9921875 C-136.0902466631382 311.20913833646756 -141.67566684967073 325.74050933693377 -154.609375 336.3828125 C-160.58089387165427 340.4223693837661 -167.28847059657994 343.2758681213598 -173.80859375 346.3046875 C-179.86396321120526 349.1953942942727 -184.83850833570244 352.7287656188856 -190 357 C-190.99 357.721875 -191.98000000000002 358.44375 -193 359.1875 C-204.44074063375248 368.98026691365516 -213.23207266610743 386.13046831672494 -215 401 C-216.55365637379452 424.1235856966417 -213.01768779090565 444.5015449391789 -197.30078125 462.54296875 C-184.29879252279935 476.4279448270954 -166.33701814828186 486.4628647513029 -146.96875 487.203125 C-125.50645724464025 487.57961438129513 -107.71371486064402 481.66398513651933 -91 468 C-94.04495646701372 459.2590055648413 -101.09245821997126 454.5354688263054 -108.99609375 450.32421875 C-118.39756793421847 446.17974573511043 -126.88051487012245 445.37233337865996 -137.11328125 445.00390625 C-145.21813532711448 444.54550896766017 -145.21813532711448 444.54550896766017 -149.23046875 441.74609375 C-151.97808573345299 437.4821318529416 -151.91113828834187 433.90358060634895 -151 429 C-148.80873183870546 425.902000185756 -147.58943664180978 425.19647888060325 -144 424 C-121.92674631461077 422.1651955374865 -100.9472187579565 426.7899311738349 -83.546875 441.00390625 C-77.13747138404577 446.9481112164092 -72.42293555136331 453.85924541592243 -67.64111328125 461.1357421875 C-59.39733303164883 473.66752434762475 -50.6769801478209 481.6391081349925 -36 486 C-35.3876953125 486.1920703125 -34.775390625 486.384140625 -34.14453125 486.58203125 C-20.785178067594643 489.1857667518531 -7.430563213086543 486.41913117015724 3.8125 478.875 C11.726761824177004 473.2272967732401 16.68550999680093 466.0427533186245 21.9375 458 C32.684853293539504 441.6480698912748 47.3039476830956 430.2899782346607 66.40234375 425.5078125 C73.01390829437906 424.2153261980913 79.40810485665162 423.7896862342295 86.125 423.75 C87.44564453124997 423.7190625 87.44564453124997 423.7190625 88.79296875 423.6875 C93.70770579314689 423.65784849446067 97.00941076450187 423.8013175777719 101 427 C103.47035711622476 429.47035711622476 103.35042280644547 430.39600069994896 103.4375 433.8125 C103.47746093749998 434.6645703125 103.51742187500003 435.516640625 103.55859375 436.39453125 C102.69544571986398 440.4205433905645 101.39135771930688 441.6432937882783 98 444 C93.9975147764747 444.8053804505635 90.01051566053877 444.9205737475289 85.9375 445.0625 C68.88327761735798 446.06253689566097 57.668309582066684 450.10818420026834 45.27734375 462.32421875 C43.846353591395484 464.2015728112885 43.40702346786526 465.6935336820968 43 468 C60.65373638091546 482.3138403088504 80.2522075821903 489.1687616520917 103 487 C122.28015407666686 484.46857334211074 139.68124004103066 474.20143050356495 152.16015625 459.42578125 C165.978505470161 441.20668387055207 168.87605782782123 420.44164844748246 166.609375 398.16015625 C164.25506496554783 386.1924135748682 157.85974849503117 374.26327501200103 150 365 C149.37609375 364.1866015625 148.7521875 363.373203125 148.109375 362.53515625 C140.37605171036216 353.2408473333797 128.93401337282648 346.8383794224368 117.8125 342.5 C105.34879995726124 337.50475729357595 97.33721621569651 328.26980716569545 91.359375 316.515625 C86.90876605785536 305.0054294599708 85.75559168644548 292.7986309734655 84.18313598632813 280.64361572265625 C70.51381456347883 147.63140282442401 70.51381456347883 147.63140282442401 11 31 C-13.67552549803122 12.791694913309282 -45.03639199198744 15.248797510684064 -66 38 Z " fill="none" transform="translate(280,3)"/>

  </g>
</svg>