<?xml version="1.0" encoding="UTF-8"?>
<svg width="100" height="100" viewBox="0 0 100 100" fill="none" xmlns="http://www.w3.org/2000/svg">
  <g transform="translate(25.0609756097561, 25) scale(0.12195121951219512)">
    
<path stroke="#60a5fa" stroke-width="1.5" stroke-linecap="round" d="M0 0 C134.97 0 269.94 0 409 0 C409 135.3 409 270.6 409 410 C274.03 410 139.06 410 0 410 C0 274.7 0 139.4 0 0 Z " fill="none" transform="translate(0,0)"/>
<path stroke="#60a5fa" stroke-width="1.5" stroke-linecap="round" d="M0 0 C67.65 0 135.3 0 205 0 C210 12 210 12 210 14 C209.01 14 208.02 14 207 14 C207.33 47 207.66 80 208 114 C226.519 127.889 239.372 137.005 262 135 C265.695 134.164 268.722 132.879 272 131 C273.114 130.364 273.114 130.364 274.25 129.715 C303.365 111.568 321.84 77.539 337.754 48.281 C340.02 44.132 342.326 40.005 344.625 35.875 C345.472 34.352 346.318 32.828 347.164 31.305 C347.77 30.214 348.376 29.124 349 28 C350.98 28.99 350.98 28.99 353 30 C342.23 52.67 329.875 74.743 315 95 C314.379 95.852 314.379 95.852 313.745 96.722 C307.679 104.991 301.055 112.571 294 120 C293.02 121.094 293.02 121.094 292.02 122.211 C282.102 132.911 268.369 140.912 253.625 141.5 C234.86 140.784 221.556 130.917 207 120 C207 147.06 207 174.12 207 202 C269.04 202 331.08 202 395 202 C394.67 200.68 394.34 199.36 394 198 C407 203 407 203 408 205 C404.04 206.65 400.08 208.3 396 210 C395.34 209.67 394.68 209.34 394 209 C394.33 208.34 394.66 207.68 395 207 C332.96 207 270.92 207 207 207 C207.33 233.73 207.66 260.46 208 288 C212.95 284.37 217.9 280.74 223 277 C236.981 269.363 250.492 264.955 266.449 268.84 C282.985 275.26 296.374 289.217 307 303 C308.149 304.425 308.149 304.425 309.32 305.879 C324.682 325.216 336.748 346.906 348.25 368.688 C348.728 369.591 349.207 370.495 349.7 371.426 C350.351 372.675 350.351 372.675 351.016 373.949 C351.4 374.685 351.785 375.421 352.181 376.178 C353 378 353 378 353 380 C351.68 380.33 350.36 380.66 349 381 C348.429 379.895 347.858 378.791 347.27 377.652 C337.705 359.254 327.917 340.996 316 324 C315.182 322.811 314.364 321.623 313.547 320.434 C308.575 313.273 303.25 306.525 297.543 299.938 C295.83 297.959 294.153 295.948 292.512 293.91 C288.528 289.295 283.783 285.749 279 282 C278.39 281.49 277.781 280.979 277.152 280.453 C268.244 273.361 257.052 271.784 246 273 C231.66 276.022 220.182 285.036 209 294 C208.34 294 207.68 294 207 294 C207 327.33 207 360.66 207 395 C207.99 394.67 208.98 394.34 210 394 C209.573 395.586 209.133 397.169 208.688 398.75 C208.444 399.632 208.2 400.513 207.949 401.422 C206.979 404.058 205.79 405.854 204 408 C203.182 406.419 202.371 404.835 201.562 403.25 C201.11 402.368 200.658 401.487 200.191 400.578 C199.165 398.358 198.485 396.386 198 394 C199.32 394.33 200.64 394.66 202 395 C201.67 363.32 201.34 331.64 201 299 C196.71 300.98 192.42 302.96 188 305 C180.399 307.053 173.163 307.352 165.312 307.312 C164.166 307.308 163.019 307.303 161.837 307.298 C139.235 306.986 119.995 299.584 103.719 283.805 C90.083 269.738 83.207 250.458 79.75 231.562 C79.574 230.621 79.399 229.68 79.218 228.711 C77.936 221.2 78 214.863 78 207 C56.88 207 35.76 207 14 207 C14 207.99 14 208.98 14 210 C12.604 209.544 11.208 209.085 9.812 208.625 C9.035 208.37 8.258 208.115 7.457 207.852 C4.943 206.98 2.471 205.988 0 205 C0 137.35 0 69.7 0 0 Z " fill="none" transform="translate(0,0)"/>
<path stroke="#60a5fa" stroke-width="1.5" stroke-linecap="round" d="M0 0 C20.507 20.507 1 57.998 1 87 C-38.27 87 -77.54 87 -118 87 C-118 67.805 -118 67.805 -116 58 C-115.755 56.746 -115.51 55.491 -115.258 54.199 C-110.83 33.317 -99.159 14.012 -81.125 2.25 C-57.624 -12.482 -23.807 -16.462 0 0 Z " fill="none" transform="translate(201,115)"/>
<path stroke="#60a5fa" stroke-width="1.5" stroke-linecap="round" d="M0 0 C39.27 0 78.54 0 119 0 C119 28.38 119 56.76 119 86 C105.637 92.682 96.829 96.589 82.438 96.438 C80.873 96.424 80.873 96.424 79.277 96.41 C57.248 95.924 38.045 88.578 22.609 72.512 C4.62 51.861 0 26.64 0 0 Z " fill="none" transform="translate(83,207)"/>
<path stroke="#60a5fa" stroke-width="1.5" stroke-linecap="round" d="M0 0 C2.256 2.256 2.966 4.046 4.125 7 C4.655 8.33 4.655 8.33 5.195 9.688 C6 12 6 12 6 14 C5.01 14 4.02 14 3 14 C3.33 47 3.66 80 4 114 C22.519 127.889 35.372 137.005 58 135 C61.695 134.164 64.722 132.879 68 131 C69.114 130.364 69.114 130.364 70.25 129.715 C99.365 111.568 117.84 77.539 133.754 48.281 C136.02 44.132 138.326 40.005 140.625 35.875 C141.472 34.352 142.318 32.828 143.164 31.305 C143.77 30.214 144.376 29.124 145 28 C146.98 28.99 146.98 28.99 149 30 C138.23 52.67 125.875 74.743 111 95 C110.379 95.852 110.379 95.852 109.745 96.722 C103.679 104.991 97.055 112.571 90 120 C89.02 121.094 89.02 121.094 88.02 122.211 C78.102 132.911 64.369 140.912 49.625 141.5 C30.86 140.784 17.556 130.917 3 120 C3 147.06 3 174.12 3 202 C65.04 202 127.08 202 191 202 C190.67 200.68 190.34 199.36 190 198 C203 203 203 203 204 205 C200.04 206.65 196.08 208.3 192 210 C191.34 209.67 190.68 209.34 190 209 C190.33 208.34 190.66 207.68 191 207 C128.96 207 66.92 207 3 207 C3.33 233.73 3.66 260.46 4 288 C8.95 284.37 13.9 280.74 19 277 C32.981 269.363 46.492 264.955 62.449 268.84 C78.985 275.26 92.374 289.217 103 303 C104.149 304.425 104.149 304.425 105.32 305.879 C120.682 325.216 132.748 346.906 144.25 368.688 C144.728 369.591 145.207 370.495 145.7 371.426 C146.351 372.675 146.351 372.675 147.016 373.949 C147.4 374.685 147.785 375.421 148.181 376.178 C149 378 149 378 149 380 C147.68 380.33 146.36 380.66 145 381 C144.429 379.895 143.858 378.791 143.27 377.652 C133.705 359.254 123.917 340.996 112 324 C111.182 322.811 110.364 321.623 109.547 320.434 C104.575 313.273 99.25 306.525 93.543 299.938 C91.83 297.959 90.153 295.948 88.512 293.91 C84.528 289.295 79.783 285.749 75 282 C74.39 281.49 73.781 280.979 73.152 280.453 C64.244 273.361 53.052 271.784 42 273 C27.66 276.022 16.182 285.036 5 294 C4.34 294 3.68 294 3 294 C3 327.33 3 360.66 3 395 C3.99 394.67 4.98 394.34 6 394 C5.573 395.586 5.133 397.169 4.688 398.75 C4.444 399.632 4.2 400.513 3.949 401.422 C2.979 404.058 1.79 405.854 0 408 C-0.818 406.419 -1.629 404.835 -2.438 403.25 C-2.89 402.368 -3.342 401.487 -3.809 400.578 C-4.835 398.358 -5.515 396.386 -6 394 C-4.68 394.33 -3.36 394.66 -2 395 C-2.33 363.32 -2.66 331.64 -3 299 C-7.29 300.98 -11.58 302.96 -16 305 C-23.601 307.053 -30.837 307.352 -38.688 307.312 C-39.834 307.308 -40.981 307.303 -42.163 307.298 C-64.765 306.986 -84.005 299.584 -100.281 283.805 C-113.917 269.738 -120.793 250.458 -124.25 231.562 C-124.426 230.621 -124.601 229.68 -124.782 228.711 C-126.064 221.2 -126 214.863 -126 207 C-147.12 207 -168.24 207 -190 207 C-190 207.99 -190 208.98 -190 210 C-194.721 208.457 -199.417 206.922 -204 205 C-203 203 -203 203 -191 198 C-190.34 198.33 -189.68 198.66 -189 199 C-189.495 199.99 -189.495 199.99 -190 201 C-158.32 201.495 -158.32 201.495 -126 202 C-126 198.7 -126 195.4 -126 192 C-124.345 164.923 -115.791 139.552 -95.812 120.434 C-76.604 103.813 -52.629 99.488 -28 101 C-18.868 102.305 -10.219 105.89 -2 110 C-2.33 78.32 -2.66 46.64 -3 14 C-3.99 14.33 -4.98 14.66 -6 15 C-4.36 9.767 -2.61 4.848 0 0 Z M-94 125 C-94.917 125.777 -94.917 125.777 -95.852 126.57 C-111.709 140.979 -119.953 165.063 -121 186 C-121 191.28 -121 196.56 -121 202 C-81.73 202 -42.46 202 -2 202 C-2 173.62 -2 145.24 -2 116 C-8.637 111.744 -8.637 111.744 -15.5 108.812 C-16.356 108.51 -17.212 108.207 -18.094 107.895 C-44.316 99.824 -73.661 106.717 -94 125 Z M-121 207 C-121 234.563 -115.559 261.37 -96 282 C-79.348 298.282 -58.516 303.669 -35.777 303.546 C-22.782 303.15 -13.435 299.353 -2 293 C-2 264.62 -2 236.24 -2 207 C-41.27 207 -80.54 207 -121 207 Z " fill="none" transform="translate(204,0)"/>
<path stroke="#60a5fa" stroke-width="1.5" stroke-linecap="round" d="M0 0 C0.99 0.33 1.98 0.66 3 1 C3.164 2.905 3.164 2.905 3.332 4.848 C5.897 33.279 11.877 62.623 34.562 82.188 C53.201 96.173 75.059 100.24 98 98 C108.672 96.266 116.536 91.521 126 86 C126.33 58.61 126.66 31.22 127 3 C127.33 3 127.66 3 128 3 C128.33 29.73 128.66 56.46 129 84 C133.95 80.37 138.9 76.74 144 73 C157.981 65.363 171.492 60.955 187.449 64.84 C203.985 71.26 217.374 85.217 228 99 C228.766 99.95 229.531 100.9 230.32 101.879 C245.682 121.216 257.748 142.906 269.25 164.688 C269.728 165.591 270.207 166.495 270.7 167.426 C271.351 168.675 271.351 168.675 272.016 169.949 C272.4 170.685 272.785 171.421 273.181 172.178 C274 174 274 174 274 176 C272.68 176.33 271.36 176.66 270 177 C269.429 175.895 268.858 174.791 268.27 173.652 C258.705 155.254 248.917 136.996 237 120 C236.182 118.811 235.364 117.623 234.547 116.434 C229.575 109.273 224.25 102.525 218.543 95.938 C216.83 93.959 215.153 91.948 213.512 89.91 C209.528 85.295 204.783 81.749 200 78 C199.085 77.234 199.085 77.234 198.152 76.453 C189.244 69.361 178.052 67.784 167 69 C152.66 72.022 141.182 81.036 130 90 C129.34 90 128.68 90 128 90 C128 123.33 128 156.66 128 191 C128.99 190.67 129.98 190.34 131 190 C130.573 191.586 130.133 193.169 129.688 194.75 C129.444 195.632 129.2 196.513 128.949 197.422 C127.979 200.058 126.79 201.854 125 204 C124.182 202.419 123.371 200.835 122.562 199.25 C122.11 198.368 121.658 197.487 121.191 196.578 C120.165 194.358 119.485 192.386 119 190 C120.32 190.33 121.64 190.66 123 191 C122.67 159.32 122.34 127.64 122 95 C117.71 96.98 113.42 98.96 109 101 C101.399 103.053 94.163 103.352 86.312 103.312 C85.166 103.308 84.019 103.303 82.837 103.298 C60.235 102.986 40.995 95.584 24.719 79.805 C11.083 65.738 4.207 46.458 0.75 27.562 C0.574 26.621 0.399 25.68 0.218 24.711 C-1.064 17.2 -1 10.863 -1 3 C-22.45 3.33 -43.9 3.66 -66 4 C-66 3.34 -66 2.68 -66 2 C-44.22 2 -22.44 2 0 2 C0 1.34 0 0.68 0 0 Z " fill="none" transform="translate(79,204)"/>
<path stroke="#60a5fa" stroke-width="1.5" stroke-linecap="round" d="M0 0 C1.32 0.66 2.64 1.32 4 2 C4 29.72 4 57.44 4 86 C66.37 86 128.74 86 193 86 C192.67 84.68 192.34 83.36 192 82 C205 87 205 87 206 89 C202.04 90.65 198.08 92.3 194 94 C193.34 93.67 192.68 93.34 192 93 C192.33 92.34 192.66 91.68 193 91 C130.63 91 68.26 91 4 91 C4 118.39 4 145.78 4 174 C2.02 174.99 2.02 174.99 0 176 C0 147.62 0 119.24 0 90 C-39.27 90 -78.54 90 -119 90 C-119 88.68 -119 87.36 -119 86 C-79.73 86 -40.46 86 0 86 C0 57.62 0 29.24 0 0 Z " fill="none" transform="translate(202,116)"/>
<path stroke="#60a5fa" stroke-width="1.5" stroke-linecap="round" d="M0 0 C2.256 2.256 2.966 4.046 4.125 7 C4.478 7.887 4.831 8.774 5.195 9.688 C6 12 6 12 6 14 C4.68 13.67 3.36 13.34 2 13 C2 46 2 79 2 113 C0.35 112.34 -1.3 111.68 -3 111 C-3 78.99 -3 46.98 -3 14 C-3.99 14.33 -4.98 14.66 -6 15 C-4.36 9.767 -2.61 4.848 0 0 Z " fill="none" transform="translate(204,0)"/>
<path stroke="#60a5fa" stroke-width="1.5" stroke-linecap="round" d="M0 0 C0 33 0 66 0 100 C1.98 99.505 1.98 99.505 4 99 C3.573 100.586 3.133 102.169 2.688 103.75 C2.444 104.632 2.2 105.513 1.949 106.422 C0.979 109.058 -0.21 110.854 -2 113 C-2.818 111.419 -3.629 109.835 -4.438 108.25 C-4.89 107.368 -5.342 106.487 -5.809 105.578 C-6.835 103.358 -7.515 101.386 -8 99 C-6.68 99.33 -5.36 99.66 -4 100 C-4 67.66 -4 35.32 -4 2 C-1 0 -1 0 0 0 Z " fill="none" transform="translate(206,295)"/>
<path stroke="#60a5fa" stroke-width="1.5" stroke-linecap="round" d="M0 0 C0.66 0.33 1.32 0.66 2 1 C1.67 1.66 1.34 2.32 1 3 C22.45 3.33 43.9 3.66 66 4 C66 5.32 66 6.64 66 8 C44.22 8 22.44 8 0 8 C0.33 9.32 0.66 10.64 1 12 C-3.721 10.457 -8.417 8.922 -13 7 C-12 5 -12 5 0 0 Z " fill="none" transform="translate(13,198)"/>

  </g>
</svg>