<?xml version="1.0" encoding="UTF-8"?>
<svg width="100" height="100" viewBox="0 0 100 100" fill="none" xmlns="http://www.w3.org/2000/svg">
  <g transform="translate(25, 25) scale(0.09765625)">
    
<path stroke="#4ade80" stroke-width="1.5" stroke-linecap="round" d="M0 0 C6.480022855191294 4.91006609840511 10.411357004719775 10.998931272748905 12.5625 18.8125 C14.025131278927688 32.25331164740902 10.616982984963556 42.95688786141088 3.08984375 54.0078125 C1.3091492480563716 56.11185561994364 0.015488448310748026 57.51160837923209 -2.4375 58.8125 C-8.051280213477128 58.57141741414517 -13.196447323208986 56.716460901169484 -18.5 55 C-29.305507722120467 51.62689505301961 -40.24872406879189 49.47402082637524 -51.4375 47.8125 C-52.132788085937506 47.70792480468751 -52.82807617187501 47.603349609375016 -53.54443359375 47.49560546875 C-60.8910758988016 46.53360662861792 -68.28939417517344 46.56982709762869 -75.6875 46.5625 C-76.3951449584961 46.561492919921875 -77.10278991699218 46.56048583984375 -77.83187866210938 46.5594482421875 C-89.91351247807194 46.57102900788698 -101.5736394180816 47.4648390901196 -113.4375 49.8125 C-114.3346875 49.98894042968749 -115.231875 50.165380859375006 -116.15625 50.34716796875 C-121.59941195719799 51.43369801533254 -127.02257947304327 52.59336932135946 -132.4375 53.8125 C-131.9528125 54.76124999999999 -131.468125 55.71000000000001 -130.96875 56.6875 C-119.72007635269188 79.29246300423301 -111.38790875640876 104.7840005822307 -111.234375 130.23828125 C-111.22731536865234 131.0192315673828 -111.22025573730468 131.80018188476564 -111.21298217773438 132.60479736328125 C-110.98586353866025 165.09607521107284 -110.98586353866025 165.09607521107284 -114.4375 178.8125 C-114.76741943359377 180.16359863281252 -114.76741943359377 180.16359863281252 -115.10400390625 181.5419921875 C-115.830247419344 184.45378542779247 -116.5916717351131 187.3530657340416 -117.375 190.25 C-117.6155712890625 191.1459790039063 -117.856142578125 192.04195800781247 -118.10400390625 192.965087890625 C-120.45044277803842 201.03593453423173 -120.45044277803842 201.03593453423173 -124.4375 203.8125 C-127.18226806465401 204.54157901717372 -129.661958998984 204.3710277579047 -132.4375 203.8125 C-135.37465732911932 201.85439511392048 -136.22553374134998 200.56727932312947 -137.17578125 197.18359375 C-137.51180974602698 192.855346107145 -136.49351737774776 189.5948334910047 -135.1875 185.5 C-130.57907489839212 170.92483303663073 -128.89604223485682 156.5894066090383 -129.0625 141.375 C-129.0694790649414 140.2287112426758 -129.0694790649414 140.2287112426758 -129.07659912109375 139.05926513671875 C-129.15723111077216 127.74036498856569 -129.61465305156082 116.81475522221851 -132.4375 105.8125 C-132.73551513671876 104.58998535156249 -132.73551513671876 104.58998535156249 -133.03955078125 103.3427734375 C-136.76337764640405 88.30799680590428 -142.46618454441477 74.60404977126615 -149.4375 60.8125 C-181.45822572664338 71.56528544809362 -209.4286855248198 92.52756937834283 -233.4375 115.8125 C-234.068818359375 116.416103515625 -234.70013671875 117.01970703125 -235.3505859375 117.6416015625 C-235.970947265625 118.244560546875 -236.59130859375 118.84751953124999 -237.23046875 119.46875 C-238.06807739257812 120.277958984375 -238.06807739257812 120.277958984375 -238.922607421875 121.103515625 C-244.86292349727762 127.80491973907226 -245.7997479173318 135.60200243534763 -245.7109375 144.234375 C-245.03704870163278 153.05269127577674 -240.42220323768623 158.667287480077 -234.4375 164.8125 C-233.68210937499998 165.6065625 -232.92671875 166.400625 -232.1484375 167.21875 C-226.27916216952147 173.25571891134933 -220.07002790397402 178.63506750353048 -213.4375 183.8125 C-212.8948046875 184.24755859375 -212.352109375 184.6826171875 -211.79296875 185.130859375 C-166.8757282224104 221.07479112901922 -110.89562841496897 239.849949449573 -53.390625 234.30859375 C-11.32855721790088 229.31650344918683 28.57561229086474 208.90265812209503 59.9296875 180.8203125 C67.9559494640983 173.66368938886217 75.95128102610141 167.83812773744512 87.23828125 168.42578125 C95.50164611897031 169.8006940601312 102.7934686829081 172.97039882999758 108.016845703125 179.680908203125 C109.50509698510047 181.8069454218413 110.94422846550202 183.9599108883358 112.375 186.125 C116.80849393699697 192.59411394799508 121.11479409626446 198.20699578304607 127.5625 202.8125 C128.305 203.34875 129.0475 203.885 129.8125 204.4375 C140.50845344866377 211.47431147938403 152.98561637917572 214.39150303103668 165.5625 215.8125 C166.6228281364851 209.69851114849325 166.78032387608528 203.69792586907812 166.8125 197.5 C166.833125 196.51837890625 166.85375 195.5367578125 166.875 194.525390625 C166.9065016861698 188.57550964967425 166.21260042985273 183.5889733590601 164.252685546875 177.96142578125 C162.796784951409 173.4284094949777 162.9238004439291 170.11766865805794 165 165.875 C168.2425592474969 163.26513523981959 170.28986455348064 163.21785334668698 174.34375 163.1484375 C177.66228806893906 164.14166192204164 178.69354646980298 165.9541004832281 180.5625 168.8125 C188.21515478476243 185.86563813147683 186.84241677721832 209.55418856479787 180.5625 226.8125 C179.61597100481947 229.26258611584342 179.02211850124252 230.46696341792028 176.92578125 232.04296875 C173.54817379319775 233.14278473180173 170.26492189607688 233.15217723115524 166.75 233.125 C165.62319824218753 233.1176281738281 165.62319824218753 233.1176281738281 164.4736328125 233.110107421875 C141.2197022200616 232.63319151258543 121.18795771897413 222.83545891661032 105.15234375 206.33203125 C101.47967720851807 202.3773235383876 98.20841922142773 198.43311775413497 95.3125 193.875 C93.1259437744406 190.49033077413407 91.51788681341822 188.16311988750863 87.5625 186.8125 C82.37605674562116 187.1441911383614 79.60376393221583 188.04247713544157 75.75 191.5 C74.8051171875 192.31210937499998 73.860234375 193.12421875 72.88671875 193.9609375 C72.3625537109375 194.414365234375 71.83838867187501 194.86779296875 71.29833984375 195.3349609375 C59.15014776136951 205.67544736261488 46.258106533960586 214.6581312033744 32.5625 222.8125 C31.8212890625 223.25529296875004 31.080078125 223.69808593749997 30.31640625 224.154296875 C22.97804808600847 228.50368027879176 15.864234622964318 232.58882108313458 7.5625 234.8125 C7.839648437499989 235.41578125 8.116796874999977 236.01906250000002 8.40234375 236.640625 C8.764570312499984 237.43984375000002 9.126796875000025 238.2390625 9.5 239.0625 C9.859648437500027 239.85140624999997 10.219296874999998 240.6403125 10.58984375 241.453125 C13.941170599301643 249.58244795975185 13.974005290755827 260.16513517731227 10.875 268.375 C6.411431062180839 277.70231991833936 -0.5486387965478343 282.6104761345656 -9.82421875 286.921875 C-27.35135778489348 292.9053749603823 -48.4242264592944 289.0592448046361 -64.625 281.125 C-77.67037501144901 274.3716725388781 -90.28328520773286 265.541145864509 -99.65625 254.10546875 C-103.63550695208033 250.82481730214727 -107.42352353590906 250.5566215175727 -112.4375 249.875 C-123.74781305645126 248.0737070069855 -134.53849766090963 245.311391667547 -145.4375 241.8125 C-146.119091796875 241.59400390625 -146.80068359375 241.37550781250002 -147.5029296875 241.150390625 C-180.56905721239968 230.25683619459716 -210.648857560341 210.93039837057597 -236.4375 187.8125 C-236.976328125 187.3353857421875 -237.51515625000002 186.858271484375 -238.0703125 186.36669921875 C-262.25594846730064 164.93407797357264 -262.25594846730064 164.93407797357264 -263.614501953125 148.697021484375 C-264.1532492725313 128.7977131249492 -264.1532492725313 128.7977131249492 -259.4375 119.8125 C-259.0598046875 119.01328125 -258.682109375 118.21406250000001 -258.29296875 117.390625 C-253.96646733170115 109.18203620636953 -247.14222831438818 103.07404928313608 -240.4375 96.8125 C-239.40109375 95.84183593750001 -239.40109375 95.84183593750001 -238.34375 94.8515625 C-236.415073302005 93.11744529346942 -234.4406251145943 91.4602881377445 -232.4375 89.8125 C-231.70104248046874 89.19737548828124 -231.70104248046874 89.19737548828124 -230.94970703125 88.56982421875 C-209.30997276384213 70.54835000778758 -185.55109501953388 55.453637080559474 -159.4375 44.8125 C-158.790712890625 44.54244140624999 -158.14392578125 44.272382812499984 -157.4775390625 43.994140625 C-141.78429121170916 37.48542031822038 -124.93007983511703 32.810582167713875 -108.02001953125 31.012939453125 C-104.40560527564872 30.545418177222956 -102.72297321195657 30.113257615360112 -100.17578125 27.4296875 C-99.6021484375 26.566015625000006 -99.02851562500001 25.70234375000001 -98.4375 24.8125 C-95.89085758630009 22.338142196295934 -93.16036921009959 20.090239287057216 -90.4375 17.8125 C-89.34115234375 16.86697265625 -89.34115234375 16.86697265625 -88.22265625 15.90234375 C-64.79303798058817 -3.7068043190751325 -28.332098591489626 -17.968735094897525 0 0 Z M-73.28515625 26.53125 C-73.9954296875 27.284062500000005 -74.70570312500001 28.03687500000001 -75.4375 28.8125 C-74.40701538085938 28.864102783203123 -74.40701538085938 28.864102783203123 -73.355712890625 28.916748046875 C-52.74810607257493 30.018439418415994 -32.24598247045401 32.23236048057365 -12.6953125 39.2109375 C-10.297665588189034 40.071338906808876 -10.297665588189034 40.071338906808876 -7.4375 38.8125 C-4.276547161147221 33.3101006138489 -3.5120706423008414 28.103340015820038 -4.4375 21.8125 C-7.224118987565021 16.024906718134133 -11.305747219224997 13.229245305588677 -17.0625 10.625 C-36.175119889385655 6.0238137303330745 -59.023328000899426 12.915018914438974 -73.28515625 26.53125 Z M-14.62890625 243.01953125 C-34.94831536996253 249.10806003599293 -54.27321148740191 251.50947040991298 -75.4375 252.8125 C-65.57093005339811 263.4153811366468 -48.85213576834377 271.3837793510105 -34.36328125 272.05078125 C-20.598419343270052 272.55074814645235 -20.598419343270052 272.55074814645235 -8.765625 266.28125 C-4.977108116955776 261.93935424639875 -4.109567547672839 258.91879687784774 -4.13671875 253.34375 C-4.639712904905309 249.11076022884885 -6.460355247673988 245.54612602782998 -8.4375 241.8125 C-10.736520560869337 241.8125 -12.427776701707444 242.34779879655156 -14.62890625 243.01953125 Z " fill="none" transform="translate(295.4375,115.1875)"/>
<path stroke="#4ade80" stroke-width="1.5" stroke-linecap="round" d="M0 0 C0.7373437500000364 -0.02900390625001137 1.474687499999959 -0.058007812499994316 2.234375 -0.087890625 C5.80239466254352 -0.12945357805830326 8.12770350397409 0.17377269735132472 11.2578125 1.9296875 C13.796735519606386 4.787146987010857 14.621864417326947 7.073253055033149 15.625 10.75 C15.939531249999959 11.862460937500003 16.254062500000032 12.974921875000007 16.578125 14.12109375 C21.715678861953393 34.6964932853721 19.48441608638143 57.35624286464795 8.7109375 75.69921875 C2.70513935680151 85.30797848384259 -5.342662636292289 95.17133131814614 -15.625 100.3125 C-22.677132701421783 100.8812203791469 -22.677132701421783 100.8812203791469 -26.125 98.8125 C-28.218986403748715 95.32252266041883 -28.498648381697592 92.21637024614415 -27.625 88.3125 C-25.98697969438649 86.1830736027024 -24.690440624392693 84.95378763902636 -22.625 83.3125 C-10.617754319370647 73.17124520217118 -2.3368034271347824 62.18686669221131 0.375 46.3125 C0.46295954720130794 44.62931938166929 0.5055783907326941 42.943288362960914 0.5078125 41.2578125 C0.5097460937499818 39.84048828125 0.5097460937499818 39.84048828125 0.51171875 38.39453125 C0.5078515625000364 37.41871093750001 0.5039843749999591 36.44289062499999 0.5 35.4375 C0.5038671874999636 34.46941406249999 0.5077343750000409 33.501328124999986 0.51171875 32.50390625 C0.5046816235366691 27.33161829944632 0.26931457994487573 22.40867355873371 -0.625 17.3125 C-19.78108748730176 20.134294923279185 -36.94072196544914 25.48419605934177 -49.80078125 40.8515625 C-51.879460649025646 43.65577667855709 -53.74712308313019 46.55787175500092 -55.625 49.5 C-60.752879166547075 57.34146502899998 -66.06856047590998 61.52094687896039 -75.19140625 63.83984375 C-83.0854837597467 65.37304339475017 -89.50814493785157 64.01165630348959 -96.625 60.3125 C-99.15084399783399 58.34607111578026 -101.40990426578946 56.220924257369234 -103.71484375 54 C-112.84806831534843 45.56555905911446 -123.2259302025821 38.29058837812315 -133.715576171875 31.646728515625 C-137.48647816417918 29.225869838817687 -140.68108193190642 26.70180788651365 -143.625 23.3125 C-144.25 19.8125 -144.25 19.8125 -143.625 16.3125 C-141.5625 13.375 -141.5625 13.375 -138.625 11.3125 C-131.4993155051585 10.11276740648077 -127.25826469328229 13.595263158507663 -121.6875 17.5 C-120.76743164062498 18.129143066406243 -119.84736328125001 18.758286132812486 -118.8994140625 19.406494140625 C-109.45307199097664 25.954266257619395 -100.62993676425799 33.198452570239596 -91.88671875 40.64453125 C-87.59577939479743 44.185457675889865 -84.46746485687453 46.643205557936284 -78.625 46.3125 C-73.85457958096225 43.665074628375066 -71.36901370872431 40.90292193395885 -68.5 36.3125 C-56.73778939636401 18.47416036145387 -39.37543316046498 6.8388459994474715 -18.546875 1.890625 C-12.346243230132359 0.663762029491437 -6.304827055221608 0.08354452811690294 0 0 Z " fill="none" transform="translate(461.625,163.6875)"/>
<path stroke="#4ade80" stroke-width="1.5" stroke-linecap="round" d="M0 0 C8.101458530558887 4.4162085974851095 11.956275640915067 12.011604639679632 14.87890625 20.421875 C19.007071270860592 35.11390845885768 18.225941780120195 53.33717893975961 11.390625 67.0078125 C7.8282194878636915 72.9201180336961 3.2155038041909734 76.95432941795173 -3.359375 79.1328125 C-16.1522126185109 80.82280333746843 -26.691501934167377 74.42809805919774 -37.359375 68.1328125 C-39.74063412079491 65.75155337920512 -39.70459141436561 65.02573712070046 -39.796875 61.7578125 C-39.71121106731084 58.2113256866686 -39.58672271838719 57.40696710158454 -37.234375 54.5703125 C-33.795295702978024 52.85077285148901 -32.18115851763167 52.74164171643065 -28.359375 53.1328125 C-24.84122498788969 54.54143789294716 -21.587689521515415 56.449389382765844 -18.28125 58.2890625 C-14.109381972643689 60.518304957365956 -11.226869017154797 61.619561901715485 -6.359375 61.1328125 C-5.7094220285003985 59.71803114808455 -5.064587775292921 58.30089762698083 -4.421875 56.8828125 C-3.882402343750016 55.69945312499999 -3.882402343750016 55.69945312499999 -3.33203125 54.4921875 C0.4149369853552969 45.40315611785297 0.05855548351044604 32.78730218870788 -3.296875 23.6328125 C-4.249436643506158 21.420411263469532 -5.2827065728259015 19.286149354348197 -6.359375 17.1328125 C-12.085384004528095 16.560211599547188 -15.519654941215748 18.440035925939583 -20.359375 21.1328125 C-28.812828116226825 25.836237542111178 -28.812828116226825 25.836237542111178 -34.359375 25.1328125 C-37.234375 23.6953125 -37.234375 23.6953125 -39.359375 21.1328125 C-40.071901143898344 18.001145173995184 -40.28381284508663 15.221522476524711 -39.359375 12.1328125 C-30.16755154536949 2.904657727366981 -12.615599658539509 -4.636859477145322 0 0 Z " fill="none" transform="translate(243.359375,216.8671875)"/>
<path stroke="#4ade80" stroke-width="1.5" stroke-linecap="round" d="M0 0 C0.6599999999999966 -0.010312499999997726 1.3199999999999932 -0.020624999999995453 2 -0.03125 C4.917961037071876 0.7438334004722265 6.09310880101944 2.191041670016375 8 4.5 C8.517578125 7.09375 8.517578125 7.09375 8.53125 10 C8.536406249999999 11.051874999999995 8.541562499999998 12.103749999999991 8.546875 13.1875 C8.531406250000003 14.280624999999986 8.515937500000007 15.373750000000001 8.5 16.5 C8.515468749999997 17.593124999999986 8.530937499999993 18.68625 8.546875 19.8125 C8.541718750000001 20.864374999999995 8.536562500000002 21.91624999999999 8.53125 23 C8.526738281250005 23.959062500000016 8.522226562500009 24.918125000000003 8.517578125 25.90625 C7.8577250035570785 29.212985642551672 6.5888644548196 30.409087064968304 4 32.5 C2 33.03125 2 33.03125 0 33 C-0.9899999999999949 33.01546875 -0.9899999999999949 33.01546875 -2 33.03125 C-4.917961037071862 32.25616659952777 -6.09310880101944 30.808958329983625 -8 28.5 C-8.517578125 25.90625 -8.517578125 25.90625 -8.53125 23 C-8.536406249999999 21.948125000000005 -8.541562499999998 20.89625000000001 -8.546875 19.8125 C-8.531406250000003 18.719375000000014 -8.515937500000007 17.62625 -8.5 16.5 C-8.515468749999997 15.406875000000014 -8.530937499999993 14.313749999999999 -8.546875 13.1875 C-8.539140625000002 11.609687500000007 -8.539140625000002 11.609687500000007 -8.53125 10 C-8.526738281250005 9.040937500000013 -8.522226562499995 8.081874999999997 -8.517578125 7.09375 C-7.603298736002856 2.5120027223086367 -4.674339639171791 -0.07303655686206412 0 0 Z " fill="none" transform="translate(120,222.5)"/>

  </g>
</svg>