<?xml version="1.0" encoding="UTF-8"?>
<svg width="100" height="100" viewBox="0 0 100 100" fill="none" xmlns="http://www.w3.org/2000/svg">
  <g transform="translate(25, 25) scale(0.09765625)">
    
<path stroke="#4ade80" stroke-width="1.5" stroke-linecap="round" d="M0 0 C1.2762020874023392 -0.010430989265444168 2.5524041748046784 -0.020861978530888337 3.867279052734375 -0.03160905838012695 C5.276104993010463 -0.022961589840889474 6.684928646634717 -0.01393499578796309 8.09375 -0.00457000732421875 C9.596085657577007 -0.009179962580674328 11.098416805757665 -0.01553351858797214 12.600738525390625 -0.023478984832763672 C16.725894459882056 -0.040182630814399545 20.85068041322789 -0.031921353299082966 24.97583770751953 -0.01953411102294922 C29.425811884590445 -0.010490146572408321 33.87572209161286 -0.024450095848408182 38.32568359375 -0.03545379638671875 C47.04190467060357 -0.05325059523406139 55.75798805649288 -0.04939386783445343 64.47421455383301 -0.03780323266983032 C71.5573654788372 -0.028773752578445055 78.64047778516192 -0.027542809257454337 85.7236328125 -0.03189849853515625 C86.73131902694703 -0.03251143068075635 87.73900524139404 -0.033124362826356446 88.7772274017334 -0.033755868673324585 C90.82425182197187 -0.03503475576468418 92.87127623106346 -0.03633160834377236 94.91830062866211 -0.03764623403549194 C114.11825091169399 -0.04905543307305038 133.31812483186985 -0.03593299046235643 152.51806259155273 -0.01444476842880249 C168.99645497497238 0.0034265152002888044 185.4747346505187 0.0003225035320610914 201.953125 -0.01811981201171875 C221.08385067056173 -0.0395205132976173 240.21450939321585 -0.04795676474654442 259.3452453613281 -0.03567075729370117 C261.3847859596304 -0.0343965457514912 263.4243265684543 -0.033139063296033555 265.4638671875 -0.03189849853515625 C266.96915009498593 -0.030972845405329963 266.96915009498593 -0.030972845405329963 268.5048427581787 -0.030028492212295532 C275.5803932747955 -0.02657319253310675 282.65590136591527 -0.03240781773754975 289.7314453125 -0.04181671142578125 C298.3528926528243 -0.0530291759411341 306.97419429882035 -0.050012491000529735 315.59562492370605 -0.028693735599517822 C319.99537043203367 -0.018173179039109755 324.39487292791654 -0.014078559048073203 328.79461669921875 -0.02729034423828125 C332.82138186861926 -0.039199353647688895 336.84767850080675 -0.032676631970957715 340.8744010925293 -0.011380136013031006 C342.33191845089624 -0.006907706850029172 343.7894752967882 -0.009194766427128798 345.2469673156738 -0.01888328790664673 C347.22711757961196 -0.03103758363675979 349.2073785748478 -0.016184447223452025 351.1875 0 C352.28771484375 0.0006494092941409235 353.3879296875 0.0012988185882534253 354.521484375 0.001967906951904297 C359.5539285164497 0.8232675509931653 362.65359461629356 3.4220010405155676 365.9386863708496 7.200502395629883 C368.06376958728384 11.441340532863308 368.14157437332744 14.675066977609845 368.07476806640625 19.349159240722656 C368.0781857657432 20.228165994882573 368.08160346508026 21.10717274904252 368.08512473106384 22.012816071510315 C368.09170209815636 24.95189411710436 368.06972982653684 27.89005455229767 368.0478515625 30.82904815673828 C368.04672305483 32.938280521999616 368.0473570088967 35.047514459166536 368.04962158203125 37.15674591064453 C368.050769518886 42.87948628779006 368.0272469566345 48.60189149834176 367.9993257522583 54.32455396652222 C367.9743255975098 60.30631023138747 367.97197118205906 66.28807412545012 367.96722412109375 72.2698745727539 C367.9547903084838 83.59577522491907 367.92196306226697 94.92152148975248 367.88182616233826 106.24735414981842 C367.83712120139603 119.14202666406607 367.81512459398704 132.03670653969044 367.79504442214966 144.93143725395203 C367.753230908822 171.4554986257191 367.6828708211322 197.97942294488797 367.59375 224.50336456298828 C368.2287744140625 224.48241729736327 368.863798828125 224.46147003173826 369.51806640625 224.43988800048828 C372.4181307632061 224.35631875584136 375.31794115756503 224.30457682502367 378.21875 224.25336456298828 C379.2177734375 224.21984893798827 380.216796875 224.18633331298827 381.24609375 224.15180206298828 C387.3973741026208 224.07032815103304 390.92960381073 224.3712751463114 395.59375 228.50336456298828 C400.76822823215065 234.62649713769986 400.37782868313565 240.90193438782035 399.81689453125 248.50531768798828 C398.44382273791626 260.79986862523464 391.0163655202378 271.7525034092443 381.59375 279.5033645629883 C370.3711422983005 287.54117818717845 359.9353116166306 288.95149763741904 346.3493957519531 288.8910446166992 C344.8148878215128 288.89522292235586 343.28038298317557 288.90070315732476 341.7458838224411 288.90736442804337 C337.5501970633988 288.9217726623955 333.35470751383286 288.9175888402839 329.15901017189026 288.9101976156235 C324.6258348105829 288.90545675933106 320.0927015505372 288.91798390915244 315.5595397949219 288.92821502685547 C306.68680246464197 288.94539046047294 297.8141359925032 288.94624563042 288.9413863569498 288.94100212305784 C281.7277613697925 288.93695680896997 274.51415728642775 288.9384082764908 267.30053329467773 288.9437503814697 C265.7591110837832 288.94487301452085 265.7591110837832 288.94487301452085 264.18654903024435 288.94601832702756 C262.0987891405442 288.94754984206565 260.01102925584524 288.94908818959533 257.9232693761587 288.9506332948804 C238.35497420405392 288.96435382617045 218.78671903751962 288.9589238109077 199.21842478215694 288.94744808226824 C181.32778228914168 288.93751645089077 163.4372432287023 288.9504559764828 145.5466166883707 288.9743822738528 C127.16318966423225 288.9987818315035 108.77981079720371 289.0083790159559 90.39636790752411 289.00172954797745 C80.08079512727937 288.9982392025075 69.76530188012492 289.0004572242055 59.44974136352539 289.0179805755615 C50.66827225913991 289.03271325160847 41.88693869833578 289.03332404088127 33.10547222197056 289.01590966433287 C28.62799204649619 289.00740605382583 24.150753897568677 289.00523446025124 19.67328643798828 289.0205612182617 C15.568661322168936 289.03443738781647 11.464484912028382 289.02960783764286 7.359885558485985 289.0103219822049 C5.880843411713812 289.00657061054 4.401765068709153 289.009458925821 2.922755256295204 289.0199336335063 C-12.977696098330512 289.1244718642459 -24.475959728324817 285.02772030738714 -36.15625 274.1908645629883 C-44.797225967114386 265.06077674867873 -48.58575910175401 254.67378352140236 -48.84375 242.25336456298828 C-48.8661474609375 241.5796682739258 -48.888544921874995 240.9059719848633 -48.91162109375 240.21186065673828 C-48.88788854054616 235.1618231513097 -47.64949258433715 232.32402304836387 -44.40625 228.50336456298828 C-38.9650288354085 223.68441796477936 -34.07773526079499 224.0169663477874 -27.03125 224.25336456298828 C-26.009023437500005 224.27141143798826 -24.986796874999996 224.28945831298824 -23.93359375 224.30805206298828 C-21.423502514873064 224.35496965616824 -18.915372355265774 224.42059726885367 -16.40625 224.50336456298828 C-16.409937171936036 223.40599660873414 -16.413624343872073 222.30862865448 -16.417423248291016 221.1780071258545 C-16.50618516090472 194.48798115355783 -16.571935769014885 167.79797430302284 -16.61349868774414 141.10783195495605 C-16.634131965930194 128.20072308734592 -16.6622673497685 115.29371166847227 -16.7080078125 102.38666534423828 C-16.74785194645294 91.13809222161052 -16.77367723731564 79.88958966654218 -16.782603979110718 68.6409479379654 C-16.78782278789012 62.68376724015803 -16.80010510996584 56.7267884420223 -16.82917022705078 50.76967239379883 C-16.856300835508378 45.16367949856027 -16.86469965462011 39.55797186606799 -16.858680725097656 33.95191955566406 C-16.85978200571232 31.89357580006498 -16.867749733745462 29.835222598260145 -16.883071899414063 27.776935577392578 C-16.902962736944644 24.967325674753823 -16.898192312966586 22.158793899534032 -16.88726806640625 19.349159240722656 C-16.89891943216324 18.533973354101192 -16.91057079792023 17.7187874674797 -16.92257523536682 16.878898978233337 C-16.867434392357765 11.635017881721808 -15.965802344634227 8.597549554669996 -12.40625 4.503364562988281 C-8.142707982146149 1.185409450409992 -5.391448364882166 0.00318233906483556 0 0 Z M15.59375 32.50336456298828 C15.59375 95.8633645629883 15.59375 159.2233645629883 15.59375 224.50336456298828 C121.19375000000002 224.50336456298828 226.79375000000005 224.50336456298828 335.59375 224.50336456298828 C335.59375 161.14336456298827 335.59375 97.78336456298825 335.59375 32.50336456298828 C229.99374999999998 32.50336456298828 124.39374999999998 32.50336456298828 15.59375 32.50336456298828 Z " fill="none" transform="translate(80.40625,191.49663543701172)"/>
<path stroke="#4ade80" stroke-width="1.5" stroke-linecap="round" d="M0 0 C2.8059946206763584 1.3547687940385345 5.575899350363159 2.7741770428379198 8.345947265625 4.20068359375 C9.840545355217728 4.9502947956074195 11.336010631100521 5.698179200346885 12.832290649414063 6.444427490234375 C15.948702667736711 8.005055389378299 19.056354904799377 9.581527716997812 22.158203125 11.1708984375 C26.121801228233437 13.201001705055774 30.10142323408661 15.196941600341518 34.087645530700684 17.18218421936035 C37.17048714148632 18.720664148126502 40.24600507487901 20.27332328611601 43.319353103637695 21.830669403076172 C44.78431294673442 22.571729038752608 46.25106447787812 23.309258359018145 47.71966361999512 24.043079376220703 C49.772273792126896 25.07228557475247 51.814724317988066 26.11937731319574 53.85546875 27.171875 C55.0161839294434 27.762557678222663 56.17689910888669 28.353240356445326 57.37278747558594 28.961822509765625 C61.42181205731055 31.588409541491046 64.28744073520602 34.599295532912095 66.474853515625 38.97412109375 C66.58831500935702 41.35280101895381 66.6426362070352 43.70291413673118 66.65185546875 46.08251953125 C66.65842666625974 46.814445190429694 66.66499786376954 47.54637084960939 66.67176818847656 48.30047607421875 C66.69151415360074 50.728150423053876 66.70316765469971 53.15576282347291 66.713134765625 55.58349609375 C66.71721029281616 56.41264778137207 66.72128582000732 57.241799468994145 66.72548484802246 58.09607696533203 C66.74635281195634 62.48608654487538 66.76065041049435 66.87606481334115 66.77001953125 71.26611328125 C66.7810753815196 75.7967804357807 66.81546335631197 80.3269552797019 66.85519123077393 84.85744857788086 C66.88136304710099 88.34394226871711 66.88971193386749 91.83031887911494 66.89330101013184 95.31690216064453 C66.89816685979008 96.98662891125724 66.90978087996325 98.65635043419672 66.9283390045166 100.32598114013672 C66.9527396179164 102.66709616608335 66.95176416783079 105.00694074340504 66.94482421875 107.34814453125 C66.96403930664064 108.37705810546873 66.96403930664064 108.37705810546873 66.983642578125 109.4267578125 C66.93029873447836 114.38050155244684 65.5801517446398 117.16745906138908 62.474853515625 120.97412109375 C60.82366943359375 122.39823913574219 60.82366943359375 122.39823913574219 59.094970703125 123.394775390625 C58.39513061523439 123.79989349365235 57.695290527343786 124.2050115966797 56.9742431640625 124.62240600585938 C51.53432939833681 127.56440967405581 46.06222784123395 130.43431334845934 40.552978515625 133.24365234375 C39.891274032592776 133.5810764122009 39.22956954956055 133.91850048065186 38.547813415527344 134.26614952087402 C35.048393079902894 136.04824262406828 31.54584082643214 137.82402742723127 28.041259765625 139.595947265625 C25.163988256887308 141.0524123013139 22.294159347795585 142.52220331393244 19.429931640625 144.004150390625 C15.943054762962106 145.80813738228818 12.44470966754352 147.5877414520054 8.937156677246094 149.35117149353027 C7.614278072190359 150.02109896612615 6.295477398808373 150.69915049406694 4.981239318847656 151.38587379455566 C-3.058769210979335 155.57726420092297 -10.32657061020501 158.94943941939397 -19.525146484375 156.97412109375 C-25.046278508362576 154.98545929776867 -30.185637374056682 152.43089091933638 -35.396240234375 149.74755859375 C-36.8908383239677 148.99794739189258 -38.38630359985052 148.25006298715311 -39.88258361816406 147.50381469726563 C-42.99899563648668 145.9431867981217 -46.10664787354938 144.3667144705022 -49.20849609375 142.77734375 C-53.17209419698344 140.74724048244423 -57.15171620283658 138.75130058715848 -61.137938499450684 136.76605796813965 C-64.22078011023649 135.2275780393735 -67.2962980436289 133.674918901384 -70.3696460723877 132.11757278442383 C-71.83460591548447 131.37651314874734 -73.30135744662812 130.63898382848186 -74.76995658874512 129.9051628112793 C-76.82256676087687 128.87595661274753 -78.86501728673812 127.82886487430426 -80.90576171875 126.7763671875 C-82.64683448791504 125.89034317016603 -82.64683448791504 125.89034317016603 -84.42308044433594 124.98641967773438 C-88.47210502606055 122.35983264600895 -91.33773370395605 119.3489466545879 -93.525146484375 114.97412109375 C-93.63860797810705 112.59544116854607 -93.6929291757852 110.24532805076888 -93.7021484375 107.86572265625 C-93.70871963500977 107.1337969970703 -93.71529083251954 106.40187133789061 -93.72206115722656 105.64776611328125 C-93.74180712235074 103.22009176444612 -93.75346062344971 100.79247936402709 -93.763427734375 98.36474609375 C-93.76750326156616 97.53559440612793 -93.77157878875732 96.70644271850585 -93.77577781677246 95.85216522216797 C-93.79664578070634 91.46215564262462 -93.81094337924432 87.0721773741588 -93.8203125 82.68212890625 C-93.83136835026963 78.15146175171924 -93.865756325062 73.6212869077981 -93.90548419952393 69.09079360961914 C-93.93165601585093 65.604299918783 -93.94000490261749 62.117923308384945 -93.94359397888184 58.63134002685547 C-93.94845982854011 56.96161327624276 -93.96007384871328 55.291891753303275 -93.9786319732666 53.62226104736328 C-94.0030325866664 51.2811460214167 -94.00205713658082 48.94130144409485 -93.9951171875 46.60009765625 C-94.00792724609374 45.91415527343747 -94.02073730468749 45.228212890625 -94.033935546875 44.521484375 C-93.98059170322838 39.5677406350531 -92.6304447133898 36.78078312611092 -89.525146484375 32.97412109375 C-87.87396240234372 31.550003051757813 -87.87396240234372 31.550003051757813 -86.145263671875 30.553466796875 C-85.44542358398436 30.14834869384765 -84.74558349609376 29.743230590820303 -84.0245361328125 29.325836181640625 C-78.58462236708684 26.38383251344419 -73.11252080998395 23.51392883904066 -67.603271484375 20.70458984375 C-66.94156700134278 20.3671657752991 -66.27986251831055 20.029741706848142 -65.59810638427734 19.682092666625977 C-62.09868604865292 17.89999956343172 -58.59613379518214 16.12421476026873 -55.091552734375 14.352294921875 C-52.214281225637365 12.895829886186107 -49.344452316545556 11.426038873567535 -46.480224609375 9.944091796875 C-42.99334773171205 8.140104805211791 -39.49500263629352 6.360500735494611 -35.987449645996094 4.597070693969727 C-34.66457104094036 3.927143221373882 -33.34577036755837 3.2490916934330585 -32.031532287597656 2.562368392944336 C-20.562798265924243 -3.4164737405297387 -12.13559593258293 -5.54318960051944 0 0 Z M-20.201904296875 34.08544921875 C-21.122556762695297 34.54592651367187 -22.04320922851562 35.006403808593745 -22.99176025390625 35.4808349609375 C-23.977308959960936 35.98393188476564 -24.962857666015623 36.48702880859378 -25.978271484375 37.00537109375 C-27.5013088989258 37.77113464355466 -27.5013088989258 37.77113464355466 -29.05511474609375 38.5523681640625 C-32.29895345525489 40.18548736954028 -35.53705414021093 41.82964236472657 -38.775146484375 43.47412109375 C-40.97269442363867 44.582925096673534 -43.17060681723433 45.69100710170551 -45.368896484375 46.79833984375 C-50.75931388294782 49.51390510420924 -56.14183277262248 52.244314770625124 -61.525146484375 54.97412109375 C-61.525146484375 69.49412109374998 -61.525146484375 84.01412109375002 -61.525146484375 98.97412109375 C-55.090889686413675 102.28309455408146 -48.65319918364227 105.58158006863209 -42.201416015625 108.855712890625 C-40.00836875652956 109.97234729225733 -37.81822830461104 111.09470988147439 -35.631103515625 112.222900390625 C-32.48607774355756 113.84395203119811 -29.331160063072787 115.44408921382882 -26.173583984375 117.04052734375 C-25.198357849121095 117.54878555297853 -24.22313171386719 118.05704376220706 -23.218353271484375 118.58070373535156 C-18.08800079587772 121.17376122937151 -18.08800079587772 121.17376122937151 -12.497802734375 122.08935546875 C-7.94266599560649 120.38043097608454 -3.6438627022963033 118.27677257759706 0.685791015625 116.06396484375 C1.6539273071289244 115.57706680297849 2.622063598632792 115.09016876220704 3.619537353515625 114.58851623535156 C6.70015713574503 113.03704276300579 9.77501496323356 111.47451581832411 12.849853515625 109.91162109375 C14.94193068785927 108.85554778810024 17.034374673976572 107.80020080411606 19.127197265625 106.74560546875 C24.24811173716705 104.164843258865 29.361080249734187 101.569201883868 34.474853515625 98.97412109375 C34.474853515625 84.45412109375002 34.474853515625 69.93412109374998 34.474853515625 54.97412109375 C28.00058005346034 51.691103684589336 21.52424773529617 48.413101927586126 15.041259765625 45.1474609375 C12.836028613555072 44.034780260505954 10.63224123576208 42.91923338137741 8.429931640625 41.80078125 C5.266358251006068 40.194768993197954 2.097756675516507 38.59909463108528 -1.072021484375 37.00537109375 C-2.057570190429715 36.50227416992186 -3.0431188964843727 35.99917724609372 -4.05853271484375 35.4808349609375 C-5.439511413574223 34.79011901855472 -5.439511413574223 34.79011901855472 -6.848388671875 34.08544921875 C-8.060842590332015 33.47256042480467 -8.060842590332015 33.47256042480467 -9.29779052734375 32.8472900390625 C-13.553275180127116 31.179053296599022 -16.34803538033998 32.137339656545464 -20.201904296875 34.08544921875 Z " fill="none" transform="translate(269.525146484375,243.02587890625)"/>
<path stroke="#4ade80" stroke-width="1.5" stroke-linecap="round" d="M0 0 C1.3090429687500205 -0.0038269042968757105 2.618085937499984 -0.007653808593751421 3.966796875 -0.0115966796875 C6.730661960417251 -0.01747605233678584 9.494008020725175 -0.008980412537233917 12.2578125 0.009765625 C15.788628313365052 0.03255558414574011 19.318227766806615 0.019423906839442395 22.8489990234375 -0.00452423095703125 C26.232761774759354 -0.022509555943784676 29.616202762909438 -0.009892317132067063 33 0 C34.89395507812503 -0.012145385742186932 34.89395507812503 -0.012145385742186932 36.826171875 -0.0245361328125 C47.94070872088906 0.09408259443665656 47.94070872088906 0.09408259443665656 52.5 4.53125 C56.66689228491629 9.610723155337723 57.07901225046464 13.27054523972604 57.017578125 19.5625 C57.02458740234374 20.45106689453125 57.03159667968748 21.339633789062503 57.038818359375 22.255126953125 C57.056366980075154 25.180822896328905 57.04478669406552 28.105544888763802 57.03125 31.03125 C57.033945812677246 33.070965423093554 57.037828977623974 35.11067959221185 57.0428466796875 37.150390625 C57.04873748918385 41.420697648660706 57.040192067364046 45.690669500765694 57.021484375 49.9609375 C56.998695259135616 55.42869751346714 57.011820550889524 60.895672107640024 57.03577423095703 66.3634033203125 C57.050243371979604 70.5739531911567 57.045621054792264 74.78431752154984 57.03526306152344 78.994873046875 C57.0325988718526 81.0106617578376 57.03585468618758 83.02646743266527 57.04518127441406 85.042236328125 C57.0553651128414 87.86194337309054 57.03982006409967 90.68038682378825 57.017578125 93.5 C57.025675048828134 94.32927001953125 57.03377197265627 95.1585400390625 57.0421142578125 96.012939453125 C56.9463562355088 102.58125579728448 54.85106183592825 106.24316303467697 50.09375 110.873046875 C44.50676768359983 113.45095338946942 39.08045485582409 113.10149219710377 33 113.0625 C31.69095703124998 113.06632690429689 30.381914062500016 113.07015380859374 29.033203125 113.0740966796875 C26.26933803958275 113.0799760523368 23.505991979274825 113.07148041253723 20.7421875 113.052734375 C17.211371686635005 113.02994441585426 13.681772233193328 113.04307609316055 10.1510009765625 113.06702423095703 C6.767238225240646 113.08500955594377 3.383797237090562 113.07239231713208 0 113.0625 C-1.893955078124975 113.0746453857422 -1.893955078124975 113.0746453857422 -3.826171875 113.0870361328125 C-14.940708720889063 112.96841740556334 -14.940708720889063 112.96841740556334 -19.5 108.53125 C-23.666892284916344 103.45177684466222 -24.079012250464643 99.791954760274 -24.017578125 93.5 C-24.02458740234374 92.61143310546875 -24.031596679687482 91.7228662109375 -24.038818359375 90.807373046875 C-24.056366980075154 87.88167710367102 -24.04478669406552 84.95695511123625 -24.03125 82.03125 C-24.033945812677246 79.99153457690645 -24.037828977623974 77.95182040778815 -24.0428466796875 75.912109375 C-24.048737489183793 71.64180235133931 -24.040192067364046 67.37183049923432 -24.021484375 63.1015625 C-23.998695259135616 57.63380248653286 -24.011820550889524 52.16682789235995 -24.03577423095703 46.6990966796875 C-24.050243371979604 42.48854680884328 -24.045621054792264 38.27818247845015 -24.035263061523438 34.067626953125 C-24.0325988718526 32.051838242162404 -24.035854686187577 30.036032567334722 -24.045181274414063 28.020263671875 C-24.0553651128414 25.20055662690949 -24.039820064099672 22.382113176211746 -24.017578125 19.5625 C-24.025675048828134 18.73322998046875 -24.033771972656268 17.9039599609375 -24.0421142578125 17.049560546875 C-23.9463562355088 10.481244202715558 -21.85106183592825 6.819336965323032 -17.09375 2.189453125 C-11.506767683599833 -0.3884533894694364 -6.080454855824087 -0.03899219710377366 0 0 Z M8.5 32.53125 C8.5 48.37125 8.5 64.21125 8.5 80.53125 C13.779999999999973 80.53125 19.060000000000002 80.53125 24.5 80.53125 C24.5 64.69125 24.5 48.85124999999999 24.5 32.53125 C19.220000000000027 32.53125 13.939999999999998 32.53125 8.5 32.53125 Z " fill="none" transform="translate(391.5,31.46875)"/>
<path stroke="#4ade80" stroke-width="1.5" stroke-linecap="round" d="M0 0 C1.309042968749992 -0.0038269042968757105 2.618085937499984 -0.007653808593751421 3.966796875 -0.0115966796875 C6.730661960417223 -0.01747605233678584 9.494008020725204 -0.008980412537233917 12.2578125 0.009765625 C15.788628313365052 0.03255558414574011 19.318227766806615 0.019423906839442395 22.8489990234375 -0.00452423095703125 C26.232761774759382 -0.022509555943784676 29.616202762909438 -0.009892317132067063 33 0 C34.893955078125 -0.012145385742186932 34.893955078125 -0.012145385742186932 36.826171875 -0.0245361328125 C47.94070872088906 0.09408259443665656 47.94070872088906 0.09408259443665656 52.5 4.53125 C56.66689228491629 9.610723155337723 57.07901225046464 13.27054523972604 57.017578125 19.5625 C57.02458740234374 20.45106689453125 57.03159667968748 21.339633789062503 57.038818359375 22.255126953125 C57.056366980075154 25.180822896328905 57.04478669406552 28.105544888763802 57.03125 31.03125 C57.033945812677246 33.070965423093554 57.037828977623974 35.11067959221185 57.0428466796875 37.150390625 C57.04873748918382 41.420697648660706 57.040192067364075 45.690669500765694 57.021484375 49.9609375 C56.99869525913559 55.42869751346714 57.011820550889524 60.895672107640024 57.03577423095703 66.3634033203125 C57.050243371979604 70.5739531911567 57.045621054792264 74.78431752154984 57.03526306152344 78.994873046875 C57.0325988718526 81.0106617578376 57.03585468618758 83.02646743266527 57.04518127441406 85.042236328125 C57.0553651128414 87.86194337309054 57.03982006409967 90.68038682378825 57.017578125 93.5 C57.025675048828134 94.32927001953125 57.03377197265627 95.1585400390625 57.0421142578125 96.012939453125 C56.9463562355088 102.58125579728448 54.85106183592825 106.24316303467697 50.09375 110.873046875 C44.50676768359983 113.45095338946942 39.080454855824115 113.10149219710377 33 113.0625 C31.690957031250008 113.06632690429689 30.381914062500016 113.07015380859374 29.033203125 113.0740966796875 C26.26933803958275 113.0799760523368 23.505991979274825 113.07148041253723 20.7421875 113.052734375 C17.211371686635005 113.02994441585426 13.681772233193328 113.04307609316055 10.1510009765625 113.06702423095703 C6.767238225240618 113.08500955594377 3.383797237090562 113.07239231713208 0 113.0625 C-1.8939550781250034 113.0746453857422 -1.8939550781250034 113.0746453857422 -3.826171875 113.0870361328125 C-14.940708720889063 112.96841740556334 -14.940708720889063 112.96841740556334 -19.5 108.53125 C-23.666892284916344 103.45177684466222 -24.079012250464643 99.791954760274 -24.017578125 93.5 C-24.02458740234374 92.61143310546875 -24.03159667968751 91.7228662109375 -24.038818359375 90.807373046875 C-24.056366980075154 87.88167710367102 -24.04478669406552 84.95695511123625 -24.03125 82.03125 C-24.033945812677274 79.99153457690645 -24.037828977623974 77.95182040778815 -24.0428466796875 75.912109375 C-24.04873748918382 71.64180235133931 -24.040192067364075 67.37183049923432 -24.021484375 63.1015625 C-23.998695259135587 57.63380248653286 -24.011820550889553 52.16682789235995 -24.03577423095703 46.6990966796875 C-24.050243371979576 42.48854680884328 -24.045621054792264 38.27818247845015 -24.035263061523438 34.067626953125 C-24.03259887185257 32.051838242162404 -24.035854686187577 30.036032567334722 -24.045181274414063 28.020263671875 C-24.0553651128414 25.20055662690949 -24.039820064099672 22.382113176211746 -24.017578125 19.5625 C-24.025675048828134 18.73322998046875 -24.03377197265624 17.9039599609375 -24.0421142578125 17.049560546875 C-23.9463562355088 10.481244202715558 -21.85106183592825 6.819336965323032 -17.09375 2.189453125 C-11.506767683599804 -0.3884533894694364 -6.080454855824115 -0.03899219710377366 0 0 Z M8.5 32.53125 C8.5 48.37125 8.5 64.21125 8.5 80.53125 C13.780000000000001 80.53125 19.060000000000002 80.53125 24.5 80.53125 C24.5 64.69125 24.5 48.85124999999999 24.5 32.53125 C19.22 32.53125 13.939999999999998 32.53125 8.5 32.53125 Z " fill="none" transform="translate(183.5,31.46875)"/>
<path stroke="#4ade80" stroke-width="1.5" stroke-linecap="round" d="M0 0 C1.2581250000000068 -0.015468750000000142 2.5162500000000136 -0.030937500000000284 3.8125 -0.046875 C15.442436450295077 0.002404391738537015 15.442436450295077 0.002404391738537015 20 4.5 C23.54007895771582 9.012313971883955 24.49535364787755 11.893519768957816 24.4541015625 17.60693359375 C24.45468566894533 18.290559692382814 24.455269775390605 18.97418579101563 24.45587158203125 19.67852783203125 C24.453103705219803 21.919029751444327 24.4220768074116 24.15817050765793 24.390625 26.3984375 C24.38315791004652 27.959271986776336 24.377467187465413 29.52011589433379 24.37347412109375 31.080963134765625 C24.358254408734467 35.174684778163694 24.31900507465315 39.267832217998404 24.274658203125 43.361328125 C24.233625837680677 47.54419183405547 24.21544617413366 51.727148979402514 24.1953125 55.91015625 C24.15250647981071 64.1070333509329 24.08430054015878 72.30344509932519 24 80.5 C24.92554687500001 80.466484375 25.851093750000018 80.43296875 26.8046875 80.3984375 C32.08761437975329 80.566354491288 34.846984247933676 83.28629920835127 38.375 87 C40.77303575399583 92.1650000855294 40.75381535399083 96.90022879892535 40 102.5 C37.69439117749283 107.46592669463087 34.77917888875254 109.91978038646562 30 112.5 C26.66175292501748 113.0709866185453 23.38056938843829 113.06124180998745 20 113.03125 C18.56914062499999 113.0369903564453 18.56914062499999 113.0369903564453 17.109375 113.0428466796875 C15.09894755418668 113.04556036202192 13.08848447434508 113.03823737061953 11.078125 113.021484375 C8.00961213174861 113.00006708975206 4.943440477404181 113.0213046626883 1.875 113.046875 C-0.08333847528018623 113.04423162754892 -2.0416754999966997 113.03910645386404 -4 113.03125 C-4.912656249999998 113.03934692382813 -5.8253124999999955 113.04744384765627 -6.765625 113.0557861328125 C-12.347239676666845 112.97405683856675 -15.574731382040397 112.22311686356198 -20 108.5 C-23.628336634371124 104.68069827960935 -24.31000458148253 101.61720993873692 -24.5 96.5 C-24.31000458148253 91.38279006126304 -23.628336634371124 88.31930172039065 -20 84.5 C-15.42788179399139 80.7230327863407 -14.2460141868944 80.5 -8 80.5 C-8 64.66 -8 48.81999999999999 -8 32.5 C-9.980000000000018 32.5 -11.95999999999998 32.5 -14 32.5 C-18.770546725431302 30.019315702775714 -21.72954418150323 27.390212532146897 -24 22.5 C-24.75381535399083 16.90022879892534 -24.773035753995828 12.165000085529435 -22.375 7 C-15.428480995243547 -0.31212526816469577 -9.876241794006717 -0.12142920238532895 0 0 Z " fill="none" transform="translate(296,31.5)"/>
<path stroke="#4ade80" stroke-width="1.5" stroke-linecap="round" d="M0 0 C1.2581250000000068 -0.015468750000000142 2.5162499999999994 -0.030937500000000284 3.8125 -0.046875 C15.442436450295048 0.002404391738537015 15.442436450295048 0.002404391738537015 20 4.5 C23.54007895771582 9.012313971883955 24.49535364787755 11.893519768957816 24.4541015625 17.60693359375 C24.454685668945302 18.290559692382814 24.455269775390633 18.97418579101563 24.45587158203125 19.67852783203125 C24.45310370521983 21.919029751444327 24.422076807411628 24.15817050765793 24.390625 26.3984375 C24.383157910046535 27.959271986776336 24.3774671874654 29.52011589433379 24.37347412109375 31.080963134765625 C24.358254408734467 35.174684778163694 24.31900507465312 39.267832217998404 24.274658203125 43.361328125 C24.23362583768069 47.54419183405547 24.215446174133675 51.727148979402514 24.1953125 55.91015625 C24.152506479810697 64.1070333509329 24.084300540158765 72.30344509932519 24 80.5 C24.92554687500001 80.466484375 25.85109374999999 80.43296875 26.8046875 80.3984375 C32.087614379753276 80.566354491288 34.846984247933705 83.28629920835127 38.375 87 C40.7730357539958 92.1650000855294 40.75381535399083 96.90022879892535 40 102.5 C37.69439117749282 107.46592669463087 34.77917888875251 109.91978038646562 30 112.5 C26.66175292501751 113.0709866185453 23.38056938843826 113.06124180998745 20 113.03125 C18.569140625000003 113.0369903564453 18.569140625000003 113.0369903564453 17.109375 113.0428466796875 C15.09894755418668 113.04556036202192 13.08848447434508 113.03823737061953 11.078125 113.021484375 C8.00961213174861 113.00006708975206 4.9434404774041525 113.0213046626883 1.875 113.046875 C-0.08333847528015781 113.04423162754892 -2.0416754999966855 113.03910645386404 -4 113.03125 C-4.912656249999998 113.03934692382813 -5.8253124999999955 113.04744384765627 -6.765625 113.0557861328125 C-12.347239676666817 112.97405683856675 -15.574731382040383 112.22311686356198 -20 108.5 C-23.628336634371124 104.68069827960935 -24.310004581482538 101.61720993873692 -24.5 96.5 C-24.310004581482538 91.38279006126304 -23.628336634371124 88.31930172039065 -20 84.5 C-15.42788179399136 80.7230327863407 -14.246014186894385 80.5 -8 80.5 C-8 64.66 -8 48.81999999999999 -8 32.5 C-9.980000000000004 32.5 -11.960000000000008 32.5 -14 32.5 C-18.77054672543133 30.019315702775714 -21.72954418150323 27.390212532146897 -24 22.5 C-24.753815353990817 16.90022879892534 -24.773035753995806 12.165000085529435 -22.375 7 C-15.428480995243547 -0.31212526816469577 -9.87624179400673 -0.12142920238532895 0 0 Z " fill="none" transform="translate(88,31.5)"/>

  </g>
</svg>