<?xml version="1.0" encoding="UTF-8"?>
<svg width="100" height="100" viewBox="0 0 100 100" fill="none" xmlns="http://www.w3.org/2000/svg">
  <g transform="translate(25, 25) scale(0.09765625)">
    
<path stroke="#f472b6" stroke-width="1.5" stroke-linecap="round" d="M0 0 C1.426516342163083 -0.018912963867187438 1.426516342163083 -0.018912963867187438 2.8818511962890625 -0.0382080078125 C4.411678848266604 -0.026062622070312513 4.411678848266604 -0.026062622070312513 5.972412109375 -0.013671875 C7.551365127563486 -0.019412231445312456 7.551365127563486 -0.019412231445312456 9.162216186523438 -0.0252685546875 C11.385497613726699 -0.027988606112676284 13.608810990800634 -0.020620983388038305 15.83203125 -0.00390625 C19.240875594380157 0.017522302204118434 22.64761729147621 -0.0037168882721354546 26.056396484375 -0.029296875 C28.21590635630345 -0.02665403590752735 30.375414917452986 -0.021529968651928022 32.534912109375 -0.013671875 C34.06777610778809 -0.025817260742187487 34.06777610778809 -0.025817260742187487 35.63160705566406 -0.0382080078125 C36.579465789794924 -0.025599365234375004 37.527324523925785 -0.012990722656250009 38.50390625 0 C39.337894439697266 0.0031823730468749645 40.17188262939453 0.00636474609375004 41.03114318847656 0.0096435546875 C43.187255859375 0.5175781249999996 43.187255859375 0.5175781249999996 44.95262145996094 2.3311767578125 C46.7740648660147 5.556752163082745 46.641619313552894 7.882670491576903 46.187255859375 11.517578125 C44.86725585937501 12.837578125 43.547255859375 14.157578125 42.187255859375 15.517578125 C30.637255859375003 15.517578125 19.087255859375006 15.517578125 7.187255859375 15.517578125 C7.187255859375 38.947578125 7.187255859375 62.377578125 7.187255859375 86.517578125 C12.137255859375003 86.517578125 17.087255859375006 86.517578125 22.187255859375 86.517578125 C22.171545410156256 85.05940673828125 22.155834960937497 83.6012353515625 22.1396484375 82.098876953125 C22.085317598703824 76.68503347975825 22.050894011240814 71.27121408227455 22.0224609375 65.857177734375 C22.007381579079293 63.51468858272047 21.98691508172618 61.17222762719364 21.9609375 58.829833984375 C21.924517650407097 55.461354954380305 21.907520733075813 52.09324948067752 21.894287109375 48.724609375 C21.878803253173828 47.67860061645508 21.863319396972656 46.63259185791016 21.847366333007813 45.55488586425781 C21.845285024867067 36.547492995322855 21.845285024867067 36.547492995322855 25.187255859375 32.517578125 C26.82251535277095 30.882318631604047 28.667853753744993 31.38928589158849 30.924665451049805 31.386150360107422 C32.47150451481342 31.380388642549512 32.47150451481342 31.380388642549512 34.04959285259247 31.374510526657104 C35.19635434746742 31.37537700891495 36.34311584234237 31.37624349117279 37.524627685546875 31.37713623046875 C39.33583152472973 31.372679547071456 39.33583152472973 31.372679547071456 41.18362534046173 31.368132829666138 C44.550455632043764 31.360929179594716 47.91723492982106 31.358271708012083 51.284069299697876 31.357535362243652 C54.90923403143199 31.355689660388936 58.53438758875129 31.348144797184 62.1595458984375 31.341400146484375 C70.09331785417584 31.327796444731703 78.02708477115803 31.321788951311056 85.96086645126343 31.317389488220215 C90.91097591724707 31.314630519994015 95.86108341890062 31.31039381143922 100.81119155883789 31.305885314941406 C114.50571762174036 31.293690023288427 128.20024210619692 31.283391201158718 141.89477348327637 31.280010223388672 C142.77189660675825 31.27979065731168 143.6490197302401 31.279571091234683 144.55272234231234 31.279344871640205 C145.43199246905743 31.27912659391761 146.31126259580253 31.27890831619501 147.21717727184296 31.27868342399597 C148.9990328955409 31.278239951468326 150.7808885184722 31.27779338802719 152.562744140625 31.27734375 C153.4466136802733 31.277122320234774 154.33048321992158 31.276900890469552 155.24113668501377 31.27667275071144 C169.56889252327616 31.272723201969708 183.89659754740245 31.255265572008746 198.2243337482214 31.231984227895737 C212.92019319733004 31.208296668873555 227.61602712210333 31.195809559627527 242.31190598011017 31.194642305374146 C250.5688447077115 31.19372408224103 258.8257172419969 31.18793490591653 267.08263778686523 31.169822692871094 C274.11262391668004 31.154456662494972 281.142523405399 31.149280450616722 288.1725231260061 31.157560795545578 C291.76173930297085 31.161479783005138 295.350780818515 31.16047739110735 298.9399757385254 31.146503448486328 C302.82536580993 31.131514166452078 306.7105072232261 31.13959404287766 310.5959167480469 31.15008544921875 C312.3093668252229 31.13800084233284 312.3093668252229 31.13800084233284 314.0574320554733 31.125672101974487 C315.0938735926151 31.132261946201325 316.1303151297569 31.138851790428163 317.19816398620605 31.145641326904297 C318.09566049456595 31.14504423856735 318.9931570029259 31.14444715023041 319.9178503751755 31.143831968307495 C322.6762622226078 31.598112101906693 323.52497043334705 32.30561247589851 325.187255859375 34.517578125 C326.16365016815723 37.446761051346634 326.308617665584 39.307835509700524 326.30078125 42.356201171875 C326.30070571899415 43.336991424560544 326.3006301879883 44.317781677246096 326.30055236816406 45.32829284667969 C326.2953910827637 46.38462417602539 326.2902297973633 47.44095550537109 326.284912109375 48.529296875 C326.28278968811037 50.154338912963865 326.28278968811037 50.154338912963865 326.28062438964844 51.81221008300781 C326.2750214509407 55.27652737518726 326.26246843871075 58.74078032600839 326.249755859375 62.205078125 C326.24474123861904 64.55208240075874 326.2401782661099 66.899087688289 326.236083984375 69.24609375 C326.2250510625331 75.0032800456338 326.20778443455515 80.7604181717788 326.187255859375 86.517578125 C331.137255859375 86.517578125 336.087255859375 86.517578125 341.187255859375 86.517578125 C341.187255859375 63.087578125 341.187255859375 39.657578125 341.187255859375 15.517578125 C328.98760864257815 15.541143798828124 328.98760864257815 15.541143798828124 316.54150390625 15.565185546875 C290.53882015215527 15.613303391695851 264.5361376100397 15.64669171461065 238.53342114016414 15.67077411338687 C234.49656450163212 15.674526375154025 230.45970799867712 15.678409328204417 226.4228515625 15.682373046875 C225.61916312016547 15.683159978166223 224.81547467783093 15.683946909457445 223.98743204027414 15.684757687151432 C210.9626201551414 15.697822823790304 197.93784786598042 15.721482739385493 184.91305949538946 15.749036513268948 C171.55517089475617 15.777059937249875 158.1973030760522 15.793747884936472 144.83938628435135 15.799843609333038 C136.5923192988877 15.80396642766648 128.3453642181557 15.817002605193657 120.09833166748285 15.841327525675297 C114.44823730877113 15.857146945626356 108.79820106704722 15.861987129836363 103.14808615297079 15.858082257211208 C99.88492225836325 15.856154751108972 96.62199655825555 15.860797888411676 93.35885810852051 15.875194549560547 C89.82584642911519 15.890023358663255 86.29332159201937 15.88656672962452 82.76029968261719 15.878341674804688 C81.72237311542034 15.88708019912243 80.68444654822349 15.89581872344017 79.61506766080856 15.904822051525116 C78.2005578276515 15.895862333476543 78.2005578276515 15.895862333476543 76.75747203826904 15.88672161102295 C75.94145304858685 15.887860772013664 75.12543405890466 15.88899993300438 74.28468722105026 15.890173614025116 C71.63979207149742 15.420324626508943 70.78269916357533 14.65103443544377 69.187255859375 12.517578125 C68.36382158013069 9.033817712812528 67.82833153266819 6.566741541527633 68.999755859375 3.142578125 C70.187255859375 1.5175781250000018 70.187255859375 1.5175781250000018 72.187255859375 0.517578125 C73.72599237566953 0.42069040246616896 75.26887901261983 0.38659865595520515 76.81065940856934 0.38335704803466797 C77.79100886702537 0.3788992041349411 78.7713583254814 0.37444136023521424 79.7814153432846 0.36984843015670776 C81.4086188071966 0.3701249739527702 81.4086188071966 0.3701249739527702 83.06869506835938 0.3704071044921875 C84.78824226796627 0.3648920723795891 84.78824226796627 0.3648920723795891 86.54252779483795 0.35926562547683716 C89.73413532923735 0.35012772535743664 92.92571264465289 0.34552668386714136 96.11733102798462 0.3428763151168823 C99.55572213073066 0.3389773255334544 102.99409828239618 0.3293988050065831 106.43247985839844 0.3206634521484375 C114.74022312977507 0.3008889492146216 123.04796764033657 0.29083219802872684 131.35572856664658 0.2819356620311737 C135.26528658256169 0.2775549209594291 139.17484323767746 0.27218760950778 143.08440017700195 0.26694679260253906 C156.07553768359008 0.2499345525534128 169.06667433685317 0.23543903571507901 182.0578212738037 0.22819805145263672 C185.43006770918277 0.22628807511591587 188.8023141376376 0.22436775300237194 192.174560546875 0.222412109375 C193.43183430604637 0.22168649908155202 193.43183430604637 0.22168649908155202 194.71450753509998 0.22094622999429703 C208.30112557341386 0.21264088137474357 221.8876557109303 0.18729546292785437 235.47423534095287 0.1548314318060875 C249.41415272935558 0.12179383139195588 263.354025390615 0.10375233930561484 277.29398214817047 0.10055381059646606 C285.12451414645386 0.0983857897649339 292.95491791500274 0.08959451817385083 300.7854118347168 0.06409263610839844 C307.4523133050419 0.04243071948994548 314.1190554073266 0.03431290108084695 320.7859880775213 0.04405941814184189 C324.1890699031707 0.048617154651681815 327.59182260135657 0.046633300980842174 330.99485969543457 0.0272979736328125 C334.68080476453116 0.009734261985834047 338.36590533431917 0.016609248600057858 342.0518493652344 0.0298309326171875 C343.13219023108485 0.01886168658733367 344.21253109693527 0.00789244055747984 345.3256095647812 -0.0034092068672180176 C352.4921546278332 0.058986837040979845 352.4921546278332 0.058986837040979845 355.85147285461426 2.2752885818481445 C357.31466600265315 4.731453006583224 357.68948736886944 6.043195219084882 357.6951904296875 8.8819580078125 C357.71210937499995 10.18152183532715 357.71210937499995 10.18152183532715 357.7293701171875 11.507339477539063 C357.7172247314453 12.921030654907227 357.7172247314453 12.921030654907227 357.704833984375 14.36328125 C357.7153479003906 15.861446304321289 357.7153479003906 15.861446304321289 357.72607421875 17.389877319335938 C357.7436871600813 20.693143284692805 357.732019303224 23.995553362805694 357.718505859375 27.298828125 C357.721199811942 29.59281580267325 357.7250814218797 31.886802368467297 357.7301025390625 34.1807861328125 C357.7360020805122 38.98928698840194 357.72741964144285 43.79749070004544 357.708740234375 48.60595703125 C357.68595081026325 54.773446669999245 357.6990713965811 60.94024007645636 357.72303009033203 67.10770416259766 C357.7374755199881 71.84488177365645 357.7328877600833 76.5818939790515 357.72251892089844 81.31907653808594 C357.71984818067216 83.59329815743779 357.7231335389035 85.86753473412077 357.73243713378906 88.14173889160156 C357.74258169950923 91.31885631368182 357.7271299644085 94.49484200027021 357.704833984375 97.671875 C357.71293090820313 98.61433578491211 357.72102783203127 99.55679656982421 357.7293701171875 100.52781677246094 C357.646732045572 106.87534297243455 357.646732045572 106.87534297243455 355.3385009765625 110.1016845703125 C352.3643871453646 112.05916889920454 350.68476219091554 112.08859956688417 347.187255859375 111.517578125 C344.37475585937506 109.83007812500001 344.37475585937506 109.83007812500001 342.187255859375 107.517578125 C341.857255859375 105.867578125 341.527255859375 104.217578125 341.187255859375 102.517578125 C230.96725585937497 102.517578125 120.747255859375 102.517578125 7.187255859375 102.517578125 C7.187255859375 113.407578125 7.187255859375 124.297578125 7.187255859375 135.517578125 C49.685871811968866 135.50308185201092 92.1843820836583 135.46523455617054 134.68293814733624 135.39072250202298 C139.69617719791574 135.38195537330932 144.7094165972526 135.37340563400954 149.72265625 135.364990234375 C150.72073465250432 135.36331117175519 151.71881305500864 135.3616321091354 152.74713625758886 135.35990216583014 C168.92436397402238 135.33320614970552 185.10155626351917 135.32413522566122 201.27880374342203 135.3215366974473 C217.86857998327582 135.31848113308703 234.45825349716006 135.29658052997985 251.0479833483696 135.25705355405807 C261.2911771128036 135.2332458998918 271.5341660452863 135.22427438614673 281.77738370746374 135.23406501859426 C288.79415533521967 135.2393660215388 295.8107428080928 135.22642190204886 302.8274619951844 135.19891522079706 C306.88052510298616 135.18357208340439 310.9331762995561 135.17647940692487 314.9862518310547 135.19098091125488 C318.6931030944235 135.20406677476814 322.39915356151164 135.19437021653124 326.10591395944357 135.16614039987326 C328.0900006211257 135.15707305653228 330.0741520377273 135.1727528094616 332.0581915974617 135.18915778398514 C333.22761886537074 135.17571914613248 334.3970461332798 135.1622805082798 335.6019105911255 135.14843463897705 C337.12212093323467 135.14672589749097 337.12212093323467 135.14672589749097 338.6730425953865 135.14498263597488 C341.4285404023721 134.75026693295666 341.4285404023721 134.75026693295666 342.9113399386406 132.04064959287643 C343.3323921924829 131.20803600847722 343.7534444463253 130.37542242407798 344.187255859375 129.517578125 C347.27899337441164 127.97170936748168 349.7815513830543 128.22398291152408 353.187255859375 128.517578125 C355.97812245001853 130.61025791821908 357.05692012182004 131.80305755139528 357.6886525154114 135.2663117647171 C357.6893019247055 136.33170236945153 357.68995133399966 137.39709297418594 357.6906204223633 138.4947681427002 C357.7010514116287 139.72620398640632 357.71148240089417 140.95763983011247 357.7222294807434 142.22639191150665 C357.71358093355167 143.5951136421191 357.704554293627 144.96383302501664 357.6951904296875 146.33255004882813 C357.69979797118106 147.78493623980904 357.7061499014985 149.23731777309683 357.71409940719604 150.68968951702118 C357.73083749016365 154.68622791781553 357.72252612098066 158.6823855271073 357.71015453338623 162.6789255142212 C357.70112408762066 166.98722509618818 357.7150641032924 171.2954580542692 357.72607421875 175.60374450683594 C357.74388824698843 184.04752721429324 357.74000586519173 192.4911679286373 357.7284236550331 200.93495626747608 C357.7193973387591 207.79929948142467 357.7181618710778 214.66360284430053 357.72251892089844 221.52795028686523 C357.72313185304404 222.50422361575067 357.72374478518964 223.48049694463612 357.7243762910366 224.4863543137908 C357.72565518287263 226.46959187755832 357.7269520355668 228.45282942982334 357.7282666563988 230.43606697022915 C357.73968182512203 249.04812145830545 357.7265459485095 267.6600972401804 357.7050651907921 286.2721388190985 C357.68721018049615 302.23647840963645 357.69028332483373 318.2007015978403 357.708740234375 334.1650390625 C357.73015942155655 352.7002926562616 357.7385653728078 371.23547710019636 357.726291179657 389.77074134349823 C357.72501699018915 391.7485980085495 357.723759507232 393.72645468443574 357.72251892089844 395.7043113708496 C357.72159326776864 397.16402714904393 357.72159326776864 397.16402714904393 357.7206489145756 398.65323213487864 C357.7171979067477 405.5049642679711 357.72301935380153 412.3566525034056 357.73243713378906 419.20837783813477 C357.7436708735795 427.56515883481745 357.74058887591724 435.92178959513205 357.7193141579628 444.2785534411669 C357.7088196356344 448.54106501676745 357.70465429569407 452.80332636934475 357.71791076660156 457.0658359527588 C357.7298748550039 460.97200033945427 357.7232064700768 464.87768380475524 357.7020005583763 468.7838048785925 C357.6975512048622 470.1930011892842 357.69976313795263 471.6022385542702 357.7095037102699 473.0114082247019 C357.7905580939108 485.7175182593132 355.40372911159824 494.066295757732 346.558349609375 503.318359375 C337.7793745130368 511.46096724853936 329.3872219091764 512.815481906254 317.7017517089844 512.7917327880859 C315.7956595653296 512.7995878061652 315.7956595653296 512.7995878061652 313.8510605096817 512.8076015114784 C310.33047164115953 512.8217584675158 306.8099711551761 512.8234452419855 303.2893579006195 512.8230046033859 C299.48958883075466 512.8246548750527 295.6898559542316 512.8377254101683 291.8901062011719 512.8491973876953 C283.5841360506551 512.8720313182059 275.2781914772856 512.8799664251889 266.9721941947937 512.8850238323212 C261.7829484471233 512.8882830430125 256.5937100975235 512.8948069234697 251.40446853637695 512.9020252227783 C237.0286374579481 512.9215898860936 222.65281325135481 512.9379946017441 208.27696800231934 512.9409017562866 C207.35730276264246 512.9410893261805 206.4376375229657 512.9412768960744 205.49010363966227 512.9414701499045 C203.6258199219908 512.941836393946 201.76153620381757 512.9422000923145 199.89725248515606 512.9425612613559 C198.5091562061757 512.9428354780003 198.5091562061757 512.9428354780003 197.093017578125 512.943115234375 C196.16648650363084 512.943295783475 195.23995542913678 512.9434763325751 194.28534765541553 512.94366235286 C179.27849698683883 512.9472025843367 164.2717899403398 512.9742161110047 149.26498906314373 513.0116131231189 C133.84684428873882 513.0497267492068 118.42877071617687 513.069059461219 103.01057779788971 513.069361269474 C94.35823100629298 513.0699451878709 85.70605550681631 513.0783947834482 77.05375289916992 513.1073589324951 C69.68484009185377 513.1319138496519 62.31616103857027 513.1391281477268 54.94721834361553 513.1241114065051 C51.190674637074096 513.1169589302413 47.43459212079182 513.1177271766265 43.6781005859375 513.1405220031738 C39.596618162336014 513.165050499511 35.51617771590003 513.1504298218695 31.434661865234375 513.1323089599609 C30.25973281264305 513.1455089277028 29.084803760051727 513.1587088954449 27.874270796775818 513.1723088622093 C17.542188243577286 513.0678818350809 8.95453874941451 510.3824287220928 1.249755859375 503.330078125 C-5.685849077159901 495.8154571683551 -8.96666865500346 487.7763237788355 -8.946965217590332 477.6476526260376 C-8.949317447841167 476.83328173667195 -8.951669678092003 476.01891084730624 -8.954093188047409 475.1798620522022 C-8.960795567284961 472.42759849339626 -8.960324594396653 469.67538201004146 -8.959915161132813 466.92311096191406 C-8.963212993218818 464.939342856362 -8.966938388541479 462.9555754227958 -8.971056640148163 460.9718088507652 C-8.981093538029711 455.50215134100085 -8.984796130899042 450.03250480542226 -8.987445950508118 444.56283938884735 C-8.991343875721839 438.6711402765865 -9.000922406321877 432.7794498975437 -9.009658813476563 426.88775634765625 C-9.028500544202615 413.3252078953592 -9.038680248145965 399.7626579072611 -9.047119494061917 386.20009979372844 C-9.051324423617174 379.5010036793811 -9.056546553955556 372.801908464539 -9.061804023105651 366.10281310835853 C-9.079692827889659 343.18007602958915 -9.09469062217488 320.25733869698644 -9.102124214172363 297.3345956802368 C-9.102598973974153 295.8953942640376 -9.103074862599883 294.4561928482103 -9.103551875799894 293.0169914327562 C-9.103788252028167 292.3032659557578 -9.104024628256454 291.58954047875943 -9.104268167400733 290.85418695700355 C-9.105469387422445 287.2379963784216 -9.106684830701454 283.6218058048644 -9.10791015625 280.005615234375 C-9.108150306185706 279.2879675940704 -9.108390456121413 278.5703199537657 -9.108637883327901 277.83092541527003 C-9.116535362282505 254.54953897652987 -9.139977136514233 231.26820340907864 -9.17246610019356 207.98683919478208 C-9.20673736587662 183.38348180330775 -9.22647273638978 158.7801541963264 -9.229768455028534 134.17677253484726 C-9.23018601064119 131.47778728359134 -9.230665576358462 128.77880205046085 -9.231191635131836 126.0798168182373 C-9.231376422632025 125.08293753614416 -9.231376422632025 125.08293753614416 -9.231564943213016 124.0659192786552 C-9.233755355152013 114.01993591743016 -9.247071611851808 103.97400567487983 -9.266229629516602 93.92804145812988 C-9.287871675294937 82.50712753266522 -9.296019108894129 71.08630656998123 -9.286262847483158 59.66537446528673 C-9.281699544899737 53.834043098287204 -9.28372175000888 48.00290380233384 -9.303024291992188 42.17159843444824 C-9.320524044470304 36.83909646264683 -9.319766450278166 31.506928555532646 -9.304127000272274 26.174423687160015 C-9.301730759079959 24.239726884736886 -9.30617757962274 22.305007736648832 -9.317955650389194 20.370345301926136 C-9.332921605538019 17.750932075742266 -9.323509359341585 15.132726210539907 -9.30772876739502 12.513344764709473 C-9.317950974404809 11.753020204603672 -9.328173181414599 10.992695644497871 -9.338705152273178 10.209330946207047 C-9.292518050203753 6.723870318972209 -9.071277086454984 4.855488335824164 -6.924501121044159 2.049588620662689 C-4.40368680405868 0.22082043045550548 -3.0917222650288494 0.011786301801139043 0 0 Z M38.187255859375 46.517578125 C38.187255859375 59.717578125 38.187255859375 72.917578125 38.187255859375 86.517578125 C43.467255859375 86.517578125 48.747255859375 86.517578125 54.187255859375 86.517578125 C54.187255859375 73.317578125 54.187255859375 60.117578124999994 54.187255859375 46.517578125 C48.907255859375 46.517578125 43.627255859375 46.517578125 38.187255859375 46.517578125 Z M70.187255859375 46.517578125 C70.187255859375 59.717578125 70.187255859375 72.917578125 70.187255859375 86.517578125 C75.467255859375 86.517578125 80.747255859375 86.517578125 86.187255859375 86.517578125 C86.187255859375 73.317578125 86.187255859375 60.117578124999994 86.187255859375 46.517578125 C80.907255859375 46.517578125 75.627255859375 46.517578125 70.187255859375 46.517578125 Z M102.187255859375 46.517578125 C102.187255859375 59.717578125 102.187255859375 72.917578125 102.187255859375 86.517578125 C107.467255859375 86.517578125 112.747255859375 86.517578125 118.187255859375 86.517578125 C118.187255859375 73.317578125 118.187255859375 60.117578124999994 118.187255859375 46.517578125 C112.907255859375 46.517578125 107.627255859375 46.517578125 102.187255859375 46.517578125 Z M134.187255859375 46.517578125 C134.187255859375 59.717578125 134.187255859375 72.917578125 134.187255859375 86.517578125 C139.467255859375 86.517578125 144.747255859375 86.517578125 150.187255859375 86.517578125 C150.187255859375 73.317578125 150.187255859375 60.117578124999994 150.187255859375 46.517578125 C144.907255859375 46.517578125 139.627255859375 46.517578125 134.187255859375 46.517578125 Z M166.187255859375 46.517578125 C166.187255859375 59.717578125 166.187255859375 72.917578125 166.187255859375 86.517578125 C171.467255859375 86.517578125 176.747255859375 86.517578125 182.187255859375 86.517578125 C182.187255859375 73.317578125 182.187255859375 60.117578124999994 182.187255859375 46.517578125 C176.90725585937503 46.517578125 171.627255859375 46.517578125 166.187255859375 46.517578125 Z M198.187255859375 46.517578125 C198.187255859375 59.717578125 198.187255859375 72.917578125 198.187255859375 86.517578125 C203.46725585937497 86.517578125 208.747255859375 86.517578125 214.187255859375 86.517578125 C214.187255859375 73.317578125 214.187255859375 60.117578124999994 214.187255859375 46.517578125 C208.90725585937503 46.517578125 203.627255859375 46.517578125 198.187255859375 46.517578125 Z M230.187255859375 46.517578125 C230.187255859375 59.717578125 230.187255859375 72.917578125 230.187255859375 86.517578125 C235.46725585937497 86.517578125 240.747255859375 86.517578125 246.187255859375 86.517578125 C246.187255859375 73.317578125 246.187255859375 60.117578124999994 246.187255859375 46.517578125 C240.90725585937503 46.517578125 235.627255859375 46.517578125 230.187255859375 46.517578125 Z M262.187255859375 46.517578125 C262.187255859375 59.717578125 262.187255859375 72.917578125 262.187255859375 86.517578125 C267.467255859375 86.517578125 272.747255859375 86.517578125 278.187255859375 86.517578125 C278.187255859375 73.317578125 278.187255859375 60.117578124999994 278.187255859375 46.517578125 C272.907255859375 46.517578125 267.627255859375 46.517578125 262.187255859375 46.517578125 Z M294.187255859375 46.517578125 C294.187255859375 59.717578125 294.187255859375 72.917578125 294.187255859375 86.517578125 C299.467255859375 86.517578125 304.747255859375 86.517578125 310.187255859375 86.517578125 C310.187255859375 73.317578125 310.187255859375 60.117578124999994 310.187255859375 46.517578125 C304.907255859375 46.517578125 299.627255859375 46.517578125 294.187255859375 46.517578125 Z M7.187255859375 151.517578125 C7.118842779262437 193.58287903597167 7.065739594547296 235.6481720695251 7.034059870988131 277.713517613709 C7.0303076755906915 282.6778269382937 7.026424716050016 287.6421361525636 7.0224609375 292.6064453125 C7.0216740062087695 293.5947649393976 7.020887074917553 294.58308456629516 7.020076297223568 295.6013532727957 C7.007016416071465 311.61166978403725 6.98335936406113 327.6219540344653 6.955797471106052 343.63225139677525 C6.927759479438066 360.0558785839953 6.91108300103204 376.4794888558697 6.904990375041962 392.9031389951706 C6.900870600064096 403.0403558275196 6.88785076303418 413.1774814791153 6.863506458699703 423.31467024981976 C6.847669098996462 430.26271392061614 6.842850962056929 437.2107103371219 6.846751727163792 444.15877075493336 C6.8486763933214405 448.1696043944603 6.845691251825556 452.18027851087095 6.829639434814453 456.19108390808105 C6.815052137576984 459.86272183233393 6.814295756595186 463.5340927871154 6.824559174478054 467.20574294030666 C6.826429055150911 469.16377459112124 6.813479776683323 471.12180305539647 6.800011932849884 473.0797892808914 C6.836202642003343 480.13810985503056 7.186990636827787 485.03168238971233 11.948974609375 490.564453125 C12.584482421875009 491.126484375 13.219990234375004 491.688515625 13.874755859375 492.267578125 C14.497373046874998 492.839921875 15.119990234374995 493.412265625 15.761474609375 494.001953125 C22.581431722474463 498.2630535434905 30.561885689444637 497.8044138770135 38.319305419921875 497.7782745361328 C39.52781665921211 497.7821000832319 40.73632789850235 497.78592563033106 41.98146069049835 497.7898671030998 C45.31902153386508 497.7983746722401 48.65636104095594 497.79797329612836 51.99391531944275 497.7936865091324 C55.600009988817845 497.7912136181348 59.2060790821983 497.80024042816757 62.812164306640625 497.80772399902344 C69.87037651054453 497.82045741426265 76.92855064667182 497.82226638489425 83.986772403121 497.81992373615503 C89.72544010692803 497.8181388924238 95.46409627787776 497.8198937833521 101.20276260375977 497.8241481781006 C102.42906627174466 497.8250409615971 102.42906627174466 497.8250409615971 103.68014375120401 497.8259517811239 C105.34110616815263 497.8271635644724 107.00206858338788 497.8283776985572 108.66303099691868 497.82959415763617 C124.23107139168582 497.8404644734788 139.79909011259682 497.8383096153497 155.36713172495365 497.8322093114257 C169.5991860610101 497.82704064786 183.8311719412673 497.83829516451243 198.06321273744106 497.8573075309396 C212.6881412595078 497.8766944887395 227.31303740997288 497.8849404229931 241.93797886371613 497.88118427991867 C250.14417023654488 497.87927353254935 258.35030335007525 497.88174746853434 266.5564842224121 497.8958988189697 C273.5425557035083 497.90782452354756 280.5285330605442 497.9092041908582 287.51460586488247 497.89710865169764 C291.07638017580234 497.8912282842345 294.63798242374554 497.890097034868 298.19974517822266 497.9021110534668 C302.06699458430097 497.9150035093138 305.93398458501997 497.90448533748344 309.8012390136719 497.8917999267578 C311.476941998601 497.902861354053 311.476941998601 497.902861354053 313.18649756908417 497.9141462445259 C320.89757570534374 497.86102299018955 328.6715469214522 497.3342273757016 334.878662109375 492.361328125 C335.496123046875 491.587890625 336.113583984375 490.814453125 336.749755859375 490.017578125 C337.390419921875 489.244140625 338.031083984375 488.470703125 338.691162109375 487.673828125 C341.175302011709 484.0935533832549 341.3119065978291 481.2187813360638 341.3103036880493 476.9790849685669 C341.31229473650455 475.8201078873873 341.3142857849598 474.66113080620767 341.3163371682167 473.46703320741653 C341.3119679060578 471.5482851651311 341.3119679060578 471.5482851651311 341.30751037597656 469.5907745361328 C341.30794623062025 468.2228762465983 341.3088214010644 466.85497803784847 341.31009954214096 465.4870802760124 C341.3123417001676 461.71992677350835 341.308327005538 457.952801556835 341.30332148075104 454.1856516599655 C341.29901318837284 450.1263617597163 341.30046367525716 446.06707352493316 341.3012237548828 442.0077819824219 C341.3017487484221 434.97202995734153 341.298604505071 427.9362871877623 341.2929859161377 420.9005374908447 C341.28486760166584 410.727956206758 341.28225535443323 400.555379409618 341.28099792450666 390.38279523700476 C341.2788079292428 373.8794618639981 341.2721492557539 357.3761334265949 341.2626953125 340.872802734375 C341.25351984546757 324.8389488194035 341.2464396684202 308.80509624378715 341.2421875 292.771240234375 C341.2419247765094 291.78333286859095 341.2416620530188 290.7954255028069 341.2413913682103 289.7775815501809 C341.24008635468647 284.8216658766195 341.2388226409486 279.86575019355075 341.2375794649124 274.9098345041275 C341.22720848186736 233.77907891079252 341.20951737776323 192.64832887768813 341.187255859375 151.517578125 C336.237255859375 151.517578125 331.287255859375 151.517578125 326.187255859375 151.517578125 C326.17267333984375 153.37890380859375 326.1580908203125 155.2402294921875 326.14306640625 157.157958984375 C326.0912313096359 163.3367378486279 326.02589689742894 169.51526121639225 325.95154094696045 175.69380855560303 C325.9069852756808 179.43655646102223 325.8676976083897 183.17919922523816 325.8408203125 186.922119140625 C325.814638190937 190.5403723705276 325.7741334236023 194.15821772626282 325.7240695953369 197.776216506958 C325.70750085383156 199.15031385911408 325.69592478105636 200.5244815963874 325.68964195251465 201.8986644744873 C325.6428577774972 211.19836033437755 325.20675416701357 218.945194973433 319.999755859375 226.830078125 C312.7692419044164 233.73923590418264 305.2181658791634 234.41359691776228 295.562255859375 234.580078125 C294.778505859375 234.559453125 293.994755859375 234.538828125 293.187255859375 234.517578125 C293.017099609375 235.1092578125 292.846943359375 235.7009375 292.671630859375 236.310546875 C290.55682266631237 243.20617146195423 288.28279129426875 247.42126773703026 281.999755859375 251.267578125 C275.52793916305893 254.66315300349476 269.34897156396926 254.54831510227294 262.187255859375 254.517578125 C261.846943359375 255.31421875 261.50663085937504 256.110859375 261.156005859375 256.931640625 C257.2318017070992 265.5106188515178 253.53656432409662 270.4160640852879 244.687255859375 273.892578125 C243.862255859375 274.098828125 243.03725585937502 274.305078125 242.187255859375 274.517578125 C244.82847503629318 279.1947918760293 244.82847503629318 279.1947918760293 247.613037109375 283.787109375 C255.83165708574688 296.93265398837 260.3404881098045 311.019162344982 261.187255859375 326.517578125 C261.240107421875 327.23429687500004 261.292958984375 327.95101562499997 261.347412109375 328.689453125 C262.21096613742964 350.466032962899 254.45008431279143 372.7630354090261 239.749755859375 388.830078125 C237.9236276221667 390.75731645814255 236.06385772740293 392.6382406857359 234.187255859375 394.517578125 C233.529833984375 395.18660156249996 232.87241210937498 395.85562500000003 232.195068359375 396.544921875 C214.8811954503646 412.9299389412523 191.22179293387325 418.40569737516097 168.120849609375 417.869140625 C145.3760825726396 416.8572914913446 124.30958401796087 406.33309394350147 108.906005859375 389.712890625 C94.45375864505215 373.22957194482245 87.54989573927668 352.5044703539133 86.859130859375 330.814453125 C87.27427804272816 327.90842284152785 88.11699764766067 326.5831735929943 90.187255859375 324.517578125 C92.12475585937506 324.021484375 92.12475585937506 324.021484375 94.187255859375 324.080078125 C95.208193359375 324.08201171875 95.208193359375 324.08201171875 96.249755859375 324.083984375 C98.76881288188727 324.647724958667 99.56321447196001 325.52905806836014 101.187255859375 327.517578125 C101.723876953125 329.563720703125 101.723876953125 329.563720703125 101.960693359375 331.912109375 C102.0601123046875 332.77827880859377 102.15953124999999 333.64444824218754 102.261962890625 334.536865234375 C102.3610595703125 335.45862548828126 102.46015625000001 336.3803857421875 102.562255859375 337.330078125 C105.17152884354812 357.74737864629606 113.42694312574486 374.09293500701864 129.187255859375 387.517578125 C146.71050882901122 400.5979666731562 166.25958445492319 405.0286200480991 187.784912109375 402.013671875 C190.67672932126106 401.34691560084974 193.39607080463657 400.522567496021 196.187255859375 399.517578125 C197.154052734375 399.1888671875 198.120849609375 398.86015625 199.116943359375 398.521484375 C216.71921224513449 391.91491852047466 230.47427306658892 379.0629997193861 239.187255859375 362.517578125 C243.1239789819905 353.8012325250485 245.27736958141077 345.02083480595934 246.187255859375 335.517578125 C246.25944335937504 334.775078125 246.33163085937497 334.032578125 246.406005859375 333.267578125 C247.15999523984772 316.6798117546004 240.80360421800663 299.5784936815133 231.019287109375 286.494140625 C229.2550986252482 284.2730757820406 229.2550986252482 284.2730757820406 226.187255859375 283.517578125 C225.52725585937503 284.425078125 224.867255859375 285.332578125 224.187255859375 286.267578125 C220.01221793007778 291.2283675746987 214.94260630766587 293.48346098236493 208.562255859375 294.267578125 C205.10237201354937 294.52542042200264 201.65678913375217 294.60654051665074 198.187255859375 294.517578125 C197.97971679687498 295.16984375000004 197.77217773437496 295.82210937499997 197.558349609375 296.494140625 C195.00475816755267 303.7382201126801 192.06628759736356 307.8498331206528 185.308349609375 311.544921875 C178.26310517273612 314.63344317348617 171.13548596844475 314.46256969452577 163.937255859375 311.955078125 C157.38569327210575 309.0238452562846 153.85886809572452 304.7106583717165 151.312255859375 298.080078125 C150.941005859375 296.90445312500003 150.569755859375 295.728828125 150.187255859375 294.517578125 C148.887880859375 294.558828125 147.588505859375 294.600078125 146.249755859375 294.642578125 C137.26961854713196 294.5862763236693 130.83874937482352 292.78625186977524 124.187255859375 286.517578125 C123.527255859375 285.527578125 122.867255859375 284.537578125 122.187255859375 283.517578125 C117.72494268655413 285.0117923309332 115.94620568790447 288.5131918133369 113.624755859375 292.330078125 C113.238681640625 292.94689453125 112.852607421875 293.5637109375 112.454833984375 294.19921875 C110.76303676525401 296.91128209445117 109.14407512198693 299.5997537119681 107.656005859375 302.431640625 C107.171318359375 303.12 106.68663085937499 303.808359375 106.187255859375 304.517578125 C101.70046780070857 305.1585478476666 99.48317420396131 305.3077722375526 95.624755859375 302.955078125 C94.03740666065428 300.2634860054301 93.80090852956718 298.6951445368432 94.445068359375 295.638671875 C97.01925627230725 288.2819137869884 101.51970165981822 281.6952233891193 106.187255859375 275.517578125 C103.82438375078826 273.94233005260884 101.93636265728014 272.97380860774496 99.374755859375 271.892578125 C92.2524150688765 268.37068534440425 88.87976524503131 261.6976031534169 86.187255859375 254.517578125 C85.63038085937501 254.54078125 85.07350585937502 254.56398437500002 84.499755859375 254.587890625 C74.96727738766356 254.8133208591283 67.46885005411565 253.05381228405852 60.187255859375 246.517578125 C57.572000856082184 242.78149954886737 56.20773688391074 238.9331210196258 55.187255859375 234.517578125 C54.558193359375 234.54078125 53.92913085937499 234.56398437500002 53.281005859375 234.587890625 C43.95883057914449 234.7844425134386 36.6127168902502 233.49094899872628 29.187255859375 227.517578125 C22.37283905838551 219.2685472606443 22.859495024542227 210.25332451937976 22.773193359375 200.052734375 C22.754459668919424 198.65025216285488 22.734884649491704 197.24778095985425 22.714508056640625 195.84532165527344 C22.66341295472786 192.17445396665127 22.623667086190068 188.50354982684092 22.58636474609375 184.83251953125 C22.54618230472944 181.07836050312696 22.495155309328425 177.3243501359513 22.445068359375 173.5703125 C22.34857727815853 166.21949582094214 22.265091540827385 158.868620349322 22.187255859375 151.517578125 C17.237255859374997 151.517578125 12.287255859374994 151.517578125 7.187255859375 151.517578125 Z M38.187255859375 151.517578125 C38.11940954140647 159.38461964082677 38.06439926232488 167.251500543693 38.031819343566895 175.11875438690186 C38.01618053296889 178.77207010757857 37.99497537640988 182.4251748376536 37.9609375 186.078369140625 C37.92827961384293 189.6056302805144 37.91038941781309 193.13268880080602 37.90262413024902 196.66008949279785 C37.894404524375304 198.65702120824858 37.87099525160973 200.65387170980534 37.84736633300781 202.6506805419922 C37.84713973999024 203.8715687561035 37.84691314697265 205.09245697021484 37.8466796875 206.350341796875 C37.840017852783205 207.4228971862793 37.83335601806641 208.4954525756836 37.82649230957031 209.6005096435547 C38.24013422715997 212.94514299428715 39.1998235966538 214.8196314062842 41.187255859375 217.517578125 C44.27899337441161 219.0634468825183 46.78155138305431 218.81117333847592 50.187255859375 218.517578125 C53.061880809210265 216.3863727720762 54.07184447165034 215.20683935911197 54.66827392578125 211.64483642578125 C54.65939147949217 210.53453063964844 54.65050903320312 209.42422485351563 54.641357421875 208.2802734375 C54.64105529785155 207.01926818847656 54.64075317382813 205.75826293945312 54.64044189453125 204.45904541015625 C54.6200169079018 203.08792486203734 54.59915295101888 201.71681079242433 54.577880859375 200.345703125 C54.57041702754594 198.93895268248463 54.5647247633832 197.53219181701962 54.56072998046875 196.12542724609375 C54.54548446426057 192.4294953058721 54.50621316641434 188.73419585947426 54.4619140625 185.03851318359375 C54.42093729374355 181.2646947798281 54.40271390309883 177.4907738009288 54.382568359375 173.716796875 C54.339716654365844 166.31673606569203 54.2693770203295 158.9173264282392 54.187255859375 151.517578125 C48.907255859375 151.517578125 43.627255859375 151.517578125 38.187255859375 151.517578125 Z M70.187255859375 151.517578125 C70.11946614920203 161.99230508511474 70.06443167932233 172.4668862291062 70.0318193435669 182.94178295135498 C70.01616669170755 187.80575399508862 69.9949356547335 192.6695671109581 69.9609375 197.533447265625 C69.92832987771703 202.22779707863057 69.91039982884257 206.92199502707467 69.90262413024902 211.6164493560791 C69.89708315013479 213.40700991767042 69.88626295199623 215.19756221591672 69.87006568908691 216.98805809020996 C69.84827265116502 219.4970225539321 69.84528969740404 222.00536033539726 69.8466796875 224.514404296875 C69.83589385986329 225.2538377380371 69.82510803222658 225.9932711791992 69.81399536132813 226.75511169433594 C69.84051092194923 231.1813649127434 70.4524878280049 234.0007935722381 73.187255859375 237.517578125 C76.27899337441164 239.06344688251832 78.7815513830543 238.81117333847592 82.187255859375 238.517578125 C84.54549289055115 237.07253302914123 84.54549289055115 237.07253302914123 86.187255859375 234.517578125 C86.56137113047305 231.69274911380455 86.69459756229037 229.264329719481 86.641357421875 226.4443359375 C86.64194152832033 225.6342054748535 86.64252563476563 224.82407501220703 86.64312744140625 223.98939514160156 C86.64034438033372 221.3160594144124 86.60924275656421 218.6438436560099 86.577880859375 215.970703125 C86.57041923960824 214.11554574758804 86.5647259338356 212.26038048181587 86.56072998046875 210.40521240234375 C86.54546741255294 205.5256773548481 86.5061802178983 200.6466195964014 86.4619140625 195.76727294921875 C86.42097480388179 190.78697160439492 86.40272183800363 185.80659303512192 86.382568359375 180.826171875 C86.33968643720266 171.05639732949237 86.26933147772877 161.28710211273932 86.187255859375 151.517578125 C80.907255859375 151.517578125 75.627255859375 151.517578125 70.187255859375 151.517578125 Z M102.187255859375 151.517578125 C102.0714475805135 164.73027858825125 101.98258347750928 177.94285847442575 101.92819499969482 191.15596294403076 C101.90209225519402 197.2912506449253 101.86668075760298 203.42619132696632 101.81005859375 209.561279296875 C101.75576461265905 215.48109666894422 101.72584043019998 221.400580088629 101.71286964416504 227.3206272125244 C101.70362519304871 229.58011953491894 101.68557299981927 231.83959341148787 101.65860557556152 234.09894371032715 C101.62235118677074 237.26192208121915 101.617309164071 240.42351748125265 101.61962890625 243.586669921875 C101.5926643371582 244.99036834716796 101.5926643371582 244.99036834716796 101.56515502929688 246.42242431640625 C101.60094147632452 250.92671889844 101.7250408387782 252.9009387105928 104.50007629394531 256.6031036376953 C108.01932451536072 259.1103833971389 109.95422877108354 259.21025528490225 114.187255859375 258.517578125 C116.56598905799933 257.1711136583171 116.56598905799933 257.1711136583171 118.187255859375 254.517578125 C118.77062476045171 251.21579351729883 118.6920572675748 247.95315033789439 118.641357421875 244.6083984375 C118.64223358154297 243.10059562683105 118.64223358154297 243.10059562683105 118.64312744140625 241.5623321533203 C118.64034070895167 238.23977121579384 118.60921989523285 234.91810734673712 118.577880859375 231.595703125 C118.57042059234936 229.2921395890374 118.56472664992833 226.9885697077642 118.56072998046875 224.68499755859375 C118.5454569281415 218.62183105633818 118.50616019083787 212.55904779187992 118.4619140625 206.49603271484375 C118.4209977062728 200.3092568414495 118.40272670344083 194.1224190487837 118.382568359375 187.935546875 C118.3396679856547 175.79605557238887 118.2713960296019 163.65684871612703 118.187255859375 151.517578125 C112.907255859375 151.517578125 107.627255859375 151.517578125 102.187255859375 151.517578125 Z M134.187255859375 151.517578125 C134.07148942369284 167.33799346764758 133.98227222120616 183.1582588423477 133.92819499969482 198.9789915084839 C133.90241805459382 206.32492686332205 133.8672778059982 213.67059413991092 133.81005859375 221.016357421875 C133.76020736643622 227.41927848022544 133.72796111868746 233.82200538790127 133.7168133854866 240.22511512041092 C133.71029732138294 243.6153296663685 133.69499493886437 247.00498880658392 133.65860557556152 250.3950252532959 C133.62239619896906 254.18059828577134 133.61730745055465 257.96501454415306 133.61962890625 261.750732421875 C133.60165252685547 262.8735461425781 133.58367614746095 263.99635986328127 133.56515502929688 265.1531982421875 C133.58020984053474 271.35953510903676 133.58020984053474 271.35953510903676 136.5000762939453 276.7139434814453 C140.0486636162139 279.09575492138873 141.99890091946332 279.27909720498394 146.187255859375 278.517578125 C148.8359710008853 276.33262658638 150.0374602066894 274.5320498239086 150.54279327392578 271.1097469329834 C150.6816810873806 267.98286899125907 150.6814438639268 264.88050664963487 150.641357421875 261.750732421875 C150.6419415283203 260.5600666809082 150.64252563476563 259.3694009399414 150.64312744140625 258.1426544189453 C150.6408216806203 254.88657956541863 150.6207915433545 251.63119643838104 150.5928316116333 248.37525916099548 C150.56779009631276 244.96934512344666 150.56547381157435 241.56341681928623 150.56072998046875 238.1574249267578 C150.54830819739985 231.71175480807943 150.51549768499981 225.266356756178 150.47533202171326 218.82080632448196 C150.4305892418897 211.48108616818 150.40862101896164 204.1413528726436 150.38855028152466 196.80153024196625 C150.34676411111303 181.7067241871345 150.27562012591355 166.61218855602428 150.187255859375 151.517578125 C144.907255859375 151.517578125 139.627255859375 151.517578125 134.187255859375 151.517578125 Z M166.187255859375 151.517578125 C166.07151963421163 169.94567201562998 165.98228753849128 188.37364122608818 165.92819499969482 206.802020072937 C165.902411470897 215.35861773897722 165.86725830664875 223.91498546627878 165.81005859375 232.471435546875 C165.7602279299007 239.92911059198502 165.72796591828396 247.3866191175234 165.7168133854866 254.84445601701736 C165.71029395749594 258.7935492952241 165.69496910937806 262.7421661837341 165.65860557556152 266.69110679626465 C165.62465092422036 270.40859343170166 165.6142014933073 274.1254077674098 165.62171745300293 277.8430347442627 C165.61968740354615 279.8567677944018 165.59278936405696 281.87042771555025 165.56515502929688 283.88397216796875 C165.3361324888365 290.91290239941793 165.3361324888365 290.91290239941793 168.5352325439453 296.8286895751953 C171.83171990852318 298.92799229709067 173.35361423816647 299.3162534627518 177.187255859375 298.517578125 C179.77542646187135 296.8693529114185 180.7612862277639 296.1416442635948 182.187255859375 293.517578125 C182.9336003021192 288.9889942416445 182.81773578973457 284.49450580427157 182.7548828125 279.914794921875 C182.75347173708178 278.5150609417655 182.75426548655776 277.1153232614638 182.75709533691406 275.71559143066406 C182.7585286226631 271.92229467614294 182.72915415444902 268.1297901202174 182.69422554969788 264.33667731285095 C182.66294687103937 260.37022920942894 182.66003013761735 256.4037624875142 182.6540985107422 252.4372100830078 C182.638564432198 244.92901656769214 182.59754212676825 237.4211875211173 182.54735106229782 229.91315442323685 C182.49144382619738 221.36428049580692 182.4639676691616 212.81538906624385 182.43887388706207 204.2663778066635 C182.38662565465995 186.68322788731433 182.29768376719107 169.10045548693543 182.187255859375 151.517578125 C176.90725585937503 151.517578125 171.627255859375 151.517578125 166.187255859375 151.517578125 Z M198.187255859375 151.517578125 C198.09464259325955 167.33801355121625 198.02326869138335 183.15835299362567 197.98000717163086 198.9789915084839 C197.95938576381707 206.3248740467393 197.9312734735588 213.67058501130668 197.885498046875 221.016357421875 C197.84561706910597 227.4192778248571 197.819819971311 233.82207396533394 197.81090188026428 240.22511512041092 C197.80568916431292 243.61524165252257 197.79344691774145 247.00501270506717 197.76433563232422 250.3950252532959 C197.73536906009036 254.18047687560397 197.73129721746056 257.9651881007492 197.733154296875 261.750732421875 C197.71877319335937 262.8735461425781 197.70439208984374 263.99635986328127 197.6895751953125 265.1531982421875 C197.7111885388456 271.20641301854744 197.7111885388456 271.20641301854744 200.00079345703125 276.7139434814453 C202.17167656404854 278.8036209041332 202.17167656404854 278.8036209041332 205.624755859375 279.142578125 C210.27216511013762 278.3272431687259 211.41846677214556 277.3441015270938 214.187255859375 273.517578125 C214.91561178025722 269.59672933261254 214.81856027124036 265.7280586010771 214.7548828125 261.750732421875 C214.75561294555666 260.5600666809082 214.75634307861327 259.3694009399414 214.75709533691406 258.1426544189453 C214.75421299832215 254.88642410548806 214.72917630241113 251.63127451228837 214.69422554969788 248.37525916099548 C214.66292381427814 244.96936239472987 214.66002834579626 241.5634433399244 214.6540985107422 238.1574249267578 C214.63857110497105 231.71168135875064 214.5975581891284 225.26636288274202 214.54735106229782 218.82080632448196 C214.49142275269583 211.4811078450886 214.46396243178515 204.14138883589015 214.43887388706207 196.80153024196625 C214.38664087168434 181.70663680676935 214.2977110267659 166.6121659005381 214.187255859375 151.517578125 C208.90725585937503 151.517578125 203.627255859375 151.517578125 198.187255859375 151.517578125 Z M230.187255859375 151.517578125 C230.09465182210806 164.87796785540436 230.02353942391994 178.2382814698628 229.98000717163086 191.59892654418945 C229.95911582798055 197.8025570723661 229.9307694250391 204.00596833443814 229.885498046875 210.20947265625 C229.84209627511996 216.19411123331057 229.8181304137662 222.1785386596954 229.80774688720703 228.16332244873047 C229.80034538278892 230.4487414062861 229.7858923157894 232.7341485674774 229.76433563232422 235.01947784423828 C229.73537770325532 238.2160404893254 229.73129676263557 241.41172613047004 229.733154296875 244.6083984375 C229.71877319335937 245.5571434020996 229.70439208984374 246.50588836669922 229.6895751953125 247.48338317871094 C229.6858252136476 252.62685708736063 229.6858252136476 252.62685708736063 232.00079345703125 257.10174560546875 C235.2704806545562 259.21901478786515 237.37842731744144 259.1189721053053 241.187255859375 258.517578125 C244.00905558074635 256.50719383793984 245.88753549920227 254.91707790108944 246.63454627990723 251.42902183532715 C246.80416207739222 248.80184161144086 246.80544780329853 246.21893887144603 246.7548828125 243.586669921875 C246.75561294555666 242.59107559204102 246.75634307861327 241.59548126220704 246.75709533691406 240.56971740722656 C246.75361691397762 237.28485289617464 246.71474202591475 234.00141312360313 246.675537109375 230.716796875 C246.66620993524748 228.43708572010334 246.6590933733686 226.15736453400115 246.6540985107422 223.8776397705078 C246.63502145634442 217.88178769401526 246.58591352517703 211.88654265660136 246.53057861328125 205.89093017578125 C246.47940200863513 199.77112031840772 246.45658779583317 193.6512122309449 246.431396484375 187.53125 C246.37779631874787 175.52642621782257 246.292474133315 163.5220526798122 246.187255859375 151.517578125 C240.90725585937503 151.517578125 235.627255859375 151.517578125 230.187255859375 151.517578125 Z M262.187255859375 151.517578125 C262.0969198948036 162.27033747713858 262.0235198410975 173.02284518233546 261.98000717163086 183.77589797973633 C261.95912423479587 188.7688734689529 261.93079363516426 193.76157609326484 261.885498046875 198.75439453125 C261.8420655802106 203.57194453074112 261.8181240747325 208.38923192530197 261.80774688720703 213.20696258544922 C261.8003508439892 215.0458158864977 261.78590817045165 216.88465466911157 261.7643356323242 218.72339630126953 C261.7353358416744 221.29735982211034 261.73129836294703 223.87023557652464 261.733154296875 226.4443359375 C261.71877319335937 227.2060661315918 261.70439208984374 227.9677963256836 261.6895751953125 228.7526092529297 C261.71659900544404 232.21187967347373 261.9309152219331 234.1666692426817 263.99688720703125 236.99481201171875 C267.1816930636408 239.20892077858562 269.39969999063857 238.99102260859206 273.187255859375 238.517578125 C276.3722915574322 236.75742681817889 277.0202255801532 236.0186689626654 278.187255859375 232.517578125 C278.2782997136274 229.9163300973555 278.31330609710886 227.3424658695307 278.30078125 224.741455078125 C278.30092727661133 223.95097778320314 278.30107330322267 223.16050048828123 278.3012237548828 222.3460693359375 C278.3005269539152 219.73263812512747 278.29274540952116 217.1192781397865 278.284912109375 214.505859375 C278.2830471043255 212.69410745183225 278.28162359014135 210.88235502453668 278.28062438964844 209.0706024169922 C278.2768057124736 204.3014079632835 278.2669809435475 199.53224394840908 278.25592041015625 194.7630615234375 C278.24569234983414 189.89673270443257 278.2411237756744 185.0303989688619 278.236083984375 180.1640625 C278.22535811421045 170.61521884767586 278.20776654301153 161.06640577921752 278.187255859375 151.517578125 C272.907255859375 151.517578125 267.627255859375 151.517578125 262.187255859375 151.517578125 Z M294.187255859375 151.517578125 C294.0968628564832 159.66268301634062 294.02348781886786 167.80739756074667 293.98000717163086 175.9528694152832 C293.95913790825995 179.73520807333657 293.93083338015526 183.51718559536388 293.885498046875 187.29931640625 C293.84201512364143 190.9497812437483 293.81811377420075 194.59989888021815 293.80774688720703 198.25060272216797 C293.8003597628839 199.64289566880814 293.78593410843666 201.03516974979797 293.7643356323242 202.42731475830078 C293.73527545055015 204.37811223422386 293.73362173993803 206.32925958113464 293.733154296875 208.2802734375 C293.7242718505859 209.3905792236328 293.7153894042969 210.50088500976563 293.70623779296875 211.64483642578125 C294.3023625341746 215.20501954903165 295.32414230343016 216.3771241000761 298.187255859375 218.517578125 C301.9407504758572 218.9867649520603 304.2257403932109 219.0489419352486 307.562255859375 217.205078125 C310.6125333798868 214.03748223831465 310.3093808602081 210.7482035290425 310.30078125 206.577392578125 C310.3006679534912 204.74583366394043 310.3006679534912 204.74583366394043 310.30055236816406 202.8772735595703 C310.2928104400635 200.899048538208 310.2928104400635 200.899048538208 310.284912109375 198.880859375 C310.2830466629713 197.5175125306525 310.2816233568533 196.15416501533272 310.28062438964844 194.7908172607422 C310.2768091843674 191.20529321467288 310.26698740838145 187.6198097773975 310.25592041015625 184.0343017578125 C310.24568486579756 180.37443592642094 310.24112217509145 176.71456352377 310.236083984375 173.0546875 C310.2253642397355 165.87563039942359 310.20777551133733 158.69661512922764 310.187255859375 151.517578125 C304.907255859375 151.517578125 299.627255859375 151.517578125 294.187255859375 151.517578125 Z " fill="none" transform="translate(81.812744140625,-0.517578125)"/>
<path stroke="#f472b6" stroke-width="1.5" stroke-linecap="round" d="M0 0 C0.930209655761729 -0.006571197509742888 1.8604193115234295 -0.013142395019542619 2.818817138671875 -0.0199127197265625 C5.905416607271121 -0.039667667757782965 8.991967415667716 -0.05131217190097459 12.07861328125 -0.061279296875 C13.130912513732909 -0.06535482406616211 14.183211746215818 -0.06943035125732422 15.267398834228516 -0.07362937927246094 C20.835164947205726 -0.09449781160293469 26.40290634234455 -0.10879714439846566 31.970703125 -0.1181640625 C37.73013839442896 -0.12924029039032803 43.48918855396022 -0.16365214119167604 49.24848747253418 -0.20333576202392578 C53.66993951678376 -0.22943973446450627 58.091298862232634 -0.23785028210676273 62.512821197509766 -0.24144554138183594 C64.63634980218762 -0.24632628546066826 66.75987386783919 -0.2579822924134305 68.88332748413086 -0.27648353576660156 C71.8522194492715 -0.300746353894624 74.8201024312529 -0.29993362963062964 77.7890625 -0.29296875 C78.66921020507812 -0.3057788085937432 79.54935791015623 -0.31858886718748636 80.4561767578125 -0.331787109375 C86.41097679634737 -0.2807620354121241 86.41097679634737 -0.2807620354121241 89.54251098632813 2.0579376220703125 C91.32469289724446 4.607229104658018 91.94957694355571 6.054350769963662 92.02392578125 9.177001953125 C89.74681734751505 14.815556169992476 89.74681734751505 14.815556169992476 87.02392578125 16.177001953125 C84.02461122774321 16.291413052642383 81.04799974817797 16.34488024095492 78.0478515625 16.35400390625 C77.1176419067383 16.360575103759743 76.18743225097654 16.367146301269543 75.22903442382813 16.373916625976563 C72.14243495522891 16.393671574007783 69.05588414683228 16.405316078150975 65.96923828125 16.415283203125 C64.91693904876706 16.419358730316162 63.86463981628418 16.423434257507324 62.780452728271484 16.42763328552246 C57.212686615294274 16.448501717852935 51.644945220155364 16.462801050648466 46.0771484375 16.47216796875 C40.317713168071066 16.483244196640328 34.55866300853978 16.517656047441676 28.79936408996582 16.557339668273926 C24.3779120457163 16.583443640714506 19.956552700267366 16.591854188356706 15.535030364990234 16.595449447631836 C13.411501760312404 16.60033019171067 11.287977694660782 16.61198619866343 9.16452407836914 16.6304874420166 C6.195632113228413 16.654750260144624 3.227749131247151 16.65393753588063 0.2587890625 16.64697265625 C-0.6213586425781159 16.659782714843743 -1.5015063476562602 16.672592773437486 -2.4083251953125 16.685791015625 C-8.36312523384737 16.634765941662124 -8.36312523384737 16.634765941662124 -11.494659423828125 14.296066284179688 C-13.27684133474446 11.746774801591982 -13.901725381055684 10.299653136286338 -13.97607421875 7.177001953125 C-10.86635507076889 -0.5232549847329437 -7.676923490837453 0.023346073624168184 0 0 Z " fill="none" transform="translate(216.97607421875,449.822998046875)"/>
<path stroke="#f472b6" stroke-width="1.5" stroke-linecap="round" d="M0 0 C2.8333637840651136 1.7586395901093823 3.028878333878197 3.103962001961534 3.9375 6.375 C4 10 4 10 2.5625 12.9375 C-0.5237183652548083 15.421529415936817 -2.222784577393554 15.688496615781801 -6.09375 15.4140625 C-8 15 -8 15 -10.5 13.4375 C-12.568516184670784 10.076161199909961 -12.485050111859437 7.8804008948752795 -12 4 C-9.066427577309184 -1.3083691458214304 -5.5745666350994725 -1.3936416587748681 0 0 Z " fill="none" transform="translate(340,111)"/>
<path stroke="#f472b6" stroke-width="1.5" stroke-linecap="round" d="M0 0 C3.0270674832484588 2.1508111065186455 3.8739579124160173 3.2595027354440163 4.5 6.9375 C3.8616270922797753 10.847534059786398 3.027910405034561 12.426276155720629 0 15 C-2.822959598091245 15.71730940607236 -5.1770404019087835 15.71730940607236 -8 15 C-11.02791040503456 12.426276155720629 -11.861627092279775 10.847534059786398 -12.5 6.9375 C-11.889671375613887 3.3518193317316616 -10.809864608189656 2.2313630712094437 -8 0 C-5.028986090574534 -1.4855069547127329 -3.165652777757714 -0.8230697222170136 0 0 Z " fill="none" transform="translate(260,111)"/>
<path stroke="#f472b6" stroke-width="1.5" stroke-linecap="round" d="M0 0 C2.819729311757527 2.3649342614740476 2.978508312332224 3.8280664986577193 3.4375 7.5 C3 11 3 11 1.5 13.4375 C-1.5303706863565196 15.331481678972835 -3.5583093433983493 15.64334246672533 -7.08984375 15.4453125 C-9 15 -9 15 -11.5625 12.9375 C-13.436255052425082 9.108522284174853 -13.129627010401151 7.06665723744409 -12 3 C-8.529411443031421 -1.5268546395242453 -5.36496865373465 -1.2235893420798334 0 0 Z " fill="none" transform="translate(181,111)"/>

  </g>
</svg>