<?xml version="1.0" encoding="UTF-8"?>
<svg width="100" height="100" viewBox="0 0 100 100" fill="none" xmlns="http://www.w3.org/2000/svg">
  <g transform="translate(25, 25) scale(0.09765625)">
    
<path stroke="#f472b6" stroke-width="1.5" stroke-linecap="round" d="M0 0 C3.4011828981703047 0.7664637517003499 4.773648887500826 2.7819972309385115 6.94140625 5.4375 C8.188931458140729 6.814745749695181 9.439199423994154 8.189509444714066 10.69140625 9.5625 C14.415322701675223 13.780618448065784 17.978412975791173 18.115635655191877 21.5234375 22.484375 C24.12829848194201 25.665756102339515 26.77808765692302 28.805108290148212 29.44140625 31.9375 C35.09020976610046 38.58764227835496 40.60964599648702 45.33871580323225 46.11328125 52.109375 C49.35654762815807 56.0887018327755 52.604012830390786 60.05832287396427 55.953125 63.94921875 C56.45988769531249 64.5397705078125 56.966650390625006 65.130322265625 57.48876953125 65.73876953125 C58.48413749639417 66.89580860642725 59.483697251107145 68.04925728622962 60.48779296875 69.19873046875 C63.94140625 73.21619897959182 63.94140625 73.21619897959182 63.94140625 75.4375 C64.60140625 75.4375 65.26140625 75.4375 65.94140625 75.4375 C66.1979296875 74.59469482421875 66.45445312499999 73.7518896484375 66.71875 72.883544921875 C68.0314382046497 69.18374579874592 69.68934530561606 65.77026743335777 71.50390625 62.30078125 C71.85142944335936 61.62798126220703 72.19895263671876 60.95518127441406 72.5570068359375 60.261993408203125 C73.6808360239256 58.089067360307936 74.81090141914095 55.91945932070716 75.94140625 53.75 C76.71968539703224 52.24957780140241 77.49767894111807 50.749007425045235 78.275390625 49.248291015625 C80.16126646890058 45.61222931014786 82.052574609336 41.97903026007455 83.9462890625 38.3470458984375 C85.29103967134932 35.76658297225619 86.63140507830241 33.18384565668313 87.97265625 30.6015625 C91.87041555787289 23.121697029423068 95.85169877244468 15.68928516633921 99.94140625 8.3125 C100.31587890624999 7.629860839843751 100.69035156250001 6.9472216796875 101.076171875 6.243896484375 C103.70638997807808 1.5550081359609642 103.70638997807808 1.5550081359609642 105.94140625 0.4375 C113.20654650550466 -0.14839840770198442 113.20654650550466 -0.14839840770198442 116.03442859649658 2.1062517166137695 C118.40199650053137 5.000563876979914 118.46572315950698 6.458105500393707 118.52336120605469 10.163253784179688 C118.564125289917 11.91742362976074 118.564125289917 11.91742362976074 118.605712890625 13.70703125 C118.61948974609373 15.627452392578125 118.61948974609373 15.627452392578125 118.633544921875 17.586669921875 C118.65698550387918 18.952444343868887 118.68195238774763 20.318193295551467 118.70832824707031 21.683914184570313 C118.77366303963532 25.400578211181738 118.81180179456663 29.11701478107711 118.84095549583435 32.834123373031616 C118.85940313710739 35.17153386540039 118.8817378738978 37.50887949430613 118.90499305725098 39.84624671936035 C118.97593154059598 47.201229220437604 119.0281932952185 54.556046039372646 119.05703085660934 61.91131418943405 C119.09050784966723 70.31925699447889 119.18598681713297 78.72333421699771 119.3375341296196 87.12995833158493 C119.45125978999977 93.67151217202053 119.50428228514943 100.21199384362802 119.51541501283646 106.75451546907425 C119.52337326140582 110.63885839167948 119.55399730026562 114.51919888758097 119.64961814880371 118.40245628356934 C120.18180268776757 141.22110590364713 115.38580163427537 157.97048476287293 104.68605995178223 178.11880493164063 C102.4473316487531 182.3773328968578 100.42975716984859 186.71852236421793 98.44140625 191.09765625 C97.84109196657698 192.3768509789147 97.2383159321893 193.65489398334716 96.6328125 194.931640625 C96.0746484375 196.10919921875 95.516484375 197.2867578125 94.94140625 198.5 C94.50223876953126 199.4263122558594 94.50223876953126 199.4263122558594 94.05419921875 200.371337890625 C91.99616295946905 204.71738672853562 89.95770404038834 209.0719289717254 87.94140625 213.4375 C87.44664794921874 214.50396759033202 87.44664794921874 214.50396759033202 86.94189453125 215.59197998046875 C85.93047428270393 217.78425138736785 84.934024841369 219.98275470289767 83.94140625 222.18359375 C83.62614990234374 222.8639015197754 83.31089355468751 223.5442092895508 82.986083984375 224.24513244628906 C81.12307650887465 228.21963082622563 81.12307650887465 228.21963082622563 81.94140625 232.4375 C82.63621093750001 233.02015625 83.33101562499999 233.6028125 84.046875 234.203125 C85.94140625 236.4375 85.94140625 236.4375 85.7421875 239.546875 C85.5810546875 240.74828125 85.419921875 241.9496875 85.25390625 243.1875 C85.16096457417675 246.2979736879857 85.54689170788293 248.6388091521946 86.94140625 251.4375 C92.68444611483858 257.3395736734615 100.10262708076104 261.4678501680593 107.099609375 265.7099609375 C110.58145615769524 267.8265887583206 113.94827481323239 270.0841970720051 117.31640625 272.375 C118.49263919704299 273.15492984406876 119.66976399610257 273.93351589907365 120.84765625 274.7109375 C129.5067426275416 280.4557386965055 138.06705770813835 286.34979620298844 146.6552734375 292.19970703125 C151.9154187152053 295.7817643578062 157.1785148555341 299.35947918650044 162.44140625 302.9375 C164.5247547315215 304.3541443896632 166.60808804122212 305.7708110915953 168.69140625 307.1875 C169.72265625 307.88875 170.75390625 308.59 171.81640625 309.3125 C191.60807291666669 322.77083333333337 211.39973958333331 336.22916666666663 231.19140625 349.6875 C232.22386474609374 350.3895556640625 233.25632324218748 351.091611328125 234.320068359375 351.81494140625 C236.39125528037454 353.22338091279437 238.46238215710963 354.6319087219773 240.533447265625 356.04052734375 C245.35874032521724 359.32225875584294 250.18457754713518 362.60317928583646 255.01266479492188 365.88079833984375 C256.70781334400016 367.0316375855591 258.4027637927984 368.18276801174744 260.09765625 369.333984375 C262.2131508987215 370.77075782392336 264.329008950373 372.20699641776895 266.4453125 373.642578125 C269.2809856684596 375.56894543077357 272.1120291943595 377.501899999058 274.94140625 379.4375 C275.9006298828125 380.089443359375 276.859853515625 380.74138671875 277.84814453125 381.4130859375 C278.7567724609375 382.037314453125 279.665400390625 382.66154296875 280.6015625 383.3046875 C281.81984741210937 384.13782470703126 281.81984741210937 384.13782470703126 283.062744140625 384.98779296875 C284.94140625000006 386.43750000000006 284.94140625000006 386.43750000000006 285.94140625 388.4375 C286.0366761450735 389.9141833736389 286.0712658408872 391.39525457484564 286.06640625 392.875 C286.068984375 393.6574609375 286.0715625 394.439921875 286.07421875 395.24609375 C285.94140625 397.43750000000006 285.94140625 397.43750000000006 284.94140625 400.4375 C285.7969610595703 400.4286175537109 286.65251586914064 400.4197351074219 287.53399658203125 400.41058349609375 C295.59714209291667 400.33043241225533 303.6601537965476 400.26953304996846 311.72360610961914 400.23025131225586 C315.8691329471718 400.2093771248077 320.01433059494764 400.1810631545771 324.15966796875 400.1357421875 C328.1602578183576 400.09227751170334 332.1605310623412 400.0683616228587 336.16133880615234 400.05799102783203 C337.68759902462347 400.0506006863632 339.2138419313557 400.03616888657456 340.7399673461914 400.0145797729492 C342.8781323889194 399.9855357598261 345.01498971320984 399.98154414876706 347.1533203125 399.9833984375 C348.3702154541016 399.9745159912109 349.5871105957031 399.9656335449219 350.84088134765625 399.95648193359375 C353.94140625000006 400.4375 353.94140625000006 400.4375 356.33050537109375 402.21978759765625 C358.26659487545953 404.88518418543066 358.46021202601287 407.0821650196749 358.5703125 410.33984375 C356.8902656272058 415.9434783505621 350.7051425789717 419.1622376933552 346.06640625 422.25 C344.64133968878366 423.21397596146613 343.2168989152723 424.17887745975787 341.79296875 425.14453125 C340.6332958984375 425.9288452148437 340.6332958984375 425.9288452148437 339.4501953125 426.72900390625 C334.7541793311093 429.9270108970803 330.1010188239275 433.18679443154537 325.44140625 436.4375 C318.3415463962351 441.38342445244007 311.231066140608 446.3125210262143 304.093505859375 451.203857421875 C297.0677383163245 456.02479206106057 290.0811927550753 460.9021974712705 283.095703125 465.78125 C282.16951171875 466.4270703125 281.2433203125 467.072890625 280.2890625 467.73828125 C279.39292236328123 468.368955078125 278.4967822265625 468.99962890625 277.573486328125 469.6494140625 C275.8604045441085 470.81318467618485 274.1128037113562 471.9281678457582 272.330810546875 472.9833984375 C267.1182935459773 476.0315085932532 267.1182935459773 476.0315085932532 264.328125 481.1640625 C264.0973828125 482.450546875 263.866640625 483.73703125 263.62890625 485.0625 C262.0171533531175 493.60734869140856 262.0171533531175 493.60734869140856 257.94140625 496.4375 C254.35365015553964 497.0464476832311 250.7925369315547 496.9764727971454 247.1611328125 496.9454345703125 C246.04981113433837 496.9516745328903 244.93848945617674 496.9579144954681 243.7934913635254 496.96434354782104 C240.05612448458356 496.98034448340536 236.3194033866929 496.9676409421512 232.58203125 496.955078125 C229.90814295887327 496.9604960878924 227.23429971042276 496.96747172111236 224.5604248046875 496.976318359375 C218.0437194729085 496.99412036839004 211.52719824516078 496.99025620084865 205.0104856491089 496.9786677956581 C199.7150235442317 496.969640319947 194.41961309649645 496.968406489015 189.1241455078125 496.97276306152344 C188.37094410181044 496.97337599366904 187.61774269580843 496.97398892581464 186.841717004776 496.9746204316616 C185.31168205025438 496.9758993116483 183.78164711065165 496.97719616405504 182.25161218643188 496.9785107970238 C167.89886183555427 496.98992151518087 153.54621361651988 496.97679521124934 139.19348001480103 496.9553093314171 C126.87372718647782 496.93743787827356 114.55412510772692 496.94054184845953 102.234375 496.958984375 C87.9335723045136 496.9803824393406 73.6328591613468 496.9888228337958 59.3320426940918 496.976535320282 C57.80758414073955 496.97526110133117 56.283125573304005 496.97400361904437 54.7586669921875 496.97276306152344 C54.00857179880143 496.9721459594369 53.25847660541535 496.97152885735034 52.48565125465393 496.9708930552006 C47.195531148834846 496.9674369513803 41.905467766987044 496.9732740844245 36.6153564453125 496.98268127441406 C30.169890460822728 496.9938908523054 23.724619366705127 496.99088334559093 17.279175758361816 496.9695582985878 C13.989491369026808 496.95903354659595 10.700199934255522 496.95709692135694 7.4105072021484375 496.96815490722656 C3.847236889265048 496.97903094312613 0.2848905842858471 496.96544165115125 -3.2783203125 496.9454345703125 C-4.844257450103754 496.95881890058513 -4.844257450103754 496.95881890058513 -6.441829681396484 496.9724736213684 C-13.383870416864113 496.8964885253819 -13.383870416864113 496.8964885253819 -16.70794677734375 494.63524627685547 C-18.69114923918366 491.40821810813463 -18.488318805741486 488.34421363412497 -18.30859375 484.6875 C-18.290546875000004 483.9901171875 -18.272499999999994 483.292734375 -18.25390625 482.57421875 C-18.206979287162227 480.8613846064211 -18.13523979900002 479.1492617610005 -18.05859375 477.4375 C-18.929677734375005 477.16349365234373 -19.800761718749996 476.8894873046875 -20.6982421875 476.607177734375 C-26.130625038984775 474.7162633024175 -31.169166938457863 472.0666614896122 -36.30859375 469.5 C-37.409453125 468.96181640625 -38.5103125 468.4236328125 -39.64453125 467.869140625 C-40.693828124999996 467.34642578125 -41.743125000000006 466.8237109375 -42.82421875 466.28515625 C-44.2594287109375 465.5737145996094 -44.2594287109375 465.5737145996094 -45.7236328125 464.847900390625 C-48.05859375 463.4375 -48.05859375 463.4375 -50.05859375 460.4375 C-50.30468940734863 457.3821687698364 -50.30468940734863 457.3821687698364 -50.299102783203125 453.5469512939453 C-50.30081163287163 452.8420170134306 -50.30252048254013 452.13708273291587 -50.30428111553192 451.4107868075371 C-50.30758163583235 449.0430423486292 -50.29656322876701 446.6755797847531 -50.28564453125 444.307861328125 C-50.285080537902985 442.61285915832894 -50.285396744187125 440.9178564993521 -50.286529541015625 439.2228546142578 C-50.287104519499465 434.61569857418897 -50.27532675407818 430.00864619338404 -50.26138162612915 425.4015142917633 C-50.248898425362086 420.58886375805815 -50.24770567297972 415.7762109782024 -50.245330810546875 410.9635467529297 C-50.23910894382442 401.8475537020642 -50.22268857532083 392.7316084907086 -50.20263183116913 383.6156365275383 C-50.180294800759754 373.2385038664014 -50.16928493101162 362.8613689480244 -50.15924096107483 352.48421823978424 C-50.138322958302965 331.135285435292 -50.103133263255415 309.78639572844037 -50.05859375 288.4375 C-51.37053710937499 288.458447265625 -52.68248046875 288.47939453125 -54.0341796875 288.5009765625 C-58.90190718887624 288.573379702734 -63.769587099516514 288.6193011323583 -68.6376953125 288.6572265625 C-70.74454756736466 288.6773412591125 -72.85134400415313 288.70463667084346 -74.9580078125 288.7392578125 C-77.98646821864389 288.7877816832865 -81.0141905317578 288.8104701639943 -84.04296875 288.828125 C-85.45567047119141 288.85909271240234 -85.45567047119141 288.85909271240234 -86.89691162109375 288.89068603515625 C-93.37786698247837 288.8929095508677 -93.37786698247837 288.8929095508677 -96.61233520507813 286.7290344238281 C-98.22129673596771 284.17970412075437 -98.78654750940571 282.3596933782786 -99.21435546875 279.38232421875 C-99.36144958496094 278.40954528808595 -99.50854370117187 277.4367663574219 -99.66009521484375 276.43450927734375 C-99.85735198974609 274.9509896850586 -99.85735198974609 274.9509896850586 -100.05859375 273.4375 C-100.18929260253907 272.5327593994141 -100.31999145507812 271.6280187988281 -100.45465087890625 270.69586181640625 C-100.84802242990118 267.90653992971113 -101.2116036881406 265.1147926759375 -101.56640625 262.3203125 C-101.69675262451172 261.3012985229492 -101.82709899902343 260.28228454589845 -101.96139526367188 259.2323913574219 C-102.23357525193765 257.09312665458333 -102.50407334496688 254.95364733872924 -102.77294921875 252.81396484375 C-103.18179742459583 249.57672322338453 -103.60245969145942 246.3411523262624 -104.0234375 243.10546875 C-107.6659005228511 214.61880889358227 -107.6659005228511 214.61880889358227 -104.501953125 210.324951171875 C-101.40698395913071 207.93414315615402 -98.12425658596676 206.47016893934622 -94.53515625 204.99609375 C-93.77716232299804 204.67569122314453 -93.01916839599609 204.35528869628905 -92.23820495605469 204.02517700195313 C-89.72392803966936 202.96548220163436 -87.20394802853325 201.9201489661242 -84.68359375 200.875 C-82.91986194019739 200.13540896783218 -81.15643973862771 199.39507921498284 -79.393310546875 198.654052734375 C-73.62144649960737 196.23312014726966 -67.8404614096541 193.83442120109495 -62.05859375 191.4375 C-59.95489603587771 190.56417416237147 -57.851217937020635 189.6908010734398 -55.74755859375 188.8173828125 C-45.571834691193004 184.5947642064911 -35.391014069114945 180.38459178217127 -25.203125 176.19140625 C-23.922866897583006 175.6643962097168 -23.922866897583006 175.6643962097168 -22.616744995117188 175.12673950195313 C-21.82387588500977 174.80075775146486 -21.031006774902337 174.47477600097656 -20.214111328125 174.138916015625 C-19.528677520751955 173.8570997619629 -18.84324371337891 173.57528350830077 -18.137039184570313 173.28492736816406 C-15.781937019776223 172.32470103935427 -13.420357740185267 171.38120604819986 -11.05859375 170.4375 C-11.057127189636219 169.58566761016846 -11.055660629272467 168.7338352203369 -11.054149627685547 167.8561897277832 C-11.017119366390347 147.1418979644079 -10.958154992908305 126.42777031421969 -10.874691009521484 105.7136116027832 C-10.83485915348706 95.69644141064144 -10.802487763378338 85.6793502515442 -10.78759765625 75.662109375 C-10.774602595974443 66.93242398017416 -10.747693007072655 58.20291217920925 -10.703980684280396 49.47332453727722 C-10.681317445840648 44.849812827020955 -10.665685971074225 40.22651560857839 -10.666709899902344 35.602943420410156 C-10.667453652588847 31.252619767861248 -10.649618148248067 26.902771136608877 -10.617425918579102 22.552570343017578 C-10.608895096674644 20.95461568271402 -10.60719849469649 19.356607934318852 -10.612791061401367 17.75864028930664 C-10.619405151630986 15.578708085345372 -10.601575935839321 13.400298795057225 -10.57757568359375 11.22052001953125 C-10.572044925689681 9.389839153289795 -10.572044925689681 9.389839153289795 -10.566402435302734 7.522174835205078 C-9.563305967090287 1.4288831638871464 -6.004563612898096 -0.35386010241756605 0 0 Z M5.94140625 32.4375 C5.777892656287804 50.60475108074162 5.654449623328901 68.77181123642796 5.578721046447754 86.9396390914917 C5.542624385770694 95.37529279836572 5.493411852108693 103.81048934030204 5.413330078125 112.245849609375 C5.343564628250192 119.59805075774038 5.298400084208168 126.94992084832228 5.282786786556244 134.30244380235672 C5.273659520091826 138.19585292404707 5.252208670943332 142.08831495307118 5.201295852661133 145.98142051696777 C5.15375308028149 149.64655258115175 5.1391300248541825 153.31034837306885 5.149652481079102 156.9757595062256 C5.14681062587465 158.96095201153534 5.109153586503282 160.94599913753103 5.070465087890625 162.93081665039063 C4.905688754876962 169.0925090754829 4.905688754876962 169.0925090754829 7.553205490112305 174.37278175354004 C9.648695827725021 175.97755868710772 9.648695827725021 175.97755868710772 12.94140625 177.4375 C13.817082519531255 175.72373168945313 13.817082519531255 175.72373168945313 14.71044921875 173.975341796875 C16.927234855118343 169.63767613731434 19.1455437862393 165.30079088755656 21.3642578125 160.964111328125 C22.31485316760856 159.10559192924177 23.26506353518718 157.2468755544285 24.21484375 155.387939453125 C31.86486564620202 140.41610104927622 39.5839329829995 125.48293902903413 47.578125 110.69140625 C48.09181640624999 109.73298828125 48.60550781250001 108.7745703125 49.134765625 107.787109375 C50.16486211507123 105.86560912489325 51.204518341343544 103.9492135468494 52.251953125 102.037109375 C52.75146484375 101.09802734375 53.2509765625 100.1589453125 53.765625 99.19140625 C54.20994873046874 98.36970947265625 54.654272460937506 97.5480126953125 55.112060546875 96.701416015625 C56.07405343999454 94.07540480046526 55.96950326081958 93.0031694431458 54.94140625 90.4375 C53.241021571693096 88.00383091124256 53.241021571693096 88.00383091124256 51.06640625 85.5 C50.25171875000001 84.528046875 49.43703124999999 83.55609375 48.59765625 82.5546875 C47.71323834359819 81.51477475397118 46.82780560564538 80.47572431816482 45.94140625 79.4375 C44.1487520124233 77.33417190856599 42.35699282258352 75.23008867208331 40.56640625 73.125 C40.10427734375 72.58286865234375 39.6421484375 72.0407373046875 39.166015625 71.482177734375 C35.86269896229999 67.5854748316084 32.69436465166248 63.600698836398806 29.56640625 59.5625 C25.53928906364456 54.37517561264084 21.36620617112294 49.33874858904541 17.06640625 44.375 C16.530961914062516 43.7557666015625 15.995517578125003 43.136533203125 15.44384765625 42.49853515625 C12.396794473513552 39.0081352576811 9.225068840778363 35.70953823070248 5.94140625 32.4375 Z M100.94140625 43.4375 C100.3879150390625 44.51942626953125 99.83442382812501 45.6013525390625 99.26416015625 46.716064453125 C97.15914398699056 50.83007396406241 95.05266514660138 54.943333209139254 92.94580078125 59.056396484375 C92.04372494469698 60.81791908697488 91.14201701381126 62.579630155090854 90.24072265625 64.341552734375 C85.04434333314236 74.49916795870664 79.80672356950458 84.63249683307262 74.48046875 94.72267150878906 C70.80271124291988 101.6907385776905 67.17726216346767 108.68453753309849 63.56640625 115.6875 C62.26881957176869 118.2008260274434 60.970488360992874 120.71376681500891 59.671875 123.2265625 C59.19413383483885 124.15104690551757 59.19413383483885 124.15104690551757 58.70674133300781 125.09420776367188 C55.778530820673495 130.75784498703564 52.831651476655225 136.41162527581892 49.87890625 142.0625 C45.69920810208092 150.06324938891163 41.52948520876154 158.06911714715423 37.372100830078125 166.08148193359375 C36.468432650295256 167.82291810521195 35.56418134970778 169.56405164438888 34.659912109375 171.30517578125 C31.70927614793274 176.9946816157428 28.788109606008902 182.69525278922714 25.94140625 188.4375 C35.86206045615981 196.54151492944743 45.83791786710739 204.56253817492012 55.94140625 212.4375 C56.88886718750001 213.1761328125 57.836328124999994 213.914765625 58.8125 214.67578125 C60.85395127767748 216.2649921510313 62.89665087600102 217.85254411486324 64.94140625 219.4375 C68.02054451220104 217.89793086889946 68.47230777465626 215.4275468203603 69.85546875 212.31640625 C70.14233047485351 211.67722763061522 70.42919219970702 211.03804901123047 70.72474670410156 210.37950134277344 C71.34914801794937 208.98710610023718 71.9707573423263 207.59345630758622 72.58993530273438 206.19873046875 C74.25453839551875 202.45052521110307 75.94020056119714 198.71181671915215 77.625 194.97265625 C77.9751466369629 194.19447540283204 78.32529327392578 193.41629455566405 78.68605041503906 192.61453247070313 C83.21854404257218 182.56641034196963 87.94320230524417 172.60894424583398 92.66064453125 162.646728515625 C92.98431503295899 161.96244277954102 93.30798553466798 161.27815704345704 93.64146423339844 160.57313537597656 C94.51189938282818 158.73370036711162 95.38417019760271 156.8951343166737 96.256591796875 155.056640625 C96.81258056640627 153.86232421875002 97.36856933593748 152.66800781249998 97.94140625 151.4375 C98.27918374061585 150.7884674167633 98.6169612312317 150.1394348335266 98.96497440338135 149.47073459625244 C101.86634528829151 143.61048914379597 102.49988552081334 138.81190742654067 102.3955078125 132.327880859375 C102.39609191894533 131.36096313476563 102.3966760253906 130.39404541015625 102.39727783203125 129.3978271484375 C102.39451241472301 126.23228852342737 102.36349337828199 123.06771592173169 102.33203125 119.90234375 C102.32456338088662 117.69560764766165 102.31887302958887 115.48886487742654 102.31488037109375 113.28211975097656 C102.29966714439726 107.4968508932158 102.26042235042243 101.71198889385954 102.216064453125 95.9268798828125 C102.17501868338815 90.01446026878855 102.15684950441954 84.10197439806078 102.13671875 78.189453125 C102.09392403500894 66.60529079077156 102.02572496913083 55.021429336918295 101.94140625 43.4375 C101.61140625000002 43.4375 101.28140625 43.4375 100.94140625 43.4375 Z M-13.21875 189.77734375 C-14.060195617675788 190.13120651245117 -14.901641235351576 190.48506927490234 -15.768585205078125 190.8496551513672 C-17.596562141252548 191.618798740299 -19.423866093263186 192.3895432495322 -21.250579833984375 193.16168212890625 C-26.108177202492698 195.21490669782594 -30.97049088062829 197.25691484646507 -35.83203125 199.30078125 C-36.83403060913085 199.72244567871093 -37.83602996826173 200.14411010742188 -38.86839294433594 200.57855224609375 C-49.64518589606844 205.1112736936152 -60.444108093539995 209.59022204872755 -71.24609375 214.0625 C-73.05021831269045 214.80979821991676 -74.85433632787274 215.55711224703157 -76.658447265625 216.304443359375 C-80.79150296684051 218.01625178274966 -84.9249243059865 219.7271742067476 -89.05859375 221.4375 C-88.22845058272623 228.54067642521508 -87.39162188042403 235.64304179760063 -86.550048828125 242.744873046875 C-86.26431201714206 245.16298382803913 -85.98012966799934 247.58127880430195 -85.697509765625 249.999755859375 C-85.29197218338672 253.46777689977705 -84.88092346816971 256.9351059451294 -84.46875 260.40234375 C-84.34266860961914 261.49087142944336 -84.21658721923828 262.5793991088867 -84.08668518066406 263.70091247558594 C-83.96663619995117 264.70187454223634 -83.84658721923827 265.70283660888674 -83.722900390625 266.734130859375 C-83.61853164672851 267.62015487670897 -83.51416290283203 268.506178894043 -83.40663146972656 269.41905212402344 C-83.25992969212848 271.4283879297983 -83.25992969212848 271.4283879297983 -82.05859375 272.4375 C-80.09697771352916 272.5341693654041 -78.1318273037384 272.55937097411834 -76.16783142089844 272.55775451660156 C-74.88750534057617 272.5591291809082 -73.6071792602539 272.56050384521484 -72.28805541992188 272.5619201660156 C-70.85601783611344 272.55838054978165 -69.42398048507144 272.5547457333646 -67.991943359375 272.551025390625 C-66.49427797336159 272.5507435274111 -64.99661244889023 272.5509012353127 -63.49894714355469 272.5514678955078 C-59.42061203287878 272.55175590518525 -55.342306075348944 272.54585864062153 -51.26397776603699 272.5388939380646 C-47.00651746561215 272.5326609542915 -42.74905656614834 272.5320566455963 -38.49159240722656 272.53086853027344 C-30.42386188183434 272.5277550498515 -22.35614483736063 272.5195414383711 -14.288420259952545 272.50951904058456 C-5.105985958208976 272.4983584208999 4.076448972781236 272.4928475831487 13.258888363838196 272.4878236055374 C32.15306864805419 272.4773588373334 51.047236366842014 272.4597590747442 69.94140625 272.4375 C70.14944420470542 267.92908449656403 70.27526911075915 263.42191138242526 70.38671875 258.91015625 C70.44641845703126 257.63805297851565 70.50611816406251 256.36594970703123 70.567626953125 255.0552978515625 C70.76891463351367 246.71034191089075 70.76891463351367 246.71034191089075 66.50051879882813 239.86012268066406 C63.962287025024864 237.63780612403377 61.34277071107405 235.63750244569013 58.37109375 234.02734375 C54.23636643981314 231.65357203917534 50.62631635578691 228.9493598292722 46.94140625 225.9375 C45.7972389809801 225.0395397283886 44.6513848817616 224.14372488973925 43.50390625 223.25 C39.61197353100161 220.19205286364414 35.776107029032744 217.06671504462213 31.94140625 213.9375 C25.242079136245508 208.47422891588238 18.487380845704337 203.08943153784466 11.66455078125 197.78125 C9.855184581923425 196.37026224694054 8.052568145508872 194.95090882899777 6.25 193.53125 C5.064058678975243 192.60383844759468 3.877869739111304 191.6767434345355 2.69140625 190.75 C2.1420239257812455 190.31534423828126 1.592641601562491 189.8806884765625 1.026611328125 189.432861328125 C-4.5192300179433005 185.12627480117496 -7.158816389905496 187.20398646360607 -13.21875 189.77734375 Z M85.94140625 272.4375 C85.9040234375 273.2689453125 85.866640625 274.100390625 85.828125 274.95703125 C85.7623828125 276.0437109375 85.69664062499999 277.130390625 85.62890625 278.25 C85.5708984375 279.3289453125 85.51289062500001 280.407890625 85.453125 281.51953125 C84.88323635174325 284.76920163357096 84.51265353729241 285.49571652948737 81.94140625 287.4375 C79.581298828125 287.869873046875 79.581298828125 287.869873046875 76.8359375 287.94921875 C75.85302734375 287.98466796875 74.8701171875 288.0201171875 73.857421875 288.056640625 C72.32118164062501 288.090478515625 72.32118164062501 288.090478515625 70.75390625 288.125 C69.71814453125 288.15916015625 68.68238281250001 288.1933203125 67.615234375 288.228515625 C65.05739965317105 288.31102642247834 62.49990902390368 288.38016571721226 59.94140625 288.4375 C45.9562510382363 333.6288859647975 32.039986634461 378.84037826958655 18.267822265625 424.09716796875 C18.018829584121704 424.91524555206297 17.769836902618408 425.73332313537594 17.513298988342285 426.5761909484863 C16.309813061884313 430.5304395205264 15.10691968415395 434.48486604502955 13.905349731445313 438.439697265625 C11.775145188237673 445.4468772258439 9.633068694749028 452.44986111782646 7.45361328125 459.44189453125 C7.074795074462884 460.6602247619629 6.695976867675768 461.8785549926758 6.3056793212890625 463.13380432128906 C5.6085306926819385 465.37157837332757 4.90787860739249 467.60826534084117 4.2029876708984375 469.84361267089844 C3.750715560913079 471.29593040466307 3.750715560913079 471.29593040466307 3.289306640625 472.777587890625 C2.8957674407959075 474.02929527282714 2.8957674407959075 474.02929527282714 2.4942779541015625 475.30628967285156 C1.8158537401545232 477.55452077671924 1.8158537401545232 477.55452077671924 1.94140625 480.4375 C82.79140625000002 480.4375 163.64140625000005 480.4375 246.94140625 480.4375 C248.8035008947533 474.8512160657401 250.5108488933755 469.5392185301846 251.934326171875 463.869873046875 C252.19832969665526 462.82415382385255 252.19832969665526 462.82415382385255 252.46766662597656 461.75730895996094 C253.03930505382198 459.48882508786266 253.60583316847965 457.21910502469774 254.171875 454.94921875 C254.5709807225429 453.3573637310536 254.97026041661888 451.76555232070325 255.3697052001953 450.1737823486328 C256.20155028823314 446.85529149376765 257.03075023152337 443.5361535434784 257.858154296875 440.216552734375 C258.91845555570967 435.96380158337195 259.9862566294471 431.7129738288447 261.0561170578003 427.4626188278198 C261.88040434179334 424.1838010885738 262.70031564488806 420.9039010674255 263.5189456939697 417.62366676330566 C263.9110184159791 416.05522262043667 264.30455036181075 414.4871424920167 264.69957542419434 412.9194393157959 C265.24979132544377 410.7334424604419 265.79399326967086 408.54603310327377 266.336669921875 406.358154296875 C266.6473893737793 405.1151103210449 266.9581088256836 403.8720663452149 267.2782440185547 402.5913543701172 C268.0785866951659 399.3222368362672 268.0785866951659 399.3222368362672 267.94140625 395.4375 C265.6786932717687 393.4443022029201 265.6786932717687 393.4443022029201 262.671875 391.68359375 C261.5714990234375 390.98604980468747 260.471123046875 390.288505859375 259.33740234375 389.56982421875 C258.76874450683596 389.2149090576172 258.20008666992186 388.85999389648435 257.61419677734375 388.49432373046875 C255.09411700158483 386.90220561038024 252.63910804092308 385.2190341397574 250.1796875 383.53515625 C249.21933593749998 382.8816015625 248.258984375 382.228046875 247.26953125 381.5546875 C245.776796875 380.5376171875 245.776796875 380.5376171875 244.25390625 379.5 C242.6131616517781 378.38319065163046 240.97241642577967 377.26638222426027 239.33163452148438 376.1496276855469 C237.6462666478826 375.00242859065736 235.96106115179202 373.85499128320356 234.27587890625 372.70751953125 C228.99941961592833 369.1150162065066 223.72024245459545 365.5265092716413 218.44140625 361.9375 C216.3580607952715 360.52085115907846 214.27472748652337 359.1041844559297 212.19140625 357.6875 C210.64453125 356.635625 210.64453125 356.635625 209.06640625 355.5625 C189.27473958333331 342.10416666666663 169.48307291666663 328.6458333333333 149.69140625 315.1875 C148.6596728515625 314.48592773437497 147.627939453125 313.78435546875 146.56494140625 313.0615234375 C144.4864666554916 311.6481476104249 142.4080160433649 310.23473628502177 140.32958984375 308.8212890625 C135.04711990907447 305.2289776380412 129.76420173308657 301.63732846514233 124.48046875 298.046875 C123.41634765624997 297.32363037109377 122.3522265625 296.6003857421875 121.255859375 295.855224609375 C119.153155936946 294.42611378371043 117.05029498407424 292.99723468401925 114.947265625 291.568603515625 C110.01771514205745 288.2178776329548 105.09398735159272 284.8592187393839 100.18359375 281.48046875 C99.29526855468748 280.869775390625 98.40694335937502 280.25908203125 97.49169921875 279.6298828125 C95.83044956472813 278.48675984551653 94.17054797192418 277.3416745340428 92.51220703125 276.1943359375 C91.7875927734375 275.695791015625 91.06297851562499 275.19724609375 90.31640625 274.68359375 C89.68476562500001 274.2471655273437 89.053125 273.8107373046875 88.40234375 273.361083984375 C87.08859570945248 272.34844006012815 87.08859570945248 272.34844006012815 85.94140625 272.4375 Z M-34.05859375 288.4375 C-34.05859375 342.2275 -34.05859375 396.0175 -34.05859375 451.4375 C-26.36588539079328 456.2392082793178 -26.36588539079328 456.2392082793178 -18.05859375 458.4375 C-18.05859375 402.3375 -18.05859375 346.2375 -18.05859375 288.4375 C-23.33859375 288.4375 -28.618593750000002 288.4375 -34.05859375 288.4375 Z M-2.05859375 288.4375 C-2.05859375 335.6275 -2.05859375 382.8175 -2.05859375 431.4375 C0.07273449916363006 428.2405076262546 1.09253634941183 425.17847647288886 2.193603515625 421.550048828125 C2.410742254257201 420.84847593307495 2.627880992889402 420.1469030380249 2.85159969329834 419.42407035827637 C3.575044895453914 417.0823132929982 4.291431936504466 414.73845826827124 5.0078125 412.39453125 C5.519248276260498 410.7337466732557 6.031097690074915 409.0730894259594 6.5433349609375 407.4125518798828 C7.918345720545915 402.95043524895954 9.287116018436052 398.4864276029942 10.654438018798828 394.0219497680664 C11.784149419901581 390.3355220227454 12.917084215651357 386.6500884454196 14.050040245056152 382.964656829834 C16.887946139175597 373.7328269749303 19.719038182662814 364.4989242817552 22.54562282562256 355.26362228393555 C24.290085685687075 349.5639530618333 26.03673355331381 343.86495956368736 27.78515625 338.16650390625 C29.830024533881954 331.50095153429874 31.86965806597479 324.8338220094747 33.904266357421875 318.1651306152344 C34.6357571537159 315.7686268549784 35.36843844856665 313.37248614176696 36.102325439453125 310.9767150878906 C37.106275139742365 307.6966767742901 38.104797715421455 304.4150401589107 39.1015625 301.1328125 C39.540307006835945 299.7042870330811 39.540307006835945 299.7042870330811 39.9879150390625 298.2469024658203 C40.24850708007813 297.3844139099121 40.509099121093755 296.5219253540039 40.777587890625 295.63330078125 C41.11748497009279 294.5175114440918 41.11748497009279 294.5175114440918 41.46424865722656 293.3791809082031 C42.06072840486672 291.28518830302363 42.06072840486672 291.28518830302363 41.94140625 288.4375 C27.42140624999999 288.4375 12.90140624999998 288.4375 -2.05859375 288.4375 Z M280.94140625 416.4375 C278.5585637232957 423.5860275801129 276.51649909178474 430.58791814384483 274.69140625 437.875 C274.410390625 438.96232421875 274.129375 440.0496484375 273.83984375 441.169921875 C273.4492578125 442.723564453125 273.4492578125 442.723564453125 273.05078125 444.30859375 C272.6945166015625 445.7151623535156 272.6945166015625 445.7151623535156 272.3310546875 447.150146484375 C271.7058772053368 449.45899503244254 271.7058772053368 449.45899503244254 272.94140625 451.4375 C281.83926749118916 445.62040361866343 290.55135062725486 439.54781401469546 299.26416015625 433.458740234375 C305.7064413308953 428.96538888945906 312.188363511433 424.5449605890659 318.776611328125 420.26806640625 C320.18092763153567 419.3486049454395 321.5641453793222 418.3970134975812 322.94140625 417.4375 C322.94140625 417.1075 322.94140625 416.7775 322.94140625 416.4375 C309.08140625 416.4375 295.22140625 416.4375 280.94140625 416.4375 Z " fill="none" transform="translate(146.05859375,7.5625)"/>

  </g>
</svg>