  <svg width="512" height="512" viewBox="0 0 512 512" fill="none" xmlns="http://www.w3.org/2000/svg">
<path d="M74.8299 128.568C74.1687 128.229 74.0792 127.323 74.6633 126.883L205.599 28.2135C205.728 28.116 205.88 28.0519 206.041 28.027L338.648 7.53487C339.641 7.38138 340.237 8.62495 339.484 9.27898L216.429 116.112C215.943 116.534 215.991 117.306 216.527 117.682L310.534 183.681C311.243 184.178 311.05 185.265 310.217 185.464L225.512 205.733C225.279 205.789 225.031 205.758 224.815 205.647L74.8299 128.568Z" fill="#4369EE"/>
<path d="M295.542 246.481C295.736 245.622 296.863 245.405 297.35 246.133L385.474 377.639C385.578 377.794 385.636 377.976 385.642 378.163L389.171 500.354C389.2 501.37 387.869 501.786 387.325 500.931L303.868 369.628L287.955 342.601C287.886 342.484 287.794 342.383 287.684 342.303L276.409 334.106C276.089 333.873 275.938 333.472 276.026 333.083L295.542 246.481Z" fill="#4369EE"/>
<path d="M399.047 325.569C399.426 326.189 398.952 326.993 398.177 327.044L216.314 339.147C216.151 339.158 215.989 339.133 215.842 339.073L92.9034 289.198C91.9741 288.821 92.1934 287.516 93.2137 287.352L260.414 260.467C261.123 260.354 261.533 259.641 261.196 259.064C257.677 253.041 240.618 224.969 216.066 202.98C191.106 180.624 190.048 126.917 190.078 116.666C190.081 115.911 190.964 115.448 191.64 115.83L312.023 183.775C312.165 183.855 312.282 183.967 312.364 184.101L399.047 325.569Z" fill="#4369EE"/>
<path d="M75 128L127 155.153C127 155.153 118.186 479.779 110.695 480.995C103.203 482.211 99.2373 275.115 99.2373 275.115L92.6271 288.084L75 128Z" fill="#4369EE"/>
</svg>
