<?xml version="1.0" encoding="UTF-8"?>
<svg width="100" height="100" viewBox="0 0 100 100" fill="none" xmlns="http://www.w3.org/2000/svg">
  <g transform="translate(25, 25) scale(0.2)">
    
<path stroke="#f87171" stroke-width="1.5" stroke-linecap="round" d="M0 0 C2.4838951450653326 2.1972918590962607 4.892469495153563 4.454225817634239 7.2890625 6.74609375 C8.025117187500001 7.407382812500003 8.761171875000002 8.068671875 9.51953125 8.75 C30.87885631207496 28.672768686218575 43.52700511738047 60.09647925143881 44.5703125 88.99609375 C45.35081426528819 125.97675351502161 33.729691865617326 156.69169311865323 8.2890625 183.74609375 C7.763125000000002 184.336484375 7.2371875000000045 184.926875 6.6953125 185.53515625 C-12.143149106112702 205.81533685658053 -42.96940292113891 218.54253961213107 -70.3056640625 219.872314453125 C-105.58292728701016 220.83995098357786 -138.20561040730803 211.54779374201198 -164.38671875 186.96875 C-165.1537109375 186.2352734375 -165.920703125 185.501796875 -166.7109375 184.74609375 C-167.81501953125002 183.75416015625 -167.81501953125002 183.75416015625 -168.94140625 182.7421875 C-190.30073131207493 162.81941881378145 -202.94888011738047 131.3957082485612 -203.9921875 102.49609375 C-204.7438948187138 66.74823459338802 -193.6320829786955 34.805991043187746 -168.7109375 8.74609375 C-168.0496484375 8.010039062499999 -167.388359375 7.273984374999998 -166.70703125 6.515625 C-123.85403363403805 -39.42734208352658 -46.73684896840362 -38.857581923298106 0 0 Z " fill="none" transform="translate(204.7109375,29.25390625)"/>
<path stroke="#f87171" stroke-width="1.5" stroke-linecap="round" d="M0 0 C4.503258704828227 16.05279279485827 8.092210586659661 32.33286923485547 11.68359375 48.609375 C12.092790527343752 50.4632080078125 12.092790527343752 50.4632080078125 12.51025390625 52.3544921875 C13.037497879953477 54.750355551876254 13.56199533279947 57.1468252852809 14.08349609375 59.5439453125 C14.320200195312509 60.62256835937501 14.55690429687499 61.70119140624999 14.80078125 62.8125 C15.008723144531245 63.767695312499995 15.216665039062491 64.722890625 15.430908203125 65.70703125 C15.913678413551082 68.00951837647057 15.913678413551082 68.00951837647057 17 70 C18.650000000000006 70 20.299999999999997 70 22 70 C22.029172284727338 73.22914751712658 22.046856626867765 76.45826083198858 22.0625 79.6875 C22.07087890625 80.59951171875 22.079257812500003 81.5115234375 22.087890625 82.451171875 C22.091113281250003 83.33740234375 22.094335937500006 84.2236328125 22.09765625 85.13671875 C22.102893066406253 85.94842529296875 22.108129882812506 86.7601318359375 22.113525390625 87.596435546875 C21.99297910302242 90.14864673278332 21.55994899972987 92.51026136798312 21 95 C17.425974759274 91.50924058029449 14.089697805241698 87.88884905248857 10.875 84.0625 C10.162229003906248 83.21824462890625 10.162229003906248 83.21824462890625 9.43505859375 82.35693359375 C6.073403093711562 78.34842247195787 2.830152984347521 74.2591150101084 -0.375 70.125 C-4.852574311808937 64.349859437759 -9.564177649061435 58.8179635585805 -14.376708984375 53.3203125 C-17.94632448382535 49.236497955715976 -21.396956987941053 45.088110965690674 -24.74609375 40.8203125 C-26.669021789304352 38.41415297768157 -28.622964606911026 36.043233697710086 -30.59765625 33.6796875 C-31.23904541015625 32.9099560546875 -31.880434570312502 32.140224609375 -32.541259765625 31.34716796875 C-33.83347362812938 29.798701799721314 -35.12946120322948 28.253376019350483 -36.429443359375 26.71142578125 C-37.31515014648437 25.647707519531252 -37.31515014648437 25.647707519531252 -38.21875 24.5625 C-38.75435546875 23.9244140625 -39.2899609375 23.286328124999997 -39.841796875 22.62890625 C-41 21 -41 21 -41 19 C-38.86829141346918 17.3246485677696 -36.75539827506654 15.806450881115154 -34.5 14.3125 C-33.497431640624995 13.646376953125 -33.497431640624995 13.646376953125 -32.474609375 12.966796875 C-23.413598451899418 7.125605647363997 -10.96479496055916 0 0 0 Z " fill="none" transform="translate(102,26)"/>
<path stroke="#f87171" stroke-width="1.5" stroke-linecap="round" d="M0 0 C5.573552967884119 0.5609166724867407 9.91913644556859 2.6293992253326053 14.875 5.0625 C15.992617187500002 5.599072265624997 15.992617187500002 5.599072265624997 17.1328125 6.146484375 C22.25248804378579 8.617321164757541 27.332701972083697 11.166447331547431 32.4140625 13.71484375 C41.73749516781109 18.389233278712936 51.117325123923194 22.94601946474559 60.5 27.5 C62.20967585763604 28.33064593425128 63.919311477156725 29.161374693804362 65.62890625 29.9921875 C69.75214313113894 31.995742242470968 73.87591517621834 33.99819126950064 78 36 C74.53016630049474 38.01601017489074 71.21667168049187 38.64017992229921 67.27880859375 39.312744140625 C66.61153747558593 39.42847274780274 65.94426635742188 39.54420135498046 65.25677490234375 39.66343688964844 C63.05501858445257 40.04360148332856 60.851820939808775 40.414548398489586 58.6484375 40.78515625 C57.10861500448479 41.04848686433024 55.568872054051866 41.31228300204836 54.029205322265625 41.57652282714844 C50.800242919042546 42.1292895417468 47.57058638036712 42.67773533587567 44.34033203125 43.222900390625 C40.223943357239705 43.91777385259206 36.10907743143454 44.62120461437783 31.994665145874023 45.32767581939697 C28.812167031421552 45.87349836773376 25.62906517127695 46.41572864984772 22.445758819580078 46.95681571960449 C20.929943892094755 47.21469950155105 19.414272077608416 47.47342609027919 17.898754119873047 47.733049392700195 C9.954972499833517 49.0910222937064 2.0413182553464964 50.376944414245116 -6 51 C-10.972056376184717 36.083830871445855 -6.677857829552202 13.796386480343898 0 0 Z " fill="none" transform="translate(44,88)"/>
<path stroke="#f87171" stroke-width="1.5" stroke-linecap="round" d="M0 0 C9.24 0 18.48 0 28 0 C28.371250000000003 2.928750000000008 28.7425 5.8574999999999875 29.125 8.875 C31.88852714915103 28.167368531766925 38.46859553694993 45.193455739716654 51.53125 59.9140625 C53 62 53 62 53 66 C51.439453124999986 68.0146484375 51.439453124999986 68.0146484375 49.28125 70.109375 C48.130761718749994 71.24052734374999 48.130761718749994 71.24052734374999 46.95703125 72.39453125 C46.1462109375 73.17183593750002 45.335390625 73.94914062499998 44.5 74.75 C43.6891796875 75.54277343749999 42.878359375 76.335546875 42.04296875 77.15234375 C40.037303395845406 79.11081697817448 38.022912023478845 81.05937163204439 36 83 C20.132036830504077 75.46554188922835 10.860168912144186 51.34922154640253 5.25 35.6875 C3.4637574876554647 30.075279301148527 2.1871706234897683 24.49006755971149 1.1875 18.6875 C1.0013916015625002 17.612784423828117 1.0013916015625002 17.612784423828117 0.8115234375 16.516357421875 C-0.06995319312297532 10.845914465441211 0 5.894028507470296 0 0 Z " fill="none" transform="translate(4,126)"/>
<path stroke="#f87171" stroke-width="1.5" stroke-linecap="round" d="M0 0 C29.87024826854838 0 59.82507533508442 11.118569079955588 81.296875 32.26171875 C81.85890625000002 32.8353515625 82.42093749999998 33.408984375 83 34 C81.57354219717217 37.25866360290444 79.83295838415881 39.40248539971674 77.3046875 41.890625 C76.5892578125 42.599609375 75.87382812499999 43.30859375 75.13671875 44.0390625 C74.3903515625 44.768671875 73.643984375 45.49828125 72.875 46.25 C72.12089843749999 46.995078125 71.366796875 47.74015625 70.58984375 48.5078125 C68.7309922804364 50.3431342041261 66.86762995247196 52.1736190950682 65 54 C61.50990828599831 52.33247072258037 58.773973345481124 50.299246788137104 55.75 47.875 C39.25791054810111 35.21212015263525 20.397954476583152 30.02141891209382 0 28 C0 18.759999999999998 0 9.52 0 0 Z " fill="none" transform="translate(126,4)"/>
<path stroke="#f87171" stroke-width="1.5" stroke-linecap="round" d="M0 0 C14.78989182462422 7.0225661116791755 24.36448535596486 29.48354307865172 29.7978515625 44.154296875 C34.21281892761442 56.916402802616645 36 69.48374457804448 36 83 C26.75999999999999 83 17.519999999999982 83 8 83 C7.628749999999997 79.5040625 7.628749999999997 79.5040625 7.25 75.9375 C4.83399697184268 56.06964373219364 -2.8393914833637552 34.012802193610156 -18 20 C-16.573542197172202 16.74133639709558 -14.832958384158786 14.597514600283247 -12.3046875 12.109375 C-11.231542968750006 11.0458984375 -11.231542968750006 11.0458984375 -10.13671875 9.9609375 C-9.390351562500001 9.231328124999997 -8.643984375000002 8.501718750000002 -7.875 7.75 C-7.120898437499989 7.004921875000001 -6.366796875000006 6.259843750000002 -5.58984375 5.4921875 C-3.7309922804363964 3.656865795873898 -1.8676299524719582 1.8263809049318098 0 0 Z " fill="none" transform="translate(210,41)"/>
<path stroke="#f87171" stroke-width="1.5" stroke-linecap="round" d="M0 0 C3.2586636029044342 1.4264578028278194 5.402485399716753 3.167041615841221 7.890625 5.6953125 C8.9541015625 6.768457031250001 8.9541015625 6.768457031250001 10.0390625 7.86328125 C10.768671875000003 8.609648437499999 11.498281249999998 9.356015624999998 12.25 10.125 C12.995078125 10.879101562499997 13.740156249999998 11.633203125000001 14.5078125 12.41015625 C16.343134204126116 14.269007719563632 18.173619095068183 16.132370047528028 20 18 C18.32721058105421 21.496935268438136 16.290135258268442 24.270439387233296 13.875 27.3125 C5.53298877933085 38.20548637116066 0.08123470819634804 49.58277161457359 -3 63 C-3.212695312500003 63.90621093749999 -3.4253906249999986 64.812421875 -3.64453125 65.74609375 C-4.896715766446064 71.52055616037359 -5.406661315944888 77.06661315944889 -6 83 C-15.240000000000002 83 -24.48 83 -34 83 C-34 53.241104106630786 -23.218870132565144 23.601084191290283 -2.20703125 2.1484375 C-1.4787109374999972 1.439453125 -0.7503906250000014 0.73046875 0 0 Z " fill="none" transform="translate(38,41)"/>
<path stroke="#f87171" stroke-width="1.5" stroke-linecap="round" d="M0 0 C3.4969352684381505 1.672789418945797 6.270439387233296 3.7098647417315362 9.3125 6.125 C20.205486371160646 14.46701122066915 31.582771614573602 19.918765291803652 45 23 C45.90621093749999 23.21269531249999 46.812421875 23.425390625000006 47.74609375 23.64453125 C53.52055616037359 24.89671576644605 59.06661315944889 25.406661315944888 65 26 C65 35.24000000000001 65 44.48000000000002 65 54 C35.96713417825343 54 5.484789930784842 43.52968512837293 -15.39453125 22.69921875 C-16.254335937500002 21.808476562500005 -17.114140624999997 20.91773437500001 -18 20 C-16.573542197172188 16.74133639709558 -14.832958384158779 14.597514600283233 -12.3046875 12.109375 C-11.231542968749999 11.0458984375 -11.231542968749999 11.0458984375 -10.13671875 9.9609375 C-9.390351562500001 9.231328125000005 -8.643984375000002 8.501718750000009 -7.875 7.75 C-7.120898437500003 7.004921875000008 -6.366796874999999 6.2598437499999875 -5.58984375 5.4921875 C-3.7309922804363893 3.656865795873898 -1.8676299524719582 1.8263809049317956 0 0 Z " fill="none" transform="translate(59,192)"/>
<path stroke="#f87171" stroke-width="1.5" stroke-linecap="round" d="M0 0 C3.3672038741705137 1.3933257410360795 4.985952402720301 2.9789286040804654 7 6 C9.272382070558649 4.944965467240621 11.07464577853301 3.937017624362767 13 2.3125 C15 1 15 1 16.828125 1.1328125 C19.841411683939953 2.335959341429259 21.515622147436915 4.229546653941497 23.75 6.5625 C24.549218749999994 7.3887890624999955 25.34843749999999 8.215078124999991 26.171875 9.06640625 C26.77515625000001 9.704492187499994 27.378437500000018 10.342578124999989 28 11 C22.021984224257096 24.816536461283334 1.2873583152812955 33.58279307374909 -12 39 C-19.993153257627824 42.14933661542511 -27.866895511439452 44.35748502293231 -36.3125 45.8125 C-37.028977050781236 45.93657226562499 -37.7454541015625 46.060644531250006 -38.483642578125 46.1884765625 C-44.15408553455879 47.069953193122984 -49.105971492529676 47 -55 47 C-55 37.75999999999999 -55 28.52000000000001 -55 19 C-52.77250000000001 18.79374999999999 -50.54499999999999 18.587500000000006 -48.25 18.375 C-31.165258781746445 16.39769060646273 -13.625950589509102 10.787210883361382 0 0 Z " fill="none" transform="translate(181,199)"/>
<path stroke="#f87171" stroke-width="1.5" stroke-linecap="round" d="M0 0 C9.240000000000009 0 18.480000000000018 0 28 0 C28 25.81320028604941 19.793947276545254 49.24199898498745 5 70.3125 C4.395026855468757 71.17560791015626 4.395026855468757 71.17560791015626 3.77783203125 72.05615234375 C0.8520785066695566 76.10565852783182 -2.397317196047368 79.53870155027226 -6 83 C-9.34820898032035 81.53374143976941 -11.69266359207785 79.663415532356 -14.3125 77.125 C-15.030507812499991 76.446953125 -15.74851562500001 75.76890624999999 -16.48828125 75.0703125 C-18 73 -18 73 -17.86328125 70.90234375 C-17 69 -17 69 -14.875 66.4375 C-14.256249999999994 65.633125 -13.637499999999989 64.82875000000001 -13 64 C-14.22934014568935 60.31197956293195 -15.93859377520451 59.276430269719725 -19 57 C-17.520045310193126 52.922573813797385 -15.50944873213001 49.445687461080865 -13.25 45.75 C-4.8031181628085164 31.41847001218403 -1.497301455751142 16.47031601326259 0 0 Z " fill="none" transform="translate(218,126)"/>
<path stroke="#f87171" stroke-width="1.5" stroke-linecap="round" d="M0 0 C0 9.24 0 18.48 0 28 C-6.269999999999996 28.659999999999997 -12.540000000000006 29.32 -19 30 C-19.495000000000005 25.049999999999997 -19.495000000000005 25.049999999999997 -20 20 C-35.95535435677738 24.875247164570865 -50.669705902659345 30.74592761743026 -64 41 C-62.47639094220058 44.10021321326143 -60.80178637796887 47.0516222905964 -59 50 C-60.32 51.32 -61.64 52.64 -63 54 C-66.25866360290442 52.57354219717219 -68.40248539971674 50.832958384158786 -70.890625 48.3046875 C-71.599609375 47.5892578125 -72.30859375 46.873828125 -73.0390625 46.13671875 C-73.768671875 45.3903515625 -74.49828124999999 44.643984375 -75.25 43.875 C-75.99507812499999 43.1208984375 -76.74015625 42.366796875 -77.5078125 41.58984375 C-79.34313420412607 39.73099228043641 -81.1736190950682 37.867629952471944 -83 36 C-76.01482425937343 21.34363831307492 -53.61119002508883 11.588071037698983 -38.94921875 6.25390625 C-26.11599317704855 1.8491813316400378 -13.590789127720313 0 0 0 Z " fill="none" transform="translate(124,4)"/>
<path stroke="#f87171" stroke-width="1.5" stroke-linecap="round" d="M0 0 C8.801313612842506 3.829448000796731 15.261282624484068 18.425151108030377 18.791748046875 27.056640625 C19.677103426681242 29.40080354392377 20.509870183362636 31.754789375640385 21.312744140625 34.12841796875 C21.559760742187507 34.85673828125 21.806777343750014 35.585058593750006 22.061279296875 36.33544921875 C24.688639501005156 44.605173139946544 24.875244140625 52.1075187582818 24.875244140625 60.81591796875 C15.635244140624991 60.81591796875 6.39524414062501 60.81591796875 -3.124755859375 60.81591796875 C-3.351630859375007 58.60904296875 -3.5785058593750136 56.40216796875001 -3.812255859375 54.12841796875 C-5.362649629161012 41.80990802493028 -9.936060918495969 32.339477787353104 -17.429443359375 22.59326171875 C-19.124755859375 19.81591796875 -19.124755859375 19.81591796875 -18.94677734375 17.8876953125 C-17.259748142212857 13.635800508744666 -13.501506682981045 10.681507809596255 -10.312255859375 7.50341796875 C-9.587158203125 6.749960937500006 -8.862060546875 5.996503906249998 -8.114990234375 5.22021484375 C-7.4105175781249955 4.513164062499996 -6.706044921874991 3.8061132812500063 -5.980224609375 3.07763671875 C-5.3372241210937545 2.4275463867187455 -4.694223632812509 1.7774560546875051 -4.03173828125 1.107666015625 C-2.124755859375 -0.18408203125 -2.124755859375 -0.18408203125 0 0 Z " fill="none" transform="translate(190.124755859375,63.18408203125)"/>
<path stroke="#f87171" stroke-width="1.5" stroke-linecap="round" d="M0 0 C0.6187500000000057 0.680624999999992 1.2374999999999972 1.3612500000000125 1.875 2.0625 C8.478183436586647 8.918902860408565 18.17626193154031 12.857031351721218 27 16 C27 16.659999999999997 27 17.319999999999993 27 18 C33.93000000000001 18.495000000000005 33.93000000000001 18.495000000000005 41 19 C41 27.579999999999984 41 36.16 41 45 C17.344407753930966 45 -4.089092943457544 36.819249023715656 -21 20 C-17.006034801821727 15.093128470809546 -12.69590469549901 10.557294369126481 -8.25 6.0625 C-7.670969238281245 5.470578613281248 -7.091938476562504 4.8786572265624955 -6.495361328125 4.268798828125 C-2.2365407003287032 0 -2.2365407003287032 0 0 0 Z " fill="none" transform="translate(83,170)"/>
<path stroke="#f87171" stroke-width="1.5" stroke-linecap="round" d="M0 0 C9.240000000000009 0 18.47999999999999 0 28 0 C28 20.17835067516748 22.44357245705325 37.909821717163766 10 54 C5.585322169817971 52.555491445271315 2.4534632633582873 50.13144136886265 -1 47.125 C-4.623467409407112 44.02573980464419 -8.25860723753496 40.957350896801415 -12 38 C-10.732911109753474 34.69859408412833 -9.298421405421152 31.612350639382015 -7.625 28.5 C-2.916888479072213 19.13949425425008 -1.0448229411425132 10.44822941142516 0 0 Z " fill="none" transform="translate(187,126)"/>
<path stroke="#f87171" stroke-width="1.5" stroke-linecap="round" d="M0 0 C3.1144900174344343 2.382701949428224 5.289284433779983 5.348762189908143 7.640625 8.46484375 C8.12208984374999 9.090039062500011 8.603554687500008 9.715234374999994 9.099609375 10.359375 C10.02616363351052 11.56504257709895 10.94656256280237 12.775472931959882 11.85986328125 13.9912109375 C12.86216601573227 15.306457090884749 13.91497147022585 16.583061942588387 14.98046875 17.84765625 C15.342695312499984 18.422578125 15.704921874999997 18.997500000000002 16.078125 19.58984375 C14.203473693464304 25.21379766960706 7.183996111237519 27.912358152611517 2.078125 30.58984375 C-2.183195490685648 32.50279014708161 -6.493777563846692 34.10817755953141 -10.921875 35.58984375 C-11.831953124999984 35.89792968750001 -12.742031249999997 36.20601562499999 -13.6796875 36.5234375 C-21.976826472205317 39.17496967919101 -29.08731156139882 39.58984375 -37.921875 39.58984375 C-37.921875 31.009843750000016 -37.921875 22.429843750000003 -37.921875 13.58984375 C-32.47687500000001 13.094843749999995 -32.47687500000001 13.094843749999995 -26.921875 12.58984375 C-26.921875 11.929843750000003 -26.921875 11.269843750000007 -26.921875 10.58984375 C-25.955078125 10.298515624999993 -24.98828125 10.007187499999986 -23.9921875 9.70703125 C-16.644502643833533 7.416021031689439 -10.303180629217309 5.06867248251325 -3.97265625 0.53125 C-1.921875 -0.41015625 -1.921875 -0.41015625 0 0 Z " fill="none" transform="translate(163.921875,175.41015625)"/>
<path stroke="#f87171" stroke-width="1.5" stroke-linecap="round" d="M0 0 C22.790390815715085 0 43.025475469270305 7.4456548124787645 60 23 C60.66 23.989999999999995 61.31999999999999 24.980000000000004 62 26 C55.72999999999999 32.27000000000001 49.46000000000001 38.53999999999999 43 45 C41.68000000000001 44.00999999999999 40.360000000000014 43.02000000000001 39 42 C40.48599160413056 37.40693504177827 42.850146819879626 34.564307545925686 46 31 C42.8179978304434 27.396382542977165 39.27572820534738 25.365386240851926 35 23.3125 C34.38382812500001 23.00505859375 33.767656250000016 22.6976171875 33.1328125 22.380859375 C30.13791146668845 20.912329576477063 27.289709763445046 19.61682058064595 24 19 C23.896874999999994 19.86625 23.79374999999999 20.7325 23.6875 21.625 C22.96601586012406 25.166831232118305 21.728767387762474 27.843120422346786 20 31 C19.394140625000006 30.867226562500008 18.78828125000001 30.734453125 18.1640625 30.59765625 C17.326171875 30.421054687500003 16.48828125 30.244453125000007 15.625 30.0625 C14.406835937500006 29.801464843749997 14.406835937500006 29.801464843749997 13.1640625 29.53515625 C8.80816983440863 28.798418848535782 4.395833188222923 28.439583318822294 0 28 C0 18.759999999999998 0 9.519999999999996 0 0 Z " fill="none" transform="translate(126,35)"/>
<path stroke="#f87171" stroke-width="1.5" stroke-linecap="round" d="M0 0 C0.2797265625000023 0.9551953124999955 0.5594531250000045 1.910390624999991 0.84765625 2.89453125 C3.712920979024304 12.275412841584654 7.261933173280511 20.520957964696635 13.7734375 28.05078125 C15 30 15 30 14.815185546875 31.864990234375 C13.764842203827584 34.61588946616587 12.286610520995907 36.0530919350262 10.18359375 38.109375 C9.419824218749994 38.86347656250001 8.656054687500003 39.617578124999994 7.869140625 40.39453125 C7.066699218750003 41.17183593749999 6.264257812500006 41.949140624999984 5.4375 42.75 C4.631191406249997 43.54277343749999 3.824882812499993 44.335546875000006 2.994140625 45.15234375 C1.0026622236639753 47.10847046373834 -0.9954772089204056 49.05725719062747 -3 51 C-7.605555431991313 47.45880984952993 -10.837655072223015 43.91922934007991 -14 39.0625 C-14.428613281250001 38.412248535156266 -14.857226562500003 37.7619970703125 -15.298828125 37.092041015625 C-19.382990817000724 30.71554191071209 -22.371287392442397 24.09574788323826 -25 17 C-25.3815625 16.021601562499995 -25.763125000000002 15.043203124999991 -26.15625 14.03515625 C-27.116315368564173 10.581587771414974 -27.142712265050015 7.567806626250331 -27 4 C-23.626782243734837 3.3240981207803486 -20.25117757885259 2.6609448170240455 -16.875 2 C-15.923671874999997 1.8092187500000136 -14.97234375 1.6184374999999989 -13.9921875 1.421875 C-9.263618844408114 0.5024310947460151 -4.844372654069609 -0.26097630459634047 0 0 Z " fill="none" transform="translate(64,137)"/>
<path stroke="#f87171" stroke-width="1.5" stroke-linecap="round" d="M0 0 C3.8622553943735625 1.6780187271671423 6.986786947579816 4.2033994738532385 10.25 6.8125 C10.858437500000008 7.294609374999993 11.466874999999987 7.776718749999986 12.09375 8.2734375 C17.44211409617847 12.523865064239402 22.737603184804527 16.83935506071475 28.03173828125 21.156982421875 C34.05030865873613 26.059146491106702 40.14251408801414 30.86218466627554 46.26025390625 35.6396484375 C48.678303301147196 37.53038254195792 51.090507245407906 39.42851102625693 53.5029296875 41.326416015625 C59.32064269179327 45.90319482404837 65.14953283797544 50.46511407811323 71 55 C69.62695165566711 59.14851505105926 67.78225090764533 61.623956664532614 64.6875 64.6875 C63.92824218749999 65.4544921875 63.16898437500001 66.22148437499999 62.38671875 67.01171875 C59.98227505213981 69.01476595492773 57.95261901570359 70.02276149391759 55 71 C48.05024250381686 62.51432431108674 41.17690739642353 53.994004839972604 34.5234375 45.2734375 C31.261123634782052 41.01768309216217 27.89626819732527 36.844581363722284 24.53759765625 32.664794921875 C20.63968179564688 27.81084547916376 16.78869916822248 22.922016490367184 12.9580078125 18.014892578125 C9.263185730469246 13.296212289113924 5.44952443098677 8.688053441938791 1.58203125 4.109375 C0 2 0 2 0 0 Z " fill="none" transform="translate(133,133)"/>
<path stroke="#f87171" stroke-width="1.5" stroke-linecap="round" d="M0 0 C8.149133689268837 3.7815347294037736 11.883344159276191 13.112692250774415 15 21.109375 C17.29429090258833 27.741309640294432 18 32.89533111287079 18 40 C8.759999999999991 40 -0.47999999999998977 40 -10 40 C-10.659999999999997 37.03 -11.319999999999993 34.06 -12 31 C-13.16509085767666 28.340371839202774 -13.16509085767666 28.340371839202774 -14.5625 26.1875 C-17.73192841424617 21.024247182726555 -17.73192841424617 21.024247182726555 -18 18 C-16.461181640625 15.8935546875 -16.461181640625 15.8935546875 -14.16015625 13.671875 C-13.344824218750006 12.872656250000006 -12.529492187500011 12.073437499999997 -11.689453125 11.25 C-10.389111328125011 10.012500000000003 -10.389111328125011 10.012500000000003 -9.0625 8.75 C-8.199472656250009 7.909531250000001 -7.33644531249999 7.069062500000001 -6.447265625 6.203125 C-4.308896847871267 4.123827183565439 -2.159759110167329 2.0570338488173405 0 0 Z " fill="none" transform="translate(167,84)"/>
<path stroke="#f87171" stroke-width="1.5" stroke-linecap="round" d="M0 0 C4.838829096519987 0.5295869925726535 8.149682042861514 1.9439564914276275 12.3125 4.4375 C13.360507812500003 5.054960937499999 14.408515625000007 5.672421874999998 15.48828125 6.30859375 C18 8 18 8 19 10 C11.711573564816035 19.673509504504977 4.310346528927596 29.20809027781553 -3.50439453125 38.464599609375 C-4.343332519531259 39.46632202148437 -4.343332519531259 39.46632202148437 -5.19921875 40.48828125 C-5.692526855468742 41.07134033203124 -6.185834960937484 41.65439941406251 -6.694091796875 42.255126953125 C-8.063862889635374 44.08532960781905 -9.040638228524983 45.929379875890106 -10 48 C-9.009999999999991 47.504999999999995 -9.009999999999991 47.504999999999995 -8 47 C-11.11232098576835 54.129755727601975 -18.04100711220886 59.232805689767076 -24 64 C-24.659999999999997 63.67 -25.319999999999993 63.34 -26 63 C-26 55.41 -26 47.81999999999999 -26 40 C-23.03 40.33 -20.060000000000002 40.66 -17 41 C-13.0951739030711 32.542627837457275 -9.872748332909225 23.847942035166454 -6.630859375 15.1220703125 C-5.910764282072989 13.18693349944948 -5.186076090727141 11.253563922869503 -4.4609375 9.3203125 C-4.03603027343749 8.178364257812504 -3.611123046875008 7.036416015625001 -3.17333984375 5.85986328125 C-2 3.000000000000007 -2 3.000000000000007 0 0 Z " fill="none" transform="translate(152,56)"/>
<path stroke="#f87171" stroke-width="1.5" stroke-linecap="round" d="M0 0 C5.816302442165693 0.5176320943674995 10.284801596105439 2.9118623941442223 15.375 5.5625 C16.2064453125 5.987246093750002 17.037890625000003 6.4119921875000045 17.89453125 6.849609375 C19.9335259850832 7.89254346363451 21.968384897188713 8.94278292156936 24 10 C23.722851562499997 11.038984374999998 23.445703124999994 12.077968749999997 23.16015625 13.1484375 C22.79388053577516 14.557190247018596 22.428017464809756 15.966050325958236 22.0625 17.375 C21.88009765625 18.0543359375 21.697695312500002 18.733671875 21.509765625 19.43359375 C20.05818385186707 25.08156646728085 19.59674455483038 30.032554451696228 19 36 C10.420000000000002 36 1.8400000000000034 36 -7 36 C-7 29.854774901226662 -6.838155202371219 24.502960184481964 -5.75 18.5625 C-5.619401855468752 17.830393066406245 -5.488803710937503 17.098286132812504 -5.354248046875 16.343994140625 C-4.258931160267373 10.586428823152403 -2.5597223135788454 5.288360312825333 0 0 Z " fill="none" transform="translate(44,88)"/>
<path stroke="#f87171" stroke-width="1.5" stroke-linecap="round" d="M0 0 C0.17652099609375682 0.8074365234375023 0.35304199218749943 1.6148730468750045 0.534912109375 2.44677734375 C1.333026584453762 6.090126618016143 2.1352102843090535 9.732567972698291 2.9375 13.375 C3.3541894531250023 15.281523437499999 3.3541894531250023 15.281523437499999 3.779296875 17.2265625 C4.046777343749994 18.438281250000003 4.314257812500003 19.650000000000006 4.58984375 20.8984375 C4.835974121093756 22.019116210937497 5.082104492187497 23.139794921874994 5.335693359375 24.29443359375 C5.881214574248659 26.946626369441532 5.881214574248659 26.946626369441532 7 29 C8.650000000000006 29 10.299999999999997 29 12 29 C12.029172284727338 32.22914751712656 12.046856626867765 35.458260831988596 12.0625 38.6875 C12.070878906250002 39.599511718749994 12.079257812500003 40.5115234375 12.087890625 41.451171875 C12.091113281250003 42.33740234375 12.094335937500006 43.2236328125 12.09765625 44.13671875 C12.102893066406253 44.94842529296875 12.108129882812506 45.7601318359375 12.113525390625 46.596435546875 C11.99297910302242 49.148646732783305 11.559948999729869 51.51026136798309 11 54 C7.425971787683892 50.509237677934976 4.089716387266236 46.888842522840235 0.875 43.0625 C0.4034448242187523 42.504013671875 -0.06811035156249545 41.94552734375 -0.553955078125 41.3701171875 C-4.503105498046281 36.66123791297579 -8.29136381287205 31.83561659807816 -12.060302734375 26.982177734375 C-15.84105690220646 22.138450782190404 -19.831097720515572 17.51531536287999 -24 13 C-23.313703000446267 10.650752578450692 -22.44418523432988 9.295265291520678 -20.3994140625 7.93603515625 C-18.332632686409525 6.834474767644053 -16.243182618504207 5.811607376692692 -14.125 4.8125 C-13.404414062499995 4.457363281249997 -12.683828125000005 4.102226562499993 -11.94140625 3.736328125 C-4.241876185958262 0 -4.241876185958262 0 0 0 Z " fill="none" transform="translate(112,67)"/>
<path stroke="#f87171" stroke-width="1.5" stroke-linecap="round" d="M0 0 C9.240000000000009 0 18.47999999999999 0 28 0 C26.756040137919996 13.683558482879931 23.637530680659268 22.397960070518877 17 34 C11.915170002205343 34 9.792444088856541 31.839289835449136 6.0625 28.75 C5.4547070312499955 28.258867187500016 4.846914062499991 27.767734375000003 4.220703125 27.26171875 C3.030736418712422 26.298962515139493 1.8439404806765367 25.332271494052208 0.66064453125 24.361328125 C-1.54370254984579 22.554294998832688 -3.7709784484800934 20.776449813355526 -6 19 C-5.340000000000003 17.02000000000001 -4.680000000000007 15.039999999999992 -4 13 C-2.680000000000007 8.710000000000008 -1.3600000000000136 4.4199999999999875 0 0 Z " fill="none" transform="translate(157,126)"/>
<path stroke="#f87171" stroke-width="1.5" stroke-linecap="round" d="M0 0 C0.6599999999999966 0.3300000000000125 1.3199999999999932 0.6599999999999966 2 1 C2.730224609375 3.68603515625 2.730224609375 3.68603515625 3.40234375 7.2890625 C3.5247593688964827 7.936484069824218 3.6471749877929653 8.583905639648435 3.7733001708984375 9.250946044921875 C4.171059727126334 11.37396182262762 4.554887999726191 13.499206062172902 4.9375 15.625 C5.205201322350945 17.078783327411372 5.472942376317178 18.532559339144825 5.74072265625 19.986328125 C7.915768597327258 31.939112671039197 9.623873891437569 43.92871834594362 11 56 C7.111221330249833 56.914153194754704 3.4909061847284164 57.13432454716059 -0.5 57.125 C-1.6034374999999983 57.127578125000014 -2.7068749999999966 57.13015625 -3.84375 57.1328125 C-6.684922438857242 57.0132582142065 -9.238076421529072 56.64925815464056 -12 56 C-8.418320024737866 37.24330749796937 -4.18382706150814 18.629296915798278 0 0 Z " fill="none" transform="translate(124,131)"/>
<path stroke="#f87171" stroke-width="1.5" stroke-linecap="round" d="M0 0 C2.6796033647067645 1.096170657642972 5.159951559082003 2.4410882700369427 7.68603515625 3.8544921875 C8.670878906249996 4.40234375 9.655722656249992 4.9501953125 10.67041015625 5.5146484375 C11.418066406250006 5.936171875000014 12.165722656249997 6.357695312499999 12.93603515625 6.7919921875 C11.503115355946278 15.84467374941886 9.775612809876677 24.814853237801827 7.93603515625 33.7919921875 C-3.0681992833127083 32.26585748420297 -11.450242423673046 26.50636382249229 -20.06396484375 19.7919921875 C-17.828198020878645 14.748534511424538 -14.02723566374712 11.348333306063466 -10.18896484375 7.4794921875 C-9.468378906249995 6.726035156249992 -8.747792968750005 5.9725781250000125 -8.00537109375 5.1962890625 C-7.305410156250005 4.48923828125001 -6.605449218749996 3.782187499999992 -5.88427734375 3.0537109375 C-5.247641601562492 2.4036206054687455 -4.611005859374998 1.753530273437491 -3.955078125 1.083740234375 C-2.06396484375 -0.2080078125 -2.06396484375 -0.2080078125 0 0 Z " fill="none" transform="translate(104.06396484375,149.2080078125)"/>
<path stroke="#f87171" stroke-width="1.5" stroke-linecap="round" d="M0 0 C4.693010204761322 3.8397356220774412 9.135443774980018 7.918968957142425 13.5 12.125 C14.052685546874997 12.639658203124995 14.605371093749994 13.154316406250004 15.1748046875 13.6845703125 C18.9594331188959 17.387808885156204 18.9594331188959 17.387808885156204 19.12890625 19.9453125 C17.43511153937176 23.028136090970435 15.4849934192507 25.89667838971188 13.4375 28.75 C13.012753906249998 29.351992187500002 12.588007812499995 29.953984375000005 12.150390625 30.57421875 C11.1056447807957 32.053297136176866 10.053539835085758 33.527172594183156 9 35 C-7.708428246014229 27.701594533029365 -7.708428246014229 27.701594533029365 -16 24 C-14.588458951261117 18.81377614676836 -12.264887524059397 15.131698829993056 -9.125 10.875 C-8.690585937500003 10.267851562499999 -8.256171875 9.660703124999998 -7.80859375 9.03515625 C-5.423717383826393 5.747894231760711 -2.9785394305343473 2.784588025755369 0 0 Z " fill="none" transform="translate(60,62)"/>
<path stroke="#f87171" stroke-width="1.5" stroke-linecap="round" d="M0 0 C3.038161954578669 2.4114291348718666 5.223655602360765 5.369133925800639 7.55078125 8.453125 C8.03224609374999 9.078320312500011 8.513710937500008 9.703515624999994 9.009765625 10.34765625 C9.93631988351052 11.55332382709895 10.85671881280237 12.763754181959882 11.77001953125 13.9794921875 C12.77232226573227 15.294738340884749 13.82512772022585 16.571343192588387 14.890625 17.8359375 C15.252851562499984 18.410859375 15.615078124999997 18.985781250000002 15.98828125 19.578125 C14.98828125 22.578125 14.98828125 22.578125 13.437744140625 23.63720703125 C12.785397949218748 23.9502880859375 12.133051757812495 24.263369140625002 11.4609375 24.5859375 C10.751308593749997 24.932695312500016 10.041679687499993 25.279453125000003 9.310546875 25.63671875 C8.564824218750005 25.988632812499986 7.819101562500009 26.340546875 7.05078125 26.703125 C6.308925781249997 27.0627734375 5.567070312499993 27.422421874999998 4.802734375 27.79296875 C3.4267494096014275 28.459130102241915 2.048758786939146 29.12117489057931 0.668212890625 29.77783203125 C-0.5646106233440662 30.36512973198981 -1.7903187644459422 30.96742500722297 -3.01171875 31.578125 C-5.011318869960007 31.618117002399202 -7.012191172352175 31.621592990818442 -9.01171875 31.578125 C-9.68762062921968 28.204907243734823 -10.350773932975954 24.829302578852605 -11.01171875 21.453125 C-11.202499999999986 20.501796874999997 -11.393281250000001 19.550468749999993 -11.58984375 18.5703125 C-12.509287655253985 13.841743844408114 -13.27269505459634 9.422497654069588 -13.01171875 4.578125 C-11.27142573101969 3.6839744488687245 -9.519017246400296 2.813373216824232 -7.76171875 1.953125 C-6.7871874999999875 1.465859375000008 -5.812656250000003 0.9785937499999875 -4.80859375 0.4765625 C-2.01171875 -0.421875 -2.01171875 -0.421875 0 0 Z " fill="none" transform="translate(145.01171875,151.421875)"/>
<path stroke="#f87171" stroke-width="1.5" stroke-linecap="round" d="M0 0 C0.6599999999999966 2.3100000000000023 1.3199999999999932 4.6200000000000045 2 7 C-0.45620851056737877 8.17133057924869 -2.914749172028124 9.337217218166586 -5.375 10.5 C-6.073671875000002 10.833867187500005 -6.7723437500000045 11.167734375000009 -7.4921875 11.51171875 C-12.7734375 14 -12.7734375 14 -15 14 C-14.340000000000003 16.97 -13.680000000000007 19.939999999999998 -13 23 C-11.8076171875 22.1943359375 -10.615234375 21.388671875 -9.38671875 20.55859375 C-7.820671847689383 19.51768832391332 -6.254245823516072 18.477353129431435 -4.6875 17.4375 C-3.901816406249992 16.904472656249993 -3.1161328124999983 16.371445312499986 -2.306640625 15.822265625 C-1.54931640625 15.32275390625 -0.7919921875 14.8232421875 -0.01171875 14.30859375 C1.0330261230468807 13.609478759765636 1.0330261230468807 13.609478759765636 2.098876953125 12.896240234375 C4 12 4 12 7 13 C6.433796993438676 16.774686710408872 4.8773101855386045 18.475518929695596 2.18359375 21.109375 C1.4198242187499943 21.86347656250001 0.6560546875000028 22.617578124999994 -0.130859375 23.39453125 C-1.3345214843750028 24.560488281250002 -1.3345214843750028 24.560488281250002 -2.5625 25.75 C-3.771962890624991 26.93916015625001 -3.771962890624991 26.93916015625001 -5.005859375 28.15234375 C-6.997337776336025 30.108470463738342 -8.995477208920406 32.05725719062747 -11 34 C-18.984418930766182 30.361909050138934 -22.57776062290202 20.20289462463589 -26.15234375 12.60546875 C-27.124465812332645 9.617425360249399 -27.150438748958436 7.122743728379675 -27 4 C-23.81481630218414 3.321936832057304 -20.62654387464991 2.659648488397181 -17.4375 2 C-16.542246093749995 1.8092187500000136 -15.646992187500004 1.6184374999999989 -14.724609375 1.421875 C-9.707385794909044 0.39270093228904557 -5.121004550837057 -0.2247903232191959 0 0 Z " fill="none" transform="translate(94,132)"/>
<path stroke="#f87171" stroke-width="1.5" stroke-linecap="round" d="M0 0 C5.703235843209029 1.6268246503579888 10.680139031584332 4.331979870896987 15.875 7.125 C16.754140625000005 7.592929687500003 17.633281249999996 8.060859375000007 18.5390625 8.54296875 C20.6949085014016 9.691191076833462 22.84775880441623 10.845034922765947 25 12 C24.010000000000005 15.960000000000008 23.019999999999996 19.92 22 24 C12.759999999999991 24 3.519999999999996 24 -6 24 C-6 18.883857616813458 -5.894110054191955 15.614811802620679 -4.6875 10.875 C-4.322050781249999 9.386132812499994 -4.322050781249999 9.386132812499994 -3.94921875 7.8671875 C-2.9755347999200694 4.926101000581625 -1.6907345460268175 2.5858293056880655 0 0 Z " fill="none" transform="translate(71,100)"/>
<path stroke="#f87171" stroke-width="1.5" stroke-linecap="round" d="M0 0 C-0.8930560696926193 4.934956718699652 -3.866010169203861 7.3809786375243505 -7.3125 10.8125 C-7.89451171875001 11.42287109374999 -8.476523437499992 12.033242187500008 -9.076171875 12.662109375 C-9.645292968749999 13.233808593750013 -10.214414062499998 13.805507812499997 -10.80078125 14.39453125 C-11.318098144531248 14.918937988281243 -11.835415039062497 15.443344726562486 -12.368408203125 15.983642578125 C-14 17 -14 17 -16.199951171875 16.662841796875 C-16.793967285156242 16.44410400390626 -17.3879833984375 16.225366210937494 -18 16 C-18 15.340000000000003 -18 14.680000000000007 -18 14 C-19.267077623592996 15.267077623592996 -20.516986398859657 16.55176126873812 -21.7421875 17.859375 C-24.358007281527392 20.339425588714562 -27.122174340741992 22.257953493858338 -30.125 24.25 C-31.179453124999995 24.956406249999986 -32.233906250000004 25.6628125 -33.3203125 26.390625 C-36 28 -36 28 -38 28 C-39.498210592503014 24.629026166868243 -40 22.795578808562738 -40 19 C-37.54379148943262 17.82866942075131 -35.08525082797186 16.662782781833414 -32.625 15.5 C-31.926328124999998 15.166132812499995 -31.227656249999995 14.832265624999991 -30.5078125 14.48828125 C-25.2265625 12 -25.2265625 12 -23 12 C-23.659999999999997 9.689999999999998 -24.319999999999993 7.3799999999999955 -25 5 C-25.71132080078125 5.1211718749999875 -26.422641601562503 5.242343750000003 -27.155517578125 5.3671875 C-30.374085972499472 5.91399974048835 -33.59327908934614 6.457043082875487 -36.8125 7 C-38.491826171875005 7.286171875000008 -38.491826171875005 7.286171875000008 -40.205078125 7.578125 C-41.278222656249994 7.758593749999989 -42.3513671875 7.939062500000006 -43.45703125 8.125 C-44.94166870117188 8.376367187499994 -44.94166870117188 8.376367187499994 -46.456298828125 8.6328125 C-49 9 -49 9 -52 9 C-52.33 9.659999999999997 -52.66 10.319999999999993 -53 11 C-53 9.680000000000007 -53 8.360000000000014 -53 7 C-47.38296448022621 5.989885386168027 -41.76370908201491 4.993562896953108 -36.14208984375 4.00927734375 C-34.23486462484422 3.67342795943145 -32.328267461954155 3.333989459992779 -30.42236328125 2.99072265625 C-10.111221150031511 -0.6625137102984695 -10.111221150031511 -0.6625137102984695 0 0 Z " fill="none" transform="translate(119,127)"/>
<path stroke="#f87171" stroke-width="1.5" stroke-linecap="round" d="M0 0 C0 9.240000000000002 0 18.480000000000004 0 28 C-3.960000000000008 28 -7.920000000000002 28 -12 28 C-14.514661706962386 19.33318918670173 -16.622652978142284 11.075195875678006 -17 2 C-10.850501935617402 -0.659242406219505 -7.528498110382159 0 0 0 Z " fill="none" transform="translate(124,35)"/>
<path stroke="#f87171" stroke-width="1.5" stroke-linecap="round" d="M0 0 C5.137728567211724 0 8.186161719517713 0.06316435920024333 12.875 1.375 C13.821171875000005 1.6302343750000006 14.767343750000009 1.8854687500000011 15.7421875 2.1484375 C18 3 18 3 19 5 C18.287353515625 7.430175781249986 18.287353515625 7.430175781249986 17.12890625 10.4453125 C16.719628906249994 11.521679687499997 16.31035156249999 12.598046874999994 15.888671875 13.70703125 C15.451035156249986 14.8349609375 15.013398437500001 15.962890625 14.5625 17.125 C14.128730468750007 18.2606640625 13.694960937500014 19.396328124999997 13.248046875 20.56640625 C12.17215091069076 23.38028800280881 11.089204336459488 26.19124866092467 10 29 C3.375 29.125 3.375 29.125 0 28 C0 18.75999999999999 0 9.519999999999996 0 0 Z " fill="none" transform="translate(126,65)"/>
<path stroke="#f87171" stroke-width="1.5" stroke-linecap="round" d="M0 0 C5.043457676075462 2.235766822871355 8.443658881436534 6.036729180002894 12.3125 9.875 C13.065957031250008 10.595585937500005 13.819414062500002 11.316171874999995 14.595703125 12.05859375 C15.302753906250004 12.758554687499995 16.009804687500008 13.458515625000004 16.73828125 14.1796875 C17.388371582031255 14.816323242187508 18.038461914062495 15.452958984375002 18.708251953125 16.10888671875 C20 18 20 18 19.801513671875 20.09814453125 C18.844722556404804 22.368446934391287 17.559173471601397 24.101875773702645 16 26 C7.11759113973045 23.462168897065837 -0.8261820714526493 19.22230349437845 -9 15 C-8.190527197680254 11.277905852260233 -6.737205774054999 8.916164567695162 -4.5 5.8125 C-3.8709374999999966 4.932070312500002 -3.241874999999993 4.0516406250000045 -2.59375 3.14453125 C-1 1 -1 1 0 0 Z " fill="none" transform="translate(81,84)"/>
<path stroke="#f87171" stroke-width="1.5" stroke-linecap="round" d="M0 0 C0.6599999999999966 0 1.3199999999999932 0 2 0 C3.338956322936639 1.6621526767489172 4.671301422438319 3.3296360739224724 6 5 C6.764414062500009 5.585234374999999 7.52882812499999 6.170468749999998 8.31640625 6.7734375 C11.393957858716789 9.326864598935316 13.72328162967861 12.209978907146137 16.125 15.375 C17.08574883751507 16.619937284975606 18.046692325163434 17.864724373586654 19.0078125 19.109375 C19.497978515624993 19.748105468749998 19.988144531249986 20.386835937499995 20.4931640625 21.044921875 C22.969875867083573 24.258387223526455 25.48697259411435 27.439913395639024 28 30.625 C29.671621945195113 32.746242814322784 31.33761579431507 34.871474277180454 33 37 C33.618750000000006 37.729609374999995 34.23750000000001 38.45921874999999 34.875 39.2109375 C35.24625 39.801328125 35.61750000000001 40.391718749999995 36 41 C35.670000000000016 41.99000000000001 35.34 42.97999999999999 35 44 C34.51531249999999 43.32195312499999 34.030624999999986 42.643906249999986 33.53125 41.9453125 C28.86997583472234 35.473312601287546 24.04093551412734 29.18050870216146 19 23 C18.154375000000016 23.288749999999993 17.308750000000003 23.577499999999986 16.4375 23.875 C12.976389590045187 25.007727043257944 9.506274432208556 26.01824315898159 6 27 C6.1211718749999875 27.67579101562501 6.242343750000003 28.35158203124999 6.3671875 29.0478515625 C6.915011418142598 32.11461199656358 7.457560173020823 35.182282870394744 8 38.25 C8.190781249999986 39.3134765625 8.381562500000001 40.376953125 8.578125 41.47265625 C8.758593749999989 42.497460937499994 8.939062500000006 43.52226562499999 9.125 44.578125 C9.292578125000006 45.520751953125 9.460156250000011 46.46337890625 9.6328125 47.4345703125 C10 50 10 50 10 54 C10.659999999999997 54.329999999999984 11.319999999999993 54.66 12 55 C10.514999999999986 55.495000000000005 10.514999999999986 55.495000000000005 9 56 C7.193236324231151 54.19323632423115 7.311971195377453 51.416383585884205 6.9140625 48.97265625 C6.706765136718758 47.713322753906255 6.4994677734374875 46.45398925781251 6.285888671875 45.156494140625 C6.065409831692534 43.79185891914349 5.845117074844495 42.42719362130771 5.625 41.0625 C5.400477142581167 39.68541154295747 5.175623090226139 38.30837704400727 4.950439453125 36.931396484375 C4.614023297342726 34.873785637660546 4.277933271267017 32.816127580680075 3.9434967041015625 30.758193969726563 C3.3185987469919382 26.918151235578847 2.6749665481106035 23.082236124902124 2.00390625 19.25 C1.8632373046875017 18.44038818359374 1.7225683593750034 17.630776367187508 1.57763671875 16.796630859375 C1.3270761311746213 15.361787344417394 1.072532485240103 13.927630497046238 0.81298828125 12.494384765625 C0.08750891282744533 8.28798933799439 -0.10455056437199062 4.264562494120753 0 0 Z " fill="none" transform="translate(126,129)"/>
<path stroke="#f87171" stroke-width="1.5" stroke-linecap="round" d="M0 0 C4.838430605153263 0.40379289091323045 8.177158262648732 1.9604148497310518 12.3125 4.4375 C13.360507812500003 5.054960937499999 14.408515625000007 5.672421874999998 15.48828125 6.30859375 C18 8 18 8 19 10 C16.03 13.960000000000008 13.060000000000002 17.92 10 22 C4.719999999999999 19.36 -0.5600000000000023 16.72 -6 14 C-1.125 1.125 -1.125 1.125 0 0 Z " fill="none" transform="translate(152,56)"/>
<path stroke="#f87171" stroke-width="1.5" stroke-linecap="round" d="M0 0 C8.579999999999998 0 17.159999999999997 0 26 0 C26 2.969999999999999 26 5.939999999999998 26 9 C9.182692307692307 13.44230769230768 9.182692307692307 13.44230769230768 1 13 C0 10 0 10 0 0 Z " fill="none" transform="translate(37,126)"/>
<path stroke="#f87171" stroke-width="1.5" stroke-linecap="round" d="M0 0 C2.969999999999999 0.3299999999999983 5.939999999999998 0.6599999999999966 9 1 C10.319999999999993 0.6700000000000017 11.639999999999986 0.3400000000000034 13 0 C15.75 1.4375 15.75 1.4375 18 3 C17.00999999999999 4.980000000000004 16.02000000000001 6.959999999999994 15 9 C15.990000000000009 8.340000000000003 16.97999999999999 7.680000000000007 18 7 C14.88767901423165 14.129755727601975 7.9589928877911404 19.23280568976709 2 24 C1.3400000000000034 23.67 0.6800000000000068 23.340000000000003 0 23 C0 15.409999999999997 0 7.819999999999993 0 0 Z " fill="none" transform="translate(126,96)"/>
<path stroke="#f87171" stroke-width="1.5" stroke-linecap="round" d="M0 0 C0.3299999999999983 0.6599999999999966 0.6599999999999966 1.3199999999999932 1 2 C2.6500000000000057 2 4.299999999999997 2 6 2 C6.029172284727338 5.229147517126563 6.046856626867765 8.458260831988596 6.0625 11.6875 C6.070878906250002 12.599511718749994 6.079257812500003 13.511523437500003 6.087890625 14.451171875 C6.092724609374997 15.780517578125 6.092724609374997 15.780517578125 6.09765625 17.13671875 C6.105511474609372 18.354278564453125 6.105511474609372 18.354278564453125 6.113525390625 19.596435546875 C5.992979103022421 22.148646732783263 5.559948999729869 24.510261367983134 5 27 C1.2138391971078875 23.303656880388175 -2.314656587873955 19.46083345705867 -5.75 15.4375 C-6.243710937499998 14.87353515625 -6.7374218749999955 14.3095703125 -7.24609375 13.728515625 C-9.700403790033647 10.853947016467444 -11.274221757811503 8.703368454803424 -12 5 C-10.567055018205593 4.15885829160915 -9.128455947701383 3.3273431278668255 -7.6875 2.5 C-6.886992187499999 2.035937500000003 -6.086484374999998 1.5718750000000057 -5.26171875 1.09375 C-3 0 -3 0 0 0 Z " fill="none" transform="translate(118,94)"/>
<path stroke="#f87171" stroke-width="1.5" stroke-linecap="round" d="M0 0 C8.25 0 16.5 0 25 0 C23.875 9 23.875 9 21.9375 12.5 C21.575273437500016 13.170312499999994 21.213046875000003 13.840624999999989 20.83984375 14.53125 C20.56269531250001 15.015937500000007 20.285546874999994 15.500625000000014 20 16 C15.171809899431764 14.487227491942036 12.027617032332074 11.723464215460183 8.3125 8.4375 C4.4139476729635305 4.850802971787516 4.4139476729635305 4.850802971787516 0 2 C0 1.3400000000000034 0 0.6800000000000068 0 0 Z " fill="none" transform="translate(129,126)"/>
<path stroke="#f87171" stroke-width="1.5" stroke-linecap="round" d="M0 0 C0 9.239999999999995 0 18.480000000000004 0 28 C-1.980000000000004 28 -3.9599999999999937 28 -6 28 C-6.8382124996056035 24.063522255841576 -7.669732547279892 20.125660485199433 -8.5 16.1875 C-8.738476562499997 15.067949218750002 -8.976953124999994 13.948398437500003 -9.22265625 12.794921875 C-9.4482421875 11.721777343750006 -9.673828125 10.648632812499997 -9.90625 9.54296875 C-10.11572265625 8.553210449218753 -10.3251953125 7.563452148437506 -10.541015625 6.543701171875 C-11 4 -11 4 -11 1 C-7.059796423072228 -0.26086514461688637 -4.524197012843032 0 0 0 Z " fill="none" transform="translate(124,65)"/>
<path stroke="#f87171" stroke-width="1.5" stroke-linecap="round" d="M0 0 C1.6500000000000057 0 3.299999999999997 0 5 0 C5 9.240000000000009 5 18.47999999999999 5 28 C-2.875 28 -2.875 28 -6 27 C-2.1279826464208185 2.1279826464208327 -2.1279826464208185 2.1279826464208327 0 0 Z " fill="none" transform="translate(119,157)"/>
<path stroke="#f87171" stroke-width="1.5" stroke-linecap="round" d="M0 0 C7.158012251910435 5.826289042252682 13.52591765682746 12.43829849729579 20 19 C18.349999999999994 20.97999999999999 16.69999999999999 22.960000000000008 15 25 C10.764478157657464 23.464256514439313 8.63780657348073 20.31176030226095 6.0625 16.8125 C5.6237353515624875 16.228957519531264 5.184970703125003 15.645415039062499 4.73291015625 15.044189453125 C1.7588644395171968 11.074561778117186 -1.1618634493833326 7.067995722550563 -4 3 C-2.680000000000007 2.009999999999991 -1.3600000000000136 1.0200000000000102 0 0 Z " fill="none" transform="translate(168,170)"/>
<path stroke="#f87171" stroke-width="1.5" stroke-linecap="round" d="M0 0 C7.4529710150035555 5.515198551102628 14.723039473149953 11.256106999873992 22 17 C20.59284683678152 20.400620144444616 18.971317723539926 21.892296980659694 16 24 C12.959058465155948 21.103695666798615 9.946049054030283 18.17990886217737 6.9375 15.25 C6.070605468749989 14.425000000000011 5.203710937500006 13.599999999999994 4.310546875 12.75 C3.0875488281249943 11.551171874999994 3.0875488281249943 11.551171874999994 1.83984375 10.328125 C1.08050537109375 9.594970703125 0.3211669921875 8.86181640625 -0.461181640625 8.1064453125 C-2 6 -2 6 -1.802490234375 3.8544921875 C-1.2391976555196322 2.5527670798074666 -0.6343164486895603 1.2686328973791205 0 0 Z " fill="none" transform="translate(173,164)"/>
<path stroke="#f87171" stroke-width="1.5" stroke-linecap="round" d="M0 0 C-0.6454770045764349 7.907093306061398 -2.8699713929115376 15.391339673283994 -5 23 C-9.799096899205082 22.212583410320406 -12.87914943169082 20.50483073759969 -17 18 C-16.416450599811824 14.60733570678184 -15.33564676856355 12.959648620563428 -12.91015625 10.546875 C-12.290761718750005 9.928124999999994 -11.671367187499996 9.309374999999989 -11.033203125 8.671875 C-10.382871093749998 8.037656249999998 -9.732539062499995 7.4034374999999955 -9.0625 6.75 C-8.092802734374999 5.7754687499999875 -8.092802734374999 5.7754687499999875 -7.103515625 4.78125 C-2.267020089285708 0 -2.267020089285708 0 0 0 Z " fill="none" transform="translate(123,130)"/>
<path stroke="#f87171" stroke-width="1.5" stroke-linecap="round" d="M0 0 C1.012412466840317 1.8892339783002257 2.009474254854922 3.786699438135969 3 5.6875 C3.556874999999991 6.743242187500002 4.11375000000001 7.798984375000003 4.6875 8.88671875 C5.967227404256107 11.922262622595596 6.288510433544587 13.760268256655536 6 17 C5.009999999999991 17 4.02000000000001 17 3 17 C3 15.019999999999996 3 13.039999999999992 3 11 C2.4401440429687398 11.186994628906248 1.880288085937508 11.373989257812497 1.303466796875 11.566650390625 C-1.2322286789123496 12.407850206765602 -3.7722050560822993 13.235299263749539 -6.3125 14.0625 C-7.193574218750001 14.357050781249995 -8.074648437500002 14.651601562500005 -8.982421875 14.955078125 C-9.829980468749994 15.22900390625 -10.677539062499989 15.5029296875 -11.55078125 15.78515625 C-12.331066894531261 16.041760253906247 -13.111352539062494 16.298364257812494 -13.915283203125 16.562744140625 C-16 17 -16 17 -19 16 C-16.408049324526388 13.321220535363466 -13.799528915293791 10.659193667848541 -11.1875 8 C-10.449511718749989 7.236874999999998 -9.711523437500006 6.4737499999999955 -8.951171875 5.6875 C-8.238964843750011 4.965625000000003 -7.526757812499994 4.243750000000006 -6.79296875 3.5 C-6.13836669921875 2.8296875000000057 -5.4837646484375 2.159374999999997 -4.809326171875 1.46875 C-3 0 -3 0 0 0 Z " fill="none" transform="translate(148,106)"/>
<path stroke="#f87171" stroke-width="1.5" stroke-linecap="round" d="M0 0 C1.3199999999999932 0 2.6399999999999864 0 4 0 C6.815714888251108 8.648267156771226 8.423489008402214 17.894986319352597 8 27 C6 28 6 28 0 28 C0 18.75999999999999 0 9.52000000000001 0 0 Z " fill="none" transform="translate(126,157)"/>
<path stroke="#f87171" stroke-width="1.5" stroke-linecap="round" d="M0 0 C9.239999999999995 0 18.480000000000004 0 28 0 C28 1.3199999999999932 28 2.6399999999999864 28 4 C24.626782243734823 4.67590187921968 21.25117757885259 5.3390551829759545 17.875 6 C16.923671874999997 6.190781249999986 15.972343749999993 6.381562500000001 14.9921875 6.578125 C10.263618844408114 7.497568905253985 5.844372654069602 8.26097630459634 1 8 C0 6 0 6 0 0 Z " fill="none" transform="translate(65,126)"/>
<path stroke="#f87171" stroke-width="1.5" stroke-linecap="round" d="M0 0 C4.19386901077408 3.0810553923917894 7.237578034654348 6.472810663940919 10.375 10.5625 C10.837773437500005 11.139355468750011 11.300546875000009 11.716210937499994 11.77734375 12.310546875 C13.0859375 14.00390625 13.0859375 14.00390625 15 17 C14 20 14 20 10.6875 21.6875 C7 23 7 23 3 23 C2.4949473693087043 20.104966170501655 1.9957977990265476 17.20912047449289 1.5 14.3125 C1.2853710937500011 13.087568359375013 1.2853710937500011 13.087568359375013 1.06640625 11.837890625 C0.3883403773868679 7.8502175170132205 -0.19858391633496808 4.062695955019677 0 0 Z " fill="none" transform="translate(127,130)"/>
<path stroke="#f87171" stroke-width="1.5" stroke-linecap="round" d="M0 0 C0.6599999999999966 0 1.3199999999999932 0 2 0 C5.204829116022651 3.492023578558289 8.05919633649117 7.284545615371769 11 11 C11.720585937500005 11.8675390625 12.441171874999995 12.735078125000001 13.18359375 13.62890625 C13.824257812500008 14.411367187500005 14.464921875000002 15.193828124999996 15.125 16 C15.705078125 16.70125 16.28515625 17.402500000000003 16.8828125 18.125 C17.251484375000004 18.743750000000006 17.620156250000008 19.362499999999997 18 20 C17.67 20.989999999999995 17.340000000000003 21.980000000000004 17 23 C13.225313289591156 22.433796993438676 11.524481070304404 20.87731018553859 8.890625 18.18359375 C8.136523437500003 17.419824218749994 7.382421875000006 16.656054687500003 6.60546875 15.869140625 C5.828164062500008 15.066699218750003 5.050859375000002 14.264257812500006 4.25 13.4375 C3.457226562499997 12.631191406249997 2.6644531249999943 11.824882812499993 1.84765625 10.994140625 C-0.10847046373835667 9.002662223663961 -2.0572571906274533 7.004522791079594 -4 5 C-2.719375152513429 3.2925002033512385 -1.3823244320162758 1.6262640376662176 0 0 Z " fill="none" transform="translate(66,56)"/>
<path stroke="#f87171" stroke-width="1.5" stroke-linecap="round" d="M0 0 C5.098824546207794 1.5280389018603842 9.6566565919031 3.7103685633066448 14.375 6.125 C15.111054687500001 6.497539062499996 15.847109375000002 6.870078125000006 16.60546875 7.25390625 C18.40550358215711 8.165612203949706 20.203014020974166 9.082299321875169 22 10 C22 10.329999999999998 22 10.659999999999997 22 11 C14.079999999999998 11 6.159999999999997 11 -2 11 C-1 2 -1 2 0 0 Z " fill="none" transform="translate(98,113)"/>
<path stroke="#f87171" stroke-width="1.5" stroke-linecap="round" d="M0 0 C5.910155792020156 0.5328828992805086 10.631144909261316 2.984008001315999 15.875 5.5625 C16.754140625000005 5.987246093750002 17.633281249999996 6.4119921875000045 18.5390625 6.849609375 C20.696113557164622 7.892965592867668 22.849502882690757 8.943218843300357 25 10 C25 10.659999999999997 25 11.319999999999993 25 12 C20.36626751738251 10.59004164519743 16.15679185295683 8.670477471703293 11.875 6.4375 C6.65229556426209 3.6567238393516988 6.65229556426209 3.6567238393516988 1 2 C-2.911791706899024 13.291483863176609 -4.591362925847378 25.17276418871856 -6 37 C-6.659999999999997 37 -7.32 37 -8 37 C-8.0605859375 36.252343749999994 -8.121171875000002 35.5046875 -8.18359375 34.734375 C-8.309277343749997 33.257109375 -8.309277343749997 33.257109375 -8.4375 31.75 C-8.518710937500003 30.77546875 -8.599921875 29.800937500000003 -8.68359375 28.796875 C-8.950745837744066 26.435382471299363 -9.353719684249064 24.280989349709188 -10 22 C-9.670000000000002 22.659999999999997 -9.340000000000003 23.319999999999993 -9 24 C-8.340000000000003 24 -7.68 24 -7 24 C-6.917499999999997 22.927499999999995 -6.835000000000001 21.855000000000004 -6.75 20.75 C-5.865713771766529 13.573184234626893 -3.387144985271327 6.379376205443762 0 0 Z " fill="none" transform="translate(43,86)"/>
<path stroke="#f87171" stroke-width="1.5" stroke-linecap="round" d="M0 0 C4.289490575595892 1.546211719110147 6.47973792072267 4.800271562179859 9.125 8.3125 C9.597844238281255 8.927543945312493 10.070688476562509 9.542587890624986 10.557861328125 10.17626953125 C11.54559042594073 11.46249991315392 12.52999992140181 12.751285681370774 13.51123046875 14.04248046875 C14.979847576580738 15.97350243834444 16.45864849290632 17.896227498524013 17.94140625 19.81640625 C20.300904009056296 22.872560741892414 22.65255801153657 25.93457683936012 25 29 C27.91517291802043 27.925988924939844 29.778101755298025 27.221898244701975 32 25 C32.99000000000001 25.329999999999984 33.97999999999999 25.659999999999997 35 26 C32.360000000000014 27.97999999999999 29.72 29.960000000000008 27 32 C23.23312135665776 30.11656067832888 22.205783538369502 29.30867530755424 20 26 C15.823515370771759 27.435666591297206 12.473704171189667 29.583336613283393 8.8671875 32.07421875 C7 33 7 33 4 32 C7.469944355183429 28.096312600418628 11.55224006325713 25.63411025379918 16 23 C14.560114935176728 18.59136314422085 12.140597178953726 15.495709033181981 9.125 12.0625 C5.769826621836614 8.204548415316594 2.757231111131375 4.302562966439893 0 0 Z " fill="none" transform="translate(163,174)"/>
<path stroke="#f87171" stroke-width="1.5" stroke-linecap="round" d="M0 0 C0.6599999999999966 0.3300000000000125 1.3199999999999932 0.6599999999999966 2 1 C-1.7037446230008157 3.6107407908074265 -5.413774740908977 6.212406640769359 -9.125 8.8125 C-10.171718749999997 9.550488281250011 -11.218437499999993 10.288476562499994 -12.296875 11.048828125 C-13.315234375000003 11.761035156249989 -14.333593750000006 12.473242187500006 -15.3828125 13.20703125 C-16.314965820312494 13.86163330078125 -17.247119140625003 14.5162353515625 -18.20751953125 15.190673828125 C-21.050892036092563 17.032974373096863 -23.94391716942333 18.542938573034746 -27 20 C-27.659999999999997 18.02000000000001 -28.319999999999993 16.039999999999992 -29 14 C-24.911477807662237 11.977748768983844 -20.81807106899433 9.965893528398482 -16.7197265625 7.963623046875 C-15.325419726488292 7.280607705178369 -13.932505815114268 6.59474133890086 -12.541015625 5.906005859375 C-10.543936128097371 4.918134270629366 -8.54211821931088 3.940528775593151 -6.5390625 2.96484375 C-5.915045471191405 2.6534495544433696 -5.29102844238281 2.342055358886711 -4.648101806640625 2.0212249755859375 C-3.1267571292559353 1.2863936147230959 -1.5656754972204112 0.6349228250093688 0 0 Z " fill="none" transform="translate(109,133)"/>
<path stroke="#f87171" stroke-width="1.5" stroke-linecap="round" d="M0 0 C0 0.6599999999999966 0 1.3200000000000003 0 2 C-0.5325439453124972 2.195212402343749 -1.0650878906249943 2.3904248046874983 -1.61376953125 2.591552734375 C-11.59640274071522 6.296104266486637 -21.030450794847383 10.043821361406998 -29.77197265625 16.204833984375 C-33.74816870316289 19 -33.74816870316289 19 -37 19 C-34.58852537326035 12.383148890043643 -26.13212949035872 8.997161120529611 -20.0673828125 6.06591796875 C-6.388754306632222 -0.17266903531438516 -6.388754306632222 -0.17266903531438516 0 0 Z " fill="none" transform="translate(104,35)"/>
<path stroke="#f87171" stroke-width="1.5" stroke-linecap="round" d="M0 0 C3.812957953626153 2.8410274948587073 7.614154590456536 5.6901398647030135 11.35546875 8.625 C12.22619018554687 9.304899902343749 12.22619018554687 9.304899902343749 13.114501953125 9.99853515625 C14.281481434982851 10.910950954157983 15.445430063454296 11.827257483675112 16.606201171875 12.74755859375 C19.463929870119046 15.218382389563885 19.463929870119046 15.218382389563885 23 16 C24.333464120378295 14.04969533414058 25.438913161840645 12.009956308686839 26.5859375 9.9453125 C28.18112354618998 7.750830038666834 29.512915046573426 7.0054173215979745 32 6 C31.228047921487132 10.068641543220679 29.25755499968176 12.695773154078012 26.86328125 16 C25.734645682309946 18.001734002499802 25.734645682309946 18.001734002499802 26.72265625 20.140625 C28.207191468540714 22.301599813533244 29.82938223142972 23.552921487619813 32 25 C30.348324432844038 28.578630395504604 28.217135082691982 31.748201878718447 26 35 C25.670000000000016 34.00999999999999 25.340000000000003 33.02000000000001 25 32 C26.287259070875848 30.297496067551265 27.62131719256209 28.629352408790282 29 27 C29 26.340000000000003 29 25.680000000000007 29 25 C26.99490280021942 23.272203476784824 24.980694412754588 21.659980648792384 22.875 20.0625 C21.941678466796873 19.340302734375 21.941678466796873 19.340302734375 20.989501953125 18.603515625 C18.327332652611034 16.544032338210826 15.653932297252112 14.499415315683478 12.97900390625 12.45654296875 C11.044279775989764 10.976433927228868 9.11582938461379 9.488424522388641 7.1875 8 C6.281369628906248 7.315628662109361 6.281369628906248 7.315628662109361 5.35693359375 6.617431640625 C1.1127641009312867 3.338292302793832 1.1127641009312867 3.338292302793832 0 0 Z " fill="none" transform="translate(174,163)"/>
<path stroke="#f87171" stroke-width="1.5" stroke-linecap="round" d="M0 0 C7.4529710150035555 5.515198551102628 14.723039473149953 11.256106999873992 22 17 C21.340000000000003 18.319999999999993 20.680000000000007 19.639999999999986 20 21 C14.948898776701412 18.769962675594826 11.59576226157455 14.925248844001999 7.75 11.0625 C7.004921875000008 10.333535156250008 6.2598437499999875 9.604570312499987 5.4921875 8.853515625 C4.788359374999999 8.150332031250002 4.084531249999998 7.4471484375000045 3.359375 6.72265625 C2.7145214843750125 6.080783691406253 2.0696679687499966 5.438911132812507 1.4052734375 4.777587890625 C0 3 0 3 0 0 Z " fill="none" transform="translate(149,145)"/>
<path stroke="#f87171" stroke-width="1.5" stroke-linecap="round" d="M0 0 C0.49500000000000455 4.949999999999999 0.49500000000000455 4.949999999999999 1 10 C-1.5654594042240717 7.434540595775935 -1.5404608707689817 5.523133324104421 -2 2 C-15.302149648321034 5.975355067314332 -28.865880062520233 10.904867496653836 -39.6171875 19.96875 C-41 21 -41 21 -43 21 C-41.35 23.310000000000002 -39.7 25.620000000000005 -38 28 C-38.33 28.659999999999997 -38.66 29.32 -39 30 C-40.03295435713044 28.907164230861994 -41.05107834539072 27.800294212246655 -42.0625 26.6875 C-42.6309765625 26.0726171875 -43.199453125 25.457734375 -43.78515625 24.82421875 C-44.1860546875 24.222226562499998 -44.586953125 23.620234374999995 -45 23 C-43.63715056492978 18.91145169478935 -40.89242202876829 17.522918215852187 -37.4375 15.25 C-36.77145751953125 14.809704589843747 -36.10541503906251 14.369409179687501 -35.419189453125 13.915771484375 C-25.540875501371005 7.578195866758165 -11.947747617179857 0 0 0 Z " fill="none" transform="translate(104,24)"/>
<path stroke="#f87171" stroke-width="1.5" stroke-linecap="round" d="M0 0 C1.3199999999999932 0.6599999999999966 2.6399999999999864 1.3199999999999932 4 2 C2.5793748500431377 5.226899804005527 0.8575455878752791 7.399425119736719 -1.625 9.890625 C-2.684609375000008 10.9541015625 -2.684609375000008 10.9541015625 -3.765625 12.0390625 C-4.871640624999998 13.133476562499993 -4.871640624999998 13.133476562499993 -6 14.25 C-6.737343750000008 14.995078124999992 -7.4746874999999875 15.740156249999998 -8.234375 16.5078125 C-8.940781249999986 17.211640625 -9.647187500000001 17.915468750000002 -10.375 18.640625 C-11.022109375000014 19.285478515625 -11.669218749999999 19.930332031250003 -12.3359375 20.5947265625 C-14 22 -14 22 -16 22 C-14.492270281264865 17.22700947027633 -11.810472792980818 14.117406593351149 -8.5625 10.4375 C-7.583669202354514 9.312037519132971 -6.6057797772115805 8.185755512167205 -5.62890625 7.05859375 C-5.172739257812509 6.533784179687501 -4.71657226562499 6.008974609375002 -4.24658203125 5.46826171875 C-2.7484781568880123 3.7037500265422096 -1.3538673586500067 1.8770567786029062 0 0 Z " fill="none" transform="translate(162,79)"/>
<path stroke="#f87171" stroke-width="1.5" stroke-linecap="round" d="M0 0 C3.774686710408872 0.5662030065613237 5.475518929695596 2.1226898144614097 8.109375 4.81640625 C8.863476562500011 5.580175781250006 9.617578124999994 6.343945312500011 10.39453125 7.130859375 C11.171835937499992 7.933300781250011 11.949140625000013 8.735742187499994 12.75 9.5625 C13.542773437499989 10.368808593750003 14.335546875000006 11.175117187500007 15.15234375 12.005859375 C17.108470463738342 13.997337776336025 19.057257190627467 15.99547720892042 21 18 C20.340000000000003 19.319999999999993 19.680000000000007 20.639999999999986 19 22 C14.764478157657464 20.464256514439313 12.63780657348073 17.31176030226095 10.0625 13.8125 C9.623735351562487 13.228957519531264 9.184970703125003 12.645415039062499 8.73291015625 12.044189453125 C5.758864439517197 8.074561778117186 2.8381365506166674 4.067995722550563 0 0 Z " fill="none" transform="translate(145,149)"/>
<path stroke="#f87171" stroke-width="1.5" stroke-linecap="round" d="M0 0 C7.999999999999972 6 7.999999999999972 6 10.140625 7.69921875 C11.894929792613908 9.19107708637054 11.894929792613908 9.19107708637054 14 9 C14.43312499999999 7.865624999999994 14.866250000000008 6.731249999999989 15.3125 5.5625 C15.869374999999991 4.386875000000003 16.42625000000001 3.211250000000007 17 2 C17.99000000000001 1.6699999999999875 18.97999999999999 1.3400000000000034 20 1 C19.399811597743337 5.20131881579664 18.380767507309457 8.992406503174976 17 13 C19.562242063099433 15.083650723602915 22.124840169279565 17.16686311410541 24.6875 19.25 C25.408730468750008 19.836523437500006 26.129960937500016 20.42304687500001 26.873046875 21.02734375 C30.570641823098867 24.03269489503012 34.27345849493764 27.030527084723502 38 30 C33.6975406774566 29.475309838714224 30.862004198872256 26.768793473884244 27.625 24.125 C26.377781723760364 23.124778556303056 25.130380426611055 22.124785293705003 23.8828125 21.125 C23.243759765624986 20.609375 22.60470703125 20.09375 21.9462890625 19.5625 C18.82094209803367 17.053440720950277 15.658715598802218 14.591814582825037 12.5 12.125 C10.325462496272763 10.42635669645827 8.159229016554491 8.71805321132021 6 7 C5.426367187500006 6.551083984374998 4.852734375000011 6.1021679687499955 4.26171875 5.6396484375 C2.80320193956382 4.472322629615775 1.3964920446037468 3.2408588950545436 0 2 C0 1.3400000000000034 0 0.6800000000000068 0 0 Z " fill="none" transform="translate(135,132)"/>
<path stroke="#f87171" stroke-width="1.5" stroke-linecap="round" d="M0 0 C0.3813329872454858 1.9914056000598066 0.7132558244319114 3.992790771023394 1 6 C0 7 0 7 -1.857666015625 7.113525390625 C-2.6484252929687386 7.108288574218747 -3.4391845703125057 7.103051757812494 -4.25390625 7.09765625 C-5.10791015625 7.094433593749997 -5.9619140625 7.091210937499994 -6.841796875 7.087890625 C-7.7396289062500045 7.079511718749998 -8.637460937500009 7.071132812499997 -9.5625 7.0625 C-10.464199218749997 7.0579882812500045 -11.365898437499993 7.053476562499995 -12.294921875 7.048828125 C-14.530013137117919 7.037002245306255 -16.764974366394227 7.020522201749458 -19 7 C-18.669999999999987 5.680000000000007 -18.340000000000003 4.359999999999999 -18 3 C-17.252343749999994 2.8672265624999937 -16.50468749999999 2.7344531250000017 -15.734375 2.59765625 C-14.257109374999999 2.332753906250005 -14.257109374999999 2.332753906250005 -12.75 2.0625 C-11.775468749999987 1.8884765625000028 -10.800937500000003 1.7144531250000057 -9.796875 1.53515625 C-8.130638182418153 1.2163371941219054 -6.469684394030423 0.8616982682273573 -4.828125 0.43359375 C-3 0 -3 0 0 0 Z " fill="none" transform="translate(150,119)"/>
<path stroke="#f87171" stroke-width="1.5" stroke-linecap="round" d="M0 0 C4.410068617346866 0.4305066983600483 6.830005734507409 3.4217053977130263 9.75 6.4375 C10.256601562499995 6.940878906250006 10.763203125000004 7.444257812499998 11.28515625 7.962890625 C15 11.732806182614553 15 11.732806182614553 15 14 C10.640291692784103 12.651501634705 6.686585624633182 10.950921541479175 2.625 8.875 C1.5653906250000063 8.336171875000005 0.5057812499999983 7.797343749999996 -0.5859375 7.2421875 C-1.3825781249999949 6.832265625000005 -2.179218750000004 6.422343749999996 -3 6 C-2.010000000000005 4.019999999999996 -1.019999999999996 2.0400000000000063 0 0 Z " fill="none" transform="translate(102,106)"/>
<path stroke="#f87171" stroke-width="1.5" stroke-linecap="round" d="M0 0 C2.884377793984868 1.2929969421311398 4.872194212097355 2.659413633307082 7 5 C5.619903786253843 8.33523251655322 4.15049347723928 10.186079513104659 1 12 C-2.9999628569465244 10.666679047684482 -3.837823368252316 8.504217299728992 -6 5 C-4.02000000000001 3.3499999999999943 -2.039999999999992 1.6999999999999886 0 0 Z " fill="none" transform="translate(189,192)"/>
<path stroke="#f87171" stroke-width="1.5" stroke-linecap="round" d="M0 0 C2.3100000000000023 1.6500000000000057 4.6200000000000045 3.3000000000000114 7 5 C5.814176297870716 8.375036690675671 4.724263109984918 10.64722731410393 2 13 C-0.8843777939848678 11.70700305786886 -2.872194212097355 10.340586366692918 -5 8 C-3.628454960733052 5.04590299234809 -2.0113627601104724 2.559916240140609 0 0 Z " fill="none" transform="translate(197,183)"/>
<path stroke="#f87171" stroke-width="1.5" stroke-linecap="round" d="M0 0 C1.206562500000004 0.03093749999999318 1.206562500000004 0.03093749999999318 2.4375 0.0625 C2.4954035332716558 3.3540931605965767 2.531062608759413 6.645556031521934 2.5625 9.9375 C2.5792578125000034 10.8746484375 2.596015625000007 11.811796874999999 2.61328125 12.77734375 C2.6197265625000057 13.673242187499994 2.626171874999997 14.569140625000003 2.6328125 15.4921875 C2.6432861328125057 16.319604492187494 2.653759765624997 17.147021484375003 2.66455078125 17.99951171875 C2.4375 20.0625 2.4375 20.0625 0.4375 22.0625 C-0.2592207117304497 18.585113197220423 -0.94332542077629 15.10536493088803 -1.625 11.625 C-1.8241601562500023 10.631777343750002 -2.0233203125000045 9.638554687500005 -2.228515625 8.615234375 C-2.4122070312500057 7.670996093750006 -2.595898437499997 6.726757812499997 -2.78515625 5.75390625 C-3.0443786621093807 4.442083740234381 -3.0443786621093807 4.442083740234381 -3.308837890625 3.103759765625 C-3.4344006347656233 2.0933361816406233 -3.4344006347656233 2.0933361816406233 -3.5625 1.0625 C-2.5625 0.0625 -2.5625 0.0625 0 0 Z " fill="none" transform="translate(121.5625,95.9375)"/>
<path stroke="#f87171" stroke-width="1.5" stroke-linecap="round" d="M0 0 C0.3299999999999983 0 0.6599999999999966 0 1 0 C1 1.6499999999999986 1 3.299999999999997 1 5 C0.24976562499999488 5.291328125000007 -0.500468749999996 5.582656249999999 -1.2734375 5.8828125 C-7.583741141699477 8.410112950957725 -13.281003956972427 11.187335971314951 -18.94140625 14.9609375 C-19.6207421875 15.303828124999995 -20.300078125 15.646718750000005 -21 16 C-21.989999999999995 15.670000000000002 -22.980000000000004 15.340000000000003 -24 15 C-18.858481297731984 8.756727290103129 -11.290247957318442 5.359336514156254 -3.68359375 2.94921875 C-0.8608205865798766 2.300059087795489 -0.8608205865798766 2.300059087795489 0 0 Z " fill="none" transform="translate(110,62)"/>
<path stroke="#f87171" stroke-width="1.5" stroke-linecap="round" d="M0 0 C2.3100000000000023 0.3299999999999983 4.6200000000000045 0.6599999999999966 7 1 C6.391242454743519 5.604166261824872 5.152770444048116 9.564833243161132 3.4375 13.875 C2.982460937500008 15.027421875000002 2.5274218749999875 16.179843750000003 2.05859375 17.3671875 C1.7092578124999989 18.236015624999993 1.3599218749999977 19.10484375 1 20 C0.6700000000000017 20 0.3400000000000034 20 0 20 C0 13.400000000000006 0 6.799999999999997 0 0 Z " fill="none" transform="translate(127,96)"/>
<path stroke="#f87171" stroke-width="1.5" stroke-linecap="round" d="M0 0 C-3.1749400743952094 2.5537561467961325 -6.481036612016709 4.3744715330058455 -10.125 6.1875 C-11.179453124999995 6.71730468749999 -12.233906250000004 7.247109375000008 -13.3203125 7.79296875 C-16 9 -16 9 -18 9 C-18.33 6.689999999999998 -18.659999999999997 4.3799999999999955 -19 2 C-16.95928484598967 1.6608900634285533 -14.917373785884251 1.3289729588001364 -12.875 1 C-11.738046874999995 0.8143750000000125 -10.601093750000004 0.6287499999999966 -9.4296875 0.4375 C-6.238623977427153 0.030439505093227126 -3.21182208619328 -0.0780990172934537 0 0 Z " fill="none" transform="translate(116,128)"/>
<path stroke="#f87171" stroke-width="1.5" stroke-linecap="round" d="M0 0 C7.954849733856719 0.35354887706029814 15.558319795178505 4.261857345619603 21.1875 9.875 C22.0846875 10.926874999999995 22.0846875 10.926874999999995 23 12 C20.360000000000014 15.629999999999995 17.72 19.260000000000005 15 23 C14.340000000000003 22.340000000000003 13.680000000000007 21.680000000000007 13 21 C15.310000000000002 18.03 17.620000000000005 15.060000000000002 20 12 C15.253068710400413 7.727761839360376 8.565731088240739 3 2 3 C0.020000000000010232 7.454999999999998 0.020000000000010232 7.454999999999998 -2 12 C-2.6599999999999966 11.670000000000002 -3.319999999999993 11.340000000000003 -4 11 C-2.0200000000000102 5.555 -2.0200000000000102 5.555 0 0 Z " fill="none" transform="translate(150,54)"/>
<path stroke="#f87171" stroke-width="1.5" stroke-linecap="round" d="M0 0 C2.9478794751944974 1.3090690780808671 4.824561772605151 2.6289247386292516 6.91015625 5.08203125 C7.425136718749997 5.684667968750006 7.940117187499993 6.287304687499997 8.470703125 6.908203125 C9.258642578125006 7.850830078125 9.258642578125006 7.850830078125 10.0625 8.8125 C10.59166015625 9.429316406249995 11.120820312500001 10.046132812500005 11.666015625 10.681640625 C14.45127125837925 13.970129396656048 16.912630285822715 17.20806539812085 19 21 C15.74133639709558 19.573542197172188 13.597514600283247 17.832958384158786 11.109375 15.3046875 C10.400390625 14.589257812499994 9.69140625 13.873828125000003 8.9609375 13.13671875 C8.231328125000005 12.390351562500001 7.501718749999995 11.643984375000002 6.75 10.875 C5.632382812499998 9.743847656249997 5.632382812499998 9.743847656249997 4.4921875 8.58984375 C2.6568657958739124 6.730992280436396 0.8263809049317956 4.867629952471958 -1 3 C-0.6700000000000017 2.010000000000005 -0.3400000000000034 1.019999999999996 0 0 Z " fill="none" transform="translate(85,80)"/>
<path stroke="#f87171" stroke-width="1.5" stroke-linecap="round" d="M0 0 C0.3299999999999983 0 0.6599999999999966 0 1 0 C1 2.969999999999999 1 5.939999999999998 1 9 C1.6599999999999966 9 2.3200000000000003 9 3 9 C3 9.990000000000009 3 10.97999999999999 3 12 C15.375 10.02000000000001 15.375 10.02000000000001 28 8 C28.33 8.659999999999997 28.659999999999997 9.319999999999993 29 10 C25.250972530232673 10.672214748990228 21.500632790628273 11.336805671430113 17.75 12 C16.6865234375 12.190781249999986 15.623046875 12.381562500000001 14.52734375 12.578125 C12.990136718750001 12.848828125000011 12.990136718750001 12.848828125000011 11.421875 13.125 C10.479248046875 13.292578125000006 9.53662109375 13.460156250000011 8.5654296875 13.6328125 C6 14 6 14 2 14 C1.6700000000000017 14.990000000000009 1.3400000000000034 15.97999999999999 1 17 C-0.22517308245806333 11.33357449363146 -0.09228867152377518 5.76291482181793 0 0 Z " fill="none" transform="translate(35,127)"/>
<path stroke="#f87171" stroke-width="1.5" stroke-linecap="round" d="M0 0 C1.9215476412191492 0.9063903968014984 3.8370665358841336 1.825568038872234 5.75 2.75 C7.351015625000002 3.5157031250000017 7.351015625000002 3.5157031250000017 8.984375 4.296875 C11.866947552270716 5.924856389624381 13.804263087255038 7.548449078003216 16 10 C15.340000000000003 10.659999999999997 14.680000000000007 11.319999999999993 14 12 C13.336132812500011 11.590078125000005 12.672265624999994 11.180156249999996 11.98828125 10.7578125 C11.105273437499989 10.218984375000005 10.222265625000006 9.680156249999996 9.3125 9.125 C8.4423828125 8.591328125000004 7.572265625 8.057656250000008 6.67578125 7.5078125 C4.166089183470149 6.093591861050328 1.6970093122301364 5.0010521050800065 -1 4 C-0.6699999999999875 2.680000000000007 -0.3400000000000034 1.3599999999999994 0 0 Z " fill="none" transform="translate(147,66)"/>
<path stroke="#f87171" stroke-width="1.5" stroke-linecap="round" d="M0 0 C0.6599999999999966 0 1.3199999999999932 0 2 0 C2.6722147489902284 3.749027469767327 3.3368056714301133 7.499367209371741 4 11.25 C4.286171875000008 12.84521484375 4.286171875000008 12.84521484375 4.578125 14.47265625 C4.758593749999989 15.497460937499994 4.939062500000006 16.52226562499999 5.125 17.578125 C5.292578125000006 18.520751953125 5.460156250000011 19.46337890625 5.6328125 20.4345703125 C6 23 6 23 6 27 C6.659999999999997 27.329999999999984 7.319999999999993 27.659999999999997 8 28 C7.009999999999991 28.329999999999984 6.02000000000001 28.659999999999997 5 29 C3.3188649732993554 27.318864973299355 3.410104339194902 25.091241885816032 3.02734375 22.79296875 C2.85009765625 21.73142578125001 2.6728515625 20.669882812499992 2.490234375 19.576171875 C2.307832031250001 18.457910156249994 2.1254296875000023 17.33964843749999 1.9375 16.1875 C1.751230468750009 15.080839843749999 1.5649609374999898 13.974179687499998 1.373046875 12.833984375 C0.6540820030561179 8.480691578944146 0 4.422389200050361 0 0 Z " fill="none" transform="translate(130,156)"/>
<path stroke="#f87171" stroke-width="1.5" stroke-linecap="round" d="M0 0 C0.3299999999999983 0 0.6599999999999966 0 1 0 C1 6.599999999999994 1 13.199999999999989 1 20 C-0.3199999999999932 20 -1.6400000000000006 20 -3 20 C-2.336449556139371 13.253903820750281 -1.2813420741614863 6.655514657052407 0 0 Z " fill="none" transform="translate(123,134)"/>
<path stroke="#f87171" stroke-width="1.5" stroke-linecap="round" d="M0 0 C0 1.3199999999999932 0 2.6400000000000006 0 4 C-4.949999999999989 4 -9.900000000000006 4 -15 4 C-10.989172128108919 -0.010827871891081031 -5.440227376443772 -0.2653769451923722 0 0 Z " fill="none" transform="translate(149,120)"/>
<path stroke="#f87171" stroke-width="1.5" stroke-linecap="round" d="M0 0 C1.113467882351074 2.8003383867511786 1.0351027321787285 3.901437034353023 0.00390625 6.796875 C-0.4717578124999875 7.7714062500000125 -0.9474218750000034 8.745937499999997 -1.4375 9.75 C-1.9105859375000023 10.73484375000001 -2.3836718750000045 11.719687499999992 -2.87109375 12.734375 C-3.2436328125000102 13.482031250000006 -3.616171874999992 14.229687500000011 -4 15 C-4.990000000000009 15 -5.97999999999999 15 -7 15 C-3.5714285714285836 3.571428571428555 -3.5714285714285836 3.571428571428555 0 0 Z " fill="none" transform="translate(211,155)"/>
<path stroke="#f87171" stroke-width="1.5" stroke-linecap="round" d="M0 0 C0.6599999999999966 0.3300000000000125 1.3199999999999932 0.6599999999999966 2 1 C0.40517782210017117 2.675610543384437 -1.201168438693145 4.340259335992926 -2.8125 6 C-3.705820312499995 6.928124999999994 -4.599140625000004 7.856249999999989 -5.51953125 8.8125 C-8 11 -8 11 -11 11 C-10.68276924110559 7.9491850421217976 -10.110982194938543 7.093338871640611 -7.71484375 5.078125 C-6.340058593750001 4.173203124999986 -6.340058593750001 4.173203124999986 -4.9375 3.25 C-4.018398437499997 2.636406249999993 -3.099296874999993 2.0228124999999864 -2.15234375 1.390625 C-1.4420703124999932 0.9317187499999875 -0.7317968750000006 0.4728125000000034 0 0 Z " fill="none" transform="translate(113,133)"/>
<path stroke="#f87171" stroke-width="1.5" stroke-linecap="round" d="M0 0 C-1.3199999999999932 0.3300000000000125 -2.6400000000000006 0.6599999999999966 -4 1 C-3.3400000000000034 3.969999999999999 -2.680000000000007 6.939999999999998 -2 10 C-2.989999999999995 10 -3.980000000000004 10 -5 10 C-6.256649778003023 7.093997388368024 -7 5.203954156232896 -7 2 C-7.659999999999997 1.6699999999999875 -8.319999999999993 1.3400000000000034 -9 1 C-6.043354807428727 -0.47832259628563634 -3.2577026303591623 -0.06032782648813395 0 0 Z " fill="none" transform="translate(101,129)"/>
<path stroke="#f87171" stroke-width="1.5" stroke-linecap="round" d="M0 0 C1.0364062499999989 0.4937109374999977 2.0728124999999977 0.9874218749999955 3.140625 1.49609375 C4.510327101321423 2.1434187156930022 5.880123747980932 2.790543655469733 7.25 3.4375 C8.272871093749998 3.925732421874997 8.272871093749998 3.925732421874997 9.31640625 4.423828125 C9.980273437500003 4.736425781250006 10.644140625000006 5.049023437499997 11.328125 5.37109375 C11.935595703125003 5.65911865234375 12.543066406250006 5.9471435546875 13.1689453125 6.243896484375 C15.003043145687258 7.081290057314803 15.003043145687258 7.081290057314803 17.1044921875 7.351806640625 C19 8 19 8 20.25 10.0625 C20.497500000000002 10.701875000000001 20.745000000000005 11.341250000000002 21 12 C17.87483453073962 10.52118274986097 14.74989590091809 9.041886780678894 11.625 7.5625 C10.735546874999997 7.141621093750004 9.846093749999994 6.720742187499994 8.9296875 6.287109375 C8.078906250000003 5.88427734375 7.228125000000006 5.4814453125 6.3515625 5.06640625 C5.5660400390625 4.694592285156247 4.780517578125 4.322778320312494 3.97119140625 3.939697265625 C2.6413710049548627 3.305751424086111 1.317667523984781 2.6588337619923834 0 2 C0 1.3400000000000034 0 0.6800000000000068 0 0 Z " fill="none" transform="translate(100,112)"/>
<path stroke="#f87171" stroke-width="1.5" stroke-linecap="round" d="M0 0 C0 0.9899999999999949 0 1.980000000000004 0 3 C-5.444999999999993 5.474999999999994 -5.444999999999993 5.474999999999994 -11 8 C-11 6.680000000000007 -11 5.359999999999999 -11 4 C-9.733084925256293 3.3259169198513376 -8.46129251445602 2.6609950345285256 -7.1875 2 C-6.479804687500007 1.6287499999999966 -5.772109374999999 1.2574999999999932 -5.04296875 0.875 C-3 0 -3 0 0 0 Z " fill="none" transform="translate(118,94)"/>
<path stroke="#f87171" stroke-width="1.5" stroke-linecap="round" d="M0 0 C0.3299999999999983 0.9899999999999949 0.6599999999999966 1.980000000000004 1 3 C0.0069217930442277975 4.3384967137230035 -0.993570520007566 5.671513086409988 -2 7 C-2 8.319999999999993 -2 9.64 -2 11 C-3.319999999999993 10.670000000000002 -4.640000000000001 10.340000000000003 -6 10 C-6 6.366728055841719 -5.044135887640934 4.952640726592463 -3 2 C-2.010000000000005 1.3400000000000034 -1.019999999999996 0.6800000000000068 0 0 Z " fill="none" transform="translate(75,89)"/>
<path stroke="#f87171" stroke-width="1.5" stroke-linecap="round" d="M0 0 C0.6599999999999966 0.3300000000000125 1.3199999999999932 0.6599999999999966 2 1 C-1.960000000000008 3.6399999999999864 -5.920000000000002 6.280000000000001 -10 9 C-10.659999999999997 8.669999999999987 -11.319999999999993 8.340000000000003 -12 8 C-12 7.340000000000003 -12 6.680000000000007 -12 6 C-10.046691319856606 4.969584870566564 -8.087184724742485 3.9509106990140594 -6.125 2.9375 C-5.034453124999999 2.3690234375000045 -3.9439062499999977 1.800546875000009 -2.8203125 1.21484375 C-1.4242578125000023 0.6134960937500011 -1.4242578125000023 0.6134960937500011 0 0 Z " fill="none" transform="translate(109,133)"/>
<path stroke="#f87171" stroke-width="1.5" stroke-linecap="round" d="M0 0 C4.950000000000003 0 9.900000000000006 0 15 0 C11.2311657979335 1.8844171010332502 9.319875254025334 2.33429462471247 5.25 2.625 C4.265156250000004 2.6997656249999977 3.2803124999999937 2.7745312499999955 2.265625 2.8515625 C1.5179687499999943 2.9005468750000034 0.7703125000000028 2.949531250000007 0 3 C0 2.009999999999991 0 1.019999999999996 0 0 Z " fill="none" transform="translate(96,126)"/>
<path stroke="#f87171" stroke-width="1.5" stroke-linecap="round" d="M0 0 C2.189942484146968 3.284913726220452 2.352773392169553 4.83095638906866 2.625 8.6875 C2.6997656249999977 9.681367187500001 2.7745312499999955 10.675234375000002 2.8515625 11.69921875 C2.925039062499991 12.838105468750001 2.925039062499991 12.838105468750001 3 14 C2.009999999999991 14 1.019999999999996 14 0 14 C0 9.379999999999995 0 4.759999999999991 0 0 Z " fill="none" transform="translate(126,140)"/>
<path stroke="#f87171" stroke-width="1.5" stroke-linecap="round" d="M0 0 C0.3299999999999983 0 0.6599999999999966 0 1 0 C1 3.9599999999999937 1 7.920000000000002 1 12 C1.6599999999999966 12.329999999999998 2.3200000000000003 12.659999999999997 3 13 C2.009999999999998 13 1.0200000000000031 13 0 13 C-2.4581162527972644 9.312825620804105 -2.311181639946504 7.356542959251044 -2 3 C-1.3400000000000034 2.010000000000005 -0.6799999999999997 1.019999999999996 0 0 Z " fill="none" transform="translate(34,111)"/>
<path stroke="#f87171" stroke-width="1.5" stroke-linecap="round" d="M0 0 C0.3299999999999983 3.3000000000000007 0.6599999999999966 6.600000000000001 1 10 C-1.565459404224086 7.4345405957759105 -1.5404608707689817 5.523133324104439 -2 2 C-4.310000000000002 2.66 -6.6200000000000045 3.3200000000000003 -9 4 C-9.329999999999998 3.34 -9.659999999999997 2.6799999999999997 -10 2 C-3.375 0 -3.375 0 0 0 Z " fill="none" transform="translate(104,24)"/>
<path stroke="#f87171" stroke-width="1.5" stroke-linecap="round" d="M0 0 C0.9899999999999949 0 1.980000000000004 0 3 0 C3 4.290000000000006 3 8.579999999999998 3 13 C1.2631546686840522 9.526309337368104 0.6991588787647487 7.923800626000542 0.375 4.25 C0.3002343750000023 3.4507812500000057 0.22546875000000455 2.651562499999997 0.1484375 1.828125 C0.09945312499999659 1.2248437500000051 0.05046874999999318 0.621562499999996 0 0 Z " fill="none" transform="translate(120,96)"/>
<path stroke="#f87171" stroke-width="1.5" stroke-linecap="round" d="M0 0 C0 3 0 3 -1.96875 5.26171875 C-2.8040624999999864 6.062226562500001 -3.639375000000001 6.862734375000002 -4.5 7.6875 C-5.335312499999986 8.4957421875 -6.170625000000001 9.303984374999999 -7.03125 10.13671875 C-7.680937499999999 10.7516015625 -8.330624999999998 11.366484374999999 -9 12 C-9.659999999999997 11.670000000000002 -10.319999999999993 11.340000000000003 -11 11 C-9.921736350924448 9.724862370053913 -8.83714481265983 8.455074308878594 -7.75 7.1875 C-7.146718749999991 6.479804687500007 -6.54343750000001 5.772109374999999 -5.921875 5.04296875 C-4.076296018124992 3.0811032875596993 -2.200546677875508 1.543303754173749 0 0 Z " fill="none" transform="translate(143,103)"/>
<path stroke="#f87171" stroke-width="1.5" stroke-linecap="round" d="M0 0 C3.851033010415861 0.5367590257880437 5.317975870231379 2.116009227395722 7.75 5.0625 C8.363593750000007 5.795976562500002 8.9771875 6.529453125000003 9.609375 7.28515625 C10.068281249999998 7.851054687499996 10.527187499999997 8.416953124999992 11 9 C10.670000000000002 9.659999999999997 10.340000000000003 10.319999999999993 10 11 C8.330354794228157 9.357188377892342 6.6643536036721684 7.7106723880809085 5 6.0625 C4.071875000000006 5.145976562499996 3.143749999999997 4.229453125000006 2.1875 3.28515625 C0 1 0 1 0 0 Z " fill="none" transform="translate(105,103)"/>
<path stroke="#f87171" stroke-width="1.5" stroke-linecap="round" d="M0 0 C0.3300000000000125 1.3199999999999932 0.6599999999999966 2.6399999999999864 1 4 C1.6599999999999966 4 2.319999999999993 4 3 4 C2.6699999999999875 6.639999999999986 2.3400000000000034 9.280000000000001 2 12 C1.009999999999991 11.669999999999987 0.020000000000010232 11.340000000000003 -1 11 C-0.6699999999999875 7.3700000000000045 -0.3400000000000034 3.740000000000009 0 0 Z " fill="none" transform="translate(214,135)"/>
<path stroke="#f87171" stroke-width="1.5" stroke-linecap="round" d="M0 0 C-0.3300000000000125 0.6599999999999966 -0.6599999999999966 1.3199999999999932 -1 2 C-4.0625 2.625 -4.0625 2.625 -7 3 C-7 2.3400000000000034 -7 1.6800000000000068 -7 1 C-8.319999999999993 0.6699999999999875 -9.639999999999986 0.3400000000000034 -11 0 C-3.375 -1.125 -3.375 -1.125 0 0 Z " fill="none" transform="translate(146,214)"/>
<path stroke="#f87171" stroke-width="1.5" stroke-linecap="round" d="M0 0 C3.6875475725140063 0.49831723952891593 5.604906616969544 1.1006764310683792 8 4 C7.340000000000003 4.659999999999997 6.680000000000007 5.319999999999993 6 6 C3.961665755602098 4.726041097251311 1.9614787390972879 3.389380773527236 0 2 C0 1.3400000000000034 0 0.6800000000000068 0 0 Z " fill="none" transform="translate(136,96)"/>
<path stroke="#f87171" stroke-width="1.5" stroke-linecap="round" d="M0 0 C0.3299999999999983 0 0.6599999999999966 0 1 0 C0.6700000000000017 2.969999999999999 0.3400000000000034 5.939999999999998 0 9 C-0.6599999999999966 9 -1.3200000000000003 9 -2 9 C-2.25 3.375 -2.25 3.375 0 0 Z " fill="none" transform="translate(36,101)"/>

  </g>
</svg>