<?xml version="1.0" encoding="UTF-8"?>
<svg width="100" height="100" viewBox="0 0 100 100" fill="none" xmlns="http://www.w3.org/2000/svg">
  <g transform="translate(25, 25) scale(0.09765625)">
    
<path stroke="#f472b6" stroke-width="1.5" stroke-linecap="round" d="M0 0 C6.147838469628255 5.840446546146848 7.9894166627125855 12.319324338518577 10.328125 20.296875 C10.857174377441424 22.056112976074218 10.857174377441424 22.056112976074218 11.39691162109375 23.85089111328125 C12.524050611040082 27.606177420029233 13.637383023266523 31.365388487650982 14.75 35.125 C15.84691555051728 38.79692359141739 16.946651789976045 42.4679946391035 18.0465087890625 46.1390380859375 C18.776000926060988 48.57786792919974 19.503133239597958 51.01740487507607 20.2279052734375 53.4576416015625 C22.039168929109337 59.54829798600399 23.882190305874758 65.62591886840943 25.794921875 71.685546875 C26.346690979003938 73.44140106201172 26.346690979003938 73.44140106201172 26.90960693359375 75.23272705078125 C27.603574546117557 77.43317464265287 28.304156856558507 79.63155208841926 29.01275634765625 81.82733154296875 C33.493376513338944 96.06374495553703 33.493376513338944 96.06374495553703 31.375 103.125 C24.921330175837852 114.31136102854771 11.711918163976861 116.01722215413427 0.08203125 119.5859375 C-1.2278561020160623 119.99001970286496 -2.5376735797705123 120.39432847005598 -3.8474273681640625 120.79884338378906 C-7.385298270597218 121.8906638276382 -10.924264799031903 122.9788910369393 -14.463485717773438 124.06632614135742 C-17.475173654208334 124.99213508466528 -20.4862307250977 125.9199869917379 -23.4973087310791 126.84777736663818 C-53.28196741637362 136.02448344931324 -83.08842475154512 145.13011694489046 -112.89826965332031 154.224609375 C-123.43815916005559 157.4401870573406 -133.97722145487808 160.65846200349668 -144.515625 163.87890625 C-145.25909242630007 164.1061009979248 -146.0025598526001 164.3332957458496 -146.76855659484863 164.56737518310547 C-150.520044111841 165.7137987736478 -154.27151662034316 166.86027146665415 -158.02297973632813 168.00677490234375 C-165.4254088596498 170.26905947949254 -172.82793343248426 172.53103168485103 -180.23046875 174.79296875 C-180.96460935592654 175.01729835510253 -181.69874996185303 175.24162796020508 -182.45513725280762 175.4727554321289 C-192.89334284537352 178.66230946212275 -203.33184643093034 181.850886794488 -213.77053833007813 185.03884887695313 C-219.67649882515903 186.84252551556665 -225.58238423996448 188.64644793636626 -231.4882526397705 190.45042610168457 C-236.32018459374444 191.92633935384555 -241.15221791997058 193.4019201172824 -245.98432636260986 194.8772554397583 C-248.95565490470412 195.7845452465455 -251.9268871579291 196.692150052322 -254.89809226989746 197.59984397888184 C-256.27852487468 198.02148988437153 -257.6589981885729 198.4430025374742 -259.039514541626 198.8643741607666 C-260.92399238248953 199.43958704004768 -262.8083139178683 200.01531192437815 -264.692626953125 200.591064453125 C-265.7478706359863 200.91331497192382 -266.80311431884763 201.23556549072265 -267.8903350830078 201.5675811767578 C-269.76710974676905 202.1482469858577 -271.63626441565486 202.75375480521828 -273.5 203.375 C-272.8467074483633 203.37559708833695 -272.1934148967266 203.3761941766739 -271.5203256011009 203.3768093585968 C-232.8071507649108 203.41269761442967 -194.09405602883592 203.4693278086446 -155.38095351681113 203.5529209524393 C-150.73338013457646 203.56293849641895 -146.0858064000958 203.57278261141659 -141.438232421875 203.58251953125 C-140.5129780156165 203.58446090430022 -139.58772360935808 203.58640227735043 -138.63443119078875 203.588402479887 C-123.64975540950468 203.61942973969406 -108.66509494611267 203.63640515796874 -93.68039309233427 203.64819422364235 C-78.30649684453897 203.66060201817544 -62.93268103698426 203.6880950235841 -47.558835566043854 203.7296130657196 C-38.071133381060406 203.75475910566166 -28.58356458317047 203.76811647278066 -19.095828600227833 203.7664295732975 C-12.591114214176685 203.76639983438494 -6.086535777309166 203.78101332393936 0.4181256368756294 203.80716428160667 C4.171896751989095 203.82182258898203 7.92538907068365 203.83000274400146 11.679183959960938 203.82080268859863 C15.749528306368518 203.81099558577117 19.81913440243767 203.8320125151999 23.889419555664063 203.85601806640625 C25.075223637223246 203.84825764894487 26.26102771878243 203.84049723148345 27.48276525735855 203.83250164985657 C34.04924044715182 203.90122628069759 38.17980134988386 204.41737788612613 43.5 208.375 C47.16439851764335 212.3286931374573 48.62165895924193 215.31282303084137 48.63422107696533 220.6746425628662 C48.63867892086506 221.5573810994625 48.64313676476479 222.4401196360588 48.64772969484329 223.34960782527924 C48.647453151047216 224.8056500047445 48.647453151047216 224.8056500047445 48.64717102050781 226.29110717773438 C48.65084770858289 227.32172039628028 48.65452439665796 228.3523336148262 48.65831249952316 229.41417753696442 C48.66936877996096 232.88468453169133 48.673196540143294 236.35516160472903 48.677001953125 239.82568359375 C48.683265314567166 242.30746557223367 48.68991199975807 244.78924660879113 48.69691467285156 247.27102661132813 C48.716159345782046 254.73301216191095 48.72674751163032 262.1949897662347 48.735642462968826 269.65699285268784 C48.74002732802245 273.17388302315425 48.745393807353196 276.6907716910501 48.75063133239746 280.2076606750488 C48.7676473206194 291.9052034988535 48.782138686361634 303.60274538982225 48.78938007354736 315.3002986907959 C48.79128988601491 318.33610408746637 48.79321022428638 321.37190947631626 48.795166015625 324.40771484375 C48.79564975582065 325.1622244556248 48.79613349601624 325.91673406749965 48.7966318950057 326.694107607007 C48.80492158864263 338.90045008254174 48.8302388449186 351.1066942190227 48.86274669319391 363.3129938095808 C48.89587547192701 375.85516115465043 48.913834275489194 388.39727865080084 48.917024314403534 400.93948996067047 C48.91918456616429 407.9772021743691 48.927861264892044 415.0147711952944 48.9534854888916 422.05244064331055 C48.97755916428724 428.6795181636582 48.98098170674001 435.3063852583749 48.97072410583496 441.9335136413574 C48.970229639567606 444.35980078003763 48.976523572129736 446.78610074780875 48.99028015136719 449.2123489379883 C49.089268649413725 467.7134461143137 48.057189378729106 483.570532339218 34.625 497.6875 C23.080166200168662 508.51350452550224 10.183026842500794 510.9829207138787 -5.2573394775390625 510.8829345703125 C-6.8231617384221295 510.88755181549107 -8.388979654090633 510.89391023217263 -9.954788625240326 510.90184354782104 C-14.227755884857004 510.91844686122124 -18.500362977197142 510.9103318321488 -22.77333104610443 510.89789867401123 C-27.3930296620116 510.8888134843976 -32.012668220841306 510.9028350000809 -36.632354736328125 510.913818359375 C-45.670276060847584 510.9315708310478 -54.708064237345184 510.9277783217177 -63.745990701019764 510.9161677956581 C-71.09306613672004 510.9071214117223 -78.44010435009193 510.905914684311 -85.78718376159668 510.91026306152344 C-86.83424384068695 510.91087599366904 -87.88130391977728 510.91148892581464 -88.96009309217334 510.9121204316616 C-91.0873946506527 510.91339937565647 -93.21469619843822 510.91469622961097 -95.34199773520231 510.9160107970238 C-115.27224818345434 510.9274068656762 -135.20242494076098 510.9143178692366 -155.13266330212355 510.8928093314171 C-172.22283780493387 510.87493662564145 -189.31290362587856 510.8780457859018 -206.403076171875 510.896484375 C-226.265262496305 510.91790375542257 -246.12738431050565 510.92631107424825 -265.98958057165146 510.914035320282 C-268.1085977056989 510.9127611654162 -270.2276148498378 510.91150368167564 -272.3466320037842 510.91026306152344 C-273.38914210934195 510.90964595943694 -274.43165221489966 510.90902885735034 -275.50575353577733 510.9083930552006 C-282.84201740177804 510.9049435601945 -290.1782402449658 510.9107598144876 -297.514497756958 510.92018127441406 C-306.45771533828326 510.93141437094744 -315.400792532991 510.9283335115098 -324.34399408847094 510.9070582985878 C-328.90439384965725 510.8965659615052 -333.46455977177357 510.892395053257 -338.02495765686035 510.90565490722656 C-342.20408948452416 510.91762219413283 -346.38277191955063 510.91094530482053 -350.56186329573393 510.8897446990013 C-352.06908828052633 510.88529696470994 -353.57635166397995 510.88750355185573 -355.08355171233416 510.8972478508949 C-369.0538790995322 510.9806010949869 -381.33417746786967 507.7744508381764 -391.9140625 498.1875 C-402.6831813912245 486.9501585482875 -406.8934525459556 474.52538310725095 -406.66407775878906 459.2477722167969 C-406.6547744336724 457.77536518275735 -406.6547744336724 457.77536518275735 -406.64528316259384 456.2732125520706 C-406.6225871713069 453.00214430810007 -406.5856339283081 449.7313894667335 -406.549072265625 446.46044921875 C-406.5305236225132 444.10505000525035 -406.5131179027055 441.7496415564979 -406.49676513671875 439.39422607421875 C-406.4608444832118 434.32141988013825 -406.4202377201534 429.2486792389027 -406.377046585083 424.17593002319336 C-406.3117471868052 416.0949635939412 -406.2779812749191 408.0140713562452 -406.25291442871094 399.9328918457031 C-406.24964125495404 398.90758994437755 -406.24964125495404 398.90758994437755 -406.2463019564748 397.8615748733282 C-406.2329044331614 393.6567819437392 -406.2201467984154 389.45198724567433 -406.2075618952513 385.2471918165684 C-406.1881105884983 378.75153963057613 -406.16779442404567 372.25589285562296 -406.144287109375 365.76025390625 C-406.14038761097936 364.677020092234 -406.14038761097936 364.677020092234 -406.1364093348384 363.57190276682377 C-406.093064443905 351.99521968341236 -405.9955033784233 340.419587091642 -405.87847889214754 328.84344302117825 C-405.7588587185658 316.86352184215514 -405.70760249736526 304.8845245076686 -405.7128033041954 292.9040070772171 C-405.7137686849247 286.21579988673454 -405.6846193646319 279.5312871720354 -405.57852363586426 272.84365463256836 C-405.03031124212424 236.71977452472086 -410.16040443990704 206.45191219970525 -422.35775566101074 172.43454360961914 C-424.54540118482595 166.30159039052762 -426.5976624296757 160.1343141650702 -428.55152893066406 153.92306518554688 C-428.8513649743795 153.00688954472542 -429.15120101809504 152.09071390390397 -429.46012300252914 151.1467753648758 C-431.4591033379941 144.67526473042258 -433.26828803494976 137.45152483337947 -430.4630919098854 130.98456275463104 C-426.9388659230166 124.71447542424076 -422.252201791996 122.41659043190785 -415.465576171875 120.364013671875 C-414.2539530944824 119.99390670776367 -413.04233001708985 119.62379974365234 -411.7939910888672 119.24247741699219 C-410.4603495415376 118.8425325864314 -409.1266743151634 118.44270004688335 -407.79296875 118.04296875 C-406.3845261671309 117.61537551641743 -404.97627165052563 117.18716239688307 -403.5681915283203 116.75837707519531 C-400.5380859784835 115.8370388200274 -397.5067451955899 114.91992796149434 -394.474365234375 114.006103515625 C-389.6182506477768 112.542633980901 -384.7649769544211 111.0698984199314 -379.912109375 109.595703125 C-373.99113328556484 107.79765940724751 -368.0695238694317 106.00173172035687 -362.147066116333 104.20857429504395 C-351.839578083358 101.08750651922662 -341.53715040664565 97.95016609360576 -331.23828125 94.80078125 C-330.1362338352203 94.46378739356994 -330.1362338352203 94.46378739356994 -329.0119228363037 94.11998558044434 C-325.3187109224392 92.99053870803421 -321.6255960900986 91.86077479515761 -317.9325256347656 90.73086547851563 C-311.2069775224061 88.67332726199928 -304.4805581872881 86.6186401150917 -297.75421714782715 84.56369590759277 C-294.0027769673072 83.41757673163251 -290.25139119643154 82.27127949463883 -286.5 81.125 C-285.00000026158943 80.66666581055667 -283.5000002615742 80.20833247727151 -282 79.75 C-281.2575 79.523125 -280.515 79.29625 -279.75 79.0625 C-253.50000000000006 71.04166666666669 -227.25 63.02083333333333 -201 55 C-200.25749181747437 54.773122482299804 -199.51498363494872 54.54624496459961 -198.74997520446777 54.31249237060547 C-197.25005789572634 53.8541843393653 -195.7501405475039 53.395876437335666 -194.25022315979004 52.93756866455078 C-190.49895765968915 51.791349269009615 -186.747692846799 50.64512762451168 -182.99642944335938 49.4989013671875 C-176.26154172903102 47.44100902580207 -169.52664936695828 45.383131902522194 -162.7917308807373 43.325340270996094 C-159.06167131499257 42.185654768666105 -155.33161583696858 41.04595588818623 -151.6015625 39.90625 C-150.49255018234248 39.567395248413085 -150.49255018234248 39.567395248413085 -149.36113357543945 39.22169494628906 C-140.93432003312188 36.64688898893067 -132.50760074407845 34.07177497976649 -124.0810546875 31.49609375 C-123.29802474975588 31.256758022308347 -122.51499481201171 31.0174222946167 -121.70823669433594 30.77083396911621 C-117.75966083148273 29.563921181261673 -113.81112784905139 28.356868409868397 -109.8626708984375 27.149566650390625 C-102.17739730668245 24.79987960812895 -94.49139391234291 22.452632722955762 -86.8037109375 20.11083984375 C-83.87166855459441 19.2173723535595 -80.93970982237664 18.323630883889056 -78.0078125 17.4296875 C-77.29718154907226 17.21304821014404 -76.58655059814453 16.996408920288086 -75.85438537597656 16.773204803466797 C-67.41609228869055 14.19944056330354 -58.98732282603015 11.598461551653019 -50.572052001953125 8.95013427734375 C-46.27722699001953 7.598876102557945 -41.97899716359973 6.258651407577349 -37.68048095703125 4.919189453125 C-34.86415823756346 4.035807449184721 -32.053999067625625 3.134594927999421 -29.24365234375 2.232421875 C-8.952269731865442 -4.156410946937509 -8.952269731865442 -4.156410946937509 0 0 Z M-28.5244140625 36.824462890625 C-29.551091918945303 37.14222183227539 -30.577769775390607 37.45998077392578 -31.63555908203125 37.78736877441406 C-32.750980834960956 38.13726364135742 -33.866402587890605 38.48715850830078 -35.015625 38.84765625 C-36.75860870361328 39.38875282287598 -36.75860870361328 39.38875282287598 -38.53680419921875 39.94078063964844 C-42.27578387495089 41.102385841527095 -46.012933229183375 42.269756942151716 -49.75 43.4375 C-53.40342080253538 44.57510516433901 -57.05721368213841 45.7115087971807 -60.7110595703125 46.847747802734375 C-63.116404818931244 47.59581090564464 -65.52159774800111 48.34436396286628 -67.9266357421875 49.093414306640625 C-79.102397814168 52.57128469514857 -90.29713319710675 55.985571967118894 -101.5 59.375 C-101.83914766946856 62.34036302600681 -101.83914766946856 62.34036302600681 -100.145751953125 63.842041015625 C-99.51628662109374 64.34920654296874 -98.88682128906248 64.8563720703125 -98.23828125 65.37890625 C-97.53823974609372 65.94939697265625 -96.8381982421875 66.5198876953125 -96.116943359375 67.107666015625 C-95.35647705078122 67.71151123046874 -94.5960107421875 68.3153564453125 -93.8125 68.9375 C-93.03592041015622 69.56519287109376 -92.2593408203125 70.1928857421875 -91.459228515625 70.839599609375 C-85.98775775101706 75.24390562038798 -80.44102606441766 79.54328103574956 -74.83984375 83.78125 C-72.27926086661296 85.74168407591227 -69.79218467947817 87.77732572681342 -67.31640625 89.84375 C-66.59976806640623 90.43921630859376 -65.88312988281251 91.0346826171875 -65.144775390625 91.648193359375 C-63.745430197629275 92.81561520564316 -62.352347913019685 93.99059752607647 -60.966552734375 95.174072265625 C-60.32790283203127 95.70572998046876 -59.689252929687484 96.23738769531249 -59.03125 96.78515625 C-58.469863281250014 97.26090087890626 -57.90847656250003 97.7366455078125 -57.330078125 98.226806640625 C-54.288205012546484 100.13528172705361 -51.98651639991135 100.67286149198826 -48.411407470703125 99.95649719238281 C-45.81007728869287 99.25530004697265 -43.2453190234815 98.47405629966295 -40.67578125 97.6640625 C-39.733169403076204 97.37647064208984 -38.79055755615235 97.08887878417968 -37.81938171386719 96.79257202148438 C-34.81366723430142 95.87244740207107 -31.813228637156442 94.93624079205266 -28.8125 94 C-26.78091031983695 93.37658858854552 -24.74901231969079 92.75418099198923 -22.716796875 92.1328125 C-19.007688693076148 90.99365769960012 -15.299093508312524 89.85302734934456 -11.594970703125 88.69775390625 C-10.850602569580076 88.46601470947266 -10.106234436035152 88.23427551269532 -9.339309692382813 87.99551391601563 C-7.436246631230404 87.40055459832445 -7.436246631230404 87.40055459832445 -5.5 86.375 C-6.712091682526193 79.75133151821575 -8.273431089008284 73.36135274337903 -10.28515625 66.9375 C-10.54630722045897 66.0907470703125 -10.807458190917941 65.243994140625 -11.076522827148438 64.37158203125 C-11.622994533795463 62.60295962777745 -12.171808581026937 60.83505935469579 -12.722900390625 59.06787109375 C-13.568595749722476 56.35544893299239 -14.40695272786229 53.640839986150624 -15.244140625 50.92578125 C-15.778225775234091 49.200390750619725 -16.312716160876107 47.475125625599595 -16.84765625 45.75 C-17.09870620727537 44.93861572265625 -17.349756164550797 44.1272314453125 -17.608413696289063 43.291259765625 C-18.841030694272263 39.25050930226922 -18.841030694272263 39.25050930226922 -20.5 35.375 C-23.573843305721198 35.375 -25.604093450433368 35.914078154384285 -28.5244140625 36.824462890625 Z M-149.587890625 73.84033203125 C-150.62747924804688 74.16131866455078 -151.66706787109376 74.48230529785157 -152.7381591796875 74.81301879882813 C-153.86612915039063 75.16605072021484 -154.99409912109377 75.51908264160156 -156.15625 75.8828125 C-157.32772583007812 76.24591522216797 -158.49920166015625 76.60901794433593 -159.7061767578125 76.98312377929688 C-162.83655019083335 77.95431198817337 -165.96573973036135 78.92920138639239 -169.09442138671875 79.90582275390625 C-172.20386146210774 80.87537527092722 -175.31491733011154 81.83971503456851 -178.42578125 82.8046875 C-191.79615794629723 86.95588765585697 -205.15521418232987 91.14226530334271 -218.5 95.375 C-215.76047243468616 98.15586233114684 -213.04122038216676 100.8663002399274 -210.00390625 103.3203125 C-209.3701708984375 103.8341650390625 -208.736435546875 104.348017578125 -208.08349609375 104.87744140625 C-207.08310302734375 105.68060791015625 -207.08310302734375 105.68060791015625 -206.0625 106.5 C-205.3594775390625 107.0676708984375 -204.656455078125 107.635341796875 -203.93212890625 108.22021484375 C-198.87471265979673 112.29459225174756 -193.80079146758027 116.34988709698669 -188.663818359375 120.32373046875 C-185.6443921649692 122.66187896751495 -182.69232112665475 125.04837245492473 -179.796875 127.5390625 C-179.18215332031252 128.0551708984375 -178.567431640625 128.571279296875 -177.93408203125 129.10302734375 C-176.7633948051772 130.08792129345824 -175.60686112356183 131.08999642757271 -174.46826171875 132.11181640625 C-171.32725103866926 134.7177832857975 -169.8576579874275 135.39898320581267 -165.7374267578125 135.12269592285156 C-161.8323558767393 134.51420258570863 -158.1250228537653 133.51003510555745 -154.349609375 132.333740234375 C-153.68519836425781 132.1287692260742 -153.02078735351563 131.92379821777342 -152.33624267578125 131.71261596679688 C-150.1700471327561 131.04263032433192 -148.00693765099254 130.36322159237574 -145.84375 129.68359375 C-144.3307897589263 129.2136093686284 -142.81764371020972 128.74422275577226 -141.3043212890625 128.27540588378906 C-137.34383211705438 127.04672944649332 -133.38590153382063 125.81000666371165 -129.428466796875 124.571533203125 C-125.3809222371587 123.3064466407285 -121.33098579306977 122.04906624780568 -117.28125 120.791015625 C-109.3518191239944 118.32650313429959 -101.42507728067102 115.85347635268101 -93.5 113.375 C-93.16206576417312 110.43610860834048 -93.16206576417312 110.43610860834048 -94.74658203125 109.015625 C-95.32778808593753 108.55671875 -95.908994140625 108.0978125 -96.5078125 107.625 C-97.1576611328125 107.1047021484375 -97.80750976562501 106.584404296875 -98.47705078125 106.04833984375 C-99.18587402343752 105.4961376953125 -99.89469726562498 104.943935546875 -100.625 104.375 C-101.3505810546875 103.7983056640625 -102.07616210937499 103.221611328125 -102.82373046875 102.62744140625 C-105.04222944677298 100.8676418897681 -107.27024538034414 99.12050485288708 -109.5 97.375 C-110.72964955027231 96.40425719417539 -111.95885001971754 95.43294513242739 -113.1875 94.4609375 C-116.03068453782709 92.21581315179458 -118.88297956048109 89.98261321507056 -121.73828125 87.7529296875 C-123.60954998167006 86.28931539682017 -125.47708577135506 84.8210441488075 -127.34375 83.3515625 C-127.97651855468752 82.8535009765625 -128.60928710937503 82.355439453125 -129.26123046875 81.84228515625 C-130.46874940793282 80.89164475482367 -131.67611589694553 79.94081066380605 -132.88330078125 78.98974609375 C-134.4195707248507 77.78147952353972 -135.9596289463911 76.57803385717213 -137.5 75.375 C-138.229609375 74.776875 -138.95921875 74.17875 -139.7109375 73.5625 C-143.04582945102095 71.34894726395115 -146.03797171920348 72.73657145559696 -149.587890625 73.84033203125 Z M-265.17529296875 109.36279296875 C-266.22166931152344 109.67984191894531 -266.22166931152344 109.67984191894531 -267.2891845703125 110.0032958984375 C-269.60735200072884 110.7062921999535 -271.92482829410966 111.41153180229901 -274.2421875 112.1171875 C-275.42671194076536 112.47751760482788 -275.42671194076536 112.47751760482788 -276.6351661682129 112.84512710571289 C-280.8147263538531 114.11665010542535 -284.99375222207584 115.38991229223963 -289.17236328125 116.66455078125 C-293.49441775728803 117.98257228061505 -297.8182458287868 119.2946724931919 -302.1425151824951 120.60540580749512 C-305.4617639225242 121.61268320821571 -308.77965989340544 122.62435975050658 -312.0972023010254 123.63724136352539 C-313.6907144854612 124.12291370210693 -315.28473635832864 124.60691694113562 -316.87926864624023 125.08922958374023 C-319.1096012051604 125.76430848284532 -321.33794855133783 126.44558707513494 -323.56591796875 127.12841796875 C-324.22681427001953 127.32694366455078 -324.88771057128906 127.52546936035156 -325.5686340332031 127.73001098632813 C-328.6031319310948 128.6668473007049 -330.8285305280024 129.59402035200156 -333.5 131.375 C-326.73415788149634 137.6217695750206 -319.60272279651366 143.30695917433084 -312.3349609375 148.947265625 C-310.5332987748801 150.34909110757067 -308.73806713127476 151.75868091254958 -306.9453125 153.171875 C-306.35709716796873 153.63553466796876 -305.76888183593746 154.0991943359375 -305.162841796875 154.576904296875 C-304.5934790039063 155.02590087890624 -304.0241162109375 155.47489746093748 -303.4375 155.9375 C-301.83404514643235 157.20125697790644 -300.2275706415743 158.4620906299577 -298.587158203125 159.677490234375 C-296.5 161.375 -296.5 161.375 -293.824951171875 164.105712890625 C-288.44365261037916 169.3825278508664 -288.44365261037916 169.3825278508664 -281.4383850097656 171.48251342773438 C-275.68801596568187 170.81159222970615 -270.33409342842293 168.6866902055169 -264.9375 166.6875 C-263.194901148059 166.09475087019896 -261.45005549213124 165.50856966626768 -259.703125 164.9287109375 C-256.09887982684813 163.72540096832532 -252.50732647179328 162.49162635010723 -248.92138671875 161.23486328125 C-241.15366040183443 158.53683585244437 -233.27752249439624 156.2007737084952 -225.40066528320313 153.84555053710938 C-221.58488182987122 152.70025767348997 -217.7768810987464 151.52981141519408 -213.96875 150.359375 C-212.71513671875 149.974912109375 -211.4615234375 149.59044921875 -210.169921875 149.1943359375 C-209.28884765625 148.923955078125 -208.4077734375 148.65357421875 -207.5 148.375 C-207.5 147.715 -207.5 147.055 -207.5 146.375 C-209.29964969924666 144.85577516827294 -211.10480338042998 143.4544260495009 -213 142.0625 C-218.2390094453823 138.128690738981 -223.3689062156611 134.08856192445978 -228.4375 129.9375 C-233.61447263492494 125.70950392178418 -238.8108905441635 121.51006387932782 -244.0625 117.375 C-244.60962646484376 116.94260009765625 -245.1567529296875 116.5102001953125 -245.720458984375 116.064697265625 C-254.48698797406738 108.53930262448938 -254.48698797406738 108.53930262448938 -265.17529296875 109.36279296875 Z M-378.19140625 143.90625 C-379.13564453125 144.2220703125 -380.0798828125 144.537890625 -381.052734375 144.86328125 C-382.04595703125 145.1971484375 -383.0391796875 145.531015625 -384.0625 145.875 C-385.558134765625 146.37580078125 -385.558134765625 146.37580078125 -387.083984375 146.88671875 C-389.5564394871155 147.7148137636272 -392.02841872147525 148.54430124823432 -394.5 149.375 C-391.25752648088337 161.00975792153622 -387.88439939065694 172.6045705167381 -384.3512878417969 184.15444946289063 C-383.95010697777917 185.46920607713648 -383.5516111065234 186.78478495182975 -383.1557922363281 188.10116577148438 C-382.5958406785967 189.96037603702072 -382.0247216213705 191.81621181371875 -381.453125 193.671875 C-381.124736328125 194.747919921875 -380.79634765624996 195.82396484375 -380.4580078125 196.9326171875 C-379.7550096701726 199.52639521026387 -379.7550096701726 199.52639521026387 -377.5 200.375 C-375.04908619850016 199.85540035189715 -375.04908619850016 199.85540035189715 -372.22412109375 198.927978515625 C-371.12313079833984 198.587550201416 -370.0221405029297 198.24712188720702 -368.8877868652344 197.89637756347656 C-367.695051574707 197.5193620300293 -366.5023162841797 197.14234649658204 -365.2734375 196.75390625 C-364.0554849243164 196.37515853881837 -362.8375323486328 195.9964108276367 -361.5826721191406 195.60618591308594 C-358.34233777594454 194.59708763297644 -355.1041319675084 193.58164289142945 -351.86676025390625 192.5631103515625 C-348.5638768893618 191.52567724744762 -345.2583984971084 190.496584099267 -341.953125 189.466796875 C-335.4663213796947 187.44390519573932 -328.98219407121513 185.41261108593477 -322.5 183.375 C-325.3229884164375 180.5091191949076 -328.14400642064265 177.73299952146607 -331.25 175.17578125 C-331.9340087890625 174.6116552734375 -332.618017578125 174.04752929687498 -333.32275390625 173.46630859375 C-334.0412451171875 172.8793017578125 -334.759736328125 172.292294921875 -335.5 171.6875 C-336.2532958984375 171.0695556640625 -337.006591796875 170.451611328125 -337.78271484375 169.81494140625 C-343.181401647435 165.40511731157156 -348.65959447873706 161.12245988956676 -354.2109375 156.90625 C-358.7937778333931 153.40755287086233 -363.2664109714691 149.76818259787171 -367.74072265625 146.13232421875 C-372.54856939925685 142.2277516163781 -372.54856939925685 142.2277516163781 -378.19140625 143.90625 Z M-373.5 237.375 C-373.5825 274.83 -373.66499999999996 312.28499999999997 -373.75 350.875 C-373.78641601562504 362.70537109375 -373.82283203125 374.5357421875 -373.8603515625 386.724609375 C-373.8737285679734 397.32110362714883 -373.8737285679734 397.32110362714883 -373.88177490234375 407.9176025390625 C-373.88550437695187 412.64066062382244 -373.9005056506653 417.36353921445163 -373.92230224609375 422.0865478515625 C-373.94973815294134 428.1113215354169 -373.95796472812435 434.1358341985195 -373.95228910446167 440.16066455841064 C-373.9534759154766 442.3715857575796 -373.9614081861171 444.5825160801952 -373.9768605232239 446.79338359832764 C-373.9967758567818 449.7816526460765 -373.9919540607374 452.768909532762 -373.98101806640625 455.7572021484375 C-373.9926687240601 456.62078590393065 -374.00431938171386 457.4843696594238 -374.0163230895996 458.3741226196289 C-373.95985702996313 464.12030736312533 -372.809970417754 468.6052399702363 -369.5 473.375 C-364.0059107310748 477.93392513804434 -359.2535295664513 478.4984339907618 -352.3032646179199 478.5064277648926 C-351.04832065343857 478.51026890993114 -349.7933766889572 478.5141100549698 -348.5004041194916 478.5180675983429 C-347.11035643322396 478.5172874056516 -345.7203087995184 478.51640863012653 -344.33026123046875 478.51544189453125 C-342.8515560703577 478.5180262932563 -341.37285160810103 478.5210396628644 -339.8941481113434 478.52444529533386 C-335.8296518712972 478.5325096816184 -331.76517329697833 478.5343045537087 -327.700670003891 478.53504276275635 C-323.3174452333149 478.5368942780624 -318.93422960988056 478.5444420804944 -314.55101013183594 478.5511779785156 C-304.9662981096885 478.5647575217907 -295.3815902725957 478.57078534107933 -285.7968702316284 478.5751886367798 C-279.81215259638606 478.5779515212402 -273.8274365756967 478.58218894402165 -267.8427200317383 478.5866928100586 C-251.2725776817852 478.59888464621224 -234.70243662488625 478.60918434824185 -218.1322898864746 478.6125679016113 C-217.07185711041092 478.61278746768835 -216.01142433434725 478.6130070337653 -214.91885723173618 478.6132332533598 C-213.8558905379474 478.61345153108243 -212.79292384415865 478.61366980880496 -211.6977460384369 478.613894701004 C-209.54377730623577 478.6143381669474 -207.38980857467016 478.61478473030854 -205.23583984375 478.615234375 C-203.63317624136806 478.6155665196478 -203.63317624136806 478.6155665196478 -201.99813559651375 478.61590537428856 C-184.68392300286473 478.6198537502826 -167.36975248652277 478.6373093678842 -150.05555614829063 478.66059389710426 C-132.27912764572181 478.6843070999564 -114.50272025897573 478.6967697271641 -96.72627568244934 478.69793581962585 C-86.7455206434501 478.69885256090015 -76.76482044015683 478.7046047358791 -66.7840805053711 478.7227554321289 C-58.285697296245644 478.7381559329584 -49.78738587232118 478.7432771435767 -41.28899136185646 478.7350173294544 C-36.95371709460318 478.73111074831365 -32.61858739452265 478.73204084813926 -28.2833309173584 478.7460746765137 C-24.311967379937016 478.7588128922562 -20.340857055612275 478.7576168424873 -16.36949387192726 478.7454839646816 C-14.935439124782988 478.74352683726863 -13.50136644469086 478.74660616190056 -12.0673368871212 478.7553283274174 C0.28775779249343714 479.11336526201364 0.28775779249343714 479.11336526201364 11.110634088516235 473.95846676826477 C15.724042413527457 468.7005439196397 15.642236678313395 463.9773293489385 15.620254516601563 457.3205108642578 C15.621110534667991 456.385079498291 15.621966552734364 455.4496481323242 15.622848510742188 454.4858703613281 C15.624509270072679 451.32820760810944 15.61897102257484 448.17059739401134 15.613525390625 445.012939453125 C15.613219198161914 442.71975550783066 15.613352303647673 440.42657146815856 15.613890647888184 438.1333875656128 C15.614116922059509 431.97803399609336 15.608310244768575 425.82269976543324 15.601280212402344 419.66735076904297 C15.595596140290297 413.89684486149497 15.595317683505698 408.12634371911497 15.5946044921875 402.3558349609375 C15.589351782996516 385.4663874004254 15.575390702050981 368.5769434579723 15.5625 351.6875 C15.541875000000005 313.964375 15.521250000000009 276.24125 15.5 237.375 C-112.87 237.375 -241.24 237.375 -373.5 237.375 Z " fill="none" transform="translate(447.5,1.625)"/>
<path stroke="#f472b6" stroke-width="1.5" stroke-linecap="round" d="M0 0 C6.30765924405182 3.2876643270790282 12.467136048878416 6.780611170735256 18.587646484375 10.404052734375 C27.593237444076863 15.69780350554231 36.63498182276203 20.922824706133042 45.712646484375 26.091552734375 C55.58315160378777 31.715277645358128 65.42567760830457 37.38432882540587 75.223388671875 43.13427734375 C79.89055410945878 45.87206851518738 84.56798576403855 48.58432956881563 89.286865234375 51.232177734375 C90.16205810546876 51.72677490234378 91.03725097656252 52.2213720703125 91.93896484375 52.73095703125 C93.56388176659459 53.64724229227943 95.19329963895484 54.55561409758457 96.828125 55.4541015625 C102.04552098219847 58.40819291940454 105.7425778632163 61.18134687089895 107.712646484375 67.091552734375 C108.21706887162958 72.35904553242688 108.38431238734745 76.72334441350512 106.025146484375 81.529052734375 C102.21153497205023 85.75494657235652 97.95064408080572 88.66825140644949 93.013427734375 91.454833984375 C91.90016113281251 92.08655517578126 90.78689453125003 92.71827636718751 89.639892578125 93.369140625 C89.05165710449216 93.7002786254883 88.46342163085939 94.03141662597659 87.85736083984375 94.37258911132813 C85.34578333931347 95.7865070956118 82.83972132893729 97.21007923622841 80.33319091796875 98.63291931152344 C79.03648112628423 99.3688281669098 77.73948147374279 100.1042264950346 76.44219970703125 100.83912658691406 C70.13828393189203 104.41113120819034 63.8605386323336 108.0278673791538 57.587646484375 111.654052734375 C56.000649414062536 112.57069702148436 56.000649414062536 112.57069702148436 54.381591796875 113.505859375 C52.24134628149778 114.74208054187073 50.10120944132973 115.9784898752124 47.961181640625 117.215087890625 C44.633040948934195 119.13753561017523 41.30387456517553 121.05819519015915 37.974365234375 122.978271484375 C36.30772827148439 123.93987182617184 36.30772827148439 123.93987182617184 34.607421875 124.9208984375 C32.40850937199417 126.18830591505491 30.208498311156518 127.45380958270061 28.00732421875 128.71728515625 C23.031516127967706 131.57707179272148 18.077009544949817 134.4606558131797 13.173583984375 137.443115234375 C12.31949951171876 137.956484375 11.465415039062492 138.469853515625 10.58544921875 138.998779296875 C9.027334216551651 139.93786575233526 7.476522778599019 140.8892477110344 5.935546875 141.856201171875 C0.4276772532267046 145.15490900900625 -5.148679887767827 146.99225823235474 -11.5859375 145.59130859375 C-16.98178948115074 143.91741051886038 -19.52166587950606 141.0864072938822 -22.3726224899292 136.2507839202881 C-23.462310352177212 133.67856547685318 -23.541653193776966 131.77192778717847 -23.548049926757813 128.98135375976563 C-23.55513473510743 127.94958511352536 -23.56221954345702 126.91781646728515 -23.56951904296875 125.85478210449219 C-23.56704162597657 124.728448638916 -23.564564208984365 123.60211517333983 -23.56201171875 122.441650390625 C-23.567122650146473 121.25101486206052 -23.572233581542974 120.06037933349609 -23.577499389648438 118.83366394042969 C-23.589017713392735 115.57115777454317 -23.591468858839335 112.3088091665727 -23.58893609046936 109.04628801345825 C-23.587865634010086 106.32023830587661 -23.592751761652522 103.59421197663528 -23.597541511058807 100.86816728115082 C-23.60863443234905 94.43479878277162 -23.609075622370483 88.00148866906466 -23.60302734375 81.568115234375 C-23.596989706830755 74.9379377353863 -23.609293562024135 68.30797256552347 -23.630597412586212 61.677831292152405 C-23.64823029564002 55.980025742664964 -23.654212039625946 50.282287668273966 -23.65095967054367 44.58445584774017 C-23.649149013480184 41.18383535488749 -23.65176087607449 37.78336625877267 -23.665674209594727 34.38277053833008 C-23.67800243632726 30.588428492087132 -23.671267816207575 26.794578243680405 -23.65966796875 23.000244140625 C-23.66731170654296 21.877959136962886 -23.67495544433595 20.755674133300772 -23.682830810546875 19.599380493164063 C-23.639718440068805 13.223113513259989 -23.28215769392952 8.37491877360992 -18.787353515625 3.447021484375 C-13.062941402484569 -1.010268155804681 -6.988501371607953 -2.7755591422513817 0 0 Z M9.712646484375 45.091552734375 C9.712646484375 63.24155273437498 9.712646484375 81.39155273437501 9.712646484375 100.091552734375 C18.68043214367458 95.60765990472521 27.367676233018216 91.1217418006317 35.962646484375 86.029052734375 C36.96038085937499 85.443173828125 37.958115234374986 84.857294921875 38.986083984375 84.253662109375 C45.25024939719685 80.56958049256531 51.48722944603867 76.84067909331804 57.712646484375 73.091552734375 C55.00439138600137 70.1938168491904 52.426279098971634 68.15836960394984 48.958740234375 66.243896484375 C48.03021240234375 65.72593505859373 47.1016845703125 65.20797363281247 46.14501953125 64.67431640625 C44.662557373046866 63.85991088867189 44.662557373046866 63.85991088867189 43.150146484375 63.029052734375 C41.081857609135795 61.8790545610284 39.014158958133464 60.72799428398156 36.947021484375 59.575927734375 C35.907392578124984 58.99778320312498 34.86776367187497 58.41963867187502 33.796630859375 57.823974609375 C28.311513797823295 54.74272138987129 22.88982276743758 51.55128196738491 17.47802734375 48.34326171875 C16.744631347656252 47.91343994140624 16.011235351562505 47.48361816406248 15.255615234375 47.040771484375 C14.616481933593747 46.662673339843764 13.977348632812493 46.28457519531253 13.31884765625 45.89501953125 C11.71385649810702 44.94242716257605 11.71385649810702 44.94242716257605 9.712646484375 45.091552734375 Z " fill="none" transform="translate(226.287353515625,286.908447265625)"/>

  </g>
</svg>