<?xml version="1.0" encoding="UTF-8"?>
<svg width="100" height="100" viewBox="0 0 100 100" fill="none" xmlns="http://www.w3.org/2000/svg">
  <g transform="translate(25, 25) scale(0.09765625)">
    
<path stroke="#f472b6" stroke-width="1.5" stroke-linecap="round" d="M0 0 C1.3653806811935283 0.41493320552563695 2.731177424934458 0.8284993661451487 4.09735107421875 1.240814208984375 C7.776451438687673 2.3552489682678006 11.449602554115813 3.4882069731315504 15.121925354003906 4.624744415283203 C18.98272058390154 5.816073495401291 22.848774553668534 6.990083674540262 26.71435546875 8.165771484375 C33.18922865122113 10.13723758417748 39.660972499797765 12.11868081501696 46.130859375 14.1064453125 C55.14111496589004 16.873868311005864 64.15943064782613 19.61422563960429 73.18059921264648 22.34583854675293 C85.20852336148005 25.988112850633474 97.23600361684078 29.631967792295995 109.25727081298828 33.29616165161133 C111.15359153986077 33.87382881862107 113.05038773593634 34.44993445512683 114.94720458984375 35.025970458984375 C120.53503593442366 36.7310911292512 126.11466995001024 38.46166384340887 131.67529296875 40.253662109375 C132.6224215698242 40.55759384155274 133.56955017089842 40.86152557373047 134.54537963867188 41.17466735839844 C138.85823769796986 42.85206000771397 141.73423591599715 45.2183586736148 144.3515625 49.08203125 C145.97798903270734 53.961310848121954 146.16464442255233 58.84605512918452 146.16769695281982 63.95124626159668 C146.1694499900937 64.61423829257488 146.1712030273676 65.27723032355308 146.1730091869831 65.96031302213669 C146.17765727363764 68.17960758327543 146.17520676910272 70.39883628627621 146.1727752685547 72.61813354492188 C146.1746438365007 74.22628302005717 146.17694472339173 75.83443204122689 146.17964059114456 77.44258034229279 C146.18575924960544 81.86019831076966 146.18562491933722 86.27779735662602 146.18444621562958 90.6954185962677 C146.184242228455 95.46033981509807 146.18976075459807 100.2252549517456 146.1945037841797 104.99017333984375 C146.20281106471145 114.32465145723721 146.2055586531249 123.65912325984256 146.2061161622405 132.9936047643423 C146.20659124880848 140.58016048941613 146.20864562688888 148.16671412986685 146.21181678771973 155.75326919555664 C146.22062327000276 177.25893213389253 146.2252361275224 198.764590081007 146.22448631376028 220.2702548354864 C146.22442637946455 222.00940593801437 146.22442637946455 222.00940593801437 146.224365234375 223.78369140625 C146.2243243537098 224.9445396746695 146.22428347304464 226.105387943089 146.22424135357141 227.30141343176365 C146.22383479738141 246.1196945680769 146.2334067614437 264.9379557043595 146.2475036010146 283.75623105466366 C146.26186139582848 303.0751530611322 146.26877412623833 322.3940653086047 146.26790982484818 341.71299278736115 C146.2675776674264 352.5605612677177 146.27033300606575 363.4081087764244 146.2810878753662 374.255672454834 C146.29018498114687 383.4903969482112 146.29237459512188 392.72509096091187 146.2855784520507 401.95981799066067 C146.28230937011898 406.67164210407145 146.28227059556139 411.38340770911964 146.29093170166016 416.0952262878418 C146.29878034403055 420.40939400256076 146.29738201969673 424.7234566507773 146.28864756971598 429.03762175142765 C146.28710898427562 430.5974672161984 146.28894222387657 432.15732045791236 146.29450764507055 433.717156752944 C146.36115422460813 453.7229715352074 146.36115422460813 453.7229715352074 140.69107055664063 459.8515167236328 C134.2862671352289 464.8645091416312 124.62020996746219 466.60818633005067 116.953125 468.8828125 C115.77400543212889 469.2368061828613 114.59488586425783 469.59079986572266 113.38003540039063 469.9555206298828 C110.81842696029781 470.7240031619107 108.2563992079659 471.49086117099176 105.6934814453125 472.25494384765625 C101.60122909626665 473.47506939771216 97.51088683956573 474.70150903319166 93.4208984375 475.92919921875 C91.99365518821696 476.3575534229718 90.56640905773617 476.78589802737287 89.13916015625 477.2142333984375 C88.41929931640624 477.43027725219724 87.69943847656248 477.64632110595704 86.957763671875 477.86891174316406 C84.72442184894271 478.53892355138606 82.49089671996728 479.20832109756896 80.25732421875 479.8775634765625 C63.30252785319345 484.95868210928774 46.36182134958585 490.08630502457487 29.42156982421875 495.2156677246094 C25.15617208754304 496.50715504426876 20.890505108757566 497.79775037792024 16.624738693237305 499.0880193710327 C13.4193499266716 500.0576184862686 10.214074466783131 501.0275917290152 7.008831024169922 501.99767112731934 C5.510275681566441 502.4511579680466 4.011682668839455 502.9045203477772 2.513050079345703 503.3577518463135 C0.4607261724607383 503.9784951003769 -1.591435889908496 504.59977047324895 -3.6435546875 505.22119140625 C-4.797003784179708 505.57025543212893 -5.950452880859359 505.9193194580078 -7.13885498046875 506.2789611816406 C-9.087163785072676 506.87653328433953 -11.027624371089189 507.5000935403631 -12.9609375 508.14453125 C-23.23588934625866 509.36728935322765 -31.55642743219289 506.7712915697879 -41.031005859375 503.3056640625 C-44.539386172187335 502.02314125640584 -48.06375312858461 500.7873003314066 -51.587493896484375 499.5477294921875 C-53.533757999512886 498.8628162722852 -55.479234120482374 498.1756604454184 -57.423980712890625 497.4864501953125 C-69.24758868471895 493.30629746516536 -81.15573993636306 489.37934008027713 -93.06015014648438 485.43701171875 C-99.5762666611522 483.27876553644586 -106.08915754333009 481.11082202596657 -112.6015625 478.94140625 C-113.5492075443268 478.6257848358154 -113.5492075443268 478.6257848358154 -114.5159969329834 478.3037872314453 C-125.266662089866 474.7219528413826 -135.99518720497673 471.0792772704638 -146.7109375 467.39453125 C-164.9556653496646 461.1213387180578 -183.26021539856453 455.0306459246409 -201.56678771972656 448.9409866333008 C-244.12657032444156 434.7827379527337 -244.12657032444156 434.7827379527337 -263.9609375 428.01953125 C-264.7493603515625 427.7515673828125 -265.537783203125 427.483603515625 -266.35009765625 427.20751953125 C-270.55598716173 425.7768165668619 -274.7539299420663 424.32623164205893 -278.943359375 422.8480224609375 C-281.0841918395979 422.1015548003931 -283.2332398665054 421.3820060059177 -285.3828125 420.6611328125 C-286.8258851261172 420.15924935850944 -288.26860609374194 419.6563533929236 -289.7109375 419.15234375 C-290.3670703125 418.9389938354492 -291.023203125 418.72564392089845 -291.69921875 418.5058288574219 C-296.59849213968 416.753063300881 -299.1245169778732 414.4699450093493 -301.9609375 410.14453125 C-304.0964996504005 403.5196888980046 -304.24350056426584 397.33995330946306 -304.21490478515625 390.4166259765625 C-304.2195847570896 388.66912103414535 -304.2195847570896 388.66912103414535 -304.2243592739105 386.88631296157837 C-304.2309340573258 383.67033212714614 -304.2285978526523 380.45450350132614 -304.2223868370056 377.2385265827179 C-304.21784913328406 373.76335437029894 -304.2248526331004 370.28820224014424 -304.2303466796875 366.8130340576172 C-304.23922827345234 360.0121653293191 -304.23732417360316 353.21134080928334 -304.23152139782906 346.41047036647797 C-304.2270000570913 340.882026407014 -304.22639404876094 335.3535948149905 -304.2285690307617 329.8251495361328 C-304.2288754968345 329.03756528526543 -304.2291819629073 328.2499810343981 -304.2294977158308 327.4385305941105 C-304.2301371825922 325.83844371277434 -304.2307856094433 324.23835683499453 -304.2314428985119 322.6382699608803 C-304.2371425779724 307.6430359885709 -304.23059398221 292.6478264912562 -304.21984216570854 277.6525965332985 C-304.21090698357244 264.7929622576084 -304.2124591272691 251.93336409299192 -304.2216796875 239.07373046875 C-304.23238871237714 224.13123718358887 -304.23659328915346 209.18876533610307 -304.230455160141 194.24626874923706 C-304.22981807857684 192.65215015743752 -304.22918933679995 191.0580315622827 -304.2285690307617 189.4639129638672 C-304.2282604797185 188.67962713629007 -304.22795192867517 187.89534130871297 -304.2276340276003 187.08728924393654 C-304.2259089864816 181.56708345773131 -304.2288180777482 176.0468912977821 -304.23352813720703 170.5266876220703 C-304.23914399041365 163.79712315581708 -304.23760570601956 157.0676053330025 -304.2269666492939 150.33804619312286 C-304.22171941996766 146.90617183901446 -304.21963697648175 143.4743751856572 -304.2262649536133 140.04250144958496 C-304.2317282147563 136.31906892251843 -304.2248764276182 132.59585511105837 -304.21490478515625 128.8724365234375 C-304.2193662285805 127.79227594852446 -304.2238276720047 126.71211537361145 -304.2284243106842 125.5992226600647 C-304.1898889076192 118.18278440596269 -304.1077315274251 110.29609052152894 -298.7545471191406 104.52401733398438 C-294.6268867590537 101.34938559395056 -289.6107045300171 99.74571928214083 -284.78515625 97.9140625 C-282.95456083708575 97.19465058832236 -281.1239675322666 96.475233232949 -279.29352474212646 95.75543308258057 C-277.41127270128294 95.01877873920209 -275.52600675371343 94.2904243130694 -273.63958740234375 93.56451416015625 C-270.2206633007662 92.24478710695983 -266.81107113591133 90.90420187356388 -263.40478515625 89.55224609375 C-256.86852744737877 86.9595120503858 -250.32151181869614 84.39474512049037 -243.7734375 81.83203125 C-241.34798984569937 80.88120910845446 -238.92261734373625 79.93019524210116 -236.497314453125 78.97900390625 C-232.11071293944875 77.25868725698926 -227.7239007778851 75.53891003640899 -223.33680629730225 73.81985092163086 C-211.93675236223157 69.35264309945877 -200.5415000627508 64.87322695768854 -189.14608764648438 60.394195556640625 C-168.1805250598254 52.154203176188034 -147.2104302492506 43.92579944810152 -126.2373046875 35.705078125 C-115.52850317123747 31.507158546978957 -104.82145051892368 27.304843998286717 -94.11748886108398 23.09459686279297 C-92.23828551796171 22.355470428670554 -90.35903422766637 21.61646603693919 -88.47976684570313 20.87750244140625 C-81.39808402909122 18.09280030490133 -74.31706698610924 15.306414911031514 -67.23660278320313 12.51861572265625 C-63.99041750507661 11.243582171363093 -60.741177668769865 9.976573998188417 -57.49169921875 8.7099609375 C-52.950753793496006 6.936976178859739 -48.431250414827446 5.117813215449454 -43.91845703125 3.2744140625 C-41.61106406491416 2.3481541729691715 -39.30361152292369 1.4220426749905908 -36.99609375 0.49609375 C-35.95013534545899 0.05913177490234389 -34.90417694091798 -0.37783020019531266 -33.82652282714844 -0.828033447265625 C-21.532712908369774 -5.710529601958632 -12.378978877555198 -3.872216724665623 0 0 Z M-28.44921875 32.87109375 C-29.198612213134766 33.165896301269534 -29.94800567626953 33.46069885253906 -30.720108032226563 33.764434814453125 C-33.24106750383294 34.758277217037474 -35.757107532385135 35.76403090607246 -38.2734375 36.76953125 C-40.08706409266142 37.486858398582534 -41.9010388213905 38.20330587510147 -43.71533203125 38.9189453125 C-47.67493952683003 40.481995211327984 -51.63270605453221 42.04959491097318 -55.58935546875 43.6201171875 C-62.16705179852278 46.2290032634707 -68.7526175866692 48.817629335190986 -75.33984375 51.40234375 C-76.47792984008788 51.848933410644534 -77.61601593017576 52.29552307128906 -78.78858947753906 52.755645751953125 C-81.12144552849992 53.671016600155625 -83.45431614104467 54.586350338451965 -85.78720092773438 55.50164794921875 C-91.78094034017491 57.85419775583706 -97.77319100816291 60.210533752632685 -103.765625 62.56640625 C-116.99453286592671 67.7664234993063 -130.22716819240802 72.9569009191363 -143.4609375 78.14453125 C-156.6359103805071 83.3092368012575 -169.80983117454377 88.47659096015855 -182.98046875 93.65234375 C-184.17344573974611 94.12113952636719 -185.36642272949217 94.58993530273438 -186.59555053710938 95.07293701171875 C-192.26442588127338 97.30070859346719 -197.93313401238208 99.5289041750533 -203.6015625 101.7578125 C-226.0446834307012 110.57914888044014 -248.50436204648219 119.35717563775391 -270.9609375 128.14453125 C-270.9609375 210.97453124999998 -270.9609375 293.80453124999997 -270.9609375 379.14453125 C-263.6353218218904 377.146636065061 -256.4925192779629 375.0694158718803 -249.33203125 372.60546875 C-248.3757130432129 372.27914459228515 -247.4193948364258 371.9528204345703 -246.43409729003906 371.6166076660156 C-244.4362332842503 370.93414797478715 -242.4389175112507 370.250081364208 -240.442138671875 369.564453125 C-237.37610994039818 368.5118660574841 -234.30832615017204 367.4645254157247 -231.240234375 366.41796875 C-229.29156334729907 365.7516041469463 -227.34299193082313 365.0849481602445 -225.39453125 364.41796875 C-224.47691513061523 364.1044345092773 -223.55929901123048 363.7909002685547 -222.61387634277344 363.4678649902344 C-221.76861892700197 363.17731231689453 -220.92336151123047 362.8867596435547 -220.052490234375 362.58740234375 C-219.30845443725588 362.33219818115236 -218.56441864013672 362.0769940185547 -217.79783630371094 361.8140563964844 C-215.902243711846 361.1626336143285 -215.902243711846 361.1626336143285 -213.9609375 360.14453125 C-213.95947093963622 358.9501641750336 -213.95800437927247 357.7557971000671 -213.95649337768555 356.52523708343506 C-213.92078481029648 328.1679357535442 -213.86453414489313 299.8107259789004 -213.7830165475607 271.4535195790231 C-213.77299919396177 267.96258443650487 -213.76315504665922 264.47164882560946 -213.75341796875 260.980712890625 C-213.75147659569978 260.2857358217984 -213.74953522264957 259.59075875297185 -213.747535020113 258.87472177296877 C-213.71652113852338 247.6244662001156 -213.69953608636592 236.3742310218829 -213.68774327635765 225.12394075840712 C-213.67532852497757 213.57850768466716 -213.64752277717213 202.03319735754275 -213.6063244342804 190.48782926797867 C-213.58367378451985 184.00361352674446 -213.5680289927238 177.51955048759393 -213.56905364990234 171.03529167175293 C-213.56979811582133 164.93265974401572 -213.55193266671276 158.83036584426648 -213.5197696685791 152.72782135009766 C-213.51124804986284 150.4877100981571 -213.50953601256253 148.24756103085505 -213.51513481140137 146.0074405670166 C-213.52176191902916 142.94852894989128 -213.50388400869923 139.89069684861738 -213.47991943359375 136.83189392089844 C-213.48767985105513 135.94569285809993 -213.49544026851655 135.05949179530143 -213.50343585014343 134.14643615484238 C-213.42277019007707 128.32905169453213 -212.30756509560047 124.93408674165897 -208.9609375 120.14453125 C-204.75236501444118 116.58308242007303 -199.6694370993164 116.12602786809354 -194.380615234375 115.271728515625 C-193.4114145851135 115.10649877548218 -192.44221393585207 114.94126903533936 -191.4436435699463 114.77103233337402 C-188.19967532629275 114.22038014452991 -184.9534371819312 113.684515506234 -181.70703125 113.1484375 C-179.38764349174238 112.75763810965219 -177.06842821358913 112.36581386248173 -174.74937438964844 111.97303771972656 C-169.7656063083764 111.13028612746847 -164.7809282959322 110.29320827544728 -159.79559326171875 109.45977783203125 C-151.92042310846537 108.14099976553153 -144.0498749561898 106.79577016699686 -136.18017578125 105.44482421875 C-123.94765072981073 103.34586231763288 -111.71256076034268 101.26253900034497 -99.47516822814941 99.1921443939209 C-92.4793772671735 98.0083166218147 -85.48435899089975 96.82023946003014 -78.490966796875 95.622314453125 C-72.22811560405523 94.54953097430766 -65.96403148419256 93.48432210691381 -59.69834989309311 92.42819029092789 C-56.429773714019575 91.87700766749418 -53.16214612207102 91.32128148976487 -49.895524978637695 90.75855827331543 C-46.294024863519326 90.13883208358419 -42.690486411128916 89.53261246865407 -39.086181640625 88.929443359375 C-38.04577224731446 88.74721725463867 -37.00536285400392 88.56499114990234 -35.93342590332031 88.37724304199219 C-17.56069751959535 85.35313846326747 -17.56069751959535 85.35313846326747 -11.223145484924316 88.50697231292725 C-7.592792767850881 91.13489891215586 -5.3773300067028345 93.89535372989151 -3.9609375 98.14453125 C-3.86557160971347 100.02300611734937 -3.8300006380035256 101.904725677888 -3.826716423034668 103.78561687469482 C-3.822258579134939 104.96752752959728 -3.8178007352352097 106.14943818449974 -3.8132078051567078 107.36716431379318 C-3.813484348952784 109.32441829890013 -3.813484348952784 109.32441829890013 -3.8137664794921875 111.32121276855469 C-3.8104677166368788 112.7164087593789 -3.806742122539106 114.11160379580315 -3.802625000476837 115.50679761171341 C-3.7925982728996246 119.34970962334127 -3.7888871270137088 123.19260601524124 -3.7862356901168823 127.035529255867 C-3.7823346326205183 131.176779279921 -3.7727561589273364 135.3180169119249 -3.7640228271484375 139.45925903320313 C-3.7442528301669995 149.46480505757984 -3.7341915416531037 159.4703521033103 -3.7252950370311737 169.47591277956963 C-3.7209130256912886 174.1863942317301 -3.7155459919331975 178.89687455682417 -3.710306167602539 183.60735511779785 C-3.693293376280792 199.2638217714729 -3.678798846916436 214.92028772064603 -3.6715574264526367 230.57676219940186 C-3.6696474968245525 234.64044889731267 -3.66772716948185 238.70413558944972 -3.665771484375 242.767822265625 C-3.665287744179352 243.7778456852585 -3.664804003983761 244.78786910489202 -3.664305604994297 245.82849929481745 C-3.6560039800763775 262.1929507630881 -3.6306650527740203 278.5573291636878 -3.5981908068060875 294.92174872010946 C-3.5651302808932996 311.71838812290434 -3.547109577525646 328.5149903799455 -3.543913185596466 345.31166249513626 C-3.541747159104716 354.744143987894 -3.5329849602312606 364.1765189287019 -3.5074520111083984 373.6089687347412 C-3.485758768657206 381.64155432492845 -3.4776878058734155 389.6740074857667 -3.487418793141842 397.7066190466285 C-3.491967497557596 401.8048487778388 -3.4900443146093494 405.9028051928875 -3.4706573486328125 410.00099754333496 C-3.453053308563426 413.75472707571646 -3.4540006162093277 417.5079833482138 -3.469554640352726 421.2617177143693 C-3.473060346333739 423.2588934989127 -3.4568838136171394 425.2560740877569 -3.439950168132782 427.2531811594963 C-3.490974780489921 434.3587157170228 -4.077249908338899 439.1261826876196 -7.9609375 445.14453125 C-12.588263885077595 449.3635641305119 -19.499945801550894 449.2891512574809 -25.509077072143555 449.0380554199219 C-28.18256458963549 448.79054846750836 -30.84022319412884 448.4795248668871 -33.503662109375 448.140625 C-34.50492126464843 448.02212188720705 -35.50618041992186 447.90361877441404 -36.53778076171875 447.7815246582031 C-39.81420602449924 447.3914841283371 -43.0886223389391 446.98660865325405 -46.36328125 446.58203125 C-48.65095238215332 446.30803339360904 -50.93876124050598 446.0351832292776 -53.22669982910156 445.763427734375 C-59.22544629618773 445.0486895400623 -65.22271035866368 444.3222632115753 -71.2196044921875 443.5921630859375 C-80.84198834500856 442.4213338199756 -90.46577037611931 441.26243335733005 -100.09094429016113 440.1147766113281 C-103.45257367903798 439.71131684091904 -106.81306954872079 439.2992283279147 -110.17356872558594 438.886474609375 C-112.22366340230323 438.64012398783 -114.27379663423946 438.39409393185025 -116.323974609375 438.1484375 C-117.72891929626465 437.97237472534175 -117.72891929626465 437.97237472534175 -119.16224670410156 437.7927551269531 C-120.01857696533204 437.6917147827148 -120.8749072265625 437.5906744384766 -121.75718688964844 437.486572265625 C-122.50099074363709 437.3958595275879 -123.24479459762574 437.3051467895508 -124.01113796234131 437.21168518066406 C-126.17919828882157 437.02356537635717 -126.17919828882157 437.02356537635717 -128.9609375 438.14453125 C-118.75952307097685 441.65992069102776 -108.54889971949652 445.14759279388784 -98.33122253417969 448.6154327392578 C-92.11749652065623 450.7258473982675 -85.90797986502352 452.8480060671002 -79.70263671875 454.98291015625 C-73.04715706814193 457.27245259196815 -66.38647709530755 459.5462358129223 -59.72066879272461 461.80553436279297 C-56.0066687121988 463.0649734923634 -52.29535667026471 464.331337452952 -48.58941650390625 465.61431884765625 C-45.0455679207692 466.84088778976525 -41.49570932912775 468.04823482763794 -37.940752029418945 469.24220848083496 C-36.62230295772861 469.6886634019245 -35.306106511902954 470.1418377636751 -33.99249076843262 470.6023197174072 C-20.044465051898328 475.48237372986995 -10.820568157206594 473.1047178997123 2.90234375 468.796875 C4.375071923550934 468.34251650566097 5.848076710132943 467.88905378824586 7.3213348388671875 467.43641662597656 C11.221103807763427 466.2358932146855 15.117369997937374 465.0243861849789 19.01287841796875 463.81011962890625 C50.29928962844559 454.06991033982365 81.66922324802454 444.6146714015398 113.0390625 435.14453125 C113.0390625 314.36453125 113.0390625 193.58453125 113.0390625 69.14453125 C47.51693881129313 39.89450653330195 47.51693881129313 39.89450653330195 -28.44921875 32.87109375 Z M-47.82536315917969 123.01097106933594 C-48.97360061645509 123.20305145263671 -50.12183807373049 123.3951318359375 -51.30487060546875 123.59303283691406 C-52.55028625488285 123.80652877807617 -53.795701904296834 124.02002471923828 -55.078857421875 124.239990234375 C-56.41468912577858 124.4653822246382 -57.75059303386854 124.69034663534856 -59.08656311035156 124.9149169921875 C-62.70277064973391 125.52409173954734 -66.3179092746119 126.13940307898281 -69.93286299705505 126.75596880912781 C-73.71855069093249 127.40071546441541 -77.5051219720396 128.04023230844024 -81.29158020019531 128.68043518066406 C-87.64637604288856 129.75568513208913 -94.00051670884073 130.83473831619554 -100.354248046875 131.916259765625 C-107.70170382297667 133.1669026547698 -115.05001253896086 134.41242668736024 -122.39883345365524 135.65502113103867 C-130.2247168645887 136.97832905669623 -138.04997871968118 138.3052834312308 -145.87505555152893 139.63335156440735 C-148.13011748536297 140.01583043645763 -150.38529272786224 140.39763502173722 -152.64049339294434 140.77929496765137 C-156.18097612534916 141.378661919069 -159.72103491416334 141.98047356522915 -163.26077842712402 142.58419036865234 C-165.18144742097033 142.9112065802177 -167.10251398769498 143.23588501183758 -169.02359008789063 143.5605010986328 C-170.16336807250977 143.75540130615235 -171.3031460571289 143.9503015136719 -172.4774627685547 144.15110778808594 C-173.4698152446747 144.31979590415955 -174.46216772079467 144.48848402023316 -175.48459148406982 144.6622838973999 C-178.07936530589555 145.1123097632984 -178.07936530589555 145.1123097632984 -180.9609375 146.14453125 C-180.96332585334778 147.3122078704834 -180.96571420669557 148.4798844909668 -180.9681749343872 149.68294525146484 C-181.0255585942323 177.41320755813098 -181.09830605828944 205.14339501602018 -181.1899237819016 232.87356624007225 C-181.2011916849146 236.28810629504304 -181.21233017913832 239.7026467607115 -181.223388671875 243.1171875 C-181.22559235535562 243.7969491845369 -181.22779603883623 244.47671086907388 -181.23006650060415 245.17707139253616 C-181.26542033207255 256.17768301481124 -181.2902952587149 267.17829456862 -181.311284519732 278.1789419054985 C-181.3330618403781 289.4701084425036 -181.36635242938746 300.76120152374796 -181.40963906049728 312.05230951309204 C-181.43358288079025 318.3928922184507 -181.45230413357933 324.733393495864 -181.45855140686035 331.0740203857422 C-181.46459690109924 337.0428223186565 -181.48457784685547 343.0114158706982 -181.5152130126953 348.98014068603516 C-181.5240017360706 351.169843581799 -181.52771409684226 353.3595736989986 -181.52594566345215 355.5492935180664 C-181.52429194264818 358.54201400650584 -181.54100118336885 361.53410001234545 -181.5622100830078 364.5267333984375 C-181.55736250698567 365.3905668783188 -181.55251493096353 366.2544003582001 -181.54752045869827 367.144410610199 C-181.6226433619917 373.5801954277186 -182.5364976245985 379.4558598776618 -187.00390625 384.41015625 C-191.22470701065657 386.88576462216844 -195.63837622530622 388.36807290794536 -200.2734375 389.89453125 C-201.20478515625 390.2103515625 -202.1361328125 390.526171875 -203.095703125 390.8515625 C-205.38118983395952 391.6251118476478 -207.66941868180626 392.3890784860312 -209.9609375 393.14453125 C-209.63093750000002 393.80453125 -209.3009375 394.46453125 -208.9609375 395.14453125 C-206.01676926148738 395.774017774033 -206.01676926148738 395.774017774033 -202.36231994628906 396.1443176269531 C-201.6645891994238 396.2276975238323 -200.9668584525585 396.3110774207115 -200.24798434972763 396.3969839811325 C-197.89356681596308 396.6760238467223 -195.53782788777846 396.94169144674294 -193.181884765625 397.20751953125 C-191.50018161168114 397.40406184458686 -189.81857336104238 397.60141766625344 -188.13705444335938 397.7995300292969 C-183.5574906455001 398.3366965442198 -178.97666620587046 398.8623208635663 -174.3955318927765 399.3859009742737 C-169.61107305603647 399.9346143402602 -164.8278164761829 400.4936126233152 -160.04441833496094 401.0514831542969 C-152.00906560496438 401.98716595061967 -143.97295949286251 402.91612315780526 -135.936279296875 403.84033203125 C-124.59167362370079 405.14495655438475 -113.24846186941795 406.4613903142805 -101.90551292896271 407.78033089637756 C-86.72564385526965 409.5447775541998 -71.54537848290363 411.3059542765307 -56.36350631713867 413.0530891418457 C-54.714654629691154 413.2429840259239 -53.065846884423024 413.433260889004 -51.41708564758301 413.62393951416016 C-49.17369373569716 413.88328624719014 -46.930142547861124 414.1412063082237 -44.68653869628906 414.3987121582031 C-43.42866829872128 414.543601398468 -42.170797901153605 414.6884906387329 -40.874810218811035 414.83777046203613 C-38.11776537389392 415.179430380097 -38.11776537389392 415.179430380097 -35.9609375 415.14453125 C-35.9609375 318.45453125 -35.9609375 221.76453125 -35.9609375 122.14453125 C-40.2594145988196 122.14453125 -43.67788799038556 122.30832625323036 -47.82536315917969 123.01097106933594 Z " fill="none" transform="translate(334.9609375,3.85546875)"/>

  </g>
</svg>