<?xml version="1.0" encoding="UTF-8"?>
<svg width="100" height="100" viewBox="0 0 100 100" fill="none" xmlns="http://www.w3.org/2000/svg">
  <g transform="translate(25, 25) scale(0.09765625)">
    
<path stroke="#f472b6" stroke-width="1.5" stroke-linecap="round" d="M0 0 C0.04582499415045049 44.553344034997714 0.08104333168603262 89.10668556507989 0.10213065892457962 133.6600485406816 C0.10463193061190168 138.92562810208418 0.10722058903775178 144.19120761714112 0.10986328125 149.456787109375 C0.11065021254120211 151.0291427929327 0.11065021254120211 151.0291427929327 0.11145304143428802 152.63326323777437 C0.12014443775251493 169.58348475463228 0.13590742143310308 186.53369263982094 0.1543055921792984 203.48390608280897 C0.17303988754571265 220.88956832766772 0.18412417907245526 238.29522345617585 0.1881769895553589 255.7008953690529 C0.19091473270259485 266.4322854639861 0.1995469152611804 277.16363702075415 0.2158329337835312 287.89501524716616 C0.2264434188518294 295.2640954331076 0.22959146336654612 302.63315583248357 0.22700275480747223 310.00224309414625 C0.22572776667760763 314.2473090993415 0.227616655786278 318.49230798219634 0.23841094970703125 322.737361907959 C0.2482508750689476 326.63589427374154 0.24856647553644962 330.53431533081647 0.2417977899312973 334.43285316973925 C0.24096309376028557 335.831533561809 0.24340842469547397 337.2302213361805 0.24976636469364166 338.62888752669096 C0.36413788355247334 365.3791632007824 -5.042394539990937 387.7567451600977 -22 409 C-22.64839843750002 409.85078125 -23.296796874999984 410.7015625 -23.96484375 411.578125 C-37.38983070582378 427.55411715472314 -59.526471025184605 437.64333479426585 -80 440 C-107.01700483608676 441.48987650907566 -131.3956745227119 434.80254878437586 -152.017822265625 416.766357421875 C-170.15683265279063 400.19906929960325 -179.69426203602882 377.29985053728024 -181.1875 352.94140625 C-181.71519620905832 328.10670341119305 -172.8941446956427 305.369319420877 -156.16015625 287.1875 C-140.96449480800504 271.4603901695973 -119.17011485159225 260.4814362791394 -97.12890625 259.796875 C-72.01902579542406 259.4426427031747 -52.00882199355095 265.43758289390485 -32 281 C-31.670000000000016 233.48 -31.339999999999975 185.95999999999998 -31 137 C-76.48466445812016 148.44226244367118 -76.48466445812016 148.44226244367118 -121.96484375 159.90234375 C-122.64151179075242 160.07304342985154 -123.31817983150484 160.24374310970308 -124.01535296440125 160.41961550712585 C-144.23414892043058 165.52049316372165 -164.44600696800023 170.64728999573765 -184.638916015625 175.849853515625 C-185.34770526885984 176.0324261188507 -186.05649452209474 176.21499872207642 -186.78676223754883 176.40310382843018 C-190.49583418624508 177.35870481157977 -194.20475262507784 178.31488957173164 -197.91326332092285 179.27266693115234 C-219.19439649352097 184.76761651568646 -240.50038616477968 190.15629326153135 -261.8267707824707 195.47278594970703 C-265.70703612314617 196.44038352464318 -269.58695951326376 197.40935046809398 -273.4669189453125 198.378173828125 C-280.97762752856335 200.25339358040995 -288.4886874657305 202.12720069009373 -296 204 C-296.0033101463318 205.14153093338012 -296.00662029266357 206.28306186676025 -296.01003074645996 207.45918464660645 C-296.0911236247241 235.27034985773372 -296.1834692004371 263.0814604948779 -296.2875270843506 290.8925495147705 C-296.2975177872715 293.57306021066603 -296.3074667921146 296.253571058063 -296.3173828125 298.93408203125 C-296.319848806411 299.6003073941171 -296.32231480032203 300.26653275698425 -296.3248555213213 300.95294676721096 C-296.36449520697533 311.7167084301883 -296.397281274438 322.4804804819126 -296.42749981582165 333.2442722469568 C-296.45869931652794 344.30267246373836 -296.4974893446853 355.3610276960752 -296.54279005527496 366.4193791151047 C-296.5679734426397 372.624881391942 -296.58977864764995 378.8303530337717 -296.60334396362305 385.03589248657227 C-296.6162385819563 390.88483934431383 -296.63837191082894 396.73368069824204 -296.6673831939697 402.58256912231445 C-296.67640138454766 404.7213781159225 -296.6821356264935 406.860204070439 -296.68421363830566 408.99903106689453 C-296.7166989197235 437.3734930415546 -301.3244094993609 462.45054373739526 -321 484 C-321.6587109375 484.7283203125 -322.31742187500004 485.456640625 -322.99609375 486.20703125 C-336.3394126284489 500.24839095508804 -357.36531581990477 511.0580909781346 -376.845703125 512.1611328125 C-407.41287735207663 512.5983877997802 -430.7350255021672 506.3650496434882 -453.375 484.73046875 C-470.0554459362978 467.26812691043824 -478.07625065100603 443.9154720405294 -478 420 C-477.2177911075999 398.4595513238429 -469.5367187423992 378.0470271831679 -455 362 C-454.27425781249997 361.1814453125 -453.548515625 360.362890625 -452.80078125 359.51953125 C-436.86384555837503 342.5289138597552 -414.7346812302206 332.90708736596304 -391.515625 331.83984375 C-367.6772915801912 331.1427297189329 -347.9006059885989 338.82454550855084 -329 353 C-328.66999999999996 263.57 -328.34000000000003 174.14 -328 82 C-284.07830690618255 70.72280852996579 -240.15805907026314 59.469090207893686 -196.17807507514954 48.42609882354736 C-183.25146664366218 45.18011914863432 -170.32674538120608 41.926628613185365 -157.40234375 38.671875 C-156.73297184705734 38.50332221031189 -156.06359994411469 38.33476942062378 -155.37394404411316 38.16110897064209 C-132.66409475393203 32.44228980360967 -109.96877297124377 26.66909921669106 -87.29101181030273 20.824344635009766 C-83.6548277162176 19.887206758203114 -80.01844787531007 18.95082905341257 -76.382080078125 18.014404296875 C-75.69040457725526 17.836284246444702 -74.99872907638547 17.658164196014404 -74.28609371185303 17.47464656829834 C-72.25063630096417 16.950501628128436 -70.21516513037938 16.42641016340411 -68.1796875 15.90234375 C-67.53112226486206 15.735346584320068 -66.88255702972413 15.568349418640137 -66.2143383026123 15.396291732788086 C-53.43676392233078 12.106814670511994 -40.654418596599214 8.836615197552371 -27.860076904296875 5.6129150390625 C-25.784788871009425 5.089336950228798 -23.709998331205327 4.5637819882117645 -21.635772705078125 4.0360107421875 C-18.88750119048592 3.337252229089112 -16.1374639077423 2.6459768446925094 -13.38671875 1.95703125 C-12.59810455322264 1.7550160217285156 -11.809490356445338 1.5530007934570311 -10.996978759765625 1.3448638916015625 C-7.229995063167337 0.4108999107180056 -3.869622143082097 -0.08552069277689743 0 0 Z " fill="none" transform="translate(495,0)"/>

  </g>
</svg>