<?xml version="1.0" encoding="UTF-8"?>
<svg width="100" height="100" viewBox="0 0 100 100" fill="none" xmlns="http://www.w3.org/2000/svg">
  <g transform="translate(25, 25) scale(0.09765625)">
    
<path stroke="#f87171" stroke-width="1.5" stroke-linecap="round" d="M0 0 C10.042738003474199 8.065411349940412 16.900603274898344 20.356562336284433 18.75 33.125 C19.248266619933702 40.848132608972655 18.990552567704697 47.482109498758206 17 55 C18.138886718749973 55.32484375 18.138886718749973 55.32484375 19.30078125 55.65625 C24.47250299306387 57.534890210785605 29.28234184698266 60.017645203073656 34.1875 62.5 C35.145917968749984 62.979531249999994 36.104335937500025 63.4590625 37.091796875 63.953125 C43.37816183705428 67.11464101461706 49.61122686677754 70.36820211172777 55.83203125 73.65625 C66.9953623187875 79.55394916317965 78.24672686915227 85.27633682498706 89.5 91 C93.51117874758 93.0401740737087 97.52145800621673 95.08210195377039 101.53125 97.125 C102.97987426757811 97.86085327148437 102.97987426757811 97.86085327148437 104.457763671875 98.611572265625 C109.19875177250441 101.02718611640675 113.91460445127683 103.47814470465218 118.59375 106.01171875 C119.4702722167969 106.4839990234375 120.34679443359374 106.956279296875 121.2498779296875 107.44287109375 C122.89703253569951 108.33408364520173 124.539660171111 109.23373163643873 126.1768798828125 110.14306640625 C128.07895961663644 111.1709894272479 130.0360643780765 112.09584850613335 132 113 C135.11657451964692 112.27946153478544 135.11657451964692 112.27946153478544 136.625 109.8125 C143.66809196494324 101.47199635730408 155.27827988730428 96.35485074747012 166 95 C181.05309486738173 93.89571890934265 194.6398940608163 97.3622312425117 206.25 107.1875 C215.79604523604644 116.25474672890928 220.98544124744808 127.82053325777346 221.472900390625 140.95947265625 C221.64408899472193 156.61320537322118 217.36271466590534 168.34651867660736 206.5625 179.8125 C196.46348835442802 189.30958379914713 184.33398211648182 192.63433396047435 170.67236328125 192.472412109375 C160.2832330805153 192.0672249910254 151.65077778018525 189.0695688754078 143.21875 182.9765625 C141.02699190955838 181.756098116905 141.02699190955838 181.756098116905 138.6328125 182.48828125 C135.17118047830138 184.4758948885718 132.34497334667947 186.91098724707808 129.375 189.5625 C128.12715947772375 190.654626250785 126.87845240343808 191.74576314370813 125.62890625 192.8359375 C125.01418457031252 193.374443359375 124.39946289062499 193.91294921875 123.76611328125 194.4677734375 C119.59852504752342 198.08344716640073 115.28533241007756 201.52575136947513 111 205 C109.29083038915246 206.39480920328825 107.5825198891269 207.79067169972174 105.875 209.1875 C104.96878906249998 209.9287109375 104.06257812500002 210.669921875 103.12890625 211.43359375 C100.07340840501325 213.93700164067164 97.02622216419996 216.4504445613612 93.978759765625 218.963623046875 C85.01993142654254 226.35140023126206 76.02228556862144 233.68988437104963 67 241 C68.4357157106295 244.4427109710383 70.10705003342792 246.13433295844789 73.0625 248.375 C73.95968749999997 249.07109375 74.856875 249.76718749999998 75.78125 250.484375 C76.28914062500002 250.87818359375 76.79703124999997 251.27199218750002 77.3203125 251.677734375 C80.61363713887425 254.27027016629984 83.83243625831653 256.9544025472491 87.0625 259.625 C88.54292257397981 260.8464101369367 90.02339203851562 262.0677634417209 91.50390625 263.2890625 C92.2491455078125 263.904267578125 92.994384765625 264.51947265625 93.76220703125 265.1533203125 C98.04028059629957 268.683687806067 102.32312071063836 272.2082705999793 106.605712890625 275.733154296875 C110.25064685088 278.73374984474526 113.89301723927593 281.7373751054647 117.53125 284.74609375 C121.07844083062946 287.6790890071821 124.63498531770676 290.60038623222283 128.19677734375 293.515625 C129.78302130641492 294.8213876987548 131.3555365326178 296.14379050549326 132.92578125 297.46875 C133.71339843750002 298.1184375 134.50101562499998 298.768125 135.3125 299.4375 C135.9480078125 299.9724609375 136.58351562500002 300.507421875 137.23828125 301.05859375 C138.96631562051527 302.19117697975844 138.96631562051527 302.19117697975844 141.015625 301.8046875 C143.0738639015795 300.97004731550123 144.63692659307685 299.9827900009714 146.4375 298.6875 C157.74410999639866 291.537731914042 171.00488769720607 290.30148418383897 183.98828125 292.5078125 C197.03914254636896 296.0394608134809 207.68700129957813 304.4383929160241 214.4921875 316.0546875 C221.27874521396512 329.31133132468835 222.7972792367819 346.38688298305715 218.375 360.75 C212.6887225590567 374.6165362156336 204.55794955786536 383.5223129890199 191 390 C178.79831248026505 394.62879030574396 165.19510499072447 394.53863130722755 153 390 C151.9597265625 389.6171484375 151.9597265625 389.6171484375 150.8984375 389.2265625 C145.48247202323466 386.87460936467164 141.52683729864532 383.0782739709944 137.296875 379.0234375 C134.43033263241603 376.4969907847707 134.43033263241603 376.4969907847707 131 375 C128.29053445364048 375.84521473409734 128.29053445364048 375.84521473409734 125.4609375 377.48828125 C124.33993652343747 378.08423095703125 123.218935546875 378.6801806640625 122.06396484375 379.294189453125 C121.46461120605471 379.6221450805664 120.86525756835937 379.9501007080078 120.24774169921875 380.2879943847656 C117.68848507927504 381.6880661506967 115.11129050742312 383.0534384600266 112.53433227539063 384.4205780029297 C111.16264902272769 385.14839670484406 109.79187839676138 385.87793766416075 108.42196655273438 386.6090850830078 C101.20724782656362 390.45064594060494 93.89645401095038 394.0922248245885 86.57366943359375 397.7223205566406 C77.0822725127291 402.42849678022066 67.5978377070656 407.1379982163261 58.25 412.125 C50.56243625309497 416.2238901500296 42.80127012163638 420.1707111466442 35.0162353515625 424.08050537109375 C33.637367654555476 424.77334003252076 32.25918539043539 425.4675406209276 30.8817138671875 426.16314697265625 C28.953137854042097 427.136346742894 27.0219355537958 428.10411531129284 25.08984375 429.0703125 C23.964411621093745 429.6350830078125 22.83897949218749 430.199853515625 21.679443359375 430.78173828125 C19.000000000000057 432 19.000000000000057 432 17 432 C17.155976562499973 432.7154296875 17.311953125000002 433.430859375 17.47265625 434.16796875 C20.24381513053146 448.35409997285313 18.89133390032066 462.1081448494107 10.6875 474.3125 C2.6743054628489062 484.951294449324 -6.687500027254771 492.35166223946453 -20 495 C-36.2527006080648 496.6369874446206 -49.8258230916928 494.12595214029955 -63 484 C-71.64854820169651 476.4684854212232 -77.50877652571236 464.43778149061006 -78.84765625 453.125 C-79.40644219394773 441.6627242267136 -77.67380344305008 432.4541771716821 -73 422 C-72.3289086502028 420.3351100269238 -71.66155720440526 418.6687013775753 -71 417 C-77.15436319893405 410.7067135460955 -83.32472549908186 404.4296923669347 -89.51620769500732 398.17291927337646 C-92.3905679139994 395.2672250221174 -95.25907439179377 392.35620675952083 -98.114990234375 389.432373046875 C-100.87052517085348 386.6117211960082 -103.64039517274247 383.8059144034538 -106.42087745666504 381.009859085083 C-107.47991043734893 379.93972609071045 -108.5336413225836 378.86431941805205 -109.58194541931152 377.7836742401123 C-111.04971138218315 376.27244745401197 -112.53510105996722 374.7809605670765 -114.026123046875 373.292724609375 C-114.86773483276366 372.4377891540527 -115.70934661865235 371.58285369873045 -116.57646179199219 370.70201110839844 C-118.87118881466205 368.7138404405446 -118.87118881466205 368.7138404405446 -121.66227722167969 369.1656799316406 C-124.18779087338046 370.0670215030495 -126.48263011334873 371.1122916084846 -128.8515625 372.37109375 C-130.23770751953123 373.1013879394531 -130.23770751953123 373.1013879394531 -131.65185546875 373.846435546875 C-132.6329931640625 374.3714868164063 -133.614130859375 374.8965380859375 -134.625 375.4375 C-135.6460986328125 375.97737548828127 -136.667197265625 376.5172509765625 -137.71923828125 377.073486328125 C-139.81352724661767 378.1812026888307 -141.90646543651198 379.2914766323695 -143.998046875 380.404296875 C-147.50685288725128 382.269420174941 -151.02438645736538 384.11749959652246 -154.543212890625 385.963623046875 C-164.0426059317257 390.9495362826658 -173.52107423159242 395.97531975912835 -183 401 C-182.84015625 402.19109375 -182.6803125 403.3821875 -182.515625 404.609375 C-180.64473651797937 419.6959012699109 -182.5679063732251 433.2903292940521 -191.9375 445.53125 C-201.44764532216038 456.80756516770447 -212.3272193416684 462.39125688409274 -226.875 463.8125 C-240.68591367939575 464.48365671228163 -253.00042178417056 460.79493151066396 -263.9375 452.1875 C-272.87928588258137 443.67473919764353 -278.69504616001325 432.1697402094742 -279.23828125 419.8125 C-279.59125216381295 404.6599629141721 -277.5248085741516 392.6317280966055 -267 381 C-255.61569482890843 370.1179435864566 -242.67543738355417 365.16178777116056 -227 365 C-211.18801700160265 366.23286501101364 -200.86670923628793 372.9780520603365 -190 384 C-189.51684326171875 383.7307470703125 -189.0336865234375 383.461494140625 -188.535888671875 383.18408203125 C-170.24548280679565 373.0257909121777 -151.6319753222747 363.5113613154119 -133 354 C-133 350.865947018194 -135.1560747898498 349.6053059860184 -137.2519073486328 347.49925231933594 C-137.87840682983398 346.87994338989256 -138.50490631103514 346.26063446044924 -139.150390625 345.62255859375 C-140.1306244659424 344.6418866729736 -140.1306244659424 344.6418866729736 -141.1306610107422 343.6414031982422 C-143.30115245408535 341.4723098886565 -145.4786520157133 339.31039443260875 -147.65625 337.1484375 C-149.15884106126143 335.649574844592 -150.66099241836275 334.15027127122875 -152.1627197265625 332.6505432128906 C-156.12363873906315 328.69727421256516 -160.09052638611743 324.7500468199938 -164.05865478515625 320.80401611328125 C-168.10389843854165 316.7792014510702 -172.14351269640676 312.74874564546974 -176.18359375 308.71875 C-184.11687287361843 300.8069449124465 -192.05646406335455 292.9015061417126 -200 285 C-203.52820989037002 286.1547196777483 -206.86164818403685 287.3531565476082 -210.1875 289 C-222.68276094193482 294.560391119161 -236.47356099037384 294.00216287724163 -249.1875 289.28515625 C-262.1383802403469 283.3673234735081 -270.79726792403636 273.1062454525071 -276 260 C-279.7975807060873 247.25469489052898 -279.4607916732136 233.2153709120808 -274 221 C-271.06561361710703 215.60555270432556 -267.5674001651466 211.1218001490347 -263 207 C-262.5114453125 206.5191796875 -262.022890625 206.038359375 -261.51953125 205.54296875 C-252.3201553457301 196.91172532437858 -240.86540838308926 194.1691492059624 -228.51953125 193.93359375 C-219.89052378637084 194.2496395283571 -212.84990873582467 196.53394676176106 -205 200 C-203.33491910998714 200.6706175153813 -201.66848688878304 201.3379020282607 -200 202 C-191.1280514274169 193.17430319260166 -182.26144541761266 184.3432780976499 -173.40170288085938 175.50532722473145 C-169.28801669008448 171.40209761844469 -165.1724827354344 167.30075699175813 -161.052734375 163.20361328125 C-157.08026146139136 159.25280196949365 -153.1126322364317 155.2971867200028 -149.14837646484375 151.33813095092773 C-147.63178574547177 149.82524803466427 -146.11343011670843 148.3141323080721 -144.59332275390625 146.80478286743164 C-142.47163880483342 144.69752494370155 -140.3562032267267 142.58418489649557 -138.2421875 140.46923828125 C-137.28841217041014 139.52624877929688 -137.28841217041014 139.52624877929688 -136.31536865234375 138.564208984375 C-133.10238146435873 135.800666553576 -133.10238146435873 135.800666553576 -132 132 C-133.53201049804687 131.21520263671874 -133.53201049804687 131.21520263671874 -135.094970703125 130.41455078125 C-138.12892571501038 128.86012397426168 -141.16235847714455 127.30468240206062 -144.195556640625 125.748779296875 C-147.6089074009971 123.9978891029769 -151.02363848166277 122.24972936422643 -154.439208984375 120.503173828125 C-168.7445022876327 113.17871767660884 -168.7445022876327 113.17871767660884 -175.546875 109.44140625 C-176.42303466796875 108.9623583984375 -177.2991943359375 108.483310546875 -178.201904296875 107.98974609375 C-179.73185902093536 107.14573135612068 -181.25474188032513 106.288715975548 -182.768798828125 105.41650390625 C-186.2976469346021 103.37139539529147 -186.2976469346021 103.37139539529147 -190.21484375 103.53515625 C-192.2372968436673 105.19471841657602 -194.12840855597858 106.92094472516087 -196 108.75 C-206.8213408934739 118.47684964486803 -220.2558687134666 122.52296171547803 -234.6875 121.9375 C-248.04216192757755 120.63797803189203 -260.4127261177365 115.10774156295227 -269.11328125 104.6953125 C-278.60345504243696 91.13792136794717 -282.43040529326487 76.19177372826084 -279.62939453125 59.8359375 C-276.61371561298483 46.83180280979106 -269.72470483441055 37.03755920991325 -258.71484375 29.65234375 C-247.04796298396386 22.551494017577994 -234.4869045608537 20.707226224654868 -221 23 C-207.74452018642677 26.313869953393308 -197.58049642376994 33.697891649872176 -190 45 C-182.8606060466067 57.515759082109994 -181.93617994049322 69.9649942586658 -184 84 C-183.09983154296873 84.4626123046875 -182.19966308593752 84.925224609375 -181.272216796875 85.40185546875 C-151.23393877079096 100.8423557026868 -151.23393877079096 100.8423557026868 -140.125 106.6875 C-139.3871728515625 107.07446044921875 -138.649345703125 107.4614208984375 -137.88916015625 107.860107421875 C-132.89445771568168 110.49191802556736 -127.98036175979519 113.24764973854893 -123.12890625 116.13671875 C-120.46275072777075 117.21785704433518 -119.67023386722312 117.02019810916286 -117 116 C-114.6693999077946 114.1049407986369 -114.6693999077946 114.1049407986369 -112.3232421875 111.663818359375 C-111.40258972167967 110.7429393005371 -110.48193725585938 109.82206024169922 -109.53338623046875 108.87327575683594 C-108.53772080751818 107.8622909586384 -107.54222092815755 106.85114310229193 -106.546875 105.83984375 C-105.52191674219881 104.8092885947338 -104.4962928596276 103.77939505634653 -103.47003173828125 102.75013732910156 C-100.77382983183833 100.04249407662078 -98.08675927654886 97.32596227733796 -95.4014892578125 94.60748291015625 C-92.65853270661577 91.83381027369778 -89.90703875888565 89.06863571250446 -87.15625 86.302734375 C-81.7624398016379 80.8767725561337 -76.37824765795659 75.44139257339691 -71 70 C-72.15471967774832 66.47179010962991 -73.35315654760817 63.13835181596319 -75 59.8125 C-80.1145806196316 48.299904672664425 -80.344319805026 35.114264025746394 -76.3125 23.1875 C-70.30955133775458 8.655181835643301 -61.501135233220225 -0.3573311693320562 -47.1875 -6.8125 C-31.37738433962562 -12.70254308915908 -13.721341229084715 -9.072131157460815 0 0 Z M-41.78125 26.58203125 C-45.62327401327792 30.904308264937647 -47.77169716819034 34.53432941645564 -48.3125 40.375 C-47.83285506959149 45.938881192738876 -46.32554081473714 50.13225463841681 -42.0625 53.8125 C-37.11176412004724 57.34873991425198 -33.75942113886066 58.56628694497809 -27.671875 58.44921875 C-21.980624937365008 57.49235653186692 -17.753448673740877 53.972629757958515 -14 49.75 C-11.910711606087489 44.004456916740665 -10.966320595542925 38.39909468980552 -13.5625 32.6875 C-16.420939955851907 27.82520522973649 -19.875734370780833 24.89219156427204 -25.125 22.6875 C-31.268024157903255 21.218515962240524 -37.025614722408136 22.35827623371776 -41.78125 26.58203125 Z M-245.875 60.875 C-249.31390749665297 65.9322169068426 -250.58462084848298 69.75919907879879 -249.5234375 75.9140625 C-248.34974342730862 80.59132096878506 -247.08773524955302 84.5624105438281 -242.98046875 87.390625 C-237.6464875044105 89.97129054301094 -232.83399609372202 91.13072931670317 -227 89.41015625 C-220.9702368728353 86.9320149647827 -218.0019569399064 82.64035508086218 -215 77 C-213.58885502228077 72.76656506684226 -213.08300764035246 69.11856855504776 -214.90625 64.90625 C-218.12221582225322 59.381385638693175 -221.83491983736565 56.05502672087812 -228 54 C-235.23040616328785 53.291136650658046 -241.02323727872738 55.45244166446 -245.875 60.875 Z M9 70 C7.716513410048037 71.32247099572152 6.473782541601281 72.68459446913693 5.25 74.0625 C-4.273556720714964 83.78542264240468 -16.499232065215836 87.86202076903577 -29.875 88.3125 C-40.596157896527814 88.09286040160762 -49.42271029928406 84.48912179172542 -59 80 C-62.43553608982489 83.41057132226328 -65.86758564895044 86.8246019010447 -69.296630859375 90.24169921875 C-70.4604227389454 91.40050318897897 -71.62511548537839 92.55840322083182 -72.790771484375 93.71533203125 C-78.5295148598924 99.41222270947706 -84.2129556218535 105.08249224087282 -89.459228515625 111.2431640625 C-92.66509433800454 114.89859275174786 -96.22220415056239 118.22170279572279 -99.720703125 121.59375 C-101.18281122416411 123.02698953042335 -102.59617691631172 124.50962541791893 -104 126 C-104 126.66 -104 127.32 -104 128 C-92.78 133.61 -81.56 139.22 -70 145 C-67.69 143.01999999999998 -65.38 141.04000000000002 -63 139 C-50.85409885559574 129.57645600865186 -37.15491973319416 126.65321441274381 -22 128 C-9.470570239151698 130.48696340452653 0.9749232270236234 135.95356930300323 9 146 C17.480207526099775 160.09743900706331 19.742170410425103 173.91169425145898 15.88671875 189.87890625 C15.012981007564349 192.95430914077573 14.040864300439523 195.97740279566688 13 199 C18.95092800130118 204.55328534683636 25.080657828764572 209.6999036885705 31.5126953125 214.67626953125 C38.20774461033068 219.88454357629263 44.604682906256016 225.43082569192202 51 231 C55.5808291433907 228.50928301328946 59.25058358286691 225.31403313950864 63.125 221.875 C68.3998895809392 217.24546649353428 73.7365535016055 212.72597078993314 79.19140625 208.30859375 C82.50298479634927 205.58655908950985 85.75313058669155 202.79860269101806 89 200 C93.124643001246 196.4454250826082 97.27207903795522 192.9320770162481 101.5 189.5 C110.85771352052438 181.89772165983985 119.95851545069382 173.9744770559098 129 166 C128.7228515625 165.275546875 128.44570312500002 164.55109375 128.16015625 163.8046875 C124.15754690972005 153.1215664850179 123.20748344466551 143.6547039184597 124.50830078125 132.294189453125 C124.59991485595702 131.48859085083006 124.69152893066405 130.68299224853516 124.78591918945313 129.8529815673828 C124.89188919067385 128.93575569152833 124.89188919067385 128.93575569152833 125 128 C124.39073165893558 127.6964761352539 123.7814633178711 127.3929522705078 123.15373229980469 127.08023071289063 C117.31628292329134 124.17166622273515 111.47988280535583 121.26100735547541 105.64455699920654 118.34818458557129 C102.64696295107751 116.85195980777894 99.64890349626091 115.35668682697298 96.650146484375 113.86279296875 C84.63006315566099 107.87415727721805 72.63194380814764 101.86232369771118 60.77125549316406 95.56300354003906 C51.97093422760736 90.89993318249319 43.04710260489264 86.48667585377427 34.125 82.0625 C30.79309176161155 80.40991170181938 27.46257188624952 78.75456909915891 24.1328125 77.09765625 C23.01412277221681 76.54453514099121 23.01412277221681 76.54453514099121 21.872833251953125 75.98023986816406 C18.87709276941348 74.48944716466075 15.977229017270474 72.98613110255941 13.11669921875 71.243896484375 C11.121805568698392 69.83111643597472 11.121805568698392 69.83111643597472 9 70 Z M158.6875 132.4375 C155.15774596419965 137.7974968691783 153.98056001817008 142.62850011356284 155 149 C157.03848730716942 154.16902138603672 160.0969144540761 157.8750462857116 165.11328125 160.3125 C170.0639200365015 162.11645947499846 173.62832972706263 162.4417243251832 178.6875 160.8125 C184.6743875256716 157.5366558821797 187.77882174664967 154.70800298595003 190.3359375 148.3671875 C191.76100933660473 143.2872255412796 190.6880790111096 138.98522682575674 188.4375 134.3125 C185.8327153460147 130.24194046904094 182.49124757659598 127.7410325082516 178 126 C169.96090378351488 124.56579504119046 164.31528490408698 126.5055105065029 158.6875 132.4375 Z M-118.52482891082764 141.1556854248047 C-119.06776497840883 141.7013868713379 -119.61070104598997 142.2470883178711 -120.17008972167969 142.809326171875 C-120.79686111450195 143.43197357177735 -121.42363250732421 144.0546209716797 -122.06939697265625 144.69613647460938 C-123.09115020751955 145.73406845092774 -123.09115020751955 145.73406845092774 -124.133544921875 146.79296875 C-124.85574722290039 147.5147329711914 -125.57794952392578 148.2364971923828 -126.32203674316406 148.98013305664063 C-128.71535675546238 151.37554865672848 -131.09786689085112 153.78142715351854 -133.48046875 156.1875 C-135.13462563031538 157.84725006831778 -136.78944464058986 159.50634048189565 -138.4449005126953 161.164794921875 C-142.8064459215361 165.5378108098959 -147.15890886207706 169.9197602030296 -151.50958251953125 174.3035888671875 C-155.9482353030998 178.77289491100495 -160.3953617172142 183.23375132489008 -164.841796875 187.6953125 C-173.56954323575485 196.45526190161712 -182.28772418599206 205.2246660101613 -191 214 C-190.34 215.32 -189.68 216.64 -189 218 C-180.10341592827706 215.07898674383304 -171.20713249415087 212.15705990841806 -162.31118392944336 209.23411178588867 C-158.17585212314094 207.87539126331018 -154.04043496366614 206.51693200643365 -149.90478515625 205.1591796875 C-138.60045583630847 201.44773177671524 -127.29871664374667 197.72850055556154 -116 194 C-115.14717437744139 193.71869232177735 -114.29434875488283 193.43738464355468 -113.41567993164063 193.14755249023438 C-108.29617142872866 191.45847817636047 -103.17788114104627 189.76579105915584 -98.06122589111328 188.0680923461914 C-96.45550213604156 187.53576961377422 -94.84944103648917 187.00446331995192 -93.24303436279297 186.47420501708984 C-91.03117840042847 185.7438034092202 -88.82061005122364 185.00963312436014 -86.6103515625 184.2744140625 C-85.95116981506348 184.05759727478028 -85.29198806762696 183.84078048706056 -84.61283111572266 183.61739349365234 C-81.5609180304084 182.74654036414404 -81.5609180304084 182.74654036414404 -79 181 C-78.77285995822018 179.36933233769074 -78.60544914000337 177.73023996670585 -78.46484375 176.08984375 C-78.37783203125 175.10048828125 -78.29082031249999 174.1111328125 -78.201171875 173.091796875 C-78.11416015625 172.05087890625 -78.02714843749999 171.0099609375 -77.9375 169.9375 C-77.84662109375 168.89271484375 -77.7557421875 167.8479296875 -77.662109375 166.771484375 C-77.43739092008141 164.1813084998857 -77.21687689563095 161.59084233252267 -77 159 C-84.65867336696436 154.98459061129822 -92.32513691514788 150.98438055009706 -100 147 C-101.19544433593751 146.37859130859374 -101.19544433593751 146.37859130859374 -102.4150390625 145.74462890625 C-104.35640959219609 144.73913285949016 -106.30186895753596 143.74231750674974 -108.25 142.75 C-109.30703125 142.20859375 -110.36406249999999 141.6671875 -111.453125 141.109375 C-114.24087992200089 139.89507684379103 -115.96948229413164 139.21895874073584 -118.52482891082764 141.1556854248047 Z M-44.25 164.4375 C-47.56823877444609 169.29634963401034 -48.678843451497215 173.08436420838146 -48 179 C-46.27074370337141 184.2118980475132 -44.22549504847805 188.8246924774395 -39.3125 191.625 C-34.035128556289834 193.7160339682625 -28.344724806950353 194.19135912171373 -22.94921875 192.26953125 C-18.133166154795788 189.7429083681477 -15.242883906621046 186.36147942258 -12.75 181.625 C-11.04838369541585 175.66934293395556 -11.824832715295429 171.18602197008167 -14.71875 165.86328125 C-17.11865609434284 162.3731739115807 -20.202064401075006 159.8989677994625 -24 158 C-32.789455059731466 157.19737012179098 -38.0760223992574 157.74902426586218 -44.25 164.4375 Z M-81.979736328125 199.8291015625 C-83.83933235168456 200.43225440979003 -83.83933235168456 200.43225440979003 -85.73649597167969 201.04759216308594 C-87.10169056680024 201.4952204654975 -88.4668685097727 201.94289955694225 -89.83203125 202.390625 C-91.2502543555571 202.85211177415292 -92.66861755399538 203.31316821720273 -94.08711242675781 203.77381896972656 C-97.1009570059797 204.7533570431833 -100.11395253328271 205.73544670165072 -103.12628173828125 206.71963500976563 C-110.12667909659095 209.006672319069 -117.13101385996566 211.28159725784988 -124.13525390625 213.5568332672119 C-125.67943634308983 214.05850697991633 -127.2235646713194 214.56034727245003 -128.76763916015625 215.06235313415527 C-143.0724006910879 219.71290970274453 -157.40314410645453 224.27660433390122 -171.760986328125 228.7607421875 C-172.46491012573242 228.98112655639648 -173.16883392333983 229.20151092529298 -173.8940887451172 229.42857360839844 C-175.71676297821733 229.99882970012595 -177.5402274604112 230.56655837016723 -179.36376953125 231.134033203125 C-181.94041951707385 231.9094829532844 -181.94041951707385 231.9094829532844 -184 233 C-184 238.94 -184 244.88 -184 251 C-161.05771914499704 258.90781603069246 -138.0804202912281 266.67985129243914 -114.98681640625 274.135498046875 C-113.22815269056417 274.70349745271835 -111.4695256329671 275.27161037497217 -109.7109375 275.83984375 C-108.86830352783204 276.1120927429199 -108.02566955566408 276.3843417358398 -107.15750122070313 276.6648406982422 C-102.12303729418448 278.2966020347949 -97.1067737463606 279.9719643755994 -92.1015625 281.69140625 C-90.97177978515623 282.0782861328125 -89.84199707031252 282.465166015625 -88.677978515625 282.86376953125 C-86.68049133481162 283.5521911769844 -84.68587663240743 284.2490390324676 -82.695068359375 284.95654296875 C-81.42481811523436 285.3937768554688 -81.42481811523436 285.3937768554688 -80.12890625 285.83984375 C-79.41806884765623 286.09113037109375 -78.70723144531252 286.3424169921875 -77.974853515625 286.601318359375 C-75.63054771888807 287.0745846921815 -74.22941319557128 286.83402079759554 -72 286 C-70.53198955669313 284.1967901487608 -70.53198955669313 284.1967901487608 -69.3125 281.9375 C-62.65508620926522 271.4687168140696 -53.68719765692933 266.6905191799253 -42.25 262.6875 C-27.045687849855824 259.4472367548873 -12.945697890984889 263.02829237930774 0 271 C0.9900000000000091 271.65999999999997 1.9800000000000182 272.32 3 273 C12.432524895234565 265.8672367438263 21.77476426170955 258.65348403494573 30.908203125 251.139892578125 C31.534042968749986 250.62579833984375 32.15988281249997 250.1117041015625 32.8046875 249.58203125 C33.351088867187514 249.13061767578125 33.89749023437503 248.6792041015625 34.46044921875 248.214111328125 C35.91628182170098 247.06602132900116 37.457324179696684 246.02845054686884 39 245 C37.492788518334294 241.23618138377336 35.35083068582662 239.41536517850255 32.1875 236.9375 C31.202656250000018 236.15375 30.217812500000036 235.37 29.203125 234.5625 C28.68041015624999 234.147421875 28.157695312499982 233.73234374999998 27.619140625 233.3046875 C24.84589597251653 231.07003439039931 22.145672167706493 228.75019560411664 19.4375 226.4375 C14.044255724890718 221.84842696948292 8.563002955590605 217.38259149323054 3 213 C1.8772265625000273 213.554296875 0.7544531249999977 214.10859375 -0.40234375 214.6796875 C-1.9138214087222423 215.41195617938098 -3.425553957581883 216.14369890165884 -4.9375 216.875 C-5.672910156249998 217.2398046875 -6.4083203124999955 217.604609375 -7.166015625 217.98046875 C-19.98168545438176 224.13646735799998 -33.459911356011105 224.95904786507865 -46.96875 220.25390625 C-56.93978796541228 216.12928874111168 -65.59358110827068 209.7009098151572 -71.375 200.4375 C-71.91125 199.633125 -72.44749999999999 198.82875 -73 198 C-76.39539744974502 198 -78.75013409186286 198.77518867116297 -81.979736328125 199.8291015625 Z M-246.875 231.875 C-250.29750946910934 236.90810216045492 -251.63520745615807 240.83748876886875 -250.58984375 246.98046875 C-249.25483569925262 251.55132412904896 -246.94347034682716 254.76622388094682 -242.9140625 257.32421875 C-237.57976308167196 259.9185452589138 -232.80363520647524 261.23380873300255 -226.96484375 259.33984375 C-221.74612308798498 257.0865269781767 -218.69194413180549 253.97951897342557 -216 249 C-214.4808923873022 244.44267716190654 -214.03461549753493 240.3011104735482 -215.90625 235.83984375 C-219.10821160841598 230.3493006073636 -222.8801613110826 227.03994622963913 -229 225 C-236.23040616328785 224.29113665065805 -242.02323727872738 226.45244166446 -246.875 231.875 Z M47.125 257.4375 C41.892617631088626 262.1400208631988 36.46580622612851 266.5731486763587 31 271 C24.939831890980884 275.93307484885116 18.905308046353355 280.8820663598271 13 286 C13.193359375 286.5220703125 13.38671875 287.044140625 13.5859375 287.58203125 C18.883365939970304 302.5564453055595 19.59292916198592 317.21840085975134 13 332 C6.786554028067371 343.49307925444185 -2.363694575795762 351.503757709391 -14.82421875 355.421875 C-29.17207244775301 359.2342310992234 -43.3661491914971 357.4621223682071 -56.3125 350.25 C-61.189097777779665 347.1372780141832 -65.12274187694419 343.2671500013519 -69 339 C-81.22116488028479 344.6020192408988 -93.15390409153204 350.6444194827892 -105 357 C-103.49315032326959 360.53239023298784 -101.44633388246595 362.79621659686245 -98.73388671875 365.4931640625 C-97.85312469482423 366.37377502441404 -96.97236267089843 367.25438598632815 -96.06491088867188 368.16168212890625 C-95.10327649220696 369.1131043101011 -94.14153279800007 370.0644160313453 -93.1796875 371.015625 C-92.1956189285859 371.99596129413163 -91.21199258284872 372.976741681144 -90.22879028320313 373.95794677734375 C-87.64557285942831 376.53354466778427 -85.05640487969382 379.10307857406485 -82.4659423828125 381.67138671875 C-79.82132380327576 384.29551067106866 -77.18238990251609 386.92533770985574 -74.54296875 389.5546875 C-69.36751927879044 394.7087167031749 -64.18576877620046 399.8563515669307 -59 405 C-57.56346069335939 404.3742407226563 -57.56346069335939 404.3742407226563 -56.097900390625 403.73583984375 C-54.82704262279918 403.1857408191904 -53.556124725378396 402.6357806935188 -52.28515625 402.0859375 C-51.34089782714844 401.6739611816406 -51.34089782714844 401.6739611816406 -50.3775634765625 401.253662109375 C-37.64673700597484 395.7589991664704 -24.13318842517492 395.1460561783757 -11 400 C-3.0581113917426137 403.7385229065022 3.199069816694646 408.4312996453748 9 415 C14.623298885352028 413.38810976576224 19.49686344929887 410.7462400888746 24.625 408 C35.08870264173845 402.4635486683888 45.65134596436053 397.14693573717113 56.25 391.875 C66.15060217103485 386.94706987197577 76.03128461206364 382.0044988316298 85.783447265625 376.787109375 C98.7094024368335 369.9138428897471 111.89100618857219 363.51503758378453 125 357 C124.93071289062499 356.4184716796875 124.86142578124998 355.836943359375 124.7900390625 355.23779296875 C123.21918080869631 341.66747833847074 124.17500125285983 330.4821401724431 130 318 C124.60103116057655 312.9617917512292 119.08654834481774 308.2045942116047 113.25 303.6875 C107.67934610343661 299.3757681604985 102.30141985256557 294.88730122128527 96.976318359375 290.27685546875 C92.86728029310393 286.7250045877035 88.68248789760014 283.29137931770987 84.421875 279.921875 C78.93585325521178 275.56845129284545 73.54243241788981 271.0978540715921 68.140625 266.640625 C58.05862293999962 256.03032232967314 58.05862293999962 256.03032232967314 47.125 257.4375 Z M-190 267 C-190.66 268.32 -191.32 269.64 -192 271 C-191.09757568359373 271.8971875 -190.19515136718752 272.794375 -189.265380859375 273.71875 C-185.8876161381621 277.07828481958626 -182.51326835496286 280.44123443716984 -179.139892578125 283.80517578125 C-177.68507983109794 285.2549891717581 -176.22936716738087 286.7039001676672 -174.772705078125 288.15185546875 C-172.6676544899506 290.24464642691447 -170.56596380639655 292.3407637448512 -168.46484375 294.4375 C-167.8228855895996 295.074296875 -167.18092742919922 295.71109375 -166.51951599121094 296.3671875 C-162.77746568379547 300.1087820193617 -159.24719488461133 303.96957301433116 -155.7879180908203 307.9728698730469 C-150.52221865208315 313.94308630888304 -144.81804653119735 319.5287333083456 -139.22021484375 325.184814453125 C-137.64690461231825 326.7799079721666 -136.07990155037317 328.3812454190613 -134.51904296875 329.988525390625 C-132.25347758533968 332.320641461129 -129.96915315845678 334.6327789136826 -127.6796875 336.94140625 C-126.63577346801759 338.02706626892086 -126.63577346801759 338.02706626892086 -125.57077026367188 339.13465881347656 C-124.91303619384766 339.78961837768554 -124.25530212402344 340.4445779418945 -123.57763671875 341.119384765625 C-123.00584686279296 341.7014820861816 -122.43405700683593 342.2835794067383 -121.84494018554688 342.88331604003906 C-119.98937927346046 344.2586239024288 -119.98937927346046 344.2586239024288 -117.42994689941406 343.74330139160156 C-114.80505586147825 342.9403681415908 -112.44326948451663 341.93936374869446 -109.97265625 340.7421875 C-109.02140869140624 340.2843286132812 -108.0701611328125 339.8264697265625 -107.090087890625 339.354736328125 C-106.09098388671873 338.8664233398438 -105.09187988281252 338.3781103515625 -104.0625 337.875 C-103.04083740234375 337.3808862304687 -102.01917480468751 336.8867724609375 -100.966552734375 336.377685546875 C-93.27841445020067 332.6504897065097 -85.61807652671422 328.8684513385221 -78 325 C-78.14143831773748 322.27054140025723 -78.2879952922786 319.5415187693025 -78.4375 316.8125 C-78.47681640625001 316.04357421875 -78.51613281250002 315.2746484375 -78.556640625 314.482421875 C-78.59853515625 313.73154296875 -78.64042968749999 312.9806640625 -78.68359375 312.20703125 C-78.72025146484376 311.52100830078126 -78.75690917968751 310.8349853515625 -78.794677734375 310.128173828125 C-79.02822736170324 307.7074222212043 -79.5100001708451 305.3807511979828 -80 303 C-89.1730361428834 299.9265653038985 -98.34728874859223 296.8567933836144 -107.52293109893799 293.79114818573 C-111.78789640636151 292.3660789587855 -116.0525003610586 290.93995141186366 -120.316162109375 289.510986328125 C-143.46723638232126 281.75301172695026 -166.67763589773776 274.22754256531164 -190 267 Z M-44.3125 298.4375 C-47.55729557622689 303.3647821713075 -48.512083737220934 307.0598286482373 -48 313 C-46.106890933738896 318.7789645180602 -43.4387441034321 322.8648320926402 -38.20703125 326.11328125 C-33.6948357436919 327.9261456392601 -28.763047435717112 327.51716734891835 -24 327 C-18.723831750657837 324.45613316549577 -15.462723189244116 320.77917405956384 -12.75 315.625 C-11.048784151762675 309.67074453116936 -11.82057906458283 305.18203481046214 -14.72265625 299.86328125 C-17.36347764196887 296.0110738984124 -20.5336787652692 293.48877374491025 -25 292 C-33.23711319637374 291.1215665996874 -38.46939194693351 292.2785482683894 -44.3125 298.4375 Z M159.1875 329.3125 C155.08141685371572 334.3571164368635 153.451589944631 338.3659042800029 153.72265625 344.828125 C154.24318413714826 348.9043715528793 155.5362123187166 351.72307883122085 158.65234375 354.44140625 C164.52776375999116 358.8013902320442 169.72331149174528 359.90688699509406 177 359 C182.3579809146217 357.18310681787915 185.32656860731788 354.0655754776118 188.0625 349.1875 C190.2585584551693 344.1944346610509 190.4856053395884 341.24331296325323 189 336 C186.28743703614668 330.9623830671295 183.2561943808622 327.141636371874 177.73828125 325.20703125 C170.15878621295616 323.29184490832733 165.20322211177285 324.36623959698676 159.1875 329.3125 Z M-246.3125 401.3125 C-249.80105737227467 405.77113749718524 -251.02839397366324 409.21117965921485 -250.9375 414.9375 C-250.16199562864887 419.4946773732206 -248.38005634376813 422.83620318533553 -245 426 C-239.9428612975634 429.21043074929963 -235.01496495922885 430.87490399406965 -229 430 C-222.8059814208176 427.99080779293314 -219.08538581325786 424.70730165456706 -216 419 C-214.4808923873022 414.44267716190654 -214.03461549753493 410.3011104735482 -215.90625 405.83984375 C-219.10821160841598 400.3493006073636 -222.8801613110826 397.03994622963916 -229 395 C-236.15473911208088 394.4496354529169 -241.4309805556652 395.95704662903074 -246.3125 401.3125 Z M-45.4375 436.125 C-47.88981206845605 440.63725420595915 -48.419222903286425 443.88548057990556 -48 449 C-46.28182634094446 454.7673727281673 -43.40588585247414 458.2134512472595 -38.140625 461.08984375 C-33.31419267868063 463.1419582223858 -28.956931815728808 463.5458347728453 -23.875 462 C-18.33382185645928 459.6111850129224 -15.16083785392226 455.3721469188846 -12.5625 450.0625 C-11.581614419569064 444.7221229509871 -12.172214427089841 440.68868256873674 -14.5625 435.8125 C-18.228603822895707 431.5823802043511 -21.86579594672969 428.61689095651667 -27.4609375 427.515625 C-35.38503470350355 427.07675192411364 -40.61857676147969 429.9468932839483 -45.4375 436.125 Z " fill="none" transform="translate(286,14)"/>

  </g>
</svg>