<?xml version="1.0" encoding="UTF-8"?>
<svg width="100" height="100" viewBox="0 0 100 100" fill="none" xmlns="http://www.w3.org/2000/svg">
  <g transform="translate(25, 25) scale(0.09765625)">
    
<path stroke="#f472b6" stroke-width="1.5" stroke-linecap="round" d="M0 0 C8.118533378221997 2.1718930517115886 15.271683988179788 12.587971593035093 21.120094299316406 18.457940101623535 C22.204789306075355 19.54291772958331 23.289705643947713 20.627674121814607 24.37482452392578 21.712227821350098 C27.29798767042 24.635105918615515 30.218073259219153 27.56104074728629 33.13758659362793 30.487563848495483 C36.19737513413153 33.55363482450519 39.260025796093544 36.61684423965718 42.322364807128906 39.6803674697876 C48.111078491369625 45.472180115429836 53.89723992937297 51.26653548415828 59.682472705841064 57.06182485818863 C66.27304816417214 63.66360616534074 72.86648829368193 70.26252327360412 79.46016216278076 76.86120975017548 C93.0146937736013 90.42617323293977 106.56565115794697 103.99470209839886 120.1142349243164 117.56560611724854 C123.17641914702028 111.54301588342967 123.17641914702028 111.54301588342967 125.9474868774414 105.38347721099854 C126.25419311523439 104.65545398712158 126.56089935302734 103.92743076324463 126.87689971923828 103.17734622955322 C127.19885314941405 102.40570636749267 127.52080657958984 101.63406650543213 127.8525161743164 100.83904361724854 C128.2063739013672 99.99751239776612 128.56023162841797 99.1559811782837 128.92481231689453 98.28894901275635 C129.69225728575464 96.46336963930507 130.45855570764056 94.63730793507328 131.22382354736328 92.81081485748291 C133.31377905416386 87.8240729600757 135.41392316239768 82.84162058530464 137.5126724243164 77.85857486724854 C137.95757522583008 76.8016695022583 138.40247802734376 75.74476413726806 138.8608627319336 74.6558313369751 C143.89040257927644 62.71222292555899 148.9490041520155 50.781025604364146 154.02057647705078 38.855217933654785 C155.03673931383508 36.46465399932755 156.0519057258224 34.07366625339622 157.06604766845703 31.682244300842285 C158.49502663943076 28.312891440845007 159.92726662557493 24.9449427582271 161.3603286743164 21.577324867248535 C161.78250671386718 20.580179634094236 162.20468475341795 19.583034400939937 162.63965606689453 18.555672645568848 C168.97111039479347 3.708730646771464 168.97111039479347 3.708730646771464 172.1142349243164 0.5656061172485352 C174.1376724243164 0.19451236724853516 174.1376724243164 0.19451236724853516 176.4892349243164 0.12810611724853516 C177.64552398681639 0.06816471099853594 177.64552398681639 0.06816471099853594 178.8251724243164 0.007012367248535156 C182.2011366309082 0.8308398101540426 183.12275726650597 2.7790495945036504 185.1142349243164 5.565606117248535 C186.4685592651366 8.296456336974927 186.4685592651366 8.296456336974927 187.6838150024414 11.292412757873535 C188.14688552856444 12.422472419738767 188.60995605468747 13.552532081604003 189.0870590209961 14.716835975646973 C189.82174156188967 16.546567039489748 189.82174156188967 16.546567039489748 190.5712661743164 18.413262367248535 C191.09765735852852 19.707169457659177 191.62475653380943 21.000788719218427 192.15251922607422 22.294137001037598 C193.53913472979832 25.698565440970427 194.91524279044444 29.107138528550912 196.28843688964844 32.51699924468994 C197.35587705026398 35.165062278602704 198.42841635574467 37.81104394617561 199.5011043548584 40.456984519958496 C202.68208864377772 48.304238401153185 205.84465958363046 56.1588492128123 209.0026626586914 64.01537418365479 C211.135694481487 69.32139674498876 213.27090926630797 74.6265405539216 215.40665817260742 79.93146991729736 C216.1790344676374 81.85079352264803 216.95049940679144 83.77048158096441 217.72187042236328 85.69020938873291 C220.08250051337063 91.5601290232187 222.46066949958822 97.42185771070824 224.8862075805664 103.26531314849854 C225.31021347045896 104.28907550811768 225.73421936035157 105.31283786773682 226.17107391357422 106.3676233291626 C226.9564073704504 108.25901459660886 227.74615666792596 110.14858086766077 228.5411605834961 112.03592777252197 C229.054567489624 113.27277065277099 229.054567489624 113.27277065277099 229.5783462524414 114.53460025787354 C229.8770310974121 115.24604694366457 230.1757159423828 115.95749362945557 230.48345184326172 116.6904993057251 C231.1142349243164 118.56560611724854 231.1142349243164 118.56560611724854 231.1142349243164 121.56560611724854 C236.6659468443126 116.83106418178411 241.9174077664424 111.88802601298475 247.0439224243164 106.69841861724854 C247.76032897949221 105.978225440979 248.47673553466797 105.25803226470947 249.21485137939453 104.51601505279541 C251.47545054768398 102.2433177115573 253.73273980759473 99.9673778268034 255.9892349243164 97.69060611724854 C258.9837794824891 94.66952761995275 261.98158477618153 91.65174020909221 264.9814224243164 88.63591861724854 C265.66783813476565 87.94120456695556 266.3542538452148 87.2464905166626 267.0614700317383 86.53072452545166 C267.69618225097656 85.89270908355712 268.33089447021484 85.2546936416626 268.9848403930664 84.59734439849854 C269.5425109863281 84.03443698883056 270.10018157958984 83.47152957916259 270.6747512817383 82.89156436920166 C273.417477036474 80.36514465885139 275.9668782104902 80.17249022097856 279.63636016845703 80.22829532623291 C284.9119420454109 80.94645539133508 289.69369348444144 83.36660043829136 294.5322036743164 85.49138736724854 C295.7076121520996 85.9947813796997 296.8830206298828 86.49817539215088 298.0940475463867 87.01682376861572 C300.5706622700846 88.08045446380638 303.0442811563336 89.1489992886042 305.5143814086914 90.22747135162354 C308.66961040308485 91.60502474730923 311.83131980203933 92.96681094032735 314.99589824676514 94.32272911071777 C318.0310465951995 95.62382600706506 321.06296075775435 96.93237863417804 324.0947036743164 98.24138736724854 C325.79012550354 98.97280696868896 325.79012550354 98.97280696868896 327.5197982788086 99.71900272369385 C328.5747196960449 100.17925342559815 329.62964111328125 100.63950412750245 330.7165298461914 101.11370182037354 C332.1026371002197 101.71659786224365 332.1026371002197 101.71659786224365 333.5167465209961 102.33167362213135 C340.67868847479326 105.73394209564475 340.67868847479326 105.73394209564475 342.5678482055664 109.34124088287354 C342.9776089477539 110.53032047271728 343.3873696899414 111.71940006256104 343.8095474243164 112.94451236724854 C344.17017776489257 113.97011013031005 344.17017776489257 113.97011013031005 344.53809356689453 115.0164270401001 C345.09321896582526 116.60684353397664 345.63926488304577 118.20044569869117 346.1783218383789 119.79638004302979 C347.22543986502865 122.8946448132871 348.29778242689457 125.98363635202497 349.3710708618164 129.07293033599854 C351.2864112053477 134.60905693753566 353.172765509481 140.15434812037876 355.0382423400879 145.7074728012085 C356.126011994084 148.9453539236535 357.2191389111307 152.18117005611 358.3261489868164 155.41252994537354 C359.62252239557466 159.19673171003043 360.8964972174323 162.98812715176052 362.1689224243164 166.78044986724854 C362.5657019042969 167.93061084747313 362.96248138427734 169.08077182769776 363.3712844848633 170.26578617095947 C365.4811617034483 176.6291709184287 366.6921291287601 181.85532943349196 366.1142349243164 188.56560611724854 C364.7392349243164 191.12810611724854 364.7392349243164 191.12810611724854 362.1142349243164 192.56560611724854 C353.62603479424627 193.6339731044548 345.18201082817615 191.43800311412372 336.9189224243164 189.72185611724854 C335.47606976627725 189.42954744592475 334.0330426271287 189.1380988390062 332.58985137939453 188.84746646881104 C328.8234751825139 188.08661774159307 325.0595569223047 187.3142409764651 321.29605865478516 186.53929996490479 C317.44261753656815 185.74801655391173 313.58692781443597 184.96785103492417 309.7314224243164 184.18669986724854 C302.190137319668 182.65710409170165 294.65141822943895 181.11530198414118 287.1142349243164 179.56560611724854 C287.1155337429047 180.14060352325438 287.1168325614929 180.71560092926026 287.1181707382202 181.30802249908447 C287.1474186873496 195.3225977938397 287.13793848179904 209.336704142428 287.085768699646 223.3512201309204 C287.06146540094784 230.12871370066077 287.0500954136835 236.90576102010283 287.0695571899414 243.68328189849854 C287.08830732400526 250.22578786132408 287.0705062333095 256.7676070428342 287.0305576324463 263.31002140045166 C287.02127382531495 265.80420758029175 287.0241744820742 268.29847026082837 287.03954124450684 270.7926263809204 C287.05899902566256 274.2908526172011 287.03487383655914 277.7862986900232 287.0007095336914 281.28435611724854 C287.0165257263184 282.31222736358643 287.0323419189453 283.3400986099243 287.0486373901367 284.3991174697876 C286.9305039188009 290.6984809425509 285.7970439913915 294.02503332919406 281.32321071624756 298.48202991485596 C280.5942487049103 299.1696100616455 279.865286693573 299.85719020843504 279.1142349243164 300.56560611724854 C277.4109954819736 302.3249650520008 275.71129803719913 304.08775675989244 274.01427459716797 305.85311222076416 C272.02100004454627 307.88629639986283 270.01844271818976 309.91027059948516 268.0168228149414 311.93523502349854 C266.90863303406763 313.05954524718015 265.8005739624384 314.1839843185055 264.69263458251953 315.3085412979126 C254.61608445605054 325.52913029221224 244.50504778921788 335.71580600986806 234.38589572906494 345.8941984176636 C226.92428404618937 353.40036518726845 219.47945857233026 360.9224017717964 212.05568319559097 368.46599543094635 C206.81261695909348 373.79077415789607 201.5502638545545 379.0960162498532 196.2737483382225 384.38764798641205 C193.13274504647143 387.538757813658 190.00068207649775 390.6976466076898 186.88949012756348 393.87821674346924 C183.95884687831062 396.8734982262753 181.0047504405071 399.84359399557974 178.0320701599121 402.7971410751343 C176.9543819702888 403.8759700709351 175.88500489817307 404.9631873942997 174.82548713684082 406.0598669052124 C167.4322815525794 413.69847340942476 160.25341713786622 417.7977678235749 150.14796698093414 420.9298059940338 C148.17337012720756 421.5471188395552 146.22063322478644 422.2081029952647 144.26764965057373 422.89042568206787 C140.3211001081312 424.26911641954945 136.35963231171334 425.60057459951895 132.3957290649414 426.92839908599854 C130.90053352890587 427.4315382052419 129.40540834367215 427.93488642791976 127.91034698486328 428.4384241104126 C123.07477911419119 430.06578278523057 118.23718973817236 431.68708071832873 113.3993911743164 433.30779361724854 C111.72052045482982 433.870560154864 110.04165634463149 434.43334640997523 108.3627986907959 434.9961519241333 C101.38278142218712 437.33560633852517 94.40225335460121 439.67352508929775 87.42027378082275 442.00711727142334 C77.46717699182517 445.3337777151804 67.51730115694994 448.66971442534197 57.571652472019196 452.01857936382294 C50.54171307918611 454.38485620681695 43.50834638742512 456.74074828292055 36.472348153591156 459.08894741535187 C32.2832066977129 460.4873236621333 28.095666887553733 461.8901034418322 23.9117374420166 463.30400562286377 C19.984693454035124 464.6308325751726 16.053545845598336 465.9446952773384 12.11893081665039 467.24889278411865 C10.681098416127384 467.72793211651856 9.244782581636997 468.211552892663 7.810190200805664 468.70020961761475 C0.501487251035627 471.18677258194776 -6.081819273186483 473.36055726382034 -13.885765075683594 472.56560611724854 C-16.448265075683594 471.06560611724854 -16.448265075683594 471.06560611724854 -17.885765075683594 468.56560611724854 C-18.699530823036298 462.2401160642969 -17.540470473615045 459.2039219405808 -13.721702575683594 454.17498111724854 C-13.1158432006836 453.41701236724856 -12.509983825683591 452.6590436172485 -11.885765075683594 451.87810611724854 C-11.25928070068359 451.06212955474854 -10.6327963256836 450.24615299224854 -9.987327575683594 449.40544986724854 C-8.65151234701706 447.6683620797731 -7.307522940635934 445.93753434744315 -5.956077575683594 444.21257877349854 C-3.234746322985117 440.73325407517814 -0.562524291336473 437.21772345858636 2.1103286743164063 433.70110416412354 C3.454161361765358 431.9337218711153 4.800547683846247 430.1682785301425 6.149391174316406 428.40471744537354 C10.533996366916725 422.66998755654504 14.848699885348253 416.8893274718215 19.114234924316406 411.06560611724854 C24.700859127019527 403.43820595008765 30.406998308683086 395.90916046947444 36.153297424316406 388.40154361724854 C41.11277552654599 381.91018038691715 45.97410282037427 375.35289315393777 50.801002502441406 368.76262760162354 C57.25850577655052 359.9676835426618 63.890405943176745 351.3060320523188 70.5270767211914 342.64592838287354 C72.06718699698627 340.6272728437183 73.5937812654305 338.59909452648134 75.1142349243164 336.56560611724854 C73.7269593080004 333.46992626972855 72.10237215912957 331.2625776117343 69.7704849243164 328.80779361724854 C69.10589263916017 328.10452945709227 68.44130035400389 327.40126529693606 67.7565689086914 326.67669010162354 C67.04959869384766 325.9387823867798 66.3426284790039 325.20087467193605 65.6142349243164 324.44060611724854 C64.89244049072266 323.68013980865476 64.17064605712892 322.91967350006104 63.426979064941406 322.13616275787354 C58.75903739389315 317.2344326163245 54.010267736408025 312.4290755808356 49.192359924316406 307.67498111724854 C47.30578057205423 305.76003215066663 45.54344610078107 303.7991940041633 43.801734924316406 301.75310611724854 C40.59184571961052 297.9942572385787 37.12633370367203 294.5381820519919 33.614234924316406 291.06560611724854 C29.58124291558775 287.0778460390818 25.72021022925479 283.05065697707585 22.051734924316406 278.72185611724854 C18.812641202846294 275.11705826593504 15.32607348646033 271.7581563575655 11.880836486816406 268.35173892974854 C8.357699714649641 264.8530542346587 5.019472637720753 261.27028381900743 1.8095474243164063 257.47966861724854 C-0.9931459195323953 254.31533742258057 -4.036866138527984 251.39487389678635 -7.065452575683594 248.44841861724854 C-10.819996298990276 244.5649635214678 -10.033953335710606 240.34597824987588 -10.032936096191406 235.24068546295166 C-10.036612784266467 234.26174630999566 -10.040289472341541 233.28280715703966 -10.044077575206757 232.27420318126678 C-10.055146713634713 228.97305754480084 -10.058963687161508 225.67194334616306 -10.062767028808594 222.37078189849854 C-10.069029135018951 220.01247398685143 -10.075675705692532 217.65416706904614 -10.082679748535156 215.29586124420166 C-10.101929695846408 208.20429378827282 -10.11251047729479 201.11272985715235 -10.12140753865242 194.0211427807808 C-10.125788933764568 190.68340228850803 -10.131156076083073 187.34566330769033 -10.136396408081055 184.00792407989502 C-10.153408229048708 172.91603582234183 -10.167903576376517 161.82414856142137 -10.175145149230957 150.73224925994873 C-10.177055105978994 147.85329658487444 -10.17897543106315 144.97434391792768 -10.180931091308594 142.09539127349854 C-10.181414831504227 141.37982397302986 -10.181898571699861 140.66425667256118 -10.182396970689297 139.92700551450253 C-10.190701705370174 128.3288371345417 -10.216046249363515 116.73077174546694 -10.248511768877506 105.13264836370945 C-10.281555238409368 93.23127304158423 -10.29959139012486 81.32995011515595 -10.302789390087128 69.42852866649628 C-10.304956865750697 62.74376749973469 -10.314181015135546 56.05913646438333 -10.339250564575195 49.374417304992676 C-10.362442387173246 43.08879723607522 -10.36680036667181 36.80344819278221 -10.356489181518555 30.517796516418457 C-10.355991574605923 28.20705866634787 -10.362377686333971 25.896307872655314 -10.376045227050781 23.585610389709473 C-10.393624403815465 20.438242117762485 -10.386726777667604 17.29186134818177 -10.373512268066406 14.14449405670166 C-10.384481514096265 13.223682070970533 -10.39545076012611 12.302870085239412 -10.406752407550812 11.354154706001282 C-10.344273935172566 5.218025512600768 -10.344273935172566 5.218025512600768 -8.089655876159668 2.009894371032715 C-5.416734817223471 0.25823385868790893 -3.1901058275301466 -0.18206795781659757 0 0 Z M6.114234924316406 29.565606117248535 C6.114234924316406 95.56560611724854 6.114234924316406 161.56560611724854 6.114234924316406 229.56560611724854 C47.204411507432866 217.83282530592763 47.204411507432866 217.83282530592763 88.26200485229492 205.9879846572876 C90.42900435657356 205.35931583957634 92.59611811430369 204.73104208466697 94.76325225830078 204.10283756256104 C116.9077553512085 197.6827445165499 139.03516997585567 191.2078282657406 161.1142349243164 184.56560611724854 C157.1915688765526 179.87166020958693 153.11404488724776 175.42110004142108 148.7807846069336 171.1051721572876 C148.17199787437914 170.4948254340887 147.56321114182472 169.88447871088982 146.9359763264656 169.25563663244247 C144.91401523162085 167.2297158122142 142.88853350085017 165.20735373679264 140.8630142211914 163.18499088287354 C139.40543516395573 161.72605563953957 137.94806867804607 160.2669079962716 136.49089813232422 158.8075647354126 C132.54736518876928 154.85948577653392 128.60069132560204 150.91456085696655 124.65329718589783 146.97034287452698 C120.52295826124163 142.8425392915817 116.39506370465665 138.7122924480945 112.26677703857422 134.58243656158447 C105.34101827024591 127.65486076005175 98.41315829681531 120.729391503525 91.4841079711914 113.80510807037354 C83.46255523371624 105.78900994597787 75.44462874790204 97.76929825805075 67.42855137586594 89.74772506952286 C60.54793092266931 82.86257556785256 53.66537488353839 75.97936548278092 46.78117877244949 69.09779113531113 C42.6682709035496 64.98644553463147 38.5560494738107 60.87441947471663 34.44556999206543 56.76064586639404 C30.587629368882062 52.89982912328594 26.727274798082362 49.04144281930054 22.8649959564209 45.18496608734131 C21.4438733974893 43.7651719741961 20.023612563731433 42.34451476045172 18.604251861572266 40.922959327697754 C16.67604798375625 38.992047576897356 14.74483064342688 37.06420310648288 12.812767028808594 35.1371545791626 C12.24391224086284 34.566069069504735 11.675057452917102 33.99498355984688 11.088964641094208 33.406592428684235 C8.956356052786191 30.766248995147947 8.956356052786191 30.766248995147947 6.114234924316406 29.565606117248535 Z M176.1142349243164 31.565606117248535 C168.21743727536006 49.191171362678546 160.6804202280273 66.96310422310043 153.2018814086914 84.76921939849854 C149.581048354018 93.38543975984139 145.95171679272278 101.99483004405552 142.1884536743164 110.54998111724854 C141.61283607892727 111.86467164826881 141.0372332228722 113.17936863281147 140.4616470336914 114.49407291412354 C139.4265868834304 116.84878334307592 138.3823848544259 119.19950491443001 137.3273696899414 121.54534244537354 C136.88062896728516 122.56394351959227 136.43388824462892 123.58254459381104 135.9736099243164 124.63201236724854 C135.58656890869142 125.49769840240478 135.1995278930664 126.36338443756102 134.8007583618164 127.25530338287354 C133.991053118059 129.9801400548779 134.1305711114425 130.92297621496576 135.1142349243164 133.56560611724854 C136.8471745857273 135.73304531410062 136.8471745857273 135.73304531410062 139.0832290649414 137.87517642974854 C139.9240251159668 138.71574588775633 140.7648211669922 139.55631534576418 141.63109588623047 140.42235660552979 C143.001402053833 141.76943698883056 143.001402053833 141.76943698883056 144.3993911743164 143.14373111724854 C145.3302101135254 144.07030521392824 146.2610290527344 144.9968793106079 147.22005462646484 145.95153141021729 C149.69096613559188 148.41100598379293 152.17075461105696 150.86133713130465 154.65250396728516 153.30986881256104 C157.18488745222507 155.8115266259382 159.7087662279198 158.32173233461793 162.2333755493164 160.83123111724854 C167.18537445231811 165.7510862423751 172.14680441206946 170.66133365187778 177.1142349243164 175.56560611724854 C180.29897474320637 174.15380198735593 182.4912797374866 172.4629844389108 184.9806900024414 170.03728580474854 C185.72438339233395 169.31603519439696 186.46807678222655 168.5947845840454 187.23430633544922 167.85167789459229 C188.02612808227536 167.07149295806886 188.81794982910156 166.2913080215454 189.6337661743164 165.48748111724854 C190.45173171997067 164.6832873916626 191.26969726562498 163.87909366607667 192.1124496459961 163.05053043365479 C193.83754404212846 161.34869312061676 195.55966891490908 159.64384120145846 197.2790298461914 157.93621158599854 C199.918726177265 155.32353289372156 202.581401016438 152.73581547440955 205.2450942993164 150.14763736724854 C206.91779987545328 148.491580458978 208.58907376078355 146.8340759524104 210.2587661743164 145.17498111724854 C211.06070907592772 144.40289310455324 211.86265197753903 143.6308050918579 212.68889617919922 142.83532047271729 C216.92305384748977 138.82929085569833 216.92305384748977 138.82929085569833 218.2609634399414 133.43938541412354 C217.88254302978515 132.4910382461548 217.5041226196289 131.54269107818604 217.1142349243164 130.56560611724854 C216.7521694946289 129.5267023086548 216.3901040649414 128.48779850006105 216.0170669555664 127.41741275787354 C215.32653228759767 125.71379581451416 215.32653228759767 125.71379581451416 214.6220474243164 123.97576236724854 C214.3643507385254 123.33508319854735 214.10665405273437 122.6944040298462 213.84114837646484 122.03431034088135 C212.97960785824432 119.89652989731138 212.10944123537882 117.76237214236966 211.2392349243164 115.62810611724854 C210.6233752040411 114.10505122138869 210.00807404277344 112.58177036672126 209.3932876586914 111.05828189849854 C208.04597946649392 107.72260089121566 206.69489908639775 104.38847942991715 205.3412857055664 101.05535221099854 C202.95325687501588 95.17305668973897 200.57840896416496 89.28547265858111 198.2040786743164 83.39763736724854 C191.22503247703304 66.09919940815075 184.24312040920313 48.802955558257054 177.1142349243164 31.565606117248535 C176.78423492431642 31.565606117248535 176.45423492431644 31.565606117248535 176.1142349243164 31.565606117248535 Z M286.1142349243164 101.56560611724854 C286.1142349243164 121.36560611724855 286.1142349243164 141.16560611724853 286.1142349243164 161.56560611724854 C308.7072907433971 166.43288996487553 308.7072907433971 166.43288996487553 331.3642349243164 170.94060611724854 C332.73017413876937 171.20204394539115 334.0960593272162 171.46376419738644 335.4618911743164 171.72576236724854 C338.67882925883384 172.34177178768806 341.8962455578121 172.95511728460343 345.1142349243164 173.56560611724854 C342.62191089999476 163.53696897176374 339.3247806558535 153.7569414073109 336.0712661743164 143.95623111724854 C335.1082486009778 141.0475249773686 334.15811120989815 138.13479472942296 333.2079849243164 135.22185611724854 C332.59418931619126 133.36742853633976 331.97963342743463 131.51325238828116 331.3642349243164 129.65935611724854 C331.08289703369144 128.79064884185792 330.8015591430664 127.9219415664673 330.5116958618164 127.02690982818604 C330.2413150024414 126.22176944732666 329.9709341430664 125.4166290664673 329.6923599243164 124.58709049224854 C329.45936187744144 123.8808050918579 329.2263638305664 123.17451969146728 328.9863052368164 122.44683170318604 C327.3358043985645 118.88637979692905 324.934278057221 117.27435023083962 321.4089126586914 115.75627994537354 C320.67482681274413 115.43617450714112 319.94074096679685 115.1160690689087 319.18441009521484 114.78626346588135 C318.3968382263184 114.45176685333251 317.60926635742186 114.11727024078368 316.7978286743164 113.77263736724854 C315.9855632019043 113.42174549102782 315.17329772949216 113.07085361480713 314.33641815185547 112.70932865142822 C312.62230035027767 111.97059748598852 310.906678097911 111.2353487526611 309.1896743774414 110.50335025787354 C306.5547621933983 109.37939743452742 303.9250433663675 108.24393767768723 301.2958755493164 107.10662174224854 C299.63015318068744 106.39044449442824 297.9641470350655 105.6749268329493 296.2978286743164 104.96013736724854 C295.5082325744629 104.61956806182862 294.71863647460935 104.2789987564087 293.90511322021484 103.92810916900635 C290.14387343260165 102.19025563068654 290.14387343260165 102.19025563068654 286.1142349243164 101.56560611724854 Z M267.7730321884155 110.7837610244751 C267.19875515937804 111.35895984649659 266.62447813034055 111.93415866851807 266.03279876708984 112.52678775787354 C265.37512008666994 113.1830917739868 264.71744140625003 113.8393957901001 264.03983306884766 114.51558780670166 C263.3140707397461 115.24494541168212 262.5883084106445 115.97430301666259 261.8405532836914 116.72576236724854 C260.69916648864745 117.86693012237549 260.69916648864745 117.86693012237549 259.5347213745117 119.03115177154541 C257.0054647255749 121.56110834936533 254.4797743040429 124.09459490631681 251.9540786743164 126.62810611724854 C250.20694604743738 128.37710263950152 248.45959336096178 130.12587936238967 246.71202850341797 131.87444400787354 C242.57363322507518 136.01627493479376 238.437472644021 140.1603270514172 234.30237346887589 144.3054485321045 C229.13450185255004 149.48557455416363 223.9631957876635 154.66226687258916 218.7919692993164 159.83904361724854 C209.5632871181225 169.07846707800059 200.33768384405818 178.3209585918221 191.1142349243164 187.56560611724854 C192.45377141355686 190.54332711738152 193.92774913166198 192.62861212535788 196.23326873779297 194.93187808990479 C197.19443855285647 195.89933963775636 197.19443855285647 195.89933963775636 198.1750259399414 196.88634586334229 C199.2278677368164 197.9307583999634 199.2278677368164 197.9307583999634 200.3019790649414 198.99627017974854 C201.0419361877441 199.73812564849854 201.78189331054688 200.47998111724854 202.54427337646484 201.24431705474854 C204.9911199596187 203.69486824665051 207.4450920682176 206.13814563397227 209.8993911743164 208.58123111724854 C211.59844026079372 210.27908838805888 213.29712017776933 211.9773151616013 214.99544525146484 213.67589664459229 C218.5541729288749 217.23306013183034 222.11623665628787 220.78683721198252 225.6808853149414 224.33806705474854 C230.26183871453054 228.9019984660918 234.836149228821 233.47251757039317 239.40821933746338 238.0453462600708 C242.91391833997488 241.55077409989042 246.42221166676245 245.05359542515077 249.9314022064209 248.55552768707275 C251.61979697344674 250.24072944399427 253.30757719410047 251.926547134075 254.9947452545166 253.61297702789307 C257.34594877552155 255.96202549520507 259.70040734384924 258.30775893209807 262.0558853149414 260.65252017974854 C262.75980407714843 261.3568921279907 263.46372283935546 262.0612640762329 264.18897247314453 262.7869806289673 C264.8269325256348 263.42067569732666 265.464892578125 264.05437076568603 266.12218475341797 264.7072687149048 C266.6791154575348 265.26252357482906 267.23604616165164 265.81777843475345 267.809853553772 266.3898591995239 C268.9453533310649 267.6771947842686 268.9453533310649 267.6771947842686 270.1142349243164 267.56560611724854 C270.1142349243164 215.42560611724855 270.1142349243164 163.28560611724853 270.1142349243164 109.56560611724854 C268.93563796701847 109.4535504203624 268.93563796701847 109.4535504203624 267.7730321884155 110.7837610244751 Z M168.1142349243164 199.56560611724854 C167.45313217163084 199.75922733306885 166.79202941894528 199.95284854888916 166.11089324951172 200.15233707427979 C157.3832608828281 202.70819734828873 148.65512872422704 205.262347638569 139.9267349243164 207.81560611724854 C139.21083316802978 208.0250372314453 138.49493141174315 208.23446834564209 137.7573356628418 208.45024585723877 C119.88997088348327 213.67690042917866 102.0187927043973 218.89009335472713 84.1376724243164 224.06951236724854 C83.36473279953003 224.29341773986818 82.59179317474366 224.5173231124878 81.79543113708496 224.74801349639893 C74.28047620149852 226.9247566894735 66.76506386797718 229.09991107789327 59.248820304870605 231.27220058441162 C44.18093275851854 235.62756401760942 29.123462353295253 240.01126017357473 14.114234924316406 244.56560611724854 C15.069807320955164 245.6881898001165 16.02648163352262 246.80983556544282 16.983619689941406 247.93108463287354 C17.51624923706055 248.55580158233641 18.048878784179692 249.1805185317993 18.59764862060547 249.8241662979126 C20.33039360227974 251.81381311224732 22.154587671724684 253.67013297890935 24.051734924316406 255.50310611724854 C26.59008027465245 258.0032808608126 28.99659781651252 260.53715249518257 31.301734924316406 263.25310611724854 C34.558535550871284 267.0489633992332 38.06036222140389 270.5518278743886 41.614234924316406 274.06560611724854 C45.64723421030297 278.053360705033 49.50825966798473 282.08055531477714 53.176734924316406 286.40935611724854 C55.87454077183679 289.41175294755345 58.74467311635388 292.2282142847116 61.614234924316406 295.06560611724854 C65.6472160253891 299.0533744257083 69.50825954568512 303.08055517046364 73.1767349243164 307.40935611724854 C75.87454077183679 310.4117529475535 78.74467311635385 313.2282142847116 81.6142349243164 316.06560611724854 C85.64721602538913 320.05337442570834 89.50825954568512 324.08055517046364 93.1767349243164 328.40935611724854 C95.87454077183679 331.41175294755345 98.74467311635388 334.2282142847116 101.6142349243164 337.06560611724854 C105.6472160253891 341.0533744257083 109.50825954568512 345.08055517046364 113.1767349243164 349.40935611724854 C115.87454077183679 352.4117529475535 118.74467311635385 355.2282142847116 121.6142349243164 358.06560611724854 C125.06361095898757 361.4763120170019 128.47543373017223 364.8618207081584 131.6142349243164 368.56560611724854 C136.2939664540914 374.0843804213014 141.54524468947992 379.0801072710601 146.6913833618164 384.15862369537354 C148.17130448805034 385.62203918104376 149.64377115393145 387.0926933879566 151.1142349243164 388.56560611724854 C152.5770811769387 385.63991361200397 152.5963009200522 382.57594859276696 152.88660430908203 379.3599328994751 C152.95758468985557 378.6089671128988 153.02856507062913 377.85800132632255 153.10169637203217 377.0842790007591 C153.33972646432633 374.55504478021317 153.5719368439564 372.0253097787536 153.8041763305664 369.49553775787354 C153.97310215968994 367.6872946424986 154.142365722029 365.87908305070573 154.31194305419922 364.0709009170532 C154.77231142922284 359.1498441276134 155.22746040163912 354.2283175781421 155.68135499954224 349.3066599369049 C156.06018476898996 345.20341930066155 156.44138963550563 341.1004007002047 156.82255399227142 336.9973763823509 C157.72140658952313 327.32067802866965 158.61589808596398 317.6435831112349 159.5077896118164 307.96624088287354 C160.42911101932668 297.9704816779125 161.35806344126672 287.97545218295943 162.29072630405426 277.9807453751564 C163.09018092410747 269.4104475191997 163.88475812645186 260.83970693874596 164.67543351650238 252.26859468221664 C165.14816745197265 247.14469743825333 165.6228130419898 242.02099507011104 166.10219955444336 236.89771556854248 C166.55269394924716 232.08105277377027 166.9971179970613 227.26386840248136 167.43681144714355 222.4462080001831 C167.5994969272577 220.6750609796037 167.76435781175132 218.90411227410462 167.93151664733887 217.1333818435669 C168.15879588886492 214.72216886105878 168.37831632860434 212.3103733030794 168.59583282470703 209.8982629776001 C168.6642096674442 209.19243125498295 168.73258651018142 208.4865995323658 168.80303537845612 207.75937896966934 C169.0771423183778 204.632958159093 169.12051635459437 202.5844504080824 168.1142349243164 199.56560611724854 Z M185.1142349243164 208.56560611724854 C182.95241473741305 228.1644594192763 181.0082331579017 247.7784124062327 179.18497490882874 267.41125679016113 C178.9022181725245 270.45401686528675 178.61834566374506 273.4966725289505 178.33454102277756 276.5393350124359 C177.66573918690517 283.71035467666104 176.99907190439853 290.881570537907 176.3337173461914 298.05291080474854 C175.650365565195 305.4176967699224 174.9627632584553 312.7820778342537 174.27325850725174 320.14629006385803 C173.67608305247097 326.52630003533505 173.08175706957678 332.9065712691961 172.48965233564377 339.28705382347107 C172.13815950741036 343.074251459073 171.7855623763491 346.8613377923577 171.43008613586426 350.6481637954712 C171.09764094350157 354.19072995695547 170.76876133278972 357.73360961184653 170.44257354736328 361.2767572402954 C170.26614366713977 363.18363308931 170.08609055454963 365.0901726354054 169.9059066772461 366.9966974258423 C169.3676270104284 372.88180588356977 168.9806420092923 378.65586319573555 169.1142349243164 384.56560611724854 C174.73399736303782 379.88811510421124 179.92194827993507 374.8943912721125 185.0788345336914 369.71453189849854 C185.9479244995117 368.84558795928956 186.81701446533202 367.9766440200806 187.71244049072266 367.0813684463501 C190.07533836955827 364.7178966782177 192.43600753096456 362.35224083720686 194.7956817150116 359.9855532646179 C197.26957173403116 357.50537685746036 199.74632774691463 355.0280657364749 202.22277069091797 352.5504388809204 C206.90299901868792 347.8671127390039 211.58067418312532 343.18124522462347 216.25741916894913 338.4944409132004 C221.58559928806238 333.15505133940957 226.91664729183577 327.8185290627612 232.24792850017548 322.4822361469269 C243.20654001289188 311.5131953664394 254.16157568563892 300.5405904843812 265.1142349243164 289.56560611724854 C263.7681968029681 286.5685663510323 262.2769495608208 284.47884469176046 259.95723724365234 282.1613702774048 C259.30804321289065 281.5079817581177 258.6588491821289 280.85459323883055 257.98998260498047 280.18140506744385 C257.27873733520505 279.4757793045044 256.5674920654297 278.7701535415649 255.8346939086914 278.04314517974854 C254.7101278686523 276.91573162078856 254.7101278686523 276.91573162078856 253.5628433227539 275.7655420303345 C251.08353161786732 273.28252544120056 248.59709291742894 270.8067821571135 246.1103286743164 268.33123111724854 C244.388859345568 266.6109535916002 242.6677591745954 264.89030657929567 240.94701385498047 263.1693048477173 C237.34120784028067 259.5650630724812 233.73206529191947 255.96420752690528 230.1203384399414 252.36589908599854 C225.47885117845874 247.7414333971073 220.8440060186308 243.11038007769884 216.2114019393921 238.47701740264893 C212.65937983187757 234.9252664574556 209.10476331993846 231.3761219480258 205.54924964904785 227.82786655426025 C203.8385261605349 226.12033611727387 202.12841726405867 224.41218971950576 200.41892051696777 222.70343112945557 C198.036584148085 220.32324979442805 195.65099234584352 217.94638309367403 193.2643814086914 215.57048892974854 C192.551111907959 214.85676624298097 191.83784240722656 214.14304355621337 191.10295867919922 213.40769290924072 C190.45658447265623 212.76558368682862 189.81021026611324 212.12347446441652 189.14424896240234 211.46190738677979 C188.57994391441343 210.8992781829834 188.01563886642452 210.336648979187 187.4342336654663 209.7569704055786 C186.28686450541556 208.45393782620204 186.28686450541556 208.45393782620204 185.1142349243164 208.56560611724854 Z M87.1142349243164 348.56560611724854 C85.76552166473405 350.0273493768913 85.76552166473405 350.0273493768913 84.4189224243164 351.98357486724854 C83.60487945556639 353.10699283599854 83.60487945556639 353.10699283599854 82.7743911743164 354.25310611724854 C82.18528961181642 355.0781061172485 81.59618804931642 355.9031061172485 80.9892349243164 356.75310611724854 C79.71740493981207 358.50817839231615 78.44390582698492 360.26204207319927 77.1689224243164 362.01482486724854 C76.5034439086914 362.93054264068604 75.83796539306641 363.84626041412355 75.1523208618164 364.78972721099854 C71.86832378455586 369.26254067152234 68.49156256784448 373.6630916118326 65.1142349243164 378.06560611724854 C60.04692935527629 384.68446255193504 55.03996022273071 391.3407185238525 50.114234924316406 398.06560611724854 C45.14365133107782 404.85020383728994 40.09515203386525 411.56975612459075 34.989234924316406 418.25310611724854 C34.322789611816404 419.1262042617798 33.6563442993164 419.999302406311 32.969703674316406 420.89885807037354 C30.39450894768339 424.2718445817923 27.818972076609725 427.64456350237015 25.240211486816406 431.01482486724854 C23.526806566834154 433.2573559144941 21.819695138338858 435.5045303585185 20.114234924316406 437.75310611724854 C19.603605041503897 438.4185040664673 19.092975158691416 439.083902015686 18.566871643066406 439.76946353912354 C15.979862490840105 442.82774988753215 15.979862490840105 442.82774988753215 15.114234924316406 446.56560611724854 C22.234098587319835 445.12446387533834 28.99587069733022 443.0752191645602 35.876197814941406 440.75847721099854 C37.0186798095703 440.3777959060669 38.161161804199224 439.99711460113525 39.33826446533203 439.6048974990845 C42.44410454563629 438.56904368600874 45.54858365448791 437.52923152473653 48.65248417854309 436.48758363723755 C51.90650691829913 435.39662192271874 55.16225054194135 434.3108199362142 58.417808532714844 433.22445011138916 C64.57047499519336 431.17046378843565 70.72159859671865 429.11189733906514 76.87216991186142 427.0516468286514 C83.87951399712915 424.7046550275337 90.88857987954853 422.3628262002642 97.89778912067413 420.0214116573334 C112.30518292185042 415.20851849857206 126.71042114408164 410.3892038371289 141.1142349243164 405.56560611724854 C141.4506972190683 402.2920868843802 141.4506972190683 402.2920868843802 138.5165786743164 399.71013736724854 C137.36819123302894 398.5926783933494 136.21280348879668 397.4823832845531 135.0517349243164 396.37810611724854 C133.84023268402353 395.1990316671134 132.63057984383198 394.01805382656846 131.4228286743164 392.83513736724854 C130.84258941650393 392.26746646881105 130.2623501586914 391.69979557037357 129.6645278930664 391.11492252349854 C127.88675168444854 389.33826617390974 126.23233247094211 387.4883836090404 124.6142349243164 385.56560611724854 C120.95033751489456 381.2422071741307 116.90051846650857 377.3262263111349 112.8742446899414 373.34514713287354 C109.98931151838266 370.48017601872215 107.18644483997099 367.6039072219133 104.5517349243164 364.50310611724854 C101.45592528133466 360.86787509708057 98.15660551589997 357.46007972599705 94.8017349243164 354.06560611724854 C94.27313873291016 353.5241193008423 93.7445425415039 352.982632484436 93.1999282836914 352.42473697662354 C91.8769632528743 351.0983528793401 90.49946810060345 349.82681993480884 89.1142349243164 348.56560611724854 C88.45423492431641 348.56560611724854 87.79423492431641 348.56560611724854 87.1142349243164 348.56560611724854 Z " fill="none" transform="translate(97.8857650756836,15.434393882751465)"/>

  </g>
</svg>