<?xml version="1.0" encoding="UTF-8"?>
<svg width="100" height="100" viewBox="0 0 100 100" fill="none" xmlns="http://www.w3.org/2000/svg">
  <g transform="translate(25, 25) scale(0.09765625)">
    
<path stroke="#f472b6" stroke-width="1.5" stroke-linecap="round" d="M0 0 C1.5665114092826826 -0.0012176424264906949 1.5665114092826826 -0.0012176424264906949 3.1646695137023926 -0.002459883689880371 C4.371938385963439 -0.015498620271682695 5.579207258224486 -0.02853735685348513 6.823060035705566 -0.04197120666503906 C8.16447521751686 -0.031160666278665206 9.505886655338799 -0.019877371950623002 10.847294330596924 -0.008172392845153809 C12.270962057572106 -0.013931916916590681 13.69462235971892 -0.021871903585549024 15.118267059326172 -0.03180861473083496 C19.03525169847954 -0.052729036568430754 22.951629191440624 -0.04234365112038663 26.868616342544556 -0.026877522468566895 C31.090926584345866 -0.015588977872467269 35.31313063151313 -0.03301426469736135 39.535419940948486 -0.04677712917327881 C47.80877198471768 -0.06904087164134709 56.08189756927115 -0.06419444348865833 64.35525858402252 -0.049713924527168274 C71.07759328013123 -0.038433983405777195 77.79986439119168 -0.03688537735182551 84.52220582962036 -0.042333006858825684 C85.47800860613584 -0.043099172040820144 86.43381138265133 -0.043865337222814604 87.41857787966728 -0.0446547195315361 C89.36011383801365 -0.04625330396788074 91.30164977797769 -0.04787436909840426 93.24318569898605 -0.0495176762342453 C111.46020920041309 -0.06378436399482035 129.67710701476145 -0.04736804174639164 147.89410990476608 -0.020515844225883484 C163.53404456289076 0.0018237682617671114 179.17379368521347 -0.002056102121470893 194.81372499465942 -0.02510964870452881 C212.9643865644513 -0.051851429276711936 231.11493790082397 -0.06241098170229242 249.26561641693115 -0.047048330307006836 C251.20011470983115 -0.045455540407921435 253.13461302008602 -0.043883687919058056 255.0691113471985 -0.042333006858825684 C256.02098659008743 -0.04156162925064566 256.9728618329763 -0.040790251642465636 257.95358178019524 -0.039995498955249786 C264.66988338546736 -0.03567362548164832 271.3861152232661 -0.04297552910797342 278.10240602493286 -0.054730772972106934 C286.2844544600935 -0.0687363157898705 294.46626298373013 -0.06499695568072383 302.64828383922577 -0.03832705318927765 C306.82504111144164 -0.025162497848012277 311.00139801583805 -0.020081000087539547 315.17815256118774 -0.036572813987731934 C318.9989898611746 -0.051431421407289624 322.81905431126773 -0.04335312338984609 326.6398211121559 -0.01668505370616913 C328.024681731474 -0.011082525868094217 329.40960714954787 -0.013980209892167084 330.794426381588 -0.026063993573188782 C332.67178899761194 -0.041193764471555316 334.5493335679196 -0.02273523786407783 336.42664766311646 -0.002459883689880371 C337.4709886026383 -0.0016481220722198708 338.51532954216003 -0.0008363604545593706 339.59131717681885 0 C342.2956585884094 0.6267458200454683 342.2956585884094 0.6267458200454683 344.634090423584 2.929788827896118 C346.8536902950099 6.532509149421328 346.80064732338394 9.67328972278196 346.6862835884094 13.771277070045471 C346.68062379837033 14.541063904762268 346.6749640083313 15.310850739479065 346.6691327095032 16.10396444797516 C346.64683730373093 18.549705251786957 346.5966573396199 20.993951923560942 346.5456585884094 23.43924582004547 C346.525584584808 25.102636037827033 346.507335385997 26.76604934526648 346.4909710884094 28.42948019504547 C346.4469954241437 32.495806397543895 346.3780183753907 36.56102325887393 346.2956585884094 40.62674582004547 C347.5773089790344 40.60056173801422 348.85895936965943 40.57437765598297 350.1794476509094 40.54740011692047 C354.9352921471685 40.456888718078936 359.69106057260706 40.39949287011526 364.4475140571594 40.35208761692047 C366.50591252075554 40.32694563411059 368.5642217291341 40.292827058555865 370.6223187446594 40.24954855442047 C373.58136428305045 40.18888312490691 376.53922961386013 40.160533211029666 379.4987835884094 40.13846457004547 C380.4187109565735 40.11265814304352 381.33863832473753 40.086851716041565 382.2864422798157 40.06026327610016 C383.1470324897766 40.05988562107086 384.00762269973757 40.059507966041565 384.8942914009094 40.05911886692047 C386.02680330276485 40.042464280128485 386.02680330276485 40.042464280128485 387.1821942329407 40.02547323703766 C390.44239207657284 40.952987142576156 391.45414031759765 42.84773013037063 393.2956585884094 45.62674582004547 C393.79229402542114 48.64591753482835 393.79229402542114 48.64591753482835 393.7877240180969 52.07204306125641 C393.79992227554317 54.02563742160797 393.79992227554317 54.02563742160797 393.81236696243286 56.01869833469391 C393.8012754038157 57.455026052025694 393.78983488583657 58.8913511087971 393.7780804634094 60.32767355442047 C393.7802671635176 61.84575370246385 393.78426517674257 63.36383216160112 393.789936542511 64.8819032907486 C393.7984946413722 68.147174758234 393.79472765365 71.41211736770735 393.7815136909485 74.67737257480621 C393.761166853346 79.84208925894457 393.77115868762706 85.00647487837351 393.7857708930969 90.17119467258453 C393.8147982523763 102.06763426695615 393.80407598131313 113.96397639820296 393.79307222366333 125.86043417453766 C393.78339620921764 136.76217635785324 393.7821207114346 147.66374583285855 393.8129529953003 158.56545847654343 C393.82632232934475 163.69794616939788 393.8203728486845 168.82993718830087 393.799587726593 173.96239519119263 C393.79059629407783 177.15744684214067 393.79808066828457 180.35230738364862 393.80999994277954 183.5473428964615 C393.81212906961883 185.02677364399423 393.80741917781165 186.50623277951416 393.79529428482056 187.98561537265778 C393.7796520132707 190.0085066415259 393.79098936694544 192.03155245402812 393.8035931587219 194.0544649362564 C393.8013310050964 195.75096261024476 393.8013310050964 195.75096261024476 393.7990231513977 197.4817329645157 C394.4090981661893 201.34511769578276 396.0191283242255 203.49040373395255 398.2956585884094 206.62674582004547 C399.1894574165344 209.83841574192033 399.1894574165344 209.83841574192033 399.7526898384094 213.35721457004547 C399.86133867263794 214.00937445163726 399.96998750686646 214.66153433322907 400.081928730011 215.33345663547516 C400.4379866163872 217.49170330579696 400.7731681804516 219.65263751545405 401.1081585884094 221.81424582004547 C401.35507677685746 223.33935781242553 401.6033165646326 224.86425634504923 401.8527874946594 226.38895285129547 C402.38940855707875 229.68269592407634 402.9172834612059 232.9776938751108 403.4397015571594 236.27371847629547 C404.34440793809966 241.9624604946031 405.28998386470937 247.64414985772157 406.2370648384094 253.32596457004547 C406.7233394388757 256.2569661182628 407.2087846063801 259.18810322738807 407.6936993598938 262.1193300485611 C408.0107612905366 264.03543577580797 408.3284861657691 265.9514319261972 408.64688539505005 267.86731588840485 C409.09387866489527 270.5651063355494 409.5353880424126 273.2637377931335 409.9753460884094 275.96268332004547 C410.1094136238098 276.76642889499664 410.2434811592102 277.5701744699478 410.3816113471985 278.39827597141266 C410.99199886150166 282.17528207870714 411.45699653851693 285.79759482666555 411.2956585884094 289.62674582004547 C412.28565858840943 289.5236208200455 413.27565858840944 289.42049582004546 414.2956585884094 289.31424582004547 C419.135815633752 289.31424582004547 422.65649623270156 291.587857667341 426.2956585884094 294.62674582004547 C430.48252031482417 298.97051163482683 432.2990599495282 304.0263086885172 434.4206585884094 309.56424582004547 C434.76741640090944 310.44532003879544 435.1141742134094 311.3263942575455 435.4714398384094 312.23416769504547 C436.89076573266385 315.86405288437425 438.2333008364674 319.4001041915011 439.2683148384094 323.16190207004547 C440.0441923836386 325.766400437847 440.0441923836386 325.766400437847 442.2839398384094 326.65799582004547 C443.05093202590945 326.8126833200455 443.8179242134094 326.96737082004546 444.6081585884094 327.12674582004547 C449.6472449798287 328.4899769211058 451.417713423402 330.30982807253434 454.2956585884094 334.62674582004547 C455.42818809896113 338.0243343517006 455.4301198086687 340.620910760719 455.44282960891724 344.2044435739517 C455.4465062969923 344.87585402727126 455.4501829850674 345.5472644805908 455.4539710879326 346.2390207052231 C455.46500279130805 348.49359564805235 455.4688508820956 350.7481244933921 455.4726605415344 353.00272238254547 C455.4789255804478 354.6174038433023 455.48557241721454 356.2320838613937 455.492573261261 357.84676229953766 C455.51361111725294 363.1536215978278 455.52397532192214 368.4604811775268 455.5339398384094 373.76737082004547 C455.53798748328603 375.59452704120747 455.5421044079462 377.4216831101833 455.5462899208069 379.24883902072906 C455.56534091071353 387.8329290497593 455.57957218923855 396.41701048120086 455.58790189027786 405.00111758708954 C455.59767467103495 414.90870711332724 455.6239956129731 424.8160732468675 455.664402782917 434.7235840559006 C455.69456604447544 442.3822912181849 455.70937096285024 450.0409343510115 455.71268290281296 457.69969975948334 C455.7150331440453 462.27356862535976 455.72399015827136 466.84719880970067 455.749144077301 471.42100393772125 C455.7724335532674 475.7253302973565 455.77665459610375 480.0292609697018 455.7663826942444 484.333634018898 C455.76588743463014 485.9110158291202 455.77220502900246 487.4884171744872 455.7859387397766 489.06573927402496 C455.91015819489746 504.18150860670863 455.91015819489746 504.18150860670863 451.2956585884094 509.62674582004547 C447.69190876903315 512.2020117274883 445.2146583093385 513.0044295473755 440.80618715286255 513.0278841257095 C439.71558992385866 513.0406790781021 438.6249926948547 513.0534740304947 437.5013470649719 513.0666567087173 C436.3147247505188 513.0652971506119 435.12810243606566 513.0639375925064 433.9055218696594 513.0625368356705 C432.01934648513793 513.0776505899429 432.01934648513793 513.0776505899429 430.0950665473938 513.0930696725845 C426.65280963523173 513.1195216578219 423.2107765774935 513.1266010548026 419.7684278488159 513.1285170316696 C417.6156554009476 513.1306523831782 415.4629395145067 513.1370625404955 413.31018114089966 513.1450086832047 C405.79374766568395 513.1727461137292 398.27747357986533 513.185016211162 390.7609906196594 513.1826540231705 C383.76422105550125 513.1808520318981 376.7681456542283 513.2125047329989 369.7715517282486 513.2598850131035 C363.75607159512947 513.2991636535294 357.74081787979475 513.315203573219 351.7252105474472 513.31328779459 C348.1360294406337 513.3125243430273 344.5474655399265 513.3209921679512 340.9584126472473 513.3528219461441 C336.95332355253055 513.3873732671302 332.9497816713421 513.3735948530083 328.9445843696594 513.3555055856705 C327.76201051712036 513.3723641061783 326.5794366645813 513.3892226266861 325.3610272407532 513.4065920114517 C320.17465775050255 513.3470587998905 316.30451461322565 513.2435407884651 312.1301007270813 509.9561983346939 C306.6078264712269 504.1797631449985 307.0131997280225 497.666858457321 307.0686078071594 490.12332785129547 C307.06831575393676 489.07881964206695 307.0680237007141 488.0343114328384 307.0677227973938 486.9581514596939 C307.0691125193358 483.51686829311274 307.08465711208294 480.07580351654633 307.1003460884094 476.63455832004547 C307.10407748309814 474.24416849137873 307.10692385854946 471.85377713062405 307.10892152786255 469.46338522434235 C307.1165479934207 463.18008808106873 307.1361881221118 456.8968837882527 307.1583294868469 450.6136232614517 C307.18241150445584 443.0703485081397 307.1915735863364 435.52704266380124 307.20323610305786 427.9837404489517 C307.22261296921704 416.53134438107014 307.2609426385663 405.0791519405206 307.2956585884094 393.62674582004547 C272.3156585884094 393.95674582004546 237.3356585884094 394.2867458200455 201.29565858840942 394.62674582004547 C211.69065858840943 398.0917458200455 211.69065858840943 398.0917458200455 222.29565858840942 401.62674582004547 C237.03362509791668 408.47468985476604 247.31988612808016 419.0257735644711 253.70972108840942 433.92362082004547 C258.98165304107243 449.4739237020011 258.11901000352566 465.3051307603363 251.90503358840942 480.41971457004547 C244.4382307468784 495.2989503295042 232.3960392992526 505.3611989409634 216.90893983840942 510.82987082004547 C202.32111461618803 515.278176268974 185.79865483101364 513.6136848420376 172.19409608840942 507.15408957004547 C158.8075533352529 499.98635845031737 149.40881813183535 489.23047566853194 144.45581483840942 474.97049582004547 C144.19669816970824 474.2298035287857 143.9375815010071 473.48911123752595 143.67061281204224 472.7259737253189 C140.77389846896511 464.30945432521133 138.36575386283633 455.76242311499016 135.98315858840942 447.18924582004547 C135.3222502151424 444.8269987084449 134.65972720970456 442.46522215020764 133.99507570266724 440.1040254831314 C133.58749800206695 438.65456963825386 133.18226217191207 437.2044526079733 132.7797131538391 435.75359213352203 C131.76733577306177 432.10525142808285 131.76733577306177 432.10525142808285 130.29565858840942 428.62674582004547 C127.6038458391165 431.28908782170424 124.91803711980685 433.95741249106305 122.23315858840942 436.62674582004547 C121.48099061965942 437.3705348825455 120.72882265090942 438.1143239450455 119.95386171340942 438.88065207004547 C115.76510085262356 443.0512797669318 111.75520216550524 447.30445049427595 107.89746522903442 451.78250753879547 C94.97447760019254 466.6613748682074 80.51855753690222 477.1287533053423 60.295658588409424 478.62674582004547 C45.24411014924543 478.9177532012538 32.05402405266094 475.21400541246993 20.295658588409424 465.62674582004547 C19.346264057159424 464.9190505075455 19.346264057159424 464.9190505075455 18.377689838409424 464.19705832004547 C8.346576830224308 456.3581753070266 1.9118055045795472 443.6134102212561 -0.42309141159057617 431.22049582004547 C-2.3307768888109166 413.62739641901345 0.6782440038255828 397.96004063997515 11.588627338409424 383.61112082004547 C18.64401093787027 375.4004041351403 27.055242368662306 369.25355989787255 37.295658588409424 365.62674582004547 C38.28565858840943 365.62674582004547 39.275658588409414 365.62674582004547 40.295658588409424 365.62674582004547 C40.295658588409424 361.33674582004545 40.295658588409424 357.0467458200455 40.295658588409424 352.62674582004547 C39.01400819778442 352.6529299020767 37.73235780715942 352.67911398410797 36.411869525909424 352.70609152317047 C31.656025029650415 352.796602922012 26.90025660421179 352.8539987699757 22.143803119659424 352.90140402317047 C20.085404656063304 352.92654600598036 18.027095447684758 352.96066458153507 15.968998432159424 353.00394308567047 C13.009952893768428 353.06460851518403 10.052087562958711 353.0929584290613 7.092533588409424 353.11502707004547 C5.7126425361633295 353.1537367105484 5.7126425361633295 353.1537367105484 4.304874897003174 353.1932283639908 C3.4442846870422343 353.1936060190201 2.583694477081295 353.1939836740494 1.6970257759094238 353.19437277317047 C0.9420178413391085 353.2054758310318 0.18700990676880025 353.21657888889314 -0.5908770561218262 353.2280184030533 C-3.8595480673974905 352.29809391349806 -4.864341478286136 350.41954110679154 -6.704341411590576 347.62674582004547 C-7.2049126625061035 344.49266588687897 -7.2049126625061035 344.49266588687897 -7.205546855926514 340.9022432565689 C-7.211081252694129 340.2392579132318 -7.2166156494617475 339.5762725698948 -7.222317755222321 338.8931967616081 C-7.235895678239853 336.6789132946499 -7.220972183678285 334.4657626645681 -7.206050395965576 332.25150167942047 C-7.209834609933477 330.66121056231094 -7.215335497400215 329.07092274035415 -7.222423076629639 327.48064291477203 C-7.236380603853004 323.1666181377566 -7.2252064600490336 318.8529920472519 -7.208711862564087 314.5389894247055 C-7.1948596093849915 310.024501607447 -7.201321549957871 305.510036892003 -7.204844951629639 300.99553549289703 C-7.207546659129793 293.4154276141985 -7.1940739302926175 285.8354781227472 -7.170894145965576 278.25540792942047 C-7.144275041825267 269.48992130416775 -7.142540485739211 260.72469933879665 -7.154282510280609 251.95918613672256 C-7.165058121500671 243.52777205060377 -7.1588755539398825 235.0964537648387 -7.1447272300720215 226.66504728794098 C-7.138966503582683 223.07620158917717 -7.139050761311857 219.48742597439966 -7.143792629241943 215.89857923984528 C-7.148561760535216 211.6738521900718 -7.138463546906859 207.44941532629701 -7.116837978363037 203.22474348545074 C-7.111269395958047 201.67353668003412 -7.110805481443045 200.12230199107904 -7.115790843963623 198.57109320163727 C-7.121738812084477 196.45516076958174 -7.109249414716402 194.34011705885234 -7.092021465301514 192.2242647409439 C-7.089591569900513 191.03980229854585 -7.087161674499512 189.85533985614776 -7.084658145904541 188.6349846124649 C-6.669045003777764 185.34755741302706 -5.992076972614083 183.97806243412302 -3.704341411590576 181.62674582004547 C-1.837153911590594 180.84158957004547 -1.837153911590594 180.84158957004547 0.17065858840942383 180.56424582004547 C0.828080463409421 180.44951925754546 1.4855023384094252 180.33479269504548 2.162846088409424 180.21658957004547 C5.63877348237942 180.88503714580892 7.07326953542443 182.97365703886436 9.295658588409424 185.62674582004547 C9.910897731781006 188.60020792484283 9.910897731781006 188.60020792484283 9.896931171417236 191.96056234836578 C9.907241153717038 193.87667822360993 9.907241153717038 193.87667822360993 9.917759418487549 195.83150351047516 C9.900065896478623 197.23957521899447 9.881891879667549 198.6476409558261 9.863285541534424 200.05570089817047 C9.86187459514695 201.54410373244144 9.862667962813802 203.03251004670838 9.865498065948486 204.52091085910797 C9.866931841610757 208.55591572723122 9.837549067041202 212.5901764440365 9.8026282787323 216.62500846385956 C9.771357972831254 220.84370404316073 9.768433519149823 225.0624169504679 9.762501239776611 229.28121054172516 C9.746964731352158 237.2675090731498 9.705939026023053 245.25346511573784 9.655753791332245 253.23961287736893 C9.599854210490946 262.33261500283305 9.572372304538362 271.4256335409002 9.547276616096497 280.5187647342682 C9.495022774890757 299.2216586805475 9.40333365817444 317.92408316372257 9.295658588409424 336.62674582004547 C19.525658588409428 336.62674582004547 29.755658588409425 336.62674582004547 40.295658588409424 336.62674582004547 C40.28677614212036 332.9921787118912 40.277893695831295 329.35761160373687 40.268742084503174 325.6129060983658 C40.18917752904942 292.29763543876743 40.129446063561275 258.9823766218338 40.091397270560265 225.6670318134129 C40.08639433125681 221.30228460427364 40.08121705305979 216.93753761817092 40.075932025909424 212.57279074192047 C40.07488278418779 211.7038333954662 40.07383354246616 210.83487604901194 40.07275250554085 209.93958666175604 C40.05533835802285 195.86206849037447 40.02379512088959 181.78461553241098 39.98704740405083 167.70713607221842 C39.94966605488827 153.2666875319679 39.92742868310971 138.82627318958384 39.919304609298706 124.38577824831009 C39.913810999684145 115.47229010734725 39.89644833274821 106.55898628027023 39.86399272084236 97.64555486291647 C39.8428794482746 91.53663049803495 39.83645129227014 85.42780167989785 39.84165307879448 79.31884346157312 C39.844219861191675 75.79210848058507 39.84023359648586 72.26569599429249 39.81883668899536 68.73901808261871 C39.795821259199926 64.91772646182896 39.803689329528325 61.096857249971606 39.814640522003174 57.275503754615784 C39.802989156246184 56.15780200779438 39.791337790489195 55.04010026097298 39.7793333530426 53.888528764247894 C39.81383877075676 49.45361014707549 39.88720635279455 46.42621617360732 41.92482042312622 42.437960267066956 C45.02457831916169 40.06988370841341 46.82311032035332 40.0005403627024 50.710087299346924 39.99855673313141 C51.35180045604706 39.991462345719334 51.99351361274719 39.98436795830727 52.654672622680664 39.977058589458466 C54.80319023912577 39.95946747547582 56.94990119485584 39.977585637860386 59.098392963409424 39.99564230442047 C60.63927964213417 39.99050382132003 62.1801604499136 39.98322307564242 63.721027851104736 39.97395956516266 C67.90503134188174 39.95542790158379 72.08839849231083 39.9683948658624 76.27237558364868 39.98804986476898 C80.64940694878725 40.0044233101832 85.02639759386564 39.995625295821974 89.40344667434692 39.990530610084534 C96.75417682794418 39.98600817921421 104.10465263980794 40.00188864242618 111.45532655715942 40.02982199192047 C119.9555816276058 40.06187466688384 128.45537794344222 40.06185871259014 136.9556655883789 40.04460722208023 C145.13027849445655 40.028747315485646 153.30472309539462 40.035472207741485 161.47932863235474 40.05254423618317 C164.95934445756947 40.05941959783572 168.43922557056598 40.05837734322854 171.9192395210266 40.05099928379059 C176.01682181397047 40.043342033385194 180.11388159677279 40.05544372722279 184.21137475967407 40.08284819126129 C185.71581073173843 40.08973907948292 187.22029544135117 40.089822416807095 188.72473001480103 40.082632660865784 C190.7774810742415 40.07395239137212 192.82861422728507 40.089865810877015 194.88122987747192 40.11208212375641 C196.6045641899109 40.11629250526428 196.6045641899109 40.11629250526428 198.36271333694458 40.120587944984436 C201.93614561632086 40.73727892764095 203.09018812667188 41.805963391388914 205.29565858840942 44.62674582004547 C206.23315858840942 47.06424582004544 206.23315858840942 47.06424582004544 206.29565858840942 49.62674582004547 C204.67410230305117 53.11309183356571 203.53112567140215 54.46976776471699 200.29565858840942 56.62674582004547 C152.7756585884094 56.62674582004547 105.2556585884094 56.62674582004547 56.295658588409424 56.62674582004547 C56.295658588409424 157.6067458200455 56.295658588409424 258.5867458200455 56.295658588409424 362.62674582004547 C59.26565858840942 362.62674582004547 62.23565858840942 362.62674582004547 65.29565858840942 362.62674582004547 C68.24648533116253 363.07784998766846 71.10893456818457 363.57876464830935 74.02222108840942 364.19315207004547 C75.64719809054093 364.51683525530507 77.2721987992392 364.84039944602245 78.89722108840942 365.16385519504547 C81.4168425299552 365.6761913393973 83.93563139487162 366.19233244620415 86.45386171340942 366.71146261692047 C88.91230629276706 367.21504261088563 91.37324553430872 367.70463805176496 93.83472108840942 368.19315207004547 C94.57968843460083 368.351429810524 95.32465578079224 368.5097075510025 96.09219789505005 368.67278158664703 C100.74985050928015 369.5911013897345 104.58867988107835 369.71311442723345 109.29565858840942 368.62674582004547 C109.95565858840942 367.96674582004545 110.61565858840942 367.3067458200455 111.29565858840942 366.62674582004547 C110.90598984665826 361.5765968217716 109.6228044349771 356.8277214850991 108.18188905715942 351.99271261692047 C107.96865495681763 351.26292196750643 107.75542085647584 350.53313131809233 107.53572511672974 349.7812258005142 C106.83248639508838 347.37816105877414 106.12258372088417 344.97711704598174 105.41284608840942 342.57596457004547 C104.9148775790232 340.8772030002528 104.41742016532032 339.1782915356141 103.92044496536255 337.4792391061783 C102.60870409099948 332.9983639519537 101.29170943303222 328.51905250414234 99.97308778762817 324.04019796848297 C87.43201187126277 281.4365977116402 87.43201187126277 281.4365977116402 83.17456483840942 265.69315207004547 C82.90252229690552 264.69112249851224 82.63047975540161 263.6890929269791 82.3501935005188 262.65669882297516 C74.51879758753482 233.26408061778767 76.60382979977449 207.06917887711197 91.56518983840942 180.48221457004547 C98.15187061803783 169.61344786596337 98.15187061803783 169.61344786596337 103.29565858840942 167.62674582004547 C107.35574835246717 167.69924742297508 109.4895845908895 167.7979013706182 112.36987733840942 170.75955832004547 C114.52122036165454 173.96257207067816 115.52402695411254 176.73742907602815 116.60815858840942 180.43924582004547 C116.81421220779418 181.13148748874664 117.02026582717895 181.82372915744781 117.23256349563599 182.53694784641266 C117.93160337402469 184.89703160519437 118.61350903479706 187.26172926264044 119.29565858840942 189.62674582004547 C119.80184642859149 191.34942035419425 120.30896159322873 193.0718226169469 120.81689882278442 194.79398214817047 C122.30972233204727 199.87122854529812 123.78483844700901 204.9534867252959 125.25629091262817 210.03696310520172 C126.37966485508008 213.91688784683708 127.50563753300628 217.7960522751233 128.63208436965942 221.67508566379547 C132.08531549296575 233.56899611642342 135.53496519419977 245.46393641396742 138.97436952590942 257.36185324192047 C144.9835968492683 278.14620878794926 151.0627359651107 298.90821212123126 157.29565858840942 319.62674582004547 C157.68197450637817 319.21013693332674 158.0682904243469 318.79352804660795 158.46631288528442 318.36429464817047 C165.78287508206515 310.48600022898813 173.1206085559921 302.6512573432523 180.81787538528442 295.14163839817047 C183.56460936955804 292.4420975965112 186.15619308084436 289.67011868289813 188.67065858840942 286.75174582004547 C192.9700931133966 281.7814105230273 197.6459354481271 277.2257079806289 202.33472108840942 272.62674582004547 C205.61266492445935 269.38677044541697 208.787014198708 266.11977513416593 211.79565858840942 262.62674582004547 C216.0459867079333 257.69212451121047 220.6882419667441 253.18421193171721 225.33472108840942 248.62674582004547 C228.6126649244593 245.386770445417 231.787014198708 242.11977513416593 234.79565858840942 238.62674582004547 C239.04598670793337 233.69212451121047 243.6882419667441 229.18421193171721 248.33472108840942 224.62674582004547 C252.3429604809749 220.66493391079152 256.13030607938714 216.61013527260883 259.7526898384094 212.29080832004547 C261.75134897865905 210.13529238651043 263.4712126626507 208.75732104953948 266.4167523384094 208.29080832004547 C272.68646383930445 208.18507962694437 272.68646383930445 208.18507962694437 275.7956585884094 210.43924582004547 C283.227773317342 221.27774646640546 279.53269592505814 242.35018897984463 277.2956585884094 254.62674582004547 C273.0362517690183 273.7500743707416 262.558024716792 289.0679963750986 249.40893983840942 303.32987082004547 C247.5106942723113 305.39302866268076 245.67855245851808 307.4951370728457 243.85815858840942 309.62674582004547 C240.40699114600955 313.5983909509743 236.6891095262206 317.26996464375566 232.92065858840942 320.93924582004547 C230.85110781303342 323.0580716138828 228.91350383800648 325.1981193624634 226.98315858840942 327.43924582004547 C222.65934183796605 332.42754523127127 217.9665158038589 337.00705445163527 213.25659608840942 341.62674582004547 C209.98253476015745 344.8628836580088 206.81174205362828 348.12552257991706 203.80737733840942 351.61502707004547 C200.11667902273808 355.90042514268174 196.1430990440694 359.85507889406927 192.10815858840942 363.81424582004547 C190.71642212250137 365.1802807815046 189.3270299648266 366.5487089645769 187.94018983840942 367.91971457004547 C187.33537782669066 368.51292501926423 186.73056581497192 369.106135468483 186.10742616653442 369.71732199192047 C184.03591048308917 371.90049463175677 182.17571255775306 374.2766783583659 180.29565858840942 376.62674582004547 C222.20565858840942 376.95674582004546 264.1156585884094 377.2867458200455 307.2956585884094 377.62674582004547 C307.2956585884094 364.75674582004547 307.2956585884094 351.88674582004546 307.2956585884094 338.62674582004547 C311.858876979214 329.5003090384363 311.858876979214 329.5003090384363 318.2956585884094 326.62674582004547 C318.9782977485657 326.54448751926424 319.6609369087219 326.46222921848295 320.3642621040344 326.37747824192047 C322.5563049725522 325.76607801323735 322.5563049725522 325.76607801323735 323.5883831977844 323.22171652317047 C323.9545575141907 322.1758840036392 324.3207318305969 321.130051484108 324.6980023384094 320.05252707004547 C325.32158632278447 318.33839621067045 325.32158632278447 318.33839621067045 325.9577679634094 316.58963644504547 C326.3786468696594 315.3850075387955 326.79952577590944 314.18037863254546 327.2331585884094 312.93924582004547 C332.917802826075 296.7815012248876 332.917802826075 296.7815012248876 339.3230023384094 292.16580832004547 C339.9533539009094 291.86416769504547 340.58370546340944 291.56252707004546 341.2331585884094 291.25174582004547 C341.86093202590945 290.9346364450455 342.4887054634094 290.61752707004547 343.1355023384094 290.29080832004547 C345.9016376085194 289.4404593220008 348.4163046551549 289.5850338329425 351.2956585884094 289.62674582004547 C351.45493837356565 288.3975441598892 351.61421815872194 287.16834249973294 351.7783246040344 285.90189230442047 C353.76938021403794 270.7958737263356 356.1025440757383 255.75089579713884 358.5747113227844 240.71683371067047 C359.0197482702236 238.0061241362461 359.45640075340185 235.29425270535205 359.8862347602844 232.58109152317047 C360.5161203028857 228.6053684306227 361.16863581174897 224.63367045615044 361.8230023384094 220.66190207004547 C362.01168382644653 219.4546195077896 362.20036531448363 218.24733694553376 362.39476442337036 217.00347006320953 C363.70543502451073 209.21955706382764 364.94104920959217 203.29674103992042 371.3581585884094 198.18924582004547 C374.2956585884094 196.62674582004547 374.2956585884094 196.62674582004547 377.2956585884094 196.62674582004547 C377.2956585884094 150.42674582004548 377.2956585884094 104.22674582004547 377.2956585884094 56.62674582004547 C366.7421039009094 56.68475363254547 356.18854921340943 56.742761445045474 345.3151898384094 56.80252707004547 C338.6387514544976 56.82806756699778 331.9623483747319 56.85234348517211 325.2858929634094 56.87088644504547 C314.6831497175528 56.90057034406759 304.080604940271 56.93549145749441 293.4780316352844 57.00394308567047 C285.75666808148554 57.053769488669914 278.0354653259447 57.086034763917496 270.31394547224045 57.09718829393387 C266.22513101512396 57.10370842203112 262.1367765853824 57.119037915899 258.0481095314026 57.15539610385895 C254.19930480554802 57.18934392019708 250.35114941054508 57.19980150548601 246.50220918655396 57.19228422641754 C245.09006073107417 57.19365934830345 243.67789048259885 57.203599928521896 242.2658715248108 57.22277319431305 C230.25922063889675 57.37780454669541 230.25922063889675 57.37780454669541 226.9519543647766 54.31392538547516 C224.76937762933255 50.77290590866933 224.62677815380795 48.71434847594336 225.29565858840942 44.62674582004547 C226.72296571731567 42.44028341770172 226.72296571731567 42.44028341770172 229.29565858840942 40.62674582004547 C232.53662045164106 40.0448842436954 235.73671116855974 40.121856079524825 239.02124452590942 40.17264425754547 C240.00693925857547 40.17206015110016 240.99263399124146 40.171476044654845 242.008198261261 40.17087423801422 C245.2658350882752 40.17366066745758 248.522556628713 40.204779917995545 251.78003358840942 40.23612082004547 C254.03875653022698 40.243581198229045 256.2974859439536 40.249275088344575 258.5562176704407 40.25327169895172 C264.5010202380809 40.26854388814145 270.445431864064 40.30783984636654 276.3900799751282 40.35208761692047 C282.4562086297031 40.39300585405083 288.5224004555996 40.41127537615453 294.5886273384094 40.43143332004547 C306.4911704843751 40.47433226340266 318.39332086514924 40.54469555469263 330.2956585884094 40.62674582004547 C330.2956585884094 32.37674582004547 330.2956585884094 24.12674582004547 330.2956585884094 15.626745820045471 C224.36565858840942 15.626745820045471 118.43565858840941 15.626745820045471 9.295658588409424 15.626745820045471 C9.295658588409424 62.48674582004547 9.295658588409424 109.34674582004547 9.295658588409424 157.62674582004547 C4.500786793537642 162.42161761491727 4.500786793537642 162.42161761491727 0.29565858840942383 162.62674582004547 C-2.567749336935087 161.89424611821315 -4.17269336853947 161.42613210205735 -5.83215856552124 158.93095934391022 C-6.943698443089602 155.9943902176649 -6.962223606707543 153.5884089093536 -6.971766948699951 150.44682943820953 C-6.98029691696167 149.17801931858062 -6.988826885223389 147.90920919895171 -6.997615337371826 146.6019502878189 C-6.9969163354006625 145.19818734591843 -6.995993285838221 143.7944245011834 -6.994868755340576 142.39066183567047 C-7.000853877288659 140.91051515564035 -7.007659387375927 139.43037159870482 -7.015223979949951 137.95023214817047 C-7.032891314549808 133.9316497175475 -7.037579619743777 129.9131524576933 -7.03885555267334 125.89453494548798 C-7.040755112912986 122.5396032416886 -7.048113166485219 119.18469135793154 -7.0551997423172 115.8297672867775 C-7.071483518927529 107.91499665184136 -7.07636864651241 100.00027151511172 -7.074946880340576 92.08548605442047 C-7.073744915418626 83.9204245918092 -7.094857593590838 75.75562723248817 -7.1264342069625854 67.5906326174736 C-7.152580913451274 60.57990348429691 -7.163314878668622 53.56926070812347 -7.162036061286926 46.55848318338394 C-7.161526020527482 42.37146747521152 -7.167232418814866 38.18468655331384 -7.188392162322998 33.997719407081604 C-7.207748085925221 30.060241401010916 -7.207917509534141 26.12322282387535 -7.193358898162842 22.185728669166565 C-7.1912664909041375 20.741354758653504 -7.195997476123164 19.29695228684487 -7.208079814910889 17.852627396583557 C-7.2235142848326355 15.879691502067006 -7.211833356332178 13.906599178982038 -7.198817729949951 11.933645844459534 C-7.1999072647094735 10.829924159049988 -7.200996799468996 9.726202473640441 -7.20211935043335 8.589034676551819 C-6.447447336030219 4.097962806671885 -4.585831788322043 1.0627914406236296 0 0 Z M102.29565858840942 194.62674582004547 C89.47149720790124 223.88575479499133 94.48667490319397 247.58257714599398 103.10815858840942 277.31424582004547 C103.77028654305354 279.62421726219617 104.43181683483749 281.93436009369657 105.09277772903442 284.24466574192047 C111.648055528072 307.0911839908085 118.43527185272583 329.8702239994415 125.29565858840942 352.62674582004547 C126.40927050930588 351.6786368519172 127.52196681487791 350.72945237586566 128.63428163528442 349.77982199192047 C129.56387948989868 348.98713163852693 129.56387948989868 348.98713163852693 130.5122570991516 348.17842733860016 C132.80264948180354 346.18562899688834 134.96546529696792 344.08944416679856 137.10815858840942 341.93924582004547 C137.8571039009094 341.19287863254544 138.60604921340942 340.4465114450455 139.37768983840942 339.67752707004547 C141.44653686495818 337.57723930944866 141.44653686495818 337.57723930944866 143.29565858840942 334.62674582004547 C143.01430101390554 326.87672836824 140.39316858084095 319.5213620766417 138.20190858840942 312.13455832004547 C137.77805037616628 310.6888761737987 137.3547496832023 309.243030469117 136.93196535110474 307.79703390598297 C135.7957974071598 303.9168228506597 134.65211179070644 300.0388668122561 133.50675249099731 296.16136038303375 C132.31686793985057 292.12931464015304 131.13304194439166 288.0954911703017 129.94873476028442 284.06180441379547 C128.49871516887941 279.12446941006147 127.04796101042942 274.187354951568 125.59404420852661 269.2511659860611 C122.63907672210544 259.2168657766264 119.7063531913719 249.1764280663516 116.79726457595825 239.12873327732086 C115.6242794730818 235.07936560498138 114.44776265202538 231.03102249129225 113.2713303565979 226.98265516757965 C112.34932481783594 223.80875179272584 111.43006992757256 220.63409021961738 110.51440858840942 217.45834982395172 C109.50602588154487 213.96324485014162 108.48971730572151 210.47054102961542 107.47143983840942 206.97830832004547 C107.17655168533327 205.94846823215485 106.88166353225708 204.91862814426423 106.57783937454224 203.85758078098297 C106.30465379714965 202.9262734079361 106.03146821975707 201.99496603488922 105.75000429153442 201.03543722629547 C105.51578264236451 200.22668142795564 105.28156099319457 199.41792562961578 105.04024171829224 198.5846620798111 C104.37495906105835 196.43299238134318 104.37495906105835 196.43299238134318 102.29565858840942 194.62674582004547 Z M380.2956585884094 211.62674582004547 C376.9271449323076 228.49602989851678 374.1903996018254 245.44330488646176 371.5456585884094 262.43924582004547 C371.13099913592237 265.0897470878555 370.71532344539554 267.7400886429323 370.2995648384094 270.39041769504547 C369.2940799325213 276.8018861885672 368.2950000108428 283.2143050260982 367.2956585884094 289.62674582004547 C376.53565858840943 289.62674582004547 385.77565858840944 289.62674582004547 395.2956585884094 289.62674582004547 C393.15943664212625 274.26662092241577 390.78876827161116 258.95718600339353 388.2790570259094 243.65384542942047 C387.6608196803798 239.87917399594005 387.04843503117047 236.10358034378967 386.4362835884094 232.32791769504547 C386.04340373589594 229.92356371483766 385.6501876880935 227.5192646401101 385.2565960884094 225.11502707004547 C385.074304523468 223.98816992282866 384.8920129585266 222.86131277561188 384.7041974067688 221.70030844211578 C384.5337692451477 220.66709967136384 384.3633410835266 219.63389090061187 384.1877484321594 218.56937277317047 C384.0391336250305 217.6600852060318 383.89051881790164 216.75079763889312 383.7374005317688 215.81395590305328 C383.38819670721125 213.59407713411534 383.38819670721125 213.59407713411534 382.2956585884094 211.62674582004547 C381.6356585884094 211.62674582004547 380.97565858840943 211.62674582004547 380.2956585884094 211.62674582004547 Z M258.9440960884094 236.84549582004547 C258.2570257759094 237.53127707004546 257.5699554634094 238.21705832004548 256.8620648384094 238.92362082004547 C256.1389007759094 239.65065207004548 255.41573671340944 240.37768332004546 254.67065858840942 241.12674582004547 C253.97069765090941 241.82283957004546 253.2707367134094 242.51893332004548 252.54956483840942 243.23612082004547 C249.1732022109947 246.6187475710732 245.89221612894755 250.0366046429529 242.77222108840942 253.65799582004547 C238.5286001400351 258.5804509149947 233.8933919887363 263.07877742738765 229.25659608840942 267.62674582004547 C225.9786522523595 270.86672119467397 222.80430297811085 274.133716505925 219.79565858840942 277.62674582004547 C215.54533046888554 282.5613671288805 210.90307521007475 287.06927970837376 206.25659608840942 291.62674582004547 C202.9786522523595 294.86672119467397 199.80430297811085 298.133716505925 196.79565858840942 301.62674582004547 C192.54533046888554 306.5613671288804 187.90307521007475 311.06927970837376 183.25659608840942 315.62674582004547 C179.98549551977783 318.85995719290145 176.81854884819745 322.1189716043211 173.81909608840942 325.60721457004547 C169.4157069972058 330.721997299209 164.56893198402358 335.36886281842 159.72925233840942 340.06619894504547 C158.69864686965943 341.0803688669205 158.69864686965943 341.0803688669205 157.64722108840942 342.11502707004547 C157.02669862747192 342.7187111520767 156.40617616653444 343.32239523410794 155.76684999465942 343.94437277317047 C154.0665040420365 345.6701230761455 154.0665040420365 345.6701230761455 153.29565858840942 348.62674582004547 C154.05749452590942 349.0463356637955 154.05749452590942 349.0463356637955 154.83472108840942 349.47440207004547 C160.50081689639723 352.7743192915515 165.31089558343433 356.6572198100953 168.29565858840942 362.62674582004547 C171.8368591667253 361.1176457015251 174.11170223444486 359.05555267719683 176.81518983840942 356.33768332004547 C177.67306093215942 355.47787863254547 178.5309320259094 354.61807394504547 179.41479921340942 353.73221457004547 C180.30360780715944 352.8311598825455 181.19241640090942 351.9301051950455 182.10815858840942 351.00174582004547 C182.98536561965943 350.1238942575455 183.8625726509094 349.2460426950455 184.76636171340942 348.34158957004547 C189.20927323524825 343.8687706408046 193.4871691917728 339.32381114932775 197.59521913528442 334.54324972629547 C201.29783005807326 330.37017065323124 205.3538337242693 326.5313709741446 209.33472108840942 322.62674582004547 C213.29622684199475 318.71112623349006 217.03972577599254 314.69053572924605 220.67456483840942 310.47049582004547 C222.9381212023872 307.89604135306354 225.34268086276438 305.5220064227342 227.79565858840942 303.12674582004547 C232.1794136256541 298.7883451005199 236.36366299114263 294.3796173248836 240.29565858840942 289.62674582004547 C241.57763124465941 288.1204762887955 241.57763124465941 288.1204762887955 242.88550233840942 286.58377707004547 C256.22660793615665 270.56658631685553 262.39823701064796 254.5459522533814 263.2956585884094 233.62674582004547 C261.4192180163377 233.62674582004547 260.19468255437624 235.59718255721074 258.9440960884094 236.84549582004547 Z M348.2956585884094 305.62674582004547 C347.498013629223 307.19991569570084 346.7029458752938 308.77439243452693 345.9089398384094 310.34940207004547 C345.4659051704407 311.2260451364517 345.0228705024719 312.10268820285796 344.5664105415344 313.00589621067047 C341.3687624249977 319.5393315973182 341.3687624249977 319.5393315973182 340.2956585884094 326.62674582004547 C367.6856585884094 326.62674582004547 395.0756585884094 326.62674582004547 423.2956585884094 326.62674582004547 C420.1718342048215 315.2462240870486 420.1718342048215 315.2462240870486 414.2956585884094 305.62674582004547 C411.42129562401476 305.33302058537663 411.42129562401476 305.33302058537663 408.0100140571594 305.39969503879547 C407.3659863471985 305.3994029855728 406.72195863723755 305.39911093235014 406.0584149360657 305.39881002902985 C403.9264223179926 305.40020508390836 401.7947777673912 305.41577408037966 399.6628460884094 305.43143332004547 C398.1859701828469 305.4351628369752 396.70909180567554 305.43801009826274 395.23221254348755 305.4400087594986 C391.3424846091263 305.4476500829957 387.45290570811085 305.4673027429446 383.5632367134094 305.48941671848297 C379.59515826550347 305.5098644696686 375.6270557694451 305.51900817606236 371.6589398384094 305.52908957004547 C363.87111143131926 305.5505482597524 356.08340588066557 305.58469009645114 348.2956585884094 305.62674582004547 Z M323.2956585884094 342.62674582004547 C323.2956585884094 358.46674582004545 323.2956585884094 374.3067458200455 323.2956585884094 390.62674582004547 C361.5756585884094 390.62674582004547 399.8556585884094 390.62674582004547 439.2956585884094 390.62674582004547 C439.2956585884094 374.78674582004544 439.2956585884094 358.94674582004546 439.2956585884094 342.62674582004547 C401.01565858840945 342.62674582004547 362.7356585884094 342.62674582004547 323.2956585884094 342.62674582004547 Z M128.85815858840942 372.56424582004547 C122.32910166597838 379.96890668144096 116.3041803171565 384.62437346160345 106.29565858840942 385.62674582004547 C96.28079452050648 385.4297163446213 86.54019207007843 383.2176049120616 76.78638124465942 381.13529074192047 C62.21045467307664 378.0448815358753 48.97365373520897 376.67652507617373 35.463627338409424 384.20487082004547 C25.458304385663112 390.865085799085 20.361219469580277 398.88985407232855 15.983158588409424 409.93924582004547 C13.839533319950888 421.43687225995944 15.159841768604707 432.4805667575068 21.061283588409424 442.67752707004547 C28.343492189853976 453.271133677265 37.79240593010414 459.7581931260723 50.533939838409424 462.26346457004547 C60.83923320855041 463.41123975977376 71.59491346890229 461.52410744328705 80.29565858840942 455.62674582004547 C83.7938043840407 452.7905656235875 87.05744812817136 449.7543341838158 90.29565858840942 446.62674582004547 C91.08456483840942 445.8661989450455 91.87347108840942 445.1056520700455 92.68628358840942 444.32205832004547 C96.12542599087635 440.941404733947 99.41698156801002 437.50225091848114 102.56518983840942 433.84940207004547 C106.9080944434732 428.85410236967016 111.61202250041435 424.2589712550138 116.33472108840942 419.62674582004547 C119.60452777709907 416.3948133401051 122.77029055282887 413.13725309705154 125.76831483840942 409.65018332004547 C129.53144489862825 405.2803031877766 133.61328853594338 401.2821737518559 137.73315858840942 397.25174582004547 C148.45912348615616 387.31906960383014 148.45912348615616 387.31906960383014 155.54565858840942 374.87674582004547 C155.22301701218808 370.6824053291679 154.03171288317048 368.79480868766353 151.29565858840942 365.62674582004547 C148.7843382355647 363.6949609332418 147.02630926251985 362.76133936527634 143.92065858840942 362.18924582004547 C137.30480908470142 363.2918874039968 133.0040223224077 367.6196236045062 128.85815858840942 372.56424582004547 Z M162.29565858840942 393.62674582004547 C161.5944085884094 394.40018332004547 160.89315858840942 395.17362082004547 160.17065858840942 395.97049582004547 C159.21242692976045 397.0226717589542 158.2540877060141 398.07474974373 157.29565858840942 399.12674582004547 C156.83804140090942 399.6320583200455 156.3804242134094 400.1373708200455 155.90893983840942 400.65799582004547 C151.8393932642218 405.11777288764836 147.58873903506364 409.38269801808656 143.29565858840942 413.62674582004547 C144.88937394310977 419.28014366488503 146.4887917939216 424.93188906432727 148.09302186965942 430.58231222629547 C148.63552438133428 432.49595382942465 149.17659196337837 434.4100029352668 149.71606874465942 436.32449972629547 C152.48995730734214 446.164830660952 155.3199326960572 455.97718790706216 158.51831483840942 465.68924582004547 C158.75623750686646 466.41940908908845 158.9941601753235 467.1495723581314 159.23929262161255 467.90186178684235 C163.15676901769461 479.56807511180057 170.64747012838433 487.9305488059825 181.60815858840942 493.56424582004547 C191.02939155898318 498.03971075775763 203.4070589614375 498.3821039904004 213.29565858840942 495.00174582004547 C225.13205208708962 489.8726419706174 233.29580331781722 482.3863000327515 238.29175233840942 470.41580832004547 C242.64538424389275 458.3205041157065 241.6762236340486 447.27021937539973 236.29565858840942 435.62674582004547 C229.5634645890736 422.605543006283 218.210907463993 416.8911043727435 204.76880311965942 412.46561300754547 C199.8235314391721 410.94266318407415 194.8629247768375 409.47603291251454 189.89722108840942 408.02127707004547 C180.23960685519913 405.1178803860107 171.13254047791168 402.3182379457355 164.29565858840942 394.62674582004547 C163.63565858840943 394.2967458200455 162.97565858840943 393.96674582004545 162.29565858840942 393.62674582004547 Z M323.2956585884094 406.62674582004547 C323.2956585884094 419.82674582004546 323.2956585884094 433.02674582004545 323.2956585884094 446.62674582004547 C361.5756585884094 446.62674582004547 399.8556585884094 446.62674582004547 439.2956585884094 446.62674582004547 C439.2956585884094 433.4267458200455 439.2956585884094 420.2267458200455 439.2956585884094 406.62674582004547 C401.01565858840945 406.62674582004547 362.7356585884094 406.62674582004547 323.2956585884094 406.62674582004547 Z M323.2956585884094 462.62674582004547 C323.2956585884094 473.8467458200455 323.2956585884094 485.06674582004547 323.2956585884094 496.62674582004547 C361.5756585884094 496.62674582004547 399.8556585884094 496.62674582004547 439.2956585884094 496.62674582004547 C439.2956585884094 485.40674582004544 439.2956585884094 474.1867458200455 439.2956585884094 462.62674582004547 C401.01565858840945 462.62674582004547 362.7356585884094 462.62674582004547 323.2956585884094 462.62674582004547 Z " fill="none" transform="translate(31.704341411590576,-0.6267458200454712)"/>
<path stroke="#f472b6" stroke-width="1.5" stroke-linecap="round" d="M0 0 C7.701736232710985 5.902887804655677 11.644543769139787 12.875011209262993 12.9375 22.4375 C13.411365159607328 30.493207713324523 11.125323003154136 37.735716329478294 6 44 C-0.47497972224437035 50.4276018218377 -6.965205713497355 53.8244114945025 -16.125 54.3125 C-24.04861519986035 54.19364577200207 -31.72162876099398 51.22625366752493 -37.5 45.78125 C-44.61889165007147 37.327566165540134 -45.82413731555186 28.78442544350719 -45 18 C-43.19052745819275 10.631304588784928 -38.2893671664399 3.7740580179219023 -31.91015625 -0.3515625 C-21.769496453106456 -5.6012895456916 -9.95882957019333 -5.951825753230025 0 0 Z M-26 16 C-28.884298903780888 19.461158684537054 -29.543783804812733 22.48835145431542 -29.34765625 27.0078125 C-28.534648351284687 31.666621807245065 -25.99482896979562 34.299097771280344 -22.25 36.9375 C-18.217583847062116 38.25578989615275 -14.997537180988616 38.28207865764773 -11 37 C-7.0777405838799154 34.603063690148815 -4.832771026085936 32.47993683899551 -3.4375 28.125 C-2.620909542007169 23.70874548228369 -3.6949537231353133 20.866529238611747 -6 17 C-9.367518127135043 13.878885638265103 -11.66066333160748 12.128782371960824 -16.25 11.6875 C-20.711513981160294 12.059292831763344 -22.597346476998865 13.138677719294492 -26 16 Z " fill="none" transform="translate(105,395)"/>
<path stroke="#f472b6" stroke-width="1.5" stroke-linecap="round" d="M0 0 C7.285614328013338 6.29284929870164 10.760166107820396 12.21147722630684 12.08984375 21.78515625 C12.555866131898881 29.940547933230675 9.639481155596002 37.678995096199856 4.52734375 43.97265625 C-0.193060673411793 48.9372195228986 -6.381445296501539 52.23398161225782 -13.26171875 52.7734375 C-24.35305008498952 53.00299664527756 -31.317560313633976 51.04448316316774 -39.49609375 43.46875 C-45.23352831469202 37.04334251239243 -46.566157232489815 29.77071323440856 -46.421875 21.40234375 C-45.76470210437947 11.944208350284782 -41.280957232187916 5.734864537672195 -34.22265625 -0.46484375 C-23.945973736984826 -6.877223643178581 -10.016398267361296 -7.263476967663678 0 0 Z M-25.22265625 13.53515625 C-28.966237173337788 17.470155962837794 -28.966237173337788 17.470155962837794 -30.2421875 22.5234375 C-29.783614033370128 27.671573587637113 -29.140284669304407 30.8413923117987 -25.22265625 34.53515625 C-22.177950214185415 36.818685776860946 -19.013747668587627 36.959797707537064 -15.25 36.84765625 C-11.796089187155474 36.315261519696435 -9.80421129655545 34.81653047718851 -7.22265625 32.53515625 C-4.684499438408238 28.93261109806332 -4.22265625 26.965267126366825 -4.22265625 22.53515625 C-5.027274380358847 18.113991365291383 -6.846760493835291 15.551914159764237 -10.22265625 12.53515625 C-15.808795717430087 9.783074961014506 -19.832523664226244 10.321807977711785 -25.22265625 13.53515625 Z " fill="none" transform="translate(247.22265625,429.46484375)"/>

  </g>
</svg>