<?xml version="1.0" encoding="UTF-8"?>
<svg width="100" height="100" viewBox="0 0 100 100" fill="none" xmlns="http://www.w3.org/2000/svg">
  <g transform="translate(25, 26.985294117647058) scale(0.07352941176470588)">
    
<path stroke="#d8b4fe" stroke-width="1.5" stroke-linecap="round" d="M0 0 C224.4 0 448.8 0 680 0 C680 206.58 680 413.16 680 626 C455.6 626 231.2 626 0 626 C0 419.41999999999996 0 212.83999999999997 0 0 Z " fill="none" transform="translate(0,0)"/>
<path stroke="#d8b4fe" stroke-width="1.5" stroke-linecap="round" d="M0 0 C4.95 0 9.9 0 15 0 C15.515625 1.4025 16.03125 2.805 16.5625 4.25 C18.70108892986521 9.642628920271626 21.499548962709138 14.486411251387384 24.51171875 19.43359375 C26 22 26 22 27 25 C25.54096741959498 24.69078116094297 24.082792782852458 24.377512005127425 22.625 24.0625 C21.812890625 23.8884765625 21.00078125 23.714453125 20.1640625 23.53515625 C17.999999999999996 23 17.999999999999996 23 16 22 C16 216.37 16 410.74 16 611 C175.06 611 334.12 611 498 611 C498 610.34 498 609.68 498 609 C540.9 609 583.8 609 628 609 C628 609.66 628 610.32 628 611 C638.23 611 648.46 611 659 611 C657.68 608.03 656.36 605.06 655 602 C654.67 600.68 654.34 599.36 654 598 C657.5926806015395 599.6916991182006 660.889355553173 601.7646427051916 664.25 603.875 C669.0516070696145 606.8672960523982 673.8794971630232 609.5903516061286 679 612 C675.055330521708 615.182096142393 670.7268308547327 617.1461577065561 666.16796875 619.3046875 C662.8745346778148 620.9216564712871 662.8745346778148 620.9216564712871 659.9961475729942 623.5675045847893 C655.2340510670077 626.9771610879424 650.5766517805845 626.6874266783752 644.8936700820923 626.6152391433716 C643.7780200347304 626.6210083648563 642.6623699873686 626.626777586341 641.512912362814 626.632721632719 C637.7595426603673 626.6459984222956 634.00723679844 626.6234911581087 630.2539215087891 626.6012725830078 C627.5419976253934 626.6006687491472 624.8301048784799 626.6076176084875 622.118190228939 626.6142184138298 C616.2144635096113 626.6245819329972 610.3109888372765 626.6163774868542 604.4072914123535 626.5960273742676 C595.6287646504637 626.5658517545991 586.8503967993631 626.5643483617304 578.0718276286498 626.568737317808 C563.3049583537597 626.5753072338089 548.538200933148 626.5585982804809 533.7713642120361 626.5286502838135 C519.1490581191497 626.4990713731839 504.52679860673913 626.4798218163097 489.90446281433105 626.47438621521 C488.9955005042767 626.4740425170166 488.0865381942224 626.4736988188233 487.15003157174215 626.4733447055332 C482.5339248611356 626.4716530540544 477.9178181098404 626.4701461302243 473.3017113134265 626.4687103256583 C440.6006046021661 626.4582065518501 407.8995587527012 626.4245149848444 375.198486328125 626.377197265625 C343.4286327748728 626.3312800362513 311.6587960054206 626.2959440951751 279.888916015625 626.274658203125 C277.8913341957203 626.2733049931242 275.8937523760273 626.2719514704966 273.89617055654526 626.2705976366997 C257.66514168428927 626.2596538769611 241.4341123527452 626.2494409514628 225.20308289676905 626.2394052222371 C150.13533093198677 626.1924634539281 75.06773777209628 626.0921126768943 0 626 C0 419.41999999999996 0 212.83999999999997 0 0 Z " fill="none" transform="translate(0,0)"/>
<path stroke="#d8b4fe" stroke-width="1.5" stroke-linecap="round" d="M0 0 C0.6600000000000001 0 1.3200000000000003 0 2 0 C2.53109375 1.085390625 3.0621875000000003 2.17078125 3.609375 3.2890625 C4.322699101620756 4.734482390126269 5.036253005569254 6.179788887163274 5.75 7.625 C6.098046875000001 8.3378515625 6.446093749999999 9.050703125 6.8046875 9.78515625 C8.461405868896954 13.129272957588295 10.145430889384762 16.322847277811228 12.265625 19.3984375 C14 22 14 22 14 24 C12.540967419594981 23.69078116094297 11.082792782852458 23.377512005127425 9.625 23.0625 C8.812890625000001 22.8884765625 8.00078125 22.714453125 7.1640625 22.53515625 C4.9999999999999964 21.999999999999996 4.9999999999999964 21.999999999999996 3 21 C3 215.37 3 409.74 3 610 C162.06 610 321.12 610 485 610 C485 609.34 485 608.68 485 608 C527.9 608 570.8 608 615 608 C615 608.66 615 609.32 615 610 C625.23 610 635.46 610 646 610 C644.68 607.03 643.36 604.06 642 601 C641.67 599.68 641.34 598.36 641 597 C644.5926806015395 598.6916991182006 647.8893555531731 600.7646427051916 651.25 602.875 C656.0516070696144 605.867296052398 660.8794971630233 608.5903516061286 666 611 C662.9155354416906 613.4881838203069 659.7619198597035 615.1772652784464 656.1875 616.875 C651.3975089217986 619.2201608706005 647.2142446022989 621.74353826186 643 625 C642.34 624.67 641.68 624.34 641 624 C642.32 620.37 643.64 616.74 645 613 C635.1 613 625.2 613 615 613 C615 613.66 615 614.32 615 615 C572.76 615 530.52 615 487 615 C487 614.34 487 613.68 487 613 C325.96 613 164.91999999999996 613 -1 613 C-1 417.64 -1 222.27999999999997 -1 21 C-6.445 22.485 -6.445 22.485 -12 24 C-10.402230573754109 20.005576434385272 -8.764507325649006 16.771334711289754 -6.5625 13.125 C-4.016605176901081 8.828802486020574 -1.7981796504366603 4.654112036424297 0 0 Z " fill="none" transform="translate(13,1)"/>
<path stroke="#d8b4fe" stroke-width="1.5" stroke-linecap="round" d="M0 0 C0.7627221679687466 0.12834228515623636 1.5254443359374932 0.25668457031250114 2.311279296875 0.388916015625 C10.894278257210175 1.9408364239281752 19.14733484191754 4.507688495694055 27.44287109375 7.16259765625 C30.553750300844683 8.149931300616146 33.684098489143565 9.069934685961584 36.8125 10 C41.29963693283946 11.387244624274786 45.64676909300866 12.963027845483055 49.98193359375 14.767578125 C52.780270397041875 15.912972073721505 55.59616299783539 16.998182850441538 58.421875 18.07421875 C82.7702139952373 27.420166670055664 106.74955343487892 37.48649093949945 130.4154052734375 48.443603515625 C135.5245705958522 50.8078234892879 140.66002014270654 53.10708893009172 145.8125 55.375 C156.58587333432052 60.13795185582262 167.23371384536466 65.10593744196251 177.74951171875 70.41552734375 C183.98819483606485 73.5531192040612 190.27875668502276 76.57956393898019 196.572998046875 79.60385131835938 C216.45826732161947 89.16144808824401 236.2501356233097 98.90228843993145 255.734375 109.2578125 C260.6367063661725 111.85925677508988 265.5689564597498 114.40142493299464 270.50146484375 116.945068359375 C280.8236178019236 122.27037727910829 291.09303287964894 127.6712385061661 301.27099609375 133.267333984375 C308.0925441462827 137.01640740727373 314.9515447620424 140.69209514988438 321.8215026855469 144.3514404296875 C332.0748076584157 149.8152893595077 342.2559299014027 155.3885993908504 352.3447265625 161.15185546875 C357.15501796802295 163.89561029414995 361.9844432168523 166.59063665322714 366.86328125 169.2109375 C368.37462646484374 170.02365112304688 368.37462646484374 170.02365112304688 369.91650390625 170.852783203125 C371.8360350166246 171.88097898109504 373.7587207034269 172.903315248279 375.68505859375 173.918701171875 C384.7030866378181 178.751898190438 384.7030866378181 178.751898190438 386.6875 181.875 C387.13827100615623 184.81463050290824 387.0653255988758 187.6604293799191 386.9375 190.625 C386.919453125 191.4177734375 386.90140625 192.21054687499998 386.8828125 193.02734375 C386.83583081979083 194.97708347868013 386.76409044093197 196.92619878073037 386.6875 198.875 C385.3675 198.875 384.0475 198.875 382.6875 198.875 C382.751630859375 198.02139892578123 382.81576171875 197.1677978515625 382.8818359375 196.288330078125 C383.03375552474125 189.34251972318663 383.03375552474125 189.34251972318663 379.541015625 183.65380859375 C376.4211931772182 181.71116622648873 373.2682923139226 180.11650188098315 369.9375 178.5625 C368.7148977536551 177.94668458353988 367.4949617115042 177.3255506322041 366.277587890625 176.699462890625 C363.72172636979917 175.39018389811702 361.155757249049 174.10479243772613 358.58056640625 172.833984375 C352.9285992714104 170.02058890371268 347.4414101008083 166.91385213639006 341.9365539550781 163.82565307617188 C338.8957833521009 162.12503241196066 335.8426764588027 160.44695044975788 332.7890625 158.76953125 C331.8908251190186 158.27592857360838 331.8908251190186 158.27592857360838 330.9744415283203 157.77235412597656 C320.5840222806628 152.06817243551086 310.14561693388157 146.45390847025942 299.6875 140.875 C298.73744079589846 140.3680661010742 298.73744079589846 140.3680661010742 297.7681884765625 139.85089111328125 C267.26250461101904 123.58000783195081 236.54634264060292 107.75490604172734 205.6492919921875 92.24081420898438 C202.97751105852655 90.89913948641674 200.30704941134388 89.55489864272482 197.6378173828125 88.20816040039063 C180.88095122641 79.75749802547051 163.99499830705804 71.71251991163422 146.84814453125 64.082763671875 C140.56774375787177 61.28627711263357 134.3345798893855 58.39912465027834 128.1114044189453 55.47825622558594 C100.5685297452655 42.58120073339063 72.55596970146635 30.763588675980372 43.86572265625 20.65380859375 C41.75191084478544 19.89802965645208 39.65274919419136 19.110823835984718 37.5546875 18.3125 C31.76208799221922 16.127673184161267 25.84412006837357 14.33869058264446 19.919921875 12.5498046875 C18.419926145742522 12.096393904946694 16.921236470704144 11.638641750023055 15.423828125 11.1767578125 C2.8605151774290505 7.323936861512664 -9.115177367715432 4.6629995036443574 -22.32421875 6.81640625 C-24.3125 6.875 -24.3125 6.875 -27.3125 4.875 C-26.3125 1.875 -26.3125 1.875 -24.5625 0.92578125 C-23.819999999999993 0.6821484374999898 -23.0775 0.43851562500000796 -22.3125 0.1875 C-21.590625000000003 -0.06386718749999432 -20.868750000000006 -0.31523437499998863 -20.125 -0.57421875 C-13.425501633984368 -1.8862038466780575 -6.6762950450025045 -1.1354658277565761 0 0 Z " fill="none" transform="translate(115.3125,245.125)"/>
<path stroke="#d8b4fe" stroke-width="1.5" stroke-linecap="round" d="M0 0 C3.5926806015395414 1.6916991182006313 6.889355553173004 3.7646427051915907 10.25 5.875 C15.051607069614306 8.867296052398046 19.87949716302319 11.590351606128593 25 14 C21.91553544169051 16.48818382030686 18.761919859703426 18.177265278446384 15.1875 19.875 C10.397508921798362 22.22016087060058 6.214244602299004 24.74353826185984 2 28 C1.3400000000000318 27.66999999999996 0.6800000000000637 27.340000000000032 0 27 C1.3199999999999363 23.370000000000005 2.6399999999999864 19.74000000000001 4 16 C-5.899999999999977 16 -15.799999999999955 16 -26 16 C-26 16.659999999999968 -26 17.32000000000005 -26 18 C-68.24000000000001 18 -110.48000000000002 18 -154 18 C-154 16.67999999999995 -154 15.360000000000014 -154 14 C-154.66000000000003 14 -155.32 14 -156 14 C-156 13.009999999999991 -156 12.019999999999982 -156 11 C-113.10000000000002 11 -70.20000000000005 11 -26 11 C-26 11.659999999999968 -26 12.32000000000005 -26 13 C-15.769999999999982 13 -5.539999999999964 13 5 13 C3.019999999999982 8.544999999999959 3.019999999999982 8.544999999999959 1 4 C0.6699999999999591 2.67999999999995 0.34000000000003183 1.3600000000000136 0 0 Z " fill="none" transform="translate(654,598)"/>
<path stroke="#d8b4fe" stroke-width="1.5" stroke-linecap="round" d="M0 0 C3.5926806015394277 1.6916991182006313 6.889355553173004 3.7646427051915907 10.25 5.875 C15.051607069614192 8.867296052398046 19.87949716302319 11.590351606128593 25 14 C21.91553544169051 16.488183820306972 18.76191985970354 18.177265278446384 15.1875 19.875 C10.397508921798249 22.22016087060058 6.214244602299004 24.74353826185984 2 28 C1.3400000000000318 27.66999999999996 0.67999999999995 27.340000000000032 0 27 C1.9800000000000182 21.55499999999995 1.9800000000000182 21.55499999999995 4 16 C-5.899999999999977 16 -15.799999999999955 16 -26 16 C-26 15.009999999999991 -26 14.019999999999982 -26 13 C-15.769999999999982 13 -5.539999999999964 13 5 13 C3.67999999999995 10.029999999999973 2.3600000000000136 7.059999999999945 1 4 C0.6699999999999591 2.67999999999995 0.34000000000003183 1.3600000000000136 0 0 Z " fill="none" transform="translate(654,598)"/>
<path stroke="#d8b4fe" stroke-width="1.5" stroke-linecap="round" d="M0 0 C1.3199999999999932 0 2.6399999999999864 0 4 0 C4 5.279999999999973 4 10.559999999999945 4 16 C2.680000000000007 16 1.3600000000000136 16 0 16 C0 10.720000000000027 0 5.440000000000055 0 0 Z " fill="none" transform="translate(498,578)"/>
<path stroke="#d8b4fe" stroke-width="1.5" stroke-linecap="round" d="M0 0 C1.3199999999999932 0 2.6399999999999864 0 4 0 C4 5.279999999999973 4 10.559999999999945 4 16 C2.680000000000007 16 1.3600000000000136 16 0 16 C0 10.720000000000027 0 5.440000000000055 0 0 Z " fill="none" transform="translate(498,548)"/>
<path stroke="#d8b4fe" stroke-width="1.5" stroke-linecap="round" d="M0 0 C0.9900000000000091 0 1.9800000000000182 0 3 0 C3 5.279999999999973 3 10.559999999999945 3 16 C1.6800000000000068 16 0.36000000000001364 16 -1 16 C-1.0268509531761083 13.52076199007331 -1.0467654748738369 11.041811602025064 -1.0625 8.5625 C-1.0750683593749955 7.501923828124973 -1.0750683593749955 7.501923828124973 -1.087890625 6.419921875 C-1.0965358760493586 4.613064405685009 -1.0522001148022468 2.806123972156911 -1 1 C-0.6700000000000159 0.6699999999999591 -0.339999999999975 0.34000000000003183 0 0 Z " fill="none" transform="translate(499,518)"/>
<path stroke="#d8b4fe" stroke-width="1.5" stroke-linecap="round" d="M0 0 C0.9900000000000091 0 1.9800000000000182 0 3 0 C3 5.279999999999973 3 10.560000000000002 3 16 C1.6800000000000068 16 0.36000000000001364 16 -1 16 C-1.0268509531761083 13.52076199007331 -1.0467654748738369 11.041811602025064 -1.0625 8.5625 C-1.0750683593749955 7.501923828124973 -1.0750683593749955 7.501923828124973 -1.087890625 6.419921875 C-1.0965358760493586 4.613064405685009 -1.0522001148022468 2.806123972156911 -1 1 C-0.6700000000000159 0.6700000000000159 -0.339999999999975 0.339999999999975 0 0 Z " fill="none" transform="translate(499,488)"/>
<path stroke="#d8b4fe" stroke-width="1.5" stroke-linecap="round" d="M0 0 C0.9900000000000091 0 1.9800000000000182 0 3 0 C3 5.279999999999973 3 10.560000000000002 3 16 C1.6800000000000068 16 0.36000000000001364 16 -1 16 C-1.0268509531761083 13.52076199007331 -1.0467654748738369 11.041811602025064 -1.0625 8.5625 C-1.0750683593749955 7.501923828124973 -1.0750683593749955 7.501923828124973 -1.087890625 6.419921875 C-1.0965358760493586 4.613064405685009 -1.0522001148022468 2.806123972156911 -1 1 C-0.6700000000000159 0.6700000000000159 -0.339999999999975 0.339999999999975 0 0 Z " fill="none" transform="translate(499,458)"/>
<path stroke="#d8b4fe" stroke-width="1.5" stroke-linecap="round" d="M0 0 C3.1074331437917393 4.143244191722374 4.019394945456135 6.957314181404968 4 12 C3.143569693390745 15.557479735146103 2.584301502013508 17.415698497986455 0 20 C0 13.399999999999977 0 6.7999999999999545 0 0 Z " fill="none" transform="translate(0,584)"/>
<path stroke="#d8b4fe" stroke-width="1.5" stroke-linecap="round" d="M0 0 C3.1074331437917393 4.143244191722317 4.019394945456135 6.957314181404968 4 12 C3.143569693390745 15.557479735146131 2.584301502013508 17.415698497986483 0 20 C0 13.400000000000006 0 6.800000000000011 0 0 Z " fill="none" transform="translate(0,152)"/>

  </g>
</svg>