<?xml version="1.0" encoding="UTF-8"?>
<svg width="100" height="100" viewBox="0 0 100 100" fill="none" xmlns="http://www.w3.org/2000/svg">
  <g transform="translate(25, 25) scale(0.09765625)">
    
<path stroke="#d8b4fe" stroke-width="1.5" stroke-linecap="round" d="M0 0 C1.1098828125000182 1.011269531250008 1.1098828125000182 1.011269531250008 2.2421875 2.04296875 C19.147491850421886 18.075935331449926 33.613813944773824 41.97585949894244 35.177001953125 65.6845703125 C35.924697246745495 100.99008672680401 25.262413448345626 125.82328566241426 1.5703125 151.6484375 C-39.95033750659837 194.80268685112026 -103.48356533416359 213.62426455396707 -161 222 C-162.68706054687505 222.24991699218748 -162.68706054687505 222.24991699218748 -164.408203125 222.5048828125 C-201.2987957718675 227.68759259971262 -241.1831590617584 227.59650926319108 -278 222 C-279.1780419921875 221.82839355468752 -280.356083984375 221.656787109375 -281.56982421875 221.47998046875 C-339.29075493967747 212.90118893246125 -395.7210163300813 193.2870282072073 -439 153 C-439.739921875 152.3258203125 -440.47984375 151.65164062500003 -441.2421875 150.95703125 C-459.8579204585415 133.3018966113832 -473.30124873733894 108.16267122105182 -474.3359375 82.2734375 C-474.8572343488578 48.31792690773193 -461.35902475905976 22.95819130695719 -438.1875 -1.125 C-402.53114857007114 -35.881506598889644 -352.8882906384829 -54.28929760324553 -305 -64 C-304.0488330078125 -64.194326171875 -303.097666015625 -64.38865234375 -302.11767578125 -64.5888671875 C-201.95175326278905 -84.59760820304058 -77.45302165214667 -72.09855230963493 0 0 Z M-267 -56.8125 C-268.1215649414063 -56.67940429687499 -269.24312988281247 -56.54630859375 -270.398681640625 -56.4091796875 C-320.7353062149136 -50.151661454945724 -373.26006411251205 -35.41764967303118 -414 -4 C-415.39025390625 -2.944257812499984 -415.39025390625 -2.944257812499984 -416.80859375 -1.8671875 C-438.2927343679434 15.033254031096277 -457.30104413429046 38.04205858167876 -461 66 C-463.20911494752914 91.92062939612595 -454.8205054358042 114.34742197080925 -438.4140625 134.26953125 C-392.77955007238575 185.88526618026276 -318.28264085750146 207.48646348658576 -251.51416015625 211.625732421875 C-248.34298659436644 211.79067492575797 -245.17429672821768 211.9139756984223 -242 212 C-242.4705078125 211.10539062499998 -242.941015625 210.21078125000003 -243.42578125 209.2890625 C-253.01862977280382 190.77884581891652 -253.01862977280382 190.77884581891652 -252 181 C-250 179 -250 179 -246.375 178.875 C-245.26125 178.91625 -244.1475 178.95749999999998 -243 179 C-240.1683112931501 184.3917328575194 -238.23129278765023 189.9037799441479 -236.28125 195.66015625 C-235.12627634667427 198.9798562125689 -235.12627634667427 198.9798562125689 -233.35546875 201.6640625 C-231.27955350611487 205.241576378511 -231.7931667641878 207.93227969569335 -232 212 C-229.62374823000025 212.1088359589313 -227.2525602378345 212.1876669600568 -224.875 212.25 C-223.877265625 212.30027343749998 -223.877265625 212.30027343749998 -222.859375 212.3515625 C-217.70264984248365 212.4526747579905 -214.94070071328576 211.25635326669487 -211 208 C-197.04836061324164 192.59308757063195 -195.9143568938543 168.64026196834595 -196.77978515625 149.0009765625 C-197.95660413406563 132.96388246570467 -201.69974325364075 117.06775032770031 -213.5 105.5625 C-216.5319458405594 103.66753384965034 -218.41137814931392 103 -222 103 C-226.5326215650667 105.12165264747807 -228.53704275159035 107.67003425058567 -231.375 111.75 C-234.36202705154844 115.83293854249689 -234.36202705154844 115.83293854249689 -237.22265625 116.58203125 C-239.43749999999997 116.5625 -239.43749999999997 116.5625 -243 116 C-244.5029278032168 113.46875317352959 -245.2006986989305 111.79254011767449 -244.46484375 108.88671875 C-243.70285009528004 106.89135862159378 -242.89496635840197 104.93909377653767 -242 103 C-245.14775349059695 102.10057586642324 -248.11777019366585 101.78896379348237 -251.3828125 101.60546875 C-291.9125898929898 99.10415722330345 -337.03385609449475 93.94894860443947 -366.125 62.71875 C-376.700540167309 50.13750393889106 -378.37379726703347 35.761784759911194 -378 20 C-376.5425753746895 19.91903196526053 -375.0838719342828 19.860822256498324 -373.625 19.8125 C-372.4068359375 19.760292968750008 -372.4068359375 19.760292968750008 -371.1640625 19.70703125 C-370.449921875 19.8037109375 -369.73578125 19.900390625 -369 20 C-366.6203618628225 23.569457205766298 -366.5481527598777 25.818018745308336 -366.125 30.0625 C-364.815317464302 41.10409047790728 -361.3192162433972 48.66639344568421 -354 57 C-353.4882421875 57.605859374999994 -352.976484375 58.21171874999999 -352.44921875 58.8359375 C-346.3095065769821 65.56981536718092 -336.9273200927571 71.97218767976153 -328 74 C-326.04891248659726 73.35753493310187 -326.04891248659726 73.35753493310187 -324.4375 71.9375 C-301.95418804908246 56.516789758571434 -268.1709121449036 57.11661279744166 -242 55 C-242.5194921875 54.1144140625 -243.038984375 53.22882812500001 -243.57421875 52.31640625 C-258.4419688663186 26.22468251010443 -260.74604022309546 -5.236531847012145 -253.44775390625 -34.19091796875 C-251.44687017186607 -41.33358814170114 -248.83321278418097 -48.03865627170765 -244.91796875 -54.36328125 C-243.83694208770493 -55.97796712484963 -243.83694208770493 -55.97796712484963 -244 -58 C-251.75830291489083 -58.16322217008444 -259.29716206051046 -57.7283010056986 -267 -56.8125 Z M-232.66796875 -50.83203125 C-246.4229671542673 -29.156416798031216 -247.68159887506735 -1.8806459577031092 -242.5478515625 22.69091796875 C-239.79479813142322 34.29447382932233 -235.31712782562565 46.32429239588495 -224.91766357421875 53.11468505859375 C-220.99629710914283 54.92503613838389 -216.7142255969614 54.765377548049344 -212.4609375 54.90625 C-211.4347782897949 54.956150817871105 -210.4086190795898 55.00605163574218 -209.3513641357422 55.057464599609375 C-207.15996414021077 55.16364982901655 -204.9681947368261 55.26242711992583 -202.77615356445313 55.35443115234375 C-197.0839129221995 55.59805817334484 -191.3956219299584 55.910053485219464 -185.70703125 56.2265625 C-184.03679145812987 56.31890670776369 -184.03679145812987 56.31890670776369 -182.3328094482422 56.413116455078125 C-157.9941343656343 57.818871383289945 -133.51222668834873 60.92979136038352 -112 73 C-111.34000000000003 73.33000000000001 -110.68 73.66 -110 74 C-101.95897248373149 70.49286604742377 -94.59688275289182 65.7674122299349 -88 60 C-87.37480468749999 59.4573046875 -86.74960937499998 58.914609375 -86.10546875 58.35546875 C-76.47552463234047 49.39689328542346 -71.99545190381309 38.095955638653834 -71.30859375 25.12890625 C-71 22.99999999999997 -71 22.99999999999997 -69 20 C-65.5 19.6875 -65.5 19.6875 -62 20 C-59.39609551437576 22.60390448562424 -59.70177676902972 23.74870066644661 -59.6875 27.375 C-59.98830468520708 43.092044802070376 -66.38451435620834 56.126201735495044 -77.21484375 67.28125 C-106.17081831695361 94.68852576515548 -152.5761887496942 100.1141894444321 -190.7421875 101.65625 C-193.72975731019352 101.97148518380936 -195.4825480941081 102.43133650085127 -198 104 C-197.46890625000003 104.95777343750001 -196.9378125 105.91554687500002 -196.390625 106.90234375 C-182.61036751820745 132.5640428043709 -181.1994872995803 164.27506508624674 -189.13671875 192.125 C-191.3267922805656 199.25549206734098 -194.2626109938633 205.56298066105416 -198 212 C-150.93681139067087 209.5104086303043 -103.4049174317355 200.26446815643158 -61 179 C-59.89664306640623 178.45545166015626 -59.89664306640623 178.45545166015626 -58.77099609375 177.89990234375 C-24.453689784965263 160.85030045858343 5.466841284359248 136.08604696658722 19.3125 99.53515625 C24.392213738388534 83.57286134291098 23.673625453116074 65.6726881328652 18 50 C17.660976562500025 48.993242187500016 17.321953124999993 47.986484375 16.97265625 46.94921875 C11.76123025854821 32.946988772967586 2.3110249409862718 21.555797046410248 -8 11 C-8.703828124999973 10.234296874999984 -9.407656250000002 9.468593749999997 -10.1328125 8.6796875 C-20.894656959749796 -2.736869930685174 -34.36895717903667 -11.406015771071736 -48 -19 C-48.753134765624964 -19.426357421874997 -49.50626953125004 -19.852714843749993 -50.2822265625 -20.2919921875 C-91.06845139092081 -43.21876931687129 -143.63878945370044 -58.616014241721174 -190.6875 -58.0625 C-191.70199218749997 -58.053476562499995 -192.716484375 -58.044453125000004 -193.76171875 -58.03515625 C-194.5003515625 -58.023554687499995 -195.23898437499997 -58.011953125000005 -196 -58 C-195.8930078125 -57.3851171875 -195.786015625 -56.770234375 -195.67578125 -56.13671875 C-195.5558984375 -55.3284765625 -195.43601562499998 -54.520234375 -195.3125 -53.6875 C-195.1848828125 -52.8869921875 -195.057265625 -52.086484375 -194.92578125 -51.26171875 C-195 -49 -195 -49 -196.16796875 -47.20703125 C-198.7380380069407 -45.51374468199427 -199.97283154845564 -45.39726512257511 -203 -46 C-205.53515625 -48.3359375 -205.53515625 -48.3359375 -208.0625 -51.375 C-211.7409642093753 -55.76195115262939 -214.06405064924508 -58.466191027135466 -219.75 -59.5 C-225.45046813434018 -58.62300490240921 -229.1989104642751 -55.34099459561435 -232.66796875 -50.83203125 Z M-313 79 C-308.7285309733472 81.84764601776857 -304.29972911307357 82.41773206828083 -299.3125 83.4375 C-297.7183728027344 83.76572753906248 -297.7183728027344 83.76572753906248 -296.092041015625 84.1005859375 C-272.3871780156875 88.8230731738592 -248.71254247528327 90.1870019230887 -224.59765625 90.185302734375 C-221.16653738404068 90.18747371790943 -217.73574917203257 90.20564643007128 -214.3046875 90.224609375 C-194.59101116967742 90.27554659352955 -174.91641095996306 89.31357985709013 -155.4375 86.125 C-154.37031738281246 85.95645507812503 -153.30313476562503 85.78791015625 -152.20361328125 85.6142578125 C-143.66520184043043 84.2180720517373 -135.32290252317762 82.36360373770003 -127 80 C-138.49330807672663 68.50669192327337 -169.55582447894346 69.17471759921818 -185 68 C-185.72977050781253 67.94215332031251 -186.459541015625 67.884306640625 -187.21142578125 67.82470703125 C-228.61164498672042 64.68168520826205 -273.4306376226619 65.6327714539934 -313 79 Z " fill="none" transform="translate(476,179)"/>
<path stroke="#d8b4fe" stroke-width="1.5" stroke-linecap="round" d="M0 0 C3.274822262132261 0.4877394858494881 3.966437952421046 0.8883513394205806 5.9375 3.4375 C6.11961561183864 6.5304301410596395 6.114910943110601 9.361032963786784 5.9375 12.4375 C5.893027343749992 13.338071289062498 5.8485546875000125 14.238642578124995 5.802734375 15.16650390625 C5.63811126385059 18.03203691628761 5.418991971996945 20.889145046071178 5.1875 23.75 C5.125625000000014 24.725175781250016 5.063749999999999 25.700351562499975 5 26.705078125 C4.420561811669927 33.74042346164083 4.420561811669927 33.74042346164083 2.0859375 37.109375 C-0.0625 38.4375 -0.0625 38.4375 -3.6875 38.375 C-7.0625 37.4375 -7.0625 37.4375 -9.0625 34.4375 C-9.262484295789704 31.952401030260262 -9.346478772868608 29.607793783054944 -9.3125 27.125 C-9.305732421875007 26.42020507812498 -9.298964843750014 25.715410156250016 -9.2919921875 24.9892578125 C-8.941559115427538 6.7911868837135785 -8.941559115427538 6.7911868837135785 -5.17578125 2.07421875 C-3.0625 0.4375 -3.0625 0.4375 0 0 Z " fill="none" transform="translate(229.0625,306.5625)"/>
<path stroke="#d8b4fe" stroke-width="1.5" stroke-linecap="round" d="M0 0 C2.665881030237017 2.075861476986205 3.4343380929649356 3.7317303430291986 3.94921875 7.02734375 C4.075385742187507 7.814316406249986 4.201552734375014 8.601289062500001 4.33154296875 9.412109375 C4.449008789062475 10.245488281250005 4.566474609375007 11.078867187500009 4.6875 11.9375 C4.812700195312516 12.787636718750008 4.937900390624975 13.637773437499987 5.06689453125 14.513671875 C6.997114383712869 28.36923642138632 6.997114383712869 28.36923642138632 6 34 C4.256669877013508 36.24000537170056 3.2779380323210603 36.907353989226294 0.5625 37.8125 C-2.3524609279318724 38.02578982399501 -3.6028870379449245 37.626612367108805 -6 36 C-8.121599940347835 31.75680011930436 -8.057448935860236 26.47640342059293 -8.625 21.8125 C-8.771953124999982 20.68779296874999 -8.91890625000002 19.563085937500006 -9.0703125 18.404296875 C-10.435347923106747 7.24119468892016 -10.435347923106747 7.24119468892016 -9 2 C-5.530761194694037 -0.3128258702039943 -4.077944249583254 -0.4247858593315925 0 0 Z " fill="none" transform="translate(288,144)"/>
<path stroke="#d8b4fe" stroke-width="1.5" stroke-linecap="round" d="M0 0 C2 1.5 2 1.5 3 4 C3 14.285734314514002 -1.9021925451299921 26.210676801948267 -7 35 C-9.798700265905268 36.399350132952634 -11.904987921033182 36.25265404726258 -15 36 C-16.875 34.9375 -16.875 34.9375 -18 33 C-19.018091683826867 27.018711357517134 -16.790560136965723 22.706680080282922 -14.37109375 17.28515625 C-12.498472507925385 12.798334413576185 -11.198766828038345 8.198129515048265 -9.89453125 3.51953125 C-8.214158095762627 -1.2133975032012927 -4.492026539353617 -0.3940374157327824 0 0 Z " fill="none" transform="translate(289,194)"/>

  </g>
</svg>