<?xml version="1.0" encoding="UTF-8"?>
<svg width="100" height="100" viewBox="0 0 100 100" fill="none" xmlns="http://www.w3.org/2000/svg">
  <g transform="translate(25, 25) scale(0.09765625)">
    
<path stroke="#fbbf24" stroke-width="1.5" stroke-linecap="round" d="M0 0 C5.280000000000001 0 10.560000000000002 0 16 0 C16 10.560000000000002 16 21.120000000000005 16 32 C21.28 32 26.560000000000002 32 32 32 C32 21.439999999999998 32 10.879999999999995 32 0 C37.28 0 42.56 0 48 0 C48 10.560000000000002 48 21.120000000000005 48 32 C53.28 32 58.56 32 64 32 C64 21.439999999999998 64 10.879999999999995 64 0 C69.28 0 74.56 0 80 0 C80 10.560000000000002 80 21.120000000000005 80 32 C85.28 32 90.56 32 96 32 C96 21.439999999999998 96 10.879999999999995 96 0 C101.27999999999997 0 106.56 0 112 0 C112 10.560000000000002 112 21.120000000000005 112 32 C117.27999999999997 32 122.56 32 128 32 C128 21.439999999999998 128 10.879999999999995 128 0 C133.27999999999997 0 138.56 0 144 0 C144 10.560000000000002 144 21.120000000000005 144 32 C149.27999999999997 32 154.56 32 160 32 C160 21.439999999999998 160 10.879999999999995 160 0 C165.27999999999997 0 170.56 0 176 0 C176 10.560000000000002 176 21.120000000000005 176 32 C177.98000000000002 32 179.96000000000004 32 182 32 C186.75733744839613 34.473815473165985 189.52618452683402 37.24266255160387 192 42 C192 43.97999999999999 192 45.96000000000001 192 48 C202.56 48 213.12 48 224 48 C224 53.28 224 58.56 224 64 C213.44 64 202.88 64 192 64 C192 69.28 192 74.56 192 80 C202.56 80 213.12 80 224 80 C224 85.28 224 90.56 224 96 C213.44 96 202.88 96 192 96 C192 101.28 192 106.56 192 112 C202.56 112 213.12 112 224 112 C224 117.28 224 122.56 224 128 C213.44 128 202.88 128 192 128 C192 133.28 192 138.56 192 144 C202.56 144 213.12 144 224 144 C224 149.27999999999997 224 154.56 224 160 C213.44 160 202.88 160 192 160 C192 165.27999999999997 192 170.56 192 176 C202.56 176 213.12 176 224 176 C224 181.27999999999997 224 186.56 224 192 C213.44 192 202.88 192 192 192 C192 197.27999999999997 192 202.56 192 208 C202.56 208 213.12 208 224 208 C224 213.27999999999997 224 218.56 224 224 C213.44 224 202.88 224 192 224 C192 225.98000000000002 192 227.96000000000004 192 230 C189.52618452683402 234.75733744839613 186.75733744839613 237.52618452683396 182 240 C180.01999999999998 240 178.03999999999996 240 176 240 C176 250.56 176 261.12 176 272 C170.72000000000003 272 165.44 272 160 272 C160 261.44 160 250.88 160 240 C154.72000000000003 240 149.44 240 144 240 C144 250.56 144 261.12 144 272 C138.72000000000003 272 133.44 272 128 272 C128 261.44 128 250.88 128 240 C122.72000000000003 240 117.44 240 112 240 C112 250.56 112 261.12 112 272 C106.72000000000003 272 101.44 272 96 272 C96 261.44 96 250.88 96 240 C90.72000000000003 240 85.44 240 80 240 C80 250.56 80 261.12 80 272 C74.72 272 69.44 272 64 272 C64 261.44 64 250.88 64 240 C58.72 240 53.44 240 48 240 C48 250.56 48 261.12 48 272 C42.72 272 37.44 272 32 272 C32 261.44 32 250.88 32 240 C26.72 240 21.439999999999998 240 16 240 C16 250.56 16 261.12 16 272 C10.719999999999999 272 5.439999999999998 272 0 272 C0 261.44 0 250.88 0 240 C-1.9799999999999898 240 -3.960000000000008 240 -6 240 C-10.757337448396271 237.52618452683396 -13.526184526833958 234.75733744839624 -16 230 C-16 228.01999999999998 -16 226.03999999999996 -16 224 C-26.560000000000002 224 -37.120000000000005 224 -48 224 C-48 218.72000000000003 -48 213.44 -48 208 C-37.44 208 -26.879999999999995 208 -16 208 C-16 202.72000000000003 -16 197.44 -16 192 C-26.560000000000002 192 -37.120000000000005 192 -48 192 C-48 186.72000000000003 -48 181.44 -48 176 C-37.44 176 -26.879999999999995 176 -16 176 C-16 170.72000000000003 -16 165.44 -16 160 C-26.560000000000002 160 -37.120000000000005 160 -48 160 C-48 154.72000000000003 -48 149.44 -48 144 C-37.44 144 -26.879999999999995 144 -16 144 C-16 138.72000000000003 -16 133.44 -16 128 C-26.560000000000002 128 -37.120000000000005 128 -48 128 C-48 122.72 -48 117.44 -48 112 C-37.44 112 -26.879999999999995 112 -16 112 C-16 106.72 -16 101.44 -16 96 C-26.560000000000002 96 -37.120000000000005 96 -48 96 C-48 90.72 -48 85.44 -48 80 C-37.44 80 -26.879999999999995 80 -16 80 C-16 74.72 -16 69.44 -16 64 C-26.560000000000002 64 -37.120000000000005 64 -48 64 C-48 58.72 -48 53.44 -48 48 C-37.44 48 -26.879999999999995 48 -16 48 C-16 46.02000000000001 -16 44.03999999999999 -16 42 C-13.526184526833958 37.24266255160376 -10.757337448396214 34.47381547316604 -6 32 C-4.02000000000001 32 -2.039999999999992 32 0 32 C0 21.439999999999998 0 10.879999999999995 0 0 Z M0 48 C0 106.08000000000001 0 164.16000000000003 0 224 C58.08000000000001 224 116.16000000000003 224 176 224 C176 165.91999999999996 176 107.83999999999997 176 48 C117.91999999999996 48 59.839999999999975 48 0 48 Z " fill="none" transform="translate(168,120)"/>
<path stroke="#fbbf24" stroke-width="1.5" stroke-linecap="round" d="M0 0 C36.95999999999998 0 73.92000000000002 0 112 0 C112 10.560000000000002 112 21.12 112 32 C117.27999999999997 32 122.56 32 128 32 C128 21.439999999999998 128 10.879999999999999 128 0 C164.96000000000004 0 201.92000000000002 0 240 0 C240 26.400000000000006 240 52.800000000000004 240 80 C203.03999999999996 80 166.07999999999998 80 128 80 C128 69.44 128 58.879999999999995 128 48 C122.72000000000003 48 117.44 48 112 48 C112 58.56 112 69.12 112 80 C75.03999999999996 80 38.079999999999984 80 0 80 C0 53.599999999999994 0 27.199999999999996 0 0 Z M16 16 C16 31.840000000000003 16 47.68 16 64 C42.39999999999998 64 68.80000000000001 64 96 64 C96 48.16 96 32.32 96 16 C69.60000000000002 16 43.19999999999999 16 16 16 Z M144 16 C144 31.840000000000003 144 47.68 144 64 C170.39999999999998 64 196.8 64 224 64 C224 48.16 224 32.32 224 16 C197.60000000000002 16 171.2 16 144 16 Z " fill="none" transform="translate(248,8)"/>
<path stroke="#fbbf24" stroke-width="1.5" stroke-linecap="round" d="M0 0 C5.280000000000001 0 10.560000000000002 0 16 0 C16 5.279999999999973 16 10.560000000000002 16 16 C21.28 16 26.560000000000002 16 32 16 C32 10.720000000000027 32 5.439999999999998 32 0 C37.28 0 42.56 0 48 0 C48 5.279999999999973 48 10.560000000000002 48 16 C53.28 16 58.56 16 64 16 C64 10.720000000000027 64 5.439999999999998 64 0 C69.28 0 74.56 0 80 0 C80 5.279999999999973 80 10.560000000000002 80 16 C85.28 16 90.56 16 96 16 C96 42.39999999999998 96 68.80000000000001 96 96 C90.72 96 85.44 96 80 96 C80 101.27999999999997 80 106.56 80 112 C74.72 112 69.44 112 64 112 C64 106.72000000000003 64 101.44 64 96 C58.72 96 53.44 96 48 96 C48 101.27999999999997 48 106.56 48 112 C42.72 112 37.44 112 32 112 C32 106.72000000000003 32 101.44 32 96 C26.72 96 21.439999999999998 96 16 96 C16 101.27999999999997 16 106.56 16 112 C10.719999999999999 112 5.439999999999998 112 0 112 C0 106.72000000000003 0 101.44 0 96 C-5.280000000000001 96 -10.56 96 -16 96 C-16 69.60000000000002 -16 43.19999999999999 -16 16 C-10.719999999999999 16 -5.439999999999998 16 0 16 C0 10.720000000000027 0 5.439999999999998 0 0 Z M0 32 C0 47.84000000000003 0 63.68000000000001 0 80 C26.400000000000006 80 52.80000000000001 80 80 80 C80 64.15999999999997 80 48.31999999999999 80 32 C53.599999999999994 32 27.199999999999996 32 0 32 Z " fill="none" transform="translate(24,392)"/>
<path stroke="#fbbf24" stroke-width="1.5" stroke-linecap="round" d="M0 0 C5.279999999999973 0 10.560000000000002 0 16 0 C16 52.80000000000001 16 105.60000000000002 16 160 C-42.08000000000004 160 -100.16000000000003 160 -160 160 C-160 154.72000000000003 -160 149.44 -160 144 C-107.19999999999999 144 -54.39999999999998 144 0 144 C0 96.48000000000002 0 48.95999999999998 0 0 Z " fill="none" transform="translate(424,296)"/>
<path stroke="#fbbf24" stroke-width="1.5" stroke-linecap="round" d="M0 0 C5.587302231508659 3.3716478983241984 9.981881833964962 8.177527335859907 11.5625 14.5 C22.452499999999986 14.5 33.34249999999997 14.5 44.5625 14.5 C44.5625 77.86000000000001 44.5625 141.22000000000003 44.5625 206.5 C39.28250000000003 206.5 34.0025 206.5 28.5625 206.5 C28.5625 148.41999999999996 28.5625 90.33999999999997 28.5625 30.5 C22.952499999999986 30.5 17.342499999999973 30.5 11.5625 30.5 C10.902500000000032 32.14999999999998 10.242500000000007 33.80000000000001 9.5625 35.5 C6.0075438131542 40.62138806864857 1.9265213168529272 45.34188304657977 -4.4375 46.5 C-12.331339521959649 47.24416864228499 -19.99874134091823 47.67117306176817 -26.4375 42.5 C-31.48271221987028 37.69551361169408 -35.04312994910225 33.338229448853895 -35.7734375 26.23046875 C-35.867332036669325 17.71423427409212 -35.55522879522181 11.824045060535667 -29.56640625 5.53515625 C-21.523631848121283 -1.8994688587310122 -10.480608801978406 -4.644348214210055 0 0 Z M-16.8125 17.125 C-18.92456505806132 20.211864315628077 -19.049451449500395 21.8282913029976 -18.4375 25.5 C-16.9375 28 -16.9375 28 -14.4375 29.5 C-10.76579130299757 30.111951449500395 -9.149364315628077 29.98706505806132 -6.0625 27.875 C-3.9504349419386813 24.788135684371923 -3.8255485504996045 23.17170869700243 -4.4375 19.5 C-5.9375 17 -5.9375 17 -8.4375 15.5 C-12.10920869700243 14.888048550499605 -13.725635684371923 15.012934941938681 -16.8125 17.125 Z " fill="none" transform="translate(443.4375,233.5)"/>
<path stroke="#fbbf24" stroke-width="1.5" stroke-linecap="round" d="M0 0 C5.280000000000001 0 10.560000000000002 0 16 0 C16 13.199999999999989 16 26.400000000000006 16 40 C0.1599999999999966 40 -15.68 40 -32 40 C-32 74.32 -32 108.63999999999999 -32 144 C-37.28 144 -42.56 144 -48 144 C-48 104.39999999999998 -48 64.80000000000001 -48 24 C-32.16 24 -16.32 24 0 24 C0 16.079999999999984 0 8.159999999999997 0 0 Z " fill="none" transform="translate(72,168)"/>
<path stroke="#fbbf24" stroke-width="1.5" stroke-linecap="round" d="M0 0 C10.560000000000002 0 21.120000000000005 0 32 0 C32 5.280000000000001 32 10.560000000000002 32 16 C26.72 16 21.439999999999998 16 16 16 C16 34.480000000000004 16 52.96000000000001 16 72 C5.439999999999998 72 -5.1200000000000045 72 -16 72 C-16 85.2 -16 98.4 -16 112 C-21.28 112 -26.560000000000002 112 -32 112 C-32 93.51999999999998 -32 75.03999999999999 -32 56 C-21.439999999999998 56 -10.879999999999995 56 0 56 C0 37.519999999999996 0 19.04 0 0 Z " fill="none" transform="translate(136,40)"/>
<path stroke="#fbbf24" stroke-width="1.5" stroke-linecap="round" d="M0 0 C5.280000000000001 0 10.560000000000002 0 16 0 C16 15.840000000000003 16 31.680000000000007 16 48 C31.840000000000003 48 47.68000000000001 48 64 48 C64 61.2 64 74.4 64 88 C58.72 88 53.44 88 48 88 C48 80.07999999999998 48 72.16 48 64 C32.16 64 16.32 64 0 64 C0 42.879999999999995 0 21.75999999999999 0 0 Z " fill="none" transform="translate(24,64)"/>
<path stroke="#fbbf24" stroke-width="1.5" stroke-linecap="round" d="M0 0 C36.95999999999998 0 73.92000000000002 0 112 0 C112 5.279999999999973 112 10.560000000000002 112 16 C75.03999999999996 16 38.079999999999984 16 0 16 C0 10.720000000000027 0 5.439999999999998 0 0 Z " fill="none" transform="translate(328,472)"/>
<path stroke="#fbbf24" stroke-width="1.5" stroke-linecap="round" d="M0 0 C5.279999999999973 0 10.560000000000002 0 16 0 C16 21.120000000000005 16 42.24000000000001 16 64 C-5.1200000000000045 64 -26.24000000000001 64 -48 64 C-48 58.72000000000003 -48 53.44 -48 48 C-32.160000000000025 48 -16.319999999999993 48 0 48 C0 32.15999999999997 0 16.319999999999993 0 0 Z " fill="none" transform="translate(296,248)"/>
<path stroke="#fbbf24" stroke-width="1.5" stroke-linecap="round" d="M0 0 C21.120000000000005 0 42.24000000000001 0 64 0 C64 5.280000000000001 64 10.560000000000002 64 16 C48.16 16 32.31999999999999 16 16 16 C16 31.840000000000003 16 47.68000000000001 16 64 C10.719999999999999 64 5.439999999999998 64 0 64 C0 42.879999999999995 0 21.75999999999999 0 0 Z " fill="none" transform="translate(200,200)"/>
<path stroke="#fbbf24" stroke-width="1.5" stroke-linecap="round" d="M0 0 C5.279999999999973 0 10.560000000000002 0 16 0 C16 36.96000000000001 16 73.92000000000002 16 112 C10.720000000000027 112 5.439999999999998 112 0 112 C0 75.03999999999999 0 38.079999999999984 0 0 Z " fill="none" transform="translate(424,104)"/>
<path stroke="#fbbf24" stroke-width="1.5" stroke-linecap="round" d="M0 0 C5.824857785384893 3.5199678229960227 10.544665819064392 8.989629340754846 12.5625 15.5 C13.367641050039879 23.336082080039546 13.68710391557238 31.11922576529014 8.5625 37.5 C3.758013611694082 42.54521221987028 -0.5992705511461054 46.10562994910225 -7.70703125 46.8359375 C-16.22326572590788 46.929832036669325 -22.11345493946436 46.61772879522181 -28.40234375 40.62890625 C-34.78416679763944 33.72505268721625 -35.91792251852837 28.29832070834425 -35.7421875 18.9453125 C-35.04689797182124 11.083192450594083 -31.38995981393549 6.95041296221126 -25.53515625 1.9453125 C-18.4707798782473 -2.922134906980432 -7.843963006711704 -3.475952234346778 0 0 Z M-16.8125 17.125 C-18.92456505806132 20.211864315628077 -19.049451449500395 21.82829130299757 -18.4375 25.5 C-16.9375 28 -16.9375 28 -14.4375 29.5 C-10.76579130299757 30.111951449500395 -9.149364315628077 29.98706505806132 -6.0625 27.875 C-3.9504349419386813 24.788135684371923 -3.8255485504996045 23.17170869700243 -4.4375 19.5 C-5.9375 17 -5.9375 17 -8.4375 15.5 C-12.10920869700243 14.888048550499605 -13.725635684371923 15.012934941938681 -16.8125 17.125 Z " fill="none" transform="translate(491.4375,457.5)"/>
<path stroke="#fbbf24" stroke-width="1.5" stroke-linecap="round" d="M0 0 C5.824857785384921 3.5199678229960227 10.544665819064363 8.989629340754846 12.5625 15.5 C13.367641050039907 23.336082080039546 13.68710391557238 31.11922576529014 8.5625 37.5 C3.7580136116941105 42.54521221987028 -0.5992705511461054 46.10562994910225 -7.70703125 46.8359375 C-16.22326572590788 46.929832036669325 -22.11345493946436 46.61772879522181 -28.40234375 40.62890625 C-34.78416679763944 33.72505268721625 -35.9179225185284 28.29832070834425 -35.7421875 18.9453125 C-35.04689797182124 11.083192450594083 -31.38995981393552 6.95041296221126 -25.53515625 1.9453125 C-18.4707798782473 -2.922134906980432 -7.843963006711704 -3.475952234346778 0 0 Z M-16.8125 17.125 C-18.92456505806132 20.211864315628077 -19.049451449500395 21.82829130299757 -18.4375 25.5 C-16.9375 28 -16.9375 28 -14.4375 29.5 C-10.765791302997599 30.111951449500395 -9.149364315628077 29.98706505806132 -6.0625 27.875 C-3.9504349419386813 24.788135684371923 -3.8255485504996045 23.17170869700243 -4.4375 19.5 C-5.9375 17 -5.9375 17 -8.4375 15.5 C-12.109208697002401 14.888048550499605 -13.725635684371923 15.012934941938681 -16.8125 17.125 Z " fill="none" transform="translate(235.4375,425.5)"/>
<path stroke="#fbbf24" stroke-width="1.5" stroke-linecap="round" d="M0 0 C5.824857785384921 3.5199678229960227 10.544665819064363 8.989629340754846 12.5625 15.5 C13.367641050039907 23.336082080039546 13.68710391557238 31.11922576529014 8.5625 37.5 C3.7580136116941105 42.54521221987028 -0.5992705511461054 46.10562994910225 -7.70703125 46.8359375 C-16.22326572590788 46.929832036669325 -22.11345493946436 46.61772879522181 -28.40234375 40.62890625 C-34.78416679763944 33.72505268721625 -35.9179225185284 28.29832070834425 -35.7421875 18.9453125 C-35.04689797182124 11.083192450594083 -31.38995981393552 6.95041296221126 -25.53515625 1.9453125 C-18.4707798782473 -2.922134906980432 -7.843963006711704 -3.475952234346778 0 0 Z M-16.8125 17.125 C-18.92456505806132 20.211864315628077 -19.049451449500395 21.82829130299757 -18.4375 25.5 C-16.9375 28 -16.9375 28 -14.4375 29.5 C-10.765791302997599 30.111951449500395 -9.149364315628077 29.98706505806132 -6.0625 27.875 C-3.9504349419386813 24.788135684371923 -3.8255485504996045 23.17170869700243 -4.4375 19.5 C-5.9375 17 -5.9375 17 -8.4375 15.5 C-12.109208697002401 14.888048550499605 -13.725635684371923 15.012934941938681 -16.8125 17.125 Z " fill="none" transform="translate(171.4375,425.5)"/>
<path stroke="#fbbf24" stroke-width="1.5" stroke-linecap="round" d="M0 0 C5.824857785384914 3.5199678229960227 10.54466581906437 8.989629340754846 12.5625 15.5 C13.3676410500399 23.336082080039546 13.687103915572372 31.11922576529014 8.5625 37.5 C3.7580136116941105 42.54521221987028 -0.5992705511461196 46.10562994910225 -7.70703125 46.8359375 C-16.223265725907886 46.929832036669325 -22.113454939464347 46.61772879522181 -28.40234375 40.62890625 C-34.784166797639436 33.72505268721625 -35.917922518528385 28.29832070834425 -35.7421875 18.9453125 C-35.046897971821245 11.083192450594083 -31.389959813935512 6.95041296221126 -25.53515625 1.9453125 C-18.470779878247313 -2.922134906980432 -7.843963006711718 -3.475952234346778 0 0 Z M-16.8125 17.125 C-18.924565058061315 20.211864315628077 -19.049451449500403 21.82829130299757 -18.4375 25.5 C-16.9375 28 -16.9375 28 -14.4375 29.5 C-10.765791302997599 30.111951449500395 -9.149364315628077 29.98706505806132 -6.0625 27.875 C-3.9504349419386813 24.788135684371923 -3.8255485504995974 23.17170869700243 -4.4375 19.5 C-5.9375 17 -5.9375 17 -8.4375 15.5 C-12.109208697002408 14.888048550499605 -13.725635684371923 15.012934941938681 -16.8125 17.125 Z " fill="none" transform="translate(43.4375,329.5)"/>
<path stroke="#fbbf24" stroke-width="1.5" stroke-linecap="round" d="M0 0 C5.824857785384921 3.5199678229960227 10.544665819064363 8.989629340754846 12.5625 15.5 C13.367641050039907 23.336082080039546 13.68710391557238 31.11922576529014 8.5625 37.5 C3.7580136116941105 42.54521221987028 -0.5992705511461054 46.10562994910225 -7.70703125 46.8359375 C-16.22326572590788 46.929832036669325 -22.11345493946436 46.61772879522181 -28.40234375 40.62890625 C-34.78416679763944 33.72505268721625 -35.9179225185284 28.29832070834425 -35.7421875 18.9453125 C-35.04689797182124 11.083192450594083 -31.38995981393552 6.95041296221126 -25.53515625 1.9453125 C-18.4707798782473 -2.922134906980432 -7.843963006711704 -3.475952234346778 0 0 Z M-16.8125 17.125 C-18.92456505806132 20.211864315628077 -19.049451449500395 21.82829130299757 -18.4375 25.5 C-16.9375 28 -16.9375 28 -14.4375 29.5 C-10.765791302997599 30.111951449500395 -9.149364315628077 29.98706505806132 -6.0625 27.875 C-3.9504349419386813 24.788135684371923 -3.8255485504996045 23.17170869700243 -4.4375 19.5 C-5.9375 17 -5.9375 17 -8.4375 15.5 C-12.109208697002401 14.888048550499605 -13.725635684371923 15.012934941938681 -16.8125 17.125 Z " fill="none" transform="translate(219.4375,281.5)"/>
<path stroke="#fbbf24" stroke-width="1.5" stroke-linecap="round" d="M0 0 C5.824857785384921 3.519967822996051 10.544665819064363 8.989629340754846 12.5625 15.5 C13.367641050039907 23.336082080039517 13.68710391557238 31.11922576529014 8.5625 37.5 C3.7580136116941105 42.54521221987028 -0.5992705511461196 46.10562994910225 -7.70703125 46.8359375 C-16.22326572590788 46.929832036669325 -22.113454939464347 46.61772879522181 -28.40234375 40.62890625 C-34.784166797639436 33.72505268721625 -35.917922518528385 28.29832070834422 -35.7421875 18.9453125 C-35.046897971821245 11.083192450594055 -31.389959813935512 6.95041296221126 -25.53515625 1.9453125 C-18.470779878247313 -2.922134906980432 -7.843963006711718 -3.4759522343467495 0 0 Z M-16.8125 17.125 C-18.92456505806132 20.211864315628077 -19.049451449500395 21.8282913029976 -18.4375 25.5 C-16.9375 28 -16.9375 28 -14.4375 29.5 C-10.765791302997599 30.111951449500395 -9.149364315628077 29.98706505806132 -6.0625 27.875 C-3.9504349419386813 24.788135684371923 -3.8255485504996045 23.1717086970024 -4.4375 19.5 C-5.9375 17 -5.9375 17 -8.4375 15.5 C-12.109208697002401 14.888048550499605 -13.725635684371923 15.012934941938681 -16.8125 17.125 Z " fill="none" transform="translate(91.4375,225.5)"/>
<path stroke="#fbbf24" stroke-width="1.5" stroke-linecap="round" d="M0 0 C5.824857785384893 3.519967822996051 10.544665819064392 8.989629340754846 12.5625 15.5 C13.367641050039879 23.336082080039517 13.68710391557238 31.11922576529011 8.5625 37.5 C3.758013611694082 42.54521221987028 -0.5992705511461054 46.10562994910222 -7.70703125 46.8359375 C-16.22326572590788 46.929832036669325 -22.11345493946436 46.61772879522181 -28.40234375 40.62890625 C-34.78416679763944 33.72505268721625 -35.91792251852837 28.29832070834422 -35.7421875 18.9453125 C-35.04689797182124 11.083192450594055 -31.38995981393549 6.95041296221126 -25.53515625 1.9453125 C-18.4707798782473 -2.922134906980432 -7.843963006711704 -3.4759522343467495 0 0 Z M-16.8125 17.125 C-18.92456505806132 20.211864315628077 -19.049451449500395 21.8282913029976 -18.4375 25.5 C-16.9375 28 -16.9375 28 -14.4375 29.5 C-10.76579130299757 30.111951449500395 -9.149364315628077 29.98706505806132 -6.0625 27.875 C-3.9504349419386813 24.788135684371923 -3.8255485504996045 23.1717086970024 -4.4375 19.5 C-5.9375 17 -5.9375 17 -8.4375 15.5 C-12.10920869700243 14.888048550499605 -13.725635684371923 15.012934941938681 -16.8125 17.125 Z " fill="none" transform="translate(491.4375,185.5)"/>
<path stroke="#fbbf24" stroke-width="1.5" stroke-linecap="round" d="M0 0 C5.824857785384893 3.519967822996051 10.544665819064392 8.989629340754846 12.5625 15.5 C13.367641050039879 23.336082080039517 13.68710391557238 31.11922576529011 8.5625 37.5 C3.758013611694082 42.54521221987028 -0.5992705511461054 46.10562994910222 -7.70703125 46.8359375 C-16.22326572590788 46.929832036669325 -22.11345493946436 46.61772879522181 -28.40234375 40.62890625 C-34.78416679763944 33.72505268721625 -35.91792251852837 28.29832070834422 -35.7421875 18.9453125 C-35.04689797182124 11.083192450594055 -31.38995981393549 6.95041296221126 -25.53515625 1.9453125 C-18.4707798782473 -2.922134906980432 -7.843963006711704 -3.4759522343467495 0 0 Z M-16.8125 17.125 C-18.92456505806132 20.211864315628077 -19.049451449500395 21.8282913029976 -18.4375 25.5 C-16.9375 28 -16.9375 28 -14.4375 29.5 C-10.76579130299757 30.111951449500395 -9.149364315628077 29.98706505806132 -6.0625 27.875 C-3.9504349419386813 24.788135684371923 -3.8255485504996045 23.1717086970024 -4.4375 19.5 C-5.9375 17 -5.9375 17 -8.4375 15.5 C-12.10920869700243 14.888048550499605 -13.725635684371923 15.012934941938681 -16.8125 17.125 Z " fill="none" transform="translate(315.4375,185.5)"/>
<path stroke="#fbbf24" stroke-width="1.5" stroke-linecap="round" d="M0 0 C5.824857785384921 3.519967822996044 10.544665819064363 8.989629340754846 12.5625 15.5 C13.367641050039907 23.336082080039517 13.68710391557238 31.11922576529011 8.5625 37.5 C3.7580136116941105 42.54521221987028 -0.5992705511461054 46.10562994910222 -7.70703125 46.8359375 C-16.22326572590788 46.929832036669325 -22.11345493946436 46.61772879522182 -28.40234375 40.62890625 C-34.78416679763944 33.725052687216234 -35.9179225185284 28.29832070834422 -35.7421875 18.9453125 C-35.04689797182124 11.083192450594069 -31.38995981393552 6.950412962211274 -25.53515625 1.9453125 C-18.4707798782473 -2.922134906980439 -7.843963006711704 -3.47595223434676 0 0 Z M-16.8125 17.125 C-18.92456505806132 20.211864315628077 -19.049451449500395 21.82829130299759 -18.4375 25.5 C-16.9375 28 -16.9375 28 -14.4375 29.5 C-10.765791302997599 30.111951449500403 -9.149364315628077 29.98706505806132 -6.0625 27.875 C-3.9504349419386813 24.788135684371923 -3.8255485504996045 23.17170869700241 -4.4375 19.5 C-5.9375 17 -5.9375 17 -8.4375 15.5 C-12.109208697002401 14.888048550499597 -13.725635684371923 15.012934941938681 -16.8125 17.125 Z " fill="none" transform="translate(219.4375,25.5)"/>
<path stroke="#fbbf24" stroke-width="1.5" stroke-linecap="round" d="M0 0 C5.824857785384914 3.519967822996044 10.54466581906437 8.989629340754846 12.5625 15.5 C13.3676410500399 23.336082080039517 13.687103915572372 31.11922576529011 8.5625 37.5 C3.7580136116941105 42.54521221987028 -0.5992705511461196 46.10562994910223 -7.70703125 46.8359375 C-16.223265725907886 46.929832036669325 -22.113454939464347 46.61772879522182 -28.40234375 40.62890625 C-34.784166797639436 33.725052687216234 -35.917922518528385 28.29832070834422 -35.7421875 18.9453125 C-35.046897971821245 11.083192450594066 -31.389959813935512 6.950412962211274 -25.53515625 1.9453125 C-18.470779878247313 -2.922134906980437 -7.843963006711718 -3.475952234346762 0 0 Z M-16.8125 17.125 C-18.924565058061315 20.211864315628077 -19.049451449500403 21.82829130299759 -18.4375 25.5 C-16.9375 28 -16.9375 28 -14.4375 29.5 C-10.765791302997599 30.111951449500403 -9.149364315628077 29.98706505806132 -6.0625 27.875 C-3.9504349419386813 24.788135684371923 -3.8255485504995974 23.17170869700241 -4.4375 19.5 C-5.9375 17 -5.9375 17 -8.4375 15.5 C-12.109208697002408 14.888048550499597 -13.725635684371923 15.012934941938685 -16.8125 17.125 Z " fill="none" transform="translate(43.4375,9.5)"/>
<path stroke="#fbbf24" stroke-width="1.5" stroke-linecap="round" d="M0 0 C5.280000000000001 0 10.560000000000002 0 16 0 C16 26.399999999999977 16 52.80000000000001 16 80 C10.719999999999999 80 5.439999999999998 80 0 80 C0 53.60000000000002 0 27.19999999999999 0 0 Z " fill="none" transform="translate(72,288)"/>
<path stroke="#fbbf24" stroke-width="1.5" stroke-linecap="round" d="M0 0 C5.279999999999973 0 10.560000000000002 0 16 0 C16 21.120000000000005 16 42.24000000000001 16 64 C10.720000000000027 64 5.439999999999998 64 0 64 C0 42.879999999999995 0 21.75999999999999 0 0 Z " fill="none" transform="translate(472,104)"/>
<path stroke="#fbbf24" stroke-width="1.5" stroke-linecap="round" d="M0 0 C5.280000000000001 0 10.560000000000002 0 16 0 C16 5.279999999999973 16 10.560000000000002 16 16 C10.719999999999999 16 5.439999999999998 16 0 16 C0 10.720000000000027 0 5.439999999999998 0 0 Z " fill="none" transform="translate(72,440)"/>
<path stroke="#fbbf24" stroke-width="1.5" stroke-linecap="round" d="M0 0 C5.280000000000001 0 10.560000000000002 0 16 0 C16 5.279999999999973 16 10.560000000000002 16 16 C10.719999999999999 16 5.439999999999998 16 0 16 C0 10.720000000000027 0 5.439999999999998 0 0 Z " fill="none" transform="translate(40,440)"/>
<path stroke="#fbbf24" stroke-width="1.5" stroke-linecap="round" d="M0 0 C5.279999999999973 0 10.560000000000002 0 16 0 C16 5.280000000000001 16 10.560000000000002 16 16 C10.720000000000027 16 5.439999999999998 16 0 16 C0 10.719999999999999 0 5.439999999999998 0 0 Z " fill="none" transform="translate(440,40)"/>
<path stroke="#fbbf24" stroke-width="1.5" stroke-linecap="round" d="M0 0 C5.279999999999973 0 10.560000000000002 0 16 0 C16 5.280000000000001 16 10.560000000000002 16 16 C10.720000000000027 16 5.439999999999998 16 0 16 C0 10.719999999999999 0 5.439999999999998 0 0 Z " fill="none" transform="translate(408,40)"/>
<path stroke="#fbbf24" stroke-width="1.5" stroke-linecap="round" d="M0 0 C5.279999999999973 0 10.560000000000002 0 16 0 C16 5.280000000000001 16 10.560000000000002 16 16 C10.720000000000027 16 5.439999999999998 16 0 16 C0 10.719999999999999 0 5.439999999999998 0 0 Z " fill="none" transform="translate(312,40)"/>
<path stroke="#fbbf24" stroke-width="1.5" stroke-linecap="round" d="M0 0 C5.279999999999973 0 10.560000000000002 0 16 0 C16 5.280000000000001 16 10.560000000000002 16 16 C10.720000000000027 16 5.439999999999998 16 0 16 C0 10.719999999999999 0 5.439999999999998 0 0 Z " fill="none" transform="translate(280,40)"/>

  </g>
</svg>