<?xml version="1.0" encoding="UTF-8"?>
<svg width="100" height="100" viewBox="0 0 100 100" fill="none" xmlns="http://www.w3.org/2000/svg">
<polygon points="50,25 76,40 76,70 50,85 24,70 24,40" fill="none" stroke="#ed4264" stroke-width="2" stroke-linejoin="round"/>
<polyline points="50,25 50,55 24,70" fill="none" stroke="#ed4264" stroke-width="2" stroke-linejoin="round"/>
<line x1="50" y1="55" x2="76" y2="70" stroke="#ed4264" stroke-width="2" stroke-linejoin="round"/>
<line x1="32.666666666666664" y1="45" x2="32.666666666666664" y2="75" stroke="#ed4264" stroke-width="1.2" stroke-linejoin="round"/>
<line x1="41.33333333333333" y1="50" x2="41.33333333333333" y2="80" stroke="#ed4264" stroke-width="1.2" stroke-linejoin="round"/>
<line x1="50" y1="65" x2="24" y2="50" stroke="#ed4264" stroke-width="1.2" stroke-linejoin="round"/>
<line x1="50" y1="75" x2="24" y2="60" stroke="#ed4264" stroke-width="1.2" stroke-linejoin="round"/>
<line x1="58.666666666666664" y1="50" x2="58.666666666666664" y2="80" stroke="#ed4264" stroke-width="1.2" stroke-linejoin="round"/>
<line x1="67.33333333333333" y1="45" x2="67.33333333333333" y2="75" stroke="#ed4264" stroke-width="1.2" stroke-linejoin="round"/>
<line x1="50" y1="65" x2="76" y2="50" stroke="#ed4264" stroke-width="1.2" stroke-linejoin="round"/>
<line x1="50" y1="75" x2="76" y2="60" stroke="#ed4264" stroke-width="1.2" stroke-linejoin="round"/>
<line x1="32.666666666666664" y1="35" x2="58.666666666666664" y2="50" stroke="#ed4264" stroke-width="1.2" stroke-linejoin="round"/>
<line x1="41.33333333333333" y1="30" x2="67.33333333333333" y2="45" stroke="#ed4264" stroke-width="1.2" stroke-linejoin="round"/>
<line x1="58.666666666666664" y1="30" x2="32.666666666666664" y2="45" stroke="#ed4264" stroke-width="1.2" stroke-linejoin="round"/>
<line x1="67.33333333333333" y1="35" x2="41.33333333333333" y2="50" stroke="#ed4264" stroke-width="1.2" stroke-linejoin="round"/>

</svg>