<?xml version="1.0" encoding="UTF-8"?>
<svg width="100" height="100" viewBox="0 0 100 100" fill="none" xmlns="http://www.w3.org/2000/svg">
  <g transform="translate(25, 25) scale(0.09765625)">
    
<path stroke="#f472b6" stroke-width="1.5" stroke-linecap="round" d="M0 0 C3.0151637865164957 2.0213388512959867 5.457120898931976 4.424589396572871 8 7 C8.990000000000009 7.78375 9.980000000000018 8.5675 11 9.375 C13.452070199302398 12.593342136584456 13.76883870909046 14.461763638253966 13.57421875 18.44140625 C12.451810995324536 23.442610871172896 9.702024301188203 27.69766963947709 7 32 C7.660000000000025 32.66 8.319999999999993 33.32 9 34 C9.25 37 9.25 37 9 40 C8.339999999999975 40.66 7.680000000000007 41.32 7 42 C4.271305925420393 41.96712416777615 1.7033382001856694 41.436022290352525 -1 41 C-1.2062500000000114 41.721875 -1.4125000000000227 42.44375 -1.625 43.1875 C-3.3400311045558624 46.695518168409706 -5.558548111339974 49.18503551510831 -9 51 C-10.103437499999984 51.1018359375 -11.206875000000025 51.203671875 -12.34375 51.30859375 C-16.793081360791064 52.14997371886754 -18.863390812864964 54.097180674675066 -21.8125 57.3125 C-22.28880859374999 57.79912109375 -22.765117187499982 58.2857421875 -23.255859375 58.787109375 C-25.695491143644688 61.33654172957523 -27.65378781139873 63.72395762195874 -29 67 C-27.849121188668505 68.64293720188493 -27.849121188668505 68.64293720188493 -26 70 C-23.409995595334635 70.0310108234549 -23.409995595334635 70.0310108234549 -20.625 69.5 C-15.346651058631949 68.85850977198697 -15.346651058631949 68.85850977198697 -11.9375 70.25 C-9.731584296566098 72.24243999019838 -8.21294198249069 73.98033550691957 -7.59375 76.9453125 C-7.301751752089217 83.73427176392593 -9.58901789267776 87.92579146603983 -14 93 C-17.792414687972837 96.19361236881923 -22.09147931714716 97.17290288119638 -27 97 C-31.057635526901436 95.49717202707355 -32.58772493894105 94.61841259158842 -35 91 C-35.23046875 88.87890624999997 -35.23046875 88.87890624999997 -35.1875 86.5625 C-35.18105468750002 85.8006640625 -35.17460937499999 85.038828125 -35.16796875 84.25390625 C-35.00451771454408 82.06062142539417 -34.60116512836703 80.11129193082495 -34 78 C-35.31999999999999 77.01 -36.639999999999986 76.02 -38 75 C-39.93984166131713 77.08119446454488 -41.87692293948879 79.16484547345162 -43.8125 81.25 C-44.359707031250025 81.8365234375 -44.90691406249999 82.423046875 -45.470703125 83.02734375 C-48.14780313240419 85.9153667882906 -50.72508831596775 88.77521291105607 -53 92 C-52.339999999999975 92.66 -51.68000000000001 93.32 -51 94 C-48.97948251622722 93.94437167115288 -48.97948251622722 93.94437167115288 -46.75 93.5 C-42.597353744094846 92.95342376728054 -39.82470683519756 93.04317324710823 -36 95 C-32.958710792676925 97.80118742779757 -32.08704523831915 99.31607312749226 -31.5625 103.4375 C-32.28713896344965 109.3381315595187 -34.945409099962944 113.7137181913894 -39 118 C-43.733843780559255 121.19259231712137 -48.421044847932706 122.07880348244396 -54 121 C-57.65420787525807 118.48773208576009 -58.763726776990666 116.91133957446449 -59.875 112.625 C-60.00210551196193 108.9389401531047 -59.665361619051225 105.62252437039014 -59 102 C-62.81406084923901 101.60139648083856 -62.81406084923901 101.60139648083856 -64.67578125 103.25 C-65.21589843750002 103.8275 -65.75601562499997 104.405 -66.3125 105 C-66.91707031250002 105.639375 -67.52164062499997 106.27875 -68.14453125 106.9375 C-70.54630474806578 109.60726085679735 -72.90608286912766 112.31063190166604 -75.25 115.03125 C-76.93798285624871 116.93023071327981 -78.68769733730733 118.72005988485542 -80.5 120.5 C-82.9338973209417 122.89053166711645 -85.21355558951149 125.35046262453376 -87.4375 127.9375 C-90.4767965132337 131.46634762945925 -93.71016847333362 134.73005026950574 -97.02734375 137.99609375 C-99.57337829370016 140.58246151419442 -101.92021556512367 143.31535280024588 -104.28515625 146.06640625 C-106.50169397115661 148.56569137977795 -108.87162281421269 150.882818844249 -111.25390625 153.22265625 C-113.06477642607541 155.06593573571436 -114.75321353581592 156.97822799064298 -116.4375 158.9375 C-119.4767965132337 162.46634762945928 -122.71016847333362 165.73005026950574 -126.02734375 168.99609375 C-128.56955146623358 171.57857406371846 -130.91335209382316 174.30664284897216 -133.2734375 177.0546875 C-135.54668250705708 179.61594544912765 -137.97944657715487 181.9922042964854 -140.421875 184.390625 C-142.45508541551874 186.46409700790522 -144.2475973961212 188.68682856287995 -146 191 C-144.34866505369723 195.40072251153887 -142.2607983228799 199.51007174751584 -140.125 203.6875 C-128.9868099001818 225.866483470064 -123.00450454692515 250.43806319596126 -130.8046875 274.875 C-134.87585446445178 285.51857376327257 -140.68254186500013 294.1866302368183 -149 302 C-147.42536171713306 305.81077687200917 -145.03197229696406 308.2018832704716 -142.1211700439453 311.085693359375 C-141.3702583387494 311.83387659549714 -141.3702583387494 311.83387659549714 -140.6041767001152 312.5971746444702 C-138.92675539615885 314.26618693198344 -137.24231010351235 315.9279264844646 -135.557861328125 317.58984375 C-134.35352408889264 318.7854310677189 -133.14966299409753 319.98149817801874 -131.9462432861328 321.1780090332031 C-129.35485996218057 323.75290503918666 -126.76055266422912 326.32480603498334 -124.16407203674316 328.8945617675781 C-120.06186598115875 332.9554386690033 -115.96887109624288 337.0255130884236 -111.87760925292969 341.097412109375 C-100.24285001793652 352.67455897433604 -88.59812577431302 364.24161841803345 -76.938720703125 375.7939453125 C-70.49882116395906 382.1748594783613 -64.06783719422799 388.5646199957673 -57.64659136533737 394.96430683135986 C-53.57853963851994 399.0176817504449 -49.49963094649729 403.0597060481163 -45.412519097328186 407.09385681152344 C-42.87749021885901 409.60123220849397 -40.35292436047962 412.1189360241699 -37.831281661987305 414.63976669311523 C-36.65646418147344 415.80999878080934 -35.47732172421075 416.97590664062227 -34.293678283691406 418.13721084594727 C-32.68337703849022 419.7183289308469 -31.089041782150332 421.3139645173455 -29.497879028320313 422.914306640625 C-28.599884920120246 423.8050941467285 -27.70189081192018 424.69588165283204 -26.776684761047363 425.61366271972656 C-25 428 -25 428 -25.06238842010498 430.14305114746094 C-26.612544105993834 433.21314955909804 -29.100776382766696 435.4081355851039 -31.5625 437.75 C-32.082636718749995 438.2566015625 -32.60277343749999 438.763203125 -33.138671875 439.28515625 C-34.41910084071816 440.5303440515241 -35.70867554477013 441.766115018067 -37 443 C-35.500318462645566 446.56161792338827 -33.452729863515856 448.70536745315735 -30.6484375 451.3359375 C-29.79765624999999 452.153203125 -28.946874999999977 452.97046875 -28.0703125 453.8125 C-26.273217472425813 455.52104251896907 -24.468492171125945 457.22159495512665 -22.65625 458.9140625 C-21.808046875000002 459.73390625 -20.959843750000005 460.55375 -20.0859375 461.3984375 C-19.302670898437498 462.1375537109375 -18.519404296874995 462.876669921875 -17.71240234375 463.63818359375 C-15.535094331840071 466.6412171989991 -15.51310542193653 468.3679789561914 -16 472 C-18 474 -18 474 -20.719247817993164 474.48565673828125 C-25.244933513237584 473.81570983851446 -27.42892629131086 471.3858743853584 -30.492034912109375 468.2294921875 C-31.117861419916153 467.60879222869875 -31.74368792772293 466.98809226989744 -32.38847887516022 466.34858322143555 C-34.48493921810103 464.2620174003221 -36.559216090521886 462.15470721256065 -38.63427734375 460.046875 C-40.131391504118426 458.5480686904709 -41.62982754480362 457.0505817705703 -43.129486083984375 455.5543212890625 C-47.20039730656151 451.48513437007927 -51.25252095113581 447.3976883525006 -55.30158567428589 443.30677795410156 C-59.53495338777424 439.0359497558886 -63.78527302139389 434.78206190143055 -68.03384399414063 430.5263671875 C-76.07806236628034 422.46348636451745 -84.10686174230284 414.385430347297 -92.13026869297028 406.3018455505371 C-101.26471350546291 397.10037969009454 -110.41616354468653 387.91590752665047 -119.56910014152527 378.7328414916992 C-138.3984179185784 359.8407768892775 -157.20621943061684 340.9274125647021 -176 322 C-182.95124221916905 326.567322611954 -186.94380007695747 331.0037678458146 -191 338.25 C-193.42000119009714 342.39047078618177 -195.1804532206524 344.69470608059333 -200 346 C-204.1048588903629 346 -205.62423036437536 345.3089661448469 -208.8125 342.6875 C-210.87933058355816 340.1482509973428 -211.3923035193302 339.0646198863885 -212 336 C-220.8394884264522 335.2871380301248 -226.60780235800235 337.5542243081748 -233.57421875 343.01953125 C-236.14315170576464 345.265872318517 -238.58518728286975 347.58915901431243 -241 350 C-241.70125000000002 350.6896484375 -242.40249999999997 351.379296875 -243.125 352.08984375 C-253.30817955621401 362.7702488704823 -262.0566595100753 378.51584365865745 -262.1875 393.5625 C-262.2016796875 394.3062890625 -262.21585937500004 395.050078125 -262.23046875 395.81640625 C-261.95770453947455 398.40073156667336 -261.47798318592487 399.8542533264585 -260 402 C-257.7129493036323 403.4498718695578 -257.7129493036323 403.4498718695578 -255.0625 404.5625 C-249.11276708283287 407.2350604414373 -249.11276708283287 407.2350604414373 -247 410 C-246.4102882469232 414.5702660863452 -246.13884217988607 416.78250101294236 -248.8125 420.5625 C-252.20174672711272 423.46894804803685 -256.2026572441556 425.59456917972966 -260.0859375 427.765625 C-267.5807288652327 433.51230148915965 -271.23193429388397 441.0151369914707 -274.4375 449.6875 C-283.88626992742326 473.8787737757234 -298.4281288703505 495.9812150316925 -322.9375 506.75 C-333.0270947309814 510.97009558703786 -342.9356480580747 512.515288927604 -353.8125 512.375 C-354.95178955078126 512.3655737304688 -356.0910791015625 512.3561474609374 -357.264892578125 512.346435546875 C-365.85313276829396 512.1930195417699 -373.7149590644913 511.39195593947164 -382 509 C-383.2001171875 508.6596875 -384.40023437499997 508.319375 -385.63671875 507.96875 C-407.1029926001053 501.32923374124226 -426.19528106140103 489.8685770224827 -443 475 C-443.51900878906247 474.5412548828125 -444.038017578125 474.082509765625 -444.57275390625 473.60986328125 C-471.4283233034933 449.7303728145719 -494.9628978090043 416.66725843197935 -499 380 C-500.16354647835504 357.3450656273226 -498.1822762836393 335.35011146766544 -482.625 317.5625 C-481.10801864248225 316.01704288321145 -479.5662353122021 314.49551900211935 -478 313 C-477.229140625 312.2330078125 -476.45828125 311.466015625 -475.6640625 310.67578125 C-464.0147033261223 299.57307485289 -449.262144942799 292.1774121973427 -434.367431640625 286.3779296875 C-423.4077133155218 282.0871134548303 -417.26499858909426 277.72671794205877 -411.359375 267.3125 C-409.57123881049364 264.27061314888573 -407.8568042810724 262.09034459590663 -405 260 C-401.0585701490533 259.36655591681216 -398.91403761326285 259.5212183930528 -395.375 261.375 C-392.4752046905658 264.5800369209536 -390.9307472744285 267.91375708578977 -389.2109375 271.85546875 C-388.13025877032646 274.32913488919365 -388.13025877032646 274.32913488919365 -385 275 C-369.5759280568004 276.67094112717996 -354.4477818811978 268.2346240589765 -342.59375 259.15234375 C-333.6861304046811 251.76062929665557 -323.26300486915795 242.31171917344213 -322.0625 230.0625 C-322.12041026600934 227.89050980929315 -322.12041026600934 227.89050980929315 -323 226 C-324.917483333079 224.35828955077952 -326.8438686319806 223.26614423155698 -329.08203125 222.10546875 C-331 221 -331 221 -332.5625 218.5625 C-333.122683858843 215.28142311249104 -332.99764264650815 213.19245646882607 -332 210 C-329.21987593766255 206.412743145371 -326.0826097575071 204.43126146420397 -322.1875 202.25 C-316.66171870668427 199.08530966409802 -312.9345290725154 194.9456371023238 -309 190 C-314.3101239014352 183.53476076996688 -320.2075649955641 177.71366212353195 -326.161865234375 171.8515625 C-327.28779249468323 170.7390338069828 -328.413430619193 169.62621243206095 -329.53880310058594 168.51312255859375 C-331.9505393288904 166.1281461804533 -334.3635289314497 163.74444754118025 -336.7772808074951 161.36151123046875 C-340.5932282447869 157.59269075820131 -344.401462583657 153.8161420572419 -348.20777893066406 150.03759765625 C-348.85150103509426 149.39861478805543 -349.49522313952446 148.75963191986085 -350.15845197439194 148.10128593444824 C-351.47388661327005 146.79545119429022 -352.78929039643344 145.48958537087645 -354.10466396808624 144.18368911743164 C-362.95807012009163 135.39410596345596 -371.81520188363265 126.60851350471624 -380.698974609375 117.849609375 C-386.7036643508484 111.9292105919108 -392.694142450408 105.9948422293335 -398.6683536171913 100.0436840057373 C-401.82745024390067 96.89787854823416 -404.9933940049865 93.75972162839139 -408.1767864227295 90.63848876953125 C-411.1661968104761 87.70719335971522 -414.13650080777404 84.75783682049432 -417.0931034088135 81.79346466064453 C-418.1814544932381 80.70891498527932 -419.27669541346336 79.63122950893563 -420.37915802001953 78.56102752685547 C-421.88282430661513 77.09937077127843 -423.35982158349793 75.61509460408648 -424.83274841308594 74.12255859375 C-425.6665524959564 73.29742767333984 -426.5003565788269 72.4722967529297 -427.3594274520874 71.62216186523438 C-429 69 -429 69 -428.76045322418213 65.17984008789063 C-428.384028878212 63.60581924438477 -428.384028878212 63.60581924438477 -428 62 C-425.1875 61.375 -425.1875 61.375 -422 61 C-420.515 61.989999999999995 -420.515 61.989999999999995 -419 63 C-415.9524544892476 62.65170908448544 -413.1913621936527 61.7574086580958 -410.25 60.875 C-402.6194403495583 59.00308368125869 -396.5223245556019 60.80778027397084 -389.6775703430176 64.34407615661621 C-384.8284226882179 67.34299614488508 -381.0236641265435 71.32586081257217 -377.05224609375 75.380126953125 C-376.1060461016758 76.32774066390331 -375.1587371181515 77.27424811434366 -374.2104187011719 78.21974182128906 C-371.6625889549005 80.7661486418031 -369.1303735983583 83.32757009717588 -366.6008677482605 85.89216256141663 C-363.94606059826583 88.57842226219513 -361.27689703989074 91.25034231687367 -358.6092834472656 93.92387390136719 C-353.57043386052135 98.97820672462477 -348.5444561379037 104.04513763830168 -343.5230804681778 109.11682432889938 C-337.80137065403375 114.89460019309325 -332.0652995516417 120.65802847844762 -326.32803225517273 126.4203497171402 C-314.53607178952535 138.26444317681975 -302.7620991406827 150.12624978853117 -291 162 C-287.7453573278053 160.45375893861652 -285.53798247761677 158.75812889429952 -282.9375 156.25 C-267.5040638258848 142.32964580373925 -248.89224276522793 140.2169972689514 -229.00537109375 140.8251953125 C-212.49957451549392 141.7852400200574 -196.0379434329367 148.82376975489555 -182.41796875 157.91015625 C-180.09904887146018 159.2684587537185 -180.09904887146018 159.2684587537185 -177.9375 158.41015625 C-175.76947958303776 156.83222203523513 -173.79049691390372 155.18845557770288 -171.8125 153.375 C-170.93464843750002 152.570625 -170.05679687499997 151.76625 -169.15234375 150.9375 C-163.13825625616488 145.34809750003478 -157.1691134829976 139.71071622042183 -151.19921875 134.07421875 C-147.76414442739912 130.83438843863044 -144.32030541561244 127.60394378519496 -140.875 124.375 C-140.21749755859378 123.75874755859375 -139.5599951171875 123.1424951171875 -138.882568359375 122.507568359375 C-131.31429420987223 115.4170351005818 -123.72995348603456 108.3437322926631 -116.1455078125 101.2705078125 C-114.28435209325687 99.53466925899234 -112.42337749222276 97.79863681717455 -110.5625 96.0625 C-109.64138427734372 95.20325927734376 -109.64138427734372 95.20325927734376 -108.70166015625 94.32666015625 C-104.74815570491285 90.63692874101979 -100.80287996556899 86.93856228433017 -96.861083984375 83.236328125 C-89.62166659927772 76.43778099181368 -82.34164495191993 69.68812731415431 -75 63 C-75.66000000000003 62.34 -76.32 61.68 -77 61 C-77.66000000000003 61.33 -78.32 61.66 -79 62 C-83.63213493160373 62.55512815486803 -86.9817212724721 62.63642420470493 -91 60.125 C-93.50458563467225 57.46387776316072 -93.94606374521135 56.53936254788665 -94.3125 52.875 C-93.81896425363936 46.755156745128474 -91.61089254489707 42.10655788797825 -86.9375 38.0625 C-82.18879721129014 34.728304424948384 -77.66874676897731 34.134770229998196 -72 35 C-68.34579212474227 37.5122679142397 -67.23627322300928 39.08866042553573 -66.125 43.375 C-65.99789448803807 47.061059846895304 -66.33463838094877 50.377475629609876 -67 54 C-62.95864413210603 52.40069566365334 -60.32092847733014 49.51339591015352 -57.375 46.4375 C-52.2398648648649 41.11993243243245 -52.2398648648649 41.11993243243245 -50 40 C-50.329999999999984 39.01 -50.660000000000025 38.02 -51 37 C-51.73605468749997 37.1069921875 -52.472109375 37.213984375 -53.23046875 37.32421875 C-61.271731690622914 38.31211498973306 -61.271731690622914 38.31211498973306 -65.0625 36.6875 C-68.95298940895117 33.29900922446191 -68.95298940895117 33.29900922446191 -69.3359375 30.86328125 C-69.43154936313914 24.61982658701243 -68.73836651554916 21.051846642633976 -65 16 C-61.639800973272884 12.728227263449908 -58.58721108923834 11.00918643963244 -54 10 C-49.71457806449473 10.075182840973776 -47.582325844146055 10.591132917940016 -44.0625 13.0625 C-40.80187649211916 17.70641832940608 -41.60151265292683 21.609075917560922 -42.5 27 C-42.66500000000002 27.66 -42.829999999999984 28.32 -43 29 C-41.68000000000001 29 -40.360000000000014 29 -39 29 C-38.93683593750001 28.419921875 -38.873671875000014 27.83984375 -38.80859375 27.2421875 C-37.895698447824316 21.418876414542645 -36.29795283820857 18.624882621396107 -31.65625 14.99609375 C-30 14 -30 14 -28 14 C-28.20625000000001 12.72125 -28.412500000000023 11.442499999999999 -28.625 10.125 C-28.9765625 7.945312500000044 -28.9765625 7.945312500000044 -29 6 C-27 4.000000000000002 -27 4.000000000000002 -24.0625 3.75 C-21 4 -21 4 -18 6 C-17.370937500000025 5.566875 -16.741874999999993 5.13375 -16.09375 4.6875 C-6.722385362547982 -1.4095324147278046 -6.722385362547982 -1.4095324147278046 0 0 Z M-5 10 C-12.259999999999991 14.95 -19.519999999999982 19.9 -27 25 C-24.96986589466428 29.060268210671406 -22.576044460262892 31.654573757969153 -19.375 34.75 C-18.859375 35.256601562499995 -18.34375 35.763203125000004 -17.8125 36.28515625 C-16.54616661473051 37.528039017023744 -15.27368560211778 38.76465276048776 -14 40 C-10.279722562930374 38.75990752097679 -9.757631188991752 37.54609549139104 -7.64453125 34.30859375 C-7.022558593749977 33.36435546875 -6.400585937500011 32.4201171875 -5.759765625 31.447265625 C-5.117167968749982 30.45404296875 -4.4745703125000205 29.4608203125 -3.8125 28.4375 C-2.8312011718750227 26.941865234375 -2.8312011718750227 26.941865234375 -1.830078125 25.416015625 C-0.21272603469122942 22.948668275550848 1.396889297386565 20.476614699578942 3 18 C2.045781918150624 16.850737341671962 1.0864795548042139 15.705694590281567 0.125 14.5625 C-0.4086718749999818 13.9244140625 -0.9423437500000205 13.286328125 -1.4921875 12.62890625 C-2.922275703729099 10.891949957306798 -2.922275703729099 10.891949957306798 -5 10 Z M-54 21 C-55.64999999999998 22.65 -57.30000000000001 24.3 -59 26 C-58.00999999999999 26.495 -58.00999999999999 26.495 -57 27 C-55.35000000000002 25.35 -53.69999999999999 23.7 -52 22 C-52.660000000000025 21.67 -53.31999999999999 21.34 -54 21 Z M-32 37 C-32.44844852933085 41.126126148874306 -32.44844852933085 41.126126148874306 -29.5 43.75 C-28.67500000000001 44.4925 -27.850000000000023 45.235 -27 46 C-26.00999999999999 45.67 -25.019999999999982 45.34 -24 45 C-24.954218081849376 43.85073734167196 -25.913520445195786 42.70569459028157 -26.875 41.5625 C-27.408671874999982 40.9244140625 -27.94234375000002 40.286328125 -28.4921875 39.62890625 C-29.9222757037291 37.8919499573068 -29.9222757037291 37.8919499573068 -32 37 Z M-78 45 C-79.64999999999998 46.65 -81.30000000000001 48.3 -83 50 C-82.67000000000002 50.66 -82.33999999999997 51.32 -82 52 C-80.35000000000002 50.35 -78.69999999999999 48.7 -77 47 C-77.32999999999998 46.34 -77.66000000000003 45.68 -78 45 Z M-42 47 C-43.31999999999999 48.32 -44.639999999999986 49.64 -46 51 C-43.360000000000014 53.64 -40.72000000000003 56.28 -38 59 C-36.68000000000001 58.01 -35.360000000000014 57.019999999999996 -34 56 C-34.47205119482766 51.75153924655125 -36.88877522363208 49.73180712071327 -40 47 C-40.660000000000025 47 -41.31999999999999 47 -42 47 Z M-54 58 C-55.64999999999998 59.65 -57.30000000000001 61.3 -59 63 C-56.02999999999997 65.97 -53.06 68.94 -50 72 C-48.35000000000002 70.35 -46.69999999999999 68.7 -45 67 C-45.932741090071374 65.87105123725988 -46.87140122446107 64.74699124091016 -47.8125 63.625 C-48.33457031249998 62.998515624999996 -48.85664062500001 62.37203125 -49.39453125 61.7265625 C-51.08225739018218 59.77789520385089 -51.08225739018218 59.77789520385089 -54 58 Z M-67 70 C-68.35827970738018 71.64639964530933 -69.69254250729443 73.31295807392831 -71 75 C-68.02999999999997 77.97 -65.06 80.94 -62 84 C-60.35000000000002 82.35 -58.69999999999999 80.7 -57 79 C-58.476139854812914 77.49702123873597 -59.955991569545176 75.99768714966415 -61.4375 74.5 C-62.26121093749998 73.6646875 -63.08492187500002 72.829375 -63.93359375 71.96875 C-65.64498098481118 69.88503468985822 -65.64498098481118 69.88503468985822 -67 70 Z M-409 71 C-409 74.45665176188876 -408.6136854544683 74.86186799183643 -406.3125 77.25 C-403.8532230583289 79.66217128563265 -403.8532230583289 79.66217128563265 -400.5 80 C-399.675 79.67 -398.85 79.34 -398 79 C-396.36031249999996 78.4740625 -396.36031249999996 78.4740625 -394.6875 77.9375 C-393.80062499999997 77.628125 -392.91375 77.31875 -392 77 C-395.95484247672573 72.49963009717356 -395.95484247672573 72.49963009717356 -401.3828125 70.90234375 C-402.7401953125 70.91974609375 -402.7401953125 70.91974609375 -404.125 70.9375 C-405.035078125 70.9465234375 -405.94515624999997 70.955546875 -406.8828125 70.96484375 C-407.93082031250003 70.98224609375 -407.93082031250003 70.98224609375 -409 71 Z M-21 80 C-23.2116822541185 82.94236781640654 -23.2116822541185 82.94236781640654 -25 86 C-21.185869979039808 84.83217340322578 -21.185869979039808 84.83217340322578 -18.6875 81.875 C-18.460624999999993 81.25625 -18.233749999999986 80.6375 -18 80 C-18.99000000000001 80 -19.980000000000018 80 -21 80 Z M-81.6640625 83.50390625 C-82.31117187500001 84.1832421875 -82.95828125000003 84.862578125 -83.625 85.5625 C-86.34719074128583 88.35852954981979 -89.10042126127621 91.02192564319984 -92.0625 93.5625 C-95.27302135828336 96.32242186940151 -98.25357246525084 99.23091014643722 -101.21875 102.25 C-103.71896185371986 104.70634848786514 -106.37680516041684 106.9630936766668 -109.03125 109.25 C-110.93023071328003 110.93798285624888 -112.72005988485529 112.68769733730721 -114.5 114.5 C-116.8905316671163 116.93389732094158 -119.3504626245338 119.21355558951151 -121.9375 121.4375 C-124.74576347228134 123.85617778826543 -127.39970593004574 126.35899682523237 -130 129 C-133.22158549964195 132.2720212804583 -136.58592145486517 135.2931605489192 -140.06640625 138.28515625 C-141.9549459715036 139.96004299290928 -143.7315564762091 141.69947586806776 -145.5 143.5 C-147.89053166711636 145.93389732094158 -150.35046262453375 148.2135555895115 -152.9375 150.4375 C-155.74576347228128 152.8561777882654 -158.39970593004574 155.3589968252324 -161 158 C-164.22158549964195 161.27202128045826 -167.58592145486517 164.29316054891916 -171.06640625 167.28515625 C-173.56431555781484 169.50047379773883 -175.8802498882473 171.86898170439724 -178.21875 174.25 C-180.71896185371986 176.7063484878651 -183.37680516041684 178.9630936766668 -186.03125 181.25 C-187.93023071328008 182.937982856249 -189.72005988485523 184.68769733730716 -191.5 186.5 C-193.8905316671163 188.93389732094158 -196.3504626245338 191.2135555895115 -198.9375 193.4375 C-201.74576347228128 195.85617778826537 -204.39970593004574 198.3589968252324 -207 201 C-210.2164453842833 204.26680069362627 -213.57390573622928 207.2844730977057 -217.05078125 210.26953125 C-219.63636884038482 212.5649526979769 -222.03550216993477 215.0224221181258 -224.45703125 217.48828125 C-226.18455090173586 219.1808131619539 -228.00012772158743 220.64008685067944 -230 222 C-228.54254576033634 225.36335593768533 -226.6888214641699 227.54534005022072 -224.0859375 230.109375 C-223.325390625 230.8634765625 -222.56484375000002 231.617578125 -221.78125 232.39453125 C-220.9871875 233.1718359375 -220.193125 233.949140625 -219.375 234.75 C-218.57320312500002 235.5427734375 -217.77140624999998 236.335546875 -216.9453125 237.15234375 C-214.96797154215005 239.10614493454221 -212.98611091305628 241.0551210286073 -211 243 C-207.78632963030572 241.48444580401252 -205.95581068421063 240.0680373228239 -203.6875 237.3125 C-201.38530014438987 234.58814835849975 -199.0507003989731 231.99338128888385 -196.5 229.5 C-194.06610267905842 227.10946833288367 -191.78644441048846 224.6495373754662 -189.5625 222.0625 C-186.5232034867663 218.53365237054072 -183.28983152666638 215.26994973049426 -179.97265625 212.00390625 C-177.42662170629995 209.4175384858057 -175.07978443487627 206.684647199754 -172.71484375 203.93359375 C-170.49952620226117 201.43568444218516 -168.13101829560276 199.1197501117527 -165.75 196.78125 C-163.91757512822932 194.91610325551915 -162.20646865271704 192.98072254333226 -160.5 191 C-158.25442060317596 188.3935239144007 -155.9544848798099 185.91065479267047 -153.5 183.5 C-151.06610267905842 181.10946833288367 -148.78644441048846 178.6495373754662 -146.5625 176.0625 C-143.5232034867663 172.53365237054072 -140.28983152666638 169.26994973049426 -136.97265625 166.00390625 C-134.42662170629995 163.41753848580572 -132.07978443487627 160.684647199754 -129.71484375 157.93359375 C-127.49830602884333 155.434308620222 -125.12837718578731 153.11718115575104 -122.74609375 150.77734375 C-120.93522357392442 148.9340642642855 -119.2467864641842 147.02177200935714 -117.5625 145.0625 C-114.5232034867663 141.53365237054072 -111.28983152666638 138.26994973049423 -107.97265625 135.00390625 C-105.42662170630001 132.41753848580575 -103.07978443487622 129.68464719975398 -100.71484375 126.93359375 C-98.49952620226117 124.43568444218513 -96.13101829560276 122.1197501117527 -93.75 119.78125 C-91.91757512822937 117.91610325551916 -90.20646865271704 115.98072254333229 -88.5 114 C-86.25442060317607 111.39352391440076 -83.95448487980991 108.91065479267043 -81.5 106.5 C-74.27001752035358 99.47607303504898 -74.27001752035358 99.47607303504898 -69 91 C-70.45217675684228 89.49403891883021 -71.91192861259299 87.99537895747598 -73.375 86.5 C-74.18710937499998 85.6646875 -74.99921875000001 84.829375 -75.8359375 83.96875 C-78.40578738115516 81.63083602869635 -79.04729794157589 81.1389899237247 -81.6640625 83.50390625 Z M-394 89 C-364.3 118.7 -334.6 148.4 -304 179 C-300.5954822850597 177.86516076168658 -300.3994436041542 177.44722062856835 -298.8125 174.4375 C-298.214375 173.303125 -297.61625 172.16875 -297 171 C-307.4482857370595 160.48157112798137 -317.90519973205573 149.97178608791984 -328.37239265441895 139.47217082977295 C-333.23251075037257 134.59659700753542 -338.0897878306787 129.7182551602533 -342.9404296875 124.833251953125 C-347.6214306546293 120.11910727040001 -352.3102800829839 115.4128669548848 -357.0039939880371 110.71137428283691 C-358.7935732751315 108.91625133385116 -360.5805096716863 107.11848964893963 -362.36474990844727 105.31805992126465 C-364.8639910358843 102.7970471768861 -367.37245867859065 100.2855744201003 -369.88330078125 97.776123046875 C-370.6191389465332 97.02949905395508 -371.3549771118164 96.28287506103516 -372.1131134033203 95.51362609863281 C-376.3042293668382 91.34756706650452 -380.1976248303635 87.60969119099344 -386.265625 86.63671875 C-390.59884514411914 86.59429502350314 -390.59884514411914 86.59429502350314 -394 89 Z M-44 104 C-45.64999999999998 105.65 -47.30000000000001 107.3 -49 109 C-48.670000000000016 109.66 -48.339999999999975 110.32 -48 111 C-46.35000000000002 109.35 -44.69999999999999 107.7 -43 106 C-43.329999999999984 105.34 -43.660000000000025 104.68 -44 104 Z M-279.234375 166.8515625 C-281.4232794252206 169.05157474260392 -281.4232794252206 169.05157474260392 -281 173 C-279.3930697082287 175.18900446650423 -279.3930697082287 175.18900446650423 -277.14453125 177.3095703125 C-275.88322387695314 178.57042449951172 -275.88322387695314 178.57042449951172 -274.596435546875 179.85675048828125 C-273.67773681640625 180.75480407714844 -272.7590380859375 181.65285766601562 -271.8125 182.578125 C-270.8802661132812 183.5046990966797 -269.94803222656253 184.43127319335937 -268.987548828125 185.38592529296875 C-266.5105591643321 187.8476517472371 -264.0217929653046 190.29713016263537 -261.5303955078125 192.7442626953125 C-258.9896139709102 195.24410637862502 -256.46013618349997 197.75533009316464 -253.9296875 200.265625 C-248.964138890666 205.1882907545766 -243.98605825264383 210.09811154101013 -239 215 C-235.7245416841875 213.74579754473592 -233.38323137207158 212.75597054076837 -230.94921875 210.20703125 C-230.41957519531252 209.6625634765625 -229.88993164062498 209.118095703125 -229.34423828125 208.55712890625 C-228.52415283203123 207.69353759765625 -228.52415283203123 207.69353759765625 -227.6875 206.8125 C-226.5344800331584 205.6270280217077 -225.3795409504762 204.44341949259763 -224.22265625 203.26171875 C-223.6685205078125 202.6950146484375 -223.114384765625 202.128310546875 -222.54345703125 201.54443359375 C-220.06715898962335 199.06656877069872 -217.42584580379372 196.80521631033525 -214.7578125 194.5390625 C-212.30723913106533 192.39344937253279 -210.05861230776793 190.0687458643714 -207.77734375 187.74609375 C-205.9340642642855 185.93522357392442 -204.02177200935716 184.2467864641842 -202.0625 182.5625 C-198.43975266383904 179.44721921676432 -195.08494309062678 176.13029621324347 -191.76171875 172.69921875 C-190 171 -190 171 -187 169 C-187 168.34 -187 167.68 -187 167 C-214.12555368964075 147.06682797049126 -253.4560023043464 143.7483039520086 -279.234375 166.8515625 Z M-290 179 C-290.8879163086365 180.14119079667378 -291.7361603843108 181.3134610646514 -292.5625 182.5 C-293.01753906249996 183.1496875 -293.47257812500004 183.799375 -293.94140625 184.46875 C-294.2907421875 184.9740625 -294.640078125 185.479375 -295 186 C-293.55419034197007 189.31613881518578 -291.7517020835254 191.4918572847554 -289.19287109375 194.0341796875 C-288.0218836975098 195.20494049072266 -288.0218836975098 195.20494049072266 -286.8272399902344 196.39935302734375 C-285.984485168457 197.2317852783203 -285.14173034667965 198.06421752929688 -284.2734375 198.921875 C-283.4106216430664 199.78186096191405 -282.5478057861328 200.64184692382813 -281.6588439941406 201.52789306640625 C-278.9022197092134 204.27332309627675 -276.13872201361556 207.01171690036875 -273.375 209.75 C-271.5047514280021 211.6102178270616 -269.6349541106158 213.47088946029612 -267.765625 215.33203125 C-263.1823064020708 219.8932994465875 -258.59332522486716 224.4488101141691 -254 229 C-250.6440580568771 227.73671579882443 -248.3670970426554 226.74084920728518 -246 224 C-247.4701593651963 220.60342594412992 -249.36362160054438 218.3882968227861 -251.974853515625 215.7822265625 C-252.792325592041 214.9616778564453 -253.60979766845702 214.1411291503906 -254.45204162597656 213.29571533203125 C-255.3354069519043 212.41953552246093 -256.21877227783204 211.54335571289062 -257.12890625 210.640625 C-258.48616065979 209.28405792236327 -258.48616065979 209.28405792236327 -259.87083435058594 207.90008544921875 C-261.7825816037581 205.99135800824664 -263.69609987889135 204.08464383105724 -265.613037109375 202.18115234375 C-268.0753146141657 199.7359243597861 -270.5308973832639 197.2841044946638 -272.98428440093994 194.82995986938477 C-275.32136714502803 192.49321346049888 -277.66268557176176 190.1607244873616 -280.00390625 187.828125 C-280.8892958068848 186.94384826660155 -281.77468536376955 186.05957153320313 -282.68690490722656 185.14849853515625 C-283.50122482299804 184.34055847167969 -284.3155447387695 183.53261840820312 -285.154541015625 182.7001953125 C-286.2347023773193 181.62575164794922 -286.2347023773193 181.62575164794922 -287.33668518066406 180.52960205078125 C-288.7460602868988 178.88718311551847 -288.7460602868988 178.88718311551847 -290 179 Z M-301 197 C-302.30552979567926 198.50894955454092 -303.59381367202764 200.03282735574825 -304.875 201.5625 C-309.61520816856284 206.9286293760059 -314.7972807453692 210.49865193476919 -321 214 C-320.236875 214.7425 -319.47375 215.485 -318.6875 216.25 C-314.11332520747953 220.93055095048607 -312.3851161642234 223.7628404312052 -311.9453125 230.29296875 C-312.19867394423034 242.8343602394003 -320.4751052578862 253.14566342312324 -329.03955078125 261.578369140625 C-344.0671863166226 275.68946132860935 -363.3432815079613 285.8831047567555 -384.20703125 285.30078125 C-388.94786810016194 284.92483435251035 -392.507727616724 284.3515258892396 -396 281 C-398.0005393655371 278.1300904410443 -399.58052630014976 275.19381582466303 -401 272 C-402.58786830494296 274.11391056547626 -404.1685549162816 276.23109565444946 -405.7265625 278.3671875 C-406.353046875 279.194765625 -406.97953125 280.02234375 -407.625 280.875 C-408.236015625 281.69742187500003 -408.84703125 282.51984375 -409.4765625 283.3671875 C-416.11753170809766 290.2960005747025 -424.59126646905935 293.79182462103233 -433.3125 297.4375 C-447.71438002915056 303.6258732025316 -461.17967279427154 310.32543643592453 -472 322 C-472.796640625 322.78890624999997 -472.796640625 322.78890624999997 -473.609375 323.59375 C-485.749109758446 336.270641163687 -489.55178167295867 352.6512984231508 -489.490234375 369.7060546875 C-489.02135544188366 385.76801716461983 -484.1405798275495 400.7344396454527 -477 415 C-476.4547265625 416.116328125 -475.909453125 417.23265625 -475.34765625 418.3828125 C-470.0579986499936 428.7132026364831 -463.30077754405914 438.0040993939869 -456 447 C-453.08872086067345 445.6729063808011 -450.9134943232821 444.2070594401845 -448.577880859375 442.027099609375 C-447.92361114501955 441.41727737426754 -447.26934143066404 440.8074551391602 -446.5952453613281 440.1791534423828 C-424.43946623190845 419.1007109351009 -406.621257923593 397.6260285593637 -390.76025390625 371.4853515625 C-386.71632592030096 364.8525109182568 -382.36430788651035 358.4247133317605 -378 352 C-372.8517025620562 356.30627255986474 -368.04247927821126 360.8231193104565 -363.31640625 365.5859375 C-362.61603744506834 366.28772125244143 -361.9156686401367 366.9895050048828 -361.19407653808594 367.7125549316406 C-358.9811697330464 369.93101135591445 -356.77178583513796 372.15293815294035 -354.5625 374.375 C-353.0529668558422 375.8895546622894 -351.54320343278937 377.4038798461211 -350.033203125 378.91796875 C-346.3528029754591 382.60933099236905 -342.67528043236575 386.3035406855023 -339 390 C-342.4510810263049 393.820661338818 -346.3950570972001 396.3749791599479 -350.70703125 399.10546875 C-351.4584590148926 399.58743209838866 -352.20988677978517 400.0693954467773 -352.9840850830078 400.5659637451172 C-357.34667213301344 403.3530701422894 -361.74562767081113 406.0732808465323 -366.1732482910156 408.7555236816406 C-392.3783197220251 424.7007216941374 -413.0897407150467 444.6831066054218 -434 467 C-432.1417285420942 471.1706895412974 -429.43437221156387 473.20540118685756 -425.75 475.75 C-424.81498657226564 476.4041589355469 -424.81498657226564 476.4041589355469 -423.861083984375 477.071533203125 C-408.9114473575679 487.37042221239545 -392.7381939199232 495.83675315116375 -375 500 C-374.24775146484376 500.17732666015627 -373.4955029296875 500.3546533203125 -372.720458984375 500.537353515625 C-353.2123441985665 504.8285658429585 -334.17999919375154 502.14903866961834 -317 492 C-301.03959491088534 481.3597299405902 -292.3499903035736 464.5861589045135 -284.94140625 447.453125 C-278.5808866477643 432.760863477347 -273.11727779121725 423.2643850414777 -259 415 C-261.13898425650405 413.3459125982543 -263.0481906238798 411.97710945365714 -265.5 410.8125 C-269.1923380306338 408.1355549277905 -270.8283915754537 405.3105165566196 -272 401 C-274.15206733879427 380.8270859555446 -265.56577819287816 363.3517790676393 -253.34375 347.78125 C-244.53652544717653 337.33001019731614 -234.08023975309106 327.12866616739643 -220 325 C-214.8830091538283 324.75741673025556 -210.6293791034771 325.0612466564261 -206.5625 328.375 C-205.71687500000002 329.24125000000004 -204.87124999999997 330.10749999999996 -204 331 C-203.00117577773568 332.00117439690496 -202.00145878687385 333.00146091804413 -201 334 C-200.41605468749998 332.96552734375 -200.41605468749998 332.96552734375 -199.8203125 331.91015625 C-195.48326730338323 324.6251195026875 -190.5585789335596 319.34451603237756 -184 314 C-188.37029365618275 308.7705125569895 -192.96911803503826 303.89710044928347 -197.8046875 299.09765625 C-198.52866729736326 298.3750914001465 -199.25264709472657 297.652526550293 -199.99856567382813 296.90806579589844 C-202.28835264610007 294.62383077836876 -204.58160993466777 292.3431168756031 -206.875 290.0625 C-208.43773160552013 288.50478960921566 -210.00023389857347 286.9468491308931 -211.5625 285.388671875 C-215.37235309733518 281.58978397998874 -219.1850537935469 277.79377286610924 -223 274 C-226.84792270683806 275.77860886646386 -228.98328535540332 277.9350713530968 -231.8125 281.125 C-232.77233417868212 282.1963020470419 -233.7333408580477 283.26655436629994 -234.6953125 284.3359375 C-235.216416015625 284.916982421875 -235.73751953124997 285.49802734375 -236.2744140625 286.0966796875 C-239.5327190161288 289.69058820737695 -242.86407278604423 293.21641894750604 -246.1875 296.75 C-247.19550659179689 297.8233862304687 -247.19550659179689 297.8233862304687 -248.223876953125 298.91845703125 C-249.81528434930078 300.6129022230261 -251.40745255858363 302.30662649238866 -253 304 C-258.0671129936675 299.75789864304795 -262.81223370727264 295.32282910559786 -267.46484375 290.6328125 C-268.1430165100098 289.95322479248046 -268.82118927001954 289.2736370849609 -269.51991271972656 288.5734558105469 C-271.6614914149635 286.42632998472754 -273.7995452908591 284.275733732439 -275.9375 282.125 C-277.39885588674696 280.65862227171783 -278.86044225641956 279.1924741988428 -280.322265625 277.7265625 C-283.8841793452426 274.1536899973088 -287.4429386522404 270.5777031643478 -291 267 C-290.06528855198167 265.8933361921879 -289.1282163431897 264.788666118768 -288.190185546875 263.684814453125 C-287.407827835083 262.761742477417 -287.407827835083 262.761742477417 -286.6096649169922 261.8200225830078 C-284.18482351930743 259.07829288671485 -281.5291070178581 256.63498364616095 -278.8125 254.1875 C-277.9797253417969 253.42808105468748 -277.9797253417969 253.42808105468748 -277.130126953125 252.6533203125 C-275.423482889224 251.09842650324944 -273.71186839714505 249.54913765634808 -272 248 C-270.9032391669857 247.001748697628 -269.80687286929094 246.0030637220027 -268.7109375 245.00390625 C-266.1443842958151 242.66511285960823 -263.57352194070825 240.33112608657342 -261 238 C-262.4176507506164 234.7797803040628 -264.1233580602668 232.62827426960075 -266.607666015625 230.1494140625 C-267.34505508422853 229.4089483642578 -268.08244415283207 228.66848266601562 -268.84217834472656 227.90557861328125 C-269.6380485534668 227.11689392089843 -270.43391876220704 226.32820922851562 -271.25390625 225.515625 C-272.06995834350585 224.7000311279297 -272.8860104370117 223.88443725585938 -273.72679138183594 223.04412841796875 C-275.4501798918438 221.323758498437 -277.1759956984432 219.60581719512763 -278.904052734375 217.89013671875 C-281.5609728525674 215.25151662892245 -284.2097604234702 212.60493837856902 -286.857421875 209.95703125 C-288.53077784533764 208.28858882080058 -290.20459024977225 206.62060401767877 -291.87890625 204.953125 C-292.6768006896973 204.15634338378905 -293.4746951293945 203.35956176757813 -294.29676818847656 202.53863525390625 C-295.03100509643554 201.8107781982422 -295.7652420043945 201.08292114257813 -296.521728515625 200.3330078125 C-297.4953005218506 199.36515350341796 -297.4953005218506 199.36515350341796 -298.48854064941406 198.37774658203125 C-299.7823128194626 196.88772320870711 -299.7823128194626 196.88772320870711 -301 197 Z M-156 200 C-157.45078084773672 201.4685093306011 -158.83624327188494 203.0019263948964 -160.1875 204.5625 C-162.9241525232768 207.67571591047968 -165.66045476535658 210.72767801330764 -168.625 213.625 C-171.67660015249555 216.62034945844033 -174.4601848130448 219.7930716579984 -177.25 223.03125 C-179.47920289939435 225.53910326181867 -181.85708750283078 227.86856808313735 -184.25 230.21875 C-186.701495851937 232.7140225635787 -188.95519032140834 235.36418373852848 -191.23046875 238.01953125 C-193.52233683756822 240.5846021559538 -195.99187506995986 242.9307223185213 -198.51953125 245.26171875 C-200.44061849046858 247.3299627241021 -200.44061849046858 247.3299627241021 -202 252 C-187.81 266.19 -173.62 280.38 -159 295 C-148.58470644586168 289.79235322293084 -143.70875397452005 279.764363619272 -140.03515625 269.234375 C-134.05169184759222 249.05052273012672 -139.28704641944302 226.5679637574487 -148.875 208.32421875 C-151.27135401618176 204.05499671482218 -151.27135401618176 204.05499671482218 -154 200 C-154.65999999999997 200 -155.32 200 -156 200 Z M-242.125 233.5 C-243.07375 234.325 -244.0225 235.15 -245 236 C-243.51346493774724 239.46629834792577 -241.5427764888002 241.69022036315474 -238.8671875 244.328125 C-238.0615234375 245.12734375 -237.255859375 245.9265625 -236.42578125 246.75 C-235.58402343749998 247.575 -234.74226562500002 248.4 -233.875 249.25 C-233.0255078125 250.09046875 -232.176015625 250.9309375 -231.30078125 251.796875 C-229.20495076513072 253.8691568277359 -227.10459286643282 255.93662392667298 -225 258 C-221.67364118298252 256.47427343516966 -220.04436997580444 255.06655496370666 -218 252 C-219.45241735939118 248.6676542589804 -221.28500860288324 246.45774394144783 -223.84375 243.890625 C-224.5952734375 243.1365234375 -225.346796875 242.382421875 -226.12109375 241.60546875 C-226.9061328125 240.8281640625 -227.691171875 240.050859375 -228.5 239.25 C-229.2850390625 238.4572265625 -230.070078125 237.664453125 -230.87890625 236.84765625 C-232.00619140625003 235.72423828125 -232.00619140625003 235.72423828125 -233.15625 234.578125 C-233.84525390624998 233.891376953125 -234.53425781250002 233.20462890625 -235.244140625 232.4970703125 C-238.24799435570395 229.935942520971 -239.466680494586 231.18841782137915 -242.125 233.5 Z M-260 250.4375 C-261.17006657994807 251.53569597289655 -262.34064560795105 252.63334619879203 -263.51171875 253.73046875 C-264.09614746093746 254.2800927734375 -264.68057617187503 254.829716796875 -265.28271484375 255.39599609375 C-269.13262957290635 258.9919499991463 -273.0725416014929 262.48922454670696 -277 266 C-272.3253366314578 271.62303756631354 -267.3223433272956 276.7974155398696 -262.125 281.9375 C-261.34125 282.71673828125 -260.5575 283.4959765625 -259.75 284.298828125 C-257.835614194163 286.20154084665506 -255.9189196621113 288.1018617071052 -254 290 C-253.3103515625 289.3090625 -252.620703125 288.618125 -251.91015625 287.90625 C-249.88309382537258 285.87847356958724 -247.8479289702738 283.8591795774753 -245.80859375 281.84375 C-244.6848639275866 280.7291988342457 -243.56116645237825 279.6146150540277 -242.4375 278.5 C-241.591552734375 277.66662109375 -241.591552734375 277.66662109375 -240.728515625 276.81640625 C-237.5877481935105 273.6940058795134 -234.69298228444467 270.52918949746294 -232 267 C-233.48229451334834 263.56394818960746 -235.42951739640932 261.31298409310796 -238.0625 258.671875 C-238.859140625 257.87265625 -239.65578125000002 257.0734375 -240.4765625 256.25 C-241.30929687499997 255.425 -242.14203125 254.6 -243 253.75 C-244.24910156250002 252.489296875 -244.24910156250002 252.489296875 -245.5234375 251.203125 C-246.320078125 250.4090625 -247.11671875 249.615 -247.9375 248.796875 C-248.6683984375 248.068232421875 -249.399296875 247.33958984375 -250.15234375 246.5888671875 C-254.32145702783853 243.00369419434816 -256.84175165119984 247.43050443130682 -260 250.4375 Z M-211 259 C-212.7143618000627 260.9592706286431 -214.38405167664484 262.9588021178672 -216 265 C-214.55419034197013 268.31613881518575 -212.7517020835254 270.49185728475544 -210.19287109375 273.0341796875 C-209.41221282958986 273.81468688964844 -208.63155456542967 274.5951940917969 -207.82723999023438 275.39935302734375 C-206.984485168457 276.23178527832033 -206.1417303466797 277.06421752929685 -205.2734375 277.921875 C-204.4106216430664 278.78186096191405 -203.5478057861328 279.6418469238281 -202.65884399414063 280.52789306640625 C-199.9022197092134 283.2733230962768 -197.13872201361556 286.01171690036875 -194.375 288.75 C-192.50475142800207 290.6102178270616 -190.6349541106158 292.4708894602961 -188.765625 294.33203125 C-184.18230640207082 298.8932994465875 -179.59332522486716 303.4488101141691 -175 308 C-171.06326355713657 306.6877545190455 -168.77280705557058 305.08089672841174 -166 302 C-171.56609292813278 296.38763750142925 -177.13751466769827 290.78064359233184 -182.71588706970215 285.1804885864258 C-185.30577096844058 282.580151982088 -187.89375542845772 279.97798128516206 -190.4775390625 277.37158203125 C-192.96947725676858 274.85796836260795 -195.4662201764732 272.34922240955854 -197.9664192199707 269.8438262939453 C-198.9210878811279 268.88545232973587 -199.87398981861287 267.925315221823 -200.82511520385742 266.9634246826172 C-202.15399744547096 265.6200984250012 -203.48967706702092 264.2835066238523 -204.82568359375 262.947265625 C-205.58513275146487 262.1833752441406 -206.34458190917968 261.41948486328124 -207.12704467773438 260.6324462890625 C-208.83719649991758 258.7809844012527 -208.83719649991758 258.7809844012527 -211 259 Z M-162.5625 312.5 C-163.20316406249998 312.9640625 -163.84382812500002 313.428125 -164.50390625 313.90625 C-164.9976171875 314.2671875 -165.491328125 314.628125 -166 315 C-164.5580204161264 318.3002787515349 -162.77180822583506 320.47555513865507 -160.22885131835938 323.01165771484375 C-159.05095283508302 324.19368019104 -159.05095283508302 324.19368019104 -157.84925842285156 325.3995819091797 C-156.98683029174805 326.2548194885254 -156.12440216064454 327.1100570678711 -155.23583984375 327.9912109375 C-153.87477867126466 329.35271018981933 -153.87477867126466 329.35271018981933 -152.48622131347656 330.74171447753906 C-150.0012079692114 333.2273013753311 -147.51007875722973 335.7066757756946 -145.01780652999878 338.18498134613037 C-142.41304986176124 340.77723115897754 -139.8139600151785 343.3751500351869 -137.21426391601563 345.97247314453125 C-132.29196784509298 350.88855432400135 -127.3645959715443 355.79951522572213 -122.43538057804108 360.70865750312805 C-116.82327399047205 366.29840540420605 -111.21684884510012 371.89383687694544 -105.61089396476746 377.4897532463074 C-94.08023972420733 388.99950527596843 -82.54247085774534 400.5020979568328 -71 412 C-67.25979501653876 410.3184792721414 -65.43865651533542 408.3096052708123 -63 405 C-75.36616266187616 392.6105112817282 -87.73516080920422 380.22386146208424 -100.10757350921631 367.84061431884766 C-105.85180083992572 362.09122340554046 -111.59508461540884 356.340895751825 -117.336181640625 350.58837890625 C-122.33818374035775 345.57643186554145 -127.34192155448966 340.5662254726605 -132.34778076410294 335.5581307411194 C-135.00002924983795 332.90457482459584 -137.65138044823988 330.25013573871087 -140.30065727233887 327.59361267089844 C-143.2529927428552 324.63326709429833 -146.2091953247417 321.67681341392506 -149.165771484375 318.720703125 C-150.05049636840818 317.8323829650879 -150.9352212524414 316.9440628051758 -151.8467559814453 316.02882385253906 C-152.64747528076174 315.2294792175293 -153.4481945800781 314.43013458251954 -154.27317810058594 313.6065673828125 C-154.9728189754486 312.90600471496583 -155.67245985031127 312.20544204711916 -156.39330196380615 311.48365020751953 C-159.08755248036505 308.99573695440347 -159.83038925204318 310.5130103651223 -162.5625 312.5 Z M-377 368 C-378.3349437624151 369.7381922400232 -379.5783908237215 371.5468263079313 -380.78125 373.37890625 C-381.1514224243164 373.9384097290039 -381.52159484863284 374.4979132080078 -381.9029846191406 375.0743713378906 C-383.1084728435751 376.8995675182943 -384.3042169612991 378.73093405573906 -385.5 380.5625 C-386.3181704240995 381.8048896124689 -387.1370180785949 383.0468335028345 -387.95654296875 384.288330078125 C-389.57161330027134 386.7366482580152 -391.1833084844459 389.1871294218454 -392.7919921875 391.6396484375 C-395.5470857792674 395.8373662902806 -398.3332161169899 400.01412200644864 -401.125 404.1875 C-401.8986496913537 405.347514761065 -402.6721152725939 406.50765235420454 -403.4453125 407.66796875 C-403.958359375 408.4375390625 -404.47140625 409.207109375 -405 410 C-404.0734729914987 411.1753999590049 -403.13336612891374 412.34010576892337 -402.1875 413.5 C-401.6654296875 414.1496875 -401.143359375 414.799375 -400.60546875 415.46875 C-399.00795167084266 417.34509128113024 -399.00795167084266 417.34509128113024 -396 417 C-393.85762525592844 415.76802758010854 -391.8321855931769 414.5003625265069 -389.78515625 413.125 C-389.1741758728027 412.72224853515627 -388.56319549560544 412.3194970703125 -387.93370056152344 411.904541015625 C-385.9723197895756 410.60941337951306 -384.01740489688143 409.30487672441325 -382.0625 408 C-380.7810114236055 407.15172031300966 -379.4991142369714 406.304057567169 -378.216796875 405.45703125 C-374.47182834822047 402.98037788527483 -370.735185132775 400.49137461440444 -367 398 C-365.7941480720033 397.1965545474246 -364.5882570868197 396.39316771032145 -363.38232421875 395.58984375 C-360.58758531391686 393.7275056168542 -357.7934582512294 391.8642582853364 -355 390 C-356.48229451334834 386.56394818960746 -358.4295173964093 384.31298409310796 -361.0625 381.671875 C-361.859140625 380.87265625 -362.65578125 380.0734375 -363.4765625 379.25 C-364.309296875 378.425 -365.14203125 377.6 -366 376.75 C-367.2491015625 375.489296875 -367.2491015625 375.489296875 -368.5234375 374.203125 C-369.320078125 373.4090625 -370.11671875 372.615 -370.9375 371.796875 C-371.6683984375 371.068232421875 -372.399296875 370.33958984375 -373.15234375 369.5888671875 C-374.84659142028556 367.7826627918419 -374.84659142028556 367.7826627918419 -377 368 Z M-57.41015625 414.3125 C-57.955429687499986 414.869375 -58.50070312499997 415.42625 -59.0625 416 C-59.6103515625 416.556875 -60.158203125 417.11375 -60.72265625 417.6875 C-61.144179687500014 418.120625 -61.56570312500003 418.55375 -62 419 C-60.67879171671291 421.932301928308 -59.25361802841195 423.986648991753 -56.9609375 426.234375 C-56.380859375 426.8080078125 -55.80078125 427.381640625 -55.203125 427.97265625 C-54.298203124999986 428.85244140625 -54.298203124999986 428.85244140625 -53.375 429.75 C-52.76398437500001 430.3519921875 -52.152968750000014 430.953984375 -51.5234375 431.57421875 C-50.020113761687014 433.0540530549019 -48.51065144201743 434.52764676355486 -47 436 C-43.20478689951244 434.50902342480845 -41.389572691916555 432.2429915104582 -39 429 C-41.641816695261866 426.3293279719887 -44.289104197712504 423.6641466694209 -46.9375 421 C-47.692246093749986 420.236875 -48.44699218749997 419.47375 -49.224609375 418.6875 C-49.94326171875002 417.965625 -50.66191406249999 417.24375 -51.40234375 416.5 C-52.06741943359373 415.8296875 -52.73249511718751 415.159375 -53.417724609375 414.46875 C-55.426529873096854 412.5243571162561 -55.426529873096854 412.5243571162561 -57.41015625 414.3125 Z M-413.48695373535156 420.36669921875 C-414.1242692565918 421.0062353515625 -414.761584777832 421.645771484375 -415.418212890625 422.3046875 C-416.13888442993164 423.0254345703125 -416.8595559692383 423.746181640625 -417.60206604003906 424.48876953125 C-418.38436080932615 425.2762255859375 -419.16665557861324 426.063681640625 -419.97265625 426.875 C-420.77029891967777 427.6740576171875 -421.5679415893555 428.473115234375 -422.38975524902344 429.29638671875 C-424.949680701075 431.8619325999863 -427.5061169348702 434.4309248222283 -430.0625 437 C-431.79208985658465 438.73460222318784 -433.52190455625964 440.4689802844448 -435.251953125 442.203125 C-439.50391943437205 446.4661474051186 -443.75302219268184 450.732008165361 -448 455 C-446.35 456.98 -444.7 458.96 -443 461 C-438.01407125078566 456.8222223492281 -433.332957157761 452.46872723439185 -428.75390625 447.8515625 C-428.0979295349121 447.19417083740234 -427.4419528198242 446.5367791748047 -426.76609802246094 445.8594665527344 C-424.6958473237095 443.7836713807694 -422.62912348880013 441.7044057323415 -420.5625 439.625 C-419.1493213825529 438.2067991955598 -417.7359120641737 436.7888282355565 -416.322265625 435.37109375 C-412.8788393507294 431.9167122325017 -409.4385690078723 428.45921630445537 -406 425 C-407.6416952819244 422.97945196070845 -409.309117783189 420.97956942455926 -411 419 C-412.2138961681728 418.88721528034205 -412.2138961681728 418.88721528034205 -413.48695373535156 420.36669921875 Z " fill="none" transform="translate(499,0)"/>
<path stroke="#f472b6" stroke-width="1.5" stroke-linecap="round" d="M0 0 C4.099689950869163 2.107996605943356 6.388049878015693 4.827095599530082 8.5 8.875 C9.617835888534131 15.861474303338355 7.736310978100562 21.651758530806717 5 28 C4.340000000000003 28.660000000000025 3.680000000000007 29.319999999999993 3 30 C-0.05729210067360668 29.804853695701695 -2.2691115322392648 29.46289602958177 -4.875 27.8125 C-6.558775485400304 25.099750606855082 -6.390155611697338 23.121244893578705 -6 20 C-5.0206120961990734 18.979804266874055 -4.021045511547641 17.978501948566475 -3 17 C-2.7493008741931533 14.374292964787685 -2.7493008741931533 14.374292964787685 -3 12 C-5.301158950169338 11.19570725124646 -5.301158950169338 11.19570725124646 -8 11 C-10.113612220859693 12.271667867937992 -10.113612220859693 12.271667867937992 -11.94482421875 14.3271484375 C-13.051549835205094 15.453919982910179 -13.051549835205094 15.453919982910179 -14.180633544921875 16.60345458984375 C-14.96407135009764 17.430408325195287 -15.747509155273434 18.257362060546882 -16.5546875 19.109375 C-17.374460754394534 19.947124633789088 -18.194234008789067 20.784874267578118 -19.038848876953125 21.64801025390625 C-21.665533819530737 24.334878803303468 -24.271655507457467 27.040523957401774 -26.875 29.75 C-29.472765245564318 32.4435154370567 -32.07479199612109 35.132289387658034 -34.689727783203125 37.80914306640625 C-36.317409821022096 39.47622494029406 -37.935147094538706 41.15309028513576 -39.541473388671875 42.84075927734375 C-44.31606067925122 47.74154625906118 -48.37001779408368 51.52588982211415 -55.44140625 52.25 C-61.13855025185549 51.57851341414596 -64.05895167127117 50.22941771863583 -68 46 C-70.41847047961892 41.932572375186396 -70.64639535615285 37.620529768055576 -70 33 C-69.04000036216055 29.45578512084137 -68.00464180012386 26.090250110219586 -66 23 C-63.355468749999986 21.7109375 -63.355468749999986 21.7109375 -61 21 C-55.19108280254777 25.235668789808926 -55.19108280254777 25.235668789808926 -54.375 28.5 C-55 31 -55 31 -57.0625 33.5625 C-59.296998870438514 35.78752245840923 -59.296998870438514 35.78752245840923 -58.75 38.3125 C-58.5025 38.86937499999999 -58.254999999999995 39.42624999999998 -58 40 C-54.99958477076956 40.288024563625584 -53.484317794109714 40.34317186694335 -50.98301696777344 38.570831298828125 C-50.33111892700197 37.901797790527326 -49.67922088623047 37.23276428222658 -49.007568359375 36.54345703125 C-48.26006820678711 35.789123840332024 -47.51256805419922 35.03479064941405 -46.74241638183594 34.257598876953125 C-45.94956741333007 33.43266937255862 -45.15671844482421 32.60773986816406 -44.33984375 31.7578125 C-43.51295547485353 30.919106140136705 -42.686067199707026 30.08039978027341 -41.83412170410156 29.216278076171875 C-39.18984013247214 26.530728605739853 -36.56294541352568 23.828956675548795 -33.9375 21.125 C-31.30599069639922 18.430807121676253 -28.670952268521262 15.740246660912192 -26.030166625976563 13.055145263671875 C-24.38698456837585 11.382741062727007 -22.749597773509407 9.704619074434788 -21.118637084960938 8.020294189453125 C-20.37428909301758 7.259656677246085 -19.629941101074223 6.499019165039044 -18.863037109375 5.71533203125 C-18.21193466186523 5.044707336425802 -17.560832214355457 4.374082641601547 -16.889999389648438 3.683135986328125 C-11.91266411745562 -0.7494221184691128 -6.412812798737434 -1.0325715523391068 0 0 Z " fill="none" transform="translate(179,274)"/>
<path stroke="#f472b6" stroke-width="1.5" stroke-linecap="round" d="M0 0 C5.803556213154025 4.802943072955031 5.803556213154025 4.802943072955031 6.2265625 9.046875 C6.251054687500016 9.990468749999991 6.275546875000003 10.934062499999982 6.30078125 11.90625 C6.356855468749984 13.306171875000018 6.356855468749984 13.306171875000018 6.4140625 14.734375 C5.3484300674049905 22.047155363129036 -1.2231617947924747 27.05864643893534 -6.27734375 31.94140625 C-7.9053654710649255 33.53928822238919 -9.532957015337217 35.137608583411065 -11.16015625 36.736328125 C-13.71856534048905 39.23878742131359 -16.280681371911555 41.737127863578394 -18.8505859375 44.227783203125 C-21.33725946354022 46.64211454818064 -23.808174064064076 49.071694430272146 -26.27734375 51.50390625 C-27.052251586914053 52.246733551025386 -27.827159423828135 52.98956085205077 -28.62554931640625 53.75489807128906 C-29.333385620117184 54.45590133666991 -30.041221923828118 55.15690460205076 -30.7705078125 55.879150390625 C-31.397979125976576 56.48948623657225 -32.025450439453124 57.09982208251955 -32.67193603515625 57.72865295410156 C-34.369529667766784 60.171046362451875 -34.27224797407857 61.74464556739133 -34.01171875 64.65625 C-32.275962263411174 65.53061418451864 -32.275962263411174 65.53061418451864 -30.01171875 65.65625 C-28.34088056461502 64.3281478526427 -26.674421617716803 62.99452303986959 -25.01171875 61.65625 C-22.51171875 61.03125 -22.51171875 61.03125 -20.01171875 61.65625 C-18.047467077211138 63.51825295557518 -16.619900345948707 65.45074381127034 -15.01171875 67.65625 C-15.919213856642756 70.66295082036032 -16.430408527299903 72.27915470683581 -19.11328125 74.01953125 C-25.935050036405812 76.58561455510312 -31.162838475559965 78.06257163873772 -38.26171875 75.46875 C-41.95602792323538 73.03386440854939 -44.32820502474544 70.9625576019879 -45.6171875 66.61328125 C-46.64976537273907 60.6734025959268 -45.22089167019948 56.74781941960674 -42.01171875 51.65625 C-39.36168566584439 48.55335405868345 -36.44849912599338 45.765988833573715 -33.4921875 42.95703125 C-31.81423738696577 41.31988254389921 -30.13650944178565 39.682506107345034 -28.458984375 38.044921875 C-25.81899182928484 35.492279302290115 -23.174244295657957 32.9447831868099 -20.524658203125 30.402099609375 C-17.95948863414526 27.93310317226394 -15.412696302162033 25.44626847120361 -12.8671875 22.95703125 C-12.065244598388688 22.19860427856446 -11.263301696777347 21.44017730712892 -10.437057495117188 20.658767700195313 C-9.345158615112297 19.586914749145535 -9.345158615112297 19.586914749145535 -8.231201171875 18.493408203125 C-7.58374435424804 17.871339874267562 -6.93628753662108 17.24927154541018 -6.2692108154296875 16.608352661132813 C-4.721009898917515 14.654820936941121 -4.721009898917515 14.654820936941121 -5.3105010986328125 11.916427612304688 C-5.657603836059565 10.797639694213842 -5.657603836059565 10.797639694213842 -6.01171875 9.65625 C-8.386011714787657 9.405550874193125 -8.386011714787657 9.405550874193125 -11.01171875 9.65625 C-11.486093750000009 10.151250000000005 -11.96046874999999 10.646250000000009 -12.44921875 11.15625 C-14.01171875 12.65625 -14.01171875 12.65625 -16.94921875 13.15625 C-20.01171875 12.65625 -20.01171875 12.65625 -22.44921875 10.46875 C-24.01171875 7.65625 -24.01171875 7.65625 -23.88671875 4.96875 C-23.01171875 2.65625 -23.01171875 2.65625 -21.01171875 0.65625 C-14.206966188870155 -1.94421941309173 -6.535457826048372 -4.365432023612925 0 0 Z " fill="none" transform="translate(232.01171875,326.34375)"/>
<path stroke="#f472b6" stroke-width="1.5" stroke-linecap="round" d="M0 0 C5.242562714798851 0.9424736804719487 8.363256030878603 4.7044556355654095 11.96630859375 8.36962890625 C13.07989242553711 9.474602203369159 13.07989242553711 9.474602203369159 14.215972900390625 10.601898193359375 C15.777994943148968 12.159846201151424 17.33250114154498 13.72536155571504 18.8798828125 15.2978515625 C21.247543275897044 17.69763239395138 23.645488278515387 20.063738014677256 26.04833984375 22.42822265625 C27.564590243387897 23.948438051584105 29.07897827425697 25.470513711340175 30.59130859375 26.99462890625 C31.307896423339855 27.699071350097654 32.02448425292968 28.403513793945308 32.762786865234375 29.129302978515625 C38.1988111422898 34.72156688447649 38.1988111422898 34.72156688447649 38.9609375 38.9609375 C38.88037109375 42.08056640625 38.88037109375 42.08056640625 36.88037109375 44.08056640625 C34.2841796875 44.6845703125 34.2841796875 44.6845703125 30.88037109375 44.08056640625 C27.737791804194444 41.8548175695434 25.115295160347614 39.155647407021206 22.41943359375 36.41650390625 C21.233581695556637 35.23926254272459 21.233581695556637 35.23926254272459 20.023773193359375 34.038238525390625 C18.357419028032893 32.375964773187434 16.69860796090046 30.706099921705118 15.046875 29.029296875 C12.514533537783507 26.46484503113004 9.951818444262017 23.933938638237976 7.38427734375 21.40478515625 C5.76906878183425 19.785611712975708 4.155722461518792 18.164578002677843 2.54443359375 16.54150390625 C1.7757998657226608 15.785015563964862 1.0071661376953216 15.028527221679667 0.215240478515625 14.249114990234375 C-4.96994218370034 8.924112196786552 -4.96994218370034 8.924112196786552 -5.7236328125 4.6767578125 C-4.82165633075283 0.7997901864290498 -3.997138950231488 0.10322866282490395 0 0 Z " fill="none" transform="translate(160.11962890625,312.91943359375)"/>

  </g>
</svg>